<svg width="24" height="24" viewBox="0 0 24 24" fill="none" xmlns="http://www.w3.org/2000/svg">
<path d="M17 2H7C4.23858 2 2 4.23858 2 7V17C2 19.7614 4.23858 22 7 22H17C19.7614 22 22 19.7614 22 17V7C22 4.23858 19.7614 2 17 2Z" fill="#080860"/>
<path d="M8.9 7.87H9.82C9.98 7.87 9.97 7.87 10.02 8.02C10.07 8.17 10.2 8.51 10.28 8.75C10.36 8.99 10.43 9.17 10.5 9.37L10.74 10.02L10.98 10.72C11.08 10.99 11.18 11.25 11.27 11.52L11.53 12.24C11.61 12.48 11.7 12.72 11.79 12.97C11.88 13.22 11.91 13.34 11.98 13.52C12.05 13.7 12.12 13.92 12.2 14.12C12.28 14.32 12.33 14.5 12.4 14.69L12.69 15.5L12.81 15.85C12.81 15.92 12.81 15.96 12.73 15.96H11.11C11.0916 15.9628 11.0728 15.9619 11.0547 15.9574C11.0367 15.9529 11.0197 15.9448 11.0048 15.9336C10.9899 15.9224 10.9774 15.9084 10.968 15.8923C10.9586 15.8763 10.9524 15.8585 10.95 15.84C10.87 15.59 10.78 15.35 10.7 15.1C10.62 14.85 10.5 14.53 10.41 14.24C10.41 14.08 10.28 14.06 10.14 14.06C9.3 14.06 8.46001 14.06 7.62001 14.06C7.51001 14.06 7.51 14.06 7.47 14.18C7.43 14.3 7.37 14.51 7.31 14.68L7.15 15.2L6.94 15.81C6.94448 15.8365 6.94448 15.8635 6.94 15.89C6.94 16.02 6.78 16 6.68 16H5.39C5.24 16 5.19 15.93 5.25 15.79C5.31 15.65 5.36001 15.49 5.41001 15.35L5.62001 14.71L6.01 13.61C6.12 13.31 6.22 13 6.32 12.69C6.42 12.38 6.51 12.16 6.61 11.89L6.82 11.26L7.19 10.26L7.49 9.38C7.59 9.1 7.69 8.82 7.78 8.53C7.79528 8.39376 7.79528 8.25624 7.78 8.12C7.78 7.91 7.78 7.91 7.99 7.91L8.9 7.87ZM8 12.49H9.81C9.9 12.49 9.91 12.49 9.88 12.4L9.7 11.81L9.51 11.24C9.45 11.05 9.39 10.87 9.34 10.68L9.16001 10.12C9.16001 9.96 9.08 9.79 9.03 9.63C8.98 9.47 9.03 9.47 8.96 9.39C8.64 10.43 8.29 11.45 8 12.49Z" fill="#9D9DFE"/>
<path d="M14.93 13.35C14.966 13.6776 15.1103 13.9837 15.34 14.22C15.7567 14.4759 16.2296 14.6261 16.7177 14.6575C17.2057 14.6889 17.694 14.6005 18.14 14.4C18.22 14.4 18.26 14.4 18.26 14.48V15.61C18.26 15.79 18.19 15.81 18.04 15.87L17.68 15.98C17.5654 16.0129 17.4484 16.0363 17.33 16.05C17.08 16.05 16.83 16.12 16.58 16.13C16.33 16.14 16.24 16.13 16.07 16.13H16C15.8 16.13 15.59 16.13 15.4 16.06C14.8481 15.9505 14.3445 15.6707 13.96 15.26C13.7167 15.0068 13.5263 14.7077 13.4 14.38C13.2985 14.1406 13.2311 13.8881 13.2 13.63C13.185 13.3369 13.185 13.0431 13.2 12.75C13.2152 12.3889 13.2826 12.0318 13.4 11.69C13.4981 11.4053 13.6361 11.1359 13.81 10.89C14.0388 10.5475 14.3477 10.266 14.71 10.07C14.8664 9.97928 15.0303 9.90232 15.2 9.83999C15.3846 9.79606 15.5716 9.76267 15.76 9.73999C15.9299 9.73002 16.1001 9.73002 16.27 9.73999C16.5198 9.74377 16.7682 9.77735 17.01 9.83999C17.2295 9.90151 17.441 9.98878 17.64 10.1C17.948 10.2766 18.2034 10.532 18.38 10.84C18.48 11.02 18.56 11.2 18.64 11.38C18.6827 11.5074 18.7161 11.6378 18.74 11.77C18.8349 12.1735 18.8451 12.5923 18.77 13C18.7749 13.0899 18.7749 13.1801 18.77 13.27C18.77 13.36 18.62 13.39 18.53 13.39C18.27 13.39 18.01 13.39 17.75 13.39C16.83 13.34 15.92 13.39 15 13.39L14.93 13.35ZM14.93 12.17H17C17.1 12.17 17.13 12.17 17.12 12.03C17.1106 11.9412 17.0905 11.8539 17.06 11.77C17.0045 11.6008 16.9047 11.4494 16.7711 11.3316C16.6375 11.2138 16.4749 11.1339 16.3 11.1C16.1179 11.0701 15.9321 11.0701 15.75 11.1C15.6152 11.1262 15.488 11.182 15.3773 11.2633C15.2667 11.3445 15.1754 11.4493 15.11 11.57C15.0127 11.7568 14.9516 11.9604 14.93 12.17Z" fill="#9D9DFE"/>
</svg>
