<svg width="24" height="24" viewBox="0 0 24 24" fill="none" xmlns="http://www.w3.org/2000/svg">
<path d="M19.8892 8.74791C19.1581 9.13547 18.5573 9.72959 18.1615 10.4562C17.7657 11.1829 17.5925 12.0099 17.6634 12.8343C17.7185 13.6647 18.0047 14.4631 18.4895 15.1394C18.9744 15.8157 19.6387 16.343 20.4074 16.6617C20.4114 16.693 20.4114 16.7246 20.4074 16.7559C19.8807 18.2791 19.047 19.6779 17.9579 20.8659C17.5333 21.3892 16.9508 21.761 16.2974 21.9258C15.8124 22.0108 15.3137 21.9702 14.8489 21.808C14.3543 21.6549 13.8714 21.4547 13.365 21.3134C12.4757 21.1021 11.5419 21.1848 10.7036 21.5489C10.2752 21.7055 9.83888 21.8391 9.39636 21.9493C9.1291 22.0108 8.852 22.0164 8.58247 21.9657C8.31294 21.9151 8.05679 21.8093 7.83009 21.6549C7.29235 21.3068 6.81501 20.8732 6.41692 20.3713C5.00265 18.6502 4.07909 16.5793 3.74366 14.3771C3.43757 12.8871 3.58947 11.3394 4.17939 9.93733C4.49755 9.15653 5.00564 8.46752 5.65755 7.93283C6.30946 7.39814 7.08456 7.03469 7.91253 6.87545C8.6732 6.73068 9.45894 6.79582 10.1854 7.06388L11.7399 7.59382C12.0127 7.6991 12.315 7.6991 12.5878 7.59382C13.2464 7.34038 13.9187 7.12413 14.6016 6.94611C15.5156 6.68219 16.487 6.69213 17.3954 6.97471C18.3039 7.25729 19.1095 7.8001 19.7125 8.53594L19.8892 8.74791Z" fill="#BFBFBF"/>
<path d="M16.1913 2C16.2569 2.61464 16.1762 3.23606 15.9558 3.81358C15.5481 4.86649 14.7915 5.74772 13.8125 6.31019C13.3248 6.60052 12.7667 6.75125 12.1991 6.74592C12.046 6.74592 12.0107 6.74592 11.9989 6.54572C11.9738 5.56439 12.2948 4.60553 12.9057 3.83713C13.6471 2.85813 14.7416 2.20738 15.9558 2.02355L16.1913 2Z" fill="#BFBFBF"/>
</svg>
