<svg width="24" height="24" viewBox="0 0 24 24" fill="none" xmlns="http://www.w3.org/2000/svg">
<path d="M9.33002 12.22V12.74C9.33002 12.83 9.28002 12.87 9.19002 12.87H7.12002C7.00002 12.87 6.96002 12.87 6.96002 12.71V9.50002C6.96002 9.37002 6.96002 9.33002 7.13002 9.33002H7.59002C7.71002 9.33002 7.75002 9.38002 7.75002 9.49002V12V12.05H9.22002C9.23934 12.052 9.25796 12.0583 9.27452 12.0685C9.29108 12.0787 9.30515 12.0924 9.3157 12.1087C9.32625 12.125 9.33302 12.1435 9.33549 12.1627C9.33797 12.182 9.3361 12.2016 9.33002 12.22Z" fill="#5BC365"/>
<path d="M10.61 9.48999V12.71C10.61 12.83 10.61 12.87 10.44 12.87C10.2802 12.88 10.1199 12.88 9.96002 12.87C9.93823 12.8734 9.91594 12.8716 9.89497 12.8648C9.87399 12.858 9.85493 12.8463 9.83933 12.8307C9.82374 12.8151 9.81205 12.796 9.80521 12.775C9.79838 12.7541 9.7966 12.7318 9.80002 12.71V9.48999C9.79472 9.46373 9.79656 9.43653 9.80533 9.41121C9.8141 9.3859 9.8295 9.36339 9.84991 9.34604C9.87032 9.32869 9.89501 9.31712 9.92141 9.31254C9.94781 9.30796 9.97495 9.31053 10 9.31999H10.47C10.4907 9.32118 10.5108 9.32663 10.5293 9.33599C10.5477 9.34535 10.564 9.35843 10.5772 9.37439C10.5903 9.39035 10.6 9.40887 10.6057 9.42876C10.6113 9.44865 10.6128 9.4695 10.61 9.48999Z" fill="#5BC365"/>
<path d="M14.24 9.48001V12.71C14.24 12.82 14.24 12.86 14.08 12.86H13.57C13.5466 12.8609 13.5233 12.8558 13.5023 12.8453C13.4814 12.8348 13.4634 12.8193 13.45 12.8L12.7 11.8L12 10.85V10.78C12 10.78 12 10.85 12 10.87V12.72C12 12.86 12 12.89 11.83 12.89H11.37C11.3482 12.8934 11.3259 12.8916 11.3049 12.8848C11.284 12.878 11.2649 12.8663 11.2493 12.8507C11.2337 12.8351 11.222 12.816 11.2152 12.7951C11.2084 12.7741 11.2066 12.7518 11.21 12.73V9.50001C11.2085 9.47993 11.2114 9.45976 11.2184 9.44088C11.2254 9.42201 11.2364 9.40487 11.2506 9.39063C11.2649 9.37639 11.282 9.36539 11.3009 9.35838C11.3198 9.35137 11.3399 9.34851 11.36 9.35001H11.91C11.9284 9.35296 11.946 9.35985 11.9615 9.3702C11.9771 9.38056 11.9902 9.39413 12 9.41001L13.1 11L13.39 11.39V11.44V9.50001C13.39 9.37001 13.44 9.32001 13.57 9.32001H14.02C14.18 9.32001 14.24 9.37001 14.24 9.48001Z" fill="#5BC365"/>
<path d="M17.15 9.50002V10C17.15 10.11 17.15 10.16 17 10.16H15.65C15.58 10.16 15.58 10.16 15.58 10.23V10.65C15.58 10.73 15.58 10.73 15.65 10.73H17C17.13 10.73 17.17 10.78 17.17 10.91V11.37C17.1734 11.3918 17.1716 11.4141 17.1648 11.4351C17.158 11.456 17.1463 11.4751 17.1307 11.4907C17.1151 11.5063 17.096 11.518 17.0751 11.5248C17.0541 11.5317 17.0318 11.5334 17.01 11.53H15.65C15.58 11.53 15.58 11.53 15.58 11.61V12C15.58 12.08 15.58 12.08 15.65 12.08H17C17.12 12.08 17.16 12.08 17.16 12.25V12.71C17.16 12.83 17.16 12.87 17 12.87C16.5 12.87 16 12.87 15.49 12.87C15.31 12.87 15.13 12.87 14.95 12.87C14.77 12.87 14.78 12.87 14.78 12.71V9.50002C14.78 9.38002 14.83 9.33002 14.95 9.33002H16.95C17.11 9.33002 17.15 9.38002 17.15 9.50002Z" fill="#5BC365"/>
<path d="M18 2H6C4.93913 2 3.92172 2.42143 3.17157 3.17157C2.42143 3.92172 2 4.93913 2 6V18C2 19.0609 2.42143 20.0783 3.17157 20.8284C3.92172 21.5786 4.93913 22 6 22H18C19.0609 22 20.0783 21.5786 20.8284 20.8284C21.5786 20.0783 22 19.0609 22 18V6C22 4.93913 21.5786 3.92172 20.8284 3.17157C20.0783 2.42143 19.0609 2 18 2ZM19.1 13C18.8463 13.5731 18.5094 14.1055 18.1 14.58C17.4464 15.3222 16.7156 15.9926 15.92 16.58C15 17.3025 14.0383 17.9703 13.04 18.58C12.73 18.77 12.41 18.94 12.09 19.1C11.9504 19.1822 11.792 19.227 11.63 19.23C11.5939 19.2368 11.5568 19.2348 11.5216 19.2243C11.4865 19.2138 11.4544 19.1951 11.4279 19.1696C11.4015 19.1442 11.3816 19.1128 11.3697 19.0781C11.3579 19.0433 11.3546 19.0063 11.36 18.97C11.3502 18.8335 11.3502 18.6965 11.36 18.56C11.4267 18.2509 11.4636 17.9361 11.47 17.62C11.4727 17.5258 11.4475 17.4329 11.3977 17.3529C11.3479 17.2728 11.2757 17.2092 11.19 17.17C11.0233 17.0881 10.8442 17.034 10.66 17.01C9.69779 16.8708 8.76521 16.5734 7.9 16.13C7.0845 15.7142 6.36032 15.1396 5.77 14.44C5.16439 13.736 4.74798 12.8894 4.56 11.98C4.56 11.77 4.5 11.56 4.48 11.34C4.46 11.12 4.48 10.93 4.48 10.72C4.51002 10.1671 4.63168 9.62303 4.84 9.11C5.11078 8.42484 5.50384 7.7946 6 7.25C6.70978 6.50802 7.564 5.91926 8.51 5.52C9.10671 5.28221 9.72679 5.10792 10.36 5L11.12 4.9C11.42 4.9 11.71 4.9 11.97 4.9H12.81C13.9558 4.9945 15.0711 5.31752 16.09 5.85C16.8007 6.21457 17.4461 6.69441 18 7.27C18.5816 7.87672 19.016 8.60886 19.27 9.41C19.3806 9.73349 19.4512 10.0693 19.48 10.41C19.48 10.63 19.48 10.84 19.48 11.06C19.4917 11.7262 19.3622 12.3874 19.1 13Z" fill="#5BC365"/>
<path d="M14.24 9.48001V12.71C14.24 12.82 14.24 12.86 14.08 12.86H13.57C13.5466 12.8609 13.5233 12.8558 13.5023 12.8453C13.4814 12.8348 13.4634 12.8193 13.45 12.8L12.7 11.8L12 10.85V10.78C12 10.78 12 10.85 12 10.87V12.72C12 12.86 12 12.89 11.83 12.89H11.37C11.3482 12.8934 11.3259 12.8916 11.3049 12.8848C11.284 12.878 11.2649 12.8663 11.2493 12.8507C11.2337 12.8351 11.222 12.816 11.2152 12.7951C11.2084 12.7741 11.2066 12.7518 11.21 12.73V9.50001C11.2085 9.47993 11.2114 9.45976 11.2184 9.44088C11.2254 9.42201 11.2364 9.40487 11.2506 9.39063C11.2649 9.37639 11.282 9.36539 11.3009 9.35838C11.3198 9.35137 11.3399 9.34851 11.36 9.35001H11.91C11.9284 9.35296 11.946 9.35985 11.9615 9.3702C11.9771 9.38056 11.9902 9.39413 12 9.41001L13.1 11L13.39 11.39V11.44V9.50001C13.39 9.37001 13.44 9.32001 13.57 9.32001H14.02C14.18 9.32001 14.24 9.37001 14.24 9.48001Z" fill="#5BC365"/>
<path d="M15.58 10.2V10.62C15.58 10.7 15.58 10.7 15.65 10.7H17C17.13 10.7 17.17 10.75 17.17 10.88V11.34C17.1734 11.3618 17.1716 11.3841 17.1648 11.4051C17.158 11.426 17.1463 11.4451 17.1307 11.4607C17.1151 11.4763 17.096 11.488 17.0751 11.4948C17.0541 11.5017 17.0318 11.5034 17.01 11.5H15.65C15.58 11.5 15.58 11.5 15.58 11.58V12C15.58 12.08 15.58 12.08 15.65 12.08H17C17.12 12.08 17.16 12.08 17.16 12.25V12.71C17.16 12.83 17.16 12.87 17 12.87C16.5 12.87 16 12.87 15.49 12.87C15.31 12.87 15.13 12.87 14.95 12.87C14.77 12.87 14.78 12.87 14.78 12.71V9.50002C14.78 9.38002 14.83 9.33002 14.95 9.33002H16.95C17.07 9.33002 17.11 9.38002 17.11 9.50002V10C17.11 10.11 17.11 10.16 16.96 10.16H15.65C15.58 10.13 15.58 10.13 15.58 10.2Z" fill="#5BC365"/>
<path d="M9.33002 12.22V12.74C9.33002 12.83 9.28002 12.87 9.19002 12.87H7.12002C7.00002 12.87 6.96002 12.87 6.96002 12.71V9.50002C6.96002 9.37002 6.96002 9.33002 7.13002 9.33002H7.59002C7.71002 9.33002 7.75002 9.38002 7.75002 9.49002V12V12.05H9.22002C9.23934 12.052 9.25796 12.0583 9.27452 12.0685C9.29108 12.0787 9.30515 12.0924 9.3157 12.1087C9.32625 12.125 9.33302 12.1435 9.33549 12.1627C9.33797 12.182 9.3361 12.2016 9.33002 12.22Z" fill="#5BC365"/>
<path d="M10.61 9.48999V12.71C10.61 12.83 10.61 12.87 10.44 12.87C10.2802 12.88 10.1199 12.88 9.96002 12.87C9.93823 12.8734 9.91594 12.8716 9.89497 12.8648C9.87399 12.858 9.85493 12.8463 9.83933 12.8307C9.82374 12.8151 9.81205 12.796 9.80521 12.775C9.79838 12.7541 9.7966 12.7318 9.80002 12.71V9.48999C9.79472 9.46373 9.79656 9.43653 9.80533 9.41121C9.8141 9.3859 9.8295 9.36339 9.84991 9.34604C9.87032 9.32869 9.89501 9.31712 9.92141 9.31254C9.94781 9.30796 9.97495 9.31053 10 9.31999H10.47C10.4907 9.32118 10.5108 9.32663 10.5293 9.33599C10.5477 9.34535 10.564 9.35843 10.5772 9.37439C10.5903 9.39035 10.6 9.40887 10.6057 9.42876C10.6113 9.44865 10.6128 9.4695 10.61 9.48999Z" fill="#5BC365"/>
</svg>
