<svg width="24" height="24" viewBox="0 0 24 24" fill="none" xmlns="http://www.w3.org/2000/svg">
<path d="M20.2858 10.9963C20.1567 11.9539 19.7622 13.3107 18.9102 14.3055C18.0583 15.3004 16.8839 15.9643 15.5922 16.1813C14.9112 16.2839 14.2231 16.332 13.5345 16.3253C13.3822 16.3161 13.2308 16.3548 13.1016 16.436C12.9725 16.5172 12.872 16.6368 12.8142 16.778C12.7666 16.9109 12.7355 17.0491 12.7216 17.1896C12.6393 17.6732 12.5673 18.1568 12.485 18.6403C12.4027 19.1239 12.2072 20.3792 12.1043 21.0274C12.0957 21.1456 12.0595 21.2602 11.9988 21.362C11.9381 21.4638 11.8544 21.5501 11.7545 21.6138C11.631 21.8608 8.43113 21.6859 8.17391 21.7373C7.38166 21.6653 7.7884 20.2623 7.81664 20.1352C7.84488 20.0081 7.87782 19.8057 7.93899 19.4951C8.00016 19.1845 8.06073 18.7124 8.06073 18.7124C8.13275 18.3111 7.77264 17.9818 7.84466 17.5806C7.84466 15.7286 8.58547 12.9197 8.60605 11.9525C8.69865 11.1911 13.1126 10.7075 13.9872 10.0388C14.8617 9.36999 18.576 7.39451 18.5966 7.19902L18.6464 7.18042C19.2451 7.53209 19.761 8.08157 20.0416 8.71667C20.3222 9.35177 20.4148 10.0388 20.2858 10.9963Z" fill="#2690C2"/>
<path d="M17.6668 6.99226C17.4372 6.92944 16.895 6.71179 16.0038 6.80801C14.8308 6.80801 12.1866 6.80801 10.8079 6.80801C10.5597 6.8052 10.3189 6.89217 10.1299 7.05288C9.9408 7.21359 9.81618 7.43722 9.77897 7.68257L8.83239 13.8559C8.47227 15.7285 8.3591 17.2822 7.92696 19.5766H4.18178C4.11472 19.5793 4.04778 19.5687 3.9849 19.5452C3.92202 19.5218 3.86445 19.486 3.81557 19.44C3.7667 19.394 3.7275 19.3387 3.70028 19.2773C3.67306 19.216 3.65836 19.1498 3.65704 19.0827C4.31554 14.6893 5.05634 10.3062 5.71483 5.91287C5.81772 5.30582 5.91032 4.68848 6.01321 4.08143C6.1161 3.47439 6.1161 2.25 7.09355 2.25H11.1474C12.0528 2.25 12.9685 2.25 13.8637 2.25C14.3446 2.26701 14.8231 2.32553 15.2938 2.42491C15.8192 2.52115 16.3283 2.69087 16.8063 2.92907C17.0344 3.05027 17.2513 3.19143 17.4545 3.35092C17.7144 3.56972 17.9399 3.82639 18.1233 4.1123C18.3336 4.42723 18.4901 4.77494 18.5863 5.1412C18.639 5.35439 18.6768 5.57098 18.6995 5.7894C18.7098 5.95386 18.7219 6.2867 18.7219 6.2867C18.7219 6.2867 18.7168 6.68135 18.6943 6.93069C18.6719 7.18002 18.6503 7.20038 18.6261 7.31046C18.6261 7.31046 17.8965 7.05508 17.6668 6.99226Z" fill="#273469"/>
<path d="M18.6574 7.18533C18.5787 7.60389 18.6249 7.40365 18.4968 7.9653C18.3687 8.52696 18.2834 8.92434 18.0838 9.35888C17.8172 10.0692 17.5586 10.5235 17.0311 11.0687C16.5235 11.6077 15.9199 12.0474 15.2511 12.3652C14.8138 12.5641 14.3592 12.7225 13.893 12.8384C13.5128 12.9226 13.128 12.9844 12.7406 13.0236H12.185C12.0549 13.0338 11.9242 13.0338 11.794 13.0236C11.5265 13.0236 10.0243 13.0236 9.73624 13.0236C9.60314 13.0208 9.4711 13.0479 9.34996 13.1032C9.22882 13.1584 9.1217 13.2402 9.03659 13.3426C8.92302 13.4767 8.85145 13.6414 8.83081 13.8159L9.78768 7.50877C9.82263 7.26155 9.94627 7.03547 10.1356 6.87267C10.3249 6.70987 10.5669 6.62146 10.8166 6.62392C12.2159 6.62392 14.9322 6.62392 16.0845 6.62392C17.5051 6.70664 18.1966 6.93573 18.6574 7.18533Z" fill="#1F2650"/>
</svg>
