<svg width="24" height="24" viewBox="0 0 24 24" fill="none" xmlns="http://www.w3.org/2000/svg">
<path d="M17 2H7C4.23858 2 2 4.23858 2 7V17C2 19.7614 4.23858 22 7 22H17C19.7614 22 22 19.7614 22 17V7C22 4.23858 19.7614 2 17 2Z" fill="#041731"/>
<path d="M5.88 11.9C5.88 10.51 5.88 9.11001 5.88 7.71001C5.88 7.51001 5.88 7.45001 6.13 7.45001C7.13 7.45001 8.22001 7.45001 9.26 7.45001C9.83132 7.46549 10.3891 7.62732 10.88 7.92001C11.304 8.1589 11.6569 8.506 11.9029 8.92588C12.1488 9.34577 12.279 9.8234 12.28 10.31C12.3378 10.8331 12.2487 11.3619 12.0226 11.8371C11.7965 12.3123 11.4424 12.715 11 13C10.4957 13.3214 9.9171 13.5073 9.32 13.54C8.87 13.54 8.43 13.54 7.98 13.54C7.7 13.54 7.7 13.54 7.7 13.81C7.7 14.58 7.7 15.36 7.7 16.13C7.7 16.33 7.64 16.39 7.44 16.39C7 16.39 6.56 16.39 6.12 16.39C5.93 16.39 5.88 16.32 5.88 16.14C5.88 14.73 5.88 13.32 5.88 11.9ZM7.69 10.51V11.77C7.69 11.87 7.69 11.96 7.84 11.96C8.39454 12.0054 8.95275 11.9547 9.49 11.81C9.7859 11.7402 10.048 11.569 10.2307 11.326C10.4134 11.083 10.5051 10.7836 10.49 10.48C10.5055 10.19 10.4219 9.90325 10.2529 9.66701C10.0839 9.43076 9.83953 9.25903 9.56001 9.18001C9.00086 9.0434 8.42205 9.00616 7.85 9.07001C7.85 9.07001 7.74 9.19001 7.74 9.26001C7.69 9.68001 7.69 10.09 7.69 10.51Z" fill="#4FA7FA"/>
<path d="M13.24 14.5C13.56 14.62 13.86 14.76 14.17 14.86C14.6895 15.026 15.2396 15.0739 15.78 15C15.8873 14.9804 15.9915 14.9468 16.09 14.9C16.1486 14.8743 16.1996 14.8339 16.2379 14.7827C16.2762 14.7314 16.3006 14.6711 16.3086 14.6077C16.3167 14.5442 16.3082 14.4797 16.2839 14.4206C16.2596 14.3614 16.2203 14.3095 16.17 14.27C15.9412 14.1116 15.6966 13.9776 15.44 13.87C15.03 13.67 14.61 13.51 14.22 13.28C13.8679 13.1087 13.5804 12.8284 13.4002 12.4807C13.2201 12.133 13.1569 11.7365 13.22 11.35C13.2709 10.978 13.4254 10.6279 13.6659 10.3397C13.9064 10.0514 14.2232 9.83667 14.58 9.72C15.2232 9.50291 15.9094 9.44458 16.58 9.55C16.9 9.55 17.21 9.66999 17.53 9.72999C17.7 9.72999 17.76 9.87 17.75 10.04V11.21C17.75 11.43 17.7 11.45 17.5 11.37C16.8754 11.0808 16.185 10.9635 15.5 11.03C15.4029 11.0413 15.3084 11.0683 15.22 11.11C15.16 11.1336 15.1072 11.1724 15.0668 11.2226C15.0265 11.2728 14.9999 11.3327 14.9898 11.3964C14.9797 11.46 14.9864 11.5252 15.0092 11.5855C15.0321 11.6458 15.0703 11.699 15.12 11.74C15.4088 11.9319 15.7132 12.0992 16.03 12.24C16.41 12.43 16.81 12.58 17.18 12.79C17.5157 12.9428 17.7939 13.1989 17.9738 13.5209C18.1537 13.8429 18.2259 14.214 18.18 14.58C18.1599 14.9464 18.0353 15.2993 17.8208 15.5971C17.6064 15.8948 17.3111 16.1249 16.97 16.26C16.1001 16.5976 15.1483 16.6638 14.24 16.45C13.9678 16.3898 13.7004 16.3096 13.44 16.21C13.3998 16.1911 13.3645 16.1633 13.3367 16.1286C13.309 16.0939 13.2896 16.0534 13.28 16.01C13.28 15.53 13.28 15.01 13.28 14.57C13.21 14.55 13.23 14.53 13.24 14.5Z" fill="#4FA7FA"/>
</svg>
