<svg width="24" height="24" viewBox="0 0 24 24" fill="none" xmlns="http://www.w3.org/2000/svg">
<path d="M20.6899 8.87001L22 15.13H20.5C20.44 14.86 20.39 14.59 20.33 14.33C20.27 14.07 20.3301 14.2 20.1801 14.2H18.35C18.3409 14.1948 18.3305 14.192 18.3199 14.192C18.3094 14.192 18.2992 14.1948 18.29 14.2C18.2854 14.2197 18.2854 14.2403 18.29 14.26C18.2 14.5 18.12 14.74 18.02 14.96C17.92 15.18 17.94 15.07 17.9 15.07H16.3V14.99L18.6801 9.32001C18.7296 9.19358 18.8126 9.08298 18.92 9C19.0318 8.92151 19.1636 8.87643 19.3 8.87001C19.72 8.86001 20.1999 8.87001 20.6899 8.87001ZM19.5699 10.62L18.72 12.9H20.0601L19.5699 10.62Z" fill="#245B9E"/>
<path d="M5.79004 11.79C5.26657 10.8723 4.50233 10.1151 3.57996 9.59999C3.42424 9.50867 3.26406 9.42523 3.09998 9.34999C2.77729 9.20225 2.44278 9.08183 2.09998 8.98999L1.97998 8.89999H4.52002C4.61903 8.88006 4.72094 8.88006 4.81995 8.89999C4.91525 8.92846 5.00373 8.9761 5.07996 9.03999C5.15886 9.10233 5.22369 9.18073 5.27002 9.26999C5.31307 9.3608 5.33684 9.45954 5.33997 9.55999L5.79004 11.79Z" fill="#F5B335"/>
<path d="M9.33997 8.84999V8.98999L6.87 14.99C6.85918 15.0385 6.8307 15.0813 6.79004 15.11C6.76804 15.1199 6.74411 15.1251 6.71997 15.1251C6.69583 15.1251 6.67202 15.1199 6.65002 15.11H5.27002C5.15002 15.11 5.10006 15.11 5.06006 14.96C4.62006 13.24 4.16998 11.53 3.72998 9.79999C3.72235 9.75491 3.70153 9.71314 3.67004 9.67999C3.64796 9.643 3.61695 9.61208 3.57996 9.59C4.50233 10.1051 5.26657 10.8623 5.79004 11.78L6.04004 13.06V13.15H6.10999V12.99C6.58999 11.67 7.11004 10.34 7.54004 8.98999C7.54004 8.87999 7.64001 8.82999 7.76001 8.82999L9.33997 8.84999Z" fill="#245B9E"/>
<path d="M11.67 14.89L11.9 13.49L12.0699 13.59C12.6854 13.9083 13.3921 14.0037 14.0699 13.86C14.198 13.8495 14.3201 13.8007 14.42 13.72C14.5194 13.6376 14.5895 13.5254 14.62 13.4C14.6292 13.2747 14.6015 13.1495 14.54 13.04C14.4742 12.9326 14.3762 12.8486 14.26 12.8C14.02 12.65 13.76 12.53 13.53 12.37C13.2374 12.2064 12.9654 12.0084 12.72 11.78C12.4766 11.4801 12.3425 11.1062 12.34 10.72C12.3536 10.354 12.4871 10.0026 12.72 9.71999C13.0806 9.32731 13.5509 9.05208 14.0699 8.93C14.8577 8.73408 15.6859 8.77583 16.45 9.04999H16.51L16.29 10.34C15.9885 10.2467 15.6811 10.1732 15.37 10.12C15.0603 10.1 14.7496 10.1 14.4399 10.12C14.3278 10.1467 14.2246 10.2017 14.14 10.28C14.0993 10.3107 14.0681 10.3523 14.05 10.4C14.041 10.4496 14.041 10.5004 14.05 10.55C14.0398 10.5995 14.0398 10.6505 14.05 10.7C14.0706 10.7492 14.1012 10.7934 14.14 10.83C14.284 10.9599 14.4415 11.0739 14.61 11.17C14.92 11.36 15.24 11.52 15.54 11.72C15.7846 11.8709 15.9874 12.0806 16.13 12.33C16.2713 12.5846 16.3501 12.869 16.36 13.16C16.3579 13.4483 16.2895 13.7323 16.16 13.99C16.0189 14.2427 15.8201 14.4585 15.58 14.62C15.1055 14.9854 14.5365 15.2074 13.9399 15.26C13.1641 15.3331 12.3825 15.2057 11.67 14.89Z" fill="#245B9E"/>
<path d="M9 15.13L10 8.87H11.63L10.63 15.13H9Z" fill="#245B9E"/>
</svg>
