<svg width="24" height="24" viewBox="0 0 24 24" fill="none" xmlns="http://www.w3.org/2000/svg">
<path d="M18.35 10.85L17.65 12.77H18.77C18.62 12.11 18.48 11.48 18.35 10.85ZM18.35 10.85L17.65 12.77H18.77C18.62 12.11 18.48 11.48 18.35 10.85ZM19 4H5C4.20435 4 3.44129 4.31607 2.87868 4.87868C2.31607 5.44129 2 6.20435 2 7V17C2 17.7956 2.31607 18.5587 2.87868 19.1213C3.44129 19.6839 4.20435 20 5 20H19C19.7956 20 20.5587 19.6839 21.1213 19.1213C21.6839 18.5587 22 17.7956 22 17V7C22 6.20435 21.6839 5.44129 21.1213 4.87868C20.5587 4.31607 19.7956 4 19 4ZM7.51 14.64H6.35C6.25 14.64 6.21 14.64 6.19 14.51C5.81 13.07 5.44 11.62 5.06 10.18C5.05443 10.1417 5.0397 10.1054 5.01707 10.0741C4.99443 10.0427 4.96456 10.0173 4.93 10C4.54623 9.78689 4.14054 9.61589 3.72 9.49C3.72 9.49 3.65 9.44 3.61 9.41C3.65322 9.40566 3.69678 9.40566 3.74 9.41H5.74C5.82408 9.39881 5.90958 9.40527 5.99102 9.42898C6.07247 9.4527 6.14807 9.49314 6.213 9.54772C6.27794 9.6023 6.33077 9.66982 6.36814 9.74598C6.4055 9.82213 6.42657 9.90524 6.43 9.99L7 12.87C6.99872 12.8933 6.99872 12.9167 7 12.94L7.05 12.82L8.25 9.49C8.25731 9.45189 8.27911 9.4181 8.31081 9.39573C8.34251 9.37335 8.38165 9.36413 8.42 9.37C8.86 9.37 9.3 9.37 9.76 9.37C9.76 9.42 9.76 9.46 9.71 9.5L7.64 14.5C7.63365 14.5332 7.6181 14.5639 7.59511 14.5887C7.57212 14.6134 7.54262 14.6312 7.51 14.64ZM9.51 14.64C9.79 12.88 10.08 11.13 10.36 9.39H11.73C11.4367 11.1433 11.1533 12.8933 10.88 14.64H9.51ZM15 14.15C14.6007 14.4592 14.1225 14.6498 13.62 14.7C12.9675 14.7688 12.3082 14.6761 11.7 14.43C11.77 14.04 11.84 13.65 11.9 13.26L12.05 13.34C12.5582 13.6012 13.1411 13.679 13.7 13.56C13.92 13.51 14.12 13.42 14.16 13.17C14.1701 13.0655 14.1465 12.9605 14.0925 12.8705C14.0385 12.7805 13.957 12.7102 13.86 12.67C13.66 12.54 13.45 12.45 13.25 12.32C13.0068 12.1777 12.7819 12.0065 12.58 11.81C12.3714 11.5642 12.2569 11.2524 12.2569 10.93C12.2569 10.6076 12.3714 10.2958 12.58 10.05C12.8807 9.71507 13.2798 9.48402 13.72 9.39C14.3806 9.21268 15.0803 9.24767 15.72 9.49H15.78C15.71 9.86 15.65 10.23 15.59 10.57C15.3332 10.4969 15.0729 10.4368 14.81 10.39C14.5506 10.3651 14.2894 10.3651 14.03 10.39C13.9359 10.4085 13.8491 10.4536 13.78 10.52C13.7464 10.5482 13.7193 10.5833 13.7008 10.6231C13.6822 10.6628 13.6726 10.7061 13.6726 10.75C13.6726 10.7939 13.6822 10.8372 13.7008 10.8769C13.7193 10.9167 13.7464 10.9518 13.78 10.98C13.8991 11.0877 14.0299 11.1816 14.17 11.26C14.43 11.42 14.7 11.56 14.95 11.73C15.1572 11.8545 15.3295 12.0296 15.4507 12.2388C15.572 12.448 15.6382 12.6845 15.6432 12.9262C15.6482 13.1679 15.5918 13.407 15.4793 13.621C15.3668 13.835 15.2019 14.017 15 14.15ZM19.11 14.63C19.11 14.4 19.02 14.18 18.98 13.96C18.94 13.74 18.93 13.85 18.85 13.85H17.33C17.2985 13.8467 17.2669 13.8551 17.2411 13.8735C17.2153 13.8919 17.1971 13.9191 17.19 13.95C17.12 14.15 17.05 14.35 16.97 14.55C16.9609 14.5703 16.9471 14.5882 16.9297 14.6021C16.9123 14.616 16.8918 14.6256 16.87 14.63H15.52L15.57 14.51C16.2367 12.93 16.9033 11.35 17.57 9.77C17.6066 9.65975 17.676 9.56332 17.769 9.49361C17.8619 9.42391 17.9739 9.38427 18.09 9.38C18.49 9.38 18.89 9.38 19.3 9.38C19.67 11.13 20.03 12.88 20.4 14.63H19.11ZM18.31 10.84L17.61 12.76H18.73C18.6 12.11 18.46 11.48 18.33 10.85L18.31 10.84Z" fill="#245B9E"/>
<path d="M6.80593 11.885C6.35769 11.0992 5.70327 10.4508 4.91345 10.0097C4.78011 9.93153 4.64295 9.86008 4.50244 9.79565C4.22613 9.66915 3.93969 9.56603 3.64615 9.48739L3.5434 9.41032H5.71842C5.8032 9.39325 5.89047 9.39325 5.97525 9.41032C6.05685 9.4347 6.13262 9.47549 6.19789 9.5302C6.26546 9.58359 6.32097 9.65072 6.36064 9.72715C6.3975 9.80492 6.41786 9.88946 6.42054 9.97548L6.80593 11.885Z" fill="#F5B335"/>
</svg>
