<svg width="24" height="24" viewBox="0 0 24 24" fill="none" xmlns="http://www.w3.org/2000/svg">
<path d="M13.79 2.63999L13.22 2.55999C11.5069 2.31265 9.75885 2.55734 8.17954 3.26555C6.60023 3.97376 5.25476 5.11631 4.3 6.55999C3.28416 7.93997 2.67859 9.57873 2.55298 11.2877C2.42737 12.9966 2.78684 14.7063 3.59 16.22C3.6722 16.3717 3.72337 16.5382 3.74054 16.7099C3.75771 16.8816 3.74053 17.055 3.69 17.22C3.28 18.63 2.9 20.05 2.5 21.54L3 21.39C4.35 21.03 5.7 20.67 7.05 20.34C7.33494 20.2807 7.63112 20.3086 7.9 20.42C9.1112 21.0111 10.4348 21.3363 11.782 21.3738C13.1293 21.4112 14.4689 21.1601 15.7111 20.6372C16.9533 20.1143 18.0692 19.3318 18.9841 18.3421C19.899 17.3524 20.5915 16.1785 21.0153 14.8991C21.4392 13.6198 21.5844 12.2645 21.4414 10.9244C21.2983 9.58426 20.8703 8.29023 20.1859 7.12914C19.5016 5.96806 18.5769 4.96678 17.4737 4.19251C16.3706 3.41824 15.1146 2.88889 13.79 2.63999ZM16.31 15.76C15.9466 16.0854 15.5034 16.3086 15.0256 16.407C14.5478 16.5054 14.0524 16.4753 13.59 16.32C11.4946 15.73 9.67661 14.4152 8.46 12.61C7.99529 11.9715 7.6217 11.2715 7.35 10.53C7.20285 10.0998 7.17632 9.63746 7.27327 9.19322C7.37023 8.74899 7.58698 8.33978 7.9 8.00999C8.05239 7.8155 8.25981 7.67142 8.49526 7.5965C8.7307 7.52159 8.98325 7.51932 9.22 7.58999C9.42 7.63999 9.56 7.92999 9.74 8.14999C9.88636 8.56288 10.0566 8.9669 10.25 9.35999C10.3964 9.56049 10.4576 9.81079 10.4201 10.0562C10.3826 10.3017 10.2496 10.5223 10.05 10.67C9.6 11.07 9.67 11.4 9.99 11.85C10.6974 12.8692 11.6736 13.6722 12.81 14.17C13.13 14.31 13.37 14.34 13.58 14.01C13.67 13.88 13.79 13.77 13.89 13.65C14.47 12.92 14.29 12.93 15.21 13.33C15.5031 13.4532 15.7871 13.5969 16.06 13.76C16.33 13.92 16.74 14.09 16.8 14.33C16.8577 14.5904 16.8425 14.8616 16.7561 15.1139C16.6696 15.3662 16.5153 15.5897 16.31 15.76Z" fill="url(#paint0_linear_1034_57)"/>
<path d="M13.8153 2.53089C18.5508 3.4416 21.7688 7.54354 21.6072 12.4203C21.4582 16.9163 17.82 20.8364 13.2383 21.3983C11.3696 21.6274 9.57155 21.334 7.8574 20.5281C7.61219 20.4128 7.27105 20.3821 7.00649 20.4455C5.63491 20.7743 4.27396 21.147 2.90877 21.5023C2.75916 21.5413 2.60607 21.5669 2.38704 21.6129C2.79686 20.1129 3.17971 18.674 3.58821 17.2425C3.69194 16.8789 3.66332 16.5896 3.49606 16.2343C1.90269 12.8497 2.04146 9.52944 4.2121 6.46031C6.38927 3.38196 9.46084 2.06859 13.2387 2.45195C13.4166 2.47 13.5937 2.49536 13.8153 2.53089ZM19.7993 13.666C20.0711 12.5563 20.1025 11.4319 19.838 10.3282C19.0407 7.00127 16.9705 4.84492 13.6053 4.16342C10.3028 3.49464 7.53079 4.60868 5.57486 7.33803C3.61503 10.0728 3.57275 13.0049 5.18968 15.9425C5.39758 16.3202 5.45342 16.6298 5.32693 17.0336C5.09626 17.7701 4.91641 18.5224 4.69114 19.358C5.62677 19.1156 6.44767 18.8822 7.27993 18.7004C7.5151 18.649 7.82387 18.6759 8.03072 18.7898C12.7817 21.4056 18.4291 18.9926 19.7993 13.666Z" fill="white"/>
<defs>
<linearGradient id="paint0_linear_1034_57" x1="11.9974" y1="2.46628" x2="11.9974" y2="21.54" gradientUnits="userSpaceOnUse">
<stop stop-color="#57D163"/>
<stop offset="1" stop-color="#23B33A"/>
</linearGradient>
</defs>
</svg>
