<svg width="24" height="24" viewBox="0 0 24 24" fill="none" xmlns="http://www.w3.org/2000/svg">
<path d="M9.84 12.4C9.84 12.49 9.84 12.49 9.77 12.49H8C8.33 11.49 8.68 10.43 9 9.39001C9 9.47001 9 9.55001 9.07 9.63001C9.14 9.71001 9.16 9.96001 9.2 10.12L9.38 10.68C9.38 10.87 9.49 11.05 9.55 11.24L9.74 11.81L9.84 12.4Z" fill="black"/>
<path d="M17.08 11.77C17.0245 11.6008 16.9247 11.4494 16.7911 11.3316C16.6575 11.2138 16.4949 11.1339 16.32 11.1C16.1379 11.0701 15.9521 11.0701 15.77 11.1C15.6352 11.1262 15.508 11.182 15.3973 11.2633C15.2867 11.3445 15.1954 11.4493 15.13 11.57C15.0281 11.7493 14.9603 11.946 14.93 12.15H17C17.1 12.15 17.13 12.15 17.12 12.01C17.1156 11.9288 17.1022 11.8483 17.08 11.77ZM17.08 11.77C17.0245 11.6008 16.9247 11.4494 16.7911 11.3316C16.6575 11.2138 16.4949 11.1339 16.32 11.1C16.1379 11.0701 15.9521 11.0701 15.77 11.1C15.6352 11.1262 15.508 11.182 15.3973 11.2633C15.2867 11.3445 15.1954 11.4493 15.13 11.57C15.0281 11.7493 14.9603 11.946 14.93 12.15H17C17.1 12.15 17.13 12.15 17.12 12.01C17.1156 11.9288 17.1022 11.8483 17.08 11.77ZM17.08 11.77C17.0245 11.6008 16.9247 11.4494 16.7911 11.3316C16.6575 11.2138 16.4949 11.1339 16.32 11.1C16.1379 11.0701 15.9521 11.0701 15.77 11.1C15.6352 11.1262 15.508 11.182 15.3973 11.2633C15.2867 11.3445 15.1954 11.4493 15.13 11.57C15.0281 11.7493 14.9603 11.946 14.93 12.15H17C17.1 12.15 17.13 12.15 17.12 12.01C17.1156 11.9288 17.1022 11.8483 17.08 11.77ZM17.08 11.77C17.0245 11.6008 16.9247 11.4494 16.7911 11.3316C16.6575 11.2138 16.4949 11.1339 16.32 11.1C16.1379 11.0701 15.9521 11.0701 15.77 11.1C15.6352 11.1262 15.508 11.182 15.3973 11.2633C15.2867 11.3445 15.1954 11.4493 15.13 11.57C15.0281 11.7493 14.9603 11.946 14.93 12.15H17C17.1 12.15 17.13 12.15 17.12 12.01C17.1156 11.9288 17.1022 11.8483 17.08 11.77ZM17 2H7C5.67392 2 4.40214 2.52678 3.46446 3.46447C2.52678 4.40215 2 5.67392 2 7V17C2 18.3261 2.52678 19.5979 3.46446 20.5355C4.40214 21.4732 5.67392 22 7 22H17C18.3261 22 19.5979 21.4732 20.5355 20.5355C21.4732 19.5979 22 18.3261 22 17V7C22 5.67392 21.4732 4.40215 20.5355 3.46447C19.5979 2.52678 18.3261 2 17 2ZM12.73 16H11.11C11.0916 16.0028 11.0728 16.0019 11.0547 15.9974C11.0367 15.9929 11.0197 15.9848 11.0048 15.9736C10.9899 15.9624 10.9774 15.9484 10.968 15.9323C10.9585 15.9163 10.9524 15.8985 10.95 15.88C10.87 15.63 10.78 15.39 10.7 15.14C10.62 14.89 10.5 14.57 10.41 14.28C10.41 14.12 10.28 14.1 10.14 14.1C9.3 14.1 8.46 14.1 7.62 14.1C7.51 14.1 7.51 14.1 7.47 14.22C7.43 14.34 7.37 14.55 7.31 14.72L7.15 15.24L6.94 15.85C6.94448 15.8765 6.94448 15.9035 6.94 15.93C6.94 16.06 6.78 16.04 6.68 16.04H5.39C5.24 16.04 5.19 15.97 5.25 15.83C5.31 15.69 5.36 15.53 5.41 15.39L5.62 14.75L6.01 13.65C6.12 13.35 6.22 13.04 6.32 12.73C6.42 12.42 6.51 12.2 6.61 11.93L6.82 11.3L7.19 10.3L7.49 9.42C7.59 9.14 7.69 8.86 7.78 8.57C7.79527 8.43376 7.79527 8.29624 7.78 8.16C7.78 7.95 7.78 7.95 7.99 7.95H9.8C9.96 7.95 9.95 7.95 10 8.1C10.05 8.25 10.18 8.59 10.26 8.83C10.34 9.07 10.41 9.25 10.48 9.45L10.72 10.1L10.96 10.8C11.06 11.07 11.16 11.33 11.25 11.6L11.51 12.32C11.59 12.56 11.68 12.8 11.77 13.05C11.86 13.3 11.89 13.42 11.96 13.6C12.03 13.78 12.1 14 12.18 14.2C12.26 14.4 12.31 14.58 12.38 14.77L12.67 15.58L12.79 15.93C12.83 15.92 12.8 16 12.73 16ZM18.73 13C18.7349 13.0899 18.7349 13.1801 18.73 13.27C18.73 13.36 18.58 13.39 18.49 13.39C18.23 13.39 17.97 13.39 17.71 13.39C16.79 13.39 15.88 13.39 14.96 13.39C14.996 13.7176 15.1403 14.0237 15.37 14.26C15.7867 14.5159 16.2596 14.6661 16.7477 14.6975C17.2357 14.7289 17.724 14.6405 18.17 14.44C18.25 14.44 18.29 14.44 18.29 14.52V15.65C18.29 15.83 18.22 15.85 18.07 15.91L17.71 16.02C17.5955 16.0529 17.4784 16.0763 17.36 16.09C17.11 16.09 16.86 16.16 16.61 16.17C16.36 16.18 16.27 16.17 16.1 16.17H16C15.8 16.17 15.59 16.17 15.4 16.1C14.8482 15.9905 14.3445 15.7107 13.96 15.3C13.7167 15.0468 13.5263 14.7477 13.4 14.42C13.2985 14.1806 13.2311 13.9281 13.2 13.67C13.185 13.3769 13.185 13.0831 13.2 12.79C13.2152 12.4289 13.2826 12.0718 13.4 11.73C13.4981 11.4453 13.6361 11.1759 13.81 10.93C14.0388 10.5875 14.3477 10.306 14.71 10.11C14.8664 10.0193 15.0303 9.94233 15.2 9.88C15.3846 9.83607 15.5716 9.80268 15.76 9.78C15.9299 9.77003 16.1001 9.77003 16.27 9.78C16.5198 9.78378 16.7682 9.81735 17.01 9.88C17.2295 9.94151 17.441 10.0288 17.64 10.14C17.948 10.3166 18.2034 10.572 18.38 10.88C18.48 11.06 18.56 11.24 18.64 11.42C18.6827 11.5474 18.7161 11.6778 18.74 11.81C18.8294 12.2007 18.8396 12.6053 18.77 13H18.73ZM16.28 11.15C16.0979 11.1201 15.9121 11.1201 15.73 11.15C15.5952 11.1762 15.468 11.232 15.3573 11.3133C15.2467 11.3945 15.1554 11.4993 15.09 11.62C14.9881 11.7993 14.9203 11.996 14.89 12.2H17C17.1 12.2 17.13 12.2 17.12 12.06C17.1106 11.9712 17.0905 11.8839 17.06 11.8C17.0107 11.6277 16.916 11.4719 16.7858 11.3487C16.6556 11.2256 16.4947 11.1397 16.32 11.1L16.28 11.15ZM17.04 11.82C16.9845 11.6508 16.8847 11.4994 16.7511 11.3816C16.6175 11.2638 16.4549 11.1839 16.28 11.15C16.0979 11.1201 15.9121 11.1201 15.73 11.15C15.5952 11.1762 15.468 11.232 15.3573 11.3133C15.2467 11.3945 15.1554 11.4993 15.09 11.62C14.9881 11.7993 14.9203 11.996 14.89 12.2H17C17.1 12.2 17.13 12.2 17.12 12.06C17.1196 11.962 17.1062 11.8645 17.08 11.77L17.04 11.82ZM17.04 11.82C16.9845 11.6508 16.8847 11.4994 16.7511 11.3816C16.6175 11.2638 16.4549 11.1839 16.28 11.15C16.0979 11.1201 15.9121 11.1201 15.73 11.15C15.5952 11.1762 15.468 11.232 15.3573 11.3133C15.2467 11.3945 15.1554 11.4993 15.09 11.62C14.9881 11.7993 14.9203 11.996 14.89 12.2H17C17.1 12.2 17.13 12.2 17.12 12.06C17.1196 11.962 17.1062 11.8645 17.08 11.77L17.04 11.82ZM17.04 11.82C16.9845 11.6508 16.8847 11.4994 16.7511 11.3816C16.6175 11.2638 16.4549 11.1839 16.28 11.15C16.0979 11.1201 15.9121 11.1201 15.73 11.15C15.5952 11.1762 15.468 11.232 15.3573 11.3133C15.2467 11.3945 15.1554 11.4993 15.09 11.62C14.9881 11.7993 14.9203 11.996 14.89 12.2H17C17.1 12.2 17.13 12.2 17.12 12.06C17.1196 11.962 17.1062 11.8645 17.08 11.77L17.04 11.82ZM17.04 11.82C16.9845 11.6508 16.8847 11.4994 16.7511 11.3816C16.6175 11.2638 16.4549 11.1839 16.28 11.15C16.0979 11.1201 15.9121 11.1201 15.73 11.15C15.5952 11.1762 15.468 11.232 15.3573 11.3133C15.2467 11.3945 15.1554 11.4993 15.09 11.62C14.9881 11.7993 14.9203 11.996 14.89 12.2H17C17.1 12.2 17.13 12.2 17.12 12.06C17.1196 11.962 17.1062 11.8645 17.08 11.77L17.04 11.82Z" fill="black"/>
</svg>
