<svg width="24" height="24" viewBox="0 0 24 24" fill="none" xmlns="http://www.w3.org/2000/svg">
<path d="M14.0484 14.6926C13.4623 15.273 12.7644 15.7284 11.997 16.0309C11.2858 16.2408 10.5394 16.3042 9.80294 16.2174C9.37534 16.1918 8.95822 16.0747 8.57973 15.8741C8.20123 15.6735 7.87018 15.394 7.6089 15.0546C7.15805 14.3822 6.92283 13.5884 6.93459 12.7789C6.94635 11.9695 7.20453 11.1829 7.67472 10.5239C9.12279 8.70282 11.5253 8.80155 13.5109 8.48342C13.5109 8.15431 13.5109 7.79229 13.5109 7.46319C13.503 7.24274 13.445 7.027 13.341 6.83242C13.2371 6.63785 13.0901 6.46958 12.9113 6.34047C12.7324 6.21136 12.5265 6.12482 12.3091 6.08744C12.0917 6.05007 11.8686 6.06285 11.6569 6.12482C10.7244 6.27841 10.4173 6.75012 10.132 7.59483C10.0443 7.80326 9.86876 7.8252 9.66033 7.78132C9.05697 7.78132 8.45361 7.68259 7.85025 7.6058C7.56502 7.6058 7.203 7.44125 7.32368 7.07923C7.44821 6.53739 7.68764 6.02861 8.02577 5.58728C8.43256 5.07475 8.94482 4.65569 9.5278 4.35852C10.1108 4.06135 10.7508 3.89303 11.4046 3.86496C12.148 3.7245 12.9121 3.73566 13.651 3.89778C14.39 4.0599 15.0886 4.36964 15.7049 4.8084C16.1075 5.22952 16.4086 5.73697 16.5854 6.29208C16.7622 6.84719 16.81 7.43533 16.7251 8.0117C16.7251 9.36103 16.7251 10.7213 16.7251 12.0707C16.7234 12.6784 16.9328 13.2678 17.3175 13.7381C17.4732 13.8974 17.5929 14.0882 17.6686 14.2976C17.6873 14.3655 17.6869 14.4373 17.6676 14.505C17.6482 14.5727 17.6106 14.6338 17.5589 14.6816C17.0104 15.1423 16.4619 15.6141 15.9133 16.0638C15.866 16.1175 15.8078 16.1605 15.7425 16.19C15.6772 16.2194 15.6065 16.2347 15.5349 16.2347C15.4633 16.2347 15.3925 16.2194 15.3273 16.19C15.262 16.1605 15.2038 16.1175 15.1564 16.0638C14.7074 15.6773 14.3321 15.2127 14.0484 14.6926ZM13.5548 10.3045C12.2054 10.3813 10.3734 10.5678 10.2637 12.2791C10.2033 12.7541 10.3205 13.2346 10.5928 13.6284C10.7391 13.7748 10.9145 13.8889 11.1077 13.9634C11.3008 14.0378 11.5074 14.0709 11.7142 14.0606C11.9209 14.0502 12.1232 13.9967 12.3079 13.9033C12.4927 13.81 12.6558 13.679 12.7868 13.5187C13.6754 12.6411 13.5657 11.3686 13.5109 10.2496L13.5548 10.3045Z" fill="black"/>
<path d="M12.0189 20.2325C8.39807 20.25 4.89241 18.9607 2.14574 16.6013C1.99216 16.5026 1.89343 16.1077 2.20059 16.2174C6.74067 18.7564 12.087 19.4404 17.1201 18.1262C18.1184 17.9397 19.0399 17.4241 20.0162 17.2486C20.8829 17.6435 18.7766 18.4772 18.4913 18.6966C16.4665 19.6597 14.2606 20.1831 12.0189 20.2325Z" fill="black"/>
<path d="M19.9943 16.5794C19.4019 16.5794 18.9521 16.6343 18.4036 16.7001C18.4036 16.7001 18.2829 16.7001 18.2829 16.6453C18.4913 15.8335 21.0913 15.647 21.7714 16.009C22.1554 16.2174 21.947 16.755 21.9141 17.106C21.7574 17.9478 21.3344 18.717 20.7073 19.3001C20.5099 19.5195 20.3014 19.3 20.444 19.0916C20.7576 18.443 20.958 17.7454 21.0364 17.0292C21.0803 16.5356 20.3014 16.6343 19.9943 16.5794Z" fill="black"/>
</svg>
