<svg width="24" height="24" viewBox="0 0 24 24" fill="none" xmlns="http://www.w3.org/2000/svg">
<path d="M7.35449 11.107V9.50151C7.35449 9.40651 7.35449 9.36851 7.47799 9.36851C8.54141 9.36851 9.4047 9.30646 9.83399 9.55851C10.2633 9.81056 10.2818 10.1594 10.2893 10.2633C10.2967 10.3672 10.2926 10.5163 10.0926 10.8793C9.8926 11.2423 8.99786 11.2495 8.35199 11.2495H7.49699C7.39249 11.2495 7.35449 11.2115 7.35449 11.107Z" fill="black"/>
<path d="M10.2995 12.7885C10.3985 12.9149 10.4692 13.0612 10.5068 13.2173C10.5444 13.3734 10.548 13.5358 10.5173 13.6935C10.4867 13.8511 10.4226 14.0003 10.3293 14.131C10.2359 14.2617 10.1156 14.3708 9.97649 14.451C9.77183 14.5368 9.55242 14.582 9.33049 14.584H7.48749C7.39249 14.584 7.35449 14.584 7.35449 14.4605V12.5605C7.35449 12.4655 7.35449 12.4275 7.47799 12.4275H8.70349C9.46379 12.4275 9.93849 12.361 10.2995 12.7885Z" fill="black"/>
<path d="M16.9885 11.9087C16.9376 11.7887 16.8604 11.6817 16.7625 11.5956C16.6646 11.5095 16.5486 11.4466 16.423 11.4115C16.1719 11.3429 15.9092 11.3284 15.6521 11.3687C15.3949 11.409 15.1493 11.5034 14.9313 11.6455C14.7137 11.8647 14.5734 12.1488 14.5315 12.4548C14.5315 12.562 14.5315 12.5815 14.6583 12.5815H17.0275C17.1445 12.5815 17.1445 12.5815 17.1348 12.4353C17.1237 12.2514 17.0738 12.072 16.9885 11.9087ZM16.9885 11.9087C16.9376 11.7887 16.8604 11.6817 16.7625 11.5956C16.6646 11.5095 16.5486 11.4466 16.423 11.4115C16.1719 11.3429 15.9092 11.3284 15.6521 11.3687C15.3949 11.409 15.1493 11.5034 14.9313 11.6455C14.7137 11.8647 14.5734 12.1488 14.5315 12.4548C14.5315 12.562 14.5315 12.5815 14.6583 12.5815H17.0275C17.1445 12.5815 17.1445 12.5815 17.1348 12.4353C17.1237 12.2514 17.0738 12.072 16.9885 11.9087ZM18.1 2.5H6.4C5.36566 2.5 4.37368 2.91089 3.64228 3.64228C2.91089 4.37368 2.5 5.36566 2.5 6.4V18.1C2.5 19.1343 2.91089 20.1263 3.64228 20.8577C4.37368 21.5891 5.36566 22 6.4 22H18.1C19.1343 22 20.1263 21.5891 20.8577 20.8577C21.5891 20.1263 22 19.1343 22 18.1V6.4C22 5.36566 21.5891 4.37368 20.8577 3.64228C20.1263 2.91089 19.1343 2.5 18.1 2.5ZM14.278 8.71075C14.278 8.63275 14.278 8.6035 14.3658 8.6035H17.5247V9.4225C17.5247 9.4225 17.5283 9.481 17.476 9.481C17.4237 9.481 14.4145 9.481 14.4145 9.481C14.278 9.481 14.278 9.481 14.278 9.3445V8.71075ZM11.353 15.877C10.1537 16.5303 8.1355 16.267 5.74675 16.267V8.18425H9.559C10.534 8.18425 11.6943 8.428 12.0063 9.4615C12.1681 9.91258 12.1581 10.4075 11.9782 10.8517C11.7984 11.2959 11.4613 11.6583 11.0312 11.8698C11.4278 12.0165 11.774 12.2739 12.0289 12.6112C12.2837 12.9486 12.4366 13.352 12.4695 13.7735C12.5023 14.1951 12.4137 14.6173 12.2141 14.99C12.0145 15.3628 11.7123 15.6706 11.3433 15.877H11.353ZM18.6168 13.576H14.7168C14.6095 13.576 14.512 13.6345 14.5315 13.771C14.6485 14.3463 14.9118 14.9508 15.5065 15.0385C15.8213 15.1319 16.1583 15.1174 16.464 14.9973C16.7696 14.8772 17.0263 14.6583 17.1932 14.3755C17.1932 14.3755 17.242 14.317 17.2712 14.317H18.5388C18.5388 14.317 18.6168 14.317 18.5972 14.3853C18.4644 14.7644 18.2665 15.1174 18.0122 15.4285C17.6731 15.7519 17.2641 15.9929 16.8169 16.1327C16.3697 16.2726 15.8962 16.3075 15.4333 16.2349C14.9704 16.1623 14.5304 15.9841 14.1474 15.7141C13.7645 15.444 13.4488 15.0894 13.225 14.6777C13.0866 14.4036 13.0006 14.106 12.9715 13.8003C12.7972 13.0317 12.9301 12.2254 13.3417 11.5533C13.7533 10.8813 14.4112 10.3965 15.175 10.2025C17.3883 9.72475 18.7922 11.2458 18.7922 13.3907C18.7954 13.4158 18.7928 13.4413 18.7846 13.4652C18.7764 13.4892 18.7629 13.5109 18.745 13.5288C18.7271 13.5466 18.7054 13.5602 18.6815 13.5684C18.6576 13.5766 18.6321 13.5792 18.607 13.576H18.6168ZM16.4328 11.4115C16.1817 11.3429 15.9189 11.3284 15.6618 11.3687C15.4047 11.409 15.175 11.4578 14.941 11.6455C14.707 11.8332 14.5832 12.1488 14.5413 12.4548C14.5413 12.562 14.5413 12.5815 14.668 12.5815H17.0275C17.1445 12.5815 17.1445 12.5815 17.1348 12.4353C17.1237 12.2514 17.0738 12.072 16.9885 11.9087C16.9376 11.7887 16.8604 11.6817 16.7625 11.5956C16.6646 11.5095 16.5486 11.4466 16.423 11.4115H16.4328Z" fill="black"/>
</svg>
