<svg width="24" height="24" viewBox="0 0 24 24" fill="none" xmlns="http://www.w3.org/2000/svg">
<path d="M2 12C2 10.0222 2.58649 8.08879 3.6853 6.4443C4.78412 4.79981 6.3459 3.51809 8.17317 2.76121C10.0004 2.00433 12.0111 1.8063 13.9509 2.19215C15.8907 2.578 17.6725 3.53041 19.0711 4.92894C20.4696 6.32746 21.422 8.10929 21.8079 10.0491C22.1937 11.9889 21.9957 13.9996 21.2388 15.8268C20.4819 17.6541 19.2002 19.2159 17.5557 20.3147C15.9112 21.4135 13.9778 22 12 22C9.34875 21.997 6.80694 20.9425 4.93222 19.0678C3.0575 17.1931 2.00298 14.6513 2 12ZM13.3948 13.1249C12.0124 13.5568 10.7286 14.257 9.61683 15.1854C8.5051 16.1138 7.58721 17.2522 6.91564 18.5354L7.02812 18.6254C8.22677 19.5199 9.64587 20.072 11.1339 20.2227C12.3559 20.3749 13.5964 20.2558 14.7672 19.874C14.9021 19.874 14.9471 19.7728 14.9246 19.6266C14.7142 17.9385 14.3605 16.2715 13.8673 14.6434C13.721 14.1372 13.5523 13.6535 13.3948 13.1249ZM12.27 10.4814C9.48499 11.3541 6.56922 11.7348 3.65354 11.6063C3.55383 13.7616 4.29603 15.8712 5.72328 17.4893C7.29302 14.7601 9.8174 12.7086 12.8099 11.73L12.27 10.4814ZM3.91226 9.91901C6.48165 10.0718 9.05811 9.7788 11.5276 9.05287C10.6632 7.45168 9.5847 5.97578 8.32171 4.66592C8.30803 4.65128 8.29148 4.6396 8.2731 4.63161C8.25472 4.62363 8.23489 4.61951 8.21485 4.61951C8.19481 4.61951 8.17498 4.62363 8.1566 4.63161C8.13821 4.6396 8.12167 4.65128 8.10799 4.66592C6.81295 5.34225 5.72181 6.35184 4.94713 7.59056C4.48558 8.31878 4.14379 9.11631 3.93476 9.95276L3.91226 9.91901ZM20.2677 12.8886C18.5677 12.7649 16.8609 12.7649 15.1609 12.8886C15.4196 13.901 15.7233 14.8909 15.9483 15.892C16.1732 16.8931 16.3307 17.928 16.5219 18.9516C17.5526 18.2832 18.4241 17.3969 19.0752 16.3552C19.7263 15.3135 20.141 14.1417 20.2902 12.9224L20.2677 12.8886ZM17.3206 5.58831C16.0268 4.51608 14.4384 3.86112 12.7649 3.70979C11.8216 3.62222 10.8702 3.69833 9.95276 3.93476C11.2404 5.28128 12.3413 6.79462 13.2261 8.4342C14.7993 7.8275 16.2036 6.85144 17.3206 5.58831ZM13.946 9.89652C14.1597 10.4252 14.3622 10.9314 14.5872 11.4376C14.5872 11.4376 14.6997 11.5051 14.7559 11.5051C15.2058 11.5051 15.6558 11.4263 16.1057 11.4151H20.279C20.1723 9.65119 19.4885 7.97134 18.333 6.63443C17.1953 8.09655 15.6833 9.22372 13.9573 9.89652H13.946Z" fill="black"/>
</svg>
