<svg width="24" height="24" viewBox="0 0 24 24" fill="none" xmlns="http://www.w3.org/2000/svg">
<path d="M17.2343 2.25006H6.74328C6.1485 2.25001 5.55963 2.36752 5.01083 2.59577C4.46203 2.82402 3.96423 3.15847 3.54628 3.57972C3.12833 4.00096 2.79856 4.50062 2.5761 5.04972C2.35364 5.59881 2.24292 6.18641 2.25035 6.77843V17.2216C2.24292 17.8136 2.35364 18.4012 2.5761 18.9503C2.79856 19.4994 3.12833 19.9991 3.54628 20.4203C3.96423 20.8416 4.46203 21.176 5.01083 21.4043C5.55963 21.6325 6.1485 21.75 6.74328 21.75H11.5058V14.7841H9.68614C9.57294 14.7841 9.46437 14.7394 9.38433 14.6597C9.30428 14.58 9.25931 14.4719 9.25931 14.3593V12.123C9.25931 12.0074 9.30546 11.8965 9.38762 11.8147C9.46977 11.7329 9.58119 11.687 9.69737 11.687H11.5058V9.50663C11.4555 8.99188 11.5186 8.4724 11.6907 7.98442C11.8628 7.49644 12.1398 7.05171 12.5023 6.68124C12.8648 6.31078 13.3042 6.0235 13.7897 5.83945C14.2753 5.6554 14.7953 5.579 15.3135 5.61559H17.1669C17.2239 5.61557 17.2803 5.62692 17.3328 5.64896C17.3854 5.67101 17.4329 5.70331 17.4727 5.74396C17.5125 5.7846 17.5437 5.83277 17.5645 5.88562C17.5853 5.93847 17.5952 5.99492 17.5937 6.05165V7.94127C17.5937 8.05395 17.5487 8.16202 17.4687 8.24171C17.3886 8.32139 17.2801 8.36615 17.1669 8.36615H16.0436C14.8081 8.36615 14.5722 8.94757 14.5722 9.79734V11.6758H17.268C17.3291 11.6752 17.3896 11.6878 17.4454 11.7125C17.5012 11.7373 17.551 11.7737 17.5915 11.8193C17.632 11.8649 17.6621 11.9186 17.6799 11.9768C17.6978 12.0349 17.7028 12.0963 17.6948 12.1566L17.4252 14.3928C17.4141 14.4976 17.3642 14.5945 17.2854 14.6647C17.2065 14.735 17.1042 14.7735 16.9984 14.773H14.5834V21.7388H17.2567C17.8515 21.7389 18.4404 21.6214 18.9892 21.3931C19.538 21.1649 20.0358 20.8304 20.4537 20.4092C20.8717 19.9879 21.2014 19.4883 21.4239 18.9392C21.6464 18.3901 21.7571 17.8025 21.7496 17.2104V6.77843C21.7571 6.18452 21.6457 5.59508 21.4218 5.04451C21.198 4.49395 20.8662 3.99328 20.4458 3.57173C20.0255 3.15019 19.525 2.8162 18.9736 2.58928C18.4222 2.36236 17.8309 2.24704 17.2343 2.25006Z" fill="black"/>
</svg>
