<svg width="24" height="24" viewBox="0 0 24 24" fill="none" xmlns="http://www.w3.org/2000/svg">
<path d="M9.60221 21.0255V13.752H6.81811C6.74651 13.752 6.67561 13.7379 6.60946 13.7105C6.54331 13.6831 6.48321 13.643 6.43259 13.5923C6.38196 13.5417 6.3418 13.4816 6.3144 13.4155C6.287 13.3493 6.27289 13.2784 6.27289 13.2068V10.3299C6.27289 10.1853 6.33034 10.0466 6.43259 9.94439C6.53483 9.84214 6.67351 9.7847 6.81811 9.7847H9.59061V7.0006C9.52445 6.34018 9.60368 5.67328 9.82271 5.04673C10.0417 4.42019 10.3953 3.84919 10.8585 3.37382C11.3217 2.89845 11.8833 2.53025 12.504 2.29506C13.1246 2.05987 13.7893 1.9634 14.4512 2.01242H16.7713C16.917 2.01239 17.0569 2.06946 17.1609 2.17139C17.265 2.27331 17.3251 2.41198 17.3281 2.55764V4.99373C17.3251 5.13938 17.265 5.27805 17.1609 5.37998C17.0569 5.48191 16.917 5.53898 16.7713 5.53895H15.3212C13.7552 5.53895 13.4535 6.28137 13.4535 7.37181V9.7847H17.1773C17.2546 9.78235 17.3315 9.79683 17.4026 9.82715C17.4738 9.85746 17.5375 9.90288 17.5894 9.96026C17.6412 10.0176 17.68 10.0856 17.703 10.1594C17.726 10.2333 17.7326 10.3112 17.7225 10.3879L17.3861 13.2764C17.3691 13.4086 17.3042 13.5301 17.2037 13.6177C17.1033 13.7053 16.9742 13.7531 16.8409 13.752H13.4768V21.0255C13.4783 21.1539 13.4542 21.2813 13.4057 21.4002C13.3573 21.5192 13.2856 21.6272 13.1948 21.718C13.104 21.8088 12.996 21.8805 12.877 21.9289C12.7581 21.9773 12.6307 22.0015 12.5023 21.9999H10.565C10.4376 21.9999 10.3115 21.9747 10.1939 21.9255C10.0763 21.8764 9.96965 21.8045 9.88009 21.7138C9.79053 21.6232 9.71984 21.5157 9.67215 21.3975C9.62445 21.2794 9.60067 21.1529 9.60221 21.0255Z" fill="black"/>
</svg>
