<svg width="24" height="24" viewBox="0 0 24 24" fill="none" xmlns="http://www.w3.org/2000/svg">
<g clip-path="url(#clip0_972_60)">
<path d="M17.3928 8.93747C18.0332 8.44523 18.5034 7.76497 18.7377 6.99202C18.972 6.21908 18.9585 5.39221 18.6992 4.62729C18.4399 3.86238 17.9478 3.19777 17.2918 2.72662C16.6358 2.25547 15.8488 2.00139 15.0411 2H8.94814C8.14175 2.00343 7.35647 2.258 6.70144 2.72833C6.04641 3.19866 5.55419 3.86139 5.2932 4.62438C5.03221 5.38737 5.01541 6.21272 5.24515 6.98569C5.47488 7.75867 5.93973 8.44087 6.57508 8.93747C6.10681 9.30011 5.72777 9.76513 5.467 10.2969C5.20623 10.8287 5.07065 11.4131 5.07065 12.0053C5.07065 12.5976 5.20623 13.182 5.467 13.7138C5.72777 14.2456 6.10681 14.7106 6.57508 15.0732C6.05236 15.4732 5.64032 16 5.37793 16.6037C5.11554 17.2073 5.01147 17.8679 5.07557 18.523C5.13967 19.1781 5.36981 19.8061 5.74424 20.3474C6.11866 20.8888 6.62499 21.3257 7.21534 21.6168C7.80569 21.9079 8.46054 22.0436 9.11796 22.0111C9.77538 21.9786 10.4136 21.7789 10.9724 21.4309C11.5311 21.083 11.9918 20.5982 12.311 20.0226C12.6302 19.4469 12.7972 18.7993 12.7963 18.1411V15.2122C13.4441 15.6781 14.2219 15.9286 15.0198 15.9284C15.8274 15.927 16.6144 15.6729 17.2704 15.2018C17.9264 14.7306 18.4186 14.066 18.6778 13.3011C18.9371 12.5362 18.9506 11.7093 18.7163 10.9364C18.482 10.1634 18.0118 9.48315 17.3714 8.99091L17.3928 8.93747ZM11.2143 18.1411C11.2143 18.5893 11.0814 19.0274 10.8324 19.4001C10.5834 19.7728 10.2295 20.0632 9.81536 20.2348C9.40128 20.4063 8.94563 20.4512 8.50603 20.3637C8.06644 20.2763 7.66265 20.0605 7.34572 19.7435C7.02879 19.4266 6.81296 19.0228 6.72552 18.5832C6.63808 18.1436 6.68295 17.688 6.85447 17.2739C7.02599 16.8598 7.31646 16.5059 7.68912 16.2569C8.06179 16.0078 8.49993 15.8749 8.94814 15.8749H11.2143V18.1411ZM11.2143 14.2715H8.94814C8.34711 14.2715 7.77071 14.0328 7.34572 13.6078C6.92073 13.1828 6.68197 12.6064 6.68197 12.0053C6.68197 11.4043 6.92073 10.8279 7.34572 10.4029C7.77071 9.97793 8.34711 9.73918 8.94814 9.73918H11.2143V14.2715ZM11.2143 8.13576H8.94814C8.65054 8.13576 8.35586 8.07714 8.08091 7.96325C7.80597 7.84937 7.55615 7.68244 7.34572 7.47201C7.13528 7.26158 6.96836 7.01176 6.85447 6.73681C6.74059 6.46187 6.68197 6.16719 6.68197 5.86959C6.68197 5.57199 6.74059 5.27731 6.85447 5.00236C6.96836 4.72742 7.13528 4.4776 7.34572 4.26717C7.55615 4.05673 7.80597 3.88981 8.08091 3.77592C8.35586 3.66204 8.65054 3.60342 8.94814 3.60342H11.2143V8.13576ZM15.0411 14.2715C14.5074 14.2735 13.9904 14.0852 13.5829 13.7404C13.1754 13.3956 12.9041 12.9169 12.8177 12.3902C12.7607 12.1368 12.7607 11.8739 12.8177 11.6205C12.8911 11.1946 13.0848 10.7986 13.3758 10.4791C13.6669 10.1597 14.0432 9.93011 14.4605 9.81749C14.8777 9.70487 15.3184 9.71391 15.7307 9.84354C16.143 9.97316 16.5096 10.218 16.7873 10.5491C17.065 10.8802 17.2423 11.2839 17.2981 11.7124C17.354 12.1409 17.2862 12.5765 17.1026 12.9678C16.9191 13.359 16.6275 13.6897 16.2622 13.9207C15.897 14.1517 15.4733 14.2734 15.0411 14.2715ZM15.0411 8.13576H12.8177V3.60342H15.0411C15.6422 3.60342 16.2186 3.84218 16.6436 4.26717C17.0685 4.69215 17.3073 5.26856 17.3073 5.86959C17.3073 6.47061 17.0685 7.04702 16.6436 7.47201C16.2186 7.897 15.6422 8.13576 15.0411 8.13576Z" fill="black"/>
</g>
<defs>
<clipPath id="clip0_972_60">
<rect width="13.8429" height="20" fill="white" transform="translate(5.07855 2)"/>
</clipPath>
</defs>
</svg>
