<svg width="24" height="24" viewBox="0 0 24 24" fill="none" xmlns="http://www.w3.org/2000/svg">
<path d="M11.9633 2.38196C0.554219 2.62051 -1.82095 17.9295 8.85177 21.6012C9.34962 21.6945 9.53632 21.3833 9.53632 21.124C9.53632 20.8647 9.53632 20.2735 9.53632 19.4438C6.74627 20.0454 6.15506 18.1266 6.15506 18.1266C5.96795 17.5265 5.57009 17.0144 5.0349 16.6849C4.13255 16.0729 5.1075 16.0833 5.1075 16.0833C5.42624 16.1254 5.73084 16.241 5.99724 16.421C6.26364 16.601 6.48455 16.8405 6.64254 17.1205C6.92549 17.6131 7.39049 17.9749 7.93748 18.1281C8.48448 18.2814 9.06977 18.2138 9.56744 17.9399C9.61868 17.4406 9.84242 16.9747 10.2001 16.6226C7.97016 16.3737 5.63646 15.5232 5.63646 11.7478C5.62244 10.7644 5.99486 9.81471 6.67366 9.10297C6.35965 8.24547 6.39693 7.29866 6.77738 6.4685C6.77738 6.4685 7.61751 6.2092 9.53632 7.50569C11.1799 7.05965 12.9127 7.05965 14.5563 7.50569C16.4648 6.22995 17.3049 6.4685 17.3049 6.4685C17.6699 7.29557 17.7033 8.23123 17.3982 9.08223C18.077 9.79397 18.4495 10.7436 18.4354 11.7271C18.4354 15.5128 16.0914 16.353 13.8614 16.5915C14.8986 17.1412 14.463 20.6781 14.5252 21.1137C14.5252 21.373 14.7015 21.6841 15.2201 21.5908C25.8617 17.9502 23.3725 2.62051 11.9633 2.38196Z" fill="black"/>
</svg>
