<svg width="24" height="24" viewBox="0 0 24 24" fill="none" xmlns="http://www.w3.org/2000/svg">
<path d="M21.9989 12.0436C22.0132 13.7997 21.5561 15.5273 20.6756 17.0455C19.795 18.5638 18.5234 19.8169 16.9938 20.6736C15.4887 21.5475 13.782 22.0123 12.0425 22.022C10.2955 22.0108 8.58168 21.5419 7.0712 20.662C5.56072 19.7821 4.30603 18.5217 3.43157 17.0059C2.52806 15.5064 2.03433 13.7949 2 12.0436C2.00067 10.2855 2.46482 8.55875 3.34546 7.03821C4.21992 5.52235 5.47461 4.26196 6.98509 3.38205C8.49557 2.50214 10.2093 2.0333 11.9564 2.02203C14.3631 2.03117 16.6861 2.90805 18.5007 4.49237C18.5662 4.55391 18.6185 4.62827 18.6541 4.71083C18.6898 4.7934 18.7082 4.88243 18.7082 4.97241C18.7082 5.06239 18.6898 5.15142 18.6541 5.23399C18.6185 5.31655 18.5662 5.39091 18.5007 5.45245L16.6494 7.3079C16.5292 7.41482 16.3741 7.47386 16.2135 7.47386C16.0528 7.47386 15.8977 7.41482 15.7775 7.3079C14.728 6.42682 13.4112 5.92862 12.0425 5.89474C10.9744 5.89256 9.92469 6.17388 9.0002 6.7101C8.0757 7.24632 7.30936 8.01831 6.77908 8.9476C6.21851 9.88336 5.91752 10.9522 5.90723 12.0436C5.91244 13.1129 6.19828 14.1621 6.73604 15.0857C7.2754 16.0133 8.0509 16.7808 8.98325 17.3096C9.91559 17.8384 10.9713 18.1096 12.0425 18.0954C13.1086 18.094 14.1555 17.8112 15.0779 17.2755C16.261 16.567 17.1769 15.486 17.6827 14.2011H13.1189C13.0332 14.2011 12.9483 14.184 12.8692 14.1508C12.7902 14.1176 12.7185 14.069 12.6584 14.0077C12.5983 13.9465 12.5509 13.8739 12.5191 13.7941C12.4873 13.7143 12.4716 13.629 12.4731 13.5431V10.9649C12.4716 10.8795 12.4873 10.7946 12.5193 10.7154C12.5512 10.6363 12.5987 10.5643 12.659 10.5039C12.7193 10.4435 12.791 10.3959 12.87 10.3639C12.9491 10.3319 13.0337 10.3161 13.1189 10.3176H21.267C21.4212 10.3155 21.571 10.3686 21.6895 10.4676C21.8079 10.5665 21.8872 10.7046 21.9128 10.857C21.9772 11.2491 22.0061 11.6463 21.9989 12.0436Z" fill="black"/>
</svg>
