<svg width="24" height="24" viewBox="0 0 24 24" fill="none" xmlns="http://www.w3.org/2000/svg">
<path d="M10.41 9.48001C10.76 10.62 11.12 11.76 11.48 12.92H9.35999C9.71999 11.76 10.06 10.62 10.41 9.48001Z" fill="black"/>
<path d="M17 2H7C5.67392 2 4.40214 2.52678 3.46446 3.46447C2.52678 4.40215 2 5.67392 2 7V17C2 18.3261 2.52678 19.5979 3.46446 20.5355C4.40214 21.4732 5.67392 22 7 22H17C18.3261 22 19.5979 21.4732 20.5355 20.5355C21.4732 19.5979 22 18.3261 22 17V7C22 5.67392 21.4732 4.40215 20.5355 3.46447C19.5979 2.52678 18.3261 2 17 2ZM14.49 16.78C13.97 16.78 13.49 16.78 12.93 16.78C12.8678 16.7886 12.8046 16.7725 12.7542 16.7351C12.7037 16.6977 12.6699 16.642 12.66 16.58C12.47 16.02 12.27 15.46 12.08 14.89C12.074 14.8543 12.0609 14.8201 12.0414 14.7895C12.022 14.759 11.9965 14.7326 11.9667 14.7121C11.9368 14.6916 11.9031 14.6773 11.8676 14.67C11.8321 14.6628 11.7955 14.6628 11.76 14.67H9.1C9.06306 14.6613 9.0247 14.6605 8.98741 14.6676C8.95013 14.6747 8.91476 14.6896 8.88362 14.7113C8.85248 14.733 8.82626 14.761 8.80669 14.7935C8.78711 14.826 8.77461 14.8623 8.77 14.9C8.6 15.46 8.41 16 8.24 16.56C8.23524 16.5953 8.22328 16.6293 8.20483 16.6598C8.18639 16.6903 8.16187 16.7167 8.1328 16.7374C8.10372 16.758 8.07072 16.7724 8.03584 16.7798C8.00095 16.7871 7.96492 16.7872 7.93 16.78C7.47 16.78 7.01 16.78 6.56 16.78C6.32 16.78 6.3 16.78 6.38 16.53L8.54 10.3C8.74 9.73 8.94 9.16 9.12 8.59C9.17091 8.42127 9.19784 8.24623 9.2 8.07C9.2 7.86 9.28 7.81 9.47 7.82H11.38C11.52 7.82 11.59 7.82 11.64 8.01L14.1 14.94C14.29 15.48 14.48 16.01 14.66 16.54C14.74 16.76 14.73 16.78 14.49 16.78ZM17.55 16.61C17.55 16.78 17.48 16.83 17.32 16.83C16.84 16.83 16.32 16.83 15.88 16.83C15.68 16.83 15.63 16.75 15.63 16.57C15.63 15.52 15.63 14.46 15.63 13.41C15.63 12.36 15.63 11.33 15.63 10.29C15.63 10.09 15.69 10.01 15.9 10.02H17.31C17.47 10.02 17.55 10.02 17.55 10.24C17.5433 12.36 17.5433 14.4833 17.55 16.61ZM16.55 9.31C16.4067 9.3191 16.2631 9.29723 16.1291 9.2459C15.995 9.19456 15.8735 9.11495 15.7729 9.01248C15.6724 8.91001 15.5951 8.78709 15.5462 8.65206C15.4974 8.51704 15.4782 8.37309 15.49 8.23C15.4913 8.08777 15.5209 7.94722 15.5771 7.81657C15.6334 7.68592 15.7151 7.56779 15.8175 7.46909C15.9199 7.3704 16.041 7.29311 16.1736 7.24176C16.3063 7.1904 16.4478 7.16601 16.59 7.17C16.7283 7.16956 16.8653 7.19782 16.9921 7.253C17.119 7.30818 17.233 7.38908 17.327 7.49059C17.421 7.59209 17.4929 7.71199 17.5381 7.84271C17.5834 7.97342 17.6011 8.11211 17.59 8.25C17.5982 8.38628 17.5784 8.5228 17.5318 8.65113C17.4852 8.77947 17.4129 8.89691 17.3192 8.99622C17.2255 9.09553 17.1125 9.1746 16.9871 9.22857C16.8617 9.28253 16.7265 9.31025 16.59 9.31H16.55Z" fill="black"/>
<path d="M11.48 12.92H9.35999C9.71999 11.76 10.06 10.62 10.36 9.48001C10.76 10.62 11.12 11.76 11.48 12.92Z" fill="black"/>
</svg>
