<svg width="24" height="24" viewBox="0 0 24 24" fill="none" xmlns="http://www.w3.org/2000/svg">
<path d="M13.8232 12.234C13.8071 12.5838 13.6922 12.9218 13.4917 13.209C13.2904 13.5057 13.0003 13.7309 12.663 13.8525C12.3292 13.9886 11.9617 14.0192 11.61 13.9402C11.2564 13.8647 10.9337 13.6847 10.6837 13.4235C10.4362 13.151 10.2735 12.8121 10.2157 12.4485C10.1504 12.0959 10.1947 11.7319 10.3425 11.4052C10.4866 11.0775 10.7239 10.7994 11.025 10.6057C11.3325 10.4152 11.687 10.3139 12.0487 10.3132C12.5256 10.3393 12.9749 10.5448 13.3065 10.8885C13.4782 11.0669 13.6123 11.2778 13.7011 11.5089C13.7898 11.74 13.8314 11.9866 13.8232 12.234Z" fill="black"/>
<path d="M17.265 8.00248C17.1512 7.72144 16.9821 7.46613 16.7677 7.25174C16.5533 7.03735 16.298 6.86824 16.017 6.75448C15.734 6.64387 15.4336 6.58445 15.1297 6.57898H8.96775C8.35828 6.58155 7.7745 6.8248 7.34353 7.25576C6.91256 7.68673 6.66931 8.27051 6.66675 8.87998V15.159C6.66718 15.462 6.72772 15.762 6.84487 16.0415C6.96202 16.321 7.13346 16.5744 7.34925 16.7872C7.78005 17.2144 8.36105 17.4559 8.96775 17.46H15.1297C15.7365 17.4559 16.3174 17.2144 16.7482 16.7872C16.964 16.5744 17.1355 16.321 17.2526 16.0415C17.3698 15.762 17.4303 15.462 17.4307 15.159V8.88973C17.4286 8.58649 17.3725 8.28605 17.265 8.00248ZM14.8275 13.443C14.6807 13.8079 14.4619 14.1396 14.184 14.418C13.9033 14.7005 13.5727 14.9286 13.209 15.0907C12.8413 15.2452 12.4475 15.3279 12.0487 15.3345C11.592 15.3434 11.139 15.2507 10.7225 15.063C10.306 14.8753 9.93649 14.5974 9.64066 14.2493C9.34483 13.9012 9.1301 13.4917 9.01204 13.0504C8.89397 12.6091 8.87551 12.147 8.958 11.6977C9.07814 11.1002 9.36554 10.549 9.78675 10.1085C10.2167 9.67752 10.7637 9.38221 11.3599 9.25916C11.9561 9.1361 12.5753 9.19072 13.1407 9.41623C13.7083 9.64544 14.1917 10.0437 14.5252 10.557C14.8625 11.0517 15.0457 11.6353 15.0517 12.234C15.066 12.6485 14.9894 13.0611 14.8275 13.443ZM15.9 8.62648C15.9105 8.70497 15.904 8.78479 15.8811 8.8606C15.8582 8.9364 15.8194 9.00644 15.7673 9.06602C15.7151 9.12559 15.6508 9.17334 15.5787 9.20605C15.5066 9.23876 15.4283 9.25568 15.3491 9.25568C15.2699 9.25568 15.1917 9.23876 15.1196 9.20605C15.0474 9.17334 14.9831 9.12559 14.931 9.06602C14.8788 9.00644 14.84 8.9364 14.8171 8.8606C14.7942 8.78479 14.7878 8.70497 14.7982 8.62648C14.7878 8.54799 14.7942 8.46817 14.8171 8.39236C14.84 8.31656 14.8788 8.24652 14.931 8.18694C14.9831 8.12737 15.0474 8.07962 15.1196 8.04691C15.1917 8.0142 15.2699 7.99728 15.3491 7.99728C15.4283 7.99728 15.5066 8.0142 15.5787 8.04691C15.6508 8.07962 15.7151 8.12737 15.7673 8.18694C15.8194 8.24652 15.8582 8.31656 15.8811 8.39236C15.904 8.46817 15.9105 8.54799 15.9 8.62648Z" fill="black"/>
<path d="M16.875 2.25H7.125C5.83207 2.25 4.59209 2.76361 3.67785 3.67785C2.76361 4.59209 2.25 5.83207 2.25 7.125V16.875C2.25 18.1679 2.76361 19.4079 3.67785 20.3221C4.59209 21.2364 5.83207 21.75 7.125 21.75H16.875C18.1679 21.75 19.4079 21.2364 20.3221 20.3221C21.2364 19.4079 21.75 18.1679 21.75 16.875V7.125C21.75 5.83207 21.2364 4.59209 20.3221 3.67785C19.4079 2.76361 18.1679 2.25 16.875 2.25ZM18.942 15.0615C18.9512 15.5729 18.8549 16.0807 18.6593 16.5533C18.2637 17.5007 17.5104 18.2539 16.563 18.6495C16.0904 18.8452 15.5826 18.9414 15.0712 18.9323H9.075C8.56368 18.9406 8.05605 18.8444 7.58325 18.6495C7.1146 18.4523 6.68776 18.1678 6.3255 17.811C5.96665 17.4504 5.6818 17.0232 5.487 16.5533C5.28129 16.0828 5.17507 15.5749 5.175 15.0615V9.0165C5.16665 8.50518 5.26287 7.99755 5.45775 7.52475C5.8445 6.57362 6.59073 5.81338 7.5345 5.409C8.02498 5.21821 8.549 5.12866 9.075 5.14575H15.12C15.6268 5.14127 16.1294 5.23816 16.5982 5.43071C17.067 5.62327 17.4926 5.9076 17.85 6.267C18.2068 6.62926 18.4913 7.0561 18.6885 7.52475C18.8834 7.99755 18.9796 8.50518 18.9713 9.0165L18.942 15.0615Z" fill="black"/>
</svg>
