<svg width="24" height="24" viewBox="0 0 24 24" fill="none" xmlns="http://www.w3.org/2000/svg">
<path d="M18.0264 6.11741C17.8126 11.2299 14.1386 12.9211 9.54126 12.542C8.78314 12.542 8.64706 13.3196 8.56931 13.9125C8.25828 15.4676 8.17081 17.2171 7.75287 18.6848H4.30244C4.23909 18.6874 4.17586 18.6773 4.11645 18.6551C4.05705 18.633 4.00267 18.5992 3.9565 18.5557C3.91033 18.5123 3.8733 18.46 3.84758 18.4021C3.82187 18.3441 3.80798 18.2816 3.80674 18.2182C4.43851 14.0777 5.11888 9.92746 5.75065 5.77723C5.89644 4.85387 6.05195 3.93052 6.18802 3.00716C6.20412 2.88049 6.24936 2.75928 6.32019 2.65303C6.39102 2.54679 6.48551 2.45841 6.59624 2.39483C8.01745 2.25848 9.44631 2.21951 10.8728 2.2782C13.6915 2.16156 18.1236 2.2296 18.0264 6.11741Z" fill="black"/>
<path d="M18.6776 8.06131C21.1755 9.47064 20.2036 13.4168 18.5027 15.1663C17.8511 15.709 17.0975 16.1159 16.2862 16.3629C15.475 16.61 14.6225 16.6922 13.779 16.6048C13.6739 16.6072 13.5703 16.6307 13.4745 16.6739C13.3786 16.717 13.2923 16.7789 13.2208 16.8559C13.1492 16.9329 13.0938 17.0234 13.0578 17.1222C13.0218 17.221 13.0059 17.3259 13.0111 17.4309L12.428 21.0563C12.4191 21.1678 12.3847 21.2758 12.3273 21.3719C12.27 21.4679 12.1914 21.5495 12.0975 21.6103C10.9756 21.7484 9.84348 21.7842 8.7151 21.7172C8.65319 21.7195 8.59154 21.708 8.53462 21.6835C8.4777 21.659 8.42694 21.6222 8.38601 21.5757C8.34508 21.5292 8.315 21.4741 8.29795 21.4146C8.28091 21.355 8.27732 21.2924 8.28744 21.2313C8.3652 20.6967 8.45268 20.201 8.54015 19.7247C8.75166 17.7598 9.09587 15.8115 9.57042 13.893C9.65073 13.7994 9.75076 13.7247 9.86335 13.6743C9.97594 13.6238 10.0983 13.599 10.2216 13.6014C11.1936 13.6014 12.0975 13.6014 13.0306 13.5431C14.4652 13.4549 15.8202 12.8535 16.848 11.8488C17.8759 10.8442 18.5081 9.50325 18.629 8.07103L18.6776 8.06131Z" fill="black"/>
</svg>
