<svg width="24" height="24" viewBox="0 0 24 24" fill="none" xmlns="http://www.w3.org/2000/svg">
<path d="M10.45 10.48C10.4651 10.7836 10.3734 11.083 10.1907 11.326C10.008 11.569 9.7459 11.7402 9.45 11.81C8.92787 11.9636 8.38354 12.0278 7.84 12C7.7 12 7.69 11.91 7.69 11.81V10.51C7.69 10.09 7.69 9.68 7.69 9.26C7.69 9.19 7.76 9.07 7.8 9.07C8.37204 9.00616 8.95086 9.04339 9.51 9.18C9.79138 9.25712 10.038 9.42805 10.2089 9.66447C10.3799 9.9009 10.4649 10.1886 10.45 10.48Z" fill="black"/>
<path d="M17 2H7C5.67392 2 4.40215 2.52678 3.46447 3.46447C2.52678 4.40215 2 5.67392 2 7V17C2 18.3261 2.52678 19.5979 3.46447 20.5355C4.40215 21.4732 5.67392 22 7 22H17C18.3261 22 19.5979 21.4732 20.5355 20.5355C21.4732 19.5979 22 18.3261 22 17V7C22 5.67392 21.4732 4.40215 20.5355 3.46447C19.5979 2.52678 18.3261 2 17 2ZM11 13C10.4957 13.3214 9.91709 13.5073 9.32 13.54C8.87 13.54 8.43 13.54 7.98 13.54C7.7 13.54 7.7 13.54 7.7 13.81C7.7 14.58 7.7 15.36 7.7 16.13C7.7 16.33 7.64 16.39 7.44 16.39C7 16.39 6.56 16.39 6.12 16.39C5.93 16.39 5.88 16.32 5.88 16.14C5.88 14.73 5.88 13.32 5.88 11.9C5.88 10.48 5.88 9.11 5.88 7.71C5.88 7.51 5.88 7.45 6.13 7.45C7.13 7.45 8.22 7.45 9.26 7.45C9.83132 7.46548 10.3891 7.62731 10.88 7.92C11.3039 8.15888 11.6569 8.50598 11.9029 8.92587C12.1488 9.34575 12.279 9.82338 12.28 10.31C12.3378 10.833 12.2487 11.3619 12.0226 11.8371C11.7965 12.3122 11.4424 12.715 11 13ZM16.92 16.3C16.0501 16.6376 15.0983 16.7038 14.19 16.49C13.9178 16.4298 13.6504 16.3496 13.39 16.25C13.3498 16.2311 13.3145 16.2033 13.2867 16.1686C13.259 16.1339 13.2396 16.0934 13.23 16.05C13.23 15.57 13.23 15.05 13.23 14.61C13.23 14.61 13.23 14.61 13.23 14.54C13.55 14.66 13.85 14.8 14.16 14.9C14.6795 15.066 15.2296 15.1139 15.77 15.04C15.8773 15.0204 15.9815 14.9868 16.08 14.94C16.1386 14.9143 16.1896 14.8739 16.2279 14.8227C16.2662 14.7714 16.2906 14.7112 16.2986 14.6477C16.3067 14.5842 16.2982 14.5197 16.2739 14.4606C16.2496 14.4014 16.2103 14.3495 16.16 14.31C15.9312 14.1516 15.6866 14.0176 15.43 13.91C15.02 13.71 14.6 13.55 14.21 13.32C13.8579 13.1487 13.5704 12.8684 13.3902 12.5207C13.2101 12.173 13.1469 11.7765 13.21 11.39C13.2609 11.018 13.4154 10.6679 13.6559 10.3797C13.8964 10.0914 14.2132 9.87667 14.57 9.76C15.2132 9.54291 15.8994 9.48459 16.57 9.59C16.89 9.59 17.2 9.71 17.52 9.77C17.69 9.77 17.75 9.91 17.74 10.08V11.25C17.74 11.47 17.69 11.49 17.49 11.41C16.8654 11.1208 16.175 11.0035 15.49 11.07C15.3929 11.0813 15.2984 11.1083 15.21 11.15C15.15 11.1736 15.0972 11.2124 15.0568 11.2626C15.0165 11.3128 14.9899 11.3727 14.9798 11.4364C14.9697 11.5 14.9764 11.5652 14.9992 11.6255C15.0221 11.6858 15.0603 11.739 15.11 11.78C15.3988 11.9719 15.7032 12.1392 16.02 12.28C16.4 12.47 16.8 12.62 17.17 12.83C17.5057 12.9828 17.7839 13.2389 17.9638 13.5609C18.1437 13.8829 18.2159 14.254 18.17 14.62C18.1384 14.9851 18.003 15.3335 17.7797 15.6241C17.5564 15.9148 17.2546 16.1354 16.91 16.26L16.92 16.3Z" fill="black"/>
</svg>
