<svg width="24" height="24" viewBox="0 0 24 24" fill="none" xmlns="http://www.w3.org/2000/svg">
<path d="M12 2C10.0222 2 8.08879 2.58649 6.4443 3.6853C4.79981 4.78412 3.51809 6.3459 2.76121 8.17316C2.00433 10.0004 1.8063 12.0111 2.19215 13.9509C2.578 15.8907 3.53041 17.6725 4.92894 19.0711C6.32746 20.4696 8.10929 21.422 10.0491 21.8078C11.9889 22.1937 13.9996 21.9957 15.8268 21.2388C17.6541 20.4819 19.2159 19.2002 20.3147 17.5557C21.4135 15.9112 22 13.9778 22 12C22 9.34783 20.9464 6.80429 19.0711 4.92893C17.1957 3.05357 14.6522 2 12 2ZM18.2346 13.43C18.1626 13.43 18.0802 13.5535 18.0905 13.6255C18.131 14.2698 17.9965 14.9131 17.7013 15.4872C17.4061 16.0613 16.9612 16.5449 16.4136 16.8868C15.5179 17.5238 14.479 17.9301 13.3889 18.07C12.0088 18.3017 10.5925 18.1778 9.27367 17.7099C8.14013 17.3501 7.15666 16.627 6.47531 15.6523C6.08021 15.0656 5.89861 14.361 5.96091 13.6564C5.97314 13.5965 5.9645 13.5342 5.93642 13.48C5.90834 13.4257 5.86252 13.3826 5.80659 13.358C5.59797 13.2697 5.41151 13.1363 5.26062 12.9674C5.10973 12.7984 4.99816 12.5981 4.93394 12.3809C4.86972 12.1637 4.85444 11.9349 4.8892 11.711C4.92396 11.4872 5.00791 11.2738 5.13499 11.0863C5.26207 10.8988 5.42913 10.7418 5.62415 10.6265C5.81918 10.5113 6.03732 10.4407 6.26289 10.4199C6.48845 10.399 6.71584 10.4284 6.92868 10.506C7.14152 10.5835 7.33453 10.7073 7.49383 10.8683C7.51214 10.8883 7.5344 10.9042 7.55919 10.9151C7.58399 10.926 7.61078 10.9316 7.63786 10.9316C7.66495 10.9316 7.69174 10.926 7.71654 10.9151C7.74133 10.9042 7.76359 10.8883 7.7819 10.8683C8.84518 10.1737 10.0733 9.77261 11.3416 9.70576C11.7428 9.70576 11.7428 9.70576 11.8251 9.28395C12.0514 8.25514 12.2778 7.22633 12.4938 6.19753C12.5556 5.90946 12.679 5.82716 12.9568 5.88889L15.2099 6.36214C15.2569 6.37872 15.3081 6.37856 15.355 6.36169C15.4019 6.34482 15.4415 6.31226 15.4671 6.26954C15.5895 6.07226 15.7751 5.92218 15.9936 5.84373C16.2122 5.76528 16.4508 5.76307 16.6708 5.83745C16.8929 5.90462 17.0881 6.04028 17.2286 6.22505C17.369 6.40982 17.4474 6.63424 17.4527 6.86625C17.4528 7.08276 17.3909 7.29476 17.2742 7.47712C17.1575 7.65947 16.9909 7.80452 16.7942 7.89506C16.6591 7.95056 16.5144 7.97889 16.3684 7.97841C16.2223 7.97794 16.0778 7.94868 15.9431 7.89231C15.8084 7.83593 15.6861 7.75354 15.5832 7.64986C15.4803 7.54618 15.3989 7.42324 15.3436 7.28806C15.3436 7.1749 15.2819 7.06173 15.2407 6.93827L13.0288 6.47531C12.8025 7.50411 12.5761 8.61522 12.3395 9.69547C13.786 9.73627 15.1913 10.1857 16.393 10.9918C16.5474 10.8459 16.7305 10.7339 16.9308 10.663C17.131 10.5922 17.3438 10.564 17.5556 10.5802C17.878 10.5958 18.1866 10.7156 18.4352 10.9215C18.6838 11.1274 18.8589 11.4083 18.9342 11.7222C19.0164 12.0432 18.9939 12.382 18.8699 12.6893C18.7459 12.9965 18.5269 13.2561 18.2449 13.43H18.2346Z" fill="black"/>
<path d="M14.5309 16.1049C13.849 16.5988 13.0271 16.862 12.1852 16.856C11.2069 16.9346 10.2336 16.6528 9.44857 16.0638C9.42253 16.0416 9.40161 16.014 9.38727 15.9829C9.37292 15.9518 9.36549 15.918 9.36549 15.8837C9.36549 15.8495 9.37292 15.8157 9.38727 15.7846C9.40161 15.7535 9.42253 15.7259 9.44857 15.7037C9.47272 15.6755 9.5027 15.6528 9.53644 15.6372C9.57018 15.6217 9.60689 15.6136 9.64405 15.6136C9.6812 15.6136 9.71791 15.6217 9.75165 15.6372C9.7854 15.6528 9.81537 15.6755 9.83952 15.7037C10.4008 16.069 11.0428 16.2918 11.7098 16.3528C12.3767 16.4137 13.0484 16.311 13.6667 16.0535C13.8574 15.9695 14.0371 15.8624 14.2017 15.7346C14.5 15.4362 14.8498 15.8374 14.5309 16.1049Z" fill="black"/>
<path d="M10.6935 13.1831C10.6908 13.3463 10.6512 13.5067 10.5776 13.6523C10.5041 13.798 10.3985 13.925 10.2688 14.024C10.1391 14.123 9.9887 14.1914 9.82883 14.2239C9.66895 14.2565 9.50378 14.2524 9.34571 14.2119H9.25312C9.04878 14.1429 8.8713 14.0114 8.74576 13.8361C8.62022 13.6607 8.55298 13.4503 8.55354 13.2346C8.54511 13.0944 8.56548 12.9539 8.61339 12.8219C8.66131 12.6899 8.73575 12.569 8.83214 12.4669C8.92852 12.3647 9.04481 12.2833 9.17384 12.2278C9.30286 12.1723 9.44188 12.1438 9.58234 12.144C9.86568 12.141 10.1393 12.2472 10.3463 12.4408C10.5532 12.6343 10.6776 12.9002 10.6935 13.1831Z" fill="black"/>
<path d="M15.4671 13.1831C15.4538 13.3498 15.4 13.5106 15.3105 13.6518C15.2211 13.793 15.0985 13.9103 14.9535 13.9935C14.8085 14.0766 14.6454 14.1232 14.4784 14.1292C14.3113 14.1352 14.1453 14.1004 13.9948 14.0278C13.8442 13.9552 13.7136 13.847 13.6142 13.7126C13.5149 13.5781 13.4498 13.4215 13.4245 13.2563C13.3993 13.091 13.4148 12.9221 13.4695 12.7642C13.5242 12.6062 13.6166 12.464 13.7387 12.3498C13.8903 12.208 14.0812 12.1153 14.2864 12.084C14.4916 12.0527 14.7014 12.0842 14.8884 12.1744C15.0753 12.2645 15.2307 12.4091 15.334 12.5891C15.4372 12.7692 15.4837 12.9762 15.4671 13.1831Z" fill="black"/>
</svg>
