<svg width="24" height="24" viewBox="0 0 24 24" fill="none" xmlns="http://www.w3.org/2000/svg">
<path d="M9.05693 13.6982C8.8035 13.6993 8.55243 13.7467 8.31621 13.8381L9.29958 14.2197C9.51415 14.3088 9.72312 14.4108 9.92535 14.525C10.1267 14.6702 10.2898 14.8617 10.401 15.0832C10.5121 15.3046 10.568 15.5495 10.5639 15.797C10.5605 16.2098 10.3935 16.6045 10.0993 16.8951C9.8051 17.1858 9.40748 17.3489 8.99307 17.3489C8.70773 17.3293 8.42949 17.2514 8.17573 17.1199L7.06466 16.6747C7.23582 17.052 7.51213 17.3725 7.86077 17.598C8.2094 17.8234 8.6157 17.9445 9.03139 17.9467C9.59703 17.9467 10.1395 17.7229 10.5395 17.3246C10.9394 16.9262 11.1641 16.3859 11.1641 15.8225C11.1641 15.2591 10.9394 14.7188 10.5395 14.3204C10.1395 13.922 9.59703 13.6982 9.03139 13.6982H9.05693ZM11.9943 2.25001C9.53005 2.24638 7.15574 3.17159 5.34821 4.83979C3.54069 6.50799 2.43384 8.79563 2.25 11.2432L7.52441 13.4819C7.98362 13.1984 8.51692 13.0567 9.05693 13.0749H9.19741L11.5217 9.79309C11.515 9.72117 11.515 9.64877 11.5217 9.57685C11.5217 8.8221 11.7464 8.0843 12.1674 7.45676C12.5884 6.82921 13.1868 6.3401 13.8868 6.05127C14.5869 5.76244 15.3573 5.68687 16.1005 5.83411C16.8437 5.98135 17.5263 6.3448 18.0622 6.87848C18.598 7.41217 18.9629 8.09213 19.1107 8.83237C19.2585 9.57261 19.1827 10.3399 18.8927 11.0372C18.6027 11.7345 18.1116 12.3305 17.4816 12.7498C16.8515 13.1691 16.1108 13.3929 15.353 13.3929H15.1998L11.841 15.797V15.8988C11.8306 16.5792 11.5694 17.2321 11.1071 17.7332C10.6447 18.2343 10.0135 18.5485 9.33364 18.616C8.65376 18.6836 7.97268 18.4998 7.42005 18.0996C6.86743 17.6994 6.48184 17.1108 6.33671 16.4458L2.62036 14.8812C3.15396 16.6023 4.15614 18.1424 5.51558 19.3305C6.87502 20.5185 8.5385 21.3079 10.3212 21.611C12.104 21.9142 13.9362 21.7191 15.6143 21.0476C17.2925 20.3761 18.7509 19.2543 19.8276 17.807C20.9042 16.3596 21.557 14.6433 21.7134 12.8487C21.8697 11.0541 21.5236 9.2515 20.7133 7.64105C19.9031 6.0306 18.6605 4.67539 17.1236 3.72595C15.5866 2.77652 13.8155 2.27002 12.007 2.26273L11.9943 2.25001Z" fill="black"/>
<path d="M15.3019 7.03281C14.7968 7.03281 14.3029 7.18201 13.8829 7.46155C13.4629 7.7411 13.1355 8.13842 12.9422 8.60328C12.7488 9.06815 12.6983 9.57967 12.7968 10.0732C12.8954 10.5667 13.1386 11.02 13.4958 11.3758C13.8531 11.7315 14.3082 11.9738 14.8036 12.072C15.2991 12.1702 15.8127 12.1198 16.2794 11.9272C16.7461 11.7347 17.145 11.4086 17.4257 10.9902C17.7063 10.5719 17.8561 10.08 17.8561 9.57685C17.8561 8.90212 17.587 8.25504 17.108 7.77794C16.629 7.30084 15.9794 7.03281 15.3019 7.03281ZM15.3019 11.4722C14.92 11.4747 14.5459 11.3642 14.2271 11.1547C13.9083 10.9451 13.6592 10.646 13.5112 10.2953C13.3633 9.94456 13.3233 9.55797 13.3963 9.18454C13.4692 8.81112 13.6519 8.46769 13.921 8.19779C14.1902 7.9279 14.5338 7.7437 14.9082 7.66855C15.2826 7.5934 15.671 7.63068 16.0242 7.77568C16.3773 7.92068 16.6792 8.16685 16.8917 8.48298C17.1041 8.79912 17.2176 9.17098 17.2176 9.55141C17.2176 10.0586 17.0162 10.5453 16.6573 10.9051C16.2984 11.265 15.8112 11.4688 15.3019 11.4722Z" fill="black"/>
</svg>
