<svg width="24" height="24" viewBox="0 0 24 24" fill="none" xmlns="http://www.w3.org/2000/svg">
<path d="M13.3741 9.66761H14.5906L14.661 9.99937L14.9123 9.81841C15.2011 9.64257 15.5377 9.56158 15.8749 9.58682C16.2121 9.61207 16.5329 9.74227 16.7923 9.95915C17.2267 10.3398 17.5088 10.8647 17.5865 11.437C17.7127 12.1119 17.6465 12.8086 17.3955 13.4477C17.2925 13.7399 17.1133 13.9992 16.8765 14.199C16.6396 14.3987 16.3537 14.5315 16.0484 14.5837C15.6618 14.6585 15.2613 14.5791 14.9324 14.3625L14.7816 14.2721V15.8303L13.3943 16.1219L13.3741 9.66761ZM14.7615 12.1005V13.0456C14.7603 13.0759 14.766 13.1062 14.7782 13.1341C14.7904 13.1619 14.8088 13.1867 14.8319 13.2064C14.9198 13.2827 15.0231 13.3393 15.1347 13.3723C15.2463 13.4054 15.3637 13.4141 15.479 13.3979C15.5943 13.3817 15.7048 13.341 15.803 13.2784C15.9012 13.2159 15.9849 13.1331 16.0484 13.0355C16.2271 12.7319 16.3111 12.3818 16.2896 12.0302C16.2946 11.7124 16.2035 11.4005 16.0282 11.1354C15.9673 11.036 15.885 10.9514 15.7873 10.8879C15.6895 10.8243 15.5789 10.7833 15.4633 10.7679C15.3478 10.7525 15.2302 10.7631 15.1192 10.7988C15.0083 10.8345 14.9067 10.8946 14.8218 10.9745C14.7856 11.0128 14.7642 11.0627 14.7615 11.1153C14.7515 11.4672 14.7615 11.7889 14.7615 12.1005Z" fill="black"/>
<path d="M19.2856 12.6133C19.2865 12.7488 19.3221 12.8819 19.3889 12.9998C19.4558 13.1177 19.5517 13.2165 19.6676 13.2868C19.9567 13.442 20.2896 13.4951 20.6126 13.4376C20.9789 13.4176 21.3377 13.3253 21.6682 13.1662V13.2768C21.6682 13.5583 21.6682 13.8498 21.6682 14.1414C21.6729 14.1796 21.6645 14.2182 21.6444 14.2511C21.6243 14.2839 21.5938 14.309 21.5576 14.3223C21.0113 14.5745 20.4062 14.6719 19.8084 14.6038C19.3215 14.554 18.8669 14.3373 18.5215 13.9906C18.2387 13.6879 18.0471 13.3115 17.9686 12.9048C17.7952 12.1649 17.8804 11.3879 18.2099 10.7031C18.3685 10.343 18.6339 10.0403 18.9703 9.83604C19.3066 9.63176 19.6975 9.53573 20.0902 9.56096C20.4829 9.58619 20.8584 9.73145 21.1658 9.97709C21.4732 10.2227 21.6977 10.5569 21.809 10.9343C21.9274 11.2567 21.992 11.5964 22 11.9397V12.6233H19.2856V12.6133ZM20.6931 11.6079C20.7092 11.4602 20.6861 11.3109 20.6261 11.175C20.5661 11.039 20.4713 10.9214 20.3512 10.8338C20.2466 10.7607 20.122 10.7215 19.9943 10.7215C19.8667 10.7215 19.7421 10.7607 19.6374 10.8338C19.5126 10.9208 19.4126 11.039 19.3473 11.1765C19.2821 11.314 19.2539 11.4662 19.2655 11.618L20.6931 11.6079Z" fill="black"/>
<path d="M2.13445 12.9852L2.38578 13.1059C2.72645 13.2714 3.09435 13.3735 3.47155 13.4075C3.62534 13.4225 3.78022 13.4225 3.93401 13.4075C3.98927 13.3939 4.03956 13.3649 4.07905 13.3239C4.11855 13.283 4.14565 13.2317 4.15721 13.1759C4.16878 13.1202 4.16434 13.0623 4.14441 13.009C4.12448 12.9557 4.08988 12.9091 4.04459 12.8747C3.94313 12.8046 3.83544 12.744 3.72289 12.6937C3.40118 12.563 3.07947 12.4524 2.71754 12.3016C2.52325 12.1956 2.35737 12.0443 2.23396 11.8605C2.11054 11.6768 2.03323 11.466 2.00857 11.2461C1.98391 11.0261 2.01263 10.8034 2.09229 10.5969C2.17196 10.3904 2.30022 10.2061 2.46621 10.0597C2.82132 9.77012 3.26468 9.61051 3.72289 9.6073C4.21159 9.57629 4.70137 9.64822 5.16052 9.81843C5.18888 9.82555 5.21369 9.84272 5.23033 9.86676C5.24697 9.8908 5.25432 9.92007 5.251 9.94912V11.1254C5.02983 11.055 4.81871 10.9545 4.59753 10.9042C4.37636 10.8539 4.0647 10.8338 3.80331 10.8037C3.73037 10.7885 3.65508 10.7885 3.58214 10.8037C3.5356 10.8166 3.49377 10.8427 3.46167 10.8788C3.42957 10.9149 3.40854 10.9594 3.40112 11.0072C3.39369 11.0549 3.40018 11.1038 3.4198 11.1479C3.43943 11.192 3.47135 11.2296 3.51176 11.2561C3.61903 11.3282 3.7336 11.3889 3.85358 11.437C4.19538 11.5499 4.53096 11.6808 4.85892 11.8291C5.11804 11.9541 5.32691 12.1635 5.45116 12.423C5.57541 12.6824 5.60764 12.9765 5.54255 13.2567C5.50474 13.5649 5.36748 13.8523 5.1516 14.0755C4.93571 14.2986 4.65295 14.4453 4.3462 14.4933C3.61976 14.6644 2.85732 14.5938 2.17466 14.2922C2.15843 14.2853 2.14431 14.2742 2.13373 14.2601C2.12314 14.2459 2.11645 14.2293 2.11434 14.2118V13.0054C2.1198 12.9975 2.1266 12.9907 2.13445 12.9852Z" fill="black"/>
<path d="M5.8542 8.7628L7.20136 8.47125V9.66761H8.2067V10.8439H7.20136V12.8545C7.19547 12.9374 7.2094 13.0204 7.24199 13.0968C7.27458 13.1731 7.32489 13.2406 7.38876 13.2937C7.45262 13.3468 7.52821 13.3838 7.60926 13.4019C7.69031 13.4199 7.77449 13.4184 7.85483 13.3974C7.98709 13.3837 8.11815 13.3602 8.24691 13.327C8.24691 13.327 8.24691 13.3773 8.24691 13.4075C8.24691 13.7191 8.24691 14.0308 8.24691 14.3424C8.24691 14.4128 8.24691 14.453 8.16648 14.4731C7.69646 14.6489 7.17876 14.6489 6.70874 14.4731C6.46771 14.3855 6.2575 14.2295 6.10391 14.0241C5.95033 13.8187 5.86004 13.573 5.84415 13.317C5.8391 13.2501 5.8391 13.1829 5.84415 13.1159V8.7628H5.8542Z" fill="black"/>
<path d="M8.69931 9.67766H9.79513C9.87556 9.67766 9.89567 9.67766 9.90572 9.76815C9.92291 9.87004 9.94641 9.97077 9.97609 10.0697L10.0163 9.96921C10.1323 9.82122 10.2907 9.71212 10.4703 9.65644C10.6499 9.60075 10.8423 9.60115 11.0216 9.65756C11.0216 9.65756 11.0216 9.65756 11.0216 9.71788V10.9042C10.8677 10.894 10.7132 10.894 10.5592 10.9042C10.4432 10.9162 10.3306 10.9504 10.2274 11.0047C10.1449 11.0415 10.0757 11.1026 10.029 11.1799C9.98223 11.2572 9.96027 11.3469 9.96604 11.437C9.96604 12.4424 9.96604 13.3974 9.96604 14.3726V14.5033H8.69931V9.67766Z" fill="black"/>
<path d="M11.4741 9.67767H12.8514V14.5134H11.4741V9.67767Z" fill="black"/>
<path d="M11.464 9.25543V8.25009C11.464 8.18977 11.464 8.15961 11.5344 8.14955L12.8212 7.87811V8.96388L11.464 9.25543Z" fill="black"/>
</svg>
