<svg width="24" height="24" viewBox="0 0 24 24" fill="none" xmlns="http://www.w3.org/2000/svg">
<path d="M20.3573 7.75082C20.3526 7.61889 20.2994 7.49333 20.208 7.39805C20.1166 7.30277 19.9934 7.24445 19.8618 7.23418C18.9852 7.15249 18.1489 6.82747 17.4473 6.29578C16.9266 5.90115 16.4911 5.4054 16.1667 4.8383C15.8424 4.27119 15.636 3.64441 15.5599 2.99556C15.5496 2.86394 15.4913 2.7407 15.396 2.64931C15.3008 2.55792 15.1752 2.50478 15.0433 2.5H12.9345C12.8657 2.49999 12.7977 2.51369 12.7343 2.54031C12.6709 2.56693 12.6135 2.60593 12.5654 2.65503C12.5173 2.70413 12.4794 2.76234 12.4541 2.82624C12.4288 2.89015 12.4164 2.95846 12.4178 3.02719V15.6165C12.412 16.1997 12.2238 16.7663 11.8797 17.2372C11.5355 17.708 11.0527 18.0593 10.4989 18.2419C10.1591 18.3534 9.80144 18.3999 9.44449 18.379C8.99388 18.3543 8.55604 18.2204 8.16869 17.9889C7.61374 17.6603 7.18842 17.1512 6.96387 16.5466C6.73932 15.9421 6.72915 15.2787 6.93506 14.6676C7.14625 14.0601 7.55764 13.5424 8.10174 13.1995C8.64584 12.8565 9.29034 12.7087 9.9295 12.7802C10.0003 12.7876 10.0718 12.7801 10.1394 12.758C10.207 12.7359 10.2692 12.6998 10.322 12.652C10.3747 12.6043 10.4168 12.5459 10.4454 12.4808C10.4741 12.4157 10.4887 12.3453 10.4883 12.2741V9.80687C10.4883 9.80687 9.5921 9.74361 9.28633 9.74361C8.5022 9.73995 7.72714 9.91127 7.0176 10.2451C6.30806 10.5789 5.68191 11.0667 5.18478 11.6731C4.52368 12.3848 4.05231 13.2514 3.81408 14.1931C3.56962 15.1817 3.58691 16.2169 3.86423 17.1968C4.14156 18.1767 4.66936 19.0675 5.39566 19.7813C5.56967 19.9566 5.75645 20.1187 5.95448 20.2663C6.99641 21.07 8.27622 21.5041 9.5921 21.5C9.89196 21.5002 10.1915 21.479 10.4883 21.4367C11.7399 21.2512 12.8997 20.6713 13.7991 19.7813C14.349 19.2418 14.7867 18.5989 15.0871 17.8896C15.3875 17.1802 15.5446 16.4185 15.5494 15.6482V8.71031C16.7667 9.64979 18.2333 10.2108 19.7669 10.3235C19.8382 10.3279 19.9097 10.3174 19.9768 10.2928C20.044 10.2681 20.1052 10.2298 20.1567 10.1803C20.2083 10.1307 20.249 10.071 20.2762 10.0049C20.3035 9.93883 20.3168 9.8678 20.3152 9.79633V7.75082H20.3573Z" fill="black"/>
</svg>
