<svg width="24" height="24" viewBox="0 0 24 24" fill="none" xmlns="http://www.w3.org/2000/svg">
<path d="M20.6889 8.87093L22 15.1284H20.4982C20.4386 14.8662 20.391 14.592 20.3314 14.3298C20.2718 14.0676 20.3314 14.1987 20.1764 14.1987H18.3528C18.3331 14.1953 18.3129 14.1961 18.2935 14.201C18.2741 14.2059 18.256 14.2149 18.2403 14.2272C18.2246 14.2396 18.2116 14.2551 18.2022 14.2728C18.1929 14.2904 18.1873 14.3099 18.186 14.3298C18.1025 14.5682 18.0191 14.8066 17.9237 15.033C17.8284 15.2595 17.8403 15.1403 17.8046 15.1403H16.1955V14.9973C16.9901 13.1141 17.7847 11.2269 18.5793 9.33577C18.6263 9.20748 18.7102 9.09599 18.8205 9.01538C18.9308 8.93477 19.0626 8.88865 19.1991 8.88285C19.7235 8.85901 20.2003 8.87093 20.6889 8.87093ZM19.5686 10.623L18.7223 12.8995H20.0572L19.5686 10.623Z" fill="black"/>
<path d="M6.11205 13.126C6.11205 13.126 6.11205 13.0306 6.11205 12.983C6.5888 11.66 7.07748 10.337 7.54232 9.01396C7.54232 8.90668 7.63768 8.85901 7.75687 8.85901H9.34209C9.34209 8.9186 9.34209 8.96628 9.34209 9.01396L6.87486 14.9734C6.86342 15.023 6.8338 15.0664 6.79185 15.0951C6.7499 15.1238 6.6987 15.1357 6.6484 15.1284H5.2658C5.14661 15.1284 5.09893 15.1284 5.06317 14.9734C4.62217 13.2571 4.16925 11.5408 3.72825 9.81253C3.71778 9.76834 3.69871 9.72665 3.67212 9.68984C3.64554 9.65303 3.61196 9.62181 3.5733 9.59798C3.11273 9.34188 2.62501 9.13799 2.11919 8.99012C2.11919 8.99012 2.03576 8.93052 2 8.90668C2.05093 8.89453 2.10401 8.89453 2.15495 8.90668H4.53874C4.63829 8.8915 4.73993 8.89752 4.83699 8.92434C4.93406 8.95116 5.02437 8.99817 5.102 9.06231C5.17964 9.12644 5.24286 9.20625 5.28751 9.29651C5.33217 9.38677 5.35726 9.48544 5.36115 9.58607L6.04053 13.0783C6.03662 13.106 6.03662 13.1341 6.04053 13.1618L6.11205 13.126Z" fill="black"/>
<path d="M11.6663 14.89L11.9046 13.4955L12.0715 13.5908C12.6801 13.9062 13.3786 14.003 14.0501 13.865C14.1784 13.8541 14.3002 13.8035 14.3985 13.7202C14.4967 13.6369 14.5666 13.525 14.5983 13.4001C14.6104 13.2756 14.5822 13.1505 14.5178 13.0432C14.4535 12.9359 14.3563 12.8521 14.2408 12.8042C14.0024 12.6492 13.7402 12.5301 13.5137 12.3751C13.2199 12.2108 12.9477 12.0106 12.7032 11.7792C12.4559 11.4833 12.3204 11.1099 12.3204 10.7243C12.3204 10.3387 12.4559 9.96538 12.7032 9.66951C13.0624 9.27733 13.532 9.00309 14.0501 8.88285C14.839 8.68603 15.6685 8.72751 16.4338 9.00204H16.4934L16.267 10.2893C15.9664 10.1966 15.6597 10.1249 15.3492 10.0748C15.0398 10.051 14.729 10.051 14.4195 10.0748C14.3074 10.0968 14.204 10.1506 14.1216 10.2297C14.0815 10.2633 14.0493 10.3052 14.0271 10.3526C14.005 10.3999 13.9936 10.4516 13.9936 10.5038C13.9936 10.5561 14.005 10.6077 14.0271 10.6551C14.0493 10.7025 14.0815 10.7444 14.1216 10.778C14.264 10.9091 14.4198 11.025 14.5864 11.1236C14.8963 11.3143 15.2181 11.4693 15.5161 11.6719C15.7624 11.8228 15.9665 12.0335 16.1097 12.2844C16.2529 12.5352 16.3305 12.8181 16.3352 13.107C16.34 13.3958 16.2718 13.6811 16.1369 13.9365C16.0021 14.192 15.8049 14.4092 15.5638 14.5682C15.0885 14.936 14.5176 15.1594 13.9189 15.2118C13.1529 15.2964 12.378 15.1857 11.6663 14.89Z" fill="black"/>
<path d="M9.02026 15.1284L10.0453 8.87094H11.6782L10.6532 15.1284H9.02026Z" fill="black"/>
</svg>
