<svg width="24" height="24" viewBox="0 0 24 24" fill="none" xmlns="http://www.w3.org/2000/svg">
<path d="M13.794 2.64211C18.4738 3.54213 21.6541 7.59589 21.4944 12.4154C21.3471 16.8586 17.7516 20.7326 13.2237 21.2879C11.377 21.5144 9.60007 21.2244 7.90605 20.428C7.66372 20.3141 7.32659 20.2837 7.06513 20.3463C5.70967 20.6713 4.3647 21.0396 3.01554 21.3908C2.86769 21.4292 2.71639 21.4546 2.49994 21.5C2.90494 20.0176 3.2833 18.5957 3.687 17.1809C3.78951 16.8216 3.76123 16.5357 3.59593 16.1846C2.02128 12.8397 2.15842 9.55847 4.30357 6.52539C6.45517 3.48319 9.49066 2.18524 13.2242 2.5641C13.4 2.58194 13.575 2.607 13.794 2.64211ZM19.7077 13.6464C19.9763 12.5498 20.0073 11.4386 19.746 10.3479C18.958 7.05999 16.9122 4.92897 13.5864 4.25547C10.3227 3.59454 7.58328 4.6955 5.65032 7.3928C3.71351 10.0955 3.67173 12.9931 5.26967 15.8962C5.47512 16.2694 5.5303 16.5754 5.4053 16.9745C5.17734 17.7024 4.99961 18.4458 4.77698 19.2716C5.70162 19.032 6.51288 18.8013 7.33537 18.6217C7.56778 18.571 7.87291 18.5975 8.07733 18.71C12.7725 21.2951 18.3536 18.9105 19.7077 13.6464Z" fill="black"/>
<path d="M9.74474 8.15751C9.92352 8.58485 10.0448 8.9983 10.2547 9.36088C10.5546 9.87907 10.4636 10.314 10.0498 10.6789C9.60462 11.0714 9.67141 11.404 9.99003 11.8535C10.7246 12.8898 11.6476 13.6672 12.813 14.1762C13.1332 14.316 13.3755 14.34 13.5839 14.0191C13.6695 13.8873 13.7893 13.7781 13.8886 13.6546C14.4722 12.9285 14.2887 12.9353 15.2132 13.3365C15.5042 13.4628 15.7945 13.5983 16.064 13.7637C16.3331 13.9289 16.7431 14.0994 16.7961 14.3338C16.9136 14.8538 16.748 15.3824 16.3145 15.7682C15.5147 16.4798 14.5934 16.5979 13.5887 16.3205C11.4151 15.7203 9.74304 14.4156 8.46205 12.6104C8.00962 11.9728 7.60569 11.2663 7.35233 10.5321C7.04391 9.63836 7.26143 8.77578 7.89825 8.01877C8.27281 7.57351 8.72855 7.47407 9.22289 7.59284C9.42189 7.64065 9.56064 7.93744 9.74474 8.15751Z" fill="black"/>
</svg>
