<svg width="24" height="24" viewBox="0 0 24 24" fill="none" xmlns="http://www.w3.org/2000/svg">
<path d="M4.80556 9.43057V17.6528C4.80556 18.198 5.02212 18.7208 5.40761 19.1063C5.7931 19.4918 6.31594 19.7084 6.86111 19.7084H17.1389C17.6841 19.7084 18.2069 19.4918 18.5924 19.1063C18.9779 18.7208 19.1944 18.198 19.1944 17.6528V9.43057" stroke="black" stroke-width="1.5" stroke-linecap="round" stroke-linejoin="round"/>
<path d="M19.7083 4.29169H4.29167C3.44023 4.29169 2.75 4.98191 2.75 5.83335V7.88891C2.75 8.74035 3.44023 9.43058 4.29167 9.43058H19.7083C20.5598 9.43058 21.25 8.74035 21.25 7.88891V5.83335C21.25 4.98191 20.5598 4.29169 19.7083 4.29169Z" stroke="black" stroke-width="1.5" stroke-linecap="round" stroke-linejoin="round"/>
<path d="M8.91666 15.5972H15.0833" stroke="black" stroke-width="1.5" stroke-linecap="round" stroke-linejoin="round"/>
</svg>
