<svg width="24" height="24" viewBox="0 0 24 24" fill="none" xmlns="http://www.w3.org/2000/svg">
<path d="M12 6.80969V17.6014" stroke="black" stroke-width="1.5" stroke-miterlimit="10" stroke-linecap="round"/>
<path d="M17.1389 11.5374L12.7297 7.11798C12.6341 7.02165 12.5205 6.94519 12.3953 6.89301C12.27 6.84083 12.1357 6.81396 12 6.81396C11.8643 6.81396 11.73 6.84083 11.6047 6.89301C11.4795 6.94519 11.3659 7.02165 11.2703 7.11798L6.86112 11.5374" stroke="black" stroke-width="1.5" stroke-linecap="round" stroke-linejoin="round"/>
<path d="M16.5839 2.75H7.41611C4.83909 2.75 2.75 4.83909 2.75 7.41611V16.5839C2.75 19.1609 4.83909 21.25 7.41611 21.25H16.5839C19.1609 21.25 21.25 19.1609 21.25 16.5839V7.41611C21.25 4.83909 19.1609 2.75 16.5839 2.75Z" stroke="black" stroke-width="1.5" stroke-linecap="round" stroke-linejoin="round"/>
</svg>
