<svg width="24" height="24" viewBox="0 0 24 24" fill="none" xmlns="http://www.w3.org/2000/svg">
<path d="M12 17.5416V6.45831" stroke="black" stroke-width="1.5" stroke-miterlimit="10" stroke-linecap="round"/>
<path d="M6.72223 12.6967L11.2506 17.2778C11.3487 17.3767 11.4655 17.4552 11.594 17.5088C11.7227 17.5625 11.8607 17.59 12 17.59C12.1393 17.59 12.2773 17.5625 12.406 17.5088C12.5345 17.4552 12.6513 17.3767 12.7495 17.2778L17.2778 12.6967" stroke="black" stroke-width="1.5" stroke-linecap="round" stroke-linejoin="round"/>
<path d="M12 21.5C17.2467 21.5 21.5 17.2467 21.5 12C21.5 6.7533 17.2467 2.5 12 2.5C6.7533 2.5 2.5 6.7533 2.5 12C2.5 17.2467 6.7533 21.5 12 21.5Z" stroke="black" stroke-width="1.5" stroke-linecap="round" stroke-linejoin="round"/>
</svg>
