<svg width="24" height="24" viewBox="0 0 24 24" fill="none" xmlns="http://www.w3.org/2000/svg">
<path d="M12 17.1902V6.39856" stroke="black" stroke-width="1.5" stroke-miterlimit="10" stroke-linecap="round"/>
<path d="M6.86111 12.4625L11.2703 16.882C11.3659 16.9783 11.4795 17.0547 11.6047 17.1069C11.73 17.1592 11.8643 17.186 12 17.186C12.1357 17.186 12.27 17.1592 12.3953 17.1069C12.5205 17.0547 12.6341 16.9783 12.7297 16.882L17.1389 12.4625" stroke="black" stroke-width="1.5" stroke-linecap="round" stroke-linejoin="round"/>
<path d="M16.5839 2.75H7.41611C4.83909 2.75 2.75 4.83909 2.75 7.41611V16.5839C2.75 19.1609 4.83909 21.25 7.41611 21.25H16.5839C19.1609 21.25 21.25 19.1609 21.25 16.5839V7.41611C21.25 4.83909 19.1609 2.75 16.5839 2.75Z" stroke="black" stroke-width="1.5" stroke-linecap="round" stroke-linejoin="round"/>
</svg>
