<svg width="24" height="24" viewBox="0 0 24 24" fill="none" xmlns="http://www.w3.org/2000/svg">
<path d="M17.3958 12H6.60417" stroke="black" stroke-width="1.5" stroke-miterlimit="10" stroke-linecap="round"/>
<path d="M12.6783 17.1389L17.1389 12.7297C17.2352 12.6341 17.3116 12.5204 17.3638 12.3953C17.416 12.27 17.4429 12.1356 17.4429 12C17.4429 11.8643 17.416 11.73 17.3638 11.6047C17.3116 11.4795 17.2352 11.3658 17.1389 11.2703L12.6783 6.86108" stroke="black" stroke-width="1.5" stroke-linecap="round" stroke-linejoin="round"/>
<path d="M16.5839 2.75H7.41611C4.83909 2.75 2.75 4.83909 2.75 7.41611V16.5839C2.75 19.1609 4.83909 21.25 7.41611 21.25H16.5839C19.1609 21.25 21.25 19.1609 21.25 16.5839V7.41611C21.25 4.83909 19.1609 2.75 16.5839 2.75Z" stroke="black" stroke-width="1.5" stroke-linecap="round" stroke-linejoin="round"/>
</svg>
