<svg width="24" height="24" viewBox="0 0 24 24" fill="none" xmlns="http://www.w3.org/2000/svg">
<path d="M17.25 12H6.75" stroke="black" stroke-width="1.5" stroke-miterlimit="10" stroke-linecap="round"/>
<path d="M12.66 17L17 12.71C17.0937 12.617 17.1681 12.5064 17.2189 12.3846C17.2697 12.2627 17.2958 12.132 17.2958 12C17.2958 11.868 17.2697 11.7373 17.2189 11.6154C17.1681 11.4936 17.0937 11.383 17 11.29L12.66 7" stroke="black" stroke-width="1.5" stroke-linecap="round" stroke-linejoin="round"/>
<path d="M12 21C16.9706 21 21 16.9706 21 12C21 7.02944 16.9706 3 12 3C7.02944 3 3 7.02944 3 12C3 16.9706 7.02944 21 12 21Z" stroke="black" stroke-width="1.5" stroke-linecap="round" stroke-linejoin="round"/>
</svg>
