<svg width="24" height="24" viewBox="0 0 24 24" fill="none" xmlns="http://www.w3.org/2000/svg">
<path d="M6.95001 12H17.45" stroke="black" stroke-width="1.5" stroke-miterlimit="10" stroke-linecap="round"/>
<path d="M11.55 7L7.25002 11.29C7.15629 11.383 7.0819 11.4936 7.03113 11.6154C6.98036 11.7373 6.95422 11.868 6.95422 12C6.95422 12.132 6.98036 12.2627 7.03113 12.3846C7.0819 12.5064 7.15629 12.617 7.25002 12.71L11.55 17" stroke="black" stroke-width="1.5" stroke-linecap="round" stroke-linejoin="round"/>
<path d="M16.46 3H7.54C5.03263 3 3 5.03263 3 7.54V16.46C3 18.9674 5.03263 21 7.54 21H16.46C18.9674 21 21 18.9674 21 16.46V7.54C21 5.03263 18.9674 3 16.46 3Z" stroke="black" stroke-width="1.5" stroke-linecap="round" stroke-linejoin="round"/>
</svg>
