<svg width="24" height="24" viewBox="0 0 24 24" fill="none" xmlns="http://www.w3.org/2000/svg">
<path d="M12.8104 7.98715L8.08366 12.7139C7.87635 12.921 7.7119 13.1669 7.5997 13.4376C7.48749 13.7083 7.42974 13.9984 7.42974 14.2914C7.42974 14.5844 7.48749 14.8745 7.5997 15.1452C7.7119 15.4159 7.87635 15.6618 8.08366 15.8689C8.29073 16.0762 8.53663 16.2406 8.8073 16.3528C9.07797 16.465 9.3681 16.5228 9.66111 16.5228C9.95412 16.5228 10.2443 16.465 10.5149 16.3528C10.7856 16.2406 11.0315 16.0762 11.2386 15.8689L16.3555 10.7519C16.7192 10.3903 17.0079 9.96039 17.2048 9.48687C17.4018 9.01335 17.5031 8.50557 17.5031 7.99273C17.5031 7.47988 17.4018 6.9721 17.2048 6.49858C17.0079 6.02506 16.7192 5.59515 16.3555 5.23357C15.6198 4.51999 14.6321 4.12557 13.6072 4.13601C12.5823 4.14644 11.6029 4.56089 10.8818 5.28931L5.72026 10.3505C4.67529 11.3958 4.08826 12.8134 4.08826 14.2914C4.08826 15.7694 4.67529 17.187 5.72026 18.2322C6.76555 19.2772 8.18307 19.8643 9.66111 19.8643C11.1391 19.8643 12.5567 19.2772 13.602 18.2322L19.9118 11.9782" stroke="black" stroke-width="1.5" stroke-linecap="round" stroke-linejoin="round"/>
</svg>
