<svg width="24" height="24" viewBox="0 0 24 24" fill="none" xmlns="http://www.w3.org/2000/svg">
<path d="M5.44274 17.3682C4.28995 17.0748 4.39476 15.859 4.57291 15.2722C4.91875 14.1614 6.26018 13.0295 6.26018 11.8034C6.26018 9.07853 6.26018 8.32398 7.6121 6.71007C8.05029 6.19483 8.5887 5.77409 9.19457 5.47343L9.93864 5.10663C10.0696 5.03319 10.1831 4.93249 10.2717 4.81135C10.3603 4.6902 10.4219 4.55146 10.4522 4.40447C10.5226 3.91319 10.7798 3.46799 11.1702 3.16152C11.5607 2.85507 12.0542 2.71093 12.5482 2.75911C13.0331 2.72741 13.5121 2.87892 13.8906 3.18363C14.269 3.48833 14.5192 3.92404 14.5917 4.40447C14.6268 4.55527 14.6947 4.69644 14.7908 4.81785C14.8868 4.93926 15.0084 5.03787 15.1472 5.10663L15.8913 5.47343C16.2096 5.63197 16.5115 5.82153 16.7925 6.03934" stroke="black" stroke-width="1.5" stroke-linecap="round" stroke-linejoin="round"/>
<path d="M17.9277 8.29611C18.5985 9.3441 18.5985 10.3083 18.5985 12.4881C18.5985 13.7142 19.9923 14.9194 20.3381 16.0198C20.4375 16.2545 20.4758 16.5106 20.4495 16.764C20.4232 17.0175 20.3331 17.2602 20.1877 17.4694C20.0422 17.6787 19.8461 17.8477 19.6177 17.9607C19.3894 18.0739 19.1361 18.1272 18.8814 18.1158H8.13947" stroke="black" stroke-width="1.5" stroke-linecap="round" stroke-linejoin="round"/>
<path d="M15.4755 18.1053C15.484 18.5205 15.4085 18.9332 15.2535 19.3186C15.0985 19.7039 14.8673 20.0539 14.5737 20.3475C14.28 20.6412 13.93 20.8725 13.5446 21.0275C13.1594 21.1824 12.7467 21.2579 12.3314 21.2494C11.9162 21.2579 11.5035 21.1824 11.1183 21.0275C10.7329 20.8725 10.3829 20.6412 10.0892 20.3475C9.79556 20.0539 9.56431 19.7039 9.40934 19.3186C9.25437 18.9332 9.1789 18.5205 9.18747 18.1053" stroke="black" stroke-width="1.5" stroke-linecap="round" stroke-linejoin="round"/>
<path d="M3.54243 20.1149L19.493 3.33002" stroke="black" stroke-width="1.5" stroke-miterlimit="10" stroke-linecap="round"/>
</svg>
