<svg width="24" height="24" viewBox="0 0 24 24" fill="none" xmlns="http://www.w3.org/2000/svg">
<path d="M21.25 16.5839L21.25 7.41611C21.25 4.83909 19.1609 2.75 16.5839 2.75L7.41611 2.75C4.83906 2.75 2.75 4.83909 2.75 7.41611L2.75 16.5839C2.75 19.1609 4.83906 21.25 7.41611 21.25L16.5839 21.25C19.1609 21.25 21.25 19.1609 21.25 16.5839Z" stroke="black" stroke-width="1.5" stroke-linecap="round" stroke-linejoin="round"/>
<path d="M11.9735 16.2079H16.76C16.9464 16.2183 17.1325 16.1808 17.3003 16.0989C17.4681 16.017 17.6121 15.8935 17.7186 15.7401C17.8252 15.5868 17.8907 15.4088 17.909 15.223C17.9272 15.0371 17.8976 14.8497 17.8228 14.6786C17.5705 13.914 16.5612 12.9964 16.5612 12.0941C16.5612 10.0908 16.5612 9.56325 15.5748 8.38572C15.255 8.00673 14.859 7.6993 14.4126 7.48346L13.8621 7.21584C13.7694 7.16062 13.6895 7.08643 13.6275 6.99813C13.5657 6.90984 13.5231 6.80944 13.5027 6.70353C13.4478 6.34671 13.2592 6.02412 12.9752 5.8012C12.6912 5.57827 12.3331 5.47169 11.9735 5.50306C11.6201 5.48171 11.2714 5.5929 10.9957 5.8149C10.72 6.03691 10.5369 6.35376 10.4824 6.70353C10.4577 6.81284 10.4093 6.9154 10.3406 7.00393C10.2719 7.09245 10.1846 7.1648 10.0848 7.21584L9.53426 7.48346C9.08782 7.6993 8.69182 8.00673 8.37203 8.38572C7.38565 9.56325 7.38565 10.0908 7.38565 12.0941C7.38565 12.9964 6.42222 13.8222 6.16989 14.6328C6.01697 15.1221 5.93286 16.2079 7.20979 16.2079H11.9735Z" stroke="black" stroke-width="1.4" stroke-linecap="round" stroke-linejoin="round"/>
<path d="M14.2673 16.2079C14.2736 16.5108 14.2186 16.8119 14.1055 17.093C13.9924 17.3742 13.8237 17.6295 13.6094 17.8438C13.3952 18.0581 13.1397 18.2268 12.8587 18.3399C12.5775 18.453 12.2765 18.508 11.9735 18.5017C11.6706 18.508 11.3695 18.453 11.0883 18.3399C10.8072 18.2268 10.5518 18.0581 10.3375 17.8438C10.1233 17.6295 9.95454 17.3742 9.84147 17.093C9.7284 16.8119 9.67334 16.5108 9.67959 16.2079" stroke="black" stroke-width="1.4" stroke-linecap="round" stroke-linejoin="round"/>
</svg>
