<svg width="24" height="24" viewBox="0 0 24 24" fill="none" xmlns="http://www.w3.org/2000/svg">
<path d="M3.29101 16.1059C3.27577 16.2543 3.29309 16.4043 3.34177 16.5454C3.39044 16.6864 3.4693 16.8151 3.57284 16.9226C3.67639 17.03 3.80212 17.1136 3.94128 17.1675C4.08044 17.2213 4.22967 17.2442 4.37857 17.2345C5.49826 17.2206 6.61619 17.3273 7.71307 17.5525C9.25374 17.7406 10.7256 18.3005 12.0017 19.1839V6.76929C10.7275 5.87858 9.25555 5.31162 7.71307 5.11743C6.59527 4.89477 5.45649 4.795 4.31701 4.81989C4.0449 4.81989 3.78393 4.92799 3.59152 5.1204C3.39911 5.31281 3.29101 5.57378 3.29101 5.84589V16.1059Z" stroke="black" stroke-width="1.5" stroke-linecap="round" stroke-linejoin="round"/>
<path d="M20.7124 16.1059C20.7214 16.251 20.6995 16.3965 20.648 16.5325C20.5965 16.6685 20.5167 16.7921 20.4139 16.8949C20.3111 16.9977 20.1875 17.0775 20.0515 17.129C19.9155 17.1805 19.77 17.2024 19.6249 17.1934C18.5052 17.1796 17.3873 17.2862 16.2904 17.5115C14.7461 17.7118 13.274 18.2859 12.0017 19.1839V6.76929C13.2759 5.87858 14.7479 5.31162 16.2904 5.11743C17.4082 4.89477 18.547 4.795 19.6864 4.81989C19.8265 4.81964 19.9652 4.84807 20.0938 4.90344C20.2225 4.95881 20.3385 5.03994 20.4346 5.14183C20.5307 5.24372 20.605 5.36421 20.6527 5.49589C20.7005 5.62756 20.7208 5.76763 20.7124 5.90745V16.1059Z" stroke="black" stroke-width="1.5" stroke-linecap="round" stroke-linejoin="round"/>
<path d="M6.22534 8.4519H7.24108" stroke="black" stroke-width="1.5" stroke-linecap="round" stroke-linejoin="round"/>
<path d="M6.22534 14.1154H7.71304" stroke="black" stroke-width="1.5" stroke-linecap="round" stroke-linejoin="round"/>
<path d="M6.22534 11.2837H8.94424" stroke="black" stroke-width="1.5" stroke-linecap="round" stroke-linejoin="round"/>
</svg>
