<svg width="24" height="24" viewBox="0 0 24 24" fill="none" xmlns="http://www.w3.org/2000/svg">
<path d="M3.23669 16.1695C3.23669 16.3134 3.26519 16.4558 3.32056 16.5886C3.37592 16.7214 3.45705 16.8419 3.55926 16.9432C3.66147 17.0444 3.78273 17.1244 3.91604 17.1786C4.04934 17.2327 4.19206 17.2599 4.33593 17.2585C5.46016 17.2445 6.58269 17.3502 7.68451 17.5741C9.23812 17.7682 10.7201 18.3414 12 19.2433V6.73441C10.7172 5.83803 9.23661 5.26533 7.68451 5.06521C6.56247 4.83957 5.41914 4.73718 4.27486 4.75986C3.99855 4.77798 3.73951 4.90066 3.55044 5.10297C3.36137 5.30528 3.25646 5.57201 3.25705 5.84892L3.23669 16.1695Z" stroke="black" stroke-width="1.5" stroke-linecap="round" stroke-linejoin="round"/>
<path d="M20.7633 16.1695C20.7633 16.3134 20.7348 16.4558 20.6795 16.5886C20.6241 16.7214 20.543 16.8419 20.4408 16.9432C20.3385 17.0444 20.2173 17.1244 20.084 17.1786C19.9507 17.2327 19.808 17.2599 19.6641 17.2585C18.5399 17.2445 17.4173 17.3502 16.3155 17.5741C14.7619 17.7682 13.2799 18.3414 12 19.2433V6.73441C13.2828 5.83803 14.7634 5.26533 16.3155 5.06521C17.4375 4.83957 18.5809 4.73718 19.7252 4.75986C20.0015 4.77798 20.2605 4.90066 20.4496 5.10297C20.6387 5.30528 20.7436 5.57201 20.743 5.84892L20.7633 16.1695Z" stroke="black" stroke-width="1.5" stroke-linecap="round" stroke-linejoin="round"/>
</svg>
