<svg width="24" height="24" viewBox="0 0 24 24" fill="none" xmlns="http://www.w3.org/2000/svg">
<path d="M5 9H9V21H5C4.46957 21 3.96086 20.7893 3.58579 20.4142C3.21071 20.0391 3 19.5304 3 19V11C3 10.4696 3.21071 9.96086 3.58579 9.58579C3.96086 9.21071 4.46957 9 5 9Z" stroke="black" stroke-width="1.5" stroke-linecap="round" stroke-linejoin="round"/>
<path d="M11 3H13C13.5304 3 14.0391 3.21071 14.4142 3.58579C14.7893 3.96086 15 4.46957 15 5V21H9V5C9 4.46957 9.21071 3.96086 9.58579 3.58579C9.96086 3.21071 10.4696 3 11 3Z" stroke="black" stroke-width="1.5" stroke-linecap="round" stroke-linejoin="round"/>
<path d="M15 7H19C19.5304 7 20.0391 7.21071 20.4142 7.58579C20.7893 7.96086 21 8.46957 21 9V19C21 19.5304 20.7893 20.0391 20.4142 20.4142C20.0391 20.7893 19.5304 21 19 21H15V7Z" stroke="black" stroke-width="1.5" stroke-linecap="round" stroke-linejoin="round"/>
</svg>
