<svg width="24" height="24" viewBox="0 0 24 24" fill="none" xmlns="http://www.w3.org/2000/svg">
<path d="M6.65797 12H4.9905C4.45613 12 4.02295 12.4332 4.02295 12.9675V19.2669C4.02295 19.8013 4.45613 20.2344 4.9905 20.2344H6.65797C7.19233 20.2344 7.62552 19.8013 7.62552 19.2669V12.9675C7.62552 12.4332 7.19233 12 6.65797 12Z" stroke="black" stroke-width="1.3" stroke-linecap="round" stroke-linejoin="round"/>
<path d="M12.8338 7.88275H11.1663C10.6319 7.88275 10.1987 8.31594 10.1987 8.8503V19.2669C10.1987 19.8012 10.6319 20.2344 11.1663 20.2344H12.8338C13.3681 20.2344 13.8013 19.8012 13.8013 19.2669V8.8503C13.8013 8.31594 13.3681 7.88275 12.8338 7.88275Z" stroke="black" stroke-width="1.3" stroke-linecap="round" stroke-linejoin="round"/>
<path d="M19.0095 3.76556H17.3421C16.8077 3.76556 16.3745 4.19875 16.3745 4.73311V19.2669C16.3745 19.8013 16.8077 20.2344 17.3421 20.2344H19.0095C19.5439 20.2344 19.9771 19.8013 19.9771 19.2669V4.73311C19.9771 4.19875 19.5439 3.76556 19.0095 3.76556Z" stroke="black" stroke-width="1.3" stroke-linecap="round" stroke-linejoin="round"/>
</svg>
