<svg width="24" height="24" viewBox="0 0 24 24" fill="none" xmlns="http://www.w3.org/2000/svg">
<path d="M6.81 12.29H5.19C4.67085 12.29 4.25 12.7108 4.25 13.23V19.35C4.25 19.8691 4.67085 20.29 5.19 20.29H6.81C7.32915 20.29 7.75 19.8691 7.75 19.35V13.23C7.75 12.7108 7.32915 12.29 6.81 12.29Z" stroke="black" stroke-width="1.3" stroke-linecap="round" stroke-linejoin="round"/>
<path d="M12.81 3.71002H11.19C10.6709 3.71002 10.25 4.13087 10.25 4.65002V19.35C10.25 19.8691 10.6709 20.29 11.19 20.29H12.81C13.3291 20.29 13.75 19.8691 13.75 19.35V4.65002C13.75 4.13087 13.3291 3.71002 12.81 3.71002Z" stroke="black" stroke-width="1.3" stroke-linecap="round" stroke-linejoin="round"/>
<path d="M18.81 8.34998H17.19C16.6709 8.34998 16.25 8.77083 16.25 9.28998V19.35C16.25 19.8691 16.6709 20.29 17.19 20.29H18.81C19.3291 20.29 19.75 19.8691 19.75 19.35V9.28998C19.75 8.77083 19.3291 8.34998 18.81 8.34998Z" stroke="black" stroke-width="1.3" stroke-linecap="round" stroke-linejoin="round"/>
</svg>
