<svg width="24" height="24" viewBox="0 0 24 24" fill="none" xmlns="http://www.w3.org/2000/svg">
<path d="M20.7451 16.87C20.7591 17.0095 20.7436 17.1504 20.6997 17.2835C20.6558 17.4166 20.5843 17.539 20.49 17.6427C20.3957 17.7464 20.2807 17.8292 20.1524 17.8856C20.024 17.942 19.8853 17.9707 19.7451 17.97L16.7451 17.53C15.8333 17.94 14.8448 18.1513 13.8451 18.15C13.4489 18.1457 13.054 18.1056 12.6651 18.03C13.4272 17.0642 13.8427 15.8703 13.8451 14.64C13.8451 13.9283 13.7049 13.2235 13.4325 12.5659C13.1601 11.9083 12.7609 11.3108 12.2576 10.8075C11.7543 10.3042 11.1568 9.90499 10.4992 9.63261C9.84165 9.36023 9.13685 9.22003 8.42509 9.22003C7.9298 9.22497 7.43791 9.30246 6.96509 9.45003C7.32467 7.8921 8.20172 6.50205 9.45307 5.50678C10.7044 4.51151 12.2562 3.96978 13.8551 3.97003C14.7857 3.96609 15.7079 4.14564 16.5691 4.49843C17.4302 4.85121 18.2134 5.37031 18.8737 6.02602C19.5341 6.68174 20.0587 7.4612 20.4176 8.31984C20.7764 9.17847 20.9625 10.0994 20.9651 11.03C20.9679 11.9967 20.7704 12.9535 20.3851 13.84L20.7451 16.87Z" stroke="black" stroke-width="1.5" stroke-linecap="round" stroke-linejoin="round"/>
<path d="M13.845 14.66C13.8382 15.8834 13.4228 17.0695 12.665 18.03C12.1521 18.6584 11.5051 19.1641 10.7715 19.5102C10.0379 19.8562 9.23613 20.0338 8.42499 20.03C7.65962 20.0265 6.90344 19.863 6.20499 19.55L3.96499 19.95C3.85246 19.9625 3.73856 19.9487 3.6323 19.9096C3.52603 19.8705 3.43032 19.8072 3.35272 19.7248C3.27512 19.6423 3.21776 19.543 3.18518 19.4345C3.1526 19.3261 3.14569 19.2116 3.16499 19.1L3.47499 16.81C3.18078 16.1316 3.03093 15.3994 3.03499 14.66C3.0336 13.4821 3.41665 12.336 4.12596 11.3957C4.83526 10.4554 5.83207 9.77221 6.96499 9.44999C7.44203 9.30823 7.93734 9.23747 8.43499 9.23999C9.87073 9.24264 11.2468 9.81485 12.261 10.831C13.2753 11.8472 13.845 13.2243 13.845 14.66Z" stroke="black" stroke-width="1.5" stroke-linecap="round" stroke-linejoin="round"/>
</svg>
