<svg width="24" height="24" viewBox="0 0 24 24" fill="none" xmlns="http://www.w3.org/2000/svg">
<path d="M7.3925 12.0842L9.98586 14.6776C10.0771 14.7698 10.1858 14.8431 10.3055 14.8932C10.4252 14.9432 10.5538 14.969 10.6836 14.969C10.8133 14.969 10.9419 14.9432 11.0616 14.8932C11.1814 14.8431 11.29 14.7698 11.3813 14.6776L16.6075 9.45129" stroke="black" stroke-width="1.5" stroke-linecap="round" stroke-linejoin="round"/>
<path d="M16.5839 2.75H7.41611C4.83909 2.75 2.75 4.83909 2.75 7.41611V16.5839C2.75 19.1609 4.83909 21.25 7.41611 21.25H16.5839C19.1609 21.25 21.25 19.1609 21.25 16.5839V7.41611C21.25 4.83909 19.1609 2.75 16.5839 2.75Z" stroke="black" stroke-width="1.5" stroke-linecap="round" stroke-linejoin="round"/>
</svg>
