<svg width="24" height="24" viewBox="0 0 24 24" fill="none" xmlns="http://www.w3.org/2000/svg">
<path d="M13.8221 7.58606L10.1438 11.2644C10.0409 11.367 9.95933 11.4887 9.90365 11.6229C9.84795 11.757 9.81927 11.9008 9.81927 12.046C9.81927 12.1913 9.84795 12.3351 9.90365 12.4692C9.95933 12.6034 10.0409 12.7252 10.1438 12.8277L13.8221 16.4141" stroke="black" stroke-width="1.5" stroke-linecap="round" stroke-linejoin="round"/>
<path d="M16.5839 2.75H7.41611C4.83909 2.75 2.75 4.83909 2.75 7.41611V16.5839C2.75 19.1609 4.83909 21.25 7.41611 21.25H16.5839C19.1609 21.25 21.25 19.1609 21.25 16.5839V7.41611C21.25 4.83909 19.1609 2.75 16.5839 2.75Z" stroke="black" stroke-width="1.5" stroke-linecap="round" stroke-linejoin="round"/>
</svg>
