<svg width="24" height="24" viewBox="0 0 24 24" fill="none" xmlns="http://www.w3.org/2000/svg">
<path d="M10.227 16.2947L13.8059 12.7158C13.906 12.616 13.9854 12.4975 14.0396 12.367C14.0938 12.2365 14.1217 12.0966 14.1217 11.9553C14.1217 11.814 14.0938 11.674 14.0396 11.5435C13.9854 11.413 13.906 11.2945 13.8059 11.1947L10.227 7.70529" stroke="black" stroke-width="1.5" stroke-linecap="round" stroke-linejoin="round"/>
<path d="M16.46 3H7.54C5.03263 3 3 5.03263 3 7.54V16.46C3 18.9674 5.03263 21 7.54 21H16.46C18.9674 21 21 18.9674 21 16.46V7.54C21 5.03263 18.9674 3 16.46 3Z" stroke="black" stroke-width="1.5" stroke-linecap="round" stroke-linejoin="round"/>
</svg>
