<svg width="24" height="24" viewBox="0 0 24 24" fill="none" xmlns="http://www.w3.org/2000/svg">
<path d="M16.414 13.8223L12.7357 10.1439C12.6331 10.0411 12.5113 9.95935 12.3772 9.9037C12.2431 9.848 12.0992 9.81934 11.954 9.81934C11.8087 9.81934 11.665 9.848 11.5308 9.9037C11.3967 9.95935 11.2749 10.0411 11.1723 10.1439L7.58597 13.8223" stroke="black" stroke-width="1.5" stroke-linecap="round" stroke-linejoin="round"/>
<path d="M16.5839 2.75H7.41611C4.83909 2.75 2.75 4.83909 2.75 7.41611V16.5839C2.75 19.1609 4.83909 21.25 7.41611 21.25H16.5839C19.1609 21.25 21.25 19.1609 21.25 16.5839V7.41611C21.25 4.83909 19.1609 2.75 16.5839 2.75Z" stroke="black" stroke-width="1.5" stroke-linecap="round" stroke-linejoin="round"/>
</svg>
