<svg width="24" height="24" viewBox="0 0 24 24" fill="none" xmlns="http://www.w3.org/2000/svg">
<path d="M10.1778 16.4141L13.8561 12.7358C13.959 12.6332 14.0406 12.5114 14.0963 12.3773C14.152 12.2431 14.1806 12.0994 14.1806 11.9541C14.1806 11.8089 14.152 11.665 14.0963 11.5309C14.0406 11.3968 13.959 11.275 13.8561 11.1724L10.1778 7.58606" stroke="black" stroke-width="1.5" stroke-linecap="round" stroke-linejoin="round"/>
<path d="M16.5839 2.75H7.41611C4.83909 2.75 2.75 4.83909 2.75 7.41611V16.5839C2.75 19.1609 4.83909 21.25 7.41611 21.25H16.5839C19.1609 21.25 21.25 19.1609 21.25 16.5839V7.41611C21.25 4.83909 19.1609 2.75 16.5839 2.75Z" stroke="black" stroke-width="1.5" stroke-linecap="round" stroke-linejoin="round"/>
</svg>
