<svg width="24" height="24" viewBox="0 0 24 24" fill="none" xmlns="http://www.w3.org/2000/svg">
<path d="M7.586 10.1777L11.2643 13.856C11.3669 13.9589 11.4887 14.0405 11.6228 14.0962C11.7569 14.1519 11.9007 14.1806 12.046 14.1806C12.1912 14.1806 12.3351 14.1519 12.4692 14.0962C12.6033 14.0405 12.7251 13.9589 12.8277 13.856L16.414 10.1777" stroke="black" stroke-width="1.5" stroke-linecap="round" stroke-linejoin="round"/>
<path d="M16.5839 2.75H7.41611C4.83909 2.75 2.75 4.83909 2.75 7.41611V16.5839C2.75 19.1609 4.83909 21.25 7.41611 21.25H16.5839C19.1609 21.25 21.25 19.1609 21.25 16.5839V7.41611C21.25 4.83909 19.1609 2.75 16.5839 2.75Z" stroke="black" stroke-width="1.5" stroke-linecap="round" stroke-linejoin="round"/>
</svg>
