<svg width="24" height="24" viewBox="0 0 24 24" fill="none" xmlns="http://www.w3.org/2000/svg">
<path d="M16.94 4.69736H17C17.7956 4.69736 18.5587 5.00511 19.1213 5.55291C19.6839 6.10072 20 6.8437 20 7.61841V17.3553C20 18.3882 19.5786 19.3788 18.8284 20.1092C18.0783 20.8397 17.0609 21.25 16 21.25H8C6.93913 21.25 5.92172 20.8397 5.17157 20.1092C4.42143 19.3788 4 18.3882 4 17.3553V7.61841C3.99984 6.85372 4.30766 6.11945 4.85736 5.5733C5.40706 5.02714 6.15479 4.71265 6.94 4.69736" stroke="black" stroke-width="1.5" stroke-linecap="round" stroke-linejoin="round"/>
<path d="M15.94 2.75H7.94C7.38772 2.75 6.94 3.18593 6.94 3.72368V5.67105C6.94 6.2088 7.38772 6.64474 7.94 6.64474H15.94C16.4923 6.64474 16.94 6.2088 16.94 5.67105V3.72368C16.94 3.18593 16.4923 2.75 15.94 2.75Z" stroke="black" stroke-width="1.5" stroke-linecap="round" stroke-linejoin="round"/>
<path d="M8.15308 11.4601H15.8469" stroke="black" stroke-width="1.5" stroke-linecap="round" stroke-linejoin="round"/>
<path d="M8.15308 15.8581H15.8469" stroke="black" stroke-width="1.5" stroke-linecap="round" stroke-linejoin="round"/>
</svg>
