<svg width="24" height="24" viewBox="0 0 24 24" fill="none" xmlns="http://www.w3.org/2000/svg">
<path d="M18.6235 7.03235V18.6235C18.6235 19.2091 18.3909 19.7707 17.9769 20.1847C17.5628 20.5988 17.0012 20.8314 16.4157 20.8314H7.58431C6.99875 20.8314 6.43718 20.5988 6.02313 20.1847C5.60908 19.7707 5.37646 19.2091 5.37646 18.6235V7.03235C5.37646 6.59318 5.55092 6.172 5.86146 5.86146C6.172 5.55092 6.59318 5.37646 7.03235 5.37646H7.58431C7.58431 5.66924 7.70062 5.95003 7.90764 6.15706C8.11467 6.36408 8.39545 6.48039 8.68823 6.48039H15.3118C15.6045 6.48039 15.8853 6.36408 16.0924 6.15706C16.2994 5.95003 16.4157 5.66924 16.4157 5.37646H16.9677C17.4068 5.37646 17.828 5.55092 18.1385 5.86146C18.4491 6.172 18.6235 6.59318 18.6235 7.03235Z" stroke="black" stroke-width="1.5" stroke-linecap="round" stroke-linejoin="round"/>
<path d="M15.3118 3.16862H8.68827C8.07859 3.16862 7.58435 3.66287 7.58435 4.27255V5.37647C7.58435 5.98615 8.07859 6.48039 8.68827 6.48039H15.3118C15.9215 6.48039 16.4157 5.98615 16.4157 5.37647V4.27255C16.4157 3.66287 15.9215 3.16862 15.3118 3.16862Z" stroke="black" stroke-width="1.5" stroke-linecap="round" stroke-linejoin="round"/>
</svg>
