<svg width="24" height="24" viewBox="0 0 24 24" fill="none" xmlns="http://www.w3.org/2000/svg">
<path d="M17.7923 7.68408H10.4281C9.45473 7.68408 8.66565 8.47847 8.66565 9.4584V18.6944C8.66565 19.6743 9.45473 20.4687 10.4281 20.4687H17.7923C18.7657 20.4687 19.5548 19.6743 19.5548 18.6944V9.4584C19.5548 8.47847 18.7657 7.68408 17.7923 7.68408Z" stroke="black" stroke-width="1.5" stroke-linecap="round" stroke-linejoin="round"/>
<path d="M15.3344 7.6841V5.30556C15.3344 4.83499 15.1488 4.38368 14.8182 4.05093C14.4877 3.71819 14.0394 3.53125 13.572 3.53125H6.20777C5.74034 3.53125 5.29205 3.71819 4.96152 4.05093C4.631 4.38368 4.44531 4.83499 4.44531 5.30556V14.5416C4.44531 15.0122 4.631 15.4635 4.96152 15.7962C5.29205 16.129 5.74034 16.3159 6.20777 16.3159H8.66568" stroke="black" stroke-width="1.5" stroke-linecap="round" stroke-linejoin="round"/>
</svg>
