<svg width="24" height="24" viewBox="0 0 24 24" fill="none" xmlns="http://www.w3.org/2000/svg">
<path d="M3.5 9.25648H15.5V17.2522C15.5 17.7772 15.3965 18.297 15.1955 18.7821C14.9945 19.2671 14.6999 19.7078 14.3284 20.0791C13.957 20.4503 13.516 20.7448 13.0307 20.9457C12.5454 21.1466 12.0253 21.25 11.5 21.25H7.5C6.43913 21.25 5.42172 20.8288 4.67157 20.0791C3.92143 19.3293 3.5 18.3125 3.5 17.2522V9.25648Z" stroke="black" stroke-width="1.5" stroke-linecap="round" stroke-linejoin="round"/>
<path d="M15.5 10.2559H18.5C19.0304 10.2559 19.5391 10.4665 19.9142 10.8414C20.2893 11.2163 20.5 11.7247 20.5 12.2549V16.2527C20.5 16.7828 20.2893 17.2913 19.9142 17.6661C19.5391 18.041 19.0304 18.2516 18.5 18.2516H15.37" stroke="black" stroke-width="1.5" stroke-linecap="round" stroke-linejoin="round"/>
<path d="M5.89 6.74784C6.02182 6.61687 6.12644 6.46115 6.19783 6.28962C6.26921 6.11809 6.30596 5.93415 6.30596 5.74838C6.30596 5.56261 6.26921 5.37867 6.19783 5.20714C6.12644 5.03561 6.02182 4.87989 5.89 4.74892C5.75817 4.61795 5.65356 4.46223 5.58217 4.2907C5.51078 4.11917 5.47403 3.93523 5.47403 3.74946C5.47403 3.56369 5.51078 3.37975 5.58217 3.20822C5.65356 3.03669 5.75817 2.88097 5.89 2.75" stroke="black" stroke-width="1.5" stroke-linecap="round" stroke-linejoin="round"/>
<path d="M9.14 6.74784C9.40381 6.48202 9.55183 6.12278 9.55183 5.74838C9.55183 5.37398 9.40381 5.01474 9.14 4.74892C9.00817 4.61795 8.90356 4.46223 8.83217 4.2907C8.76078 4.11917 8.72403 3.93523 8.72403 3.74946C8.72403 3.56369 8.76078 3.37975 8.83217 3.20822C8.90356 3.03669 9.00817 2.88097 9.14 2.75" stroke="black" stroke-width="1.5" stroke-linecap="round" stroke-linejoin="round"/>
<path d="M12.63 6.74784C12.7618 6.61687 12.8664 6.46115 12.9378 6.28962C13.0092 6.11809 13.046 5.93415 13.046 5.74838C13.046 5.56261 13.0092 5.37867 12.9378 5.20714C12.8664 5.03561 12.7618 4.87989 12.63 4.74892C12.4982 4.61795 12.3936 4.46223 12.3222 4.2907C12.2508 4.11917 12.214 3.93523 12.214 3.74946C12.214 3.56369 12.2508 3.37975 12.3222 3.20822C12.3936 3.03669 12.4982 2.88097 12.63 2.75" stroke="black" stroke-width="1.5" stroke-linecap="round" stroke-linejoin="round"/>
</svg>
