<svg width="24" height="24" viewBox="0 0 24 24" fill="none" xmlns="http://www.w3.org/2000/svg">
<path d="M19.91 14.4646C19.4592 15.7735 18.6829 16.9463 17.6541 17.8726C16.6253 18.7989 15.3777 19.4482 14.0288 19.7596C12.6799 20.071 11.274 20.0342 9.94323 19.6526C8.61248 19.271 7.40067 18.5572 6.42177 17.5783C5.44286 16.5994 4.72904 15.3875 4.34744 14.0568C3.96584 12.7261 3.92901 11.3201 4.2404 9.97121C4.55179 8.62231 5.20117 7.37478 6.12747 6.34596C7.05377 5.31714 8.22654 4.54084 9.53548 4.09008C9.69427 4.02988 9.86678 4.01548 10.0334 4.04851C10.1999 4.08155 10.3539 4.16069 10.4777 4.27693C10.6015 4.39317 10.6902 4.54184 10.7336 4.70601C10.7771 4.87018 10.7736 5.04325 10.7235 5.20552C10.2887 6.49943 10.2633 7.89593 10.6509 9.20477C10.9323 10.191 11.4606 11.0891 12.1858 11.8143C12.9109 12.5394 13.8091 13.0677 14.7953 13.3491C16.1041 13.7367 17.5006 13.7114 18.7945 13.2766C18.9568 13.2265 19.1299 13.223 19.294 13.2664C19.4582 13.3099 19.6069 13.3985 19.7231 13.5223C19.8393 13.6461 19.9185 13.8001 19.9515 13.9667C19.9846 14.1333 19.9702 14.3058 19.91 14.4646Z" stroke="black" stroke-width="1.5" stroke-linecap="round" stroke-linejoin="round"/>
</svg>
