<svg width="24" height="24" viewBox="0 0 24 24" fill="none" xmlns="http://www.w3.org/2000/svg">
<path d="M19.6633 4.05048H4.58657C4.28379 4.05048 4.03833 4.29593 4.03833 4.59872V10.0812C4.03833 10.384 4.28379 10.6294 4.58657 10.6294H19.6633C19.9661 10.6294 20.2115 10.384 20.2115 10.0812V4.59872C20.2115 4.29593 19.9661 4.05048 19.6633 4.05048Z" stroke="black" stroke-width="1.5" stroke-linecap="round" stroke-linejoin="round"/>
<path d="M10.069 13.3706H4.58657C4.28379 13.3706 4.03833 13.6161 4.03833 13.9189V19.4013C4.03833 19.7041 4.28379 19.9495 4.58657 19.9495H10.069C10.3718 19.9495 10.6173 19.7041 10.6173 19.4013V13.9189C10.6173 13.6161 10.3718 13.3706 10.069 13.3706Z" stroke="black" stroke-width="1.5" stroke-linecap="round" stroke-linejoin="round"/>
<path d="M19.3892 13.3706H13.9068C13.604 13.3706 13.3585 13.6161 13.3585 13.9189V19.4013C13.3585 19.7041 13.604 19.9495 13.9068 19.9495H19.3892C19.692 19.9495 19.9375 19.7041 19.9375 19.4013V13.9189C19.9375 13.6161 19.692 13.3706 19.3892 13.3706Z" stroke="black" stroke-width="1.5" stroke-linecap="round" stroke-linejoin="round"/>
</svg>
