<svg width="24" height="24" viewBox="0 0 24 24" fill="none" xmlns="http://www.w3.org/2000/svg">
<path d="M14 21L8.75 21C7.1587 21 5.63258 20.3679 4.50736 19.2426C3.38214 18.1174 2.75 16.5913 2.75 15L2.75 8.5C2.75 6.9087 3.38214 5.38258 4.50736 4.25736C5.63258 3.13214 7.1587 2.5 8.75 2.5L15.25 2.5C16.8413 2.5 18.3674 3.13214 19.4926 4.25736C20.6179 5.38258 21.25 6.9087 21.25 8.5L21.25 13.75" stroke="black" stroke-width="1.5" stroke-linecap="round"/>
<path d="M7.5 14.7L9.705 11.766C9.84003 11.5853 10.038 11.4619 10.2597 11.4203C10.4813 11.3786 10.7106 11.4217 10.902 11.541L13.053 12.9C13.2518 13.0266 13.4923 13.0701 13.7228 13.0213C13.9534 12.9725 14.1556 12.8353 14.286 12.639L16.5 9.29999" stroke="black" stroke-width="1.5" stroke-linecap="round" stroke-linejoin="round"/>
<path d="M18.9328 19.6798L20.0159 20.249C20.0617 20.2731 20.1132 20.2838 20.1648 20.28C20.2164 20.2762 20.2658 20.2581 20.3076 20.2275C20.3493 20.197 20.3816 20.1554 20.4009 20.1074C20.4202 20.0595 20.4256 20.0071 20.4165 19.9561L20.2093 18.7514C20.2016 18.707 20.2049 18.6614 20.2188 18.6185C20.2328 18.5757 20.257 18.5369 20.2894 18.5055L21.1653 17.6517C21.2026 17.6159 21.229 17.5703 21.2417 17.5201C21.2543 17.47 21.2526 17.4173 21.2367 17.3681C21.2209 17.3188 21.1916 17.2751 21.1521 17.2417C21.1126 17.2083 21.0645 17.1867 21.0134 17.1792L19.8031 17.0052C19.7589 16.9985 19.7169 16.9812 19.6808 16.9547C19.6447 16.9283 19.6156 16.8934 19.5959 16.8532L19.0433 15.7479C19.0207 15.7012 18.9853 15.6618 18.9413 15.6343C18.8974 15.6067 18.8465 15.5921 18.7946 15.5921C18.7427 15.5921 18.6918 15.6067 18.6479 15.6343C18.6039 15.6618 18.5685 15.7012 18.5459 15.7479L17.9933 16.8532C17.9737 16.8934 17.9445 16.9283 17.9084 16.9547C17.8723 16.9812 17.8303 16.9985 17.7861 17.0052L16.5924 17.1792C16.541 17.1862 16.4926 17.2075 16.4528 17.2408C16.4129 17.274 16.3832 17.3177 16.3671 17.367C16.3509 17.4163 16.349 17.4692 16.3615 17.5195C16.374 17.5699 16.4004 17.6157 16.4377 17.6517L17.3136 18.5055C17.346 18.5369 17.3702 18.5757 17.3842 18.6185C17.3982 18.6614 17.4014 18.707 17.3937 18.7514L17.1865 19.9561C17.1774 20.0071 17.1829 20.0595 17.2021 20.1074C17.2214 20.1554 17.2537 20.197 17.2955 20.2275C17.3372 20.2581 17.3867 20.2762 17.4382 20.28C17.4898 20.2838 17.5414 20.2731 17.5871 20.249L18.6703 19.6798C18.7106 19.6581 18.7557 19.6467 18.8015 19.6467C18.8473 19.6467 18.8924 19.6581 18.9328 19.6798Z" stroke="black" stroke-width="1.5" stroke-linecap="round" stroke-linejoin="round"/>
</svg>
