<svg width="24" height="24" viewBox="0 0 24 24" fill="none" xmlns="http://www.w3.org/2000/svg">
<path d="M18.9375 14.3153V17.7815C18.9351 18.1847 18.8271 18.5803 18.6242 18.929C18.4214 19.2776 18.1308 19.5671 17.7812 19.7687C16.0247 20.7781 14.0258 21.2895 12 21.2476C9.97306 21.286 7.97411 20.7706 6.21875 19.7572C5.87092 19.5565 5.58138 19.2688 5.37864 18.9224C5.1759 18.576 5.06694 18.1828 5.0625 17.7815V14.3153C7.00634 15.922 9.48021 16.746 12 16.6261C14.5198 16.746 16.9937 15.922 18.9375 14.3153Z" stroke="black" stroke-width="1.5" stroke-linecap="round" stroke-linejoin="round"/>
<path d="M18.9375 14.3153V9.69379C16.9937 11.3004 14.5198 12.1244 12 12.0046C9.48021 12.1244 7.00634 11.3004 5.0625 9.69379V14.3153" stroke="black" stroke-width="1.5" stroke-linecap="round" stroke-linejoin="round"/>
<path d="M18.9375 5.07223C16.9937 3.46558 14.5198 2.64157 12 2.76146C9.48021 2.64157 7.00634 3.46558 5.0625 5.07223" stroke="black" stroke-width="1.5" stroke-linecap="round" stroke-linejoin="round"/>
<path d="M18.9375 9.68923V5.06769C16.9937 6.67434 14.5198 7.49835 12 7.37846C9.48021 7.49835 7.00634 6.67434 5.0625 5.06769V9.68923" stroke="black" stroke-width="1.5" stroke-linecap="round" stroke-linejoin="round"/>
</svg>
