<svg width="24" height="24" viewBox="0 0 24 24" fill="none" xmlns="http://www.w3.org/2000/svg">
<path d="M19.1573 12.0047V16.7762C19.1548 17.1926 19.0434 17.601 18.8341 17.961C18.6249 18.3209 18.325 18.6198 17.9645 18.828C16.1523 19.8702 14.0901 20.3981 12.0001 20.3549C9.90891 20.3945 7.84663 19.8624 6.03565 18.8161C5.67681 18.6089 5.3781 18.3119 5.16893 17.9542C4.95976 17.5965 4.84736 17.1905 4.84277 16.7762V12.0047C6.8482 13.6635 9.40045 14.5142 12.0001 14.3905C14.5997 14.5142 17.1519 13.6635 19.1573 12.0047Z" stroke="black" stroke-width="1.5" stroke-linecap="round" stroke-linejoin="round"/>
<path d="M19.1573 6.0403C17.1519 7.69909 14.5997 8.54984 12.0001 8.42606C9.40045 8.54984 6.8482 7.69909 4.84277 6.0403C6.8482 4.3815 9.40045 3.53075 12.0001 3.65453C14.5997 3.53075 17.1519 4.3815 19.1573 6.0403Z" stroke="black" stroke-width="1.5" stroke-linecap="round" stroke-linejoin="round"/>
<path d="M19.1573 6.04028V12.0047C17.1519 13.6635 14.5997 14.5142 12.0001 14.3905C9.40045 14.5142 6.8482 13.6635 4.84277 12.0047V6.04028C6.8482 7.69908 9.40045 8.54983 12.0001 8.42605C14.5997 8.54983 17.1519 7.69908 19.1573 6.04028Z" stroke="black" stroke-width="1.5" stroke-linecap="round" stroke-linejoin="round"/>
</svg>
