<svg width="24" height="24" viewBox="0 0 24 24" fill="none" xmlns="http://www.w3.org/2000/svg">
<path d="M6.71997 4.19H5.71997C4.89154 4.19 4.21997 4.86158 4.21997 5.69V12.69C4.21997 13.5184 4.89154 14.19 5.71997 14.19H6.71997C7.5484 14.19 8.21997 13.5184 8.21997 12.69V5.69C8.21997 4.86158 7.5484 4.19 6.71997 4.19Z" stroke="black" stroke-width="1.5" stroke-linecap="round" stroke-linejoin="round"/>
<path d="M19.74 11.8L18.54 5.8C18.4485 5.33961 18.1981 4.92605 17.8324 4.63171C17.4668 4.33737 17.0093 4.18101 16.54 4.19H10.22C9.68954 4.19 9.18083 4.40072 8.80576 4.77579C8.43068 5.15087 8.21997 5.65957 8.21997 6.19V12.19C8.23604 12.5751 8.33346 12.9524 8.50581 13.2971C8.67817 13.6418 8.92156 13.9461 9.21997 14.19L10.05 19.19C10.0687 19.3066 10.1147 19.4172 10.1842 19.5127C10.2538 19.6082 10.3449 19.6859 10.4501 19.7396C10.5554 19.7932 10.6719 19.8211 10.79 19.8212C10.9081 19.8213 11.0246 19.7935 11.13 19.74L12.06 19.28C12.6744 18.9762 13.1663 18.4712 13.4537 17.8489C13.7412 17.2267 13.8069 16.5248 13.64 15.86L13.22 14.2H17.78C18.0766 14.2001 18.3695 14.1342 18.6375 14.007C18.9055 13.8799 19.1418 13.6948 19.3294 13.4651C19.5171 13.2353 19.6512 12.9668 19.7222 12.6788C19.7932 12.3908 19.7993 12.0906 19.74 11.8Z" stroke="black" stroke-width="1.5" stroke-linecap="round" stroke-linejoin="round"/>
</svg>
