<svg width="24" height="24" viewBox="0 0 24 24" fill="none" xmlns="http://www.w3.org/2000/svg">
<path d="M12 5.92C12.5302 5.92 12.96 5.49019 12.96 4.96C12.96 4.42981 12.5302 4 12 4C11.4698 4 11.04 4.42981 11.04 4.96C11.04 5.49019 11.4698 5.92 12 5.92Z" stroke="black" stroke-width="1.5" stroke-linecap="round" stroke-linejoin="round"/>
<path d="M12 12.96C12.5302 12.96 12.96 12.5302 12.96 12C12.96 11.4698 12.5302 11.04 12 11.04C11.4698 11.04 11.04 11.4698 11.04 12C11.04 12.5302 11.4698 12.96 12 12.96Z" stroke="black" stroke-width="1.5" stroke-linecap="round" stroke-linejoin="round"/>
<path d="M12 20C12.5302 20 12.96 19.5702 12.96 19.04C12.96 18.5098 12.5302 18.08 12 18.08C11.4698 18.08 11.04 18.5098 11.04 19.04C11.04 19.5702 11.4698 20 12 20Z" stroke="black" stroke-width="1.5" stroke-linecap="round" stroke-linejoin="round"/>
</svg>
