<svg width="24" height="24" viewBox="0 0 24 24" fill="none" xmlns="http://www.w3.org/2000/svg">
<path d="M21.25 16.5839L21.25 7.41611C21.25 4.83909 19.1609 2.75 16.5839 2.75L7.41611 2.75C4.83906 2.75 2.75 4.83909 2.75 7.41611L2.75 16.5839C2.75 19.1609 4.83906 21.25 7.41611 21.25L16.5839 21.25C19.1609 21.25 21.25 19.1609 21.25 16.5839Z" stroke="black" stroke-width="1.5" stroke-linecap="round" stroke-linejoin="round"/>
<path d="M16.1515 12C16.1515 12.362 16.445 12.6555 16.807 12.6555C17.169 12.6555 17.4625 12.362 17.4625 12C17.4625 11.638 17.169 11.3445 16.807 11.3445C16.445 11.3445 16.1515 11.638 16.1515 12Z" stroke="black" stroke-width="1.5" stroke-linecap="round" stroke-linejoin="round"/>
<path d="M11.3445 12C11.3445 12.362 11.6379 12.6555 11.9999 12.6555C12.362 12.6555 12.6554 12.362 12.6554 12C12.6554 11.638 12.362 11.3445 11.9999 11.3445C11.6379 11.3445 11.3445 11.638 11.3445 12Z" stroke="black" stroke-width="1.5" stroke-linecap="round" stroke-linejoin="round"/>
<path d="M6.53754 12C6.53754 12.362 6.83103 12.6555 7.19303 12.6555C7.55504 12.6555 7.84853 12.362 7.84853 12C7.84853 11.638 7.55504 11.3445 7.19303 11.3445C6.83103 11.3445 6.53754 11.638 6.53754 12Z" stroke="black" stroke-width="1.5" stroke-linecap="round" stroke-linejoin="round"/>
</svg>
