<svg width="24" height="24" viewBox="0 0 24 24" fill="none" xmlns="http://www.w3.org/2000/svg">
<path d="M16.5839 2.75H7.41611C4.83909 2.75 2.75 4.83909 2.75 7.41611V16.5839C2.75 19.1609 4.83909 21.25 7.41611 21.25H16.5839C19.1609 21.25 21.25 19.1609 21.25 16.5839V7.41611C21.25 4.83909 19.1609 2.75 16.5839 2.75Z" stroke="black" stroke-width="1.5" stroke-linecap="round" stroke-linejoin="round"/>
<path d="M12 7.84858C12.362 7.84858 12.6555 7.55511 12.6555 7.19309C12.6555 6.83107 12.362 6.5376 12 6.5376C11.638 6.5376 11.3445 6.83107 11.3445 7.19309C11.3445 7.55511 11.638 7.84858 12 7.84858Z" stroke="black" stroke-width="1.5" stroke-linecap="round" stroke-linejoin="round"/>
<path d="M12 12.6555C12.362 12.6555 12.6555 12.362 12.6555 12C12.6555 11.638 12.362 11.3445 12 11.3445C11.638 11.3445 11.3445 11.638 11.3445 12C11.3445 12.362 11.638 12.6555 12 12.6555Z" stroke="black" stroke-width="1.5" stroke-linecap="round" stroke-linejoin="round"/>
<path d="M12 17.4625C12.362 17.4625 12.6555 17.169 12.6555 16.807C12.6555 16.445 12.362 16.1515 12 16.1515C11.638 16.1515 11.3445 16.445 11.3445 16.807C11.3445 17.169 11.638 17.4625 12 17.4625Z" stroke="black" stroke-width="1.5" stroke-linecap="round" stroke-linejoin="round"/>
</svg>
