<svg width="24" height="24" viewBox="0 0 24 24" fill="none" xmlns="http://www.w3.org/2000/svg">
<path d="M17.8009 11.153V18.114C17.8024 18.379 17.7512 18.6416 17.6502 18.8866C17.5491 19.1316 17.4003 19.354 17.2124 19.5408C17.0245 19.7276 16.8012 19.8752 16.5557 19.9748C16.3101 20.0744 16.0472 20.1242 15.7822 20.1211H5.8976C5.63164 20.1242 5.36775 20.0741 5.12142 19.9737C4.8751 19.8734 4.65132 19.7248 4.46325 19.5367C4.27517 19.3487 4.12659 19.1249 4.02625 18.8786C3.9259 18.6322 3.87581 18.3684 3.87892 18.1024V8.2178C3.87581 7.95184 3.9259 7.68794 4.02625 7.44161C4.12659 7.19529 4.27517 6.97151 4.46325 6.78344C4.65132 6.59536 4.8751 6.44678 5.12142 6.34644C5.36775 6.24609 5.63164 6.196 5.8976 6.19911H12.8586" stroke="black" stroke-width="1.5" stroke-linecap="round" stroke-linejoin="round"/>
<path d="M20.1212 3.87878L10.8398 13.1601" stroke="black" stroke-width="1.5" stroke-linecap="round" stroke-linejoin="round"/>
<path d="M15.4806 3.87878H20.1212V8.51944" stroke="black" stroke-width="1.5" stroke-linecap="round" stroke-linejoin="round"/>
</svg>
