<svg width="24" height="24" viewBox="0 0 24 24" fill="none" xmlns="http://www.w3.org/2000/svg">
<path d="M3.26999 12.63C3.17591 12.4333 3.12708 12.218 3.12708 12C3.12708 11.782 3.17591 11.5667 3.26999 11.37C4.0453 9.72292 5.28409 8.33768 6.83466 7.38389C8.38522 6.43011 10.1803 5.94918 12 6C13.8197 5.94918 15.6148 6.43011 17.1653 7.38389C18.7159 8.33768 19.9547 9.72292 20.73 11.37C20.8241 11.5667 20.8729 11.782 20.8729 12C20.8729 12.218 20.8241 12.4333 20.73 12.63C19.9547 14.2771 18.7159 15.6623 17.1653 16.6161C15.6148 17.5699 13.8197 18.0508 12 18C10.1803 18.0508 8.38522 17.5699 6.83466 16.6161C5.28409 15.6623 4.0453 14.2771 3.26999 12.63Z" stroke="black" stroke-width="1.5" stroke-linecap="round" stroke-linejoin="round"/>
<path d="M12 14.8994C13.6013 14.8994 14.8994 13.6013 14.8994 12C14.8994 10.3987 13.6013 9.1006 12 9.1006C10.3987 9.1006 9.10059 10.3987 9.10059 12C9.10059 13.6013 10.3987 14.8994 12 14.8994Z" stroke="black" stroke-width="1.5" stroke-linecap="round" stroke-linejoin="round"/>
</svg>
