<svg width="24" height="24" viewBox="0 0 24 24" fill="none" xmlns="http://www.w3.org/2000/svg">
<path d="M2.89899 12.6568C2.80091 12.4517 2.75 12.2273 2.75 12C2.75 11.7727 2.80091 11.5483 2.89899 11.3432C3.70725 9.62615 4.99868 8.18204 6.61515 7.18772C8.23161 6.1934 10.1029 5.69203 12 5.74502C13.8971 5.69203 15.7684 6.1934 17.3849 7.18772C19.0013 8.18204 20.2928 9.62615 21.101 11.3432C21.1991 11.5483 21.25 11.7727 21.25 12C21.25 12.2273 21.1991 12.4517 21.101 12.6568C20.2928 14.3739 19.0013 15.818 17.3849 16.8123C15.7684 17.8066 13.8971 18.308 12 18.255C10.1029 18.308 8.23161 17.8066 6.61515 16.8123C4.99868 15.818 3.70725 14.3739 2.89899 12.6568Z" stroke="black" stroke-width="1.5" stroke-linecap="round" stroke-linejoin="round"/>
<path d="M12 15.0226C13.6693 15.0226 15.0226 13.6693 15.0226 12C15.0226 10.3307 13.6693 8.97739 12 8.97739C10.3306 8.97739 8.97734 10.3307 8.97734 12C8.97734 13.6693 10.3306 15.0226 12 15.0226Z" stroke="black" stroke-width="1.5" stroke-linecap="round" stroke-linejoin="round"/>
</svg>
