<svg width="24" height="24" viewBox="0 0 24 24" fill="none" xmlns="http://www.w3.org/2000/svg">
<path d="M4.27515 7.41173V16.5883C4.27925 16.8135 4.34694 17.033 4.47039 17.2214C4.59384 17.4098 4.76804 17.5595 4.97288 17.6532C5.17773 17.7468 5.40488 17.7807 5.62814 17.7509C5.85141 17.721 6.06169 17.6287 6.23473 17.4845L11.5877 12.9081C11.7189 12.796 11.8242 12.6567 11.8964 12.4999C11.9687 12.3432 12.006 12.1726 12.006 12C12.006 11.8274 11.9687 11.6569 11.8964 11.5001C11.8242 11.3434 11.7189 11.2041 11.5877 11.0919L6.23473 6.51558C6.06169 6.37138 5.85141 6.27903 5.62814 6.24918C5.40488 6.21934 5.17773 6.25321 4.97288 6.34689C4.76804 6.44056 4.59384 6.59024 4.47039 6.77864C4.34694 6.96705 4.27925 7.18651 4.27515 7.41173Z" stroke="black" stroke-width="1.5" stroke-linecap="round" stroke-linejoin="round"/>
<path d="M12.0059 7.41173V16.5883C12.01 16.8135 12.0777 17.033 12.2011 17.2214C12.3246 17.4098 12.4987 17.5595 12.7036 17.6532C12.9084 17.7468 13.1356 17.7807 13.3589 17.7509C13.5821 17.721 13.7924 17.6287 13.9654 17.4845L19.3065 12.9081C19.4377 12.796 19.543 12.6567 19.6152 12.4999C19.6874 12.3432 19.7248 12.1726 19.7248 12C19.7248 11.8274 19.6874 11.6569 19.6152 11.5001C19.543 11.3434 19.4377 11.2041 19.3065 11.0919L13.9654 6.51558C13.7924 6.37138 13.5821 6.27903 13.3589 6.24918C13.1356 6.21934 12.9084 6.25321 12.7036 6.34689C12.4987 6.44056 12.3246 6.59024 12.2011 6.77864C12.0777 6.96705 12.01 7.18651 12.0059 7.41173Z" stroke="black" stroke-width="1.5" stroke-linecap="round" stroke-linejoin="round"/>
</svg>
