<svg width="24" height="24" viewBox="0 0 24 24" fill="none" xmlns="http://www.w3.org/2000/svg">
<path d="M19.7249 16.5883L19.7249 7.41168C19.7207 7.18647 19.6531 6.967 19.5296 6.7786C19.4062 6.59019 19.232 6.44052 19.0271 6.34684C18.8223 6.25316 18.5951 6.21929 18.3719 6.24914C18.1486 6.27898 17.9383 6.37133 17.7653 6.51553L12.4123 11.0919C12.2811 11.204 12.1758 11.3433 12.1036 11.5001C12.0313 11.6568 11.994 11.8274 11.994 12C11.994 12.1726 12.0313 12.3431 12.1036 12.4999C12.1758 12.6566 12.2811 12.7959 12.4123 12.9081L17.7653 17.4844C17.9383 17.6286 18.1486 17.721 18.3719 17.7508C18.5951 17.7807 18.8223 17.7468 19.0271 17.6531C19.232 17.5594 19.4062 17.4098 19.5296 17.2214C19.6531 17.0329 19.7207 16.8135 19.7249 16.5883Z" stroke="black" stroke-width="1.5" stroke-linecap="round" stroke-linejoin="round"/>
<path d="M11.9941 16.5883L11.9941 7.41168C11.99 7.18647 11.9224 6.967 11.7989 6.7786C11.6754 6.59019 11.5013 6.44052 11.2964 6.34684C11.0916 6.25316 10.8644 6.21929 10.6411 6.24914C10.4179 6.27898 10.2076 6.37133 10.0346 6.51553L4.69349 11.0919C4.56232 11.204 4.45701 11.3433 4.3848 11.5001C4.31259 11.6568 4.2752 11.8274 4.2752 12C4.2752 12.1726 4.31259 12.3431 4.3848 12.4999C4.45701 12.6566 4.56232 12.7959 4.69349 12.9081L10.0346 17.4844C10.2076 17.6286 10.4179 17.721 10.6411 17.7508C10.8644 17.7807 11.0916 17.7468 11.2964 17.6531C11.5013 17.5594 11.6754 17.4098 11.7989 17.2214C11.9223 17.0329 11.99 16.8135 11.9941 16.5883Z" stroke="black" stroke-width="1.5" stroke-linecap="round" stroke-linejoin="round"/>
</svg>
