<svg width="24" height="24" viewBox="0 0 24 24" fill="none" xmlns="http://www.w3.org/2000/svg">
<path d="M19 8.5V19C19 19.3978 18.842 19.7794 18.5607 20.0607C18.2794 20.342 17.8978 20.5 17.5 20.5H6.5C6.10218 20.5 5.72064 20.342 5.43934 20.0607C5.15803 19.7794 5 19.3978 5 19V5C5 4.60218 5.15803 4.22064 5.43934 3.93934C5.72064 3.65804 6.10218 3.5 6.5 3.5H14L19 8.5Z" stroke="black" stroke-width="1.5" stroke-linecap="round" stroke-linejoin="round"/>
<path d="M19 8.5H14V3.5L19 8.5Z" stroke="black" stroke-width="1.5" stroke-linecap="round" stroke-linejoin="round"/>
<path d="M12 16.8451L12 10.6205" stroke="black" stroke-width="1.5" stroke-miterlimit="10" stroke-linecap="round"/>
<path d="M9.14551 14.2247L11.5947 16.6739C11.6478 16.7274 11.7109 16.7698 11.7805 16.7988C11.85 16.8278 11.9247 16.8427 12 16.8427C12.0754 16.8427 12.15 16.8278 12.2196 16.7988C12.2892 16.7698 12.3523 16.7274 12.4053 16.6739L14.8545 14.2247" stroke="black" stroke-width="1.5" stroke-linecap="round" stroke-linejoin="round"/>
</svg>
