<svg width="24" height="24" viewBox="0 0 24 24" fill="none" xmlns="http://www.w3.org/2000/svg">
<path d="M19 8.5V19C19 19.3978 18.842 19.7794 18.5607 20.0607C18.2794 20.342 17.8978 20.5 17.5 20.5H6.5C6.10218 20.5 5.72064 20.342 5.43934 20.0607C5.15803 19.7794 5 19.3978 5 19V5C5 4.60218 5.15803 4.22064 5.43934 3.93934C5.72064 3.65804 6.10218 3.5 6.5 3.5H14L19 8.5Z" stroke="black" stroke-width="1.5" stroke-linecap="round" stroke-linejoin="round"/>
<path d="M19 8.5H14V3.5L19 8.5Z" stroke="black" stroke-width="1.5" stroke-linecap="round" stroke-linejoin="round"/>
<path d="M8.65454 13.5459L10.3813 15.2727C10.442 15.3341 10.5144 15.383 10.5941 15.4162C10.6739 15.4496 10.7594 15.4667 10.8459 15.4667C10.9323 15.4667 11.0179 15.4496 11.0976 15.4162C11.1773 15.383 11.2497 15.3341 11.3104 15.2727L14.7902 11.7928" stroke="black" stroke-width="1.5" stroke-linecap="round" stroke-linejoin="round"/>
</svg>
