<svg width="24" height="24" viewBox="0 0 24 24" fill="none" xmlns="http://www.w3.org/2000/svg">
<path d="M18.75 8.75V19.25C18.75 19.6478 18.592 20.0294 18.3107 20.3107C18.0294 20.592 17.6478 20.75 17.25 20.75H6.25C5.85218 20.75 5.47064 20.592 5.18934 20.3107C4.90804 20.0294 4.75 19.6478 4.75 19.25V5.25C4.75 4.85218 4.90804 4.47064 5.18934 4.18934C5.47064 3.90804 5.85218 3.75 6.25 3.75H13.75L18.75 8.75Z" stroke="black" stroke-width="1.5" stroke-linecap="round" stroke-linejoin="round"/>
<path d="M18.75 8.75H13.75V3.75L18.75 8.75Z" stroke="black" stroke-width="1.5" stroke-linecap="round" stroke-linejoin="round"/>
<path d="M7.75 8.25H10.75" stroke="black" stroke-width="1.5" stroke-linecap="round" stroke-linejoin="round"/>
<path d="M7.75 12.25H15.75" stroke="black" stroke-width="1.5" stroke-linecap="round" stroke-linejoin="round"/>
<path d="M7.75 16.25H15.75" stroke="black" stroke-width="1.5" stroke-linecap="round" stroke-linejoin="round"/>
</svg>
