<svg width="24" height="24" viewBox="0 0 24 24" fill="none" xmlns="http://www.w3.org/2000/svg">
<path d="M19 8.5V19C19 19.3978 18.842 19.7794 18.5607 20.0607C18.2794 20.342 17.8978 20.5 17.5 20.5H6.5C6.10218 20.5 5.72064 20.342 5.43934 20.0607C5.15803 19.7794 5 19.3978 5 19V5C5 4.60218 5.15803 4.22064 5.43934 3.93934C5.72064 3.65804 6.10218 3.5 6.5 3.5H14L19 8.5Z" stroke="black" stroke-width="1.5" stroke-linecap="round" stroke-linejoin="round"/>
<path d="M19 8.5H14V3.5L19 8.5Z" stroke="black" stroke-width="1.5" stroke-linecap="round" stroke-linejoin="round"/>
<path d="M12 10.6205L12 16.8452" stroke="black" stroke-width="1.5" stroke-miterlimit="10" stroke-linecap="round"/>
<path d="M14.8545 13.241L12.4053 10.7918C12.3522 10.7383 12.2891 10.6958 12.2195 10.6668C12.15 10.6378 12.0753 10.6229 12 10.6229C11.9246 10.6229 11.85 10.6378 11.7804 10.6668C11.7108 10.6958 11.6477 10.7383 11.5947 10.7918L9.14545 13.241" stroke="black" stroke-width="1.5" stroke-linecap="round" stroke-linejoin="round"/>
</svg>
