<svg width="24" height="24" viewBox="0 0 24 24" fill="none" xmlns="http://www.w3.org/2000/svg">
<path d="M14.5106 11.5129L9.47856 16.5449" stroke="black" stroke-width="1.5" stroke-miterlimit="10" stroke-linecap="round"/>
<path d="M9.47854 11.5238L14.5105 16.5558" stroke="black" stroke-width="1.5" stroke-miterlimit="10" stroke-linecap="round"/>
<path d="M14.1789 2.75V6.34722C14.1789 6.83514 14.3727 7.30309 14.7177 7.6481C15.0627 7.99311 15.5307 8.18694 16.0186 8.18694H19.5953" stroke="black" stroke-width="1.5" stroke-linecap="round" stroke-linejoin="round"/>
<path d="M19.6158 8.56723V18.1667C19.6158 18.9844 19.291 19.7687 18.7127 20.3469C18.1345 20.9251 17.3502 21.25 16.5325 21.25H7.46749C6.64974 21.25 5.86549 20.9251 5.28725 20.3469C4.70901 19.7687 4.38416 18.9844 4.38416 18.1667V5.83334C4.38416 5.01559 4.70901 4.23133 5.28725 3.6531C5.86549 3.07486 6.64974 2.75001 7.46749 2.75001H13.7986C14.2051 2.74901 14.6078 2.82841 14.9835 2.98363C15.3592 3.13885 15.7005 3.36683 15.9878 3.65445L18.7114 6.37806C18.999 6.66533 19.227 7.00663 19.3822 7.38233C19.5374 7.75804 19.6168 8.16072 19.6158 8.56723Z" stroke="black" stroke-width="1.5" stroke-linecap="round" stroke-linejoin="round"/>
</svg>
