<svg width="24" height="24" viewBox="0 0 24 24" fill="none" xmlns="http://www.w3.org/2000/svg">
<path d="M19 8.5V19C19 19.3978 18.842 19.7794 18.5607 20.0607C18.2794 20.342 17.8978 20.5 17.5 20.5H6.5C6.10218 20.5 5.72064 20.342 5.43934 20.0607C5.15803 19.7794 5 19.3978 5 19V5C5 4.60218 5.15803 4.22064 5.43934 3.93934C5.72064 3.65804 6.10218 3.5 6.5 3.5H14L19 8.5Z" stroke="black" stroke-width="1.5" stroke-linecap="round" stroke-linejoin="round"/>
<path d="M19 8.5H14V3.5L19 8.5Z" stroke="black" stroke-width="1.5" stroke-linecap="round" stroke-linejoin="round"/>
<path d="M10.0358 11.5222C10.1921 11.1813 10.4576 10.9022 10.7903 10.7292C11.1231 10.5562 11.504 10.4991 11.8728 10.5669C12.1255 10.6057 12.3656 10.7032 12.5737 10.8515C12.7819 10.9999 12.9524 11.195 13.0715 11.4212C13.1573 11.6021 13.2038 11.7991 13.208 11.9992C13.2122 12.1994 13.174 12.3982 13.0959 12.5825C13.0179 12.7669 12.9017 12.9326 12.755 13.0689C12.6083 13.2051 12.4345 13.3088 12.2449 13.373C12.0514 13.4464 11.8841 13.5755 11.764 13.7438C11.6438 13.9122 11.5762 14.1124 11.5697 14.3192V14.7095" stroke="black" stroke-width="1.5" stroke-miterlimit="10" stroke-linecap="round"/>
<path d="M11.5394 16.8654H11.5438" stroke="black" stroke-width="1.5" stroke-linecap="round" stroke-linejoin="round"/>
</svg>
