<svg width="24" height="24" viewBox="0 0 24 24" fill="none" xmlns="http://www.w3.org/2000/svg">
<path d="M9.86247 11.4801C10.0326 11.1091 10.3215 10.8054 10.6836 10.6171C11.0457 10.4288 11.4602 10.3667 11.8616 10.4405C12.1366 10.4827 12.3979 10.5888 12.6244 10.7502C12.8509 10.9117 13.0365 11.124 13.1661 11.3701C13.2594 11.567 13.31 11.7814 13.3146 11.9992C13.3192 12.217 13.2776 12.4334 13.1926 12.634C13.1077 12.8346 12.9813 13.0149 12.8216 13.1632C12.662 13.3115 12.4728 13.4243 12.2665 13.4942C12.056 13.5741 11.8739 13.7145 11.7432 13.8977C11.6124 14.0809 11.5388 14.2988 11.5318 14.5238V14.9486" stroke="black" stroke-width="1.5" stroke-miterlimit="10" stroke-linecap="round"/>
<path d="M11.4988 17.2947H11.5032" stroke="black" stroke-width="1.5" stroke-linecap="round" stroke-linejoin="round"/>
<path d="M14.1789 2.75V6.34722C14.1789 6.83514 14.3727 7.30309 14.7177 7.6481C15.0627 7.99311 15.5307 8.18694 16.0186 8.18694H19.5953" stroke="black" stroke-width="1.5" stroke-linecap="round" stroke-linejoin="round"/>
<path d="M19.6158 8.56723V18.1667C19.6158 18.9844 19.291 19.7687 18.7127 20.3469C18.1345 20.9251 17.3502 21.25 16.5325 21.25H7.4675C6.64975 21.25 5.86549 20.9251 5.28725 20.3469C4.70902 19.7687 4.38417 18.9844 4.38417 18.1667V5.83334C4.38417 5.01559 4.70902 4.23133 5.28725 3.6531C5.86549 3.07486 6.64975 2.75001 7.4675 2.75001H13.7986C14.2051 2.74901 14.6078 2.82841 14.9835 2.98363C15.3592 3.13885 15.7005 3.36683 15.9878 3.65445L18.7114 6.37806C18.999 6.66533 19.227 7.00663 19.3822 7.38233C19.5374 7.75804 19.6168 8.16072 19.6158 8.56723Z" stroke="black" stroke-width="1.5" stroke-linecap="round" stroke-linejoin="round"/>
</svg>
