<svg width="24" height="24" viewBox="0 0 24 24" fill="none" xmlns="http://www.w3.org/2000/svg">
<path d="M7.75049 6.15675C7.75049 5.60441 7.30273 5.15665 6.7504 5.15665H3.7501C3.19776 5.15665 2.75 5.60441 2.75 6.15675V18.1579C2.75 18.7103 3.19776 19.158 3.7501 19.158H6.7504C7.30273 19.158 7.75049 18.7103 7.75049 18.1579" stroke="black" stroke-width="1.5" stroke-linecap="round" stroke-linejoin="round"/>
<path d="M11.7509 5.15665H8.75059C8.19825 5.15665 7.75049 5.60441 7.75049 6.15675V18.1579C7.75049 18.7103 8.19825 19.158 8.75059 19.158H11.7509C12.3032 19.158 12.751 18.7103 12.751 18.1579V6.15675C12.751 5.60441 12.3032 5.15665 11.7509 5.15665Z" stroke="black" stroke-width="1.5" stroke-linecap="round" stroke-linejoin="round"/>
<path d="M16.6139 4.85089L13.7185 5.63753C13.1855 5.78235 12.8708 6.33185 13.0156 6.86486L16.1622 18.4462C16.307 18.9792 16.8565 19.2939 17.3896 19.1491L20.2849 18.3625C20.8179 18.2176 21.1326 17.6681 20.9878 17.1351L17.8412 5.55379C17.6964 5.02077 17.1469 4.70607 16.6139 4.85089Z" stroke="black" stroke-width="1.5" stroke-linecap="round" stroke-linejoin="round"/>
<path d="M10.2507 16.1578V15.1577" stroke="black" stroke-width="1.5" stroke-linecap="round" stroke-linejoin="round"/>
<path d="M18.0515 15.8562L17.7915 14.8961" stroke="black" stroke-width="1.5" stroke-linecap="round" stroke-linejoin="round"/>
<path d="M5.25025 16.1578V15.1577" stroke="black" stroke-width="1.5" stroke-linecap="round" stroke-linejoin="round"/>
</svg>
