<svg width="24" height="24" viewBox="0 0 24 24" fill="none" xmlns="http://www.w3.org/2000/svg">
<path d="M18.7899 5.39087L14.3699 12.2309C14.2049 12.4872 14.118 12.786 14.1199 13.0909V17.2609C14.1188 17.4582 14.063 17.6514 13.9589 17.8191C13.8548 17.9867 13.7063 18.1223 13.5299 18.2109L10.3399 19.8009C10.2921 19.8273 10.2381 19.8407 10.1834 19.8396C10.1287 19.8384 10.0753 19.8229 10.0286 19.7944C9.98191 19.766 9.94355 19.7257 9.91744 19.6777C9.89132 19.6296 9.87838 19.5755 9.87993 19.5209V13.0909C9.88186 12.786 9.79499 12.4872 9.62993 12.2309L5.20993 5.39087C5.14391 5.25901 5.11334 5.11224 5.12121 4.96499C5.12907 4.81774 5.17511 4.67506 5.2548 4.55099C5.33449 4.42691 5.44509 4.3257 5.57573 4.25731C5.70637 4.18891 5.85256 4.15567 5.99993 4.16087H17.9999C18.1473 4.15567 18.2935 4.18891 18.4241 4.25731C18.5548 4.3257 18.6654 4.42691 18.7451 4.55099C18.8247 4.67506 18.8708 4.81774 18.8787 4.96499C18.8865 5.11224 18.8559 5.25901 18.7899 5.39087Z" stroke="black" stroke-width="1.5" stroke-miterlimit="10" stroke-linecap="round"/>
</svg>
