<svg width="24" height="24" viewBox="0 0 24 24" fill="none" xmlns="http://www.w3.org/2000/svg">
<path d="M20.0243 12H9.30615" stroke="black" stroke-width="1.5" stroke-miterlimit="10" stroke-linecap="round"/>
<path d="M5.52325 12H3.97571" stroke="black" stroke-width="1.5" stroke-miterlimit="10" stroke-linecap="round"/>
<path d="M20.0243 17.7316H15.0377" stroke="black" stroke-width="1.5" stroke-miterlimit="10" stroke-linecap="round"/>
<path d="M11.2549 17.7316H3.97571" stroke="black" stroke-width="1.5" stroke-miterlimit="10" stroke-linecap="round"/>
<path d="M20.0243 6.26837H17.3304" stroke="black" stroke-width="1.5" stroke-miterlimit="10" stroke-linecap="round"/>
<path d="M13.5476 6.26837H3.97571" stroke="black" stroke-width="1.5" stroke-miterlimit="10" stroke-linecap="round"/>
<path d="M15.4389 8.15978C16.4835 8.15978 17.3304 7.31295 17.3304 6.26834C17.3304 5.22372 16.4835 4.37689 15.4389 4.37689C14.3943 4.37689 13.5475 5.22372 13.5475 6.26834C13.5475 7.31295 14.3943 8.15978 15.4389 8.15978Z" stroke="black" stroke-width="1.5" stroke-miterlimit="10" stroke-linecap="round"/>
<path d="M7.41464 13.8915C8.45925 13.8915 9.30608 13.0446 9.30608 12C9.30608 10.9554 8.45925 10.1086 7.41464 10.1086C6.37002 10.1086 5.52319 10.9554 5.52319 12C5.52319 13.0446 6.37002 13.8915 7.41464 13.8915Z" stroke="black" stroke-width="1.5" stroke-miterlimit="10" stroke-linecap="round"/>
<path d="M13.1463 19.6231C14.1909 19.6231 15.0378 18.7763 15.0378 17.7317C15.0378 16.687 14.1909 15.8402 13.1463 15.8402C12.1017 15.8402 11.2549 16.687 11.2549 17.7317C11.2549 18.7763 12.1017 19.6231 13.1463 19.6231Z" stroke="black" stroke-width="1.5" stroke-miterlimit="10" stroke-linecap="round"/>
</svg>
