<svg width="24" height="24" viewBox="0 0 24 24" fill="none" xmlns="http://www.w3.org/2000/svg">
<path d="M9.2782 14.6113C9.30952 14.1001 9.20313 13.5899 8.97028 13.1347C7.73861 10.6529 10.6823 7.94779 13.1826 9.00254C16.6928 10.442 16.114 17.0186 14.5744 19.823" stroke="black" stroke-width="1.5" stroke-linecap="round" stroke-linejoin="round"/>
<path d="M15.2394 3.55504C8.58844 0.353566 0.631857 7.27768 3.26763 14.1646" stroke="black" stroke-width="1.5" stroke-linecap="round" stroke-linejoin="round"/>
<path d="M7.06122 7.66235C7.91829 6.82938 8.97581 6.23552 10.1298 5.93918C11.2837 5.64285 12.4944 5.65424 13.6427 5.97225C14.7909 6.29026 15.8373 6.90393 16.6787 7.7529C17.5202 8.60186 18.1278 9.65688 18.4418 10.8142" stroke="black" stroke-width="1.5" stroke-linecap="round" stroke-linejoin="round"/>
<path d="M11.8031 11.7076C12.4181 13.3665 12.6046 15.1556 12.345 16.9069C11.9498 18.5031 11.2002 19.9881 10.1526 21.25" stroke="black" stroke-width="1.5" stroke-linecap="round" stroke-linejoin="round"/>
<path d="M5.91573 10.3054C5.59983 11.4863 5.66453 12.7377 6.10048 13.8792C6.36357 14.72 6.32801 15.627 5.9999 16.4443C5.67179 17.2617 5.07158 17.9385 4.30225 18.3587" stroke="black" stroke-width="1.5" stroke-linecap="round" stroke-linejoin="round"/>
<path d="M17.9491 5.11853C19.6734 6.01196 20.8066 8.46891 21.25 10.0821" stroke="black" stroke-width="1.5" stroke-linecap="round" stroke-linejoin="round"/>
<path d="M18.8606 13.4821C19.0783 15.2052 18.9865 16.9537 18.5896 18.6441" stroke="black" stroke-width="1.5" stroke-linecap="round" stroke-linejoin="round"/>
<path d="M9.0688 17.2916C8.65547 18.2687 7.96582 19.1016 7.08582 19.6865" stroke="black" stroke-width="1.5" stroke-linecap="round" stroke-linejoin="round"/>
</svg>
