<svg width="24" height="24" viewBox="0 0 24 24" fill="none" xmlns="http://www.w3.org/2000/svg">
<path d="M18.8937 10.0909V9.13635C18.8937 8.75661 18.7429 8.39242 18.4743 8.1239C18.2058 7.85539 17.8416 7.70453 17.4619 7.70453H11.0664C10.8314 7.70561 10.5998 7.64761 10.393 7.53587C10.1861 7.42412 10.0107 7.2622 9.88279 7.06499L8.8137 5.48044C8.68577 5.28323 8.51034 5.12131 8.30353 5.00956C8.09671 4.89782 7.86514 4.83982 7.63006 4.8409H5.05279C4.67305 4.8409 4.30886 4.99175 4.04034 5.26027C3.77182 5.52878 3.62097 5.89297 3.62097 6.27271V17.7273C3.62097 18.107 3.77182 18.4712 4.04034 18.7397C4.30886 19.0082 4.67305 19.1591 5.05279 19.1591H8.24777" stroke="black" stroke-width="1.5" stroke-linecap="round" stroke-linejoin="round"/>
<path d="M21.1655 12L19.2087 18.2046C19.1092 18.4862 18.9241 18.7296 18.6793 18.9008C18.4345 19.0719 18.1424 19.1623 17.8437 19.1591H5.98555C5.76081 19.159 5.53926 19.106 5.33882 19.0043C5.13838 18.9027 4.96469 18.7553 4.83179 18.574C4.69889 18.3928 4.61051 18.1828 4.57381 17.9611C4.53711 17.7394 4.55312 17.5121 4.62054 17.2978L6.16963 11.0932C6.26099 10.8027 6.4426 10.5489 6.68807 10.3686C6.93354 10.1884 7.23009 10.0911 7.53463 10.0909H19.8483C20.0746 10.0961 20.2964 10.1548 20.4956 10.2623C20.6948 10.3698 20.8657 10.5229 20.9942 10.7092C21.1228 10.8955 21.2053 11.1097 21.2351 11.334C21.2649 11.5584 21.241 11.7867 21.1655 12Z" stroke="black" stroke-width="1.5" stroke-linecap="round" stroke-linejoin="round"/>
</svg>
