<svg width="24" height="24" viewBox="0 0 24 24" fill="none" xmlns="http://www.w3.org/2000/svg">
<path d="M10.9883 11.7977V12.5795C11.0038 13.0855 10.8824 13.5863 10.6369 14.029C10.4052 14.4275 10.0636 14.7507 9.65302 14.9601C9.21284 15.1845 8.72388 15.2962 8.22994 15.2851C7.6771 15.2963 7.13128 15.1599 6.64873 14.8898C6.19386 14.6236 5.82729 14.2296 5.5946 13.7567C5.32516 13.211 5.19251 12.6081 5.20809 11.9998C5.20157 11.5273 5.2789 11.0573 5.43648 10.6118C5.57287 10.2287 5.78837 9.87847 6.06896 9.58404C6.33787 9.30125 6.66441 9.07957 7.02647 8.93399C7.40046 8.78368 7.80055 8.70904 8.20358 8.71438C8.54667 8.71194 8.88786 8.76534 9.21379 8.8725C9.51131 8.97252 9.7903 9.12092 10.0395 9.31172C10.2793 9.50117 10.4819 9.7335 10.6369 9.99691C10.7919 10.2679 10.8933 10.5661 10.9355 10.8754H9.55639C9.51943 10.7323 9.46014 10.5959 9.3807 10.4713C9.30507 10.3533 9.20648 10.2517 9.09081 10.1726C8.97439 10.0859 8.84353 10.0204 8.7043 9.97934C8.54576 9.94456 8.38305 9.93273 8.22115 9.9442C7.9113 9.93443 7.60554 10.017 7.34271 10.1814C7.08731 10.3581 6.8889 10.6053 6.77172 10.8929C6.62139 11.2513 6.5495 11.6377 6.56089 12.0261C6.55275 12.4135 6.62142 12.7986 6.76293 13.1593C6.8863 13.4458 7.08707 13.6922 7.34271 13.8709C7.60342 14.0409 7.91006 14.1267 8.22115 14.1168C8.4914 14.125 8.75962 14.0677 9.00297 13.9499C9.22355 13.8451 9.40507 13.6728 9.52125 13.458C9.62903 13.2518 9.68624 13.023 9.68815 12.7904H8.28264V11.7977H10.9883Z" fill="black"/>
<path d="M13.4508 8.91642V15.127C13.4508 15.1503 13.4416 15.1727 13.4251 15.1891C13.4086 15.2056 13.3863 15.2149 13.363 15.2149H12.1859C12.174 15.2163 12.1619 15.215 12.1506 15.2111C12.1393 15.2072 12.1291 15.2007 12.1206 15.1923C12.1122 15.1838 12.1057 15.1735 12.1018 15.1622C12.0979 15.1509 12.0966 15.1389 12.098 15.127V8.91642C12.0966 8.90455 12.0979 8.89251 12.1018 8.8812C12.1057 8.8699 12.1122 8.85964 12.1206 8.85118C12.1291 8.84273 12.1393 8.8363 12.1506 8.83238C12.1619 8.82847 12.174 8.82717 12.1859 8.82858H13.363C13.3863 8.82858 13.4086 8.83783 13.4251 8.85431C13.4416 8.87078 13.4508 8.89313 13.4508 8.91642Z" fill="black"/>
<path d="M14.559 15.127V8.91642C14.559 8.89312 14.5683 8.87078 14.5848 8.8543C14.6012 8.83783 14.6236 8.82858 14.6469 8.82858H18.7931V9.9442H16.0348C16.0115 9.9442 15.9892 9.95346 15.9727 9.96993C15.9562 9.9864 15.947 10.0087 15.947 10.032V11.3761C15.949 11.3987 15.9589 11.4199 15.9749 11.436C15.991 11.452 16.0122 11.4619 16.0348 11.4639H18.5472V12.5795H16.0348C16.0115 12.5795 15.9892 12.5888 15.9727 12.6053C15.9562 12.6217 15.947 12.6441 15.947 12.6674V15.127C15.9484 15.1389 15.9471 15.1509 15.9432 15.1622C15.9393 15.1735 15.9328 15.1838 15.9244 15.1923C15.9159 15.2007 15.9057 15.2072 15.8944 15.2111C15.8831 15.215 15.871 15.2163 15.8591 15.2149H14.682C14.6681 15.221 14.6528 15.2234 14.6376 15.2219C14.6224 15.2203 14.6079 15.2148 14.5955 15.206C14.5831 15.1971 14.5732 15.1852 14.5668 15.1713C14.5604 15.1575 14.5577 15.1422 14.559 15.127Z" fill="black"/>
<path d="M16.625 3.75H7.375C4.82068 3.75 2.75 5.80203 2.75 8.33333V15.6667C2.75 18.198 4.82068 20.25 7.375 20.25H16.625C19.1793 20.25 21.25 18.198 21.25 15.6667V8.33333C21.25 5.80203 19.1793 3.75 16.625 3.75Z" stroke="black" stroke-width="1.5" stroke-linecap="round" stroke-linejoin="round"/>
</svg>
