<svg width="24" height="24" viewBox="0 0 24 24" fill="none" xmlns="http://www.w3.org/2000/svg">
<path d="M8.37202 15.6279C8.37202 14.2921 7.28917 13.2093 5.95341 13.2093C4.61764 13.2093 3.53479 14.2921 3.53479 15.6279V18.0465C3.53479 19.3823 4.61764 20.4651 5.95341 20.4651C7.28917 20.4651 8.37202 19.3823 8.37202 18.0465V15.6279Z" stroke="black" stroke-width="1.5" stroke-linecap="round" stroke-linejoin="round"/>
<path d="M15.628 18.0465C15.628 19.3823 16.7108 20.4651 18.0466 20.4651C19.3824 20.4651 20.4652 19.3823 20.4652 18.0465V15.6279C20.4652 14.2922 19.3824 13.2093 18.0466 13.2093C16.7108 13.2093 15.628 14.2922 15.628 15.6279V18.0465Z" stroke="black" stroke-width="1.5" stroke-linecap="round" stroke-linejoin="round"/>
<path d="M20.4651 18.0465V12C20.4651 9.75491 19.5732 7.60176 17.9857 6.01424C16.3982 4.42671 14.245 3.53485 11.9999 3.53485C9.75485 3.53485 7.6017 4.42671 6.01418 6.01424C4.42665 7.60176 3.53479 9.75491 3.53479 12V18.0465" stroke="black" stroke-width="1.5" stroke-linecap="round" stroke-linejoin="round"/>
</svg>
