<svg width="24" height="24" viewBox="0 0 24 24" fill="none" xmlns="http://www.w3.org/2000/svg">
<path d="M21.25 16.5839L21.25 7.41611C21.25 4.83909 19.1609 2.75 16.5839 2.75L7.41611 2.75C4.83906 2.75 2.75 4.83909 2.75 7.41611L2.75 16.5839C2.75 19.1609 4.83906 21.25 7.41611 21.25L16.5839 21.25C19.1609 21.25 21.25 19.1609 21.25 16.5839Z" stroke="black" stroke-width="1.5" stroke-linecap="round" stroke-linejoin="round"/>
<path d="M12 9.40158C10.8904 6.88905 8.30909 6.66571 7.10705 7.76145C6.12845 8.64084 5.65843 10.7486 6.55225 12.6888C8.09334 16.0249 12 17.7767 12 17.7767C12 17.7767 15.9067 16.0249 17.4477 12.6888C18.3416 10.7486 17.8715 8.64084 16.8929 7.76145C15.6909 6.66571 13.1096 6.88905 12 9.40158Z" stroke="black" stroke-width="1.5" stroke-linecap="round" stroke-linejoin="round"/>
</svg>
