<svg width="24" height="24" viewBox="0 0 24 24" fill="none" xmlns="http://www.w3.org/2000/svg">
<path d="M18.8504 7.61188L13.0404 4.00188C12.7225 3.80321 12.3552 3.69788 11.9804 3.69788C11.6055 3.69788 11.2382 3.80321 10.9204 4.00188L5.11035 7.63188C4.78 7.84003 4.5178 8.14031 4.35609 8.49571C4.19439 8.85111 4.14025 9.24608 4.20035 9.63188L5.70035 18.6319C5.77917 19.1033 6.02421 19.5309 6.39109 19.8372C6.75797 20.1436 7.22244 20.3084 7.70035 20.3019H16.3004C16.7783 20.3084 17.2427 20.1436 17.6096 19.8372C17.9765 19.5309 18.2215 19.1033 18.3004 18.6319L19.8004 9.63188C19.8607 9.23889 19.8026 8.83681 19.6334 8.47701C19.4642 8.1172 19.1916 7.81601 18.8504 7.61188Z" stroke="black" stroke-width="1.5" stroke-linecap="round" stroke-linejoin="round"/>
<path d="M8.98022 16.0019H14.9802" stroke="black" stroke-width="1.5" stroke-linecap="round" stroke-linejoin="round"/>
</svg>
