<svg width="24" height="24" viewBox="0 0 24 24" fill="none" xmlns="http://www.w3.org/2000/svg">
<path d="M18.8579 7.60193L13.0479 3.99193C12.7301 3.79327 12.3628 3.68793 11.9879 3.68793C11.6131 3.68793 11.2458 3.79327 10.9279 3.99193L5.11792 7.60193C4.78757 7.81008 4.52537 8.11037 4.36366 8.46577C4.20195 8.82117 4.14782 9.21613 4.20792 9.60193L5.70792 18.6019C5.78674 19.0734 6.03178 19.501 6.39866 19.8073C6.76554 20.1136 7.23 20.2785 7.70792 20.2719H9.98792V16.9919C9.98792 16.6206 10.1354 16.2645 10.398 16.002C10.6605 15.7394 11.0166 15.5919 11.3879 15.5919H12.5879C12.9592 15.5919 13.3153 15.7394 13.5779 16.002C13.8404 16.2645 13.9879 16.6206 13.9879 16.9919V20.3119H16.2879C16.7658 20.3185 17.2303 20.1536 17.5972 19.8473C17.9641 19.541 18.2091 19.1134 18.2879 18.6419L19.7879 9.64193C19.8544 9.2479 19.8014 8.84297 19.6356 8.47937C19.4699 8.11576 19.199 7.81015 18.8579 7.60193Z" stroke="black" stroke-width="1.5" stroke-linecap="round" stroke-linejoin="round"/>
<path d="M7.98792 10.9919H15.9879" stroke="black" stroke-width="1.5" stroke-linecap="round" stroke-linejoin="round"/>
</svg>
