<svg width="24" height="24" viewBox="0 0 24 24" fill="none" xmlns="http://www.w3.org/2000/svg">
<path d="M18.8516 7.62189L13.0416 4.01189C12.7237 3.81323 12.3564 3.70789 11.9816 3.70789C11.6067 3.70789 11.2394 3.81323 10.9216 4.01189L5.11157 7.62189C4.78122 7.83004 4.51902 8.13033 4.35731 8.48573C4.19561 8.84113 4.14147 9.23609 4.20157 9.62189L5.70157 18.6219C5.78039 19.0933 6.02543 19.5209 6.39231 19.8273C6.7592 20.1336 7.22366 20.2984 7.70157 20.2919H16.3016C16.7795 20.2984 17.244 20.1336 17.6108 19.8273C17.9777 19.5209 18.2228 19.0933 18.3016 18.6219L19.8016 9.62189C19.8578 9.23202 19.7976 8.83423 19.6286 8.47843C19.4596 8.12263 19.1893 7.82466 18.8516 7.62189Z" stroke="black" stroke-width="1.5" stroke-linecap="round" stroke-linejoin="round"/>
<path d="M13.4817 10.3319H10.4817C9.65326 10.3319 8.98169 11.0035 8.98169 11.8319V14.8319C8.98169 15.6603 9.65326 16.3319 10.4817 16.3319H13.4817C14.3101 16.3319 14.9817 15.6603 14.9817 14.8319V11.8319C14.9817 11.0035 14.3101 10.3319 13.4817 10.3319Z" stroke="black" stroke-width="1.5" stroke-linecap="round" stroke-linejoin="round"/>
</svg>
