<svg width="24" height="24" viewBox="0 0 24 24" fill="none" xmlns="http://www.w3.org/2000/svg">
<path d="M5.8656 7.66479V19.9336C5.8656 20.2048 5.97331 20.4649 6.16505 20.6566C6.35679 20.8483 6.61684 20.956 6.888 20.956H17.112C17.3832 20.956 17.6432 20.8483 17.835 20.6566C18.0267 20.4649 18.1344 20.2048 18.1344 19.9336V7.66479" stroke="black" stroke-width="1.5" stroke-miterlimit="10"/>
<path d="M2.79834 9.70963L11.1514 4.13753C11.4038 3.97299 11.6987 3.88538 12 3.88538C12.3013 3.88538 12.5962 3.97299 12.8486 4.13753L21.2016 9.70963" stroke="black" stroke-width="1.5" stroke-miterlimit="10" stroke-linecap="round"/>
<path d="M11.4888 13.7992H12.5112C12.9179 13.7992 13.308 13.9608 13.5956 14.2484C13.8832 14.536 14.0448 14.9261 14.0448 15.3328V20.956H9.9552V15.3328C9.9552 14.9261 10.1168 14.536 10.4044 14.2484C10.692 13.9608 11.0821 13.7992 11.4888 13.7992Z" stroke="black" stroke-width="1.5" stroke-miterlimit="10" stroke-linecap="round"/>
</svg>
