<svg width="24" height="24" viewBox="0 0 24 24" fill="none" xmlns="http://www.w3.org/2000/svg">
<path d="M13.5 6.81V5.19C13.5 4.67085 13.0791 4.25 12.56 4.25H7.5C6.98085 4.25 6.56 4.67085 6.56 5.19V6.81C6.56 7.32915 6.98085 7.75 7.5 7.75H12.56C13.0791 7.75 13.5 7.32915 13.5 6.81Z" stroke="black" stroke-width="1.3" stroke-linecap="round" stroke-linejoin="round"/>
<path d="M20.5 12.81V11.19C20.5 10.6709 20.0791 10.25 19.56 10.25H7.5C6.98085 10.25 6.56 10.6709 6.56 11.19V12.81C6.56 13.3291 6.98085 13.75 7.5 13.75H19.56C20.0791 13.75 20.5 13.3291 20.5 12.81Z" stroke="black" stroke-width="1.3" stroke-linecap="round" stroke-linejoin="round"/>
<path d="M17.4399 18.81V17.19C17.4399 16.6709 17.0191 16.25 16.4999 16.25H7.50994C6.99079 16.25 6.56994 16.6709 6.56994 17.19V18.81C6.56994 19.3291 6.99079 19.75 7.50994 19.75H16.4999C17.0191 19.75 17.4399 19.3291 17.4399 18.81Z" stroke="black" stroke-width="1.3" stroke-linecap="round" stroke-linejoin="round"/>
<path d="M3.5 4V20" stroke="black" stroke-width="1.3" stroke-linecap="round" stroke-linejoin="round"/>
</svg>
