<svg width="24" height="24" viewBox="0 0 24 24" fill="none" xmlns="http://www.w3.org/2000/svg">
<path d="M18.0064 4.83862H5.99372C4.71787 4.83862 3.68359 5.8729 3.68359 7.14875V16.8513C3.68359 18.1271 4.71787 19.1614 5.99372 19.1614H18.0064C19.2822 19.1614 20.3165 18.1271 20.3165 16.8513V7.14875C20.3165 5.8729 19.2822 4.83862 18.0064 4.83862Z" stroke="black" stroke-width="1.5" stroke-linecap="round" stroke-linejoin="round"/>
<path d="M3.68359 16.1675L6.81613 13.0349C6.97085 12.8707 7.1803 12.7688 7.40499 12.7484C7.62968 12.728 7.85408 12.7904 8.03588 12.924L9.71765 14.0514C9.84118 14.1309 9.98809 14.1659 10.1342 14.1508C10.2803 14.1357 10.4169 14.0713 10.5216 13.9682L14.6613 9.82847C14.9505 9.53896 15.3331 9.36148 15.7409 9.32764C16.1487 9.2938 16.5553 9.40578 16.8883 9.64366L20.3165 12.0739" stroke="black" stroke-width="1.5" stroke-linecap="round" stroke-linejoin="round"/>
<path d="M8.30382 10.309C9.15099 10.309 9.83775 9.62224 9.83775 8.77508C9.83775 7.92791 9.15099 7.24115 8.30382 7.24115C7.45666 7.24115 6.7699 7.92791 6.7699 8.77508C6.7699 9.62224 7.45666 10.309 8.30382 10.309Z" stroke="black" stroke-width="1.5" stroke-linecap="round" stroke-linejoin="round"/>
</svg>
