<svg width="24" height="24" viewBox="0 0 24 24" fill="none" xmlns="http://www.w3.org/2000/svg">
<path d="M17.9147 4.03967H6.08534C5.20075 4.03967 4.35239 4.39107 3.7269 5.01657C3.1014 5.64207 2.75 6.49042 2.75 7.37501V16.625C2.75 17.5096 3.1014 18.358 3.7269 18.9834C4.35239 19.6089 5.20075 19.9603 6.08534 19.9603H17.9147C18.7992 19.9603 19.6476 19.6089 20.2731 18.9834C20.8986 18.358 21.25 17.5096 21.25 16.625V7.37501C21.25 6.49042 20.8986 5.64207 20.2731 5.01657C19.6476 4.39107 18.7992 4.03967 17.9147 4.03967Z" stroke="black" stroke-width="1.5" stroke-linecap="round" stroke-linejoin="round"/>
<path d="M2.75 16.6361L6.24099 13.1118C6.4108 12.9329 6.64011 12.8222 6.88582 12.8005C7.13758 12.7808 7.38852 12.8475 7.59736 12.9895L9.46514 14.2458C9.59861 14.3368 9.76058 14.3763 9.92097 14.357C10.0847 14.3441 10.2385 14.2731 10.3546 14.1568L14.9573 9.55408C15.2775 9.23016 15.7039 9.03276 16.1581 8.99819C16.6116 8.95812 17.0646 9.08025 17.4366 9.34284L21.25 12.0445" stroke="black" stroke-width="1.5" stroke-linecap="round" stroke-linejoin="round"/>
<path d="M7.8864 10.1211C8.22597 10.1233 8.55852 10.0245 8.84178 9.83717C9.12503 9.64989 9.3462 9.3826 9.47717 9.0693C9.60813 8.756 9.64297 8.41083 9.57726 8.07767C9.51156 7.74452 9.34827 7.43843 9.10815 7.19831C8.86804 6.9582 8.56194 6.79491 8.22879 6.7292C7.89563 6.66349 7.55046 6.69833 7.23716 6.8293C6.92386 6.96026 6.65658 7.18143 6.46929 7.46469C6.28201 7.74794 6.18318 8.08049 6.18538 8.42006C6.1883 8.8703 6.36845 9.30127 6.68682 9.61964C7.00519 9.93802 7.43616 10.1182 7.8864 10.1211Z" stroke="black" stroke-width="1.5" stroke-linecap="round" stroke-linejoin="round"/>
</svg>
