<svg width="24" height="24" viewBox="0 0 24 24" fill="none" xmlns="http://www.w3.org/2000/svg">
<path d="M16.2402 3.5H7.74023C4.97881 3.5 2.74023 5.73858 2.74023 8.5V15.5C2.74023 18.2614 4.97881 20.5 7.74023 20.5H16.2402C19.0017 20.5 21.2402 18.2614 21.2402 15.5V8.5C21.2402 5.73858 19.0017 3.5 16.2402 3.5Z" stroke="black" stroke-width="1.5" stroke-linecap="round" stroke-linejoin="round"/>
<path d="M2.99023 17L5.74023 13.8C6.10008 13.4427 6.57234 13.2206 7.07711 13.1714C7.58188 13.1222 8.08815 13.2489 8.51023 13.53C8.93232 13.8112 9.43859 13.9379 9.94335 13.8887C10.4481 13.8395 10.9204 13.6174 11.2802 13.26L13.6102 10.93C14.2797 10.2583 15.1661 9.84625 16.1113 9.76749C17.0564 9.68872 17.9988 9.94835 18.7702 10.5L21.2602 12.43" stroke="black" stroke-width="1.5" stroke-linecap="round" stroke-linejoin="round"/>
<path d="M7.99008 10.1701C8.90687 10.1701 9.65008 9.42689 9.65008 8.5101C9.65008 7.59331 8.90687 6.8501 7.99008 6.8501C7.07329 6.8501 6.33008 7.59331 6.33008 8.5101C6.33008 9.42689 7.07329 10.1701 7.99008 10.1701Z" stroke="black" stroke-width="1.5" stroke-linecap="round" stroke-linejoin="round"/>
</svg>
