<svg width="24" height="24" viewBox="0 0 24 24" fill="none" xmlns="http://www.w3.org/2000/svg">
<path d="M2.75 13.7001L4.415 7.04007C4.52451 6.59202 4.78153 6.19382 5.14472 5.90951C5.5113 5.63087 5.95871 5.47932 6.41917 5.47784H13.6136" stroke="black" stroke-width="1.5" stroke-linecap="round" stroke-linejoin="round"/>
<path d="M21.25 13.7001L20.4586 10.5242" stroke="black" stroke-width="1.5" stroke-linecap="round" stroke-linejoin="round"/>
<path d="M21.25 13.7001V17.8112C21.25 18.3564 21.0334 18.8792 20.6479 19.2647C20.2625 19.6502 19.7396 19.8667 19.1944 19.8667H4.80556C4.26039 19.8667 3.73755 19.6502 3.35206 19.2647C2.96657 18.8792 2.75 18.3564 2.75 17.8112V13.7001H8.91667L9.49222 15.1184C9.62591 15.3921 9.83668 15.6207 10.0986 15.7762C10.3568 15.9395 10.6565 16.0251 10.9619 16.0229H13.0175C13.323 16.0251 13.6227 15.9395 13.8808 15.7762C14.1428 15.6207 14.3535 15.3921 14.4872 15.1184L15.0833 13.7001H21.25Z" stroke="black" stroke-width="1.5" stroke-linecap="round" stroke-linejoin="round"/>
<path d="M20.4586 6.44444C20.4586 7.05811 20.2148 7.64665 19.7809 8.08059C19.3469 8.51452 18.7584 8.7583 18.1447 8.7583C17.5311 8.7583 16.9425 8.51452 16.5086 8.08059C16.0747 7.64665 15.8309 7.05811 15.8309 6.44444C15.829 6.12561 15.8953 5.81006 16.0252 5.5189C16.2383 5.03241 16.6122 4.63403 17.0843 4.39062C17.5563 4.14721 18.0977 4.0736 18.6176 4.18214C19.1375 4.29067 19.6042 4.57475 19.9394 4.98669C20.2747 5.39863 20.458 5.91334 20.4586 6.44444Z" stroke="black" stroke-width="1.5" stroke-linecap="round" stroke-linejoin="round"/>
</svg>
