<svg width="24" height="24" viewBox="0 0 24 24" fill="none" xmlns="http://www.w3.org/2000/svg">
<path d="M20.7507 12.9723H14.9169L14.3724 14.3141C14.2436 14.5722 14.0451 14.7892 13.7994 14.9404C13.5537 15.0916 13.2705 15.171 12.982 15.1697H11.0374C10.7489 15.171 10.4658 15.0916 10.2201 14.9404C9.97435 14.7892 9.77586 14.5722 9.64703 14.3141L9.08309 12.9723H3.24927L4.8244 6.67177C4.92903 6.24855 5.17283 5.87276 5.51667 5.60475C5.86051 5.33673 6.28444 5.19202 6.72039 5.19387H17.2796C17.7156 5.19202 18.1395 5.33673 18.4833 5.60475C18.8272 5.87276 19.071 6.24855 19.1756 6.67177L20.7507 12.9723Z" stroke="black" stroke-width="1.5" stroke-linecap="round" stroke-linejoin="round"/>
<path d="M20.7507 12.9723V16.8615C20.7507 17.3772 20.5459 17.8719 20.1812 18.2365C19.8165 18.6012 19.3219 18.8061 18.8061 18.8061H5.19387C4.67813 18.8061 4.18351 18.6012 3.81883 18.2365C3.45414 17.8719 3.24927 17.3772 3.24927 16.8615V12.9723H9.08309L9.62758 14.3141C9.75641 14.5722 9.95491 14.7892 10.2006 14.9404C10.4463 15.0916 10.7295 15.171 11.018 15.1697H12.9626C13.2511 15.171 13.5342 15.0916 13.7799 14.9404C14.0256 14.7892 14.2241 14.5722 14.353 14.3141L14.9169 12.9723H20.7507Z" stroke="black" stroke-width="1.5" stroke-linecap="round" stroke-linejoin="round"/>
</svg>
