<svg width="24" height="24" viewBox="0 0 24 24" fill="none" xmlns="http://www.w3.org/2000/svg">
<path d="M5.42191 5.15253H18.6C18.8913 5.15253 19.1706 5.26823 19.3766 5.47418C19.5825 5.68012 19.6982 5.95945 19.6982 6.2507V16.1343H4.32373V6.2507C4.32373 6.10649 4.35214 5.96369 4.40732 5.83045C4.46251 5.69721 4.5434 5.57615 4.64538 5.47418C4.74735 5.3722 4.86842 5.29131 5.00165 5.23612C5.13489 5.18093 5.27769 5.15253 5.42191 5.15253Z" stroke="black" stroke-width="1.5" stroke-linecap="round" stroke-linejoin="round"/>
<path d="M2.56421 16.1343H21.4358V17.4909C21.4358 17.8507 21.2701 18.1957 20.9752 18.4501C20.6803 18.7046 20.2802 18.8475 19.8632 18.8475H4.13684C3.71975 18.8475 3.31975 18.7046 3.02482 18.4501C2.7299 18.1957 2.56421 17.8507 2.56421 17.4909V16.1343Z" stroke="black" stroke-width="1.5" stroke-linecap="round" stroke-linejoin="round"/>
</svg>
