<svg width="24" height="24" viewBox="0 0 24 24" fill="none" xmlns="http://www.w3.org/2000/svg">
<path d="M6.71997 9.81H5.71997C4.89154 9.81 4.21997 10.4816 4.21997 11.31V18.31C4.21997 19.1384 4.89154 19.81 5.71997 19.81H6.71997C7.5484 19.81 8.21997 19.1384 8.21997 18.31V11.31C8.21997 10.4816 7.5484 9.81 6.71997 9.81Z" stroke="black" stroke-width="1.5" stroke-linecap="round" stroke-linejoin="round"/>
<path d="M19.74 12.2L18.54 18.2C18.4485 18.6604 18.1981 19.074 17.8324 19.3683C17.4668 19.6626 17.0093 19.819 16.54 19.81H10.22C9.68954 19.81 9.18083 19.5993 8.80576 19.2242C8.43068 18.8491 8.21997 18.3404 8.21997 17.81V11.81C8.23604 11.4249 8.33345 11.0476 8.50581 10.7029C8.67817 10.3582 8.92156 10.0539 9.21997 9.80999L10.05 4.80999C10.0687 4.69335 10.1147 4.58277 10.1842 4.48727C10.2538 4.39178 10.3449 4.31406 10.4502 4.26044C10.5554 4.20683 10.6719 4.17885 10.79 4.17877C10.9081 4.17869 11.0246 4.20652 11.13 4.25999L12.06 4.71999C12.6744 5.02379 13.1663 5.52882 13.4537 6.15106C13.7412 6.7733 13.8069 7.47521 13.64 8.13999L13.22 9.79999H17.78C18.0766 9.79993 18.3695 9.86584 18.6375 9.99295C18.9055 10.1201 19.1418 10.3052 19.3294 10.5349C19.5171 10.7647 19.6512 11.0332 19.7222 11.3212C19.7932 11.6092 19.7993 11.9094 19.74 12.2Z" stroke="black" stroke-width="1.5" stroke-linecap="round" stroke-linejoin="round"/>
</svg>
