<svg width="24" height="24" viewBox="0 0 24 24" fill="none" xmlns="http://www.w3.org/2000/svg">
<path d="M10.7458 13.2569C11.3963 13.9081 12.2787 14.2744 13.1991 14.2752C13.5034 14.271 13.8062 14.2322 14.1018 14.1595C14.6876 13.9967 15.2216 13.6859 15.6524 13.2569L16.474 12.4353L18.9157 9.98198C19.529 9.32388 19.8628 8.45344 19.8469 7.55406C19.8311 6.65467 19.4667 5.79655 18.8307 5.16049C18.1946 4.52443 17.3365 4.16009 16.4371 4.14422C15.5377 4.12835 14.6673 4.46219 14.0092 5.07542L11.5675 7.5287" stroke="black" stroke-width="1.5" stroke-linecap="round" stroke-linejoin="round"/>
<path d="M12.3775 16.5318L9.92418 18.9851C9.26153 19.5712 8.4001 19.8823 7.51584 19.8547C6.63158 19.8271 5.79122 19.4629 5.16639 18.8366C4.54156 18.2103 4.17941 17.3691 4.15391 16.4848C4.12841 15.6005 4.44149 14.7398 5.02919 14.0785L7.48247 11.6252L8.30409 10.8036C8.73492 10.3746 9.26894 10.0638 9.85475 9.90099C10.4441 9.7433 11.0646 9.7437 11.6538 9.90217C12.2429 10.0606 12.7799 10.3715 13.2107 10.8036" stroke="black" stroke-width="1.5" stroke-linecap="round" stroke-linejoin="round"/>
</svg>
