<svg width="24" height="24" viewBox="0 0 24 24" fill="none" xmlns="http://www.w3.org/2000/svg">
<path d="M16.2319 9.88409H7.76825C6.59967 9.88409 5.65234 10.8314 5.65234 12V18.3477C5.65234 19.5163 6.59967 20.4636 7.76825 20.4636H16.2319C17.4005 20.4636 18.3478 19.5163 18.3478 18.3477V12C18.3478 10.8314 17.4005 9.88409 16.2319 9.88409Z" stroke="black" stroke-width="1.5" stroke-linecap="round" stroke-linejoin="round"/>
<path d="M7.76819 9.88409V7.76819C7.76819 6.64584 8.21404 5.56946 9.00766 4.77585C9.80128 3.98223 10.8777 3.53638 12 3.53638C13.1223 3.53638 14.1987 3.98223 14.9923 4.77585C15.786 5.56946 16.2318 6.64584 16.2318 7.76819V9.88409" stroke="black" stroke-width="1.5" stroke-linecap="round" stroke-linejoin="round"/>
<path d="M8.82617 17.2898H15.1739" stroke="black" stroke-width="1.5" stroke-linecap="round" stroke-linejoin="round"/>
</svg>
