<svg width="24" height="24" viewBox="0 0 24 24" fill="none" xmlns="http://www.w3.org/2000/svg">
<path d="M21.25 16.5839L21.25 7.41611C21.25 4.83909 19.1609 2.75 16.5839 2.75L7.41611 2.75C4.83906 2.75 2.75 4.83909 2.75 7.41611L2.75 16.5839C2.75 19.1609 4.83906 21.25 7.41611 21.25L16.5839 21.25C19.1609 21.25 21.25 19.1609 21.25 16.5839Z" stroke="black" stroke-width="1.5" stroke-linecap="round" stroke-linejoin="round"/>
<path d="M15.1304 10.5522H8.86963C8.0052 10.5522 7.30444 11.2004 7.30444 12V16.3435C7.30444 17.1431 8.0052 17.7913 8.86963 17.7913H15.1304C15.9948 17.7913 16.6956 17.1431 16.6956 16.3435V12C16.6956 11.2004 15.9948 10.5522 15.1304 10.5522Z" stroke="black" stroke-width="1.5" stroke-linecap="round" stroke-linejoin="round"/>
<path d="M9.10437 10.5521V9.10434C9.10437 8.33638 9.40944 7.59987 9.95247 7.05684C10.4955 6.51381 11.232 6.20874 12 6.20874C12.7679 6.20874 13.5044 6.51381 14.0475 7.05684C14.5905 7.59987 14.8956 8.33638 14.8956 9.10434V10.5521" stroke="black" stroke-width="1.5" stroke-linecap="round" stroke-linejoin="round"/>
</svg>
