<svg width="24" height="24" viewBox="0 0 24 24" fill="none" xmlns="http://www.w3.org/2000/svg">
<path d="M21.25 16.5839L21.25 7.41611C21.25 4.83909 19.1609 2.75 16.5839 2.75L7.41611 2.75C4.83906 2.75 2.75 4.83909 2.75 7.41611L2.75 16.5839C2.75 19.1609 4.83906 21.25 7.41611 21.25L16.5839 21.25C19.1609 21.25 21.25 19.1609 21.25 16.5839Z" stroke="black" stroke-width="1.5" stroke-linecap="round" stroke-linejoin="round"/>
<path d="M17.3282 12C17.3291 12.6994 17.1919 13.3921 16.9246 14.0385C16.6572 14.685 16.2649 15.2724 15.77 15.7673C15.2751 16.2621 14.6874 16.6547 14.0405 16.9226C13.3936 17.1904 12.7002 17.3283 11.9999 17.3283C11.2462 17.3301 10.5007 17.1709 9.81363 16.8614L7.58609 17.191C7.47533 17.2092 7.36178 17.2001 7.25536 17.1645C7.14893 17.1288 7.05287 17.0677 6.97555 16.9864C6.89824 16.9051 6.84203 16.8062 6.81183 16.6982C6.78163 16.5902 6.77837 16.4765 6.80232 16.367L7.1117 14.108C6.81813 13.4441 6.66819 12.7258 6.67169 12C6.67079 11.3006 6.80794 10.6079 7.0753 9.9615C7.34267 9.31508 7.735 8.72765 8.22986 8.23278C8.72473 7.73792 9.31241 7.34533 9.95931 7.07748C10.6062 6.80962 11.2996 6.67175 11.9999 6.67175C12.7002 6.67175 13.3936 6.80962 14.0405 7.07748C14.6874 7.34533 15.2751 7.73792 15.77 8.23278C16.2649 8.72765 16.6572 9.31508 16.9246 9.9615C17.1919 10.6079 17.3291 11.3006 17.3282 12Z" stroke="black" stroke-width="1.5" stroke-linecap="round" stroke-linejoin="round"/>
</svg>
