<svg width="24" height="24" viewBox="0 0 24 24" fill="none" xmlns="http://www.w3.org/2000/svg">
<path d="M19.7501 12C19.7514 13.0186 19.5519 14.0274 19.163 14.9689C18.7741 15.9103 18.2035 16.7658 17.4837 17.4865C16.7639 18.2072 15.9091 18.779 14.9682 19.1691C14.0273 19.5592 13.0187 19.76 12.0001 19.76C10.9037 19.7626 9.81949 19.5308 8.82009 19.08L5.58009 19.56C5.419 19.5866 5.25384 19.5734 5.09904 19.5215C4.94424 19.4695 4.80451 19.3805 4.69206 19.2621C4.5796 19.1437 4.49784 18.9996 4.45392 18.8424C4.41 18.6851 4.40525 18.5195 4.44009 18.36L4.89009 15.07C4.46309 14.1031 4.245 13.057 4.25009 12C4.24877 10.9814 4.44826 9.97255 4.83715 9.03112C5.22603 8.0897 5.79669 7.23416 6.51647 6.51345C7.23626 5.79273 8.09105 5.22098 9.03198 4.83088C9.97291 4.44078 10.9815 4.23999 12.0001 4.23999C13.0187 4.23999 14.0273 4.44078 14.9682 4.83088C15.9091 5.22098 16.7639 5.79273 17.4837 6.51345C18.2035 7.23416 18.7741 8.0897 19.163 9.03112C19.5519 9.97255 19.7514 10.9814 19.7501 12Z" stroke="black" stroke-width="1.5" stroke-linecap="round" stroke-linejoin="round"/>
<path d="M11.9999 12.5121C12.2828 12.5121 12.512 12.2828 12.512 12C12.512 11.7171 12.2828 11.4879 11.9999 11.4879C11.7171 11.4879 11.4878 11.7171 11.4878 12C11.4878 12.2828 11.7171 12.5121 11.9999 12.5121Z" stroke="black" stroke-width="1.5" stroke-linecap="round" stroke-linejoin="round"/>
<path d="M15.5849 12.5121C15.8677 12.5121 16.097 12.2828 16.097 12C16.097 11.7171 15.8677 11.4879 15.5849 11.4879C15.302 11.4879 15.0728 11.7171 15.0728 12C15.0728 12.2828 15.302 12.5121 15.5849 12.5121Z" stroke="black" stroke-width="1.5" stroke-linecap="round" stroke-linejoin="round"/>
<path d="M8.4152 12.5121C8.69804 12.5121 8.92732 12.2828 8.92732 12C8.92732 11.7171 8.69804 11.4879 8.4152 11.4879C8.13236 11.4879 7.90308 11.7171 7.90308 12C7.90308 12.2828 8.13236 12.5121 8.4152 12.5121Z" stroke="black" stroke-width="1.5" stroke-linecap="round" stroke-linejoin="round"/>
</svg>
