<svg width="24" height="24" viewBox="0 0 24 24" fill="none" xmlns="http://www.w3.org/2000/svg">
<path d="M20.5414 7.85041V13.9514C20.5414 14.4321 20.4467 14.9081 20.2627 15.3522C20.0788 15.7964 19.8091 16.1999 19.4692 16.5398C19.1293 16.8797 18.7258 17.1494 18.2816 17.3333C17.8375 17.5173 17.3615 17.612 16.8808 17.612H14.4404L12.4271 19.6253C12.3723 19.6837 12.3061 19.7302 12.2327 19.762C12.1592 19.7938 12.08 19.8102 12 19.8102C11.92 19.8102 11.8408 19.7938 11.7673 19.762C11.6939 19.7302 11.6277 19.6837 11.5729 19.6253L9.55961 17.612H7.11921C6.14836 17.612 5.21728 17.2263 4.53078 16.5398C3.84429 15.8533 3.45862 14.9222 3.45862 13.9514V7.85041C3.45862 6.87956 3.84429 5.94848 4.53078 5.26198C5.21728 4.57549 6.14836 4.18982 7.11921 4.18982H16.8808C17.8516 4.18982 18.7827 4.57549 19.4692 5.26198C20.1557 5.94848 20.5414 6.87956 20.5414 7.85041Z" stroke="black" stroke-width="1.5" stroke-linecap="round" stroke-linejoin="round"/>
<path d="M9.72717 8.47734C9.95112 7.98886 10.3316 7.58902 10.8083 7.34111C11.2851 7.09319 11.8309 7.01137 12.3594 7.10857C12.7214 7.16412 13.0654 7.30379 13.3637 7.51636C13.662 7.72892 13.9063 8.00847 14.0769 8.33256C14.1998 8.59177 14.2665 8.87404 14.2725 9.16084C14.2785 9.44762 14.2238 9.73249 14.1119 9.99662C14.0001 10.2608 13.8336 10.4982 13.6234 10.6935C13.4132 10.8887 13.1641 11.0372 12.8925 11.1293C12.6153 11.2344 12.3756 11.4193 12.2034 11.6606C12.0312 11.9018 11.9344 12.1887 11.9251 12.4849V13.0442" stroke="black" stroke-width="1.5" stroke-miterlimit="10" stroke-linecap="round"/>
<path d="M11.9061 15.4776H11.9117" stroke="black" stroke-width="2" stroke-linecap="round" stroke-linejoin="round"/>
<path d="M11.9061 15.4776H11.9117" stroke="black" stroke-width="2" stroke-linecap="round" stroke-linejoin="round"/>
</svg>
