<svg width="24" height="24" viewBox="0 0 24 24" fill="none" xmlns="http://www.w3.org/2000/svg">
<path d="M21.25 16.5839L21.25 7.41611C21.25 4.83909 19.1609 2.75 16.5839 2.75L7.41611 2.75C4.83906 2.75 2.75 4.83909 2.75 7.41611L2.75 16.5839C2.75 19.1609 4.83906 21.25 7.41611 21.25L16.5839 21.25C19.1609 21.25 21.25 19.1609 21.25 16.5839Z" stroke="black" stroke-width="1.5" stroke-linecap="round" stroke-linejoin="round"/>
<path d="M17.4821 9.82907V13.7448C17.4821 14.0534 17.4213 14.3589 17.3033 14.6439C17.1852 14.929 17.0121 15.188 16.794 15.4061C16.5758 15.6243 16.3168 15.7974 16.0317 15.9154C15.7467 16.0335 15.4412 16.0943 15.1326 16.0943H13.5663L12.2741 17.3865C12.239 17.4239 12.1965 17.4538 12.1494 17.4742C12.1022 17.4946 12.0514 17.5051 12 17.5051C11.9487 17.5051 11.8978 17.4946 11.8507 17.4742C11.8035 17.4538 11.7611 17.4239 11.7259 17.3865L10.4337 16.0943H8.86743C8.24431 16.0943 7.64672 15.8468 7.20611 15.4061C6.76551 14.9655 6.51797 14.3679 6.51797 13.7448V9.82907C6.51797 9.20596 6.76551 8.60836 7.20611 8.16775C7.64672 7.72715 8.24431 7.47961 8.86743 7.47961H15.1326C15.7558 7.47961 16.3534 7.72715 16.794 8.16775C17.2346 8.60836 17.4821 9.20596 17.4821 9.82907Z" stroke="black" stroke-width="1.5" stroke-linecap="round" stroke-linejoin="round"/>
</svg>
