<svg width="24" height="24" viewBox="0 0 24 24" fill="none" xmlns="http://www.w3.org/2000/svg">
<path d="M19.75 12C19.7513 13.0186 19.5518 14.0274 19.1629 14.9689C18.774 15.9103 18.2034 16.7658 17.4836 17.4865C16.7638 18.2072 15.909 18.779 14.9681 19.1691C14.0271 19.5592 13.0186 19.76 12 19.76C10.9036 19.7626 9.81937 19.5308 8.81996 19.08L5.57996 19.56C5.41887 19.5866 5.25372 19.5734 5.09892 19.5215C4.94412 19.4695 4.80439 19.3805 4.69194 19.2621C4.57948 19.1437 4.49772 18.9996 4.4538 18.8424C4.40987 18.6851 4.40513 18.5195 4.43997 18.36L4.88996 15.07C4.46297 14.1031 4.24488 13.057 4.24996 12C4.24865 10.9814 4.44814 9.97255 4.83703 9.03112C5.22591 8.0897 5.79656 7.23416 6.51635 6.51345C7.23613 5.79273 8.09093 5.22098 9.03186 4.83088C9.97278 4.44078 10.9814 4.23999 12 4.23999C13.0186 4.23999 14.0271 4.44078 14.9681 4.83088C15.909 5.22098 16.7638 5.79273 17.4836 6.51345C18.2034 7.23416 18.774 8.0897 19.1629 9.03112C19.5518 9.97255 19.7513 10.9814 19.75 12Z" stroke="black" stroke-width="1.5" stroke-linecap="round" stroke-linejoin="round"/>
<path d="M9.72717 9.20414C9.95112 8.71566 10.3316 8.31583 10.8083 8.06792C11.2851 7.82 11.8309 7.73817 12.3594 7.83538C12.7214 7.89092 13.0654 8.0306 13.3637 8.24317C13.662 8.45573 13.9063 8.73528 14.0769 9.05937C14.1998 9.31858 14.2665 9.60085 14.2725 9.88764C14.2785 10.1744 14.2238 10.4593 14.1119 10.7234C14.0001 10.9876 13.8336 11.225 13.6234 11.4203C13.4132 11.6155 13.1641 11.764 12.8925 11.8561C12.6153 11.9613 12.3756 12.1461 12.2034 12.3874C12.0312 12.6286 11.9344 12.9155 11.9251 13.2117V13.7711" stroke="black" stroke-width="1.5" stroke-miterlimit="10" stroke-linecap="round"/>
<path d="M11.9061 16.2045H11.9117" stroke="black" stroke-width="2" stroke-linecap="round" stroke-linejoin="round"/>
<path d="M11.9061 16.2045H11.9117" stroke="black" stroke-width="2" stroke-linecap="round" stroke-linejoin="round"/>
</svg>
