<svg width="24" height="24" viewBox="0 0 24 24" fill="none" xmlns="http://www.w3.org/2000/svg">
<path d="M20.5414 7.85041V13.9514C20.5414 14.4321 20.4467 14.9081 20.2627 15.3522C20.0788 15.7964 19.8091 16.1999 19.4692 16.5398C19.1293 16.8797 18.7258 17.1494 18.2816 17.3333C17.8375 17.5173 17.3615 17.612 16.8808 17.612H14.4404L12.4271 19.6253C12.3723 19.6837 12.3061 19.7302 12.2327 19.762C12.1592 19.7938 12.08 19.8102 12 19.8102C11.92 19.8102 11.8408 19.7938 11.7673 19.762C11.6939 19.7302 11.6277 19.6837 11.5729 19.6253L9.55961 17.612H7.11921C6.14836 17.612 5.21728 17.2263 4.53078 16.5398C3.84429 15.8533 3.45862 14.9222 3.45862 13.9514V7.85041C3.45862 6.87956 3.84429 5.94848 4.53078 5.26198C5.21728 4.57549 6.14836 4.18982 7.11921 4.18982H16.8808C17.8516 4.18982 18.7827 4.57549 19.4692 5.26198C20.1557 5.94848 20.5414 6.87956 20.5414 7.85041Z" stroke="black" stroke-width="1.5" stroke-linecap="round" stroke-linejoin="round"/>
<path d="M11.9929 7.67999V14.2193" stroke="black" stroke-width="1.5" stroke-miterlimit="10" stroke-linecap="round"/>
<path d="M8.73022 10.9567H15.2696" stroke="black" stroke-width="1.5" stroke-miterlimit="10" stroke-linecap="round"/>
</svg>
