<svg width="24" height="24" viewBox="0 0 24 24" fill="none" xmlns="http://www.w3.org/2000/svg">
<path d="M21.25 12C21.2516 13.2141 21.0135 14.4167 20.5493 15.5389C20.0852 16.6611 19.4041 17.6809 18.545 18.54C17.6859 19.3991 16.6656 20.0806 15.5426 20.5456C14.4196 21.0106 13.2158 21.25 12 21.25C10.6915 21.2531 9.39742 20.9767 8.20459 20.4394L4.33751 21.0116C4.14525 21.0433 3.94812 21.0275 3.76336 20.9656C3.57861 20.9037 3.41183 20.7976 3.27761 20.6565C3.14339 20.5154 3.04581 20.3436 2.99339 20.1562C2.94096 19.9687 2.93529 19.7713 2.97688 19.5812L3.51397 15.6595C3.00433 14.5069 2.74404 13.2599 2.7501 12C2.74854 10.7858 2.98663 9.58326 3.45079 8.46107C3.91494 7.33888 4.59603 6.31908 5.45513 5.45998C6.31422 4.60088 7.33446 3.91935 8.45749 3.45434C9.58052 2.98934 10.7843 2.75 12 2.75C13.2158 2.75 14.4196 2.98934 15.5426 3.45434C16.6656 3.91935 17.6859 4.60088 18.545 5.45998C19.4041 6.31908 20.0852 7.33888 20.5493 8.46107C21.0135 9.58326 21.2516 10.7858 21.25 12Z" stroke="black" stroke-width="1.5" stroke-linecap="round" stroke-linejoin="round"/>
<path d="M12.059 16.5428V10.9844" stroke="black" stroke-width="1.5" stroke-linecap="round" stroke-linejoin="round"/>
<path d="M11.941 7.45721H11.9466" stroke="black" stroke-width="2" stroke-linecap="round" stroke-linejoin="round"/>
</svg>
