<svg width="24" height="24" viewBox="0 0 24 24" fill="none" xmlns="http://www.w3.org/2000/svg">
<path d="M21.25 12C21.2487 13.2143 21.011 14.4166 20.55 15.54C19.6058 17.7994 17.8094 19.5957 15.55 20.54C14.383 21.0201 13.1305 21.2579 11.8687 21.239C10.6069 21.2201 9.36214 20.9448 8.21 20.43L4.34 21C4.14926 21.0447 3.95075 21.0447 3.76 21C3.57869 20.9342 3.4146 20.8282 3.28 20.69C3.14047 20.5455 3.0412 20.3671 2.99207 20.1723C2.94295 19.9776 2.94568 19.7734 3 19.58L3.53 15.66C3.01239 14.5094 2.74646 13.2616 2.75 12C2.75126 10.7857 2.98902 9.58335 3.45 8.46C4.39426 6.20063 6.19064 4.40425 8.45 3.46C9.57548 2.99332 10.7816 2.75209 12 2.75" stroke="black" stroke-width="1.5" stroke-linecap="round" stroke-linejoin="round"/>
<path d="M11.9999 12.6104C12.3375 12.6104 12.6111 12.3371 12.6111 12C12.6111 11.6628 12.3375 11.3895 11.9999 11.3895C11.6623 11.3895 11.3886 11.6628 11.3886 12C11.3886 12.3371 11.6623 12.6104 11.9999 12.6104Z" stroke="black" stroke-width="1.5" stroke-linecap="round" stroke-linejoin="round"/>
<path d="M16.2787 12.6104C16.6163 12.6104 16.8899 12.3371 16.8899 12C16.8899 11.6628 16.6163 11.3895 16.2787 11.3895C15.9411 11.3895 15.6674 11.6628 15.6674 12C15.6674 12.3371 15.9411 12.6104 16.2787 12.6104Z" stroke="black" stroke-width="1.5" stroke-linecap="round" stroke-linejoin="round"/>
<path d="M7.72132 12.6104C8.0589 12.6104 8.33256 12.3371 8.33256 12C8.33256 11.6628 8.0589 11.3895 7.72132 11.3895C7.38374 11.3895 7.11008 11.6628 7.11008 12C7.11008 12.3371 7.38374 12.6104 7.72132 12.6104Z" stroke="black" stroke-width="1.5" stroke-linecap="round" stroke-linejoin="round"/>
<path d="M15.25 5.86759L16.9386 7.5562C16.998 7.6163 17.0687 7.66406 17.1467 7.6966C17.2247 7.72919 17.3083 7.74598 17.3929 7.74598C17.4774 7.74598 17.5611 7.72919 17.639 7.6966C17.717 7.66406 17.7877 7.6163 17.8472 7.5562L21.25 4.15332" stroke="black" stroke-width="1.5" stroke-linecap="round" stroke-linejoin="round"/>
</svg>
