<svg width="24" height="24" viewBox="0 0 24 24" fill="none" xmlns="http://www.w3.org/2000/svg">
<path d="M15.498 6.07499C15.498 4.43669 13.9319 3.10858 12 3.10858C10.0681 3.10858 8.50195 4.43669 8.50195 6.07499V11.4334C8.50195 13.0717 10.0681 14.3998 12 14.3998C13.9319 14.3998 15.498 13.0717 15.498 11.4334V6.07499Z" stroke="black" stroke-width="1.5" stroke-linecap="round" stroke-linejoin="round"/>
<path d="M5.58691 10.67C5.58691 12.3708 6.26258 14.002 7.46526 15.2047C8.66795 16.4074 10.2991 17.0831 12 17.0831C13.7009 17.0831 15.3321 16.4074 16.5347 15.2047C17.7374 14.002 18.4131 12.3708 18.4131 10.67" stroke="black" stroke-width="1.5" stroke-linecap="round" stroke-linejoin="round"/>
<path d="M12 20.8914V17.0831" stroke="black" stroke-width="1.5" stroke-linecap="round" stroke-linejoin="round"/>
<path d="M8.50195 20.8914H15.498" stroke="black" stroke-width="1.5" stroke-linecap="round" stroke-linejoin="round"/>
</svg>
