<svg width="24" height="24" viewBox="0 0 24 24" fill="none" xmlns="http://www.w3.org/2000/svg">
<path d="M15.806 3.58606H8.19404C7.28602 3.58606 6.54993 4.34366 6.54993 5.2782V18.7218C6.54993 19.6564 7.28602 20.414 8.19404 20.414H15.806C16.714 20.414 17.4501 19.6564 17.4501 18.7218V5.2782C17.4501 4.34366 16.714 3.58606 15.806 3.58606Z" stroke="black" stroke-width="1.5" stroke-linecap="round" stroke-linejoin="round"/>
<path d="M11.9999 18.1612C12.2608 18.1612 12.4723 17.9498 12.4723 17.6889C12.4723 17.428 12.2608 17.2166 11.9999 17.2166C11.7391 17.2166 11.5276 17.428 11.5276 17.6889C11.5276 17.9498 11.7391 18.1612 11.9999 18.1612Z" stroke="black" stroke-width="1.5" stroke-linecap="round" stroke-linejoin="round"/>
<path d="M10.1832 5.88037H13.8166" stroke="black" stroke-width="1.5" stroke-linecap="round" stroke-linejoin="round"/>
</svg>
