<svg width="24" height="24" viewBox="0 0 24 24" fill="none" xmlns="http://www.w3.org/2000/svg">
<path d="M17.5 12.75C17.9142 12.75 18.25 12.4142 18.25 12C18.25 11.5858 17.9142 11.25 17.5 11.25C17.0858 11.25 16.75 11.5858 16.75 12C16.75 12.4142 17.0858 12.75 17.5 12.75Z" stroke="black" stroke-width="1.5" stroke-linecap="round" stroke-linejoin="round"/>
<path d="M12 12.75C12.4142 12.75 12.75 12.4142 12.75 12C12.75 11.5858 12.4142 11.25 12 11.25C11.5858 11.25 11.25 11.5858 11.25 12C11.25 12.4142 11.5858 12.75 12 12.75Z" stroke="black" stroke-width="1.5" stroke-linecap="round" stroke-linejoin="round"/>
<path d="M6.5 12.75C6.91421 12.75 7.25 12.4142 7.25 12C7.25 11.5858 6.91421 11.25 6.5 11.25C6.08579 11.25 5.75 11.5858 5.75 12C5.75 12.4142 6.08579 12.75 6.5 12.75Z" stroke="black" stroke-width="1.5" stroke-linecap="round" stroke-linejoin="round"/>
</svg>
