<svg width="24" height="24" viewBox="0 0 24 24" fill="none" xmlns="http://www.w3.org/2000/svg">
<path d="M21 16.46L21 7.54C21 5.03263 18.9674 3 16.46 3L7.54 3C5.0326 3 3 5.03263 3 7.54L3 16.46C3 18.9674 5.0326 21 7.54 21L16.46 21C18.9674 21 21 18.9674 21 16.46Z" stroke="black" stroke-width="1.5" stroke-linecap="round" stroke-linejoin="round"/>
<path d="M16.0391 12C16.0391 12.3522 16.3247 12.6378 16.6769 12.6378C17.0292 12.6378 17.3147 12.3522 17.3147 12C17.3147 11.6478 17.0292 11.3622 16.6769 11.3622C16.3247 11.3622 16.0391 11.6478 16.0391 12Z" stroke="black" stroke-width="1.5" stroke-linecap="round" stroke-linejoin="round"/>
<path d="M11.3621 12C11.3621 12.3522 11.6477 12.6378 11.9999 12.6378C12.3521 12.6378 12.6377 12.3522 12.6377 12C12.6377 11.6478 12.3521 11.3622 11.9999 11.3622C11.6477 11.3622 11.3621 11.6478 11.3621 12Z" stroke="black" stroke-width="1.5" stroke-linecap="round" stroke-linejoin="round"/>
<path d="M6.68514 12C6.68514 12.3522 6.97069 12.6378 7.32292 12.6378C7.67514 12.6378 7.96069 12.3522 7.96069 12C7.96069 11.6478 7.67514 11.3622 7.32292 11.3622C6.97069 11.3622 6.68514 11.6478 6.68514 12Z" stroke="black" stroke-width="1.5" stroke-linecap="round" stroke-linejoin="round"/>
</svg>
