<svg width="24" height="24" viewBox="0 0 24 24" fill="none" xmlns="http://www.w3.org/2000/svg">
<path d="M5.39002 17.1401L10.81 20.3901C11.1694 20.6061 11.5808 20.7202 12 20.7202C12.4193 20.7202 12.8307 20.6061 13.19 20.3901L18.61 17.1401C18.9555 16.9333 19.2415 16.6404 19.44 16.2901C19.6336 15.9411 19.7368 15.5492 19.74 15.1501V8.49014C19.7415 8.08736 19.6381 7.69114 19.4399 7.34047C19.2418 6.98979 18.9558 6.69673 18.61 6.49014L13.19 3.60014C12.8286 3.39027 12.418 3.27972 12 3.27972C11.582 3.27972 11.1715 3.39027 10.81 3.60014L5.39002 6.49014C5.04427 6.69673 4.75825 6.98979 4.56012 7.34047C4.36198 7.69114 4.25856 8.08736 4.26003 8.49014V15.1501C4.26327 15.5492 4.36641 15.9411 4.56002 16.2901C4.7586 16.6404 5.04456 16.9333 5.39002 17.1401Z" stroke="black" stroke-width="1.5" stroke-linecap="round" stroke-linejoin="round"/>
<path d="M19.43 7.36017L12 11.8202" stroke="black" stroke-width="1.5" stroke-linecap="round" stroke-linejoin="round"/>
<path d="M4.56995 7.36017L11.9999 11.8202V20.7202" stroke="black" stroke-width="1.5" stroke-linecap="round" stroke-linejoin="round"/>
<path d="M16.13 12.8801V9.34013L8.29004 4.95013" stroke="black" stroke-width="1.5" stroke-linecap="round" stroke-linejoin="round"/>
</svg>
