<svg width="24" height="24" viewBox="0 0 24 24" fill="none" xmlns="http://www.w3.org/2000/svg">
<path d="M16.46 3H7.54C5.03263 3 3 5.03263 3 7.54V16.46C3 18.9674 5.03263 21 7.54 21H16.46C18.9674 21 21 18.9674 21 16.46V7.54C21 5.03263 18.9674 3 16.46 3Z" stroke="black" stroke-width="1.5" stroke-linecap="round" stroke-linejoin="round"/>
<path d="M10.1128 7.83838H8.33838C8.06224 7.83838 7.83838 8.06224 7.83838 8.33838V15.6616C7.83838 15.9378 8.06224 16.1616 8.33838 16.1616H10.1128C10.3889 16.1616 10.6128 15.9378 10.6128 15.6616V8.33838C10.6128 8.06224 10.3889 7.83838 10.1128 7.83838Z" stroke="black" stroke-width="1.5" stroke-linecap="round" stroke-linejoin="round"/>
<path d="M15.6616 7.83838H13.8872C13.6111 7.83838 13.3872 8.06224 13.3872 8.33838V15.6616C13.3872 15.9378 13.6111 16.1616 13.8872 16.1616H15.6616C15.9378 16.1616 16.1616 15.9378 16.1616 15.6616V8.33838C16.1616 8.06224 15.9378 7.83838 15.6616 7.83838Z" stroke="black" stroke-width="1.5" stroke-linecap="round" stroke-linejoin="round"/>
</svg>
