<svg width="24" height="24" viewBox="0 0 24 24" fill="none" xmlns="http://www.w3.org/2000/svg">
<path d="M16.5839 2.75H7.41611C4.83909 2.75 2.75 4.83909 2.75 7.41611V16.5839C2.75 19.1609 4.83909 21.25 7.41611 21.25H16.5839C19.1609 21.25 21.25 19.1609 21.25 16.5839V7.41611C21.25 4.83909 19.1609 2.75 16.5839 2.75Z" stroke="black" stroke-width="1.5" stroke-linecap="round" stroke-linejoin="round"/>
<path d="M10.0743 7.72278H8.22278C7.94664 7.72278 7.72278 7.94664 7.72278 8.22278V15.7772C7.72278 16.0534 7.94664 16.2772 8.22278 16.2772H10.0743C10.3504 16.2772 10.5743 16.0534 10.5743 15.7772V8.22278C10.5743 7.94664 10.3504 7.72278 10.0743 7.72278Z" stroke="black" stroke-width="1.5" stroke-linecap="round" stroke-linejoin="round"/>
<path d="M15.7772 7.72278H13.9258C13.6496 7.72278 13.4258 7.94664 13.4258 8.22278V15.7772C13.4258 16.0534 13.6496 16.2772 13.9258 16.2772H15.7772C16.0534 16.2772 16.2772 16.0534 16.2772 15.7772V8.22278C16.2772 7.94664 16.0534 7.72278 15.7772 7.72278Z" stroke="black" stroke-width="1.5" stroke-linecap="round" stroke-linejoin="round"/>
</svg>
