<svg width="24" height="24" viewBox="0 0 24 24" fill="none" xmlns="http://www.w3.org/2000/svg">
<path d="M14.5 7.66986L9.5 16.3301" stroke="black" stroke-width="1.5" stroke-linecap="round" stroke-linejoin="round"/>
<path d="M14.3142 14.5135C13.7619 14.5135 13.3142 14.9613 13.3142 15.5135C13.3142 16.0658 13.7619 16.5135 14.3142 16.5135C14.8664 16.5135 15.3142 16.0658 15.3142 15.5135C15.3142 14.9613 14.8664 14.5135 14.3142 14.5135Z" stroke="black" stroke-width="1.5" stroke-linecap="round" stroke-linejoin="round"/>
<path d="M9.68579 9.48645C10.2381 9.48645 10.6858 9.03874 10.6858 8.48645C10.6858 7.93417 10.2381 7.48645 9.68579 7.48645C9.1335 7.48645 8.68579 7.93417 8.68579 8.48645C8.68579 9.03874 9.1335 9.48645 9.68579 9.48645Z" stroke="black" stroke-width="1.5" stroke-linecap="round" stroke-linejoin="round"/>
<path d="M16.46 3H7.54C5.03263 3 3 5.03263 3 7.54V16.46C3 18.9674 5.03263 21 7.54 21H16.46C18.9674 21 21 18.9674 21 16.46V7.54C21 5.03263 18.9674 3 16.46 3Z" stroke="black" stroke-width="1.5" stroke-linecap="round" stroke-linejoin="round"/>
</svg>
