<svg width="24" height="24" viewBox="0 0 24 24" fill="none" xmlns="http://www.w3.org/2000/svg">
<path d="M12.6653 19.3803C12.3853 19.2503 12.1153 19.1203 11.8553 18.9803C10.5088 18.2159 9.27112 17.2742 8.17536 16.1803C6.74306 14.8541 5.56388 13.2784 4.69536 11.5303C4.24763 10.5829 3.95394 9.5702 3.82536 8.53029C3.62084 7.48729 3.73585 6.40685 4.15536 5.43029C4.41332 5.00162 4.72594 4.60832 5.08536 4.26029C5.22747 4.09938 5.40107 3.96933 5.59543 3.87817C5.78979 3.78701 6.00078 3.73668 6.21536 3.73029C6.44164 3.75709 6.66016 3.82938 6.85779 3.9428C7.05541 4.05622 7.22806 4.20843 7.36536 4.39029C7.99536 5.07029 8.64536 5.70029 9.30536 6.39029C9.55898 6.61373 9.71956 6.92418 9.75536 7.26029C9.72987 7.5268 9.62145 7.77861 9.44536 7.98029C9.21536 8.26029 8.95536 8.51029 8.70536 8.78029C8.55978 8.9218 8.44747 9.09391 8.37657 9.28415C8.30566 9.47439 8.27792 9.67801 8.29536 9.88029C8.45486 10.3688 8.72525 10.8137 9.08536 11.1803C9.52536 11.7703 9.96536 12.3603 10.4453 12.9103C11.3351 13.9279 12.3857 14.7927 13.5553 15.4703C13.7136 15.5853 13.8983 15.6585 14.0924 15.6829C14.2864 15.7074 14.4835 15.6824 14.6653 15.6103C15.0482 15.391 15.3872 15.1028 15.6653 14.7603C15.9176 14.4594 16.2754 14.2662 16.6653 14.2203C17.0134 14.2331 17.3431 14.38 17.5853 14.6303C17.8853 14.9003 18.1553 15.2103 18.4453 15.5003C18.7353 15.7903 18.9553 15.9903 19.1953 16.2503C19.4802 16.5085 19.7506 16.7823 20.0053 17.0703C20.106 17.1937 20.1809 17.336 20.2256 17.4889C20.2703 17.6418 20.2838 17.8021 20.2653 17.9603C20.1758 18.3534 19.9576 18.7053 19.6453 18.9603C19.2119 19.409 18.6859 19.7577 18.1038 19.9822C17.5218 20.2068 16.8978 20.3016 16.2753 20.2603C15.0261 20.2054 13.7997 19.9064 12.6653 19.3803Z" stroke="black" stroke-width="1.5" stroke-miterlimit="10" stroke-linecap="round"/>
<path d="M16.6354 6.35028L13.3854 9.60028" stroke="black" stroke-width="1.5" stroke-miterlimit="10" stroke-linecap="round"/>
<path d="M13.3854 6.35028L16.6354 9.60028" stroke="black" stroke-width="1.5" stroke-miterlimit="10" stroke-linecap="round"/>
</svg>
