<svg width="24" height="24" viewBox="0 0 24 24" fill="none" xmlns="http://www.w3.org/2000/svg">
<path d="M12.655 19.405C12.375 19.275 12.105 19.145 11.845 19.005C10.4985 18.2407 9.26075 17.2989 8.16499 16.205C6.73269 14.8788 5.5535 13.3032 4.68499 11.555C4.23726 10.6076 3.94357 9.59491 3.81499 8.55501C3.61047 7.51201 3.72548 6.43157 4.14499 5.455C4.40295 5.02633 4.71557 4.63304 5.07499 4.28501C5.2171 4.1241 5.3907 3.99405 5.58506 3.90289C5.77942 3.81173 5.99041 3.7614 6.20499 3.755C6.43127 3.78181 6.64979 3.85409 6.84742 3.96751C7.04504 4.08093 7.21769 4.23315 7.35499 4.415C7.98499 5.095 8.63499 5.725 9.29499 6.415C9.54861 6.63844 9.70919 6.9489 9.74499 7.28501C9.71949 7.55152 9.61107 7.80333 9.43499 8.005C9.20499 8.285 8.94499 8.53501 8.69499 8.80501C8.54941 8.94652 8.4371 9.11863 8.3662 9.30888C8.29529 9.49912 8.26755 9.70273 8.28499 9.905C8.44449 10.3935 8.71488 10.8384 9.07499 11.205C9.51499 11.795 9.95499 12.385 10.435 12.935C11.3247 13.9527 12.3753 14.8175 13.545 15.495C13.7032 15.61 13.8879 15.6832 14.082 15.7077C14.2761 15.7321 14.4732 15.7071 14.655 15.635C15.0378 15.4157 15.3769 15.1275 15.655 14.785C15.9073 14.4841 16.265 14.2909 16.655 14.245C17.0031 14.2579 17.3327 14.4048 17.575 14.655C17.875 14.925 18.145 15.235 18.435 15.525C18.725 15.815 18.945 16.015 19.185 16.275C19.4699 16.5332 19.7403 16.807 19.995 17.095C20.0957 17.2184 20.1706 17.3608 20.2152 17.5136C20.2599 17.6665 20.2734 17.8268 20.255 17.985C20.1655 18.3781 19.9473 18.73 19.635 18.985C19.2016 19.4337 18.6755 19.7824 18.0935 20.007C17.5114 20.2315 16.8874 20.3264 16.265 20.285C15.0158 20.2301 13.7894 19.9311 12.655 19.405Z" stroke="black" stroke-width="1.5" stroke-miterlimit="10" stroke-linecap="round"/>
<path d="M12.705 8.005H17.295" stroke="black" stroke-width="1.5" stroke-miterlimit="10" stroke-linecap="round"/>
</svg>
