<svg width="24" height="24" viewBox="0 0 24 24" fill="none" xmlns="http://www.w3.org/2000/svg">
<path d="M12.2191 19.5588C11.953 19.4368 11.6868 19.3148 11.4207 19.1707C10.1168 18.4344 8.91919 17.5241 7.86085 16.4648C6.48861 15.1733 5.36146 13.6442 4.53392 11.9512C4.09053 11.0419 3.79123 10.0692 3.64674 9.06789C3.44999 8.05653 3.56204 7.00938 3.96835 6.06256C4.21875 5.65575 4.52067 5.28301 4.86662 4.95358C5.00685 4.79651 5.17736 4.66938 5.36792 4.57982C5.55848 4.49026 5.76517 4.4401 5.97559 4.43237C6.4136 4.49792 6.81017 4.72793 7.08457 5.07557C7.68342 5.74096 8.32662 6.3398 8.95874 6.97192C9.20763 7.18545 9.3629 7.48803 9.39124 7.81474C9.38058 8.08963 9.27473 8.35228 9.09182 8.55776C8.88111 8.82391 8.62605 9.06788 8.38207 9.32295C8.23483 9.46472 8.12222 9.63851 8.05298 9.83083C7.98375 10.0231 7.95975 10.2288 7.98284 10.4319C8.13518 10.9075 8.39731 11.3406 8.74803 11.6962C9.16944 12.2728 9.59085 12.8051 10.0677 13.3707C10.9245 14.36 11.9402 15.1995 13.073 15.8548C13.2296 15.9731 13.4147 16.0478 13.6096 16.0712C13.8044 16.0945 14.0019 16.0658 14.182 15.9879C14.5586 15.7772 14.8932 15.4991 15.169 15.1673C15.4075 14.8767 15.7494 14.6898 16.1227 14.646C16.4549 14.6629 16.7681 14.8057 16.9988 15.0453C17.2982 15.3003 17.5533 15.5998 17.8305 15.877C18.1078 16.1542 18.3296 16.3539 18.5625 16.6089C18.8413 16.8545 19.1043 17.1175 19.3498 17.3963C19.5402 17.6425 19.6313 17.9512 19.6049 18.2613C19.5061 18.632 19.2926 18.9619 18.995 19.2039C18.5764 19.6393 18.0677 19.9781 17.5045 20.1965C16.9414 20.4148 16.3373 20.5076 15.7346 20.4682C14.5143 20.3997 13.3195 20.0907 12.2191 19.5588Z" stroke="black" stroke-width="1.5" stroke-miterlimit="10" stroke-linecap="round"/>
<path d="M16.8591 11.5419C16.8591 10.3493 16.3854 9.20549 15.542 8.36215C14.6987 7.51882 13.5549 7.04504 12.3622 7.04504" stroke="black" stroke-width="1.5" stroke-miterlimit="10" stroke-linecap="round"/>
<path d="M19.9415 11.2276C19.9415 9.31939 19.1835 7.4893 17.8341 6.13997C16.4848 4.79063 14.6547 4.03259 12.7465 4.03259" stroke="black" stroke-width="1.5" stroke-miterlimit="10" stroke-linecap="round"/>
</svg>
