<svg width="24" height="24" viewBox="0 0 24 24" fill="none" xmlns="http://www.w3.org/2000/svg">
<path d="M7.75181 15.764C6.49467 14.5355 5.45787 13.1003 4.68665 11.5208C4.24517 10.5804 3.95196 9.57729 3.81743 8.54715C3.61451 7.50412 3.73008 6.42416 4.1491 5.44768C4.40735 5.02813 4.71873 4.64371 5.07551 4.30397C5.22014 4.14198 5.39599 4.01086 5.59252 3.91849C5.78906 3.82612 6.00222 3.7744 6.21923 3.76642C6.67096 3.83403 7.07995 4.07124 7.36294 4.42978C7.98055 5.11601 8.64391 5.73361 9.29583 6.38553C9.55251 6.60575 9.71265 6.91781 9.74187 7.25475C9.73088 7.53826 9.62172 7.80913 9.43307 8.02104C9.21577 8.29553 8.95271 8.54715 8.70109 8.81021C8.54924 8.95642 8.4331 9.13565 8.3617 9.334C8.29029 9.53234 8.26554 9.74447 8.28936 9.95392C8.44647 10.4444 8.71681 10.8911 9.07852 11.2577C9.51313 11.8525 9.94774 12.4015 10.4395 12.9848L10.5196 13.0648" stroke="black" stroke-width="1.5" stroke-miterlimit="10" stroke-linecap="round"/>
<path d="M12.1894 14.5402C12.6124 14.8864 13.0639 15.1963 13.539 15.4666C13.7004 15.5886 13.8914 15.6656 14.0923 15.6897C14.2932 15.7139 14.4969 15.6842 14.6827 15.6039C15.0711 15.3866 15.4161 15.0997 15.7006 14.7575C15.9466 14.4578 16.2991 14.2651 16.6842 14.22C17.0267 14.2374 17.3498 14.3846 17.5877 14.6317C17.8965 14.8948 18.1596 15.2036 18.4455 15.4895C18.7314 15.7754 18.9602 15.9813 19.2004 16.2443C19.4879 16.4976 19.7591 16.7688 20.0124 17.0564C20.2088 17.3103 20.3026 17.6287 20.2755 17.9485C20.1735 18.3308 19.9534 18.671 19.6464 18.9206C19.2147 19.3697 18.6901 19.7191 18.1093 19.9443C17.5285 20.1695 16.9055 20.2651 16.2839 20.2245C15.0424 20.1746 13.8226 19.8832 12.6926 19.3667C12.4181 19.2409 12.1436 19.1151 11.8691 18.9664C11.0127 18.4933 10.2045 17.9379 9.45593 17.308" stroke="black" stroke-width="1.5" stroke-miterlimit="10" stroke-linecap="round"/>
<path d="M4.74377 18.7605L17.382 6.37823" stroke="black" stroke-width="1.5" stroke-miterlimit="10" stroke-linecap="round"/>
</svg>
