<svg width="24" height="24" viewBox="0 0 24 24" fill="none" xmlns="http://www.w3.org/2000/svg">
<path d="M16.5839 2.75H7.41611C4.83909 2.75 2.75 4.83909 2.75 7.41611V16.5839C2.75 19.1609 4.83909 21.25 7.41611 21.25H16.5839C19.1609 21.25 21.25 19.1609 21.25 16.5839V7.41611C21.25 4.83909 19.1609 2.75 16.5839 2.75Z" stroke="black" stroke-width="1.5" stroke-linecap="round" stroke-linejoin="round"/>
<path d="M8.98993 7.9728V16.0248C8.99033 16.1899 9.0369 16.3516 9.12438 16.4916C9.21187 16.6316 9.33678 16.7443 9.48498 16.817C9.63319 16.8898 9.79879 16.9196 9.96305 16.9031C10.1273 16.8866 10.2837 16.8245 10.4145 16.7238L15.989 12.3881C16.0994 12.302 16.1877 12.1909 16.2468 12.0639C16.3059 11.9369 16.334 11.7978 16.3288 11.6578C16.3236 11.5179 16.2853 11.3812 16.217 11.259C16.1487 11.1367 16.0523 11.0324 15.9359 10.9547L10.3614 7.23839C10.2283 7.15075 10.0741 7.10067 9.91489 7.09344C9.75571 7.08621 9.59753 7.1221 9.45705 7.19733C9.31658 7.27255 9.19903 7.38431 9.11681 7.5208C9.03459 7.65729 8.99075 7.81346 8.98993 7.9728Z" stroke="black" stroke-width="1.5" stroke-linecap="round" stroke-linejoin="round"/>
</svg>
