<svg width="24" height="24" viewBox="0 0 24 24" fill="none" xmlns="http://www.w3.org/2000/svg">
<path d="M16.46 3H7.54C5.03263 3 3 5.03263 3 7.54V16.46C3 18.9674 5.03263 21 7.54 21H16.46C18.9674 21 21 18.9674 21 16.46V7.54C21 5.03263 18.9674 3 16.46 3Z" stroke="black" stroke-width="1.5" stroke-linecap="round" stroke-linejoin="round"/>
<path d="M9.07129 8.08158V15.916C9.07167 16.0766 9.11699 16.2339 9.20211 16.3701C9.28723 16.5063 9.40876 16.616 9.55296 16.6868C9.69717 16.7575 9.85829 16.7865 10.0181 16.7705C10.1779 16.7545 10.3301 16.6941 10.4574 16.5961L15.8812 12.3776C15.9886 12.2937 16.0745 12.1856 16.132 12.0621C16.1895 11.9386 16.2169 11.8032 16.2118 11.667C16.2068 11.5309 16.1695 11.3979 16.103 11.2789C16.0366 11.16 15.9428 11.0585 15.8295 10.9829L10.4057 7.36702C10.2762 7.28174 10.1261 7.23302 9.97125 7.22598C9.81637 7.21895 9.66247 7.25387 9.52579 7.32706C9.38911 7.40025 9.27474 7.50899 9.19474 7.64179C9.11474 7.7746 9.07209 7.92654 9.07129 8.08158Z" stroke="black" stroke-width="1.5" stroke-linecap="round" stroke-linejoin="round"/>
</svg>
