<svg width="24" height="24" viewBox="0 0 24 24" fill="none" xmlns="http://www.w3.org/2000/svg">
<path d="M5.64386 5.02467V18.9711C5.64455 19.257 5.72521 19.5371 5.87674 19.7796C6.02827 20.0221 6.24461 20.2173 6.50132 20.3433C6.75802 20.4693 7.04484 20.5209 7.32935 20.4924C7.61387 20.4638 7.88473 20.3563 8.11131 20.1818L17.7665 12.6722C17.9577 12.523 18.1108 12.3305 18.2131 12.1106C18.3154 11.8907 18.3641 11.6497 18.3551 11.4073C18.3461 11.165 18.2798 10.9282 18.1615 10.7165C18.0432 10.5047 17.8763 10.3241 17.6746 10.1894L8.01935 3.75264C7.78885 3.60084 7.52164 3.5141 7.24593 3.50158C6.97022 3.48906 6.69625 3.55122 6.45294 3.68151C6.20964 3.8118 6.00603 4.00537 5.86362 4.24178C5.72121 4.4782 5.64528 4.74868 5.64386 5.02467Z" stroke="black" stroke-width="1.5" stroke-linecap="round" stroke-linejoin="round"/>
</svg>
