<svg width="24" height="24" viewBox="0 0 24 24" fill="none" xmlns="http://www.w3.org/2000/svg">
<path d="M8.87967 8.53992C9.18518 7.87725 9.70229 7.33494 10.3497 6.99828C10.9971 6.66163 11.738 6.54975 12.456 6.68023C12.9474 6.75705 13.4142 6.94734 13.8193 7.23602C14.2243 7.52468 14.5565 7.90377 14.7895 8.34322C14.9565 8.6954 15.0471 9.0789 15.0552 9.46856C15.0634 9.85821 14.9891 10.2452 14.8371 10.6041C14.6851 10.963 14.4589 11.2856 14.1733 11.5509C13.8877 11.8161 13.5493 12.0179 13.1802 12.1431C12.8043 12.287 12.4793 12.5384 12.2455 12.8659C12.0117 13.1935 11.8798 13.5827 11.8659 13.9848V14.7448" stroke="black" stroke-width="1.5" stroke-miterlimit="10" stroke-linecap="round"/>
<path d="M11.9598 17.1617H11.9687" stroke="black" stroke-width="2" stroke-linecap="round" stroke-linejoin="round"/>
<path d="M16.5839 2.75H7.41611C4.83909 2.75 2.75 4.83909 2.75 7.41611V16.5839C2.75 19.1609 4.83909 21.25 7.41611 21.25H16.5839C19.1609 21.25 21.25 19.1609 21.25 16.5839V7.41611C21.25 4.83909 19.1609 2.75 16.5839 2.75Z" stroke="black" stroke-width="1.5" stroke-linecap="round" stroke-linejoin="round"/>
</svg>
