<svg width="24" height="24" viewBox="0 0 24 24" fill="none" xmlns="http://www.w3.org/2000/svg">
<path d="M17.2695 7.56872C16.5789 6.87477 15.7577 6.32449 14.8532 5.94964C13.9488 5.5748 12.979 5.38282 12 5.38478C10.0232 5.38478 8.12744 6.17007 6.72964 7.56786C5.33184 8.96566 4.54657 10.8615 4.54657 12.8382C4.54657 14.816 5.33152 16.7128 6.72903 18.1122C8.12654 19.5116 10.0223 20.2991 12 20.3017C13.9777 20.2991 15.8735 19.5116 17.271 18.1122C18.6685 16.7128 19.4535 14.816 19.4535 12.8382" stroke="black" stroke-width="1.5" stroke-miterlimit="10" stroke-linecap="round"/>
<path d="M16.5883 2.91028L17.4799 6.53683C17.5587 6.85827 17.507 7.19783 17.3362 7.48129C17.1653 7.76474 16.8893 7.96907 16.5682 8.04957L12.9317 8.94117" stroke="black" stroke-width="1.5" stroke-linecap="round" stroke-linejoin="round"/>
</svg>
