<svg width="24" height="24" viewBox="0 0 24 24" fill="none" xmlns="http://www.w3.org/2000/svg">
<path d="M17.7223 16.708C16.61 17.8169 15.1944 18.5717 13.6538 18.8772C12.1132 19.1827 10.5166 19.0252 9.06537 18.4246C7.61414 17.824 6.37322 16.8072 5.49905 15.5024C4.62488 14.1976 4.1566 12.6631 4.15326 11.0926" stroke="black" stroke-width="1.5" stroke-miterlimit="10" stroke-linecap="round"/>
<path d="M17.0817 20.7862L17.8717 17.5834C17.9081 17.4438 17.9157 17.2983 17.8942 17.1556C17.8727 17.013 17.8226 16.8762 17.7467 16.7534C17.6709 16.6307 17.571 16.5246 17.453 16.4416C17.3351 16.3586 17.2015 16.3003 17.0604 16.2703L13.8576 15.4696" stroke="black" stroke-width="1.5" stroke-linecap="round" stroke-linejoin="round"/>
<path d="M6.27771 7.29188C7.38996 6.18298 8.80562 5.42828 10.3463 5.12278C11.8868 4.81728 13.4834 4.97478 14.9346 5.57528C16.3859 6.17588 17.6268 7.19268 18.501 8.49758C19.3751 9.80238 19.8434 11.3369 19.8467 12.9074" stroke="black" stroke-width="1.5" stroke-miterlimit="10" stroke-linecap="round"/>
<path d="M6.91828 3.21377L6.12827 6.41647C6.09194 6.55607 6.08429 6.70167 6.10577 6.84427C6.12725 6.98697 6.17742 7.12377 6.25325 7.24647C6.32908 7.36927 6.429 7.47537 6.54697 7.55837C6.66494 7.64137 6.79852 7.69967 6.93964 7.72967L10.1424 8.53027" stroke="black" stroke-width="1.5" stroke-linecap="round" stroke-linejoin="round"/>
</svg>
