<svg width="24" height="24" viewBox="0 0 24 24" fill="none" xmlns="http://www.w3.org/2000/svg">
<path d="M14.706 4.3125H9.294C6.5428 4.3125 4.3125 6.5428 4.3125 9.294V14.706C4.3125 17.4572 6.5428 19.6875 9.294 19.6875H14.706C17.4572 19.6875 19.6875 17.4572 19.6875 14.706V9.294C19.6875 6.5428 17.4572 4.3125 14.706 4.3125Z" stroke="black" stroke-width="1.5"/>
<path d="M19.6055 15.5875H21.225C21.4969 15.5875 21.7576 15.4796 21.9498 15.2873C22.142 15.0951 22.25 14.8344 22.25 14.5625V9.43754C22.25 9.16569 22.142 8.90498 21.9498 8.71275C21.7576 8.52053 21.4969 8.41254 21.225 8.41254H19.6055" stroke="black" stroke-width="1.5"/>
<path d="M4.3945 15.5875H2.775C2.50315 15.5875 2.24244 15.4796 2.05022 15.2873C1.85799 15.0951 1.75 14.8344 1.75 14.5625V9.43754C1.75 9.16569 1.85799 8.90498 2.05022 8.71275C2.24244 8.52053 2.50315 8.41254 2.775 8.41254H4.3945" stroke="black" stroke-width="1.5"/>
<path d="M2.76474 8.4125V4.3125" stroke="black" stroke-width="1.5" stroke-linecap="round" stroke-linejoin="round"/>
<path d="M21.225 8.4125L21.2148 4.3125" stroke="black" stroke-width="1.5" stroke-linecap="round" stroke-linejoin="round"/>
<path d="M13.5065 7.70441H10.4935C8.95314 7.70441 7.70441 8.95314 7.70441 10.4935V13.5065C7.70441 15.0469 8.95314 16.2956 10.4935 16.2956H13.5065C15.0469 16.2956 16.2956 15.0469 16.2956 13.5065V10.4935C16.2956 8.95314 15.0469 7.70441 13.5065 7.70441Z" stroke="black" stroke-width="1.5"/>
</svg>
