<svg width="24" height="24" viewBox="0 0 24 24" fill="none" xmlns="http://www.w3.org/2000/svg">
<path d="M14.508 4.875H9.492C6.9421 4.875 4.875 6.9421 4.875 9.492V14.508C4.875 17.0579 6.9421 19.125 9.492 19.125H14.508C17.0579 19.125 19.125 17.0579 19.125 14.508V9.492C19.125 6.9421 17.0579 4.875 14.508 4.875Z" stroke="black" stroke-width="1.5"/>
<path d="M19.049 15.325H20.55C20.802 15.325 21.0436 15.2249 21.2217 15.0467C21.3999 14.8686 21.5 14.6269 21.5 14.375V9.62499C21.5 9.37303 21.3999 9.1314 21.2217 8.95324C21.0436 8.77508 20.802 8.67499 20.55 8.67499H19.049" stroke="black" stroke-width="1.5"/>
<path d="M4.951 15.325H3.45C3.19804 15.325 2.95641 15.2249 2.77825 15.0467C2.60009 14.8686 2.5 14.6269 2.5 14.375V9.62499C2.5 9.37303 2.60009 9.1314 2.77825 8.95324C2.95641 8.77508 3.19804 8.67499 3.45 8.67499H4.951" stroke="black" stroke-width="1.5"/>
<path d="M3.44049 8.675V4.875" stroke="black" stroke-width="1.5" stroke-linecap="round" stroke-linejoin="round"/>
<path d="M20.55 8.675L20.5405 4.875" stroke="black" stroke-width="1.5" stroke-linecap="round" stroke-linejoin="round"/>
<path d="M10.0905 15.325H13.8905" stroke="black" stroke-width="1.5" stroke-linecap="round" stroke-linejoin="round"/>
<path d="M8.18099 11.05L9.13099 10.1L10.081 11.05" stroke="black" stroke-width="1.5" stroke-linecap="round" stroke-linejoin="round"/>
<path d="M13.881 11.05L14.831 10.1L15.781 11.05" stroke="black" stroke-width="1.5" stroke-linecap="round" stroke-linejoin="round"/>
</svg>
