<svg width="24" height="24" viewBox="0 0 24 24" fill="none" xmlns="http://www.w3.org/2000/svg">
<path d="M14.706 4.3125H9.294C6.5428 4.3125 4.3125 6.5428 4.3125 9.294V14.706C4.3125 17.4572 6.5428 19.6875 9.294 19.6875H14.706C17.4572 19.6875 19.6875 17.4572 19.6875 14.706V9.294C19.6875 6.5428 17.4572 4.3125 14.706 4.3125Z" stroke="black" stroke-width="1.5"/>
<path d="M19.6055 15.5875H21.225C21.4968 15.5875 21.7576 15.4796 21.9498 15.2873C22.142 15.0951 22.25 14.8344 22.25 14.5625V9.43754C22.25 9.16569 22.142 8.90498 21.9498 8.71275C21.7576 8.52053 21.4968 8.41254 21.225 8.41254H19.6055" stroke="black" stroke-width="1.5"/>
<path d="M4.3945 15.5875H2.775C2.50315 15.5875 2.24244 15.4796 2.05022 15.2873C1.85799 15.0951 1.75 14.8344 1.75 14.5625V9.43754C1.75 9.16569 1.85799 8.90498 2.05022 8.71275C2.24244 8.52053 2.50315 8.41254 2.775 8.41254H4.3945" stroke="black" stroke-width="1.5"/>
<path d="M2.76474 8.4125V4.3125" stroke="black" stroke-width="1.5" stroke-linecap="round" stroke-linejoin="round"/>
<path d="M21.225 8.4125L21.2148 4.3125" stroke="black" stroke-width="1.5" stroke-linecap="round" stroke-linejoin="round"/>
<path d="M9.95004 15.2368C10.4953 15.7777 11.2321 16.0811 12 16.0811C12.768 16.0811 13.5048 15.7777 14.05 15.2368" stroke="black" stroke-width="1.5" stroke-linecap="round" stroke-linejoin="round"/>
<path d="M7.87949 10.975L8.90449 9.95001L9.92949 10.975" stroke="black" stroke-width="1.5" stroke-linecap="round" stroke-linejoin="round"/>
<path d="M14.0295 10.975L15.0545 9.95001L16.0795 10.975" stroke="black" stroke-width="1.5" stroke-linecap="round" stroke-linejoin="round"/>
</svg>
