<svg width="24" height="24" viewBox="0 0 24 24" fill="none" xmlns="http://www.w3.org/2000/svg">
<path d="M13.2807 3.01245L17.6222 4.86841C18.2087 5.11932 18.7085 5.53699 19.0597 6.06954C19.4109 6.6021 19.5979 7.22607 19.5975 7.86399V14.8862C19.5986 15.4065 19.475 15.9194 19.237 16.3821C18.9991 16.8447 18.6538 17.2436 18.23 17.5454L13.8885 20.6386C13.335 21.0362 12.6707 21.25 11.9892 21.25C11.3077 21.25 10.6433 21.0362 10.0898 20.6386L5.74838 17.5454C5.32858 17.2413 4.98745 16.8413 4.75337 16.3788C4.51928 15.9163 4.39901 15.4046 4.40254 14.8862V7.86399C4.40216 7.22607 4.58916 6.6021 4.94034 6.06954C5.29152 5.53699 5.79139 5.11932 6.37789 4.86841L10.7193 3.01245C11.1241 2.83928 11.5598 2.75 12 2.75C12.4403 2.75 12.876 2.83928 13.2807 3.01245Z" stroke="black" stroke-width="1.5" stroke-linecap="round" stroke-linejoin="round"/>
<path d="M12 11.9992C13.1989 11.9992 14.1707 11.0273 14.1707 9.82846C14.1707 8.62961 13.1989 7.65775 12 7.65775C10.8012 7.65775 9.82932 8.62961 9.82932 9.82846C9.82932 11.0273 10.8012 11.9992 12 11.9992Z" stroke="black" stroke-width="1.5" stroke-linecap="round" stroke-linejoin="round"/>
<path d="M12 11.9992V15.2552" stroke="black" stroke-width="1.5" stroke-linecap="round" stroke-linejoin="round"/>
</svg>
