<svg width="24" height="24" viewBox="0 0 24 24" fill="none" xmlns="http://www.w3.org/2000/svg">
<path d="M4.06812 10.4868V13.5336C4.06812 14.0945 4.52282 14.5492 5.08372 14.5492L18.9061 14.5492C19.467 14.5492 19.9217 14.0945 19.9217 13.5336V10.4868C19.9217 9.92587 19.467 9.47117 18.9061 9.47117H5.08372C4.52282 9.47117 4.06812 9.92587 4.06812 10.4868Z" stroke="black" stroke-width="1.5" stroke-linecap="round" stroke-linejoin="round"/>
<path d="M16.8851 12.0102H14.2242" stroke="black" stroke-width="1.5" stroke-linecap="round" stroke-linejoin="round"/>
<path d="M4.06548 5.43326L4.07506 8.48007C4.07682 9.04097 4.53295 9.49424 5.09385 9.49248L18.9162 9.44905C19.4771 9.44729 19.9303 8.99116 19.9286 8.43026L19.919 5.38346C19.9172 4.82256 19.4611 4.36929 18.9002 4.37105L5.07789 4.41447C4.51699 4.41624 4.06372 4.87236 4.06548 5.43326Z" stroke="black" stroke-width="1.5" stroke-linecap="round" stroke-linejoin="round"/>
<path d="M16.8851 6.922H14.2242" stroke="black" stroke-width="1.5" stroke-linecap="round" stroke-linejoin="round"/>
<path d="M4.06812 15.5648V18.6116C4.06812 19.1725 4.52282 19.6272 5.08372 19.6272H18.9061C19.467 19.6272 19.9217 19.1725 19.9217 18.6116V15.5648C19.9217 15.0039 19.467 14.5492 18.9061 14.5492H5.08372C4.52282 14.5492 4.06812 15.0039 4.06812 15.5648Z" stroke="black" stroke-width="1.5" stroke-linecap="round" stroke-linejoin="round"/>
<path d="M16.8851 17.0882H14.2242" stroke="black" stroke-width="1.5" stroke-linecap="round" stroke-linejoin="round"/>
</svg>
