<svg width="24" height="24" viewBox="0 0 24 24" fill="none" xmlns="http://www.w3.org/2000/svg">
<path d="M4.18204 6.03964L4.19156 10.9996C4.19262 11.5519 4.6412 11.9988 5.19348 11.9977L18.8035 11.9716C19.3557 11.9705 19.8026 11.522 19.8015 10.9697L19.792 6.00968C19.791 5.45739 19.3424 5.01054 18.7901 5.0116L5.18012 5.03773C4.62783 5.03879 4.18098 5.48736 4.18204 6.03964Z" stroke="black" stroke-width="1.5" stroke-linecap="round" stroke-linejoin="round"/>
<path d="M16.8099 8.5H14.1899" stroke="black" stroke-width="1.5" stroke-linecap="round" stroke-linejoin="round"/>
<path d="M4.18994 13V18C4.18994 18.5523 4.63766 19 5.18994 19H18.7999C19.3522 19 19.7999 18.5523 19.7999 18V13C19.7999 12.4477 19.3522 12 18.7999 12H5.18994C4.63766 12 4.18994 12.4477 4.18994 13Z" stroke="black" stroke-width="1.5" stroke-linecap="round" stroke-linejoin="round"/>
<path d="M16.8099 15.5H14.1899" stroke="black" stroke-width="1.5" stroke-linecap="round" stroke-linejoin="round"/>
</svg>
