<svg width="24" height="24" viewBox="0 0 24 24" fill="none" xmlns="http://www.w3.org/2000/svg">
<path d="M6.01472 15.8088C7.81776 15.8088 9.27942 14.3472 9.27942 12.5441C9.27942 10.7411 7.81776 9.27942 6.01472 9.27942C4.21167 9.27942 2.75001 10.7411 2.75001 12.5441C2.75001 14.3472 4.21167 15.8088 6.01472 15.8088Z" stroke="black" stroke-width="1.5" stroke-linecap="round" stroke-linejoin="round"/>
<path d="M17.9853 9.27941C19.7883 9.27941 21.25 7.81775 21.25 6.01471C21.25 4.21166 19.7883 2.75 17.9853 2.75C16.1822 2.75 14.7206 4.21166 14.7206 6.01471C14.7206 7.81775 16.1822 9.27941 17.9853 9.27941Z" stroke="black" stroke-width="1.5" stroke-linecap="round" stroke-linejoin="round"/>
<path d="M17.9853 21.25C19.7883 21.25 21.25 19.7883 21.25 17.9853C21.25 16.1822 19.7883 14.7206 17.9853 14.7206C16.1822 14.7206 14.7206 16.1822 14.7206 17.9853C14.7206 19.7883 16.1822 21.25 17.9853 21.25Z" stroke="black" stroke-width="1.5" stroke-linecap="round" stroke-linejoin="round"/>
<path d="M15.0144 16.6359L8.9856 13.8935" stroke="black" stroke-width="1.5" stroke-linecap="round" stroke-linejoin="round"/>
<path d="M15.1124 7.58176L8.88765 10.9771" stroke="black" stroke-width="1.5" stroke-linecap="round" stroke-linejoin="round"/>
</svg>
