<svg width="24" height="24" viewBox="0 0 24 24" fill="none" xmlns="http://www.w3.org/2000/svg">
<path d="M13.2808 3.01245L17.6222 4.86841C18.2087 5.11932 18.7086 5.53699 19.0597 6.06954C19.4109 6.6021 19.5979 7.22607 19.5975 7.86399V14.8862C19.5986 15.4065 19.475 15.9194 19.237 16.3821C18.9991 16.8447 18.6538 17.2436 18.23 17.5454L13.8886 20.6386C13.335 21.0362 12.6707 21.25 11.9892 21.25C11.3077 21.25 10.6434 21.0362 10.0898 20.6386L5.7484 17.5454C5.3286 17.2413 4.98747 16.8413 4.75338 16.3788C4.5193 15.9163 4.39902 15.4046 4.40256 14.8862V7.86399C4.40217 7.22607 4.58918 6.6021 4.94035 6.06954C5.29153 5.53699 5.79141 5.11932 6.3779 4.86841L10.7193 3.01245C11.1241 2.83928 11.5598 2.75 12 2.75C12.4403 2.75 12.876 2.83928 13.2808 3.01245Z" stroke="black" stroke-width="1.5" stroke-linecap="round" stroke-linejoin="round"/>
<path d="M10.2783 9.04634C10.448 8.67632 10.7362 8.37345 11.0973 8.18567C11.4584 7.99787 11.8719 7.93589 12.2722 8.00952C12.5464 8.0516 12.807 8.1574 13.0329 8.31841C13.2589 8.47943 13.4439 8.69118 13.5732 8.93667C13.6662 9.13302 13.7168 9.34683 13.7213 9.56408C13.7259 9.78131 13.6844 9.99709 13.5997 10.1972C13.515 10.3972 13.3889 10.5771 13.2297 10.725C13.0704 10.8729 12.8818 10.9854 12.676 11.0551C12.466 11.1348 12.2844 11.2749 12.154 11.4576C12.0236 11.6403 11.9503 11.8576 11.9432 12.082V12.5057" stroke="black" stroke-width="1.5" stroke-miterlimit="10" stroke-linecap="round"/>
<path d="M11.9103 14.8456H11.9147" stroke="black" stroke-width="1.5" stroke-linecap="round" stroke-linejoin="round"/>
</svg>
