<svg width="24" height="24" viewBox="0 0 24 24" fill="none" xmlns="http://www.w3.org/2000/svg">
<path d="M10.2783 8.63389C10.448 8.26388 10.7361 7.96101 11.0973 7.77322C11.4584 7.58543 11.8719 7.52345 12.2722 7.59708C12.5464 7.63915 12.807 7.74495 13.0329 7.90597C13.2589 8.06698 13.4439 8.27874 13.5732 8.52423C13.6662 8.72057 13.7167 8.93439 13.7213 9.15163C13.7259 9.36887 13.6844 9.58465 13.5997 9.78472C13.515 9.9848 13.3889 10.1647 13.2296 10.3126C13.0704 10.4604 12.8818 10.573 12.676 10.6427C12.466 10.7224 12.2844 10.8624 12.154 11.0451C12.0236 11.2279 11.9502 11.4452 11.9432 11.6696V12.0932" stroke="black" stroke-width="1.5" stroke-miterlimit="10" stroke-linecap="round"/>
<path d="M11.9102 14.4331H11.9146" stroke="black" stroke-width="1.5" stroke-linecap="round" stroke-linejoin="round"/>
<path d="M20.6721 11.8898V6.60938C20.6724 6.20418 20.5451 5.80917 20.3081 5.4805C20.0711 5.15183 19.7365 4.90622 19.352 4.77858L14.4377 3.1405C12.8542 2.61983 11.1455 2.61983 9.56199 3.1405L4.64774 4.77858C4.26317 4.90622 3.92861 5.15183 3.69162 5.4805C3.45463 5.80917 3.32727 6.20418 3.32764 6.60938V11.8898C3.32787 13.1931 3.65856 14.4751 4.2888 15.616C4.91904 16.7568 5.82824 17.7192 6.93142 18.4132L10.9785 20.9571C11.2847 21.1485 11.6387 21.25 11.9998 21.25C12.361 21.25 12.715 21.1485 13.0212 20.9571L17.0683 18.4132C18.1715 17.7192 19.0807 16.7568 19.7109 15.616C20.3411 14.4751 20.6718 13.1931 20.6721 11.8898Z" stroke="black" stroke-width="1.5" stroke-linecap="round" stroke-linejoin="round"/>
</svg>
