<svg width="24" height="24" viewBox="0 0 24 24" fill="none" xmlns="http://www.w3.org/2000/svg">
<path d="M13.2808 3.01245L17.6222 4.86841C18.2087 5.11932 18.7086 5.53699 19.0597 6.06954C19.4109 6.6021 19.5979 7.22607 19.5975 7.86399V14.8862C19.5986 15.4065 19.475 15.9194 19.237 16.3821C18.9991 16.8447 18.6538 17.2436 18.23 17.5454L13.8886 20.6386C13.335 21.0362 12.6707 21.25 11.9892 21.25C11.3077 21.25 10.6434 21.0362 10.0898 20.6386L5.7484 17.5454C5.3286 17.2413 4.98747 16.8413 4.75338 16.3788C4.5193 15.9163 4.39902 15.4046 4.40256 14.8862V7.86399C4.40217 7.22607 4.58918 6.6021 4.94035 6.06954C5.29153 5.53699 5.79141 5.11932 6.3779 4.86841L10.7193 3.01245C11.1241 2.83928 11.5598 2.75 12 2.75C12.4403 2.75 12.876 2.83928 13.2808 3.01245Z" stroke="black" stroke-width="1.5" stroke-linecap="round" stroke-linejoin="round"/>
<path d="M8.67029 11.3861L10.5444 13.2602C10.6104 13.3269 10.6889 13.38 10.7754 13.4161C10.862 13.4522 10.9548 13.4709 11.0486 13.4709C11.1425 13.4709 11.2353 13.4522 11.3219 13.4161C11.4084 13.38 11.4869 13.3269 11.5529 13.2602L15.3297 9.4834" stroke="black" stroke-width="1.5" stroke-linecap="round" stroke-linejoin="round"/>
</svg>
