<svg width="24" height="24" viewBox="0 0 24 24" fill="none" xmlns="http://www.w3.org/2000/svg">
<path d="M8.34735 19.4172H8.35731" stroke="black" stroke-width="2.5" stroke-linecap="round" stroke-linejoin="round"/>
<path d="M16.8594 19.4172H16.8694" stroke="black" stroke-width="2.5" stroke-linecap="round" stroke-linejoin="round"/>
<path d="M5.96749 7.36763H10.0387C12.254 7.36763 14.4694 7.36763 16.6847 7.36763C17.1145 7.34881 17.5437 7.41485 17.9479 7.56196C18.1471 7.64115 18.3258 7.76448 18.4706 7.92268C18.6153 8.08087 18.7223 8.26982 18.7835 8.47531C18.8326 8.94256 18.7727 9.41482 18.6086 9.85505C18.5017 10.3214 18.4046 10.8267 18.3074 11.2542C18.0936 12.2259 17.8799 13.1975 17.705 14.1692C17.6634 14.6381 17.4842 15.0843 17.19 15.4517C17.0048 15.6212 16.7868 15.7509 16.5495 15.8328C16.3121 15.9146 16.0606 15.947 15.8103 15.9278C14.9746 15.9278 14.1293 15.9278 13.284 15.9278H10.2038C9.75149 15.9715 9.29595 15.9715 8.84357 15.9278C8.60692 15.9021 8.38138 15.8139 8.19013 15.6721C7.99888 15.5304 7.8488 15.3403 7.75532 15.1214C7.5948 14.5792 7.46824 14.0275 7.37638 13.4696C7.29865 13.0323 7.20148 12.5951 7.10432 12.1579C6.76424 10.5352 6.37558 8.93198 5.96749 7.36763ZM5.96749 7.36763C5.71486 6.33768 5.45252 5.30774 5.19989 4.27779" stroke="black" stroke-width="1.5" stroke-linecap="round" stroke-linejoin="round"/>
<path d="M18.1811 11.8469H7.03632" stroke="black" stroke-width="1.5" stroke-linecap="round" stroke-linejoin="round"/>
</svg>
