<svg width="24" height="24" viewBox="0 0 24 24" fill="none" xmlns="http://www.w3.org/2000/svg">
<path d="M20.708 10.0649C20.7064 10.6637 20.5195 11.2474 20.173 11.7359C19.8266 12.2244 19.3375 12.5938 18.7729 12.7934C18.4639 12.9106 18.1359 12.9696 17.8054 12.9675C17.2065 12.9659 16.6228 12.779 16.1343 12.4325C15.6458 12.0861 15.2765 11.597 15.0768 11.0324C14.9596 10.7234 14.9006 10.3954 14.9027 10.0649C14.9048 10.3954 14.8457 10.7234 14.7285 11.0324C14.5289 11.597 14.1595 12.0861 13.671 12.4325C13.1826 12.779 12.5989 12.9659 12 12.9675C11.4011 12.9659 10.8175 12.779 10.329 12.4325C9.84049 12.0861 9.47112 11.597 9.2715 11.0324C9.15429 10.7234 9.09524 10.3954 9.09734 10.0649C9.09944 10.3954 9.04039 10.7234 8.92318 11.0324C8.72356 11.597 8.35419 12.0861 7.8657 12.4325C7.37721 12.779 6.79353 12.9659 6.19467 12.9675C5.86417 12.9696 5.53613 12.9106 5.22711 12.7934C4.66249 12.5938 4.17344 12.2244 3.82699 11.7359C3.48055 11.2474 3.29368 10.6637 3.29199 10.0649L3.72739 8.53613L4.77236 5.55605C4.90491 5.17688 5.15217 4.84835 5.47984 4.61603C5.80752 4.38371 6.19937 4.25911 6.60104 4.25952H17.399C17.8007 4.25911 18.1925 4.38371 18.5202 4.61603C18.8479 4.84835 19.0951 5.17688 19.2277 5.55605L20.2726 8.53613L20.708 10.0649Z" stroke="black" stroke-width="1.5" stroke-linecap="round" stroke-linejoin="round"/>
<path d="M18.7729 12.7934V17.8053C18.7729 18.3186 18.569 18.8108 18.2061 19.1737C17.8432 19.5366 17.351 19.7405 16.8377 19.7405H7.16217C6.64894 19.7405 6.15674 19.5366 5.79383 19.1737C5.43093 18.8108 5.22705 18.3186 5.22705 17.8053V12.7934C5.53607 12.9106 5.86411 12.9697 6.19461 12.9676C6.79347 12.9659 7.37716 12.779 7.86564 12.4326C8.35413 12.0861 8.7235 11.5971 8.92312 11.0324C9.04034 10.7234 9.09938 10.3954 9.09728 10.0649C9.09518 10.3954 9.15423 10.7234 9.27144 11.0324C9.47106 11.5971 9.84044 12.0861 10.3289 12.4326C10.8174 12.779 11.4011 12.9659 12 12.9676C12.5988 12.9659 13.1825 12.779 13.671 12.4326C14.1595 12.0861 14.5288 11.5971 14.7285 11.0324C14.8457 10.7234 14.9047 10.3954 14.9026 10.0649C14.9005 10.3954 14.9596 10.7234 15.0768 11.0324C15.2764 11.5971 15.6458 12.0861 16.1343 12.4326C16.6228 12.779 17.2064 12.9659 17.8053 12.9676C18.1358 12.9697 18.4638 12.9106 18.7729 12.7934Z" stroke="black" stroke-width="1.5" stroke-linecap="round" stroke-linejoin="round"/>
<path d="M9.09741 16.8378H14.9028" stroke="black" stroke-width="1.5" stroke-linecap="round" stroke-linejoin="round"/>
</svg>
