<svg width="24" height="24" viewBox="0 0 24 24" fill="none" xmlns="http://www.w3.org/2000/svg">
<path d="M9.74308 7.41968C8.71713 7.92869 7.89338 8.76957 7.40558 9.80576C6.91778 10.842 6.79458 12.0126 7.05598 13.1277C7.31739 14.2427 7.94805 15.2367 8.84556 15.9481C9.74307 16.6595 10.8547 17.0467 12 17.0467C13.1453 17.0467 14.2569 16.6595 15.1544 15.9481C16.0519 15.2367 16.6826 14.2427 16.944 13.1277C17.2054 12.0126 17.0822 10.842 16.5944 9.80576C16.1066 8.76957 15.2828 7.92869 14.2569 7.41968" stroke="black" stroke-width="1.5" stroke-linecap="round" stroke-linejoin="round"/>
<path d="M12 6.36176V10.8756" stroke="black" stroke-width="1.5" stroke-linecap="round" stroke-linejoin="round"/>
<path d="M12 21.5C17.2467 21.5 21.5 17.2467 21.5 12C21.5 6.75329 17.2467 2.5 12 2.5C6.75329 2.5 2.5 6.75329 2.5 12C2.5 17.2467 6.75329 21.5 12 21.5Z" stroke="black" stroke-width="1.5" stroke-linecap="round" stroke-linejoin="round"/>
</svg>
