<svg width="24" height="24" viewBox="0 0 24 24" fill="none" xmlns="http://www.w3.org/2000/svg">
<path d="M19.5314 8.17171L16.243 9.87954L12.2439 11.9162C12.1694 11.958 12.0854 11.98 11.9999 11.98C11.9145 11.98 11.8305 11.958 11.756 11.9162L7.75686 9.87954L4.46849 8.17171C4.37927 8.12653 4.30432 8.05751 4.25195 7.97231C4.19959 7.88711 4.17188 7.78906 4.17188 7.68906C4.17188 7.58906 4.19959 7.49101 4.25195 7.40581C4.30432 7.32061 4.37927 7.25159 4.46849 7.20641L11.7666 3.63163C11.839 3.59524 11.9189 3.57629 11.9999 3.57629C12.081 3.57629 12.1609 3.59524 12.2333 3.63163L19.5314 7.20641C19.6206 7.25159 19.6955 7.32061 19.7479 7.40581C19.8003 7.49101 19.828 7.58906 19.828 7.68906C19.828 7.78906 19.8003 7.88711 19.7479 7.97231C19.6955 8.05751 19.6206 8.12653 19.5314 8.17171Z" stroke="black" stroke-width="1.5" stroke-linecap="round" stroke-linejoin="round"/>
<path d="M19.5315 12.4148L16.2431 14.1226L12.244 16.1593C12.1695 16.2011 12.0855 16.2231 12.0001 16.2231C11.9146 16.2231 11.8306 16.2011 11.7561 16.1593L7.75699 14.1226L4.46861 12.4148C4.37939 12.3696 4.30444 12.3006 4.25208 12.2154C4.19972 12.1302 4.172 12.0322 4.172 11.9322C4.172 11.8322 4.19972 11.7341 4.25208 11.6489C4.30444 11.5637 4.37939 11.4947 4.46861 11.4495L7.75699 9.87958L11.7561 11.9163C11.8306 11.9581 11.9146 11.98 12.0001 11.98C12.0855 11.98 12.1695 11.9581 12.244 11.9163L16.2431 9.87958L19.5315 11.4919C19.6105 11.5403 19.6758 11.6081 19.721 11.6889C19.7663 11.7697 19.7901 11.8608 19.7901 11.9534C19.7901 12.046 19.7663 12.1371 19.721 12.2179C19.6758 12.2986 19.6105 12.3665 19.5315 12.4148Z" stroke="black" stroke-width="1.5" stroke-linecap="round" stroke-linejoin="round"/>
<path d="M19.5315 16.6579L12.244 20.3599C12.1695 20.4017 12.0855 20.4237 12.0001 20.4237C11.9146 20.4237 11.8306 20.4017 11.7561 20.3599L4.46861 16.6579C4.37939 16.6127 4.30444 16.5437 4.25208 16.4585C4.19972 16.3733 4.172 16.2752 4.172 16.1752C4.172 16.0752 4.19972 15.9772 4.25208 15.892C4.30444 15.8067 4.37939 15.7377 4.46861 15.6926L7.75699 14.1226L11.7561 16.1593C11.8306 16.2011 11.9146 16.2231 12.0001 16.2231C12.0855 16.2231 12.1695 16.2011 12.244 16.1593L16.2431 14.1226L19.5315 15.735C19.6105 15.7833 19.6758 15.8511 19.721 15.9319C19.7663 16.0127 19.7901 16.1038 19.7901 16.1964C19.7901 16.289 19.7663 16.3801 19.721 16.4609C19.6758 16.5417 19.6105 16.6095 19.5315 16.6579Z" stroke="black" stroke-width="1.5" stroke-linecap="round" stroke-linejoin="round"/>
</svg>
