<svg width="24" height="24" viewBox="0 0 24 24" fill="none" xmlns="http://www.w3.org/2000/svg">
<path d="M15.238 10.8107L14.6692 12.504C14.458 13.1481 14.0984 13.7336 13.6195 14.213C13.1405 14.6924 12.5556 15.0523 11.9121 15.2637L10.1987 15.8329C10.1411 15.8519 10.0909 15.8885 10.0554 15.9377C10.0198 15.9869 10.0007 16.046 10.0007 16.1067C10.0007 16.1674 10.0198 16.2266 10.0554 16.2757C10.0909 16.3249 10.1411 16.3616 10.1987 16.3805L11.9121 16.9498C12.5493 17.1619 13.1284 17.5198 13.6032 17.9951C14.0781 18.4704 14.4357 19.05 14.6477 19.6878L15.2164 21.4027C15.2353 21.4604 15.2719 21.5106 15.3211 21.5462C15.3702 21.5818 15.4293 21.601 15.4899 21.601C15.5506 21.601 15.6097 21.5818 15.6588 21.5462C15.7079 21.5106 15.7446 21.4604 15.7635 21.4027L16.3538 19.7094C16.5657 19.0716 16.9233 18.492 17.3982 18.0167C17.8731 17.5414 18.4521 17.1835 19.0894 16.9714L20.8028 16.4021C20.8604 16.3832 20.9105 16.3465 20.9461 16.2973C20.9817 16.2482 21.0008 16.189 21.0008 16.1283C21.0008 16.0676 20.9817 16.0085 20.9461 15.9593C20.9105 15.9102 20.8604 15.8735 20.8028 15.8545L19.111 15.2637C18.4674 15.0523 17.8825 14.6924 17.4036 14.213C16.9246 13.7336 16.565 13.1481 16.3538 12.504L15.7851 10.7891C15.764 10.7321 15.7254 10.6832 15.6749 10.6494C15.6243 10.6157 15.5644 10.5988 15.5037 10.6012C15.443 10.6036 15.3846 10.6251 15.3368 10.6628C15.2891 10.7004 15.2545 10.7522 15.238 10.8107Z" stroke="black" stroke-width="1.5" stroke-linecap="round" stroke-linejoin="round"/>
<path d="M6.80814 5.89669L6.39453 7.12817C6.24093 7.59665 5.9794 8.02241 5.63106 8.37106C5.28273 8.7197 4.85736 8.98147 4.3893 9.13521L3.14322 9.5492C3.10132 9.56298 3.06484 9.58966 3.03898 9.62541C3.01312 9.66117 2.99919 9.70419 2.99919 9.74833C2.99919 9.79248 3.01312 9.83549 3.03898 9.87125C3.06484 9.90701 3.10132 9.93368 3.14322 9.94747L4.3893 10.3615C4.85276 10.5157 5.27389 10.776 5.61926 11.1217C5.96462 11.4674 6.2247 11.8889 6.37882 12.3528L6.79244 13.6C6.80621 13.6419 6.83286 13.6784 6.86858 13.7043C6.90431 13.7302 6.94729 13.7441 6.99139 13.7441C7.03549 13.7441 7.07847 13.7302 7.1142 13.7043C7.14992 13.6784 7.17657 13.6419 7.19034 13.6L7.61966 12.3685C7.77379 11.9046 8.03387 11.4831 8.37923 11.1374C8.72459 10.7918 9.14573 10.5314 9.60919 10.3772L10.8553 9.96319C10.8972 9.9494 10.9336 9.92273 10.9595 9.88697C10.9854 9.85122 10.9993 9.8082 10.9993 9.76405C10.9993 9.71991 10.9854 9.67689 10.9595 9.64114C10.9336 9.60538 10.8972 9.57871 10.8553 9.56492L9.6249 9.13521C9.15684 8.98147 8.73147 8.7197 8.38313 8.37106C8.0348 8.02241 7.77327 7.59665 7.61966 7.12817L7.20605 5.88097C7.19071 5.83949 7.16265 5.80393 7.12589 5.77939C7.08913 5.75484 7.04555 5.74256 7.0014 5.7443C6.95724 5.74605 6.91477 5.76173 6.88006 5.7891C6.84535 5.81647 6.82017 5.85413 6.80814 5.89669Z" stroke="black" stroke-width="1.5" stroke-linecap="round" stroke-linejoin="round"/>
<path d="M14.6572 2.47532L14.4504 3.09106C14.3736 3.3253 14.2429 3.53818 14.0687 3.71251C13.8945 3.88683 13.6818 4.01771 13.4478 4.09458L12.8248 4.30158C12.8038 4.30847 12.7856 4.32181 12.7727 4.33968C12.7597 4.35756 12.7528 4.37907 12.7528 4.40114C12.7528 4.42322 12.7597 4.44473 12.7727 4.4626C12.7856 4.48048 12.8038 4.49382 12.8248 4.50071L13.4478 4.7077C13.6795 4.78484 13.8901 4.91499 14.0628 5.08783C14.2355 5.26067 14.3655 5.47143 14.4426 5.70337L14.6494 6.32697C14.6563 6.34794 14.6696 6.36619 14.6875 6.37914C14.7053 6.39208 14.7268 6.39905 14.7489 6.39905C14.7709 6.39905 14.7924 6.39208 14.8103 6.37914C14.8281 6.36619 14.8415 6.34794 14.8483 6.32697L15.063 5.71123C15.1401 5.47929 15.2701 5.26853 15.4428 5.09569C15.6155 4.92285 15.826 4.7927 16.0578 4.71556L16.6808 4.50857C16.7017 4.50168 16.72 4.48834 16.7329 4.47046C16.7459 4.45259 16.7528 4.43108 16.7528 4.409C16.7528 4.38693 16.7459 4.36542 16.7329 4.34755C16.72 4.32967 16.7017 4.31633 16.6808 4.30944L16.0656 4.09458C15.8316 4.01771 15.6189 3.88683 15.4447 3.71251C15.2706 3.53818 15.1398 3.3253 15.063 3.09106L14.8562 2.46746C14.8485 2.44672 14.8345 2.42894 14.8161 2.41667C14.7977 2.4044 14.7759 2.39826 14.7539 2.39913C14.7318 2.4 14.7106 2.40784 14.6932 2.42153C14.6758 2.43521 14.6633 2.45404 14.6572 2.47532Z" stroke="black" stroke-width="1.5" stroke-linecap="round" stroke-linejoin="round"/>
</svg>
