<svg width="24" height="24" viewBox="0 0 24 24" fill="none" xmlns="http://www.w3.org/2000/svg">
<path d="M12.4316 3.90945L14.5229 8.94951C14.5866 9.04632 14.6832 9.11688 14.7948 9.14818L20.2844 9.66055C20.374 9.68146 20.4564 9.72559 20.5234 9.7885C20.5904 9.85141 20.6396 9.93088 20.6662 10.0189C20.6927 10.1069 20.6955 10.2004 20.6744 10.2898C20.6533 10.3793 20.6089 10.4616 20.5459 10.5284L16.3632 14C16.3216 14.0467 16.29 14.1014 16.2702 14.1607C16.2504 14.22 16.2429 14.2828 16.2482 14.3451L17.5553 19.7302C17.5661 19.8228 17.5519 19.9166 17.5142 20.0019C17.4765 20.0872 17.4167 20.1609 17.341 20.2153C17.2652 20.2697 17.1763 20.3028 17.0835 20.3113C16.9906 20.3198 16.8972 20.3033 16.8129 20.2635L12.1702 17.3252C12.1123 17.2941 12.0476 17.2778 11.9819 17.2778C11.9162 17.2778 11.8516 17.2941 11.7937 17.3252L7.15101 20.2112C7.06669 20.251 6.97325 20.2675 6.88039 20.259C6.78753 20.2506 6.69863 20.2174 6.6229 20.163C6.54717 20.1086 6.48737 20.0349 6.44969 19.9497C6.412 19.8644 6.39782 19.7705 6.4086 19.6779L7.71567 14.2928C7.72095 14.2305 7.71348 14.1678 7.6937 14.1084C7.67393 14.0491 7.64226 13.9944 7.60065 13.9477L3.41802 10.4762C3.36719 10.4092 3.33323 10.3311 3.31904 10.2482C3.30484 10.1654 3.31082 10.0804 3.33647 10.0003C3.36212 9.9203 3.40669 9.84763 3.46639 9.78848C3.52609 9.72934 3.59917 9.68545 3.67944 9.66055L9.17958 9.20046C9.29119 9.16916 9.38773 9.09861 9.45146 9.00179L11.5428 3.96173C11.585 3.88311 11.6467 3.81663 11.722 3.7686C11.7972 3.72057 11.8835 3.69261 11.9726 3.68736C12.0617 3.68212 12.1506 3.69978 12.231 3.73866C12.3113 3.77753 12.3804 3.83633 12.4316 3.90945Z" stroke="black" stroke-width="1.5" stroke-linecap="round" stroke-linejoin="round"/>
</svg>
