<svg width="24" height="24" viewBox="0 0 24 24" fill="none" xmlns="http://www.w3.org/2000/svg">
<path d="M12.4595 3.38657L14.686 8.75239C14.7538 8.85547 14.8566 8.93058 14.9754 8.96391L20.82 9.50939C20.9153 9.53165 21.003 9.57863 21.0743 9.64561C21.1457 9.71259 21.1981 9.79719 21.2263 9.8909C21.2546 9.9846 21.2576 10.0841 21.2351 10.1793C21.2126 10.2746 21.1654 10.3622 21.0983 10.4334L16.6453 14.1293C16.601 14.179 16.5673 14.2372 16.5462 14.3004C16.5252 14.3636 16.5172 14.4304 16.5229 14.4967L17.9144 20.2299C17.9259 20.3285 17.9108 20.4284 17.8707 20.5192C17.8305 20.61 17.7669 20.6884 17.6862 20.7463C17.6056 20.8042 17.511 20.8395 17.4121 20.8486C17.3133 20.8576 17.2138 20.84 17.124 20.7977L12.1812 17.6694C12.1196 17.6363 12.0508 17.619 11.9808 17.619C11.9109 17.619 11.842 17.6363 11.7804 17.6694L6.83766 20.742C6.74788 20.7844 6.6484 20.8019 6.54954 20.7929C6.45068 20.7839 6.35604 20.7486 6.27541 20.6907C6.19478 20.6328 6.13111 20.5543 6.091 20.4635C6.05088 20.3727 6.03578 20.2728 6.04725 20.1742L7.43881 14.4411C7.44443 14.3747 7.43648 14.3079 7.41542 14.2448C7.39437 14.1816 7.36066 14.1234 7.31635 14.0737L2.86338 10.3777C2.80926 10.3065 2.77311 10.2232 2.758 10.135C2.74289 10.0469 2.74925 9.95633 2.77656 9.87113C2.80387 9.78593 2.85131 9.70856 2.91488 9.64559C2.97844 9.58262 3.05624 9.5359 3.14169 9.50939L8.99734 9.01957C9.11616 8.98624 9.21894 8.91113 9.28678 8.80805L11.5133 3.44223C11.5583 3.35853 11.6239 3.28775 11.704 3.23661C11.7841 3.18548 11.876 3.15571 11.9708 3.15013C12.0657 3.14455 12.1604 3.16335 12.246 3.20474C12.3315 3.24612 12.405 3.30872 12.4595 3.38657Z" stroke="black" stroke-width="1.5" stroke-linecap="round" stroke-linejoin="round"/>
</svg>
