<svg width="24" height="24" viewBox="0 0 24 24" fill="none" xmlns="http://www.w3.org/2000/svg">
<path d="M16.5839 2.75H7.41611C4.83909 2.75 2.75 4.83909 2.75 7.41611V16.5839C2.75 19.1609 4.83909 21.25 7.41611 21.25H16.5839C19.1609 21.25 21.25 19.1609 21.25 16.5839V7.41611C21.25 4.83909 19.1609 2.75 16.5839 2.75Z" stroke="black" stroke-width="1.5" stroke-linecap="round" stroke-linejoin="round"/>
<path d="M15.0075 7.98999H8.99253C8.43887 7.98999 7.99004 8.43882 7.99004 8.99249V15.0075C7.99004 15.5611 8.43887 16.01 8.99253 16.01H15.0075C15.5612 16.01 16.01 15.5611 16.01 15.0075V8.99249C16.01 8.43882 15.5612 7.98999 15.0075 7.98999Z" stroke="black" stroke-width="1.5" stroke-linecap="round" stroke-linejoin="round"/>
</svg>
