<svg width="24" height="24" viewBox="0 0 24 24" fill="none" xmlns="http://www.w3.org/2000/svg">
<path d="M20.264 9.38318C19.8452 8.05768 19.1133 6.8525 18.1304 5.86955C17.1474 4.8866 15.9423 4.15476 14.6167 3.73591C13.7697 3.47186 12.8872 3.33885 12 3.34147C11.1122 3.34196 10.2297 3.47822 9.38316 3.74553C8.05765 4.16438 6.85248 4.89622 5.86953 5.87917C4.88657 6.86213 4.15474 8.0673 3.73589 9.39281C3.47281 10.2368 3.3398 11.1159 3.34145 12C3.34194 12.8877 3.4782 13.7702 3.74551 14.6168C4.16435 15.9423 4.89619 17.1475 5.87915 18.1304C6.8621 19.1134 8.06728 19.8452 9.39278 20.264C10.2368 20.5271 11.1159 20.6601 12 20.6585C12.8877 20.658 13.7702 20.5217 14.6167 20.2544C15.9423 19.8356 17.1474 19.1037 18.1304 18.1208C19.1133 17.1378 19.8452 15.9327 20.264 14.6071C20.5271 13.7632 20.6601 12.884 20.6585 12C20.6611 11.1127 20.5281 10.2303 20.264 9.38318ZM13.8375 16.3581C13.2565 16.6057 12.6315 16.7334 12 16.7333C11.3684 16.7334 10.7434 16.6057 10.1624 16.3581C9.02294 15.8828 8.11711 14.977 7.64184 13.8375C7.39421 13.2565 7.26658 12.6315 7.26664 12C7.26658 11.3684 7.39421 10.7434 7.64184 10.1625C8.11711 9.02296 9.02294 8.11713 10.1624 7.64186C10.7434 7.39423 11.3684 7.26661 12 7.26666C12.6315 7.26661 13.2565 7.39423 13.8375 7.64186C14.977 8.11713 15.8828 9.02296 16.3581 10.1625C16.6057 10.7434 16.7333 11.3684 16.7333 12C16.7333 12.6315 16.6057 13.2565 16.3581 13.8375C15.8828 14.977 14.977 15.8828 13.8375 16.3581Z" stroke="black" stroke-width="1.5" stroke-linecap="round" stroke-linejoin="round"/>
<path d="M10.1623 7.64191L9.38306 3.73596" stroke="black" stroke-width="1.4" stroke-linecap="round" stroke-linejoin="round"/>
<path d="M10.1623 16.3582L9.38306 20.2641" stroke="black" stroke-width="1.4" stroke-linecap="round" stroke-linejoin="round"/>
<path d="M14.6167 3.73596L13.8374 7.64191" stroke="black" stroke-width="1.4" stroke-linecap="round" stroke-linejoin="round"/>
<path d="M14.6167 20.2641L13.8374 16.3582" stroke="black" stroke-width="1.4" stroke-linecap="round" stroke-linejoin="round"/>
<path d="M20.264 9.38318L16.358 10.1624" stroke="black" stroke-width="1.4" stroke-linecap="round" stroke-linejoin="round"/>
<path d="M7.64179 10.1624L3.73584 9.38318" stroke="black" stroke-width="1.4" stroke-linecap="round" stroke-linejoin="round"/>
<path d="M20.264 14.6168L16.358 13.8375" stroke="black" stroke-width="1.4" stroke-linecap="round" stroke-linejoin="round"/>
<path d="M7.64179 13.8375L3.73584 14.6168" stroke="black" stroke-width="1.4" stroke-linecap="round" stroke-linejoin="round"/>
</svg>
