<svg width="24" height="24" viewBox="0 0 24 24" fill="none" xmlns="http://www.w3.org/2000/svg">
<path d="M21.0672 9.12891C20.6076 7.67459 19.8047 6.35229 18.7262 5.27381C17.6477 4.19533 16.3254 3.39237 14.8711 2.93282C13.9417 2.64311 12.9735 2.49716 12 2.50004C11.0259 2.50058 10.0577 2.65009 9.12888 2.94337C7.67456 3.40293 6.35227 4.20588 5.27379 5.28437C4.1953 6.36285 3.39234 7.68514 2.93279 9.13947C2.64414 10.0655 2.49821 11.0301 2.50002 12C2.50055 12.9741 2.65006 13.9423 2.94335 14.8711C3.4029 16.3254 4.20586 17.6477 5.28434 18.7262C6.36282 19.8047 7.68512 20.6077 9.13944 21.0672C10.0655 21.3559 11.03 21.5018 12 21.5C12.974 21.4994 13.9423 21.3499 14.8711 21.0567C16.3254 20.5971 17.6477 19.7941 18.7262 18.7157C19.8047 17.6372 20.6076 16.3149 21.0672 14.8606C21.3558 13.9345 21.5018 12.97 21.5 12C21.5028 11.0265 21.3569 10.0583 21.0672 9.12891ZM14.0161 16.7817C13.3787 17.0534 12.6929 17.1934 12 17.1933C11.3071 17.1934 10.6213 17.0534 9.98388 16.7817C8.73366 16.2602 7.7398 15.2663 7.21834 14.0161C6.94664 13.3787 6.80661 12.6929 6.80667 12C6.80661 11.3071 6.94664 10.6213 7.21834 9.98391C7.7398 8.73368 8.73366 7.73982 9.98388 7.21836C10.6213 6.94666 11.3071 6.80664 12 6.8067C12.6929 6.80664 13.3787 6.94666 14.0161 7.21836C15.2663 7.73982 16.2602 8.73368 16.7816 9.98391C17.0533 10.6213 17.1934 11.3071 17.1933 12C17.1934 12.6929 17.0533 13.3787 16.7816 14.0161C16.2602 15.2663 15.2663 16.2602 14.0161 16.7817Z" stroke="black" stroke-width="1.5" stroke-linecap="round" stroke-linejoin="round"/>
<path d="M9.98377 7.21834L9.12877 2.9328" stroke="black" stroke-width="1.3" stroke-linecap="round" stroke-linejoin="round"/>
<path d="M9.98377 16.7817L9.12877 21.0672" stroke="black" stroke-width="1.3" stroke-linecap="round" stroke-linejoin="round"/>
<path d="M14.871 2.9328L14.016 7.21834" stroke="black" stroke-width="1.3" stroke-linecap="round" stroke-linejoin="round"/>
<path d="M14.871 21.0672L14.016 16.7817" stroke="black" stroke-width="1.3" stroke-linecap="round" stroke-linejoin="round"/>
<path d="M21.0671 9.12891L16.7815 9.9839" stroke="black" stroke-width="1.3" stroke-linecap="round" stroke-linejoin="round"/>
<path d="M7.21821 9.9839L2.93267 9.12891" stroke="black" stroke-width="1.3" stroke-linecap="round" stroke-linejoin="round"/>
<path d="M21.0671 14.8711L16.7815 14.0161" stroke="black" stroke-width="1.3" stroke-linecap="round" stroke-linejoin="round"/>
<path d="M7.21821 14.0161L2.93267 14.8711" stroke="black" stroke-width="1.3" stroke-linecap="round" stroke-linejoin="round"/>
</svg>
