<svg width="24" height="24" viewBox="0 0 24 24" fill="none" xmlns="http://www.w3.org/2000/svg">
<path d="M4.9883 17.4568L10.7356 20.9051C11.1189 21.1304 11.5554 21.2491 12 21.2491C12.4446 21.2491 12.8811 21.1304 13.2644 20.9051L19.0117 17.4568C19.3768 17.2365 19.6789 16.9259 19.8889 16.5548C20.0988 16.1838 20.2096 15.7648 20.2104 15.3385V8.27752C20.2096 7.85117 20.0988 7.43223 19.8889 7.06117C19.6789 6.69011 19.3768 6.37947 19.0117 6.15923L13.2644 3.09396C12.8811 2.86875 12.4446 2.75 12 2.75C11.5554 2.75 11.1189 2.86875 10.7356 3.09396L4.9883 6.15923C4.62324 6.37947 4.32113 6.69011 4.11115 7.06117C3.90117 7.43223 3.79041 7.85117 3.78958 8.27752V15.3385C3.79041 15.7648 3.90117 16.1838 4.11115 16.5548C4.32113 16.9259 4.62324 17.2365 4.9883 17.4568Z" stroke="black" stroke-width="1.5" stroke-linecap="round" stroke-linejoin="round"/>
<path d="M19.882 7.07883L12 11.808" stroke="black" stroke-width="1.5" stroke-linecap="round" stroke-linejoin="round"/>
<path d="M4.11806 7.07883L12.0001 11.808V21.25" stroke="black" stroke-width="1.5" stroke-linecap="round" stroke-linejoin="round"/>
</svg>
