<svg width="24" height="24" viewBox="0 0 24 24" fill="none" xmlns="http://www.w3.org/2000/svg">
<path d="M21.25 16.5839L21.25 7.41611C21.25 4.83909 19.1609 2.75 16.5839 2.75L7.41611 2.75C4.83906 2.75 2.75 4.83909 2.75 7.41611L2.75 16.5839C2.75 19.1609 4.83906 21.25 7.41611 21.25L16.5839 21.25C19.1609 21.25 21.25 19.1609 21.25 16.5839Z" stroke="black" stroke-width="1.5" stroke-linecap="round" stroke-linejoin="round"/>
<path d="M7.10459 15.8098L11.1172 18.2173C11.3848 18.3746 11.6895 18.4575 11.9999 18.4575C12.3103 18.4575 12.6151 18.3746 12.8827 18.2173L16.8953 15.8098C17.1502 15.656 17.3611 15.4391 17.5077 15.1801C17.6543 14.921 17.7316 14.6285 17.7322 14.3309V9.40113C17.7316 9.10346 17.6543 8.81098 17.5077 8.55191C17.3611 8.29285 17.1502 8.07597 16.8953 7.92221L12.8827 5.78213C12.6151 5.6249 12.3103 5.54199 11.9999 5.54199C11.6895 5.54199 11.3848 5.6249 11.1172 5.78213L7.10459 7.92221C6.84972 8.07597 6.63879 8.29285 6.49219 8.55191C6.34559 8.81098 6.26827 9.10346 6.26768 9.40113V14.3309C6.26827 14.6285 6.34559 14.921 6.49219 15.1801C6.63879 15.4391 6.84972 15.656 7.10459 15.8098Z" stroke="black" stroke-width="1.4" stroke-linecap="round" stroke-linejoin="round"/>
<path d="M17.503 8.56421L12 11.866" stroke="black" stroke-width="1.4" stroke-linecap="round" stroke-linejoin="round"/>
<path d="M6.49702 8.56421L12 11.866V18.4581" stroke="black" stroke-width="1.4" stroke-linecap="round" stroke-linejoin="round"/>
</svg>
