<svg width="24" height="24" viewBox="0 0 24 24" fill="none" xmlns="http://www.w3.org/2000/svg">
<path d="M21.25 16.5839L21.25 7.41611C21.25 4.83909 19.1609 2.75 16.5839 2.75L7.41611 2.75C4.83906 2.75 2.75 4.83909 2.75 7.41611L2.75 16.5839C2.75 19.1609 4.83906 21.25 7.41611 21.25L16.5839 21.25C19.1609 21.25 21.25 19.1609 21.25 16.5839Z" stroke="black" stroke-width="1.5" stroke-linecap="round" stroke-linejoin="round"/>
<path d="M7.87421 8.21802V16.1258C7.87421 16.5817 8.05533 17.0189 8.37772 17.3413C8.7001 17.6637 9.13736 17.8448 9.59328 17.8448H14.4067C14.8626 17.8448 15.2999 17.6637 15.6223 17.3413C15.9447 17.0189 16.1258 16.5817 16.1258 16.1258V8.21802" stroke="black" stroke-width="1.4" stroke-linecap="round" stroke-linejoin="round"/>
<path d="M6.49897 8.21802H17.501" stroke="black" stroke-width="1.4" stroke-linecap="round" stroke-linejoin="round"/>
<path d="M9.9371 8.21804V7.1866C9.9371 6.91304 10.0458 6.65069 10.2392 6.45725C10.4326 6.26382 10.695 6.15515 10.9685 6.15515H13.0314C13.305 6.15515 13.5673 6.26382 13.7608 6.45725C13.9542 6.65069 14.0629 6.91304 14.0629 7.1866V8.21804" stroke="black" stroke-width="1.4" stroke-linecap="round" stroke-linejoin="round"/>
</svg>
