<svg width="24" height="24" viewBox="0 0 24 24" fill="none" xmlns="http://www.w3.org/2000/svg">
<path d="M16 10H8C6.89543 10 6 10.8954 6 12V18C6 19.1046 6.89543 20 8 20H16C17.1046 20 18 19.1046 18 18V12C18 10.8954 17.1046 10 16 10Z" stroke="black" stroke-width="1.5" stroke-linecap="round" stroke-linejoin="round"/>
<path d="M8 10V8.00001C7.99938 7.20842 8.23364 6.43445 8.67312 5.77608C9.1126 5.1177 9.73755 4.60453 10.4688 4.30152C11.2001 3.99851 12.0049 3.91929 12.7812 4.07389C13.5576 4.22849 14.2706 4.60996 14.83 5.17001C14.9989 5.33702 15.1497 5.52137 15.28 5.72001" stroke="black" stroke-width="1.5" stroke-linecap="round" stroke-linejoin="round"/>
<path d="M9 17H15" stroke="black" stroke-width="1.5" stroke-linecap="round" stroke-linejoin="round"/>
</svg>
