<svg width="24" height="24" viewBox="0 0 24 24" fill="none" xmlns="http://www.w3.org/2000/svg">
<path d="M16.5839 2.75H7.41611C4.83909 2.75 2.75 4.83909 2.75 7.41611V16.5839C2.75 19.1609 4.83909 21.25 7.41611 21.25H16.5839C19.1609 21.25 21.25 19.1609 21.25 16.5839V7.41611C21.25 4.83909 19.1609 2.75 16.5839 2.75Z" stroke="black" stroke-width="1.5" stroke-linecap="round" stroke-linejoin="round"/>
<path d="M5.95667 21.0136C6.23973 19.6196 6.99603 18.3662 8.0974 17.466C9.19879 16.5659 10.5776 16.0741 12 16.0741C13.4224 16.0741 14.8012 16.5659 15.9026 17.466C17.0039 18.3662 17.7603 19.6196 18.0433 21.0136" stroke="black" stroke-width="1.5" stroke-linecap="round" stroke-linejoin="round"/>
<path d="M12 13.0278C13.8278 13.0278 15.3095 11.5462 15.3095 9.71838C15.3095 7.89062 13.8278 6.40894 12 6.40894C10.1722 6.40894 8.69058 7.89062 8.69058 9.71838C8.69058 11.5462 10.1722 13.0278 12 13.0278Z" stroke="black" stroke-width="1.5" stroke-linecap="round" stroke-linejoin="round"/>
</svg>
