<svg width="24" height="24" viewBox="0 0 24 24" fill="none" xmlns="http://www.w3.org/2000/svg">
<path d="M17.9281 19.6343H20.0657C20.2539 19.6375 20.4401 19.5951 20.6083 19.5106C20.7766 19.4261 20.9218 19.3021 21.0316 19.1491C21.1413 18.9962 21.2124 18.8189 21.2386 18.6325C21.2649 18.4461 21.2455 18.2561 21.1822 18.0788C20.637 16.9119 19.7739 15.9223 18.692 15.2236C17.6101 14.5248 16.3531 14.1451 15.0652 14.1281" stroke="black" stroke-width="1.5" stroke-linecap="round" stroke-linejoin="round"/>
<path d="M15.0652 11.3701C15.5465 11.3701 16.023 11.2754 16.4676 11.0912C16.9122 10.907 17.3161 10.6371 17.6564 10.2968C17.9967 9.95657 18.2666 9.5526 18.4508 9.10801C18.6349 8.66341 18.7297 8.18691 18.7297 7.70568C18.731 7.22366 18.6371 6.74612 18.4535 6.30042C18.2699 5.85473 18.0002 5.44964 17.6598 5.10835C17.3194 4.76706 16.915 4.49628 16.4698 4.31153C16.0246 4.12678 15.5473 4.03168 15.0652 4.03168" stroke="black" stroke-width="1.5" stroke-linecap="round" stroke-linejoin="round"/>
<path d="M14.0251 20.8271C14.3771 20.8263 14.7221 20.7281 15.0218 20.5434C15.3215 20.3587 15.5643 20.0947 15.7233 19.7807C15.8823 19.4666 15.9513 19.1146 15.9228 18.7638C15.8942 18.4129 15.7692 18.0767 15.5615 17.7925C14.8329 16.8246 13.8947 16.0342 12.8171 15.4805C11.7396 14.9269 10.5507 14.6243 9.33953 14.5956C8.1284 14.6243 6.93948 14.9269 5.86193 15.4805C4.78437 16.0342 3.84614 16.8246 3.11758 17.7925C2.90988 18.0767 2.78484 18.4129 2.75629 18.7638C2.72774 19.1146 2.79678 19.4666 2.95579 19.7807C3.11481 20.0947 3.35759 20.3587 3.6573 20.5434C3.957 20.7281 4.30195 20.8263 4.65398 20.8271H14.0251Z" stroke="black" stroke-width="1.5" stroke-linecap="round" stroke-linejoin="round"/>
<path d="M9.3395 11.4847C10.4413 11.4822 11.4972 11.0427 12.2754 10.2627C13.0536 9.48267 13.4907 8.42583 13.4907 7.324C13.4907 6.22305 13.0533 5.16718 12.2748 4.38869C11.4963 3.6102 10.4405 3.17285 9.3395 3.17285C8.23855 3.17285 7.18269 3.6102 6.4042 4.38869C5.62571 5.16718 5.18835 6.22305 5.18835 7.324C5.18835 8.42583 5.6254 9.48267 6.40362 10.2627C7.18184 11.0427 8.23768 11.4822 9.3395 11.4847Z" stroke="black" stroke-width="1.5" stroke-linecap="round" stroke-linejoin="round"/>
</svg>
