<svg width="24" height="24" viewBox="0 0 24 24" fill="none" xmlns="http://www.w3.org/2000/svg">
<path d="M12.7165 3.65602L13.8537 2.75181C14.0003 2.63306 14.174 2.55279 14.359 2.51821C14.5441 2.48363 14.7347 2.49581 14.914 2.55367C15.0932 2.61153 15.2553 2.71325 15.3859 2.84971C15.5164 2.98617 15.6113 3.1531 15.6619 3.33554L16.0941 4.84638C16.1628 5.09396 16.3124 5.31102 16.5187 5.46259C16.725 5.61416 16.976 5.69143 17.2313 5.68193H18.6983C18.8826 5.67271 19.0663 5.70873 19.2336 5.78689C19.4009 5.86506 19.5468 5.98302 19.6588 6.13059C19.7707 6.27817 19.8453 6.45093 19.8761 6.63399C19.9069 6.81704 19.893 7.00489 19.8356 7.18132L19.2897 8.80662C19.2119 9.03796 19.2097 9.28828 19.2833 9.52099C19.357 9.75369 19.5027 9.95658 19.6991 10.1L21.0297 11.0729C21.1753 11.179 21.2939 11.3184 21.3756 11.4795C21.4574 11.6407 21.5 11.819 21.5 12C21.5 12.1809 21.4574 12.3593 21.3756 12.5205C21.2939 12.6816 21.1753 12.821 21.0297 12.9271L19.6991 13.9C19.5027 14.0434 19.357 14.2463 19.2833 14.479C19.2097 14.7117 19.2119 14.962 19.2897 15.1934L19.8356 16.8187C19.893 16.9951 19.9069 17.183 19.8761 17.366C19.8453 17.5491 19.7707 17.7218 19.6588 17.8694C19.5468 18.017 19.4009 18.1349 19.2336 18.2131C19.0663 18.2913 18.8826 18.3273 18.6983 18.3181H17.2313C16.976 18.3086 16.725 18.3858 16.5187 18.5374C16.3124 18.689 16.1628 18.906 16.0941 19.1536L15.6619 20.6645C15.6113 20.8469 15.5164 21.0138 15.3859 21.1503C15.2553 21.2868 15.0932 21.3885 14.914 21.4463C14.7347 21.5042 14.5441 21.5164 14.359 21.4818C14.174 21.4472 14.0003 21.3669 13.8537 21.2482L12.7165 20.344C12.5139 20.1785 12.2609 20.0883 12 20.0883C11.7391 20.0883 11.4861 20.1785 11.2835 20.344L10.1463 21.2482C9.99966 21.3669 9.82603 21.4472 9.64098 21.4818C9.45594 21.5164 9.26525 21.5042 9.08603 21.4463C8.90681 21.3885 8.74467 21.2868 8.61413 21.1503C8.48359 21.0138 8.38874 20.8469 8.33809 20.6645L7.90594 19.1536C7.83715 18.906 7.68755 18.689 7.48125 18.5374C7.27495 18.3858 7.02395 18.3086 6.7687 18.3181H5.30167C5.11742 18.3273 4.93372 18.2913 4.7664 18.2131C4.59907 18.1349 4.45315 18.017 4.34122 17.8694C4.22929 17.7218 4.15471 17.5491 4.12391 17.366C4.09311 17.183 4.10702 16.9951 4.16443 16.8187L4.7103 15.1934C4.78809 14.962 4.79032 14.7117 4.71666 14.479C4.643 14.2463 4.49731 14.0434 4.3009 13.9L2.97033 12.9271C2.8247 12.821 2.70614 12.6816 2.62438 12.5205C2.54263 12.3593 2.5 12.1809 2.5 12C2.5 11.819 2.54263 11.6407 2.62438 11.4795C2.70614 11.3184 2.8247 11.179 2.97033 11.0729L4.3009 10.1C4.49731 9.95658 4.643 9.75369 4.71666 9.52099C4.79032 9.28828 4.78809 9.03796 4.7103 8.80662L4.23266 7.14699C4.17525 6.97055 4.16134 6.7827 4.19214 6.59965C4.22294 6.41659 4.29753 6.24383 4.40946 6.09625C4.52139 5.94868 4.66731 5.83072 4.83463 5.75256C5.00195 5.67439 5.18566 5.63837 5.3699 5.64759H6.83694C7.09219 5.65709 7.34318 5.57983 7.54949 5.42825C7.75579 5.27668 7.90539 5.05962 7.97418 4.81205L8.40633 3.3012C8.46943 3.13208 8.57141 2.9804 8.70392 2.85856C8.83644 2.73671 8.99573 2.64817 9.16877 2.60016C9.34181 2.55216 9.52368 2.54606 9.69951 2.58236C9.87534 2.61866 10.0401 2.69634 10.1804 2.80904L11.3177 3.71325C11.5238 3.86209 11.7734 3.93731 12.0268 3.92694C12.2803 3.91657 12.523 3.82121 12.7165 3.65602Z" stroke="black" stroke-width="1.5" stroke-linecap="round" stroke-linejoin="round"/>
<path d="M8.10553 11.8935L10.2976 14.0856C10.3747 14.1636 10.4665 14.2255 10.5678 14.2678C10.669 14.3101 10.7776 14.3319 10.8873 14.3319C10.997 14.3319 11.1057 14.3101 11.2069 14.2678C11.3081 14.2255 11.3999 14.1636 11.4771 14.0856L15.8945 9.66806" stroke="black" stroke-width="1.5" stroke-linecap="round" stroke-linejoin="round"/>
</svg>
