<svg width="24" height="24" viewBox="0 0 24 24" fill="none" xmlns="http://www.w3.org/2000/svg">
<path d="M13.5634 5.48596H4.70422C3.62494 5.48596 2.75 6.3609 2.75 7.44019V16.5599C2.75 17.6392 3.62494 18.5141 4.70422 18.5141H13.5634C14.6427 18.5141 15.5176 17.6392 15.5176 16.5599V7.44019C15.5176 6.3609 14.6427 5.48596 13.5634 5.48596Z" stroke="black" stroke-width="1.5" stroke-linecap="round" stroke-linejoin="round"/>
<path d="M21.25 9.49861V14.5014C21.2489 14.7457 21.1791 14.9847 21.0487 15.1912C20.9183 15.3977 20.7324 15.5633 20.5124 15.6693C20.2923 15.7752 20.0469 15.8172 19.8042 15.7904C19.5614 15.7636 19.3311 15.6691 19.1394 15.5176L15.9996 13.0162C15.8475 12.8941 15.7247 12.7395 15.6403 12.5636C15.5559 12.3877 15.5121 12.1951 15.5121 12C15.5121 11.8049 15.5559 11.6124 15.6403 11.4365C15.7247 11.2606 15.8475 11.1059 15.9996 10.9838L19.1394 8.48242C19.3311 8.33099 19.5614 8.23648 19.8042 8.20966C20.0469 8.18284 20.2923 8.22481 20.5124 8.33076C20.7324 8.43671 20.9183 8.60239 21.0487 8.80889C21.1791 9.01538 21.2489 9.25438 21.25 9.49861Z" stroke="black" stroke-width="1.5" stroke-linecap="round" stroke-linejoin="round"/>
</svg>
