<svg width="24" height="24" viewBox="0 0 24 24" fill="none" xmlns="http://www.w3.org/2000/svg">
<path d="M3 14.0881V9.91184C3 9.49649 3.14223 9.09814 3.39541 8.80445C3.64858 8.51075 3.99197 8.34575 4.35002 8.34575H6.24005C6.47678 8.34461 6.70927 8.2727 6.91506 8.13694L10.8842 5.5059C11.0892 5.37099 11.3211 5.30072 11.5569 5.30208C11.7926 5.30343 12.0239 5.37638 12.2278 5.51364C12.4317 5.65091 12.601 5.84771 12.719 6.08448C12.837 6.32125 12.8994 6.58972 12.9002 6.86318V17.1368C12.8994 17.4102 12.837 17.6787 12.719 17.9154C12.601 18.1522 12.4317 18.3491 12.2278 18.4863C12.0239 18.6235 11.7926 18.6965 11.5569 18.6979C11.3211 18.6992 11.0892 18.629 10.8842 18.494L6.91506 15.863C6.70927 15.7272 6.47678 15.6553 6.24005 15.6542H4.35002C3.99197 15.6542 3.64858 15.4891 3.39541 15.1955C3.14223 14.9018 3 14.5035 3 14.0881Z" stroke="black" stroke-width="1.5" stroke-linecap="round" stroke-linejoin="round"/>
<path d="M16.2278 15.7145C17.2301 14.7122 17.7933 13.3528 17.7932 11.9353C17.7933 10.5178 17.2301 9.15836 16.2278 8.15601" stroke="black" stroke-width="1.5" stroke-miterlimit="10" stroke-linecap="round"/>
<path d="M18.4954 18.0409C20.099 16.4371 21 14.2621 21 11.9941C21 9.72604 20.099 7.55094 18.4954 5.94727" stroke="black" stroke-width="1.5" stroke-miterlimit="10" stroke-linecap="round"/>
</svg>
