<svg width="24" height="24" viewBox="0 0 24 24" fill="none" xmlns="http://www.w3.org/2000/svg">
<path d="M21.25 7.88889V5.83333C21.25 5.01558 20.9251 4.23132 20.3469 3.65309C19.7687 3.07485 18.9844 2.75 18.1667 2.75H15.0833" stroke="black" stroke-width="1.5" stroke-linecap="round" stroke-linejoin="round"/>
<path d="M15.0833 21.25H18.1667C18.9844 21.25 19.7687 20.9251 20.3469 20.3469C20.9251 19.7686 21.25 18.9844 21.25 18.1666V16.1111" stroke="black" stroke-width="1.5" stroke-linecap="round" stroke-linejoin="round"/>
<path d="M2.75 16.1111V18.1666C2.75 18.9844 3.07485 19.7686 3.65309 20.3469C4.23132 20.9251 5.01558 21.25 5.83333 21.25H8.91666" stroke="black" stroke-width="1.5" stroke-linecap="round" stroke-linejoin="round"/>
<path d="M8.91666 2.75H5.83333C5.01558 2.75 4.23132 3.07485 3.65309 3.65309C3.07485 4.23132 2.75 5.01558 2.75 5.83333V7.88889" stroke="black" stroke-width="1.5" stroke-linecap="round" stroke-linejoin="round"/>
<path d="M12.8587 4.33323L6.3827 13.0929C6.3337 13.1609 6.30029 13.2389 6.28482 13.3213C6.26376 13.4042 6.26376 13.4912 6.28482 13.5741C6.31766 13.6523 6.37125 13.72 6.43979 13.7699C6.50543 13.8123 6.58186 13.8349 6.66 13.8351H11.5537L10.8115 19.5444C10.8003 19.5789 10.8003 19.616 10.8115 19.6504C10.8273 19.6822 10.8531 19.708 10.8849 19.7238C10.9164 19.7357 10.9512 19.7357 10.9828 19.7238C11.0009 19.7212 11.0182 19.7147 11.0337 19.7048C11.0491 19.695 11.0624 19.682 11.0725 19.6667L17.5484 10.9071C17.5988 10.8368 17.6323 10.7559 17.6463 10.6705C17.6536 10.5868 17.6396 10.5027 17.6055 10.4259C17.5727 10.3477 17.5191 10.28 17.4506 10.2301C17.3849 10.1877 17.3085 10.1651 17.2303 10.1649H12.3367L13.0789 4.45557C13.0901 4.42112 13.0901 4.38399 13.0789 4.34954C13.0631 4.31773 13.0373 4.29196 13.0055 4.27613C12.9739 4.26424 12.9391 4.26424 12.9076 4.27613C12.886 4.28995 12.869 4.30981 12.8587 4.33323Z" stroke="black" stroke-width="1.5" stroke-linecap="round" stroke-linejoin="round"/>
</svg>
