<svg width="24" height="24" viewBox="0 0 24 24" fill="none" xmlns="http://www.w3.org/2000/svg">
<path d="M12 2.25C10.0717 2.25 8.18659 2.82181 6.58321 3.89316C4.97983 4.9645 3.73016 6.48725 2.99221 8.26883C2.25425 10.0504 2.06113 12.0108 2.43734 13.9021C2.81354 15.7934 3.74217 17.5307 5.10573 18.8943C6.4693 20.2578 8.20655 21.1864 10.0979 21.5627C11.9892 21.9389 13.9496 21.7458 15.7312 21.0078C17.5127 20.2699 19.0355 19.0202 20.1068 17.4168C21.1782 15.8134 21.75 13.9284 21.75 12C21.7447 9.41576 20.7158 6.93888 18.8884 5.11154C17.0611 3.28421 14.5843 2.25528 12 2.25ZM17.36 12.8H12.8V17.4C12.8 17.6122 12.7157 17.8157 12.5657 17.9657C12.4157 18.1157 12.2122 18.2 12 18.2C11.7878 18.2 11.5844 18.1157 11.4343 17.9657C11.2843 17.8157 11.2 17.6122 11.2 17.4V12.8H6.64004C6.42786 12.8 6.22433 12.7157 6.0743 12.5657C5.92427 12.4156 5.83999 12.2122 5.83999 12C5.83999 11.7878 5.92427 11.5843 6.0743 11.4343C6.22433 11.2843 6.42786 11.2 6.64004 11.2H11.2V6.64C11.2 6.42783 11.2843 6.22434 11.4343 6.07431C11.5844 5.92428 11.7878 5.84 12 5.84C12.2122 5.84 12.4157 5.92428 12.5657 6.07431C12.7157 6.22434 12.8 6.42783 12.8 6.64V11.2H17.36C17.5722 11.2 17.7757 11.2843 17.9257 11.4343C18.0757 11.5843 18.16 11.7878 18.16 12C18.16 12.2122 18.0757 12.4156 17.9257 12.5657C17.7757 12.7157 17.5722 12.8 17.36 12.8Z" fill="black"/>
</svg>
