<svg width="24" height="24" viewBox="0 0 24 24" fill="none" xmlns="http://www.w3.org/2000/svg">
<path d="M19.625 12C19.625 12.1989 19.546 12.3897 19.4053 12.5303C19.2647 12.671 19.0739 12.75 18.875 12.75H12.755V18.87C12.755 19.0689 12.676 19.2597 12.5353 19.4003C12.3947 19.541 12.2039 19.62 12.005 19.62C11.8061 19.62 11.6153 19.541 11.4747 19.4003C11.334 19.2597 11.255 19.0689 11.255 18.87V12.75H5.125C4.92609 12.75 4.73532 12.671 4.59467 12.5303C4.45401 12.3897 4.375 12.1989 4.375 12C4.375 11.8011 4.45401 11.6103 4.59467 11.4697C4.73532 11.329 4.92609 11.25 5.125 11.25H11.255V5.13C11.255 4.93109 11.334 4.74034 11.4747 4.59969C11.6153 4.45903 11.8061 4.38 12.005 4.38C12.2039 4.38 12.3947 4.45903 12.5353 4.59969C12.676 4.74034 12.755 4.93109 12.755 5.13V11.25H18.875C19.0731 11.2526 19.2624 11.3325 19.4025 11.4725C19.5426 11.6126 19.6224 11.8019 19.625 12Z" fill="black"/>
</svg>
