<svg width="24" height="24" viewBox="0 0 24 24" fill="none" xmlns="http://www.w3.org/2000/svg">
<path d="M19.97 8.68512V7.88513C19.9748 7.51286 19.9037 7.14355 19.761 6.79968C19.6183 6.45582 19.4069 6.14462 19.14 5.88513C18.7957 5.5495 18.3728 5.30539 17.91 5.17511V4.80511C17.9144 4.4338 17.844 4.06544 17.7031 3.72186C17.5623 3.37828 17.3538 3.0665 17.09 2.80511C16.5555 2.2843 15.8363 1.99664 15.09 2.00513H8.91998C8.18082 2.00244 7.47059 2.29212 6.94418 2.81103C6.41778 3.32995 6.1179 4.03602 6.10999 4.77515V5.14514C5.64715 5.27542 5.22431 5.51947 4.88001 5.8551C4.61485 6.11544 4.4054 6.42705 4.26444 6.77087C4.12347 7.1147 4.05392 7.48355 4.06 7.8551V8.65515C3.43545 9.00152 2.91502 9.50879 2.55277 10.1243C2.19051 10.7397 1.99965 11.441 2 12.1552V17.9951C2.01839 19.0641 2.45665 20.0829 3.22009 20.8314C3.98354 21.5799 5.01085 21.9979 6.07999 21.9951H17.92C18.9891 21.9979 20.0164 21.5799 20.7799 20.8314C21.5433 20.0829 21.9816 19.0641 22 17.9951V12.1552C21.998 11.4491 21.8092 10.756 21.4526 10.1465C21.0961 9.53708 20.5845 9.03287 19.97 8.68512ZM16.88 13.9651C16.88 14.3319 16.8074 14.695 16.6665 15.0336C16.5255 15.3722 16.319 15.6796 16.0587 15.938C15.7984 16.1964 15.4896 16.4008 15.15 16.5393C14.8104 16.6778 14.4467 16.7478 14.08 16.7451H9.97C9.59971 16.7485 9.23239 16.6787 8.88916 16.5397C8.54593 16.4007 8.23355 16.1953 7.97 15.9351C7.70397 15.6749 7.49331 15.3636 7.35068 15.0199C7.20804 14.6762 7.13636 14.3072 7.13998 13.9351V12.9351C7.13998 12.7362 7.21903 12.5454 7.35968 12.4048C7.50033 12.2641 7.69107 12.1851 7.88998 12.1851C8.0889 12.1851 8.27967 12.2641 8.42032 12.4048C8.56097 12.5454 8.63998 12.7362 8.63998 12.9351V13.9351C8.64078 14.1028 8.67477 14.2686 8.73999 14.4231C8.80521 14.5776 8.90037 14.7176 9.01999 14.8351C9.26779 15.0794 9.60204 15.216 9.95001 15.2151H14.06C14.4045 15.2134 14.7347 15.077 14.98 14.8351C15.1019 14.7194 15.1986 14.5797 15.264 14.4248C15.3294 14.2699 15.3621 14.1032 15.36 13.9351V12.9351C15.36 12.7362 15.439 12.5454 15.5797 12.4048C15.7203 12.2641 15.9111 12.1851 16.11 12.1851C16.3089 12.1851 16.4997 12.2641 16.6403 12.4048C16.781 12.5454 16.86 12.7362 16.86 12.9351L16.88 13.9651ZM18.47 8.18512C18.2937 8.16989 18.1163 8.16989 17.94 8.18512H6.10001C5.927 8.17007 5.75299 8.17007 5.57999 8.18512V7.88513C5.5785 7.71712 5.61146 7.55054 5.67682 7.39575C5.74218 7.24096 5.83854 7.10121 5.95999 6.98511C6.20532 6.74324 6.5355 6.60686 6.88001 6.6051H17.16C17.508 6.60424 17.8422 6.74081 18.09 6.98511C18.2096 7.10261 18.3048 7.24262 18.37 7.39709C18.4352 7.55156 18.4692 7.71746 18.47 7.88513V8.18512Z" fill="black"/>
</svg>
