<svg width="24" height="24" viewBox="0 0 24 24" fill="none" xmlns="http://www.w3.org/2000/svg">
<path d="M19.62 2.725H4.38998C3.76312 2.71966 3.15967 2.96289 2.71174 3.40145C2.26381 3.84001 2.00789 4.4382 1.99998 5.06503V7.18502C1.99404 7.69158 2.14988 8.18679 2.44484 8.59866C2.73979 9.01052 3.15849 9.31752 3.63998 9.475V17.335C3.64064 17.8552 3.74537 18.3701 3.94802 18.8493C4.15068 19.3284 4.44714 19.7622 4.81997 20.125C5.57402 20.8677 6.59165 21.2811 7.64997 21.275H16.36C17.4183 21.2811 18.4359 20.8677 19.19 20.125C19.5628 19.7622 19.8593 19.3284 20.0619 18.8493C20.2646 18.3701 20.3693 17.8552 20.37 17.335V9.475C20.8415 9.31846 21.2522 9.01831 21.5445 8.6166C21.8368 8.2149 21.9961 7.7318 22 7.23501V5.11502C22.004 4.80089 21.9452 4.48908 21.8272 4.19796C21.7091 3.90684 21.5341 3.64225 21.3124 3.41964C21.0908 3.19704 20.8269 3.02092 20.5363 2.90164C20.2456 2.78235 19.9341 2.72231 19.62 2.725ZM14.83 15.395L12.83 17.395C12.7172 17.5051 12.585 17.5933 12.44 17.655C12.3411 17.6968 12.2367 17.7237 12.13 17.735H11.98H11.83C11.7307 17.719 11.6334 17.6921 11.54 17.655C11.3936 17.5958 11.2609 17.5073 11.15 17.395L9.14997 15.395C9.01749 15.2528 8.94537 15.0648 8.9488 14.8705C8.95223 14.6762 9.03093 14.4908 9.16835 14.3534C9.30576 14.2159 9.49115 14.1372 9.68545 14.1338C9.87975 14.1304 10.0678 14.2025 10.21 14.335L11.21 15.335V11.975C11.21 11.7761 11.289 11.5853 11.4296 11.4447C11.5703 11.304 11.7611 11.225 11.96 11.225C12.1589 11.225 12.3497 11.304 12.4903 11.4447C12.631 11.5853 12.71 11.7761 12.71 11.975V15.345L13.71 14.345C13.8521 14.2125 14.0402 14.1404 14.2345 14.1438C14.4288 14.1473 14.6142 14.226 14.7516 14.3634C14.889 14.5008 14.9677 14.6862 14.9711 14.8805C14.9746 15.0748 14.9024 15.2628 14.77 15.405L14.83 15.395ZM20.5 7.18502C20.4987 7.29882 20.4748 7.41121 20.4298 7.51571C20.3847 7.62022 20.3194 7.71472 20.2375 7.79379C20.1556 7.87285 20.0589 7.93488 19.9529 7.97628C19.8469 8.01769 19.7337 8.03765 19.62 8.035H4.38998C4.27572 8.03766 4.16205 8.01775 4.05548 7.97647C3.94891 7.93518 3.85152 7.87333 3.76887 7.7944C3.68622 7.71546 3.61993 7.62101 3.57379 7.51644C3.52765 7.41188 3.50258 7.29928 3.49998 7.18502V5.06503C3.50256 4.95121 3.52769 4.83903 3.57396 4.73501C3.62022 4.63099 3.68668 4.53721 3.76947 4.45907C3.85226 4.38093 3.94974 4.31999 4.05626 4.27981C4.16277 4.23963 4.27621 4.221 4.38998 4.225H19.62C19.7333 4.22099 19.8462 4.2397 19.9522 4.27999C20.0581 4.32029 20.1549 4.38135 20.2369 4.45962C20.3189 4.53789 20.3844 4.63178 20.4296 4.73574C20.4748 4.83971 20.4987 4.95168 20.5 5.06503V7.18502Z" fill="black"/>
</svg>
