<svg width="24" height="24" viewBox="0 0 24 24" fill="none" xmlns="http://www.w3.org/2000/svg">
<path d="M19.735 3.54001H4.31499C3.70764 3.54001 3.12518 3.78127 2.69572 4.21073C2.26627 4.64019 2.02501 5.22266 2.02501 5.83001V7.89001C2.02509 8.44798 2.22801 8.9869 2.59596 9.40636C2.96391 9.82583 3.4718 10.0972 4.02501 10.17V17.65C4.02369 18.0194 4.09547 18.3854 4.23622 18.7269C4.37697 19.0684 4.58388 19.3787 4.84508 19.6399C5.10627 19.9011 5.41658 20.1081 5.7581 20.2488C6.09962 20.3895 6.46562 20.4613 6.83501 20.46H17.115C17.4836 20.46 17.8485 20.3873 18.1888 20.2459C18.5292 20.1046 18.8383 19.8974 19.0984 19.6364C19.3586 19.3753 19.5646 19.0655 19.7047 18.7246C19.8449 18.3837 19.9163 18.0186 19.915 17.65V10.17C20.4782 10.1087 20.9993 9.84257 21.3791 9.4222C21.7589 9.00182 21.971 8.45653 21.975 7.89001V5.83001C21.9726 5.232 21.7374 4.65843 21.3192 4.23093C20.9011 3.80342 20.3328 3.5556 19.735 3.54001ZM15.105 16.6H8.93501C8.6698 16.6 8.41543 16.4946 8.22789 16.3071C8.04035 16.1196 7.93501 15.8652 7.93501 15.6C7.93501 15.3348 8.04035 15.0804 8.22789 14.8929C8.41543 14.7054 8.6698 14.6 8.93501 14.6H15.105C15.3702 14.6 15.6246 14.7054 15.8121 14.8929C15.9997 15.0804 16.105 15.3348 16.105 15.6C16.105 15.8652 15.9997 16.1196 15.8121 16.3071C15.6246 16.4946 15.3702 16.6 15.105 16.6ZM20.485 7.89001C20.4824 8.09872 20.3983 8.29816 20.2507 8.44576C20.1032 8.59335 19.9037 8.67741 19.695 8.68001H4.31499C4.10547 8.68001 3.90455 8.59678 3.75639 8.44862C3.60824 8.30047 3.52501 8.09953 3.52501 7.89001V5.83001C3.52501 5.62049 3.60824 5.41955 3.75639 5.27139C3.90455 5.12324 4.10547 5.04001 4.31499 5.04001H19.735C19.9437 5.0426 20.1432 5.12667 20.2908 5.27426C20.4384 5.42186 20.5224 5.62129 20.525 5.83001L20.485 7.89001Z" fill="black"/>
</svg>
