<svg width="24" height="24" viewBox="0 0 24 24" fill="none" xmlns="http://www.w3.org/2000/svg">
<path d="M19.5499 9.99063C19.5523 10.2205 19.5081 10.4484 19.4199 10.6606C19.3327 10.8766 19.1996 11.0711 19.0299 11.2306L14.75 15.5206C14.6072 15.6578 14.418 15.7363 14.22 15.7406C14.0211 15.7405 13.8305 15.6613 13.69 15.5206C13.6192 15.4517 13.5629 15.3693 13.5245 15.2782C13.4862 15.1872 13.4664 15.0894 13.4664 14.9906C13.4664 14.8918 13.4862 14.794 13.5245 14.703C13.5629 14.612 13.6192 14.5296 13.69 14.4606L17.4099 10.7406H8.19996C7.90291 10.7396 7.60861 10.7973 7.334 10.9106C7.05938 11.0239 6.80991 11.1904 6.59999 11.4006C6.18611 11.8268 5.95316 12.3966 5.94996 12.9906V18.9906C5.94996 19.1895 5.87089 19.3803 5.73024 19.521C5.58959 19.6616 5.39888 19.7406 5.19996 19.7406C5.00105 19.7406 4.81034 19.6616 4.66969 19.521C4.52904 19.3803 4.44996 19.1895 4.44996 18.9906V12.9906C4.44865 12.4978 4.54469 12.0096 4.73268 11.554C4.92067 11.0984 5.19694 10.6845 5.54542 10.336C5.89391 9.98756 6.30775 9.71137 6.76332 9.52339C7.21889 9.3354 7.70714 9.23931 8.19996 9.24063H17.3899L13.6699 5.52062C13.5375 5.37845 13.4653 5.1904 13.4688 4.9961C13.4722 4.8018 13.551 4.61641 13.6884 4.479C13.8258 4.34159 14.0112 4.26288 14.2055 4.25946C14.3998 4.25603 14.5878 4.32815 14.73 4.46063L19.0199 8.75062C19.181 8.91143 19.31 9.1015 19.3999 9.31063C19.495 9.52496 19.546 9.7562 19.5499 9.99063Z" fill="black"/>
</svg>
