<svg width="24" height="24" viewBox="0 0 24 24" fill="none" xmlns="http://www.w3.org/2000/svg">
<path d="M17.6904 18.7406C17.5919 18.7411 17.4943 18.7219 17.4033 18.6841C17.3122 18.6463 17.2297 18.5908 17.1605 18.5206L12.2205 13.5806C12.0087 13.3739 11.8411 13.1265 11.7277 12.8532C11.6142 12.5799 11.5573 12.2865 11.5604 11.9906C11.5596 11.6951 11.6175 11.4023 11.7308 11.1294C11.8441 10.8564 12.0106 10.6087 12.2205 10.4006L17.1605 5.46064C17.3026 5.32816 17.4906 5.25603 17.6849 5.25946C17.8792 5.26288 18.0646 5.3416 18.202 5.47901C18.3394 5.61643 18.4182 5.80182 18.4216 5.99612C18.4251 6.19042 18.3529 6.37846 18.2205 6.52064L13.2805 11.4606C13.2093 11.5331 13.1517 11.6178 13.1104 11.7106C13.0785 11.8006 13.0616 11.8952 13.0604 11.9906C13.0601 12.0904 13.0805 12.1892 13.1204 12.2806C13.1545 12.3719 13.2093 12.4541 13.2805 12.5206L18.2205 17.4606C18.3609 17.6013 18.4398 17.7919 18.4398 17.9906C18.4398 18.1894 18.3609 18.38 18.2205 18.5206C18.1512 18.5908 18.0686 18.6463 17.9776 18.6841C17.8866 18.7219 17.789 18.7411 17.6904 18.7406Z" fill="black"/>
<path d="M11.6904 18.7406C11.5919 18.7411 11.4943 18.7219 11.4033 18.6841C11.3122 18.6463 11.2297 18.5908 11.1605 18.5206L6.22046 13.5806C6.00874 13.3739 5.84109 13.1265 5.72766 12.8532C5.61422 12.5799 5.55732 12.2865 5.56042 11.9906C5.55959 11.6951 5.61753 11.4023 5.73083 11.1294C5.84414 10.8564 6.01057 10.6087 6.22046 10.4006L11.1605 5.46064C11.3026 5.32816 11.4906 5.25603 11.6849 5.25946C11.8792 5.26288 12.0646 5.3416 12.202 5.47901C12.3394 5.61643 12.4182 5.80182 12.4216 5.99612C12.4251 6.19042 12.3529 6.37846 12.2205 6.52064L7.28045 11.4606C7.2093 11.5331 7.15168 11.6178 7.11041 11.7106C7.0785 11.8006 7.06162 11.8952 7.06042 11.9906C7.06011 12.0904 7.08054 12.1892 7.12042 12.2806C7.15448 12.3719 7.20928 12.4541 7.28045 12.5206L12.2205 17.4606C12.3609 17.6013 12.4398 17.7919 12.4398 17.9906C12.4398 18.1894 12.3609 18.38 12.2205 18.5206C12.1512 18.5908 12.0686 18.6463 11.9776 18.6841C11.8866 18.7219 11.789 18.7411 11.6904 18.7406Z" fill="black"/>
</svg>
