<svg width="24" height="24" viewBox="0 0 24 24" fill="none" xmlns="http://www.w3.org/2000/svg">
<path d="M15.25 2H8.75C6.9606 2.00265 5.24528 2.71465 3.97998 3.97995C2.71468 5.24525 2.00265 6.9606 2 8.75V15.25C2.00265 17.0394 2.71468 18.7547 3.97998 20.02C5.24528 21.2853 6.9606 21.9974 8.75 22H15.25C17.0394 21.9974 18.7547 21.2853 20.02 20.02C21.2853 18.7547 21.9974 17.0394 22 15.25V8.75C21.9974 6.9606 21.2853 5.24525 20.02 3.97995C18.7547 2.71465 17.0394 2.00265 15.25 2ZM17.85 13.17L13.44 17.59C13.2516 17.7793 13.0272 17.9289 12.78 18.03C12.5333 18.1345 12.268 18.1884 12 18.1884C11.732 18.1884 11.4667 18.1345 11.22 18.03C10.9728 17.9289 10.7484 17.7793 10.56 17.59L6.15002 13.17C6.05744 13.0768 5.98412 12.9662 5.93427 12.8446C5.88441 12.7231 5.85897 12.5929 5.85944 12.4615C5.8599 12.3301 5.88624 12.2 5.93695 12.0788C5.98766 11.9576 6.06179 11.8476 6.15503 11.755C6.24827 11.6624 6.35878 11.5891 6.48035 11.5392C6.60192 11.4894 6.73213 11.464 6.86353 11.4644C6.99492 11.4649 7.12494 11.4913 7.24615 11.542C7.36737 11.5927 7.47743 11.6668 7.57001 11.76L11 15.2V6.39999C11 6.13478 11.1054 5.88044 11.2929 5.6929C11.4804 5.50537 11.7348 5.39999 12 5.39999C12.2652 5.39999 12.5196 5.50537 12.7071 5.6929C12.8946 5.88044 13 6.13478 13 6.39999V15.17L16.43 11.76C16.5226 11.6668 16.6326 11.5927 16.7538 11.542C16.8751 11.4913 17.0051 11.4649 17.1365 11.4644C17.2679 11.464 17.3981 11.4894 17.5197 11.5392C17.6412 11.5891 17.7517 11.6624 17.845 11.755C17.9382 11.8476 18.0123 11.9576 18.063 12.0788C18.1138 12.2 18.1401 12.3301 18.1406 12.4615C18.141 12.5929 18.1156 12.7231 18.0657 12.8446C18.0159 12.9662 17.9426 13.0768 17.85 13.17Z" fill="black"/>
</svg>
