<svg width="24" height="24" viewBox="0 0 24 24" fill="none" xmlns="http://www.w3.org/2000/svg">
<path d="M16.58 2H7.40997C5.97423 2.00265 4.59821 2.57485 3.58392 3.59101C2.56964 4.60717 2 5.98426 2 7.42V16.58C2 18.0157 2.56964 19.3928 3.58392 20.409C4.59821 21.4251 5.97423 21.9974 7.40997 22H16.58C18.0175 22 19.3961 21.429 20.4125 20.4125C21.429 19.3961 22 18.0175 22 16.58V7.42C22 5.98252 21.429 4.60393 20.4125 3.58748C19.3961 2.57103 18.0175 2 16.58 2ZM17.58 13H8.81L12.22 16.43C12.4062 16.6174 12.5108 16.8708 12.5108 17.135C12.5108 17.3992 12.4062 17.6526 12.22 17.84C12.0353 18.0284 11.7838 18.1362 11.52 18.14C11.3884 18.1408 11.2579 18.1155 11.1361 18.0658C11.0143 18.016 10.9034 17.9427 10.81 17.85L6.39001 13.44C6.20198 13.2506 6.05254 13.0264 5.95001 12.78C5.84719 12.5327 5.79283 12.2679 5.78998 12C5.79182 11.732 5.84621 11.467 5.95001 11.22C6.05114 10.9728 6.20075 10.7484 6.39001 10.56L10.83 6.11C11.0174 5.92375 11.2708 5.81921 11.535 5.81921C11.7992 5.81921 12.0526 5.92375 12.24 6.11C12.3337 6.20296 12.4081 6.31357 12.4589 6.43542C12.5096 6.55728 12.5358 6.68799 12.5358 6.82C12.5358 6.95201 12.5096 7.08272 12.4589 7.20457C12.4081 7.32643 12.3337 7.43704 12.24 7.53L8.79999 10.96H17.6C17.8652 10.96 18.1196 11.0654 18.3071 11.2529C18.4947 11.4404 18.6 11.6948 18.6 11.96C18.6 12.2252 18.4947 12.4796 18.3071 12.6671C18.1196 12.8546 17.8652 12.96 17.6 12.96L17.58 13Z" fill="black"/>
</svg>
