<svg width="24" height="24" viewBox="0 0 24 24" fill="none" xmlns="http://www.w3.org/2000/svg">
<path d="M15.25 2H8.75C6.9606 2.00265 5.24528 2.71465 3.97998 3.97995C2.71468 5.24525 2.00265 6.9606 2 8.75V15.25C2.00265 17.0394 2.71468 18.7547 3.97998 20.02C5.24528 21.2853 6.9606 21.9974 8.75 22H15.25C17.0394 21.9974 18.7547 21.2853 20.02 20.02C21.2853 18.7547 21.9974 17.0394 22 15.25V8.75C21.9974 6.9606 21.2853 5.24525 20.02 3.97995C18.7547 2.71465 17.0394 2.00265 15.25 2ZM17.6 13H8.83002L12.24 16.43C12.3337 16.523 12.4081 16.6336 12.4589 16.7554C12.5096 16.8773 12.5358 17.008 12.5358 17.14C12.5358 17.272 12.5096 17.4027 12.4589 17.5246C12.4081 17.6465 12.3337 17.757 12.24 17.85C12.1466 17.9427 12.0357 18.016 11.9139 18.0658C11.792 18.1156 11.6616 18.1408 11.53 18.14C11.3984 18.1408 11.268 18.1156 11.1461 18.0658C11.0243 18.016 10.9134 17.9427 10.82 17.85L6.40002 13.44C6.21314 13.2496 6.06386 13.0257 5.96002 12.78C5.85551 12.5332 5.80164 12.268 5.80164 12C5.80164 11.732 5.85551 11.4668 5.96002 11.22C6.06386 10.9743 6.21314 10.7504 6.40002 10.56L10.82 6.14999C10.9132 6.05741 11.0238 5.98412 11.1454 5.93427C11.267 5.88441 11.3972 5.85897 11.5286 5.85944C11.66 5.8599 11.7899 5.88624 11.9111 5.93695C12.0323 5.98766 12.1424 6.06176 12.235 6.155C12.3276 6.24824 12.4009 6.35881 12.4507 6.48038C12.5006 6.60195 12.526 6.73213 12.5256 6.86353C12.5251 6.99492 12.4988 7.12494 12.4481 7.24615C12.3973 7.36737 12.3232 7.47743 12.23 7.57001L8.78998 11H17.59C17.8552 11 18.1096 11.1054 18.2971 11.2929C18.4847 11.4804 18.59 11.7348 18.59 12C18.59 12.2652 18.4847 12.5196 18.2971 12.7071C18.1096 12.8946 17.8552 13 17.59 13H17.6Z" fill="black"/>
</svg>
