<svg width="24" height="24" viewBox="0 0 24 24" fill="none" xmlns="http://www.w3.org/2000/svg">
<path d="M12 2.25C10.0717 2.25 8.18659 2.82183 6.58321 3.89317C4.97983 4.96452 3.73016 6.48727 2.99221 8.26884C2.25425 10.0504 2.06113 12.0108 2.43734 13.9021C2.81354 15.7934 3.74217 17.5307 5.10573 18.8943C6.4693 20.2578 8.20655 21.1864 10.0979 21.5627C11.9892 21.9389 13.9496 21.7458 15.7312 21.0078C17.5127 20.2699 19.0355 19.0202 20.1068 17.4168C21.1782 15.8134 21.75 13.9284 21.75 12C21.7474 9.41495 20.7193 6.93655 18.8914 5.10864C17.0635 3.28074 14.5851 2.25265 12 2.25ZM16.38 16.38C16.2372 16.5172 16.048 16.5957 15.85 16.6C15.6512 16.5998 15.4605 16.5207 15.32 16.38L8.90005 9.96001V15.2C8.90005 15.3989 8.82103 15.5897 8.68038 15.7303C8.53973 15.871 8.34896 15.95 8.15005 15.95C7.95113 15.95 7.76036 15.871 7.61971 15.7303C7.47906 15.5897 7.40005 15.3989 7.40005 15.2V9.14C7.3972 8.74675 7.53159 8.36482 7.78005 8.06C7.79099 8.02761 7.81201 7.99957 7.84005 7.98C7.85331 7.94889 7.8739 7.92146 7.90005 7.90001C7.9429 7.85181 7.99358 7.81122 8.05001 7.78C8.35566 7.52497 8.74197 7.38676 9.14004 7.39H15.25C15.4489 7.39 15.6397 7.46903 15.7804 7.60968C15.921 7.75033 16 7.94109 16 8.14C16 8.33891 15.921 8.52968 15.7804 8.67033C15.6397 8.81099 15.4489 8.89 15.25 8.89H9.99001L16.42 15.32C16.487 15.3922 16.5391 15.4769 16.5733 15.5693C16.6076 15.6616 16.6233 15.7599 16.6196 15.8583C16.6159 15.9567 16.5928 16.0535 16.5517 16.143C16.5106 16.2325 16.4523 16.313 16.38 16.38Z" fill="black"/>
</svg>
