<svg width="24" height="24" viewBox="0 0 24 24" fill="none" xmlns="http://www.w3.org/2000/svg">
<path d="M6.31177 18.7746C6.21315 18.7757 6.11532 18.7567 6.02423 18.7189C5.93314 18.6811 5.85064 18.6252 5.78174 18.5546C5.71098 18.4857 5.65479 18.4033 5.61639 18.3122C5.578 18.2212 5.55823 18.1234 5.55823 18.0246C5.55823 17.9258 5.578 17.828 5.61639 17.737C5.65479 17.646 5.71098 17.5636 5.78174 17.4946L10.7217 12.5546C10.7929 12.4881 10.8477 12.4059 10.8818 12.3146C10.9217 12.2232 10.9421 12.1244 10.9418 12.0246C10.9412 11.9249 10.9209 11.8263 10.8818 11.7346C10.8473 11.6464 10.7925 11.5676 10.7217 11.5046L5.78174 6.50462C5.71098 6.43568 5.65479 6.35326 5.61639 6.26224C5.578 6.17121 5.55823 6.07342 5.55823 5.97462C5.55823 5.87583 5.578 5.77804 5.61639 5.68701C5.65479 5.59599 5.71098 5.51357 5.78174 5.44463C5.92236 5.30418 6.11302 5.22528 6.31177 5.22528C6.51052 5.22528 6.70117 5.30418 6.8418 5.44463L11.7817 10.3846C11.9907 10.594 12.1571 10.8419 12.2718 11.1146C12.3819 11.3881 12.4395 11.6798 12.4418 11.9746C12.4415 12.2696 12.3838 12.5617 12.2718 12.8346C12.1574 13.1104 11.991 13.3616 11.7817 13.5746L6.8418 18.5046C6.77694 18.5838 6.69633 18.6487 6.6051 18.6952C6.51387 18.7417 6.41398 18.7687 6.31177 18.7746Z" fill="black"/>
<path d="M12.3118 18.7746C12.2131 18.7757 12.1153 18.7567 12.0242 18.7189C11.9331 18.6811 11.8506 18.6252 11.7817 18.5546C11.711 18.4857 11.6548 18.4033 11.6164 18.3122C11.578 18.2212 11.5582 18.1234 11.5582 18.0246C11.5582 17.9258 11.578 17.828 11.6164 17.737C11.6548 17.646 11.711 17.5636 11.7817 17.4946L16.7217 12.5546C16.7929 12.4881 16.8477 12.4059 16.8818 12.3146C16.9217 12.2232 16.9421 12.1244 16.9418 12.0246C16.9412 11.9249 16.9209 11.8263 16.8818 11.7346C16.8473 11.6464 16.7925 11.5676 16.7217 11.5046L11.7817 6.50462C11.711 6.43568 11.6548 6.35326 11.6164 6.26224C11.578 6.17121 11.5582 6.07342 11.5582 5.97462C11.5582 5.87583 11.578 5.77804 11.6164 5.68701C11.6548 5.59599 11.711 5.51357 11.7817 5.44463C11.9224 5.30418 12.113 5.22528 12.3118 5.22528C12.5105 5.22528 12.7012 5.30418 12.8418 5.44463L17.7817 10.3846C17.9907 10.594 18.1571 10.8419 18.2718 11.1146C18.3819 11.3881 18.4395 11.6798 18.4418 11.9746C18.4415 12.2696 18.3838 12.5617 18.2718 12.8346C18.1574 13.1104 17.991 13.3616 17.7817 13.5746L12.8418 18.5046C12.7769 18.5838 12.6963 18.6487 12.6051 18.6952C12.5139 18.7417 12.414 18.7687 12.3118 18.7746Z" fill="black"/>
</svg>
