<svg width="24" height="24" viewBox="0 0 24 24" fill="none" xmlns="http://www.w3.org/2000/svg">
<path d="M19.54 13.9999C19.5432 14.2298 19.4989 14.4579 19.41 14.6699C19.3201 14.882 19.1912 15.0753 19.0299 15.2399L14.74 19.5299C14.5977 19.6709 14.4054 19.7501 14.205 19.7501C14.0046 19.7501 13.8123 19.6709 13.67 19.5299C13.5295 19.3893 13.4506 19.1986 13.4506 18.9999C13.4506 18.8011 13.5295 18.6105 13.67 18.4699L17.3901 14.7499H8.21C7.21318 14.7473 6.25747 14.3521 5.54997 13.6499C5.20121 13.3028 4.92524 12.8897 4.73808 12.4347C4.55092 11.9797 4.45637 11.4919 4.46 10.9999V4.99988C4.46 4.80097 4.53908 4.6102 4.67973 4.46954C4.82038 4.32889 5.01109 4.24988 5.21 4.24988C5.40891 4.24988 5.59962 4.32889 5.74027 4.46954C5.88093 4.6102 5.96 4.80097 5.96 4.99988V10.9999C5.9584 11.2946 6.01496 11.5868 6.1265 11.8596C6.23805 12.1325 6.40239 12.3806 6.61003 12.5899C7.03527 13.0125 7.61043 13.2498 8.21 13.2499H17.3901L13.67 9.52988C13.5295 9.38925 13.4506 9.19863 13.4506 8.99988C13.4506 8.80113 13.5295 8.6105 13.67 8.46988C13.8135 8.33118 14.0054 8.25365 14.205 8.25365C14.4046 8.25365 14.5965 8.33118 14.74 8.46988L19.0299 12.7599C19.1885 12.9266 19.317 13.1194 19.41 13.3299C19.4981 13.5421 19.5424 13.7701 19.54 13.9999Z" fill="black"/>
</svg>
