<svg width="24" height="24" viewBox="0 0 24 24" fill="none" xmlns="http://www.w3.org/2000/svg">
<path d="M16.46 2.25H7.54004C6.13704 2.25 4.79151 2.80734 3.79944 3.79941C2.80737 4.79148 2.25 6.13701 2.25 7.54001V16.46C2.25264 17.8622 2.81087 19.2062 3.80237 20.1977C4.79386 21.1892 6.13786 21.7474 7.54004 21.75H16.46C17.8622 21.7474 19.2062 21.1892 20.1977 20.1977C21.1892 19.2062 21.7474 17.8622 21.75 16.46V7.54001C21.7474 6.13783 21.1892 4.79382 20.1977 3.80232C19.2062 2.81083 17.8622 2.25264 16.46 2.25ZM17.46 12.75H8.36005L12.09 16.47C12.2305 16.6106 12.3094 16.8012 12.3094 17C12.3094 17.1988 12.2305 17.3894 12.09 17.53C11.9447 17.6695 11.7515 17.7482 11.55 17.75C11.3545 17.7483 11.1675 17.6692 11.03 17.53L6.73004 13.24C6.56241 13.0787 6.42966 12.8847 6.34003 12.67C6.27076 12.5117 6.23014 12.3425 6.22003 12.17C6.19324 12.0718 6.19324 11.9682 6.22003 11.87C6.23026 11.6911 6.27083 11.5153 6.34003 11.35C6.4301 11.1385 6.56288 10.9478 6.73004 10.79L11.03 6.5C11.099 6.42924 11.1814 6.37301 11.2724 6.33461C11.3634 6.29621 11.4612 6.27643 11.56 6.27643C11.6588 6.27643 11.7566 6.29621 11.8477 6.33461C11.9387 6.37301 12.0211 6.42924 12.09 6.5C12.2305 6.64063 12.3094 6.83125 12.3094 7.03C12.3094 7.22875 12.2305 7.41937 12.09 7.56L8.36005 11.28H17.46C17.6589 11.28 17.8497 11.359 17.9904 11.4997C18.131 11.6403 18.21 11.8311 18.21 12.03C18.21 12.2289 18.131 12.4197 17.9904 12.5603C17.8497 12.701 17.6589 12.78 17.46 12.78V12.75Z" fill="black"/>
</svg>
