<svg width="24" height="24" viewBox="0 0 24 24" fill="none" xmlns="http://www.w3.org/2000/svg">
<path d="M12 2.25C10.0717 2.25 8.18659 2.82183 6.58321 3.89317C4.97983 4.96452 3.73016 6.48727 2.99221 8.26884C2.25425 10.0504 2.06113 12.0108 2.43734 13.9021C2.81354 15.7934 3.74217 17.5307 5.10573 18.8943C6.4693 20.2578 8.20655 21.1864 10.0979 21.5627C11.9892 21.9389 13.9496 21.7458 15.7312 21.0078C17.5127 20.2699 19.0355 19.0202 20.1068 17.4168C21.1782 15.8134 21.75 13.9284 21.75 12C21.7474 9.41495 20.7193 6.93655 18.8914 5.10864C17.0635 3.28074 14.5851 2.25265 12 2.25ZM17.53 11.87C17.3895 12.0107 17.1989 12.0898 17 12.09C16.802 12.0857 16.6128 12.0072 16.47 11.87L12.75 8.17V17.25C12.75 17.4489 12.671 17.6397 12.5304 17.7803C12.3897 17.921 12.1989 18 12 18C11.8011 18 11.6103 17.921 11.4697 17.7803C11.329 17.6397 11.25 17.4489 11.25 17.25V8.15001L7.52999 11.87C7.38781 12.0025 7.19982 12.0746 7.00551 12.0712C6.81121 12.0678 6.62578 11.989 6.48836 11.8516C6.35095 11.7142 6.27225 11.5288 6.26882 11.3345C6.26539 11.1402 6.33751 10.9522 6.46999 10.81L10.76 6.52C10.9228 6.35661 11.1166 6.22741 11.33 6.14C11.4799 6.07869 11.6385 6.04157 11.8 6.03C11.8665 6.03668 11.9335 6.03668 12 6.03C12.0665 6.03668 12.1335 6.03668 12.2 6.03C12.3648 6.04168 12.5266 6.07878 12.68 6.14C12.8948 6.22486 13.0891 6.35439 13.25 6.52L17.53 10.81C17.6007 10.8789 17.657 10.9614 17.6954 11.0524C17.7338 11.1434 17.7536 11.2412 17.7536 11.34C17.7536 11.4388 17.7338 11.5366 17.6954 11.6276C17.657 11.7186 17.6007 11.8011 17.53 11.87Z" fill="black"/>
</svg>
