<svg width="24" height="24" viewBox="0 0 24 24" fill="none" xmlns="http://www.w3.org/2000/svg">
<path d="M16.5699 2.00001H7.40997C5.97423 2.00266 4.59821 2.57486 3.58392 3.59102C2.56964 4.60718 2 5.98426 2 7.42001V16.58C2 18.0158 2.56964 19.3928 3.58392 20.409C4.59821 21.4252 5.97423 21.9974 7.40997 22H16.58C18.0174 22 19.396 21.429 20.4125 20.4125C21.4289 19.3961 22 18.0175 22 16.58V7.42001C22 6.7074 21.8594 6.00179 21.5864 5.34355C21.3134 4.68532 20.9133 4.08737 20.4089 3.58395C19.9046 3.08052 19.306 2.6815 18.6472 2.40971C17.9885 2.13792 17.2826 1.99869 16.5699 2.00001ZM16.5099 8.89001L10.31 15.09H15.14C15.4052 15.09 15.6596 15.1954 15.8471 15.3829C16.0346 15.5704 16.14 15.8248 16.14 16.09C16.14 16.3552 16.0346 16.6096 15.8471 16.7971C15.6596 16.9846 15.4052 17.09 15.14 17.09H8.89996C8.43266 17.0909 7.97982 16.9282 7.62 16.63L7.46997 16.5C7.41164 16.4437 7.36116 16.3798 7.31995 16.31C7.03549 15.9554 6.8803 15.5146 6.87994 15.06V8.84001C6.87994 8.5748 6.98532 8.32044 7.17285 8.13291C7.36039 7.94537 7.61473 7.84001 7.87994 7.84001C8.14516 7.84001 8.39956 7.94537 8.5871 8.13291C8.77463 8.32044 8.87994 8.5748 8.87994 8.84001V13.7L15.1 7.48001C15.1929 7.38628 15.3036 7.31189 15.4254 7.26112C15.5473 7.21035 15.678 7.18421 15.81 7.18421C15.942 7.18421 16.0727 7.21035 16.1946 7.26112C16.3164 7.31189 16.427 7.38628 16.52 7.48001C16.7049 7.66869 16.8077 7.92289 16.8058 8.18707C16.8039 8.45126 16.6975 8.70397 16.5099 8.89001Z" fill="black"/>
</svg>
