<svg width="24" height="24" viewBox="0 0 24 24" fill="none" xmlns="http://www.w3.org/2000/svg">
<path d="M19.7306 5.18994C19.7319 5.28881 19.7134 5.38694 19.6762 5.47855C19.639 5.57015 19.5838 5.65337 19.5139 5.72328C19.444 5.7932 19.3608 5.84839 19.2692 5.8856C19.1776 5.92282 19.0794 5.94129 18.9806 5.93994H12.9806C12.3838 5.93994 11.8115 6.177 11.3896 6.59895C10.9676 7.02091 10.7306 7.5932 10.7306 8.18994V17.36L14.4506 13.6599C14.5912 13.5195 14.7818 13.4406 14.9806 13.4406C15.1793 13.4406 15.3699 13.5195 15.5106 13.6599C15.5813 13.7289 15.6376 13.8113 15.676 13.9023C15.7144 13.9934 15.7341 14.0911 15.7341 14.1899C15.7341 14.2887 15.7144 14.3865 15.676 14.4776C15.6376 14.5686 15.5813 14.651 15.5106 14.7199L11.2206 19.0399C11.0651 19.2074 10.8736 19.3373 10.6606 19.42C10.4466 19.5149 10.2147 19.5627 9.98059 19.56C9.75086 19.5613 9.52316 19.5171 9.3106 19.4299C9.09463 19.3427 8.90015 19.2096 8.7406 19.0399L4.47058 14.7199C4.3381 14.5778 4.26598 14.3897 4.2694 14.1954C4.27283 14.0011 4.35153 13.8157 4.48895 13.6783C4.62636 13.5409 4.81174 13.4622 5.00604 13.4588C5.20034 13.4553 5.3884 13.5275 5.53057 13.6599L9.25061 17.3799V8.18994C9.25324 7.19619 9.64917 6.2439 10.3519 5.54121C11.0546 4.83852 12.0069 4.44258 13.0006 4.43994H19.0006C19.196 4.44515 19.3816 4.52647 19.518 4.66656C19.6544 4.80666 19.7307 4.99445 19.7306 5.18994Z" fill="black"/>
</svg>
