<svg width="24" height="24" viewBox="0 0 24 24" fill="none" xmlns="http://www.w3.org/2000/svg">
<path d="M12 2.25C10.0716 2.25 8.18655 2.82181 6.58317 3.89316C4.97979 4.9645 3.73012 6.48725 2.99216 8.26883C2.25421 10.0504 2.06115 12.0108 2.43735 13.9021C2.81356 15.7934 3.74213 17.5307 5.10569 18.8943C6.46925 20.2578 8.20656 21.1864 10.0979 21.5627C11.9892 21.9389 13.9496 21.7458 15.7312 21.0078C17.5128 20.2699 19.0354 19.0202 20.1068 17.4168C21.1781 15.8134 21.75 13.9284 21.75 12C21.7447 9.41576 20.7158 6.93888 18.8885 5.11154C17.0611 3.28421 14.5842 2.25528 12 2.25ZM17.54 13.19L13.25 17.53C13.0844 17.6947 12.8871 17.824 12.67 17.91C12.4587 18.0024 12.2306 18.0501 12 18.05C11.535 18.0433 11.0906 17.857 10.76 17.53L6.47001 13.19C6.32956 13.0494 6.25065 12.8587 6.25065 12.66C6.25065 12.4612 6.32956 12.2706 6.47001 12.13C6.61063 11.9895 6.80123 11.9107 6.99998 11.9107C7.19873 11.9107 7.38938 11.9895 7.53 12.13L11.24 15.88V6.75C11.24 6.55109 11.319 6.36032 11.4596 6.21967C11.6003 6.07901 11.7911 6 11.99 6C12.1889 6 12.3796 6.07901 12.5203 6.21967C12.661 6.36032 12.74 6.55109 12.74 6.75V15.89L16.46 12.13C16.5296 12.0597 16.6123 12.0039 16.7035 11.9656C16.7947 11.9273 16.8925 11.9074 16.9914 11.9069C17.0903 11.9065 17.1883 11.9255 17.2799 11.9629C17.3714 12.0003 17.4547 12.0554 17.525 12.125C17.5953 12.1946 17.6511 12.2774 17.6894 12.3685C17.7276 12.4597 17.7476 12.5576 17.748 12.6565C17.7485 12.7554 17.7295 12.8534 17.6921 12.9449C17.6546 13.0365 17.5996 13.1197 17.53 13.19H17.54Z" fill="black"/>
</svg>
