<svg width="24" height="24" viewBox="0 0 24 24" fill="none" xmlns="http://www.w3.org/2000/svg">
<path d="M16.58 2H7.40997C5.97423 2.00265 4.59821 2.57485 3.58392 3.59101C2.56964 4.60717 2 5.98426 2 7.42V16.58C2 18.0157 2.56964 19.3928 3.58392 20.409C4.59821 21.4251 5.97423 21.9974 7.40997 22H16.58C18.0174 22 19.396 21.429 20.4125 20.4125C21.4289 19.3961 22 18.0175 22 16.58V7.42C22 5.98252 21.4289 4.60393 20.4125 3.58748C19.396 2.57103 18.0174 2 16.58 2ZM17.11 15.08C17.1096 15.5346 16.9544 15.9754 16.67 16.33C16.6288 16.3998 16.5783 16.4637 16.52 16.52C16.4747 16.5686 16.4245 16.6121 16.37 16.65C16.0102 16.9482 15.5573 17.1109 15.09 17.11H8.84998C8.58476 17.11 8.33042 17.0046 8.14288 16.8171C7.95535 16.6296 7.84998 16.3752 7.84998 16.11C7.84998 15.8448 7.95535 15.5904 8.14288 15.4029C8.33042 15.2154 8.58476 15.11 8.84998 15.11H13.7L7.48999 8.89C7.38531 8.80035 7.30026 8.69004 7.24023 8.56597C7.18021 8.44191 7.14649 8.30677 7.14117 8.16905C7.13585 8.03133 7.15908 7.894 7.20935 7.76568C7.25962 7.63735 7.3359 7.5208 7.43335 7.42335C7.5308 7.32589 7.64731 7.24964 7.77563 7.19936C7.90396 7.14909 8.0413 7.12588 8.17902 7.1312C8.31674 7.13652 8.45186 7.17025 8.57593 7.23028C8.69999 7.2903 8.81032 7.37532 8.89996 7.48L15.1 13.68V8.84C15.1 8.57479 15.2053 8.32043 15.3929 8.1329C15.5804 7.94536 15.8348 7.84 16.1 7.84C16.3652 7.84 16.6195 7.94536 16.8071 8.1329C16.9946 8.32043 17.1 8.57479 17.1 8.84L17.11 15.08Z" fill="black"/>
</svg>
