<svg width="24" height="24" viewBox="0 0 24 24" fill="none" xmlns="http://www.w3.org/2000/svg">
<path d="M18.8806 8.96067V16.8307C18.8827 17.099 18.8281 17.3648 18.7206 17.6107C18.6421 17.8081 18.5305 17.9907 18.3906 18.1507C18.3595 18.1984 18.3225 18.242 18.2806 18.2807C18.2411 18.3256 18.1936 18.3629 18.1406 18.3907C17.9857 18.5348 17.8062 18.6499 17.6106 18.7307C17.3626 18.8303 17.0978 18.8812 16.8306 18.8807H8.96057C8.76165 18.8807 8.57094 18.8017 8.43029 18.661C8.28964 18.5204 8.21057 18.3296 8.21057 18.1307C8.21057 17.9318 8.28964 17.741 8.43029 17.6003C8.57094 17.4597 8.76165 17.3807 8.96057 17.3807H16.3206L5.32055 6.38067C5.18807 6.2385 5.11595 6.05045 5.11938 5.85615C5.12281 5.66185 5.20157 5.47646 5.33898 5.33905C5.4764 5.20163 5.66177 5.12293 5.85607 5.1195C6.05037 5.11607 6.23844 5.18819 6.38061 5.32067L17.3806 16.3207V8.96067C17.3806 8.76176 17.4597 8.57099 17.6003 8.43034C17.741 8.28969 17.9317 8.21067 18.1306 8.21067C18.3295 8.21067 18.5202 8.28969 18.6609 8.43034C18.8015 8.57099 18.8806 8.76176 18.8806 8.96067Z" fill="black"/>
</svg>
