<svg width="24" height="24" viewBox="0 0 24 24" fill="none" xmlns="http://www.w3.org/2000/svg">
<path d="M16.5831 2H7.39689C5.96157 2 4.58503 2.57103 3.5701 3.58748C2.55518 4.60393 1.98502 5.98252 1.98502 7.42V16.58C1.98502 18.0175 2.55518 19.3961 3.5701 20.4125C4.58503 21.429 5.96157 22 7.39689 22H16.5831C18.0167 21.9974 19.3907 21.4251 20.4035 20.409C21.4162 19.3928 21.985 18.0157 21.985 16.58V7.42C21.985 5.98426 21.4162 4.60717 20.4035 3.59101C19.3907 2.57485 18.0167 2.00265 16.5831 2ZM17.8413 13.17L13.4378 17.59C13.2478 17.7769 13.0242 17.9262 12.7788 18.03C12.5322 18.1338 12.2675 18.1882 12 18.19C11.7326 18.1862 11.4684 18.1319 11.2212 18.03C10.9735 17.9259 10.7494 17.7729 10.5621 17.58L6.16875 13.17C6.07516 13.077 6.0009 12.9664 5.9502 12.8446C5.89951 12.7227 5.87342 12.592 5.87342 12.46C5.87342 12.328 5.89951 12.1973 5.9502 12.0754C6.0009 11.9536 6.07516 11.843 6.16875 11.75C6.35583 11.5637 6.60892 11.4592 6.87271 11.4592C7.1365 11.4592 7.38953 11.5637 7.57661 11.75L11.0015 15.18V6.4C11.0015 6.13479 11.1067 5.88043 11.2939 5.69289C11.4812 5.50536 11.7352 5.4 12 5.4C12.2648 5.4 12.5188 5.50536 12.7061 5.69289C12.8933 5.88043 12.9985 6.13479 12.9985 6.4V15.16L16.4234 11.76C16.5158 11.6668 16.6257 11.5927 16.7467 11.542C16.8677 11.4913 16.9976 11.4649 17.1288 11.4644C17.26 11.464 17.39 11.4894 17.5114 11.5393C17.6328 11.5891 17.7432 11.6624 17.8363 11.755C17.9294 11.8476 18.0033 11.9576 18.054 12.0788C18.1046 12.2001 18.1309 12.3301 18.1314 12.4615C18.1318 12.5929 18.1065 12.7231 18.0567 12.8446C18.0069 12.9662 17.9337 13.0768 17.8413 13.17Z" fill="black"/>
</svg>
