<svg width="24" height="24" viewBox="0 0 24 24" fill="none" xmlns="http://www.w3.org/2000/svg">
<path d="M17.9999 18.441C17.9014 18.4414 17.8038 18.4222 17.7128 18.3844C17.6218 18.3467 17.5392 18.2911 17.47 18.221L12.53 13.281C12.4634 13.2098 12.3813 13.155 12.29 13.121C12.2001 13.0816 12.103 13.0613 12.0049 13.0613C11.9068 13.0613 11.8098 13.0816 11.72 13.121C11.6287 13.155 11.5465 13.2098 11.48 13.281L6.52997 18.221C6.46102 18.2917 6.37862 18.348 6.2876 18.3864C6.19657 18.4248 6.09873 18.4445 5.99994 18.4445C5.90115 18.4445 5.80337 18.4248 5.71234 18.3864C5.62132 18.348 5.53892 18.2917 5.46997 18.221C5.32952 18.0804 5.25061 17.8897 5.25061 17.691C5.25061 17.4922 5.32952 17.3016 5.46997 17.161L10.41 12.221C10.6194 12.012 10.8673 11.8456 11.14 11.731C11.4124 11.6171 11.7047 11.5585 11.9999 11.5585C12.2952 11.5585 12.5876 11.6171 12.86 11.731C13.1362 11.849 13.3874 12.0187 13.6 12.231L18.53 17.161C18.6704 17.3016 18.7493 17.4922 18.7493 17.691C18.7493 17.8897 18.6704 18.0804 18.53 18.221C18.4607 18.2911 18.3782 18.3467 18.2872 18.3844C18.1962 18.4222 18.0985 18.4414 17.9999 18.441Z" fill="black"/>
<path d="M17.9999 12.441C17.9014 12.4415 17.8038 12.4222 17.7128 12.3845C17.6218 12.3467 17.5392 12.2911 17.47 12.221L12.53 7.28099C12.4606 7.2132 12.3792 7.15894 12.29 7.12099C12.2001 7.08161 12.103 7.06128 12.0049 7.06128C11.9068 7.06128 11.8098 7.08161 11.72 7.12099C11.6307 7.15894 11.5493 7.2132 11.48 7.28099L6.52997 12.221C6.46102 12.2918 6.37862 12.348 6.2876 12.3864C6.19657 12.4248 6.09873 12.4446 5.99994 12.4446C5.90115 12.4446 5.80337 12.4248 5.71234 12.3864C5.62132 12.348 5.53892 12.2918 5.46997 12.221C5.32952 12.0804 5.25061 11.8897 5.25061 11.691C5.25061 11.4922 5.32952 11.3016 5.46997 11.161L10.41 6.221C10.6194 6.01205 10.8673 5.84564 11.14 5.73099C11.5526 5.55636 12.0084 5.51066 12.4474 5.5999C12.8865 5.68914 13.2883 5.90915 13.6 6.23099L18.53 11.161C18.6704 11.3016 18.7493 11.4922 18.7493 11.691C18.7493 11.8897 18.6704 12.0804 18.53 12.221C18.4607 12.2911 18.3782 12.3467 18.2872 12.3845C18.1962 12.4222 18.0985 12.4415 17.9999 12.441Z" fill="black"/>
</svg>
