<svg width="24" height="24" viewBox="0 0 24 24" fill="none" xmlns="http://www.w3.org/2000/svg">
<path d="M16.58 2H7.40991C5.97417 2.00265 4.59815 2.57485 3.58386 3.59101C2.56958 4.60717 2 5.98426 2 7.42V16.58C2 18.0157 2.56958 19.3928 3.58386 20.409C4.59815 21.4251 5.97417 21.9974 7.40991 22H16.58C18.0174 22 19.396 21.429 20.4125 20.4125C21.4289 19.3961 22 18.0175 22 16.58V7.42C22 5.98252 21.4289 4.60393 20.4125 3.58748C19.396 2.57103 18.0174 2 16.58 2ZM16.52 16.52C16.4271 16.6137 16.3164 16.6881 16.1946 16.7389C16.0727 16.7897 15.9419 16.8158 15.8099 16.8158C15.6779 16.8158 15.5473 16.7897 15.4254 16.7389C15.3036 16.6881 15.1929 16.6137 15.1 16.52L8.90991 10.32V15.15C8.90991 15.4152 8.8046 15.6696 8.61707 15.8571C8.42953 16.0446 8.17513 16.15 7.90991 16.15C7.6447 16.15 7.39042 16.0446 7.20288 15.8571C7.01534 15.6696 6.90991 15.4152 6.90991 15.15V8.92C6.91081 8.46079 7.06978 8.01589 7.35999 7.66C7.39693 7.59304 7.44419 7.5323 7.5 7.48C7.54608 7.42843 7.6 7.38454 7.65991 7.35C8.01709 7.05403 8.46606 6.89141 8.92993 6.89H15.1699C15.4351 6.89 15.6895 6.99536 15.8771 7.18289C16.0646 7.37043 16.1699 7.62478 16.1699 7.89C16.1699 8.15522 16.0646 8.40957 15.8771 8.59711C15.6895 8.78464 15.4351 8.89 15.1699 8.89H10.3199L16.5399 15.11C16.7235 15.3 16.8245 15.5549 16.8208 15.8191C16.8171 16.0833 16.709 16.3353 16.52 16.52Z" fill="black"/>
</svg>
