<svg width="24" height="24" viewBox="0 0 24 24" fill="none" xmlns="http://www.w3.org/2000/svg">
<path d="M15.25 2H8.75C6.9606 2.00265 5.24528 2.71465 3.97998 3.97995C2.71468 5.24525 2.00265 6.9606 2 8.75V15.25C2.00265 17.0394 2.71468 18.7547 3.97998 20.02C5.24528 21.2853 6.9606 21.9974 8.75 22H15.25C17.0394 21.9974 18.7547 21.2853 20.02 20.02C21.2853 18.7547 21.9974 17.0394 22 15.25V8.75C21.9974 6.9606 21.2853 5.24525 20.02 3.97995C18.7547 2.71465 17.0394 2.00265 15.25 2ZM18.25 12.78C18.1425 13.0262 17.9899 13.25 17.8 13.44L13.34 17.85C13.1538 18.0347 12.9024 18.1389 12.64 18.14C12.5077 18.1395 12.3768 18.1127 12.2549 18.0612C12.1331 18.0097 12.0226 17.9345 11.93 17.84C11.7437 17.6527 11.6392 17.3992 11.6392 17.135C11.6392 16.8708 11.7437 16.6174 11.93 16.43L15.5 13H6.59998C6.33476 13 6.08042 12.8946 5.89288 12.7071C5.70535 12.5196 5.59998 12.2652 5.59998 12C5.59998 11.7348 5.70535 11.4804 5.89288 11.2929C6.08042 11.1054 6.33476 11 6.59998 11H15.42L11.98 7.57001C11.8747 7.48109 11.789 7.37137 11.7281 7.24774C11.6673 7.12412 11.6326 6.98924 11.6263 6.85159C11.6201 6.71394 11.6423 6.57646 11.6917 6.44781C11.741 6.31917 11.8165 6.20213 11.9132 6.104C12.0099 6.00588 12.1259 5.92881 12.2538 5.87762C12.3818 5.82644 12.519 5.80223 12.6567 5.80655C12.7944 5.81087 12.9297 5.84361 13.0542 5.90271C13.1787 5.96181 13.2896 6.046 13.38 6.14999L17.84 10.56C18.0299 10.75 18.1825 10.9738 18.29 11.22C18.4903 11.7207 18.4903 12.2793 18.29 12.78H18.25Z" fill="black"/>
</svg>
