<svg width="24" height="24" viewBox="0 0 24 24" fill="none" xmlns="http://www.w3.org/2000/svg">
<path d="M16.46 2.25H7.53998C6.13698 2.25 4.79144 2.80734 3.79938 3.79941C2.80731 4.79148 2.25 6.13701 2.25 7.54001V16.46C2.25264 17.8622 2.81081 19.2062 3.80231 20.1977C4.7938 21.1892 6.13779 21.7474 7.53998 21.75H16.46C17.8621 21.7474 19.2061 21.1892 20.1976 20.1977C21.1891 19.2062 21.7474 17.8622 21.75 16.46V7.54001C21.75 6.13701 21.1926 4.79148 20.2006 3.79941C19.2085 2.80734 17.863 2.25 16.46 2.25ZM17.91 12.67C17.8201 12.8821 17.6912 13.0755 17.53 13.24L13.19 17.53C13.0472 17.6672 12.858 17.7457 12.66 17.75C12.5607 17.7492 12.4626 17.7284 12.3716 17.6889C12.2805 17.6493 12.1984 17.5919 12.13 17.52C11.9896 17.3794 11.9106 17.1888 11.9106 16.99C11.9106 16.7913 11.9896 16.6006 12.13 16.46L15.88 12.75H6.75C6.55109 12.75 6.36032 12.671 6.21967 12.5303C6.07901 12.3897 6 12.1989 6 12C6 11.8011 6.07901 11.6103 6.21967 11.4697C6.36032 11.329 6.55109 11.25 6.75 11.25H15.89L12.13 7.53C11.9881 7.38943 11.9079 7.19826 11.9069 6.99854C11.906 6.79881 11.9844 6.60689 12.125 6.465C12.2656 6.32311 12.4567 6.24287 12.6564 6.24193C12.8562 6.24099 13.0481 6.31944 13.19 6.46001L17.53 10.75C17.6885 10.9167 17.817 11.1096 17.91 11.32C18.0013 11.5351 18.0489 11.7663 18.05 12C18.049 12.2305 18.0013 12.4584 17.91 12.67Z" fill="black"/>
</svg>
