<svg width="24" height="24" viewBox="0 0 24 24" fill="none" xmlns="http://www.w3.org/2000/svg">
<path d="M16.46 2.25H7.54004C6.13704 2.25 4.79151 2.80734 3.79944 3.79941C2.80737 4.79148 2.25 6.13701 2.25 7.54001V16.46C2.25264 17.8622 2.81075 19.2062 3.80225 20.1977C4.79374 21.1892 6.13786 21.7474 7.54004 21.75H16.46C17.8621 21.7474 19.2061 21.1892 20.1976 20.1977C21.1891 19.2062 21.7474 17.8622 21.75 16.46V7.54001C21.7474 6.13783 21.1891 4.79382 20.1976 3.80232C19.2061 2.81083 17.8621 2.25264 16.46 2.25ZM16.24 16.25C16.0971 16.3872 15.908 16.4657 15.71 16.47C15.5111 16.4698 15.3204 16.3907 15.1799 16.25L8.75 9.82001V15.05C8.75 15.2489 8.67093 15.4397 8.53027 15.5803C8.38962 15.721 8.19891 15.8 8 15.8C7.80109 15.8 7.61026 15.721 7.4696 15.5803C7.32895 15.4397 7.25 15.2489 7.25 15.05V9.05C7.24753 8.64252 7.39327 8.24803 7.66003 7.94C7.71525 7.84452 7.79454 7.76522 7.89001 7.71001C8.19805 7.44325 8.59252 7.29753 9 7.3H15.0699C15.2689 7.3 15.4597 7.37902 15.6003 7.51967C15.741 7.66032 15.8199 7.85109 15.8199 8.05C15.8199 8.24892 15.741 8.43969 15.6003 8.58034C15.4597 8.72099 15.2689 8.8 15.0699 8.8H9.80994L16.24 15.23C16.3644 15.3694 16.4324 15.5501 16.4305 15.7369C16.4287 15.9237 16.3571 16.1031 16.23 16.24L16.24 16.25Z" fill="black"/>
</svg>
