<svg width="24" height="24" viewBox="0 0 24 24" fill="none" xmlns="http://www.w3.org/2000/svg">
<path d="M16.59 2H7.41992C5.98245 2 4.60385 2.57103 3.5874 3.58748C2.57096 4.60393 2 5.98252 2 7.42V16.58C2 18.0175 2.57096 19.3961 3.5874 20.4125C4.60385 21.429 5.98245 22 7.41992 22H16.59C18.0257 21.9974 19.4017 21.4251 20.416 20.409C21.4303 19.3928 22 18.0157 22 16.58V7.42C22 5.98426 21.4303 4.60717 20.416 3.59101C19.4017 2.57485 18.0257 2.00265 16.59 2ZM17.11 15.15C17.11 15.4152 17.0047 15.6696 16.8171 15.8571C16.6296 16.0446 16.3752 16.15 16.11 16.15C15.8448 16.15 15.5904 16.0446 15.4028 15.8571C15.2153 15.6696 15.11 15.4152 15.11 15.15V10.3L8.90002 16.52C8.80658 16.6127 8.69569 16.686 8.57385 16.7358C8.45201 16.7855 8.32155 16.8108 8.18994 16.81C8.05833 16.8108 7.92787 16.7855 7.80603 16.7358C7.68419 16.686 7.57342 16.6127 7.47998 16.52C7.29373 16.3326 7.18921 16.0792 7.18921 15.815C7.18921 15.5508 7.29373 15.2974 7.47998 15.11L13.6799 8.91H8.84998C8.58476 8.91 8.33036 8.80465 8.14282 8.61711C7.95529 8.42957 7.84998 8.17522 7.84998 7.91C7.84998 7.64479 7.95529 7.39043 8.14282 7.2029C8.33036 7.01536 8.58476 6.91 8.84998 6.91H15.09C15.5466 6.90821 15.9892 7.06756 16.34 7.36C16.4716 7.43836 16.5817 7.54835 16.66 7.68C16.957 8.03201 17.1168 8.47948 17.11 8.94V15.15Z" fill="black"/>
</svg>
