<svg width="24" height="24" viewBox="0 0 24 24" fill="none" xmlns="http://www.w3.org/2000/svg">
<path d="M12 1.75C9.97274 1.75 7.99103 2.35116 6.30542 3.47744C4.61982 4.60372 3.30601 6.20455 2.53022 8.07749C1.75442 9.95043 1.55147 12.0114 1.94696 13.9997C2.34246 15.988 3.31865 17.8144 4.75214 19.2478C6.18563 20.6813 8.012 21.6575 10.0003 22.053C11.9886 22.4485 14.0495 22.2456 15.9225 21.4698C17.7954 20.694 19.3963 19.3802 20.5226 17.6946C21.6489 16.009 22.25 14.0273 22.25 12C22.2474 9.28234 21.1666 6.67676 19.2449 4.75508C17.3233 2.83341 14.7177 1.75265 12 1.75ZM18.43 12.75C18.3228 12.9993 18.1702 13.2265 17.98 13.42L13.4 17.95C13.3066 18.0427 13.1958 18.116 13.0739 18.1658C12.9521 18.2155 12.8216 18.2408 12.69 18.24C12.5577 18.2394 12.4268 18.2127 12.3049 18.1612C12.1831 18.1097 12.0726 18.0345 11.98 17.94C11.7937 17.7526 11.6892 17.4992 11.6892 17.235C11.6892 16.9708 11.7937 16.7174 11.98 16.53L15.59 12.96H6.44001C6.17479 12.96 5.92045 12.8546 5.73291 12.6671C5.54538 12.4796 5.44001 12.2252 5.44001 11.96C5.44001 11.6948 5.54538 11.4404 5.73291 11.2529C5.92045 11.0654 6.17479 10.96 6.44001 10.96H15.53L11.98 7.39C11.7937 7.20264 11.6892 6.94918 11.6892 6.685C11.6892 6.42081 11.7937 6.16737 11.98 5.98C12.0729 5.88627 12.1836 5.81188 12.3054 5.76111C12.4273 5.71034 12.558 5.6842 12.69 5.6842C12.822 5.6842 12.9527 5.71034 13.0746 5.76111C13.1964 5.81188 13.3071 5.88627 13.4 5.98L17.98 10.51C18.1702 10.7035 18.3228 10.9307 18.43 11.18C18.5373 11.4296 18.5927 11.6984 18.5927 11.97C18.5927 12.2416 18.5373 12.5104 18.43 12.76V12.75Z" fill="black"/>
</svg>
