<svg width="24" height="24" viewBox="0 0 24 24" fill="none" xmlns="http://www.w3.org/2000/svg">
<path d="M16.62 2H7.41998C5.98251 2 4.60391 2.57103 3.58746 3.58748C2.57102 4.60393 2 5.98252 2 7.42V16.58C2 18.0175 2.57102 19.3961 3.58746 20.4125C4.60391 21.429 5.98251 22 7.41998 22H16.59C18.0257 21.9974 19.4017 21.4251 20.416 20.409C21.4303 19.3928 22 18.0157 22 16.58V7.42C22 5.98943 21.4345 4.61686 20.4267 3.60155C19.4189 2.58625 18.0505 2.01056 16.62 2ZM18.32 12.78C18.2162 13.0257 18.0669 13.2496 17.88 13.44L13.42 17.85C13.3265 17.9427 13.2157 18.016 13.0939 18.0658C12.972 18.1155 12.8416 18.1408 12.71 18.14C12.5122 18.1392 12.3191 18.0797 12.1552 17.9692C11.9912 17.8586 11.8636 17.7019 11.7887 17.5189C11.7138 17.3358 11.6948 17.1347 11.7342 16.9409C11.7736 16.7471 11.8696 16.5693 12.01 16.43L15.48 13H6.63995C6.37474 13 6.1204 12.8946 5.93286 12.7071C5.74532 12.5196 5.63995 12.2652 5.63995 12C5.63995 11.7348 5.74532 11.4804 5.93286 11.2929C6.1204 11.1054 6.37474 11 6.63995 11H15.42L11.98 7.57C11.8841 7.47545 11.8078 7.36294 11.7554 7.2389C11.703 7.11486 11.6756 6.98171 11.6747 6.84707C11.6738 6.71242 11.6993 6.57891 11.75 6.45416C11.8007 6.32941 11.8754 6.21587 11.97 6.12C12.0645 6.02414 12.177 5.94783 12.3011 5.89545C12.4251 5.84306 12.5583 5.81563 12.6929 5.8147C12.8276 5.81377 12.9611 5.83937 13.0858 5.89004C13.2106 5.94071 13.3241 6.01545 13.42 6.11L17.88 10.52C18.0714 10.7076 18.2231 10.9317 18.3262 11.1791C18.4292 11.4265 18.4815 11.692 18.48 11.96C18.4824 12.2413 18.428 12.5202 18.32 12.78Z" fill="black"/>
</svg>
