<svg width="24" height="24" viewBox="0 0 24 24" fill="none" xmlns="http://www.w3.org/2000/svg">
<path d="M12.0449 12.24C12.0064 12.2072 11.9756 12.1662 11.955 12.12C11.9791 12.1641 12.0094 12.2045 12.0449 12.24Z" fill="black"/>
<path d="M18.6525 6.56808L7.6525 17.5681H15.0225C15.2214 17.5681 15.4122 17.6471 15.5529 17.7878C15.6935 17.9284 15.7725 18.1192 15.7725 18.3181C15.7725 18.517 15.6935 18.7078 15.5529 18.8484C15.4122 18.9891 15.2214 19.0681 15.0225 19.0681H7.14249C6.87844 19.0694 6.61684 19.0184 6.3726 18.9181C6.17585 18.8396 5.99592 18.7242 5.84257 18.5781C5.78957 18.5503 5.74211 18.513 5.70255 18.4681C5.66347 18.4332 5.6298 18.3928 5.60258 18.3481C5.46301 18.186 5.34845 18.004 5.26261 17.8081C5.16195 17.5569 5.11098 17.2886 5.11259 17.0181V9.15808C5.11259 8.95917 5.19154 8.76841 5.33219 8.62776C5.47284 8.48711 5.66367 8.40808 5.86259 8.40808C6.0615 8.40808 6.25221 8.48711 6.39286 8.62776C6.53351 8.76841 6.61259 8.95917 6.61259 9.15808V16.5081L17.6126 5.50809C17.7562 5.36939 17.9479 5.29187 18.1475 5.29187C18.3471 5.29187 18.539 5.36939 18.6825 5.50809C18.8191 5.65265 18.8926 5.84552 18.887 6.0443C18.8814 6.24307 18.797 6.43148 18.6525 6.56808Z" fill="black"/>
</svg>
