<svg width="24" height="24" viewBox="0 0 24 24" fill="none" xmlns="http://www.w3.org/2000/svg">
<path d="M18.6702 18.675C18.5273 18.8122 18.3381 18.8907 18.1401 18.895C17.9413 18.8948 17.7508 18.8157 17.6102 18.675L6.61023 7.67499V15.045C6.61023 15.2439 6.53116 15.4347 6.39051 15.5753C6.24986 15.716 6.05915 15.795 5.86023 15.795C5.66132 15.795 5.47049 15.716 5.32984 15.5753C5.18919 15.4347 5.11023 15.2439 5.11023 15.045V7.14499C5.10967 6.87777 5.16062 6.61295 5.26026 6.36499C5.34795 6.16171 5.46593 5.97288 5.61023 5.80498C5.6348 5.76713 5.66514 5.7334 5.7002 5.70499C5.74513 5.65904 5.79553 5.61873 5.85022 5.58498C6.00294 5.44544 6.17896 5.33376 6.37024 5.25499C6.61819 5.15535 6.88293 5.10442 7.15015 5.10499H15.0201C15.2191 5.10499 15.4099 5.184 15.5505 5.32465C15.6912 5.4653 15.7701 5.65607 15.7701 5.85499C15.7701 6.0539 15.6912 6.24467 15.5505 6.38532C15.4099 6.52597 15.2191 6.60499 15.0201 6.60499H7.66016L18.6602 17.605C18.7319 17.6741 18.7891 17.7569 18.8285 17.8484C18.8679 17.9399 18.8887 18.0383 18.8897 18.1379C18.8906 18.2375 18.8717 18.3363 18.834 18.4285C18.7963 18.5207 18.7406 18.6045 18.6702 18.675Z" fill="black"/>
</svg>
