<svg width="24" height="24" viewBox="0 0 24 24" fill="none" xmlns="http://www.w3.org/2000/svg">
<path d="M16.58 2H7.41992C5.98245 2 4.60385 2.57103 3.5874 3.58748C2.57096 4.60393 2 5.98252 2 7.42V16.58C2 18.0175 2.57096 19.3961 3.5874 20.4125C4.60385 21.429 5.98245 22 7.41992 22H16.58C18.0174 22 19.396 21.429 20.4125 20.4125C21.4289 19.3961 22 18.0175 22 16.58V7.42C22 5.98252 21.4289 4.60393 20.4125 3.58748C19.396 2.57103 18.0174 2 16.58 2ZM17.84 12.24C17.6553 12.4284 17.4038 12.5362 17.14 12.54C17.0077 12.5395 16.8768 12.5127 16.7549 12.4612C16.633 12.4097 16.5225 12.3345 16.4299 12.24L13 8.8V17.6C13 17.8652 12.8946 18.1196 12.707 18.3071C12.5195 18.4946 12.2652 18.6 12 18.6C11.7348 18.6 11.4804 18.4946 11.2928 18.3071C11.1053 18.1196 11 17.8652 11 17.6V8.83L7.56995 12.24C7.38297 12.4283 7.12889 12.5346 6.86353 12.5356C6.59816 12.5365 6.34321 12.432 6.15491 12.245C5.9666 12.058 5.86031 11.8039 5.85938 11.5385C5.85844 11.2732 5.96292 11.0183 6.1499 10.83L10.58 6.41C10.7684 6.22074 10.9928 6.07113 11.24 5.97C11.487 5.8662 11.7519 5.81184 12.0199 5.81C12.2876 5.81383 12.5523 5.86811 12.7999 5.97C13.0471 6.07113 13.2715 6.22074 13.46 6.41L17.87 10.83C18.0576 11.016 18.1639 11.2687 18.1658 11.5329C18.1676 11.7971 18.0649 12.0513 17.88 12.24H17.84Z" fill="black"/>
</svg>
