<svg width="24" height="24" viewBox="0 0 24 24" fill="none" xmlns="http://www.w3.org/2000/svg">
<path d="M19.5303 10.3205C19.3897 10.4609 19.1991 10.5398 19.0003 10.5398C18.8016 10.5398 18.611 10.4609 18.4703 10.3205L14.7503 6.62048V15.7905C14.7477 16.7842 14.3517 17.7365 13.649 18.4392C12.9464 19.1419 11.9941 19.5378 11.0003 19.5405H5.00031C4.80139 19.5405 4.61068 19.4615 4.47003 19.3208C4.32938 19.1801 4.25031 18.9894 4.25031 18.7905C4.25031 18.5916 4.32938 18.4008 4.47003 18.2601C4.61068 18.1195 4.80139 18.0405 5.00031 18.0405H11.0003C11.296 18.0424 11.5891 17.985 11.8622 17.8717C12.1354 17.7583 12.3829 17.5913 12.5903 17.3805C13.0106 16.9577 13.2476 16.3866 13.2503 15.7905V6.60048L9.53033 10.3205C9.38816 10.453 9.2001 10.5251 9.0058 10.5217C8.8115 10.5182 8.62612 10.4395 8.48871 10.3021C8.3513 10.1647 8.27259 9.9793 8.26917 9.785C8.26574 9.5907 8.33786 9.40266 8.47034 9.26048L12.7603 4.97047C13.09 4.64316 13.5357 4.45947 14.0003 4.45947C14.4649 4.45947 14.9107 4.64316 15.2404 4.97047L19.5303 9.26048C19.6708 9.40111 19.7497 9.59173 19.7497 9.79048C19.7497 9.98923 19.6708 10.1799 19.5303 10.3205Z" fill="black"/>
</svg>
