<svg width="24" height="24" viewBox="0 0 24 24" fill="none" xmlns="http://www.w3.org/2000/svg">
<path d="M18.9757 10.045C18.9065 10.1151 18.8238 10.1707 18.7328 10.2085C18.6418 10.2463 18.5442 10.2655 18.4457 10.265C18.3471 10.266 18.2492 10.2471 18.1581 10.2093C18.067 10.1715 17.9845 10.1156 17.9156 10.045L12.7057 4.84502V20.425C12.7057 20.6239 12.6266 20.8147 12.486 20.9553C12.3453 21.096 12.1546 21.175 11.9557 21.175C11.7568 21.175 11.5659 21.096 11.4253 20.9553C11.2846 20.8147 11.2057 20.6239 11.2057 20.425V4.84502L6.04565 10.045C5.90347 10.1775 5.71541 10.2496 5.52111 10.2462C5.32681 10.2428 5.14144 10.1641 5.00402 10.0266C4.86661 9.88923 4.78785 9.70384 4.78442 9.50954C4.78099 9.31524 4.85311 9.12719 4.98559 8.98502L10.5456 3.42502C10.7392 3.23481 10.9664 3.0822 11.2157 2.97501C11.4142 2.88533 11.6281 2.83443 11.8457 2.82501H12.1456C12.3662 2.83662 12.5829 2.88741 12.7856 2.97501C13.0335 3.08471 13.2604 3.23702 13.4557 3.42502L19.0156 8.98502C19.0826 9.05724 19.1347 9.14194 19.1689 9.2343C19.2032 9.32666 19.2189 9.42487 19.2152 9.5233C19.2115 9.62173 19.1884 9.71847 19.1473 9.80798C19.1062 9.8975 19.0479 9.97804 18.9757 10.045Z" fill="black"/>
</svg>
