<svg width="24" height="24" viewBox="0 0 24 24" fill="none" xmlns="http://www.w3.org/2000/svg">
<path d="M15.25 2H8.75C6.9606 2.00265 5.24528 2.71465 3.97998 3.97995C2.71468 5.24525 2.00265 6.9606 2 8.75V15.25C2.00265 17.0394 2.71468 18.7547 3.97998 20.02C5.24528 21.2853 6.9606 21.9974 8.75 22H15.25C17.0394 21.9974 18.7547 21.2853 20.02 20.02C21.2853 18.7547 21.9974 17.0394 22 15.25V8.75C21.9974 6.9606 21.2853 5.24525 20.02 3.97995C18.7547 2.71465 17.0394 2.00265 15.25 2ZM17.84 12.25C17.6526 12.4363 17.3992 12.5408 17.135 12.5408C16.8708 12.5408 16.6174 12.4363 16.4301 12.25L13 8.81V17.61C13 17.8752 12.8947 18.1295 12.7072 18.3171C12.5196 18.5046 12.2652 18.61 12 18.61C11.7348 18.61 11.4804 18.5046 11.2928 18.3171C11.1053 18.1295 11 17.8752 11 17.61V8.84L7.56995 12.25C7.38258 12.4363 7.12918 12.5408 6.86499 12.5408C6.6008 12.5408 6.3474 12.4363 6.16003 12.25C6.06631 12.157 5.99193 12.0465 5.94116 11.9246C5.89039 11.8027 5.86426 11.672 5.86426 11.54C5.86426 11.408 5.89039 11.2773 5.94116 11.1554C5.99193 11.0336 6.06631 10.9229 6.16003 10.83L10.5699 6.41C10.7565 6.21644 10.9802 6.06247 11.2277 5.95731C11.4751 5.85214 11.7412 5.79794 12.01 5.79794C12.2788 5.79794 12.5449 5.85214 12.7924 5.95731C13.0398 6.06247 13.2634 6.21644 13.45 6.41L17.86 10.83C17.9524 10.9243 18.0253 11.0359 18.0743 11.1585C18.1234 11.2811 18.1477 11.4121 18.1459 11.5442C18.144 11.6762 18.116 11.8065 18.0635 11.9277C18.011 12.0488 17.935 12.1584 17.84 12.25Z" fill="black"/>
</svg>
