<svg width="24" height="24" viewBox="0 0 24 24" fill="none" xmlns="http://www.w3.org/2000/svg">
<path d="M9.63443 20.6148C8.38414 20.6152 7.16182 20.2448 6.1221 19.5504C5.08238 18.8559 4.27201 17.8687 3.79349 16.7136C3.31496 15.5585 3.18977 14.2875 3.43381 13.0612C3.67784 11.835 4.28015 10.7086 5.16446 9.82477L10.3344 4.75476C11.1915 3.88871 12.356 3.39631 13.5744 3.38477C14.7804 3.38508 15.939 3.85493 16.8045 4.69476C17.233 5.13194 17.5726 5.64818 17.8045 6.21478C18.0421 6.77814 18.1645 7.38333 18.1645 7.99475C18.1645 8.60617 18.0421 9.21143 17.8045 9.77478C17.572 10.3381 17.2324 10.8509 16.8045 11.2848L11.6845 16.4048C11.3955 16.6806 11.0559 16.8979 10.6845 17.0448C9.95117 17.3476 9.12774 17.3476 8.39444 17.0448C7.85189 16.8173 7.38822 16.4354 7.06106 15.9464C6.73391 15.4575 6.55774 14.8831 6.55447 14.2948C6.55447 13.9033 6.63264 13.5157 6.78445 13.1548C6.92949 12.78 7.15087 12.4395 7.43448 12.1548L12.1544 7.4248C12.2951 7.28435 12.4857 7.20544 12.6845 7.20544C12.8832 7.20544 13.0738 7.28435 13.2144 7.4248C13.2852 7.49375 13.3415 7.57615 13.3799 7.66718C13.4182 7.7582 13.438 7.85598 13.438 7.95477C13.438 8.05357 13.4182 8.15134 13.3799 8.24237C13.3415 8.3334 13.2852 8.41586 13.2144 8.4848L8.49447 13.2148C8.2182 13.4952 8.06061 13.8712 8.05447 14.2648C8.05578 14.4609 8.09659 14.6548 8.17447 14.8348C8.24639 15.0154 8.35541 15.1789 8.49447 15.3148C8.6339 15.4495 8.79649 15.5579 8.97446 15.6348C9.3363 15.7842 9.74262 15.7842 10.1045 15.6348C10.2811 15.5554 10.4432 15.4472 10.5844 15.3148L15.7044 10.1948C16.0001 9.90352 16.2349 9.55643 16.3952 9.17358C16.5555 8.79074 16.6381 8.37982 16.6381 7.96478C16.6381 7.54974 16.5555 7.13882 16.3952 6.75598C16.2349 6.37314 16.0001 6.02604 15.7044 5.7348C15.1103 5.16186 14.3145 4.84587 13.4892 4.85522C12.6638 4.86458 11.8754 5.19853 11.2945 5.78479L6.12448 10.8548C5.25563 11.8006 4.79555 13.0514 4.84445 14.3348C4.84376 15.2886 5.12609 16.2212 5.65567 17.0145C6.18525 17.8078 6.93826 18.4261 7.81943 18.7912C8.7006 19.1563 9.67029 19.2518 10.6057 19.0655C11.5412 18.8792 12.4003 18.4195 13.0744 17.7448L19.3944 11.4848C19.4638 11.4119 19.5472 11.3537 19.6396 11.3137C19.7319 11.2737 19.8313 11.2527 19.932 11.252C20.0326 11.2512 20.1324 11.2707 20.2253 11.3093C20.3183 11.3479 20.4024 11.4048 20.4729 11.4766C20.5434 11.5485 20.5987 11.6337 20.6356 11.7274C20.6724 11.821 20.6901 11.9211 20.6874 12.0217C20.6847 12.1223 20.6618 12.2214 20.6201 12.313C20.5783 12.4046 20.5186 12.4867 20.4444 12.5547L14.1344 18.8047C13.5415 19.3893 12.8384 19.8502 12.0659 20.1609C11.2935 20.4717 10.467 20.626 9.63443 20.6148Z" fill="black"/>
</svg>
