<svg width="24" height="24" viewBox="0 0 24 24" fill="none" xmlns="http://www.w3.org/2000/svg">
<path d="M21.9471 10.941C21.8545 10.5444 21.6771 10.1725 21.4271 9.851C21.1735 9.53155 20.8525 9.27205 20.487 9.091C20.1995 8.94872 19.8871 8.8638 19.5671 8.841C19.4041 7.09111 18.6284 5.45497 17.377 4.22101C15.9521 2.79818 14.0207 1.99902 12.007 1.99902C9.99333 1.99902 8.06197 2.79818 6.63702 4.22101C5.38561 5.45497 4.61009 7.09111 4.44708 8.841C4.12709 8.8638 3.81456 8.94872 3.52703 9.091C3.15991 9.26945 2.83846 9.52938 2.58709 9.851C2.33708 10.1725 2.15966 10.5444 2.06707 10.941C1.9769 11.3393 1.9769 11.7527 2.06707 12.151L3.63702 18.581C3.90724 19.5662 4.49443 20.435 5.3078 21.0532C6.12116 21.6713 7.11542 22.0044 8.13702 22.001H15.8471C16.8722 22.0021 17.8691 21.6658 18.6841 21.0442C19.4992 20.4225 20.0871 19.5499 20.3571 18.561L21.917 12.151C22.0171 11.7549 22.0274 11.3415 21.9471 10.941ZM8.8471 17.361C8.8471 17.5599 8.76803 17.7507 8.62738 17.8913C8.48672 18.032 8.29601 18.111 8.0971 18.111C7.89819 18.111 7.70736 18.032 7.56671 17.8913C7.42605 17.7507 7.3471 17.5599 7.3471 17.361V13.421C7.3471 13.2221 7.42605 13.0313 7.56671 12.8907C7.70736 12.75 7.89819 12.671 8.0971 12.671C8.29601 12.671 8.48672 12.75 8.62738 12.8907C8.76803 13.0313 8.8471 13.2221 8.8471 13.421V17.361ZM12.757 17.361C12.757 17.5599 12.6781 17.7507 12.5374 17.8913C12.3968 18.032 12.2059 18.111 12.007 18.111C11.8081 18.111 11.6174 18.032 11.4767 17.8913C11.3361 17.7507 11.257 17.5599 11.257 17.361V13.421C11.257 13.2221 11.3361 13.0313 11.4767 12.8907C11.6174 12.75 11.8081 12.671 12.007 12.671C12.2059 12.671 12.3968 12.75 12.5374 12.8907C12.6781 13.0313 12.757 13.2221 12.757 13.421V17.361ZM16.667 17.361C16.667 17.5599 16.5881 17.7507 16.4474 17.8913C16.3068 18.032 16.116 18.111 15.917 18.111C15.7181 18.111 15.5274 18.032 15.3868 17.8913C15.2461 17.7507 15.167 17.5599 15.167 17.361V13.421C15.167 13.2221 15.2461 13.0313 15.3868 12.8907C15.5274 12.75 15.7181 12.671 15.917 12.671C16.116 12.671 16.3068 12.75 16.4474 12.8907C16.5881 13.0313 16.667 13.2221 16.667 13.421V17.361ZM5.95709 8.821C6.12155 7.47862 6.73469 6.23118 7.69708 5.28101C8.84207 4.14152 10.3916 3.50183 12.007 3.50183C13.6224 3.50183 15.1721 4.14152 16.3171 5.28101C17.2795 6.23118 17.8926 7.47862 18.0571 8.821H5.95709Z" fill="black"/>
</svg>
