<svg width="24" height="24" viewBox="0 0 24 24" fill="none" xmlns="http://www.w3.org/2000/svg">
<path d="M14.33 5.12H5.55005C4.60853 5.12 3.70555 5.49401 3.03979 6.15977C2.37404 6.82552 2 7.72848 2 8.67V15.32C2 16.2624 2.37372 17.1664 3.03918 17.8338C3.70465 18.5011 4.60761 18.8773 5.55005 18.88H14.33C15.2733 18.8774 16.1773 18.5014 16.8444 17.8344C17.5114 17.1673 17.8874 16.2634 17.89 15.32V8.67999C17.89 7.73582 17.5149 6.83033 16.8473 6.1627C16.1797 5.49507 15.2741 5.12 14.33 5.12ZM7.85999 14.06C7.85999 14.3252 7.75467 14.5796 7.56714 14.7671C7.3796 14.9546 7.1252 15.06 6.85999 15.06C6.59477 15.06 6.34049 14.9546 6.15295 14.7671C5.96542 14.5796 5.85999 14.3252 5.85999 14.06V9.95999C5.85999 9.69478 5.96542 9.44043 6.15295 9.25289C6.34049 9.06536 6.59477 8.95999 6.85999 8.95999C7.1252 8.95999 7.3796 9.06536 7.56714 9.25289C7.75467 9.44043 7.85999 9.69478 7.85999 9.95999V14.06ZM10.9399 14.06C10.9399 14.3252 10.8346 14.5796 10.6471 14.7671C10.4596 14.9546 10.2052 15.06 9.93994 15.06C9.67473 15.06 9.42045 14.9546 9.23291 14.7671C9.04537 14.5796 8.93994 14.3252 8.93994 14.06V9.95999C8.93994 9.69478 9.04537 9.44043 9.23291 9.25289C9.42045 9.06536 9.67473 8.95999 9.93994 8.95999C10.2052 8.95999 10.4596 9.06536 10.6471 9.25289C10.8346 9.44043 10.9399 9.69478 10.9399 9.95999V14.06Z" fill="black"/>
<path d="M20.22 15.85H19.6899C19.491 15.85 19.3003 15.771 19.1597 15.6303C19.019 15.4897 18.9399 15.2989 18.9399 15.1C18.9399 14.9011 19.019 14.7103 19.1597 14.5697C19.3003 14.429 19.491 14.35 19.6899 14.35H20.22C20.2942 14.349 20.3656 14.3205 20.42 14.27C20.469 14.2146 20.4972 14.1439 20.5 14.07V9.95999C20.5005 9.92302 20.4937 9.88632 20.48 9.852C20.4662 9.81767 20.4459 9.7864 20.42 9.75999C20.3656 9.70949 20.2942 9.68098 20.22 9.67999H19.6899C19.491 9.67999 19.3003 9.60098 19.1597 9.46033C19.019 9.31967 18.9399 9.12891 18.9399 8.92999C18.9399 8.73108 19.019 8.54032 19.1597 8.39967C19.3003 8.25901 19.491 8.17999 19.6899 8.17999H20.22C20.6921 8.17999 21.1448 8.36753 21.4786 8.70135C21.8125 9.03516 22 9.48791 22 9.95999V14.12C22 14.5921 21.8125 15.0448 21.4786 15.3786C21.1448 15.7125 20.6921 15.9 20.22 15.9V15.85Z" fill="black"/>
</svg>
