<svg width="24" height="24" viewBox="0 0 24 24" fill="none" xmlns="http://www.w3.org/2000/svg">
<path d="M14.32 5.12H5.54996C4.60752 5.11999 3.70351 5.49369 3.03616 6.15916C2.36882 6.82463 1.99267 7.72756 1.99002 8.67V15.32C1.99266 16.2634 2.36849 17.1673 3.03555 17.8344C3.70261 18.5014 4.6066 18.8774 5.54996 18.88H14.32C15.2633 18.8774 16.1673 18.5014 16.8344 17.8344C17.5014 17.1673 17.8774 16.2634 17.88 15.32V8.67999C17.88 7.73582 17.5049 6.83033 16.8373 6.1627C16.1697 5.49507 15.2641 5.12 14.32 5.12ZM7.85001 14.06C7.85001 14.3252 7.74457 14.5796 7.55704 14.7671C7.3695 14.9546 7.11522 15.06 6.85001 15.06C6.58479 15.06 6.33039 14.9546 6.14285 14.7671C5.95532 14.5796 5.85001 14.3252 5.85001 14.06V9.95999C5.85001 9.69478 5.95532 9.44043 6.14285 9.25289C6.33039 9.06536 6.58479 8.95999 6.85001 8.95999C7.11522 8.95999 7.3695 9.06536 7.55704 9.25289C7.74457 9.44043 7.85001 9.69478 7.85001 9.95999V14.06ZM10.93 14.06C10.93 14.3252 10.8247 14.5796 10.6371 14.7671C10.4496 14.9546 10.1952 15.06 9.92996 15.06C9.66475 15.06 9.41047 14.9546 9.22293 14.7671C9.03539 14.5796 8.92996 14.3252 8.92996 14.06V9.95999C8.92996 9.69478 9.03539 9.44043 9.22293 9.25289C9.41047 9.06536 9.66475 8.95999 9.92996 8.95999C10.1952 8.95999 10.4496 9.06536 10.6371 9.25289C10.8247 9.44043 10.93 9.69478 10.93 9.95999V14.06ZM14.0199 14.06C14.0199 14.3252 13.9146 14.5796 13.7271 14.7671C13.5395 14.9546 13.2851 15.06 13.0199 15.06C12.7547 15.06 12.5004 14.9546 12.3129 14.7671C12.1254 14.5796 12.0199 14.3252 12.0199 14.06V9.95999C12.0199 9.69478 12.1254 9.44043 12.3129 9.25289C12.5004 9.06536 12.7547 8.95999 13.0199 8.95999C13.2851 8.95999 13.5395 9.06536 13.7271 9.25289C13.9146 9.44043 14.0199 9.69478 14.0199 9.95999V14.06Z" fill="black"/>
<path d="M20.23 15.85H19.7C19.5011 15.85 19.3102 15.771 19.1696 15.6303C19.0289 15.4897 18.95 15.2989 18.95 15.1C18.95 14.9011 19.0289 14.7103 19.1696 14.5697C19.3102 14.429 19.5011 14.35 19.7 14.35H20.23C20.267 14.3505 20.3036 14.3437 20.3379 14.33C20.3722 14.3163 20.4036 14.2959 20.43 14.27C20.4789 14.2146 20.5072 14.1439 20.5099 14.07V9.95999C20.5113 9.92284 20.5051 9.88581 20.4915 9.8512C20.4779 9.8166 20.4573 9.78517 20.4311 9.75888C20.4048 9.7326 20.3734 9.71202 20.3388 9.69845C20.3042 9.68487 20.2672 9.67859 20.23 9.67999H19.7C19.5011 9.67999 19.3102 9.60098 19.1696 9.46033C19.0289 9.31967 18.95 9.12891 18.95 8.92999C18.95 8.73108 19.0289 8.54032 19.1696 8.39967C19.3102 8.25901 19.5011 8.17999 19.7 8.17999H20.23C20.7019 8.18145 21.1544 8.36819 21.49 8.7C21.6566 8.86455 21.7884 9.06085 21.8777 9.27728C21.967 9.49371 22.0119 9.72586 22.0099 9.95999V14.12C22.0108 14.354 21.9654 14.5858 21.8761 14.8021C21.7869 15.0183 21.6557 15.2148 21.49 15.38C21.1465 15.6936 20.695 15.862 20.23 15.85Z" fill="black"/>
</svg>
