<svg width="24" height="24" viewBox="0 0 24 24" fill="none" xmlns="http://www.w3.org/2000/svg">
<path d="M14.33 5.12H5.54999C4.60847 5.12 3.70549 5.49401 3.03973 6.15977C2.37398 6.82552 1.99994 7.72848 1.99994 8.67V15.32C1.99994 16.2624 2.37366 17.1664 3.03912 17.8338C3.70459 18.5011 4.60755 18.8773 5.54999 18.88H14.33C15.2725 18.8773 16.1754 18.5011 16.8409 17.8338C17.5063 17.1664 17.8799 16.2624 17.8799 15.32V8.67999C17.8813 8.21296 17.7904 7.75026 17.6126 7.3184C17.4348 6.88654 17.1736 6.49401 16.8438 6.1633C16.514 5.83259 16.1222 5.5702 15.6909 5.39117C15.2595 5.21215 14.7971 5.11999 14.33 5.12ZM12.72 13.36C12.8138 13.453 12.8881 13.5636 12.9389 13.6854C12.9897 13.8073 13.0158 13.938 13.0158 14.07C13.0158 14.202 12.9897 14.3327 12.9389 14.4546C12.8881 14.5764 12.8138 14.687 12.72 14.78C12.6266 14.8727 12.5157 14.946 12.3939 14.9958C12.272 15.0455 12.1416 15.0708 12.0099 15.07C11.8783 15.0708 11.7479 15.0455 11.626 14.9958C11.5042 14.946 11.3934 14.8727 11.3 14.78L9.94 13.42L8.58002 14.78C8.48658 14.8727 8.37568 14.946 8.25385 14.9958C8.13201 15.0455 8.00154 15.0708 7.86993 15.07C7.73833 15.0708 7.60786 15.0455 7.48602 14.9958C7.36419 14.946 7.25341 14.8727 7.15997 14.78C7.06624 14.687 6.99187 14.5764 6.9411 14.4546C6.89033 14.3327 6.8642 14.202 6.8642 14.07C6.8642 13.938 6.89033 13.8073 6.9411 13.6854C6.99187 13.5636 7.06624 13.453 7.15997 13.36L8.51996 12L7.15997 10.64C7.06673 10.5468 6.99278 10.4361 6.94232 10.3142C6.89186 10.1924 6.86591 10.0619 6.86591 9.92999C6.86591 9.79813 6.89186 9.66757 6.94232 9.54575C6.99278 9.42392 7.06673 9.31323 7.15997 9.21999C7.25321 9.12676 7.36396 9.05279 7.48578 9.00233C7.6076 8.95187 7.73807 8.9259 7.86993 8.9259C8.00179 8.9259 8.13239 8.95187 8.25421 9.00233C8.37603 9.05279 8.48678 9.12676 8.58002 9.21999L9.94 10.58L11.3 9.21999C11.3932 9.12676 11.504 9.05279 11.6258 9.00233C11.7476 8.95187 11.8781 8.9259 12.0099 8.9259C12.1418 8.9259 12.2724 8.95187 12.3942 9.00233C12.516 9.05279 12.6268 9.12676 12.72 9.21999C12.8133 9.31323 12.8872 9.42392 12.9377 9.54575C12.9881 9.66757 13.0141 9.79813 13.0141 9.92999C13.0141 10.0619 12.9881 10.1924 12.9377 10.3142C12.8872 10.4361 12.8133 10.5468 12.72 10.64L11.3599 12L12.72 13.36Z" fill="black"/>
<path d="M20.2202 15.85H19.6801C19.4812 15.85 19.2904 15.771 19.1497 15.6303C19.0091 15.4897 18.9301 15.2989 18.9301 15.1C18.9301 14.9011 19.0091 14.7103 19.1497 14.5697C19.2904 14.429 19.4812 14.35 19.6801 14.35H20.2202C20.2573 14.3514 20.2943 14.3451 20.3289 14.3315C20.3635 14.318 20.3949 14.2974 20.4212 14.2711C20.4475 14.2448 20.4681 14.2134 20.4816 14.1788C20.4952 14.1442 20.5015 14.1071 20.5001 14.07V9.95999C20.5012 9.92201 20.4938 9.88426 20.4782 9.8496C20.4626 9.81495 20.4393 9.7843 20.4101 9.75999C20.3598 9.70925 20.2916 9.68048 20.2202 9.67999H19.6801C19.4812 9.67999 19.2904 9.60098 19.1497 9.46033C19.0091 9.31967 18.9301 9.12891 18.9301 8.92999C18.9301 8.73108 19.0091 8.54032 19.1497 8.39967C19.2904 8.25901 19.4812 8.17999 19.6801 8.17999H20.2202C20.6914 8.18262 21.1426 8.371 21.4759 8.70425C21.8091 9.03749 21.9974 9.48872 22.0001 9.95999V14.12C22.0001 14.5921 21.8125 15.0448 21.4787 15.3786C21.1449 15.7125 20.6922 15.9 20.2202 15.9V15.85Z" fill="black"/>
</svg>
