<svg width="24" height="24" viewBox="0 0 24 24" fill="none" xmlns="http://www.w3.org/2000/svg">
<path d="M16.59 2H7.42C5.98252 2 4.60393 2.57103 3.58748 3.58748C2.57103 4.60393 2 5.98252 2 7.42V16.59C2.00265 18.0257 2.57484 19.4018 3.591 20.416C4.60716 21.4303 5.98426 22 7.42 22H16.59C18.024 21.9974 19.3985 21.4265 20.4125 20.4125C21.4265 19.3985 21.9974 18.024 22 16.59V7.42C22 5.98426 21.4303 4.60716 20.416 3.591C19.4018 2.57484 18.0257 2.00265 16.59 2ZM13.7 17.35C13.4801 17.5674 13.218 17.7375 12.93 17.85C12.6315 17.9701 12.3116 18.028 11.99 18.02C11.6871 18.0106 11.3872 17.9567 11.1 17.86C10.5646 17.6401 10.1322 17.2257 9.89 16.7H14.14C14.0324 16.9407 13.8835 17.1606 13.7 17.35ZM17.19 15.35C17.1522 15.4032 17.1002 15.4448 17.04 15.47C16.9617 15.4933 16.8783 15.4933 16.8 15.47H7.25C7.07 15.47 6.91999 15.47 6.87999 15.38C6.80808 15.1968 6.80808 14.9932 6.87999 14.81C6.99936 14.5138 7.1574 14.2347 7.34999 13.98C7.79205 13.43 8.06323 12.7625 8.12999 12.06C8.12999 10.06 8.13 9.78 8.95 8.8C9.20636 8.49774 9.52315 8.25248 9.87999 8.08L10.45 7.8C10.6393 7.70636 10.8037 7.56929 10.93 7.39999C11.0735 7.21863 11.1728 7.00637 11.22 6.78C11.2452 6.59926 11.3382 6.43483 11.48 6.31999C11.6095 6.22197 11.7676 6.16927 11.93 6.17H12.08C12.1707 6.15888 12.2628 6.16645 12.3505 6.19225C12.4382 6.21804 12.5197 6.26152 12.59 6.31999C12.7401 6.43789 12.8372 6.61054 12.86 6.8C12.9 7.00138 12.9818 7.19214 13.1 7.36C13.2273 7.54868 13.399 7.7032 13.6 7.81L14.15 8.08C14.5085 8.24985 14.8258 8.49551 15.08 8.8C15.9 9.8 15.9 10.09 15.9 12.06C15.9757 12.7952 16.268 13.4913 16.74 14.06C16.9326 14.3289 17.0969 14.6171 17.23 14.92C17.2405 14.9863 17.2405 15.0537 17.23 15.12C17.2188 15.2012 17.1916 15.2794 17.15 15.35H17.19Z" fill="black"/>
</svg>
