<svg width="24" height="24" viewBox="0 0 24 24" fill="none" xmlns="http://www.w3.org/2000/svg">
<path d="M20.9975 15.5293C20.7775 14.9732 20.485 14.4487 20.1276 13.9693C19.6757 13.4286 19.3694 12.7815 19.2376 12.0893C19.2376 9.18927 19.2376 8.21928 17.6576 6.32928C17.1382 5.70737 16.4899 5.20579 15.7576 4.85928L15.0376 4.50927C14.9963 4.48138 14.9592 4.44769 14.9276 4.40926L14.8776 4.30927C14.7599 3.62391 14.3896 3.00753 13.8398 2.58175C13.29 2.15597 12.6006 1.95171 11.9076 2.00927C11.2371 1.98226 10.5797 2.19953 10.0573 2.6207C9.53498 3.04188 9.18329 3.63833 9.06756 4.29926C9.05808 4.34977 9.03759 4.39757 9.00756 4.43926C8.98209 4.47449 8.94752 4.50215 8.90755 4.51926L8.12755 4.89927C7.39685 5.25295 6.74932 5.75734 6.22756 6.37926C4.64756 8.26926 4.64756 9.23927 4.64756 12.1393C4.53081 12.7869 4.24829 13.3933 3.82755 13.8993C3.46113 14.3999 3.16504 14.9483 2.94755 15.5293C2.81379 15.9191 2.76775 16.3336 2.81269 16.7433C2.85763 17.153 2.99247 17.5477 3.20756 17.8993C3.43795 18.1868 3.73515 18.4137 4.07328 18.5601C4.41141 18.7065 4.78022 18.768 5.14756 18.7393H7.96755C8.01966 19.0091 8.09665 19.2736 8.19755 19.5293C8.39684 20.0228 8.69263 20.4715 9.06756 20.8493C9.44337 21.2266 9.89264 21.5227 10.3875 21.7193C10.8451 21.9043 11.334 21.9993 11.8276 21.9993H11.9076C12.4378 22.0112 12.965 21.916 13.4576 21.7193C13.9519 21.5216 14.4009 21.2256 14.7774 20.8491C15.1538 20.4726 15.4499 20.0236 15.6476 19.5293C15.7485 19.2736 15.8254 19.0091 15.8776 18.7393H18.9076C19.2538 18.7379 19.5955 18.6593 19.9076 18.5093C20.2599 18.3331 20.5625 18.0715 20.7878 17.7483C21.0132 17.4252 21.154 17.0508 21.1975 16.6593C21.2266 16.2718 21.1578 15.8832 20.9975 15.5293ZM14.2976 18.9193C14.1776 19.2277 13.9935 19.5072 13.7576 19.7393C13.5238 19.9685 13.249 20.1517 12.9475 20.2793C12.629 20.4026 12.2889 20.4604 11.9475 20.4493C11.6059 20.4645 11.265 20.4065 10.9475 20.2793C10.6417 20.1543 10.3632 19.9709 10.1276 19.7393C9.89159 19.5072 9.70753 19.2277 9.58755 18.9193C9.58755 18.8393 9.52756 18.7593 9.50756 18.6893H14.3375C14.3285 18.7666 14.3152 18.8434 14.2976 18.9193Z" fill="black"/>
</svg>
