<svg width="24" height="24" viewBox="0 0 24 24" fill="none" xmlns="http://www.w3.org/2000/svg">
<path d="M21.356 5.28632C21.2312 4.94637 21.0051 4.65286 20.7083 4.44543C20.4115 4.23801 20.0581 4.12666 19.696 4.12634C18.5218 4.09855 17.3482 4.19913 16.196 4.42633C14.7036 4.61517 13.2704 5.12706 11.996 5.92633C10.7403 5.13555 9.32766 4.62715 7.85599 4.43634C6.69087 4.20391 5.5038 4.09996 4.31602 4.12634C4.08189 4.12432 3.84971 4.16929 3.63328 4.25861C3.41685 4.34793 3.22056 4.47974 3.05601 4.6463C2.72387 4.97759 2.53682 5.42719 2.53599 5.8963V16.1263C2.51594 16.37 2.54661 16.6151 2.62601 16.8463C2.71426 17.0877 2.85027 17.3088 3.02598 17.4963C3.20731 17.6799 3.42543 17.823 3.66599 17.9163C3.89333 18.012 4.13988 18.0531 4.38596 18.0363C5.47051 18.0264 6.55315 18.1303 7.616 18.3463C9.05127 18.521 10.4233 19.039 11.616 19.8563C11.6557 19.8637 11.6963 19.8637 11.736 19.8563H11.826C11.8856 19.8659 11.9463 19.8659 12.006 19.8563H12.196H12.286C12.3425 19.8442 12.3944 19.8164 12.436 19.7763L12.526 19.7163C13.6993 18.9222 15.0414 18.4121 16.446 18.2263C17.4785 18.0117 18.5315 17.9111 19.586 17.9263C19.8375 17.9396 20.0892 17.9022 20.326 17.8163C20.56 17.7265 20.7716 17.5865 20.946 17.4063C21.1285 17.23 21.2687 17.0146 21.356 16.7763C21.4424 16.557 21.4799 16.3216 21.466 16.0863V6.03632C21.483 5.78134 21.4455 5.52567 21.356 5.28632ZM6.22599 7.75629H7.22599C7.4249 7.75629 7.61567 7.83536 7.75632 7.97601C7.89698 8.11666 7.97599 8.30737 7.97599 8.50629C7.97599 8.7052 7.89698 8.89597 7.75632 9.03662C7.61567 9.17727 7.4249 9.25629 7.22599 9.25629H6.22599C6.02708 9.25629 5.83631 9.17727 5.69565 9.03662C5.555 8.89597 5.47599 8.7052 5.47599 8.50629C5.47599 8.30737 5.555 8.11666 5.69565 7.97601C5.83631 7.83536 6.02708 7.75629 6.22599 7.75629ZM7.70597 14.9163H6.22599C6.02708 14.9163 5.83631 14.8373 5.69565 14.6967C5.555 14.556 5.47599 14.3652 5.47599 14.1663C5.47599 13.9674 5.555 13.7766 5.69565 13.636C5.83631 13.4953 6.02708 13.4163 6.22599 13.4163H7.70597C7.90488 13.4163 8.09565 13.4953 8.2363 13.636C8.37696 13.7766 8.45597 13.9674 8.45597 14.1663C8.45597 14.3652 8.37696 14.556 8.2363 14.6967C8.09565 14.8373 7.90488 14.9163 7.70597 14.9163ZM8.93601 12.0863H6.22599C6.02708 12.0863 5.83631 12.0073 5.69565 11.8666C5.555 11.726 5.47599 11.5352 5.47599 11.3363C5.47599 11.1374 5.555 10.9466 5.69565 10.806C5.83631 10.6653 6.02708 10.5863 6.22599 10.5863H8.93601C9.13492 10.5863 9.32569 10.6653 9.46634 10.806C9.607 10.9466 9.68601 11.1374 9.68601 11.3363C9.68601 11.5352 9.607 11.726 9.46634 11.8666C9.32569 12.0073 9.13492 12.0863 8.93601 12.0863Z" fill="black"/>
<path d="M11.6062 19.8763H11.6762C11.6529 19.8788 11.6295 19.8788 11.6062 19.8763Z" fill="black"/>
</svg>
