<svg width="24" height="24" viewBox="0 0 24 24" fill="none" xmlns="http://www.w3.org/2000/svg">
<path d="M18.59 3.20416C18.1642 2.80297 17.6629 2.49029 17.1153 2.2843C16.5677 2.07831 15.9847 1.98309 15.4 2.00415H8.67001C8.08047 1.98019 7.49207 2.07399 6.9392 2.28003C6.38633 2.48607 5.88007 2.80023 5.45 3.20416C5.0168 3.60774 4.6675 4.09283 4.42211 4.63165C4.17672 5.17047 4.04007 5.75245 4.02 6.34418V19.7042C4.05002 20.1516 4.19843 20.583 4.45 20.9542C4.70434 21.3141 5.04933 21.6005 5.45 21.7842C5.85813 21.9643 6.30662 22.0332 6.75001 21.9841C7.18748 21.9276 7.60183 21.755 7.95 21.4841L11.38 18.9442C11.5601 18.8176 11.7749 18.7498 11.995 18.7498C12.2151 18.7498 12.4299 18.8176 12.61 18.9442L16.02 21.4741C16.3725 21.7523 16.7944 21.9287 17.24 21.9841H17.54C17.8849 21.9806 18.2254 21.9057 18.54 21.7642C18.943 21.5843 19.289 21.2972 19.54 20.9341C19.8065 20.5511 19.9591 20.1004 19.98 19.6342V6.32416C19.9674 5.7378 19.838 5.15981 19.5993 4.62408C19.3607 4.08836 19.0175 3.60566 18.59 3.20416ZM15.31 11.0042L12.94 13.3641C12.8216 13.4864 12.6784 13.5819 12.52 13.6442C12.4129 13.694 12.2978 13.7245 12.18 13.7341H12.03H11.88C11.7622 13.7245 11.6471 13.694 11.54 13.6442C11.3829 13.5794 11.2402 13.4842 11.12 13.3641L8.76 11.0042C8.62752 10.862 8.5554 10.6739 8.55883 10.4796C8.56226 10.2853 8.64098 10.0999 8.77839 9.96252C8.9158 9.82511 9.10118 9.74641 9.29548 9.74298C9.48978 9.73955 9.67782 9.81167 9.82 9.94415L11.29 11.4141V7.00415C11.29 6.80524 11.369 6.61447 11.5097 6.47382C11.6503 6.33316 11.8411 6.25415 12.04 6.25415C12.2389 6.25415 12.4297 6.33316 12.5703 6.47382C12.711 6.61447 12.79 6.80524 12.79 7.00415V11.4141L14.27 9.94415C14.4122 9.81167 14.6002 9.73955 14.7945 9.74298C14.9888 9.74641 15.1742 9.82511 15.3116 9.96252C15.449 10.0999 15.5278 10.2853 15.5312 10.4796C15.5346 10.6739 15.4625 10.862 15.33 11.0042H15.31Z" fill="black"/>
</svg>
