<svg width="24" height="24" viewBox="0 0 24 24" fill="none" xmlns="http://www.w3.org/2000/svg">
<path d="M21.9995 5.79746V16.5575C22.0112 16.8033 21.9703 17.0487 21.8795 17.2775C21.7388 17.6434 21.4861 17.9555 21.1575 18.1692C20.8288 18.3829 20.4411 18.4873 20.0496 18.4675C18.9246 18.4514 17.8011 18.5587 16.6995 18.7875C15.391 18.9602 14.1318 19.3992 12.9995 20.0775V5.21748C14.0889 4.69318 15.2584 4.35517 16.4595 4.21748C17.6838 3.97325 18.9315 3.86592 20.1796 3.89747C20.4245 3.89314 20.6672 3.94442 20.8895 4.04746C21.1191 4.14492 21.3266 4.28779 21.4995 4.46748C21.6687 4.65433 21.801 4.87146 21.8895 5.10746C21.9709 5.32807 22.0083 5.56249 21.9995 5.79746Z" fill="black"/>
<path d="M7.59943 4.18733C6.36223 3.9381 5.10112 3.8274 3.83942 3.85731C3.59836 3.85463 3.35916 3.90015 3.13593 3.99116C2.91269 4.08218 2.70996 4.21687 2.53949 4.38734C2.36903 4.55781 2.23427 4.76063 2.14325 4.98387C2.05224 5.20711 2.00678 5.44627 2.00946 5.68733V16.5573C1.97986 16.8241 2.01058 17.0941 2.09943 17.3473C2.18834 17.5989 2.3318 17.8277 2.51947 18.0173C2.69926 18.2053 2.91726 18.3525 3.15876 18.4491C3.40026 18.5457 3.65968 18.5894 3.9195 18.5773C5.07523 18.5625 6.22896 18.6766 7.35944 18.9173C8.64549 19.068 9.88558 19.4871 10.9995 20.1473V5.21733C9.93329 4.68227 8.78328 4.3339 7.59943 4.18733ZM5.59943 7.70732H6.84943C7.04834 7.70732 7.23917 7.78633 7.37983 7.92698C7.52048 8.06764 7.59943 8.25841 7.59943 8.45732C7.59943 8.65623 7.52048 8.847 7.37983 8.98765C7.23917 9.12831 7.04834 9.20732 6.84943 9.20732H5.59943C5.40052 9.20732 5.20981 9.12831 5.06916 8.98765C4.9285 8.847 4.84943 8.65623 4.84943 8.45732C4.84943 8.25841 4.9285 8.06764 5.06916 7.92698C5.20981 7.78633 5.40052 7.70732 5.59943 7.70732ZM7.4394 15.2173H5.59943C5.40052 15.2173 5.20981 15.1383 5.06916 14.9977C4.9285 14.857 4.84943 14.6662 4.84943 14.4673C4.84943 14.2684 4.9285 14.0776 5.06916 13.937C5.20981 13.7963 5.40052 13.7173 5.59943 13.7173H7.4394C7.63831 13.7173 7.82914 13.7963 7.96979 13.937C8.11044 14.0776 8.1894 14.2684 8.1894 14.4673C8.1894 14.6662 8.11044 14.857 7.96979 14.9977C7.82914 15.1383 7.63831 15.2173 7.4394 15.2173ZM9.10944 12.2173H5.75946C5.56055 12.2173 5.36972 12.1383 5.22907 11.9977C5.08842 11.857 5.00946 11.6662 5.00946 11.4673C5.00946 11.2684 5.08842 11.0776 5.22907 10.937C5.36972 10.7963 5.56055 10.7173 5.75946 10.7173H9.10944C9.30835 10.7173 9.49918 10.7963 9.63983 10.937C9.78049 11.0776 9.85944 11.2684 9.85944 11.4673C9.85944 11.6662 9.78049 11.857 9.63983 11.9977C9.49918 12.1383 9.30835 12.2173 9.10944 12.2173Z" fill="black"/>
</svg>
