<svg width="24" height="24" viewBox="0 0 24 24" fill="none" xmlns="http://www.w3.org/2000/svg">
<path d="M11.2551 5.5867V19.8167C10.1499 19.107 8.89886 18.6558 7.59509 18.4967C6.52756 18.267 5.43681 18.163 4.34509 18.1867C4.1024 18.1789 3.86259 18.1316 3.63507 18.0467C3.40781 17.954 3.20068 17.8182 3.02509 17.6467C2.8575 17.4756 2.72199 17.2758 2.62506 17.0567C2.53561 16.8305 2.48821 16.5899 2.48511 16.3467V6.0267C2.48689 5.56164 2.66566 5.1147 2.98511 4.7767C3.30042 4.43145 3.73827 4.22326 4.20508 4.19668C5.41665 4.16628 6.62773 4.27365 7.81506 4.51669C9.01654 4.66453 10.1817 5.02696 11.2551 5.5867Z" fill="black"/>
<path d="M21.5149 16.3468C21.5139 16.587 21.4663 16.8247 21.3749 17.0468C21.2811 17.2759 21.1416 17.4835 20.9649 17.6568C20.7917 17.824 20.5881 17.9565 20.3649 18.0468C20.1382 18.1344 19.8979 18.1818 19.6549 18.1869C18.5837 18.1662 17.5135 18.2668 16.4649 18.4868C15.1429 18.6409 13.8737 19.0958 12.7549 19.8168V5.58682C13.8361 5.01671 15.0119 4.64743 16.2249 4.49686C17.3802 4.26629 18.5571 4.16234 19.7349 4.18686C19.9729 4.1954 20.2068 4.25106 20.423 4.35062C20.6393 4.45018 20.8337 4.59161 20.9949 4.76682C21.3159 5.10788 21.4947 5.5585 21.4949 6.02683L21.5149 16.3468Z" fill="black"/>
</svg>
