<svg width="24" height="24" viewBox="0 0 24 24" fill="none" xmlns="http://www.w3.org/2000/svg">
<path d="M19.62 2.72503H4.39C3.76314 2.71969 3.1597 2.96292 2.71177 3.40148C2.26384 3.84004 2.00789 4.43823 1.99998 5.06506V7.18505C1.99404 7.69161 2.14991 8.18682 2.44487 8.59869C2.73983 9.01055 3.1585 9.31756 3.64 9.47503V17.335C3.64065 17.8553 3.74539 18.3701 3.94804 18.8493C4.15069 19.3284 4.44716 19.7622 4.81999 20.1251C5.57404 20.8677 6.59165 21.2812 7.64997 21.275H16.36C17.4183 21.2812 18.4359 20.8677 19.19 20.1251C19.5628 19.7622 19.8593 19.3284 20.0619 18.8493C20.2646 18.3701 20.3693 17.8553 20.37 17.335V9.47503C20.8415 9.31849 21.2522 9.01834 21.5445 8.61663C21.8368 8.21493 21.9961 7.73183 22 7.23504V5.11505C22.004 4.80092 21.9453 4.48911 21.8272 4.19799C21.7091 3.90687 21.5341 3.64228 21.3125 3.41967C21.0908 3.19707 20.8269 3.02095 20.5363 2.90167C20.2456 2.78238 19.9341 2.72234 19.62 2.72503ZM15.54 13.365L12.14 16.765C12.0106 16.8929 11.8578 16.9948 11.69 17.0651C11.5209 17.1374 11.3389 17.1747 11.155 17.1747C10.9711 17.1747 10.7891 17.1374 10.62 17.0651C10.4489 16.9962 10.2953 16.8903 10.17 16.7551L8.47999 15.075C8.4063 15.0063 8.34719 14.9236 8.30619 14.8316C8.2652 14.7396 8.24318 14.6402 8.24141 14.5395C8.23963 14.4388 8.25816 14.3388 8.29588 14.2454C8.3336 14.152 8.38973 14.0672 8.46095 13.996C8.53217 13.9247 8.61701 13.8686 8.7104 13.8309C8.80379 13.7932 8.90379 13.7746 9.0045 13.7764C9.1052 13.7782 9.20452 13.8003 9.29652 13.8412C9.38852 13.8822 9.47133 13.9413 9.53999 14.015L11.16 15.635L14.48 12.305C14.5487 12.2314 14.6315 12.1722 14.7235 12.1312C14.8155 12.0902 14.9148 12.0682 15.0155 12.0665C15.1162 12.0647 15.2162 12.0832 15.3096 12.1209C15.403 12.1586 15.4878 12.2148 15.559 12.286C15.6303 12.3572 15.6864 12.4421 15.7241 12.5355C15.7618 12.6288 15.7804 12.7288 15.7786 12.8295C15.7768 12.9302 15.7547 13.0296 15.7138 13.1216C15.6728 13.2136 15.6137 13.2964 15.54 13.365ZM20.54 7.18505C20.5387 7.29885 20.5148 7.41124 20.4698 7.51574C20.4247 7.62025 20.3594 7.71475 20.2775 7.79382C20.1957 7.87288 20.0989 7.93491 19.9929 7.97631C19.8869 8.01772 19.7738 8.03768 19.66 8.03503H4.39C4.27574 8.03769 4.16206 8.01778 4.05549 7.9765C3.94892 7.93521 3.85152 7.87336 3.76887 7.79443C3.68622 7.71549 3.61994 7.62104 3.5738 7.51647C3.52766 7.41191 3.50258 7.29931 3.49998 7.18505V5.06506C3.50256 4.95125 3.52773 4.83906 3.57399 4.73504C3.62025 4.63102 3.68669 4.53724 3.76948 4.4591C3.85227 4.38096 3.94974 4.32002 4.05626 4.27984C4.16277 4.23967 4.27622 4.22103 4.39 4.22503H19.62C19.7333 4.22102 19.8462 4.23973 19.9522 4.28002C20.0581 4.32032 20.155 4.38138 20.2369 4.45965C20.3189 4.53792 20.3845 4.63181 20.4296 4.73577C20.4748 4.83974 20.4987 4.95171 20.5 5.06506L20.54 7.18505Z" fill="black"/>
</svg>
