<svg width="24" height="24" viewBox="0 0 24 24" fill="none" xmlns="http://www.w3.org/2000/svg">
<path d="M19.62 2.72503H4.39C3.76314 2.71969 3.1597 2.96292 2.71177 3.40148C2.26384 3.84004 2.00789 4.43823 1.99998 5.06506V7.18505C1.99404 7.69161 2.14991 8.18682 2.44487 8.59869C2.73983 9.01055 3.1585 9.31756 3.64 9.47503V17.335C3.64065 17.8553 3.74539 18.3701 3.94804 18.8493C4.15069 19.3284 4.44716 19.7622 4.81999 20.1251C5.57404 20.8677 6.59165 21.2812 7.64997 21.275H16.36C17.4183 21.2812 18.4359 20.8677 19.19 20.1251C19.5628 19.7622 19.8593 19.3284 20.0619 18.8493C20.2646 18.3701 20.3693 17.8553 20.37 17.335V9.47503C20.8415 9.31849 21.2522 9.01834 21.5445 8.61663C21.8368 8.21493 21.9961 7.73183 22 7.23504V5.11505C22.004 4.80092 21.9453 4.48911 21.8272 4.19799C21.7091 3.90687 21.5341 3.64228 21.3125 3.41967C21.0908 3.19707 20.8269 3.02095 20.5363 2.90167C20.2456 2.78238 19.9341 2.72234 19.62 2.72503ZM11.93 18.3751C11.7817 18.3751 11.6367 18.3311 11.5133 18.2487C11.39 18.1662 11.2938 18.0491 11.2371 17.912C11.1803 17.775 11.1655 17.6242 11.1944 17.4787C11.2233 17.3332 11.2948 17.1996 11.3997 17.0947C11.5046 16.9898 11.6382 16.9184 11.7837 16.8895C11.9292 16.8605 12.0799 16.8754 12.217 16.9321C12.354 16.9889 12.4712 17.085 12.5536 17.2084C12.636 17.3317 12.68 17.4767 12.68 17.6251C12.68 17.824 12.601 18.0147 12.4603 18.1554C12.3197 18.296 12.1289 18.3751 11.93 18.3751ZM14.09 13.855C13.9743 14.1292 13.8002 14.3749 13.58 14.575C13.3663 14.7785 13.1101 14.9322 12.83 15.025L12.75 15.105C12.7362 15.1473 12.7362 15.1928 12.75 15.235V15.585C12.75 15.7839 12.671 15.9747 12.5303 16.1154C12.3897 16.256 12.1989 16.335 12 16.335C11.8011 16.335 11.6103 16.256 11.4696 16.1154C11.329 15.9747 11.25 15.7839 11.25 15.585V15.215C11.2547 14.8557 11.3699 14.5066 11.58 14.215C11.7766 13.931 12.0559 13.7145 12.38 13.595C12.4389 13.563 12.4928 13.5226 12.54 13.475C12.6008 13.4195 12.6486 13.3512 12.68 13.275C12.7118 13.1954 12.7288 13.1107 12.73 13.025C12.7304 12.9413 12.7098 12.8587 12.67 12.785C12.6132 12.6854 12.5345 12.5999 12.44 12.535C12.3085 12.4467 12.1561 12.3947 11.9981 12.3842C11.84 12.3736 11.682 12.405 11.54 12.475C11.3709 12.5605 11.2366 12.7018 11.16 12.8751C11.1212 12.9683 11.064 13.0527 10.9917 13.1233C10.9195 13.1939 10.8338 13.2491 10.7397 13.2858C10.6456 13.3224 10.5451 13.3396 10.4441 13.3365C10.3432 13.3333 10.244 13.3098 10.1523 13.2674C10.0607 13.2249 9.97857 13.1644 9.9109 13.0895C9.84323 13.0145 9.79137 12.9267 9.75846 12.8312C9.72556 12.7358 9.7123 12.6346 9.71943 12.5339C9.72657 12.4331 9.75397 12.3349 9.8 12.2451C10.0195 11.7715 10.3899 11.384 10.8531 11.1433C11.3163 10.9026 11.8463 10.8224 12.36 10.915C12.7101 10.9747 13.0418 11.1138 13.3296 11.3219C13.6174 11.5299 13.8536 11.8013 14.02 12.115C14.1537 12.3899 14.2286 12.6896 14.24 12.9951C14.2508 13.2891 14.1997 13.582 14.09 13.855ZM20.5 7.18505C20.4987 7.29885 20.4748 7.41124 20.4298 7.51574C20.3847 7.62025 20.3194 7.71475 20.2375 7.79382C20.1557 7.87288 20.0589 7.93491 19.9529 7.97631C19.8469 8.01772 19.7337 8.03768 19.62 8.03503H4.39C4.27574 8.03769 4.16206 8.01778 4.05549 7.9765C3.94892 7.93521 3.85152 7.87336 3.76887 7.79443C3.68622 7.71549 3.61994 7.62104 3.5738 7.51647C3.52766 7.41191 3.50258 7.29931 3.49998 7.18505V5.06506C3.50256 4.95125 3.52773 4.83906 3.57399 4.73504C3.62025 4.63102 3.68669 4.53724 3.76948 4.4591C3.85227 4.38096 3.94974 4.32002 4.05626 4.27984C4.16277 4.23967 4.27622 4.22103 4.39 4.22503H19.62C19.7333 4.22102 19.8462 4.23973 19.9522 4.28002C20.0581 4.32032 20.155 4.38138 20.2369 4.45965C20.3189 4.53792 20.3845 4.63181 20.4296 4.73577C20.4748 4.83974 20.4987 4.95171 20.5 5.06506V7.18505Z" fill="black"/>
</svg>
