<svg width="24" height="24" viewBox="0 0 24 24" fill="none" xmlns="http://www.w3.org/2000/svg">
<path d="M21.7146 8.80365V11.0137C21.7146 11.2126 21.6356 11.4034 21.4949 11.544C21.3543 11.6847 21.1635 11.7637 20.9646 11.7637C20.7657 11.7637 20.5749 11.6847 20.4343 11.544C20.2936 11.4034 20.2146 11.2126 20.2146 11.0137V8.80365C20.221 8.54428 20.1768 8.28614 20.0846 8.04364L12.7846 12.4236V20.6136C12.8996 20.5798 13.0103 20.5328 13.1146 20.4736L15.6446 19.0737C15.8164 18.9831 16.0166 18.9628 16.2031 19.0168C16.3896 19.0709 16.5479 19.1953 16.6446 19.3636C16.7343 19.5366 16.7532 19.7378 16.6972 19.9244C16.6412 20.1111 16.5147 20.2686 16.3446 20.3636L13.8246 21.7637C13.2711 22.0719 12.6481 22.2337 12.0146 22.2337C11.3811 22.2337 10.7581 22.0719 10.2046 21.7637L4.20459 18.4636C3.62557 18.1352 3.14329 17.6601 2.80624 17.0861C2.46919 16.512 2.28928 15.8593 2.28461 15.1937V8.80365C2.28504 8.13523 2.46459 7.47911 2.8046 6.90363C2.86199 6.80088 2.92896 6.70381 3.00461 6.61365C3.0397 6.55991 3.07988 6.50966 3.1246 6.46362C3.41595 6.08183 3.78378 5.76508 4.20459 5.53363L10.2046 2.22363C10.7607 1.92343 11.3827 1.76624 12.0146 1.76624C12.6465 1.76624 13.2685 1.92343 13.8246 2.22363L19.8246 5.53363C20.2454 5.76508 20.6133 6.08183 20.9046 6.46362L21.0246 6.61365C21.1002 6.70381 21.1672 6.80088 21.2246 6.90363C21.5588 7.48017 21.7283 8.1374 21.7146 8.80365Z" fill="black"/>
<path d="M19.3946 17.9437C19.1965 17.9411 19.0072 17.8612 18.8671 17.7211C18.727 17.581 18.6472 17.3918 18.6446 17.1937V16.8837C18.6492 16.5645 18.7503 16.2542 18.9346 15.9936C19.1179 15.7395 19.3717 15.5448 19.6646 15.4336L19.8246 15.3436C19.8634 15.3071 19.8941 15.2628 19.9146 15.2136C19.9241 15.1641 19.9241 15.1132 19.9146 15.0637C19.9238 15.0107 19.9238 14.9566 19.9146 14.9036C19.8755 14.8438 19.8244 14.7928 19.7646 14.7537C19.6949 14.7061 19.6169 14.6722 19.5346 14.6536C19.3984 14.6267 19.257 14.6479 19.1346 14.7136C19.0222 14.7746 18.9314 14.869 18.8746 14.9836C18.8358 15.0769 18.7786 15.1613 18.7064 15.2319C18.6342 15.3024 18.5484 15.3577 18.4543 15.3943C18.3602 15.431 18.2597 15.4483 18.1587 15.4451C18.0578 15.442 17.9586 15.4185 17.8669 15.376C17.7753 15.3336 17.6932 15.2731 17.6255 15.1981C17.5579 15.1232 17.506 15.0353 17.4731 14.9398C17.4402 14.8443 17.4269 14.7432 17.4341 14.6425C17.4412 14.5418 17.4686 14.4435 17.5146 14.3536C17.7115 13.9355 18.0403 13.5935 18.4504 13.3804C18.8605 13.1672 19.3292 13.0945 19.7846 13.1736C20.0921 13.2257 20.3832 13.349 20.6346 13.5336C20.8782 13.7006 21.0793 13.9224 21.2217 14.1812C21.3641 14.44 21.4439 14.7285 21.4546 15.0236C21.4573 15.291 21.4063 15.5563 21.3046 15.8036C21.2039 16.0477 21.0502 16.2663 20.8546 16.4437C20.6625 16.6234 20.434 16.7597 20.1846 16.8436V17.1937C20.1848 17.2956 20.1641 17.3965 20.1239 17.4902C20.0838 17.5839 20.0249 17.6684 19.951 17.7386C19.8771 17.8088 19.7896 17.8632 19.6939 17.8984C19.5983 17.9337 19.4964 17.9491 19.3946 17.9437Z" fill="black"/>
<path d="M19.3746 19.6437C19.1757 19.6437 18.9849 19.5646 18.8443 19.424C18.7036 19.2833 18.6246 19.0926 18.6246 18.8937C18.6246 18.6948 18.7036 18.504 18.8443 18.3633C18.9849 18.2227 19.1757 18.1437 19.3746 18.1437C19.5735 18.1437 19.7643 18.2227 19.9049 18.3633C20.0456 18.504 20.1246 18.6948 20.1246 18.8937C20.1246 19.0926 20.0456 19.2833 19.9049 19.424C19.7643 19.5646 19.5735 19.6437 19.3746 19.6437Z" fill="black"/>
</svg>
