<svg width="24" height="24" viewBox="0 0 24 24" fill="none" xmlns="http://www.w3.org/2000/svg">
<path d="M19.62 2.72503H4.39C3.76314 2.71969 3.1597 2.96292 2.71177 3.40148C2.26384 3.84004 2.00789 4.43823 1.99998 5.06506V7.18505C1.99404 7.69161 2.14991 8.18682 2.44487 8.59869C2.73983 9.01055 3.1585 9.31756 3.64 9.47503V17.335C3.64065 17.8553 3.74539 18.3701 3.94804 18.8493C4.15069 19.3284 4.44716 19.7622 4.81999 20.1251C5.57404 20.8677 6.59165 21.2812 7.64997 21.275H16.36C17.4183 21.2812 18.4359 20.8677 19.19 20.1251C19.5628 19.7622 19.8593 19.3284 20.0619 18.8493C20.2646 18.3701 20.3693 17.8553 20.37 17.335V9.47503C20.8415 9.31849 21.2522 9.01834 21.5445 8.61663C21.8368 8.21493 21.9961 7.73183 22 7.23504V5.11505C22.004 4.80092 21.9453 4.48911 21.8272 4.19799C21.7091 3.90687 21.5341 3.64228 21.3125 3.41967C21.0908 3.19707 20.8269 3.02095 20.5363 2.90167C20.2456 2.78238 19.9341 2.72234 19.62 2.72503ZM14.54 16.095C14.6107 16.164 14.667 16.2464 14.7054 16.3374C14.7438 16.4284 14.7636 16.5263 14.7636 16.6251C14.7636 16.7238 14.7438 16.8216 14.7054 16.9127C14.667 17.0037 14.6107 17.0861 14.54 17.155C14.4718 17.2266 14.3895 17.2831 14.2982 17.321C14.2069 17.3589 14.1088 17.3773 14.01 17.3751C13.9115 17.3755 13.8138 17.3563 13.7228 17.3185C13.6318 17.2807 13.5492 17.2251 13.48 17.155L12 15.6851L10.54 17.145C10.4718 17.2165 10.3895 17.2731 10.2982 17.311C10.2069 17.3489 10.1088 17.3673 10.01 17.365C9.91145 17.3655 9.8138 17.3463 9.72279 17.3085C9.63178 17.2707 9.54924 17.2151 9.47999 17.145C9.33954 17.0044 9.26066 16.8138 9.26066 16.615C9.26066 16.4163 9.33954 16.2256 9.47999 16.085L10.94 14.6251L9.47999 13.165C9.34751 13.0229 9.27539 12.8348 9.27882 12.6405C9.28225 12.4462 9.36095 12.2608 9.49836 12.1234C9.63578 11.986 9.82115 11.9073 10.0155 11.9039C10.2098 11.9004 10.3978 11.9726 10.54 12.105L12 13.5651L13.48 12.095C13.6206 11.9546 13.8112 11.8757 14.01 11.8757C14.2087 11.8757 14.3994 11.9546 14.54 12.095C14.6107 12.164 14.667 12.2464 14.7054 12.3374C14.7438 12.4284 14.7636 12.5263 14.7636 12.6251C14.7636 12.7238 14.7438 12.8216 14.7054 12.9127C14.667 13.0037 14.6107 13.0861 14.54 13.155L13.07 14.6251L14.54 16.095ZM20.54 7.18505C20.5387 7.29885 20.5148 7.41124 20.4698 7.51574C20.4247 7.62025 20.3594 7.71475 20.2775 7.79382C20.1957 7.87288 20.0989 7.93491 19.9929 7.97631C19.8869 8.01772 19.7738 8.03768 19.66 8.03503H4.39C4.27574 8.03769 4.16206 8.01778 4.05549 7.9765C3.94892 7.93521 3.85152 7.87336 3.76887 7.79443C3.68622 7.71549 3.61994 7.62104 3.5738 7.51647C3.52766 7.41191 3.50258 7.29931 3.49998 7.18505V5.06506C3.50256 4.95125 3.52773 4.83906 3.57399 4.73504C3.62025 4.63102 3.68669 4.53724 3.76948 4.4591C3.85227 4.38096 3.94974 4.32002 4.05626 4.27984C4.16277 4.23967 4.27622 4.22103 4.39 4.22503H19.62C19.7333 4.22102 19.8462 4.23973 19.9522 4.28002C20.0581 4.32032 20.155 4.38138 20.2369 4.45965C20.3189 4.53792 20.3845 4.63181 20.4296 4.73577C20.4748 4.83974 20.4987 4.95171 20.5 5.06506L20.54 7.18505Z" fill="black"/>
</svg>
