<svg width="24" height="24" viewBox="0 0 24 24" fill="none" xmlns="http://www.w3.org/2000/svg">
<path d="M21.0856 8.80365V11.0137C21.0856 11.2126 21.0066 11.4034 20.866 11.544C20.7253 11.6847 20.5346 11.7637 20.3356 11.7637C20.1367 11.7637 19.946 11.6847 19.8053 11.544C19.6647 11.4034 19.5856 11.2126 19.5856 11.0137V8.80365C19.592 8.54428 19.5479 8.28614 19.4556 8.04364L12.1556 12.4236V20.6136C12.2707 20.5798 12.3814 20.5328 12.4856 20.4736L15.0156 19.0737C15.1874 18.9831 15.3877 18.9628 15.5742 19.0168C15.7607 19.0709 15.9189 19.1953 16.0156 19.3636C16.1053 19.5366 16.1242 19.7378 16.0682 19.9244C16.0122 20.1111 15.8858 20.2686 15.7156 20.3636L13.1956 21.7637C12.6422 22.0719 12.0192 22.2337 11.3856 22.2337C10.7521 22.2337 10.1291 22.0719 9.57565 21.7637L3.57565 18.4636C2.99663 18.1352 2.51432 17.6601 2.17727 17.0861C1.84022 16.512 1.66032 15.8593 1.65565 15.1937V8.80365C1.65608 8.13523 1.83563 7.47911 2.17564 6.90363C2.23303 6.80088 2.29999 6.70381 2.37563 6.61365L2.49564 6.46362C2.78699 6.08183 3.15484 5.76508 3.57565 5.53363L9.57565 2.22363C10.1317 1.92343 10.7537 1.76624 11.3856 1.76624C12.0176 1.76624 12.6396 1.92343 13.1956 2.22363L19.1956 5.53363C19.6164 5.76508 19.9843 6.08183 20.2756 6.46362C20.3204 6.50966 20.3605 6.55991 20.3956 6.61365C20.4713 6.70381 20.5382 6.80088 20.5956 6.90363C20.9298 7.48017 21.0993 8.1374 21.0856 8.80365Z" fill="black"/>
<path d="M22.1956 17.6237L20.1956 19.6237C20.0847 19.736 19.952 19.8244 19.8056 19.8837C19.6617 19.9511 19.5045 19.9852 19.3456 19.9836C19.1879 19.9837 19.0317 19.9531 18.8857 19.8937C18.7364 19.8299 18.6006 19.7382 18.4856 19.6237L16.4856 17.6237C16.4149 17.5547 16.3586 17.4723 16.3203 17.3813C16.2819 17.2903 16.2621 17.1924 16.2621 17.0936C16.2621 16.9948 16.2819 16.8971 16.3203 16.806C16.3586 16.715 16.4149 16.6326 16.4856 16.5637C16.6263 16.4232 16.8169 16.3443 17.0156 16.3443C17.2144 16.3443 17.405 16.4232 17.5457 16.5637L18.5457 17.5637V14.2037C18.5457 14.0048 18.6247 13.814 18.7653 13.6733C18.906 13.5327 19.0967 13.4537 19.2957 13.4537C19.4946 13.4537 19.6853 13.5327 19.826 13.6733C19.9666 13.814 20.0457 14.0048 20.0457 14.2037V17.5837L21.0457 16.5837C21.1143 16.51 21.1971 16.4508 21.2891 16.4099C21.3811 16.3689 21.4804 16.3468 21.5811 16.345C21.6818 16.3433 21.7819 16.3618 21.8752 16.3995C21.9686 16.4373 22.0535 16.4934 22.1247 16.5646C22.1959 16.6359 22.252 16.7206 22.2898 16.814C22.3275 16.9074 22.346 17.0075 22.3442 17.1082C22.3425 17.2089 22.3204 17.3082 22.2794 17.4002C22.2384 17.4922 22.1793 17.575 22.1057 17.6437L22.1956 17.6237Z" fill="black"/>
</svg>
