<svg width="24" height="24" viewBox="0 0 24 24" fill="none" xmlns="http://www.w3.org/2000/svg">
<path d="M20.6953 8.80371V11.0137C20.6953 11.2126 20.6163 11.4034 20.4757 11.5441C20.335 11.6847 20.1442 11.7637 19.9453 11.7637C19.7464 11.7637 19.5556 11.6847 19.415 11.5441C19.2743 11.4034 19.1953 11.2126 19.1953 11.0137V8.80371C19.2017 8.54434 19.1575 8.2862 19.0653 8.0437L11.7653 12.4237V20.6137C11.8803 20.5799 11.9911 20.5329 12.0953 20.4737L14.6253 19.0737C14.7971 18.9832 14.9973 18.9628 15.1839 19.0169C15.3704 19.071 15.5286 19.1953 15.6253 19.3637C15.715 19.5367 15.7339 19.7378 15.6779 19.9245C15.6219 20.1112 15.4955 20.2687 15.3253 20.3637L12.8053 21.7637C12.2518 22.072 11.6288 22.2338 10.9953 22.2338C10.3618 22.2338 9.73879 22.072 9.18532 21.7637L3.18532 18.4637C2.6063 18.1353 2.12402 17.6602 1.78697 17.0861C1.44992 16.5121 1.27001 15.8594 1.26534 15.1937V8.80371C1.26577 8.13529 1.44532 7.47917 1.78532 6.90369C1.84272 6.80094 1.90969 6.70387 1.98534 6.61371C2.02043 6.55997 2.06061 6.50972 2.10533 6.46368C2.39668 6.08189 2.76451 5.76514 3.18532 5.53369L9.18532 2.22369C9.74138 1.92349 10.3634 1.7663 10.9953 1.7663C11.6272 1.7663 12.2492 1.92349 12.8053 2.22369L18.8053 5.53369C19.2261 5.76514 19.594 6.08189 19.8853 6.46368L20.0053 6.61371C20.081 6.70387 20.1479 6.80094 20.2053 6.90369C20.5395 7.48023 20.709 8.13746 20.6953 8.80371Z" fill="black"/>
<path d="M22.4453 18.1737C22.519 18.2424 22.5781 18.3252 22.6191 18.4172C22.6601 18.5092 22.6821 18.6085 22.6839 18.7092C22.6857 18.8099 22.6672 18.9099 22.6294 19.0033C22.5917 19.0967 22.5356 19.1815 22.4644 19.2527C22.3932 19.324 22.3083 19.3801 22.2149 19.4178C22.1215 19.4556 22.0215 19.4741 21.9208 19.4723C21.8201 19.4705 21.7208 19.4485 21.6288 19.4075C21.5368 19.3665 21.454 19.3074 21.3853 19.2337L19.9353 17.8037L18.4453 19.2237C18.3772 19.2952 18.2948 19.3518 18.2035 19.3896C18.1123 19.4275 18.0141 19.446 17.9153 19.4437C17.8168 19.4442 17.7191 19.425 17.6281 19.3872C17.5371 19.3494 17.4546 19.2938 17.3853 19.2237C17.2449 19.0831 17.166 18.8925 17.166 18.6937C17.166 18.495 17.2449 18.3043 17.3853 18.1637L18.8453 16.7037L17.4453 15.2437C17.3049 15.1031 17.226 14.9124 17.226 14.7137C17.226 14.5149 17.3049 14.3243 17.4453 14.1837C17.5143 14.113 17.5967 14.0567 17.6877 14.0183C17.7788 13.9799 17.8765 13.9601 17.9753 13.9601C18.0741 13.9601 18.1719 13.9799 18.263 14.0183C18.354 14.0567 18.4364 14.113 18.5053 14.1837L19.9653 15.6437L21.4453 14.1737C21.5877 14.0326 21.7799 13.9535 21.9803 13.9535C22.1807 13.9535 22.373 14.0326 22.5153 14.1737C22.6558 14.3143 22.7347 14.505 22.7347 14.7037C22.7347 14.9025 22.6558 15.0931 22.5153 15.2337L21.0453 16.7037L22.4453 18.1737Z" fill="black"/>
</svg>
