<svg width="24" height="24" viewBox="0 0 24 24" fill="none" xmlns="http://www.w3.org/2000/svg">
<path d="M19.62 2.72503H4.38999C3.76313 2.71969 3.15968 2.96292 2.71175 3.40148C2.26382 3.84004 2.0079 4.43823 1.99999 5.06506V7.18505C1.99405 7.69161 2.14988 8.18682 2.44484 8.59869C2.7398 9.01055 3.15849 9.31756 3.63999 9.47503V17.335C3.64064 17.8553 3.74538 18.3701 3.94803 18.8493C4.15068 19.3284 4.44715 19.7622 4.81998 20.1251C5.57403 20.8677 6.59166 21.2812 7.64998 21.275H16.36C17.4183 21.2812 18.4359 20.8677 19.19 20.1251C19.561 19.7609 19.8563 19.3268 20.0588 18.848C20.2613 18.3691 20.3671 17.8549 20.37 17.335V9.47503C20.8415 9.31849 21.2522 9.01834 21.5445 8.61663C21.8368 8.21493 21.9961 7.73183 22 7.23504V5.11505C22.004 4.80092 21.9452 4.48911 21.8272 4.19799C21.7091 3.90687 21.5341 3.64228 21.3124 3.41967C21.0908 3.19707 20.8269 3.02095 20.5363 2.90167C20.2456 2.78238 19.9341 2.72234 19.62 2.72503ZM14.54 15.385H12.79V17.1251C12.79 17.324 12.711 17.5147 12.5703 17.6554C12.4297 17.796 12.2389 17.8751 12.04 17.8751C11.8411 17.8751 11.6503 17.796 11.5096 17.6554C11.369 17.5147 11.29 17.324 11.29 17.1251V15.385H9.53998C9.34107 15.385 9.1503 15.306 9.00964 15.1653C8.86899 15.0247 8.78998 14.8339 8.78998 14.635C8.78998 14.4361 8.86899 14.2454 9.00964 14.1047C9.1503 13.9641 9.34107 13.885 9.53998 13.885H11.29V12.1251C11.29 11.9261 11.369 11.7354 11.5096 11.5947C11.6503 11.4541 11.8411 11.3751 12.04 11.3751C12.2389 11.3751 12.4297 11.4541 12.5703 11.5947C12.711 11.7354 12.79 11.9261 12.79 12.1251V13.885H14.54C14.7389 13.885 14.9297 13.9641 15.0703 14.1047C15.211 14.2454 15.29 14.4361 15.29 14.635C15.29 14.8339 15.211 15.0247 15.0703 15.1653C14.9297 15.306 14.7389 15.385 14.54 15.385ZM20.54 7.18505C20.5387 7.29885 20.5148 7.41124 20.4698 7.51574C20.4247 7.62025 20.3594 7.71475 20.2775 7.79382C20.1957 7.87288 20.0989 7.93491 19.9929 7.97631C19.8869 8.01772 19.7737 8.03768 19.66 8.03503H4.38999C4.27573 8.03769 4.16205 8.01778 4.05548 7.9765C3.94891 7.93521 3.85153 7.87336 3.76888 7.79443C3.68623 7.71549 3.61993 7.62104 3.57379 7.51647C3.52766 7.41191 3.50258 7.29931 3.49999 7.18505V5.06506C3.50256 4.95125 3.5277 4.83906 3.57396 4.73504C3.62022 4.63102 3.68668 4.53724 3.76947 4.4591C3.85226 4.38096 3.94974 4.32002 4.05626 4.27984C4.16278 4.23967 4.27621 4.22103 4.38999 4.22503H19.62C19.7333 4.22102 19.8462 4.23973 19.9522 4.28002C20.0581 4.32032 20.1549 4.38138 20.2369 4.45965C20.3189 4.53792 20.3845 4.63181 20.4296 4.73577C20.4748 4.83974 20.4987 4.95171 20.5 5.06506L20.54 7.18505Z" fill="black"/>
</svg>
