<svg width="24" height="24" viewBox="0 0 24 24" fill="none" xmlns="http://www.w3.org/2000/svg">
<path d="M19.62 2.725H4.38999C3.76313 2.71966 3.15968 2.96289 2.71175 3.40145C2.26382 3.84001 2.0079 4.4382 1.99999 5.06503V7.18502C1.99405 7.69158 2.14988 8.18679 2.44484 8.59866C2.7398 9.01052 3.1585 9.31752 3.63999 9.475V17.335C3.64064 17.8552 3.74538 18.3701 3.94803 18.8493C4.15068 19.3284 4.44715 19.7622 4.81998 20.125C5.57403 20.8677 6.59166 21.2811 7.64998 21.275H16.36C17.4183 21.2811 18.4359 20.8677 19.19 20.125C19.5628 19.7622 19.8593 19.3284 20.0619 18.8493C20.2646 18.3701 20.3693 17.8552 20.37 17.335V9.475C20.8415 9.31846 21.2522 9.01831 21.5445 8.6166C21.8368 8.2149 21.9961 7.7318 22 7.23501V5.11502C22.004 4.80089 21.9452 4.48908 21.8272 4.19796C21.7091 3.90684 21.5341 3.64225 21.3124 3.41964C21.0908 3.19704 20.8269 3.02092 20.5363 2.90164C20.2456 2.78235 19.9341 2.72231 19.62 2.725ZM14.83 14.605C14.7607 14.6751 14.6782 14.7307 14.5872 14.7685C14.4962 14.8062 14.3985 14.8254 14.3 14.825C14.2012 14.8272 14.103 14.8088 14.0118 14.771C13.9205 14.7331 13.8381 14.6765 13.77 14.605L12.77 13.605V16.985C12.77 17.1839 12.691 17.3747 12.5503 17.5153C12.4097 17.656 12.2189 17.735 12.02 17.735C11.8211 17.735 11.6303 17.656 11.4897 17.5153C11.349 17.3747 11.27 17.1839 11.27 16.985V13.605L10.27 14.605C10.1278 14.7375 9.93976 14.8096 9.74546 14.8062C9.55116 14.8027 9.36578 14.724 9.22837 14.5866C9.09095 14.4492 9.01224 14.2638 9.00881 14.0695C9.00538 13.8752 9.0775 13.6872 9.20998 13.545L11.21 11.545C11.3209 11.4327 11.4536 11.3442 11.6 11.285C11.6957 11.2444 11.7967 11.2175 11.9 11.205C12.0057 11.185 12.1142 11.185 12.22 11.205C12.3267 11.2162 12.4312 11.2432 12.53 11.285C12.675 11.3467 12.8072 11.4349 12.92 11.545L14.92 13.545C14.984 13.6204 15.0324 13.7077 15.0625 13.8018C15.0926 13.896 15.1038 13.9952 15.0954 14.0937C15.0871 14.1922 15.0593 14.2881 15.0138 14.3759C14.9682 14.4636 14.9057 14.5415 14.83 14.605ZM20.5 7.18502C20.4987 7.29882 20.4748 7.41121 20.4298 7.51571C20.3847 7.62022 20.3194 7.71472 20.2375 7.79379C20.1557 7.87285 20.0589 7.93488 19.9529 7.97628C19.8469 8.01769 19.7338 8.03765 19.62 8.035H4.38999C4.27573 8.03766 4.16206 8.01775 4.05548 7.97647C3.94891 7.93518 3.85153 7.87333 3.76888 7.7944C3.68623 7.71546 3.61993 7.62101 3.5738 7.51644C3.52766 7.41188 3.50258 7.29928 3.49999 7.18502V5.06503C3.50257 4.95121 3.5277 4.83903 3.57396 4.73501C3.62022 4.63099 3.68668 4.53721 3.76947 4.45907C3.85226 4.38093 3.94975 4.31999 4.05626 4.27981C4.16278 4.23963 4.27622 4.221 4.38999 4.225H19.62C19.7333 4.22099 19.8462 4.2397 19.9522 4.27999C20.0581 4.32029 20.1549 4.38135 20.2369 4.45962C20.3189 4.53789 20.3845 4.63178 20.4296 4.73574C20.4748 4.83971 20.4987 4.95168 20.5 5.06503V7.18502Z" fill="black"/>
</svg>
