<svg width="24" height="24" viewBox="0 0 24 24" fill="none" xmlns="http://www.w3.org/2000/svg">
<path d="M19.62 2.72503H4.38999C3.76313 2.71969 3.15968 2.96292 2.71175 3.40148C2.26382 3.84004 2.0079 4.43823 1.99999 5.06506V7.18505C1.99405 7.69161 2.14988 8.18682 2.44484 8.59869C2.7398 9.01055 3.1585 9.31756 3.63999 9.47503V17.335C3.64064 17.8553 3.74538 18.3701 3.94803 18.8493C4.15068 19.3284 4.44715 19.7622 4.81998 20.1251C5.57403 20.8677 6.59166 21.2812 7.64998 21.275H16.36C17.4183 21.2812 18.4359 20.8677 19.19 20.1251C19.561 19.7609 19.8563 19.3268 20.0588 18.848C20.2613 18.3691 20.3671 17.8549 20.37 17.335V9.47503C20.8415 9.31849 21.2522 9.01834 21.5445 8.61663C21.8368 8.21493 21.9961 7.73183 22 7.23504V5.11505C22.004 4.80092 21.9452 4.48911 21.8272 4.19799C21.7091 3.90687 21.5341 3.64228 21.3124 3.41967C21.0908 3.19707 20.8269 3.02095 20.5363 2.90167C20.2456 2.78238 19.9341 2.72234 19.62 2.72503ZM15.27 15.905H8.73998C8.54107 15.905 8.3503 15.826 8.20964 15.6854C8.06899 15.5447 7.98998 15.3539 7.98998 15.155C7.98998 14.9561 8.06899 14.7653 8.20964 14.6247C8.3503 14.484 8.54107 14.405 8.73998 14.405H15.27C15.4689 14.405 15.6597 14.484 15.8003 14.6247C15.941 14.7653 16.02 14.9561 16.02 15.155C16.02 15.3539 15.941 15.5447 15.8003 15.6854C15.6597 15.826 15.4689 15.905 15.27 15.905ZM20.5 7.18505C20.4987 7.29885 20.4748 7.41124 20.4298 7.51574C20.3847 7.62025 20.3194 7.71475 20.2375 7.79382C20.1557 7.87288 20.0589 7.93491 19.9529 7.97631C19.8469 8.01772 19.7338 8.03768 19.62 8.03503H4.38999C4.27573 8.03769 4.16206 8.01778 4.05548 7.9765C3.94891 7.93521 3.85153 7.87336 3.76888 7.79443C3.68623 7.71549 3.61993 7.62104 3.5738 7.51647C3.52766 7.41191 3.50258 7.29931 3.49999 7.18505V5.06506C3.50257 4.95125 3.5277 4.83906 3.57396 4.73504C3.62022 4.63102 3.68668 4.53724 3.76947 4.4591C3.85226 4.38096 3.94975 4.32002 4.05626 4.27984C4.16278 4.23967 4.27622 4.22103 4.38999 4.22503H19.62C19.7333 4.22102 19.8462 4.23973 19.9522 4.28002C20.0581 4.32032 20.1549 4.38138 20.2369 4.45965C20.3189 4.53792 20.3845 4.63181 20.4296 4.73577C20.4748 4.83974 20.4987 4.95171 20.5 5.06506V7.18505Z" fill="black"/>
</svg>
