<svg width="24" height="24" viewBox="0 0 24 24" fill="none" xmlns="http://www.w3.org/2000/svg">
<path d="M18.48 8.38082C18.2246 7.95942 17.8623 7.61348 17.43 7.37832L13.36 5.10267C12.9425 4.87542 12.475 4.75635 12 4.75635C11.525 4.75635 11.0575 4.87542 10.64 5.10267L6.57001 7.37832C6.13772 7.61348 5.77537 7.95942 5.52 8.38082C5.27002 8.81332 5.13889 9.30457 5.13999 9.80442V14.1954C5.13889 14.6953 5.27002 15.1864 5.52 15.6189C5.77346 16.0419 6.13627 16.3883 6.57001 16.6214L10.64 18.8871C11.0566 19.117 11.5244 19.2376 12 19.2376C12.4756 19.2376 12.9434 19.117 13.36 18.8871L17.43 16.6214C17.8637 16.3883 18.2265 16.0419 18.48 15.6189C18.7287 15.1896 18.8598 14.7019 18.86 14.2054V9.8445C18.8683 9.33107 18.7369 8.82506 18.48 8.38082ZM17.36 14.2054C17.3608 14.4337 17.3022 14.6583 17.19 14.857C17.0715 15.0576 16.9025 15.2235 16.7 15.3382L12.75 17.5337V12.431L17.35 9.65402C17.355 9.70403 17.355 9.75442 17.35 9.80442L17.36 14.2054Z" fill="black"/>
<path d="M21.25 8.63144C21.0511 8.63144 20.8603 8.55223 20.7197 8.41122C20.579 8.27022 20.5 8.07897 20.5 7.87956V5.87455C20.5017 5.5674 20.4425 5.26298 20.3258 4.979C20.209 4.69502 20.0371 4.43718 19.82 4.22045C19.3824 3.78087 18.7894 3.53227 18.17 3.52872H15.08C14.8811 3.52872 14.6903 3.44951 14.5497 3.30851C14.409 3.1675 14.33 2.97625 14.33 2.77684C14.33 2.57743 14.409 2.38618 14.5497 2.24518C14.6903 2.10417 14.8811 2.02496 15.08 2.02496H18.17C19.1871 2.02887 20.1614 2.43614 20.88 3.1578C21.2369 3.5137 21.5196 3.93714 21.7119 4.40353C21.9042 4.86991 22.0021 5.36991 22 5.87455V7.87956C22 8.07897 21.921 8.27022 21.7803 8.41122C21.6397 8.55223 21.4489 8.63144 21.25 8.63144Z" fill="black"/>
<path d="M18.17 22.0249H15.08C14.8811 22.0249 14.6903 21.9457 14.5497 21.8047C14.409 21.6637 14.33 21.4725 14.33 21.2731C14.33 21.0736 14.409 20.8824 14.5497 20.7414C14.6903 20.6004 14.8811 20.5212 15.08 20.5212H18.17C18.4763 20.5225 18.7799 20.463 19.0632 20.3461C19.3465 20.2291 19.6039 20.0571 19.8205 19.84C20.0371 19.6228 20.2087 19.3647 20.3253 19.0807C20.4419 18.7968 20.5013 18.4924 20.5 18.1853V16.1202C20.5 15.9208 20.579 15.7295 20.7197 15.5885C20.8603 15.4475 21.0511 15.3683 21.25 15.3683C21.4489 15.3683 21.6397 15.4475 21.7803 15.5885C21.921 15.7295 22 15.9208 22 16.1202V18.1853C22.0013 18.6899 21.9032 19.1898 21.7112 19.6562C21.5191 20.1227 21.2371 20.5465 20.8812 20.9033C20.5253 21.2601 20.1025 21.5428 19.6372 21.7353C19.172 21.9278 18.6733 22.0263 18.17 22.0249Z" fill="black"/>
<path d="M8.92 22.0249H5.83C5.32667 22.0263 4.82805 21.9278 4.36278 21.7353C3.8975 21.5428 3.47476 21.2601 3.11885 20.9033C2.76294 20.5465 2.48087 20.1227 2.28886 19.6562C2.09685 19.1898 1.99869 18.6899 2.00001 18.1853V16.1202C2.00001 15.9208 2.07903 15.7295 2.21968 15.5885C2.36033 15.4475 2.5511 15.3683 2.75001 15.3683C2.94893 15.3683 3.1397 15.4475 3.28035 15.5885C3.421 15.7295 3.50001 15.9208 3.50001 16.1202V18.1853C3.49869 18.4924 3.55804 18.7968 3.67467 19.0807C3.79129 19.3647 3.96286 19.6228 4.17949 19.84C4.39611 20.0571 4.65349 20.2291 4.93678 20.3461C5.22007 20.463 5.52365 20.5225 5.83 20.5212H8.92C9.11891 20.5212 9.30968 20.6004 9.45033 20.7414C9.59098 20.8824 9.67 21.0736 9.67 21.2731C9.67 21.4725 9.59098 21.6637 9.45033 21.8047C9.30968 21.9457 9.11891 22.0249 8.92 22.0249Z" fill="black"/>
<path d="M2.75 8.63144C2.55109 8.63144 2.36032 8.55223 2.21967 8.41122C2.07902 8.27022 2 8.07897 2 7.87956V5.87455C1.99789 5.36991 2.09579 4.86991 2.28806 4.40353C2.48033 3.93714 2.76312 3.5137 3.12 3.1578C3.8386 2.43614 4.81285 2.02887 5.82999 2.02496H8.91999C9.1189 2.02496 9.30967 2.10417 9.45032 2.24518C9.59097 2.38618 9.66999 2.57743 9.66999 2.77684C9.66999 2.97625 9.59097 3.1675 9.45032 3.30851C9.30967 3.44951 9.1189 3.52872 8.91999 3.52872H5.82999C5.21055 3.53227 4.61756 3.78087 4.18 4.22045C3.96289 4.43718 3.79097 4.69502 3.67423 4.979C3.55749 5.26298 3.49826 5.5674 3.5 5.87455V7.87956C3.5 8.07897 3.42099 8.27022 3.28034 8.41122C3.13969 8.55223 2.94892 8.63144 2.75 8.63144Z" fill="black"/>
</svg>
