<svg width="24" height="24" viewBox="0 0 24 24" fill="none" xmlns="http://www.w3.org/2000/svg">
<path d="M13.2862 12.5483V13.5453C13.2863 13.6176 13.2582 13.6871 13.208 13.7392C13.1577 13.7913 13.0893 13.8218 13.017 13.8244H10.9632C10.89 13.8219 10.8203 13.7917 10.7685 13.7399C10.7167 13.6881 10.6865 13.6185 10.6841 13.5453V12.5483C10.6784 12.5119 10.6784 12.4749 10.6841 12.4386C10.699 12.4031 10.723 12.3721 10.7538 12.3489C10.8039 12.2983 10.8721 12.2696 10.9433 12.2691H13.027C13.0623 12.2704 13.097 12.2786 13.1292 12.2934C13.1614 12.3081 13.1903 12.329 13.2144 12.3549C13.2385 12.3809 13.2572 12.4113 13.2695 12.4444C13.2819 12.4776 13.2876 12.5129 13.2862 12.5483Z" fill="black"/>
<path d="M21.003 6.61607C20.6976 6.30344 20.3334 6.05439 19.9313 5.88327C19.5291 5.71215 19.0971 5.62235 18.6601 5.61907H15.8186V4.31299C15.8204 4.08108 15.7754 3.85118 15.6863 3.63705C15.5973 3.42291 15.4659 3.22895 15.3002 3.06674C15.1366 2.89934 14.9412 2.76635 14.7255 2.6756C14.5097 2.58485 14.278 2.53818 14.0439 2.53833H9.94627C9.47641 2.54095 9.02655 2.72876 8.6943 3.06101C8.36205 3.39325 8.17419 3.84313 8.17158 4.31299V5.61907H5.34012C4.4579 5.6279 3.61514 5.98648 2.99707 6.61607C2.6822 6.91974 2.43168 7.28368 2.26039 7.6862C2.08911 8.08872 2.00056 8.52159 2.00006 8.95903V10.4545C1.99805 10.688 2.04294 10.9194 2.13199 11.1352C2.22104 11.351 2.35247 11.5467 2.51853 11.7108C2.67246 11.8649 2.85549 11.9869 3.05695 12.0697L3.38591 18.8194C3.45539 19.5431 3.79222 20.2149 4.33058 20.7034C4.86895 21.192 5.57019 21.4623 6.29721 21.4614H17.6331C18.3699 21.4712 19.0828 21.2003 19.6271 20.7037C20.1883 20.2095 20.544 19.523 20.6241 18.7795L20.9531 12.0697C21.1533 11.9844 21.3359 11.8627 21.4915 11.7108C21.8178 11.374 22.0002 10.9234 22 10.4545V8.95903C21.9973 8.52193 21.9077 8.08973 21.7365 7.68752C21.5654 7.28532 21.3161 6.92111 21.003 6.61607ZM9.66708 4.33294C9.67125 4.26054 9.7034 4.1926 9.75678 4.14351C9.77994 4.11569 9.80889 4.09325 9.8416 4.07775C9.87432 4.06226 9.91007 4.05408 9.94627 4.05378H14.024C14.0618 4.0526 14.0994 4.06006 14.134 4.07561C14.1686 4.09116 14.1991 4.11438 14.2233 4.14351C14.2739 4.19361 14.3027 4.26173 14.3032 4.33294V5.63901H9.64712L9.66708 4.33294ZM14.7917 13.5752C14.7965 13.5982 14.7965 13.6219 14.7917 13.6449C14.7787 14.1016 14.5881 14.5352 14.2604 14.8536C13.9328 15.172 13.4938 15.35 13.037 15.3498H10.9831C10.5252 15.3501 10.0852 15.1724 9.75592 14.8543C9.42665 14.5362 9.234 14.1025 9.21848 13.6449C9.21364 13.6219 9.21364 13.5982 9.21848 13.5752V12.5782C9.21807 12.4331 9.23815 12.2888 9.27823 12.1494C9.30087 12.0433 9.33425 11.9397 9.37791 11.8404C9.41689 11.7584 9.46016 11.6785 9.50753 11.6011C9.56614 11.5062 9.63657 11.4191 9.71698 11.3419C9.96368 11.0992 10.2752 10.933 10.6142 10.8633C10.7334 10.8486 10.8539 10.8486 10.9731 10.8633H13.027C13.1462 10.8486 13.2667 10.8486 13.3859 10.8633C13.7219 10.9332 14.0303 11.0995 14.2732 11.3419C14.3536 11.4191 14.4239 11.5062 14.4826 11.6011C14.5422 11.6921 14.5923 11.789 14.6321 11.8902C14.7243 12.1079 14.7717 12.3418 14.7717 12.5782L14.7917 13.5752Z" fill="black"/>
</svg>
