<svg width="24" height="24" viewBox="0 0 24 24" fill="none" xmlns="http://www.w3.org/2000/svg">
<path d="M5.93501 19.6868C5.75393 19.6855 5.57959 19.6179 5.44501 19.4968C5.08664 19.1895 4.75233 18.8551 4.44501 18.4968C2.87039 16.6975 2.00244 14.3878 2.00244 11.9968C2.00244 9.60578 2.87039 7.29607 4.44501 5.49678C4.75233 5.13841 5.08664 4.8041 5.44501 4.49678C5.51914 4.43163 5.6054 4.38174 5.69884 4.34999C5.79228 4.31824 5.89106 4.30525 5.98953 4.31175C6.08801 4.31825 6.18423 4.34413 6.27269 4.38789C6.36114 4.43165 6.44009 4.49245 6.505 4.56679C6.63409 4.71761 6.69904 4.91294 6.68596 5.11104C6.67288 5.30913 6.58281 5.49424 6.43501 5.62678C6.12883 5.88966 5.84145 6.1737 5.57501 6.47679C4.25413 8.00475 3.52725 9.95704 3.52725 11.9768C3.52725 13.9965 4.25413 15.9488 5.57501 17.4768C5.84415 17.7742 6.13136 18.0547 6.43501 18.3168C6.55239 18.4171 6.63593 18.5512 6.67424 18.7008C6.71255 18.8504 6.70376 19.0082 6.64906 19.1526C6.59437 19.297 6.49642 19.4209 6.36862 19.5076C6.24082 19.5943 6.0894 19.6394 5.93501 19.6368V19.6868Z" fill="black"/>
<path d="M8.405 17.1268C8.23484 17.1276 8.06935 17.0712 7.93501 16.9668C7.58632 16.698 7.27373 16.3855 7.005 16.0368C6.06807 14.897 5.55586 13.4672 5.55586 11.9918C5.55586 10.5163 6.06807 9.08659 7.005 7.94677C7.27756 7.60104 7.5935 7.29182 7.94501 7.02676C8.02206 6.96531 8.11061 6.91986 8.20546 6.89309C8.30031 6.86633 8.39954 6.8588 8.49734 6.87091C8.59515 6.88302 8.68957 6.91453 8.77502 6.96362C8.86048 7.01271 8.93528 7.07838 8.99501 7.15677C9.10151 7.30979 9.14719 7.497 9.12315 7.68188C9.09912 7.86676 9.00709 8.03606 8.86501 8.15677C8.60831 8.35464 8.3766 8.58297 8.175 8.83676C7.45405 9.7109 7.05975 10.8087 7.05975 11.9418C7.05975 13.0749 7.45405 14.1726 8.175 15.0467C8.38018 15.3037 8.61516 15.5353 8.875 15.7368C9.03171 15.8608 9.13323 16.0417 9.15756 16.2401C9.18189 16.4385 9.12709 16.6385 9.005 16.7967C8.93723 16.8943 8.8478 16.9749 8.74371 17.0321C8.63962 17.0894 8.52369 17.1218 8.405 17.1268Z" fill="black"/>
<path d="M14.955 11.9968C14.945 12.5408 14.7821 13.0709 14.485 13.5268C14.23 13.9168 13.8876 14.2421 13.485 14.4768C13.0231 14.7651 12.4895 14.9176 11.945 14.9168C11.4022 14.9154 10.87 14.7668 10.405 14.4868C9.99907 14.2349 9.65683 13.8927 9.405 13.4868C9.12106 13.0251 8.97073 12.4937 8.97073 11.9517C8.97073 11.4098 9.12106 10.8784 9.405 10.4168C9.81856 9.75456 10.474 9.27964 11.2321 9.09292C11.9902 8.9062 12.7912 9.02238 13.465 9.41678C13.8709 9.66861 14.2132 10.0108 14.465 10.4168C14.7815 10.8832 14.9521 11.4331 14.955 11.9968Z" fill="black"/>
<path d="M15.605 17.1268C15.4922 17.1262 15.3808 17.1008 15.2789 17.0524C15.1769 17.004 15.0868 16.9338 15.015 16.8468C14.9533 16.7689 14.9076 16.6795 14.8808 16.5839C14.8539 16.4882 14.8462 16.3882 14.8583 16.2896C14.8704 16.191 14.902 16.0957 14.9512 16.0094C15.0004 15.9231 15.0663 15.8474 15.145 15.7868C15.3982 15.5883 15.6265 15.3599 15.825 15.1067C16.5514 14.2351 16.9492 13.1364 16.9492 12.0018C16.9492 10.8671 16.5514 9.76839 15.825 8.89675C15.6207 8.64242 15.3893 8.41106 15.135 8.20675C15.0496 8.14934 14.9768 8.07495 14.9214 7.98821C14.8659 7.90148 14.8289 7.80426 14.8127 7.7026C14.7964 7.60094 14.8013 7.497 14.8269 7.3973C14.8526 7.2976 14.8985 7.20426 14.9618 7.12307C15.0251 7.04188 15.1044 6.97461 15.1949 6.92541C15.2853 6.87621 15.3849 6.84616 15.4875 6.83712C15.59 6.82809 15.6933 6.84026 15.791 6.87289C15.8886 6.90552 15.9785 6.95789 16.055 7.02676C16.4069 7.29525 16.7228 7.60779 16.995 7.95675C17.9355 9.09492 18.4501 10.5253 18.4501 12.0018C18.4501 13.4783 17.9355 14.9086 16.995 16.0467C16.726 16.3923 16.4134 16.7015 16.065 16.9668C15.9341 17.0705 15.772 17.1269 15.605 17.1268Z" fill="black"/>
<path d="M18.065 19.6868C17.9115 19.6873 17.7615 19.6407 17.6353 19.5532C17.5091 19.4658 17.4128 19.3417 17.3593 19.1978C17.3059 19.0539 17.2979 18.897 17.3365 18.7484C17.3751 18.5998 17.4583 18.4666 17.575 18.3668C17.878 18.1038 18.162 17.8197 18.425 17.5168C19.7518 15.9916 20.4825 14.0382 20.4825 12.0168C20.4825 9.99528 19.7518 8.04193 18.425 6.51677C18.1593 6.21944 17.8755 5.9389 17.575 5.67677C17.4258 5.54561 17.3338 5.36123 17.3189 5.1631C17.3039 4.96497 17.3671 4.76885 17.495 4.61677C17.5599 4.54244 17.6389 4.48167 17.7273 4.43791C17.8158 4.39415 17.912 4.36827 18.0105 4.36177C18.109 4.35527 18.2077 4.36826 18.3012 4.40001C18.3946 4.43176 18.4809 4.48162 18.555 4.54677C18.9131 4.85438 19.2474 5.18867 19.555 5.54677C21.1296 7.34606 21.9976 9.65577 21.9976 12.0468C21.9976 14.4378 21.1296 16.7475 19.555 18.5468C19.2474 18.9049 18.9131 19.2392 18.555 19.5468C18.4151 19.6533 18.2401 19.7033 18.065 19.6868Z" fill="black"/>
</svg>
