<svg width="24" height="24" viewBox="0 0 24 24" fill="none" xmlns="http://www.w3.org/2000/svg">
<path d="M21.3454 19.8844V12.02C21.343 11.1118 20.9851 10.2406 20.3486 9.59283C19.712 8.94502 18.8472 8.57205 17.9392 8.55373V6.13933C17.9392 5.21908 17.5743 4.33638 16.9245 3.68473C16.2747 3.03307 15.3931 2.66565 14.4729 2.663H9.19324C8.73992 2.66101 8.29059 2.74848 7.87113 2.92039C7.45167 3.0923 7.07026 3.34527 6.74872 3.66482C6.42661 3.98655 6.17209 4.36942 6.00004 4.79093C5.828 5.21243 5.74191 5.66407 5.7469 6.11931V9.76593C5.47362 9.4242 5.10061 9.1762 4.67977 9.05642C4.25892 8.93664 3.81126 8.95105 3.39899 9.09766C2.98672 9.24427 2.6304 9.51577 2.37968 9.87438C2.12895 10.233 1.99623 10.6608 2.00008 11.0984V12.4408C1.99818 12.8658 2.12689 13.2811 2.3688 13.6305C2.6107 13.9799 2.95408 14.2466 3.35252 14.3944V19.8343H3.16223C2.96296 19.8343 2.77178 19.9135 2.63087 20.0544C2.48996 20.1953 2.41086 20.3864 2.41086 20.5857C2.41086 20.7849 2.48996 20.9761 2.63087 21.117C2.77178 21.2579 2.96296 21.337 3.16223 21.337H21.2852C21.471 21.328 21.6468 21.2503 21.7787 21.1191C21.9105 20.988 21.9889 20.8126 21.9989 20.6268C22.0089 20.4411 21.9496 20.2583 21.8326 20.1138C21.7156 19.9692 21.5492 19.8732 21.3654 19.8443L21.3454 19.8844ZM4.69505 12.4408C4.67607 12.5882 4.60409 12.7235 4.49254 12.8216C4.38099 12.9197 4.2374 12.9738 4.08885 12.9738C3.94029 12.9738 3.79683 12.9197 3.68528 12.8216C3.57373 12.7235 3.50174 12.5882 3.48276 12.4408V11.0784C3.47167 10.9922 3.47915 10.9047 3.50453 10.8216C3.52991 10.7386 3.57265 10.6619 3.63 10.5967C3.68736 10.5315 3.75792 10.4792 3.83705 10.4434C3.91618 10.4077 4.002 10.3891 4.08885 10.3891C4.17569 10.3891 4.26164 10.4077 4.34077 10.4434C4.4199 10.4792 4.49046 10.5315 4.54781 10.5967C4.60517 10.6619 4.6479 10.7386 4.67329 10.8216C4.69867 10.9047 4.70615 10.9922 4.69505 11.0784V12.4408ZM5.69688 19.8343H4.80524V14.4445C5.15636 14.318 5.46519 14.0959 5.69688 13.8033V19.8343ZM14.0922 19.8343H9.54385V16.6485C9.54649 16.0887 9.76998 15.5525 10.1658 15.1567C10.5617 14.7608 11.0979 14.5373 11.6577 14.5346H11.9882C12.2657 14.5346 12.5405 14.5895 12.7967 14.6961C13.0529 14.8027 13.2854 14.9589 13.481 15.1558C13.8721 15.5542 14.0916 16.0901 14.0922 16.6485V19.8343ZM13.7615 11.3789H9.84445C9.64518 11.3789 9.454 11.2997 9.31309 11.1588C9.17218 11.0179 9.09308 10.8268 9.09308 10.6275C9.09308 10.4282 9.17218 10.2371 9.31309 10.0962C9.454 9.95531 9.64518 9.87615 9.84445 9.87615H13.7615C13.9608 9.87615 14.152 9.95531 14.2929 10.0962C14.4338 10.2371 14.5129 10.4282 14.5129 10.6275C14.5129 10.8268 14.4338 11.0179 14.2929 11.1588C14.152 11.2997 13.9608 11.3789 13.7615 11.3789ZM13.7615 7.75229H9.84445C9.64518 7.75229 9.454 7.67313 9.31309 7.53222C9.17218 7.39131 9.09308 7.20019 9.09308 7.00092C9.09308 6.80164 9.17218 6.61052 9.31309 6.46961C9.454 6.32871 9.64518 6.24955 9.84445 6.24955H13.7615C13.9608 6.24955 14.152 6.32871 14.2929 6.46961C14.4338 6.61052 14.5129 6.80164 14.5129 7.00092C14.5129 7.20019 14.4338 7.39131 14.2929 7.53222C14.152 7.67313 13.9608 7.75229 13.7615 7.75229ZM19.7725 19.8343H17.869V10.0264C18.3675 10.0362 18.8425 10.2412 19.1914 10.5975C19.5568 10.9657 19.765 11.4613 19.7725 11.98V19.8343Z" fill="black"/>
</svg>
