<svg width="24" height="24" viewBox="0 0 24 24" fill="none" xmlns="http://www.w3.org/2000/svg">
<path d="M18.18 4.85498H17.51V3.71497C17.51 3.51605 17.431 3.32531 17.2903 3.18466C17.1497 3.04401 16.9589 2.96497 16.76 2.96497C16.5611 2.96497 16.3703 3.04401 16.2297 3.18466C16.089 3.32531 16.01 3.51605 16.01 3.71497V4.85498H8.01001V3.71497C8.01001 3.51605 7.931 3.32531 7.79034 3.18466C7.64969 3.04401 7.45892 2.96497 7.26001 2.96497C7.0611 2.96497 6.87033 3.04401 6.72968 3.18466C6.58902 3.32531 6.51001 3.51605 6.51001 3.71497V4.85498H5.83997C5.01514 4.85498 4.22411 5.18263 3.64087 5.76587C3.05763 6.34911 2.72998 7.14014 2.72998 7.96497V17.915C2.72998 18.7425 3.05869 19.536 3.6438 20.1212C4.22891 20.7063 5.0225 21.035 5.84998 21.035H18.15C18.9774 21.035 19.771 20.7063 20.3561 20.1212C20.9413 19.536 21.27 18.7425 21.27 17.915V7.97498C21.2701 7.15267 20.9455 6.36362 20.3668 5.77936C19.7882 5.1951 19.0023 4.86289 18.18 4.85498ZM19.05 11.095H5.04999C4.85188 11.0924 4.66262 11.0125 4.52252 10.8724C4.38243 10.7323 4.30258 10.5431 4.29999 10.345C4.30258 10.1469 4.38243 9.9576 4.52252 9.8175C4.66262 9.67741 4.85188 9.59756 5.04999 9.59497H19.05C19.2481 9.59756 19.4374 9.67741 19.5775 9.8175C19.7175 9.9576 19.7974 10.1469 19.8 10.345C19.8013 10.4448 19.7829 10.5439 19.746 10.6366C19.709 10.7293 19.6541 10.8138 19.5845 10.8853C19.5148 10.9568 19.4318 11.0139 19.3401 11.0533C19.2484 11.0927 19.1498 11.1137 19.05 11.115V11.095Z" fill="black"/>
</svg>
