<svg width="24" height="24" viewBox="0 0 24 24" fill="none" xmlns="http://www.w3.org/2000/svg">
<path d="M18.67 4.265H17.88V3.005C17.88 2.80609 17.801 2.61532 17.6603 2.47467C17.5197 2.33402 17.3289 2.255 17.13 2.255C16.9311 2.255 16.7403 2.33402 16.5997 2.47467C16.459 2.61532 16.38 2.80609 16.38 3.005V4.315H7.60001V3.005C7.60001 2.80609 7.52099 2.61532 7.38034 2.47467C7.23969 2.33402 7.04892 2.255 6.85001 2.255C6.65109 2.255 6.46032 2.33402 6.31967 2.47467C6.17902 2.61532 6.10001 2.80609 6.10001 3.005V4.315H5.32001C4.43949 4.315 3.59503 4.66479 2.97241 5.28741C2.34979 5.91004 2 6.75449 2 7.63501V18.425C2 19.3055 2.34979 20.15 2.97241 20.7726C3.59503 21.3952 4.43949 21.745 5.32001 21.745H18.68C19.5605 21.745 20.405 21.3952 21.0276 20.7726C21.6502 20.15 22 19.3055 22 18.425V7.58501C22 7.14818 21.9138 6.71563 21.7463 6.31218C21.5789 5.90873 21.3334 5.54229 21.0241 5.23387C20.7147 4.92545 20.3475 4.6811 19.9436 4.51485C19.5396 4.34859 19.1068 4.26368 18.67 4.265ZM8.06 18.085H7.06C6.79478 18.085 6.54044 17.9797 6.35291 17.7921C6.16537 17.6046 6.06 17.3502 6.06 17.085C6.06 16.8198 6.16537 16.5654 6.35291 16.3779C6.54044 16.1904 6.79478 16.085 7.06 16.085H8.06C8.32521 16.085 8.57958 16.1904 8.76712 16.3779C8.95466 16.5654 9.06 16.8198 9.06 17.085C9.06 17.3502 8.95466 17.6046 8.76712 17.7921C8.57958 17.9797 8.32521 18.085 8.06 18.085ZM8.06 14.745H7.06C6.79478 14.745 6.54044 14.6397 6.35291 14.4521C6.16537 14.2646 6.06 14.0102 6.06 13.745C6.06 13.4798 6.16537 13.2254 6.35291 13.0379C6.54044 12.8504 6.79478 12.745 7.06 12.745H8.06C8.32521 12.745 8.57958 12.8504 8.76712 13.0379C8.95466 13.2254 9.06 13.4798 9.06 13.745C9.06 14.0102 8.95466 14.2646 8.76712 14.4521C8.57958 14.6397 8.32521 14.745 8.06 14.745ZM12.51 18.085H11.51C11.2448 18.085 10.9904 17.9797 10.8029 17.7921C10.6154 17.6046 10.51 17.3502 10.51 17.085C10.51 16.8198 10.6154 16.5654 10.8029 16.3779C10.9904 16.1904 11.2448 16.085 11.51 16.085H12.51C12.7752 16.085 13.0296 16.1904 13.2171 16.3779C13.4046 16.5654 13.51 16.8198 13.51 17.085C13.51 17.3502 13.4046 17.6046 13.2171 17.7921C13.0296 17.9797 12.7752 18.085 12.51 18.085ZM12.51 14.745H11.51C11.2448 14.745 10.9904 14.6397 10.8029 14.4521C10.6154 14.2646 10.51 14.0102 10.51 13.745C10.51 13.4798 10.6154 13.2254 10.8029 13.0379C10.9904 12.8504 11.2448 12.745 11.51 12.745H12.51C12.7752 12.745 13.0296 12.8504 13.2171 13.0379C13.4046 13.2254 13.51 13.4798 13.51 13.745C13.51 14.0102 13.4046 14.2646 13.2171 14.4521C13.0296 14.6397 12.7752 14.745 12.51 14.745ZM16.84 18.085H15.84C15.5748 18.085 15.3204 17.9797 15.1329 17.7921C14.9454 17.6046 14.84 17.3502 14.84 17.085C14.84 16.8198 14.9454 16.5654 15.1329 16.3779C15.3204 16.1904 15.5748 16.085 15.84 16.085H16.84C17.1052 16.085 17.3596 16.1904 17.5471 16.3779C17.7347 16.5654 17.84 16.8198 17.84 17.085C17.84 17.3502 17.7347 17.6046 17.5471 17.7921C17.3596 17.9797 17.1052 18.085 16.84 18.085ZM16.84 14.745H15.84C15.5748 14.745 15.3204 14.6397 15.1329 14.4521C14.9454 14.2646 14.84 14.0102 14.84 13.745C14.84 13.4798 14.9454 13.2254 15.1329 13.0379C15.3204 12.8504 15.5748 12.745 15.84 12.745H16.84C17.1052 12.745 17.3596 12.8504 17.5471 13.0379C17.7347 13.2254 17.84 13.4798 17.84 13.745C17.84 14.0102 17.7347 14.2646 17.5471 14.4521C17.3596 14.6397 17.1052 14.745 16.84 14.745ZM20.49 9.405H3.49002V7.58501C3.49002 7.10231 3.68176 6.63938 4.02307 6.29807C4.36439 5.95675 4.8273 5.765 5.31 5.765H6.10001V7.065C6.10001 7.26391 6.17902 7.45468 6.31967 7.59534C6.46032 7.73599 6.65109 7.815 6.85001 7.815C7.04892 7.815 7.23969 7.73599 7.38034 7.59534C7.52099 7.45468 7.60001 7.26391 7.60001 7.065V5.765H16.38V7.065C16.38 7.26391 16.459 7.45468 16.5997 7.59534C16.7403 7.73599 16.9311 7.815 17.13 7.815C17.3289 7.815 17.5197 7.73599 17.6603 7.59534C17.801 7.45468 17.88 7.26391 17.88 7.065V5.765H18.67C18.9094 5.76367 19.1466 5.80985 19.368 5.90085C19.5895 5.99184 19.7906 6.12585 19.9599 6.29512C20.1292 6.46439 20.2632 6.66554 20.3542 6.88695C20.4452 7.10836 20.4913 7.34563 20.49 7.58501V9.405Z" fill="black"/>
</svg>
