<svg width="24" height="24" viewBox="0 0 24 24" fill="none" xmlns="http://www.w3.org/2000/svg">
<path d="M18.42 3.98H17.68V2.75C17.68 2.55109 17.601 2.36032 17.4603 2.21967C17.3197 2.07901 17.1289 2 16.93 2C16.7311 2 16.5403 2.07901 16.3997 2.21967C16.259 2.36032 16.18 2.55109 16.18 2.75V3.98H7.82001V2.75C7.82001 2.55109 7.74099 2.36032 7.60034 2.21967C7.45969 2.07901 7.26892 2 7.07001 2C6.8711 2 6.68033 2.07901 6.53967 2.21967C6.39902 2.36032 6.32001 2.55109 6.32001 2.75V3.98H5.59C4.73773 3.97999 3.92023 4.31786 3.31665 4.91957C2.71307 5.52128 2.37264 6.33774 2.37 7.19V18.79C2.37264 19.6423 2.71307 20.4587 3.31665 21.0604C3.92023 21.6621 4.73773 22 5.59 22H18.42C19.2714 22 20.0878 21.6618 20.6898 21.0598C21.2918 20.4578 21.63 19.6413 21.63 18.79V7.19C21.63 6.33866 21.2918 5.52217 20.6898 4.92018C20.0878 4.31819 19.2714 3.98 18.42 3.98ZM9.28 9.31C9.28 8.58861 9.56659 7.89677 10.0767 7.38667C10.5868 6.87657 11.2786 6.59 12 6.59C12.7214 6.59 13.4132 6.87657 13.9233 7.38667C14.4334 7.89677 14.72 8.58861 14.72 9.31C14.7248 9.98513 14.4707 10.6364 14.01 11.13C14.4707 11.6236 14.7248 12.2749 14.72 12.95C14.72 13.6714 14.4334 14.3632 13.9233 14.8733C13.4132 15.3834 12.7214 15.67 12 15.67C11.2786 15.67 10.5868 15.3834 10.0767 14.8733C9.56659 14.3632 9.28 13.6714 9.28 12.95C9.27524 12.2749 9.52934 11.6236 9.99002 11.13C9.52934 10.6364 9.27524 9.98513 9.28 9.31ZM20.13 18.79C20.1274 19.2427 19.9464 19.6761 19.6263 19.9962C19.3061 20.3164 18.8727 20.4974 18.42 20.5H5.59C5.13555 20.5 4.6996 20.3202 4.37732 19.9998C4.05504 19.6794 3.87264 19.2444 3.87 18.79V18.3H20.13V18.79Z" fill="black"/>
<path d="M13.2201 9.31004C13.2221 9.55175 13.1522 9.7886 13.0194 9.99054C12.8865 10.1925 12.6967 10.3504 12.474 10.4443C12.2512 10.5381 12.0056 10.5637 11.7683 10.5178C11.531 10.4719 11.3127 10.3565 11.141 10.1862C10.9694 10.016 10.8522 9.79868 10.8043 9.56175C10.7564 9.32483 10.78 9.07902 10.8721 8.85551C10.9641 8.63201 11.1205 8.44087 11.3213 8.30637C11.5221 8.17186 11.7584 8.10004 12.0001 8.10004C12.3219 8.10003 12.6308 8.22719 12.8593 8.45383C13.0878 8.68046 13.2175 8.98822 13.2201 9.31004Z" fill="black"/>
<path d="M13.34 12.95C13.34 13.2151 13.2614 13.4741 13.1142 13.6945C12.9669 13.9149 12.7577 14.0866 12.5128 14.188C12.268 14.2895 11.9985 14.316 11.7386 14.2643C11.4787 14.2126 11.2399 14.085 11.0525 13.8976C10.8651 13.7102 10.7375 13.4714 10.6858 13.2115C10.6341 12.9515 10.6606 12.6821 10.762 12.4372C10.8635 12.1924 11.0352 11.9831 11.2556 11.8359C11.4759 11.6886 11.735 11.61 12 11.61C12.3554 11.61 12.6963 11.7512 12.9476 12.0025C13.1989 12.2538 13.34 12.5947 13.34 12.95Z" fill="black"/>
</svg>
