<svg width="24" height="24" viewBox="0 0 24 24" fill="none" xmlns="http://www.w3.org/2000/svg">
<path d="M17.975 4.44498H17.335V3.35498C17.335 3.15607 17.2559 2.96533 17.1153 2.82468C16.9746 2.68402 16.7839 2.60498 16.585 2.60498C16.386 2.60498 16.1953 2.68402 16.0546 2.82468C15.914 2.96533 15.835 3.15607 15.835 3.35498V4.44498H8.11499V3.35498C8.11499 3.15607 8.03592 2.96533 7.89526 2.82468C7.75461 2.68402 7.5639 2.60498 7.36499 2.60498C7.16608 2.60498 6.97531 2.68402 6.83466 2.82468C6.694 2.96533 6.61499 3.15607 6.61499 3.35498V4.44498H5.97498C5.17558 4.46065 4.41407 4.7886 3.85339 5.35861C3.29272 5.92863 2.97743 6.69545 2.97498 7.495V18.345C2.97743 19.1445 3.29272 19.9114 3.85339 20.4814C4.41407 21.0514 5.17558 21.3793 5.97498 21.395H17.975C18.7831 21.3924 19.5573 21.0702 20.1287 20.4987C20.7001 19.9273 21.0223 19.1531 21.025 18.345V7.505C21.025 6.69517 20.704 5.91836 20.1323 5.34479C19.5606 4.77121 18.7848 4.44762 17.975 4.44498ZM14.335 12.835C14.3369 13.219 14.2447 13.5977 14.0665 13.9378C13.8882 14.2779 13.6293 14.5692 13.3124 14.7861C12.9955 15.003 12.6302 15.139 12.2486 15.1821C11.867 15.2251 11.4806 15.1741 11.1234 15.0333C10.7661 14.8925 10.4488 14.6662 10.1992 14.3744C9.94954 14.0826 9.77525 13.734 9.69153 13.3592C9.60781 12.9844 9.61722 12.5948 9.71893 12.2245C9.82065 11.8542 10.0115 11.5144 10.275 11.235C10.0115 10.9555 9.82065 10.6158 9.71893 10.2455C9.61722 9.87517 9.60781 9.48557 9.69153 9.11078C9.77525 8.73599 9.94954 8.38742 10.1992 8.09558C10.4488 7.80374 10.7661 7.57751 11.1234 7.43671C11.4806 7.2959 11.867 7.24482 12.2486 7.2879C12.6302 7.33098 12.9955 7.46692 13.3124 7.68384C13.6293 7.90075 13.8882 8.19202 14.0665 8.53217C14.2447 8.87231 14.3369 9.25095 14.335 9.63498C14.337 10.2311 14.1076 10.8047 13.6949 11.235C14.1085 11.6646 14.3381 12.2387 14.335 12.835ZM18.785 17.985H5.18494C4.98683 17.9824 4.79757 17.9025 4.65747 17.7625C4.51738 17.6224 4.43753 17.4331 4.43494 17.235C4.43753 17.0369 4.51738 16.8476 4.65747 16.7075C4.79757 16.5674 4.98683 16.4876 5.18494 16.485H18.785C18.9831 16.4876 19.1723 16.5674 19.3124 16.7075C19.4525 16.8476 19.5324 17.0369 19.535 17.235C19.5198 17.426 19.4332 17.6042 19.2922 17.734C19.1513 17.8638 18.9666 17.9356 18.775 17.935L18.785 17.985Z" fill="black"/>
<path d="M12.85 9.58511C12.85 9.75323 12.8002 9.91756 12.7068 10.0573C12.6134 10.1971 12.4806 10.3061 12.3253 10.3704C12.17 10.4348 11.9991 10.4516 11.8342 10.4188C11.6693 10.386 11.5178 10.305 11.399 10.1862C11.2801 10.0673 11.1992 9.91583 11.1664 9.75095C11.1336 9.58606 11.1504 9.41514 11.2147 9.25983C11.279 9.10451 11.388 8.97176 11.5278 8.87836C11.6676 8.78496 11.8319 8.73511 12 8.73511C12.2255 8.73511 12.4417 8.82466 12.6011 8.98407C12.7605 9.14348 12.85 9.35968 12.85 9.58511Z" fill="black"/>
<path d="M12.85 12.8351C12.85 13.0032 12.8002 13.1676 12.7068 13.3073C12.6134 13.4471 12.4806 13.5561 12.3253 13.6204C12.17 13.6848 11.9991 13.7016 11.8342 13.6688C11.6693 13.636 11.5178 13.555 11.399 13.4362C11.2801 13.3173 11.1992 13.1658 11.1664 13.0009C11.1336 12.8361 11.1504 12.6651 11.2147 12.5098C11.279 12.3545 11.388 12.2218 11.5278 12.1284C11.6676 12.035 11.8319 11.9851 12 11.9851C12.1117 11.9851 12.2222 12.0071 12.3253 12.0498C12.4284 12.0925 12.5221 12.1551 12.6011 12.2341C12.68 12.313 12.7426 12.4067 12.7853 12.5098C12.828 12.613 12.85 12.7235 12.85 12.8351Z" fill="black"/>
</svg>
