<svg width="24" height="24" viewBox="0 0 24 24" fill="none" xmlns="http://www.w3.org/2000/svg">
<path d="M17.75 3.935V2.625C17.75 2.42609 17.671 2.23532 17.5303 2.09467C17.3897 1.95401 17.1989 1.875 17 1.875C16.8011 1.875 16.6103 1.95401 16.4697 2.09467C16.329 2.23532 16.25 2.42609 16.25 2.625V3.875H7.75V2.625C7.75 2.42609 7.67099 2.23532 7.53033 2.09467C7.38968 1.95401 7.19891 1.875 7 1.875C6.80109 1.875 6.61032 1.95401 6.46967 2.09467C6.32901 2.23532 6.25 2.42609 6.25 2.625V3.935C5.13533 4.11528 4.12104 4.68595 3.38831 5.54507C2.65557 6.4042 2.25212 7.49584 2.25 8.625V17.375C2.25 18.6348 2.75045 19.843 3.64125 20.7337C4.53205 21.6245 5.74022 22.125 7 22.125H17C18.2598 22.125 19.468 21.6245 20.3588 20.7337C21.2496 19.843 21.75 18.6348 21.75 17.375V8.625C21.7479 7.49584 21.3444 6.4042 20.6117 5.54507C19.879 4.68595 18.8647 4.11528 17.75 3.935ZM8.40001 17.935H7.40001C7.2011 17.935 7.01033 17.856 6.86967 17.7153C6.72902 17.5747 6.65001 17.3839 6.65001 17.185C6.65001 16.9861 6.72902 16.7953 6.86967 16.6547C7.01033 16.514 7.2011 16.435 7.40001 16.435H8.40001C8.59892 16.435 8.78968 16.514 8.93033 16.6547C9.07098 16.7953 9.15001 16.9861 9.15001 17.185C9.15001 17.3839 9.07098 17.5747 8.93033 17.7153C8.78968 17.856 8.59892 17.935 8.40001 17.935ZM8.40001 14.855H7.40001C7.2011 14.855 7.01033 14.776 6.86967 14.6353C6.72902 14.4947 6.65001 14.3039 6.65001 14.105C6.65001 13.9061 6.72902 13.7153 6.86967 13.5747C7.01033 13.434 7.2011 13.355 7.40001 13.355H8.40001C8.59892 13.355 8.78968 13.434 8.93033 13.5747C9.07098 13.7153 9.15001 13.9061 9.15001 14.105C9.15001 14.3039 9.07098 14.4947 8.93033 14.6353C8.78968 14.776 8.59892 14.855 8.40001 14.855ZM12.51 17.935H11.51C11.3111 17.935 11.1203 17.856 10.9797 17.7153C10.839 17.5747 10.76 17.3839 10.76 17.185C10.76 16.9861 10.839 16.7953 10.9797 16.6547C11.1203 16.514 11.3111 16.435 11.51 16.435H12.51C12.7089 16.435 12.8997 16.514 13.0403 16.6547C13.181 16.7953 13.26 16.9861 13.26 17.185C13.26 17.3839 13.181 17.5747 13.0403 17.7153C12.8997 17.856 12.7089 17.935 12.51 17.935ZM12.51 14.855H11.51C11.3111 14.855 11.1203 14.776 10.9797 14.6353C10.839 14.4947 10.76 14.3039 10.76 14.105C10.76 13.9061 10.839 13.7153 10.9797 13.5747C11.1203 13.434 11.3111 13.355 11.51 13.355H12.51C12.7089 13.355 12.8997 13.434 13.0403 13.5747C13.181 13.7153 13.26 13.9061 13.26 14.105C13.26 14.3039 13.181 14.4947 13.0403 14.6353C12.8997 14.776 12.7089 14.855 12.51 14.855ZM16.62 17.935H15.62C15.4211 17.935 15.2303 17.856 15.0897 17.7153C14.949 17.5747 14.87 17.3839 14.87 17.185C14.87 16.9861 14.949 16.7953 15.0897 16.6547C15.2303 16.514 15.4211 16.435 15.62 16.435H16.62C16.8189 16.435 17.0097 16.514 17.1503 16.6547C17.291 16.7953 17.37 16.9861 17.37 17.185C17.37 17.3839 17.291 17.5747 17.1503 17.7153C17.0097 17.856 16.8189 17.935 16.62 17.935ZM16.62 14.855H15.62C15.4211 14.855 15.2303 14.776 15.0897 14.6353C14.949 14.4947 14.87 14.3039 14.87 14.105C14.87 13.9061 14.949 13.7153 15.0897 13.5747C15.2303 13.434 15.4211 13.355 15.62 13.355H16.62C16.8189 13.355 17.0097 13.434 17.1503 13.5747C17.291 13.7153 17.37 13.9061 17.37 14.105C17.37 14.3039 17.291 14.4947 17.1503 14.6353C17.0097 14.776 16.8189 14.855 16.62 14.855ZM20.25 9.855H3.75V8.605C3.75098 7.8751 3.9984 7.16691 4.45215 6.59518C4.9059 6.02346 5.53939 5.62171 6.25 5.455V6.605C6.25 6.80391 6.32901 6.99468 6.46967 7.13533C6.61032 7.27598 6.80109 7.355 7 7.355C7.19891 7.355 7.38968 7.27598 7.53033 7.13533C7.67099 6.99468 7.75 6.80391 7.75 6.605V5.355H16.25V6.605C16.25 6.80391 16.329 6.99468 16.4697 7.13533C16.6103 7.27598 16.8011 7.355 17 7.355C17.1989 7.355 17.3897 7.27598 17.5303 7.13533C17.671 6.99468 17.75 6.80391 17.75 6.605V5.455C18.4606 5.62171 19.0941 6.02346 19.5479 6.59518C20.0016 7.16691 20.249 7.8751 20.25 8.605V9.855Z" fill="black"/>
</svg>
