<svg width="24" height="24" viewBox="0 0 24 24" fill="none" xmlns="http://www.w3.org/2000/svg">
<path d="M18.68 4.265H17.89V3.005C17.89 2.80609 17.811 2.61532 17.6703 2.47467C17.5297 2.33402 17.3389 2.255 17.14 2.255C16.9411 2.255 16.7503 2.33402 16.6097 2.47467C16.469 2.61532 16.39 2.80609 16.39 3.005V4.315H7.60999V3.005C7.60999 2.80609 7.53097 2.61532 7.39032 2.47467C7.24967 2.33402 7.0589 2.255 6.85999 2.255C6.66107 2.255 6.47033 2.33402 6.32968 2.47467C6.18903 2.61532 6.10999 2.80609 6.10999 3.005V4.315H5.32001C4.43949 4.315 3.59503 4.66479 2.97241 5.28741C2.34979 5.91004 2 6.75449 2 7.63501V18.425C2 19.3055 2.34979 20.15 2.97241 20.7726C3.59503 21.3952 4.43949 21.745 5.32001 21.745H18.68C19.5605 21.745 20.405 21.3952 21.0276 20.7726C21.6502 20.15 22 19.3055 22 18.425V7.58501C22 6.70449 21.6502 5.86003 21.0276 5.23741C20.405 4.61479 19.5605 4.265 18.68 4.265ZM20.5 9.405H3.5V7.58501C3.5 7.10231 3.69173 6.63938 4.03305 6.29807C4.37437 5.95675 4.83731 5.765 5.32001 5.765H6.10999V7.065C6.10999 7.26391 6.18903 7.45468 6.32968 7.59534C6.47033 7.73599 6.66107 7.815 6.85999 7.815C7.0589 7.815 7.24967 7.73599 7.39032 7.59534C7.53097 7.45468 7.60999 7.26391 7.60999 7.065V5.765H16.39V7.065C16.39 7.26391 16.469 7.45468 16.6097 7.59534C16.7503 7.73599 16.9411 7.815 17.14 7.815C17.3389 7.815 17.5297 7.73599 17.6703 7.59534C17.811 7.45468 17.89 7.26391 17.89 7.065V5.765H18.68C19.1627 5.765 19.6256 5.95675 19.9669 6.29807C20.3083 6.63938 20.5 7.10231 20.5 7.58501V9.405Z" fill="black"/>
</svg>
