<svg width="24" height="24" viewBox="0 0 24 24" fill="none" xmlns="http://www.w3.org/2000/svg">
<path d="M15.5 4.06V2.75C15.5 2.55109 15.421 2.36032 15.2803 2.21967C15.1397 2.07901 14.9489 2 14.75 2C14.5511 2 14.3603 2.07901 14.2197 2.21967C14.079 2.36032 14 2.55109 14 2.75V4H5.50002V2.75C5.50002 2.55109 5.42097 2.36032 5.28032 2.21967C5.13967 2.07901 4.94893 2 4.75002 2C4.5511 2 4.36033 2.07901 4.21968 2.21967C4.07903 2.36032 4.00002 2.55109 4.00002 2.75V4.06C2.88534 4.24028 1.87105 4.81095 1.13832 5.67007C0.405589 6.5292 0.00213537 7.62084 1.52588e-05 8.75V17.5C1.52588e-05 18.7598 0.500453 19.968 1.39125 20.8587C2.28205 21.7495 3.49024 22.25 4.75002 22.25H14.75C16.0098 22.25 17.218 21.7495 18.1087 20.8587C18.9995 19.968 19.5 18.7598 19.5 17.5V8.75C19.4979 7.62084 19.0944 6.5292 18.3617 5.67007C17.6289 4.81095 16.6147 4.24028 15.5 4.06ZM12.57 16.06L10.57 18.06C10.4555 18.168 10.3237 18.2559 10.18 18.32C10.0827 18.3559 9.98226 18.3827 9.87999 18.4H9.73H9.58C9.48071 18.384 9.38346 18.3571 9.28999 18.32C9.14366 18.2608 9.01096 18.1723 8.90001 18.06L6.90001 16.06C6.82925 15.9911 6.773 15.9086 6.7346 15.8176C6.69621 15.7266 6.67644 15.6288 6.67644 15.53C6.67644 15.4312 6.69621 15.3334 6.7346 15.2424C6.773 15.1514 6.82925 15.0689 6.90001 15C7.04063 14.8595 7.23126 14.7807 7.43001 14.7807C7.62876 14.7807 7.81938 14.8595 7.96001 15L8.96001 16V12.63C8.96001 12.4311 9.03902 12.2403 9.17967 12.0997C9.32032 11.959 9.51109 11.88 9.71001 11.88C9.90892 11.88 10.0997 11.959 10.2403 12.0997C10.381 12.2403 10.46 12.4311 10.46 12.63V16L11.46 15C11.6006 14.8595 11.7913 14.7807 11.99 14.7807C12.1888 14.7807 12.3794 14.8595 12.52 15C12.6592 15.1297 12.7431 15.308 12.7543 15.498C12.7655 15.6879 12.7031 15.8749 12.58 16.02L12.57 16.06ZM18 9.06H1.50002V8.81C1.501 8.0801 1.74838 7.37191 2.20213 6.80019C2.65588 6.22846 3.28941 5.82671 4.00002 5.66V6.81C4.00002 7.00891 4.07903 7.19968 4.21968 7.34033C4.36033 7.48098 4.5511 7.56 4.75002 7.56C4.94893 7.56 5.13967 7.48098 5.28032 7.34033C5.42097 7.19968 5.50002 7.00891 5.50002 6.81V5.56H14V6.81C14 7.00891 14.079 7.19968 14.2197 7.34033C14.3603 7.48098 14.5511 7.56 14.75 7.56C14.9489 7.56 15.1397 7.48098 15.2803 7.34033C15.421 7.19968 15.5 7.00891 15.5 6.81V5.66C16.2106 5.82671 16.8441 6.22846 17.2979 6.80019C17.7516 7.37191 17.999 8.0801 18 8.81V9.06Z" fill="black"/>
</svg>
