<svg width="24" height="24" viewBox="0 0 24 24" fill="none" xmlns="http://www.w3.org/2000/svg">
<path d="M17.75 3.935V2.625C17.75 2.42609 17.671 2.23532 17.5303 2.09467C17.3897 1.95401 17.1989 1.875 17 1.875C16.8011 1.875 16.6103 1.95401 16.4697 2.09467C16.329 2.23532 16.25 2.42609 16.25 2.625V3.875H7.75V2.625C7.75 2.42609 7.67096 2.23532 7.5303 2.09467C7.38965 1.95401 7.19891 1.875 7 1.875C6.80109 1.875 6.61032 1.95401 6.46967 2.09467C6.32901 2.23532 6.25 2.42609 6.25 2.625V3.935C5.13533 4.11528 4.12104 4.68595 3.38831 5.54507C2.65557 6.4042 2.25212 7.49584 2.25 8.625V17.375C2.25 18.6348 2.75044 19.843 3.64124 20.7337C4.53203 21.6245 5.74022 22.125 7 22.125H17C18.2598 22.125 19.4679 21.6245 20.3587 20.7337C21.2495 19.843 21.75 18.6348 21.75 17.375V8.625C21.7479 7.49584 21.3444 6.4042 20.6117 5.54507C19.8789 4.68595 18.8647 4.11528 17.75 3.935ZM11.93 18.715C11.7311 18.715 11.5403 18.636 11.3997 18.4953C11.259 18.3547 11.18 18.1639 11.18 17.965C11.18 17.7661 11.259 17.5753 11.3997 17.4347C11.5403 17.294 11.7311 17.215 11.93 17.215C12.1289 17.215 12.3197 17.294 12.4603 17.4347C12.601 17.5753 12.68 17.7661 12.68 17.965C12.68 18.1639 12.601 18.3547 12.4603 18.4953C12.3197 18.636 12.1289 18.715 11.93 18.715ZM14.09 14.195C13.9691 14.4638 13.7996 14.7079 13.59 14.915C13.3674 15.1117 13.1095 15.2644 12.83 15.365C12.7965 15.3792 12.7685 15.4037 12.75 15.435C12.7189 15.4752 12.7014 15.5242 12.7 15.575V15.915C12.7 16.1139 12.621 16.3047 12.4803 16.4453C12.3397 16.586 12.1489 16.665 11.95 16.665C11.7511 16.665 11.5603 16.586 11.4196 16.4453C11.279 16.3047 11.2 16.1139 11.2 15.915V15.545C11.2047 15.1857 11.3199 14.8365 11.53 14.545C11.7281 14.2647 12.0073 14.0518 12.33 13.935C12.4175 13.9027 12.4988 13.8553 12.57 13.795C12.6223 13.7324 12.6691 13.6655 12.71 13.595C12.7292 13.5128 12.7292 13.4272 12.71 13.345C12.7089 13.2625 12.6919 13.181 12.66 13.105C12.6029 13.0056 12.5243 12.9202 12.43 12.855C12.3278 12.7781 12.207 12.7298 12.08 12.715C11.8907 12.6762 11.6939 12.7008 11.52 12.785C11.3533 12.8736 11.2199 13.014 11.14 13.185C11.0578 13.3667 10.9068 13.5082 10.7202 13.5786C10.5336 13.6489 10.3267 13.6422 10.145 13.56C9.96332 13.4778 9.82173 13.3268 9.7514 13.1402C9.68108 12.9536 9.68777 12.7467 9.76999 12.565C9.97674 12.098 10.327 11.7092 10.77 11.455C11.1615 11.2616 11.5973 11.1754 12.0329 11.2053C12.4686 11.2351 12.8885 11.38 13.25 11.625C13.5418 11.8383 13.7812 12.1153 13.95 12.435C14.0863 12.7084 14.1581 13.0095 14.16 13.315C14.2055 13.6231 14.1816 13.9374 14.09 14.235V14.195ZM20.25 8.83499H3.75V8.58499C3.75098 7.85509 3.99837 7.1469 4.45212 6.57518C4.90587 6.00346 5.53939 5.6017 6.25 5.435V6.58499C6.25 6.7839 6.32901 6.97467 6.46967 7.11533C6.61032 7.25598 6.80109 7.33499 7 7.33499C7.19891 7.33499 7.38965 7.25598 7.5303 7.11533C7.67096 6.97467 7.75 6.7839 7.75 6.58499V5.33499H16.25V6.58499C16.25 6.7839 16.329 6.97467 16.4697 7.11533C16.6103 7.25598 16.8011 7.33499 17 7.33499C17.1989 7.33499 17.3897 7.25598 17.5303 7.11533C17.671 6.97467 17.75 6.7839 17.75 6.58499V5.435C18.4606 5.6017 19.0941 6.00346 19.5479 6.57518C20.0016 7.1469 20.249 7.85509 20.25 8.58499V8.83499Z" fill="black"/>
</svg>
