<svg width="24" height="24" viewBox="0 0 24 24" fill="none" xmlns="http://www.w3.org/2000/svg">
<path d="M7.58005 13.06V20.14C7.58005 20.3475 7.53921 20.553 7.45981 20.7447C7.38041 20.9364 7.264 21.1105 7.11728 21.2573C6.97056 21.404 6.7964 21.5204 6.60471 21.5998C6.41301 21.6792 6.20758 21.72 6.00009 21.72H4.12009C3.9126 21.72 3.70711 21.6792 3.51541 21.5998C3.32372 21.5204 3.14955 21.404 3.00284 21.2573C2.85612 21.1105 2.73971 20.9364 2.66031 20.7447C2.58091 20.553 2.54007 20.3475 2.54007 20.14V13.06C2.54006 12.6401 2.7062 12.2372 3.00223 11.9393C3.29825 11.6414 3.70013 11.4727 4.12009 11.47H6.00009C6.42005 11.4727 6.82187 11.6414 7.11789 11.9393C7.41391 12.2372 7.58006 12.6401 7.58005 13.06Z" fill="black"/>
<path d="M14.52 8.47V20.17C14.5173 20.59 14.3486 20.9918 14.0508 21.2878C13.7529 21.5839 13.35 21.75 12.93 21.75H11.06C10.6401 21.75 10.2371 21.5839 9.93924 21.2878C9.64134 20.9918 9.47264 20.59 9.47 20.17V8.47C9.47 8.04831 9.63752 7.64389 9.9357 7.3457C10.2339 7.04752 10.6383 6.88 11.06 6.88H12.93C13.3517 6.88 13.7561 7.04752 14.0543 7.3457C14.3525 7.64389 14.52 8.04831 14.52 8.47Z" fill="black"/>
<path d="M21.4599 3.84V20.17C21.4573 20.59 21.2886 20.9918 20.9907 21.2878C20.6928 21.5839 20.2899 21.75 19.87 21.75H18C17.58 21.75 17.1771 21.5839 16.8792 21.2878C16.5813 20.9918 16.4126 20.59 16.4099 20.17V3.84C16.4099 3.63119 16.4511 3.42444 16.531 3.23154C16.6109 3.03863 16.728 2.86334 16.8756 2.7157C17.0233 2.56805 17.1985 2.45094 17.3914 2.37103C17.5844 2.29113 17.7912 2.25 18 2.25H19.87C20.2917 2.25 20.696 2.41752 20.9942 2.7157C21.2924 3.01388 21.4599 3.4183 21.4599 3.84Z" fill="black"/>
</svg>
