<svg width="24" height="24" viewBox="0 0 24 24" fill="none" xmlns="http://www.w3.org/2000/svg">
<path d="M21.4601 13.06V20.14C21.4574 20.56 21.2887 20.9619 20.9908 21.2579C20.6929 21.5539 20.29 21.72 19.8701 21.72H18.0101C17.5901 21.72 17.1872 21.5539 16.8893 21.2579C16.5914 20.9619 16.4227 20.56 16.42 20.14V13.06C16.42 12.6383 16.5876 12.2339 16.8857 11.9357C17.1839 11.6375 17.5884 11.47 18.0101 11.47H19.8801C20.3 11.4727 20.7019 11.6414 20.9979 11.9393C21.2939 12.2372 21.4601 12.6401 21.4601 13.06Z" fill="black"/>
<path d="M14.5198 8.47V20.17C14.5172 20.59 14.3485 20.9918 14.0506 21.2878C13.7527 21.5839 13.3498 21.75 12.9298 21.75H11.0598C10.6398 21.75 10.2369 21.5839 9.93903 21.2878C9.64113 20.9918 9.47249 20.59 9.46985 20.17V8.47C9.46985 8.04831 9.63736 7.64389 9.93555 7.3457C10.2337 7.04752 10.6381 6.88 11.0598 6.88H12.9298C13.1386 6.88 13.3454 6.92112 13.5383 7.00102C13.7312 7.08093 13.9065 7.19806 14.0541 7.3457C14.2018 7.49335 14.3189 7.66862 14.3988 7.86153C14.4787 8.05443 14.5198 8.2612 14.5198 8.47Z" fill="black"/>
<path d="M7.5799 3.84V20.17C7.5799 20.589 7.41343 20.9909 7.11713 21.2872C6.82082 21.5835 6.41892 21.75 5.99988 21.75H4.11987C3.70083 21.75 3.29899 21.5835 3.00269 21.2872C2.70638 20.9909 2.53992 20.589 2.53992 20.17V3.84C2.53991 3.42003 2.70605 3.01712 3.00208 2.71922C3.2981 2.42133 3.69991 2.25264 4.11987 2.25H6.00989C6.42811 2.25526 6.82741 2.4251 7.12128 2.72272C7.41515 3.02033 7.57993 3.42174 7.5799 3.84Z" fill="black"/>
</svg>
