<svg width="24" height="24" viewBox="0 0 24 24" fill="none" xmlns="http://www.w3.org/2000/svg">
<path d="M8.28503 12.9652V19.2652C8.28241 19.694 8.11092 20.1046 7.80768 20.4078C7.50444 20.711 7.09388 20.8826 6.66504 20.8852H4.99506C4.56714 20.8826 4.15761 20.7107 3.85596 20.4072C3.55431 20.1037 3.385 19.6931 3.38501 19.2652V12.9652C3.385 12.5373 3.55431 12.1267 3.85596 11.8232C4.15761 11.5197 4.56714 11.3479 4.99506 11.3452H6.66504C7.09388 11.3478 7.50444 11.5194 7.80768 11.8226C8.11092 12.1258 8.28241 12.5364 8.28503 12.9652Z" fill="black"/>
<path d="M14.445 8.83521V19.2552C14.4424 19.6841 14.2709 20.0946 13.9677 20.3978C13.6644 20.7011 13.2539 20.8726 12.825 20.8752H11.155C10.7262 20.8726 10.3156 20.7011 10.0124 20.3978C9.70915 20.0946 9.53766 19.6841 9.53503 19.2552V8.83521C9.53768 8.40729 9.70954 7.99779 10.0131 7.69614C10.3166 7.39449 10.7271 7.22521 11.155 7.22522H12.825C13.2529 7.22521 13.6635 7.39449 13.967 7.69614C14.2706 7.99779 14.4424 8.40729 14.445 8.83521Z" fill="black"/>
<path d="M20.6151 4.73514V19.2651C20.6124 19.694 20.4409 20.1045 20.1376 20.4077C19.8344 20.711 19.4239 20.8825 18.9951 20.8851H17.285C16.8571 20.8825 16.4476 20.7107 16.146 20.4071C15.8443 20.1036 15.675 19.6931 15.675 19.2651V4.73514C15.675 4.30722 15.8443 3.89666 16.146 3.59314C16.4476 3.28962 16.8571 3.11779 17.285 3.11514H18.955C19.1707 3.11117 19.3851 3.15008 19.5857 3.22959C19.7863 3.30909 19.9691 3.42761 20.1235 3.57831C20.278 3.72901 20.4009 3.90887 20.4853 4.10745C20.5697 4.30604 20.6138 4.51938 20.6151 4.73514Z" fill="black"/>
</svg>
