<svg width="24" height="24" viewBox="0 0 24 24" fill="none" xmlns="http://www.w3.org/2000/svg">
<path d="M12.7253 12.8106C12.6653 12.6806 12.6053 12.5506 12.5353 12.4206C12.6766 12.6897 12.7937 12.9708 12.8853 13.2606C12.841 13.1075 12.7875 12.9573 12.7253 12.8106ZM11.7253 11.3006C11.2937 10.8646 10.7797 10.5189 10.2131 10.2837C9.64655 10.0484 9.03876 9.92839 8.42529 9.93057C9.03859 9.9295 9.64603 10.05 10.2125 10.2852C10.7789 10.5203 11.2931 10.8654 11.7253 11.3006L12.0353 11.6306C11.9253 11.5306 11.8253 11.4106 11.7153 11.3006H11.7253Z" fill="black"/>
<path d="M21.5053 16.7406L21.1653 13.9006C21.5441 12.9738 21.7377 11.9817 21.7353 10.9805C21.7232 8.90304 20.8891 6.91486 19.4153 5.45057C17.9515 3.99446 15.9701 3.17813 13.9054 3.18055C12.1224 3.14996 10.3862 3.7523 9.00533 4.88057C7.73372 5.88436 6.8101 7.26276 6.36531 8.82057C5.22634 9.23452 4.23257 9.97117 3.50533 10.9406C2.69989 12.0097 2.26461 13.312 2.26534 14.6506C2.25343 15.4244 2.3962 16.1927 2.68532 16.9105L2.40535 18.9706C2.35028 19.1939 2.35028 19.4273 2.40535 19.6506C2.46495 19.8769 2.57767 20.0857 2.73421 20.2596C2.89075 20.4335 3.08654 20.5676 3.30531 20.6506C3.5389 20.7346 3.78912 20.762 4.03536 20.7305L6.03536 20.3605C6.76612 20.6577 7.54652 20.8138 8.33534 20.8206C9.24761 20.8167 10.1482 20.6154 10.9753 20.2305C11.6746 19.8976 12.3029 19.4323 12.8253 18.8605C13.1232 18.907 13.4239 18.9338 13.7253 18.9406C14.7554 18.9438 15.7757 18.7398 16.7253 18.3406L19.5153 18.7506H19.6153C19.8622 18.7431 20.106 18.6923 20.3353 18.6005C20.5538 18.499 20.7507 18.3564 20.9153 18.1806C21.085 18.0015 21.2116 17.786 21.2854 17.5505C21.3662 17.3162 21.3935 17.0668 21.3653 16.8206L21.5053 16.7406ZM12.0954 17.5106C11.6507 18.0472 11.0944 18.4806 10.4653 18.7806C9.83938 19.0744 9.15682 19.2279 8.46535 19.2305C7.80303 19.2262 7.14893 19.0832 6.5453 18.8106C6.4501 18.7714 6.34825 18.7511 6.24532 18.7506H6.1053L3.94533 19.1406L4.25533 16.8505C4.27636 16.7142 4.25544 16.5747 4.19533 16.4506C3.94353 15.8667 3.81746 15.2363 3.82533 14.6005C3.82559 13.5854 4.15663 12.598 4.76833 11.7878C5.38002 10.9776 6.23906 10.3888 7.21535 10.1105C7.39295 10.0578 7.57317 10.0144 7.75533 9.98054C7.84841 9.97084 7.94228 9.97084 8.03536 9.98054H8.30531H8.46535C9.07881 9.97837 9.68655 10.0984 10.2531 10.3336C10.8197 10.5688 11.3338 10.9145 11.7653 11.3505C11.8753 11.4605 11.9753 11.5806 12.0753 11.7006L12.3553 12.0806C12.4353 12.2106 12.5153 12.3406 12.5853 12.4706C12.6553 12.6006 12.7153 12.7305 12.7753 12.8605C12.8376 13.0072 12.891 13.1575 12.9353 13.3106C13.0682 13.7482 13.1356 14.2031 13.1353 14.6605C13.1017 15.7023 12.7257 16.7041 12.0653 17.5106H12.0954Z" fill="black"/>
</svg>
