<svg width="24" height="24" viewBox="0 0 24 24" fill="none" xmlns="http://www.w3.org/2000/svg">
<path d="M10.095 16.7644C9.80656 16.7631 9.52122 16.7054 9.255 16.5944C8.98643 16.4876 8.74412 16.3238 8.54492 16.1144L4.78491 12.3544C4.71122 12.2858 4.65219 12.203 4.6112 12.111C4.57021 12.019 4.54816 11.9196 4.54638 11.8189C4.5446 11.7182 4.5631 11.6182 4.60082 11.5248C4.63855 11.4314 4.69465 11.3466 4.76586 11.2754C4.83708 11.2042 4.92199 11.148 5.01538 11.1103C5.10876 11.0726 5.20874 11.054 5.30944 11.0558C5.41015 11.0576 5.50956 11.0796 5.60156 11.1206C5.69356 11.1616 5.7763 11.2207 5.84497 11.2944L9.61498 15.0544C9.67465 15.122 9.75025 15.1735 9.83496 15.2044C9.91726 15.2391 10.0057 15.2569 10.095 15.2569C10.1843 15.2569 10.2727 15.2391 10.355 15.2044C10.4383 15.1709 10.5133 15.1198 10.5749 15.0544L18.1549 7.47442C18.2236 7.40073 18.3064 7.34162 18.3984 7.30062C18.4904 7.25963 18.5897 7.23761 18.6904 7.23583C18.7911 7.23406 18.8912 7.25259 18.9846 7.29031C19.078 7.32803 19.1628 7.38416 19.234 7.45538C19.3052 7.5266 19.3613 7.61144 19.399 7.70483C19.4368 7.79822 19.4554 7.89822 19.4536 7.99893C19.4518 8.09963 19.4298 8.19895 19.3888 8.29095C19.3478 8.38295 19.2886 8.46576 19.215 8.53442L11.635 16.1144C11.4358 16.3238 11.1935 16.4876 10.9249 16.5944C10.6625 16.7064 10.3803 16.7642 10.095 16.7644Z" fill="black"/>
</svg>
