<svg width="24" height="24" viewBox="0 0 24 24" fill="none" xmlns="http://www.w3.org/2000/svg">
<path d="M15.25 2H8.75C6.9606 2.00265 5.24528 2.71465 3.97998 3.97995C2.71468 5.24525 2.00265 6.9606 2 8.75V15.25C2 17.0402 2.71118 18.7571 3.97705 20.023C5.24292 21.2888 6.95979 22 8.75 22H15.25C17.0402 22 18.7571 21.2888 20.0229 20.023C21.2888 18.7571 22 17.0402 22 15.25V8.75C21.9974 6.9606 21.2854 5.24525 20.0201 3.97995C18.7548 2.71465 17.0394 2.00265 15.25 2ZM8.04004 17.48C7.76908 17.48 7.50423 17.3997 7.27893 17.2491C7.05364 17.0986 6.87798 16.8846 6.77429 16.6343C6.6706 16.3839 6.64355 16.1085 6.69641 15.8427C6.74927 15.577 6.87969 15.3329 7.07129 15.1413C7.26289 14.9497 7.50695 14.8192 7.77271 14.7663C8.03846 14.7135 8.314 14.7406 8.56433 14.8443C8.81467 14.948 9.02866 15.1236 9.1792 15.3489C9.32974 15.5742 9.41003 15.839 9.41003 16.11C9.41136 16.2903 9.37685 16.469 9.30847 16.6358C9.24009 16.8027 9.1392 16.9542 9.01172 17.0817C8.88424 17.2092 8.73273 17.31 8.56592 17.3784C8.3991 17.4468 8.22032 17.4813 8.04004 17.48ZM8.04004 13.37C7.76908 13.37 7.50423 13.2897 7.27893 13.1391C7.05364 12.9886 6.87798 12.7746 6.77429 12.5243C6.6706 12.2739 6.64355 11.9985 6.69641 11.7327C6.74927 11.467 6.87969 11.2229 7.07129 11.0313C7.26289 10.8397 7.50695 10.7092 7.77271 10.6563C8.03846 10.6035 8.314 10.6306 8.56433 10.7343C8.81467 10.838 9.02866 11.0136 9.1792 11.2389C9.32974 11.4642 9.41003 11.729 9.41003 12C9.41819 12.1844 9.38868 12.3686 9.32336 12.5412C9.25805 12.7139 9.15833 12.8715 9.03015 13.0043C8.90197 13.1372 8.74809 13.2425 8.57788 13.314C8.40767 13.3855 8.22464 13.4215 8.04004 13.42V13.37ZM8.04004 9.25999C7.76908 9.25999 7.50423 9.17965 7.27893 9.02911C7.05364 8.87858 6.87798 8.66461 6.77429 8.41428C6.6706 8.16394 6.64355 7.88848 6.69641 7.62273C6.74927 7.35697 6.87969 7.11286 7.07129 6.92126C7.26289 6.72967 7.50695 6.59919 7.77271 6.54633C8.03846 6.49346 8.314 6.52059 8.56433 6.62428C8.81467 6.72797 9.02866 6.90357 9.1792 7.12886C9.32974 7.35416 9.41003 7.61904 9.41003 7.89C9.41136 8.07028 9.37685 8.24903 9.30847 8.41585C9.24009 8.58266 9.1392 8.73421 9.01172 8.86169C8.88424 8.98918 8.73273 9.09004 8.56592 9.15842C8.3991 9.22679 8.22032 9.26133 8.04004 9.25999ZM16.1901 16.86H11.67C11.4711 16.86 11.2803 16.781 11.1396 16.6403C10.999 16.4997 10.92 16.3089 10.92 16.11C10.92 15.9111 10.999 15.7203 11.1396 15.5797C11.2803 15.439 11.4711 15.36 11.67 15.36H16.1901C16.389 15.36 16.5797 15.439 16.7203 15.5797C16.861 15.7203 16.9401 15.9111 16.9401 16.11C16.9401 16.3089 16.861 16.4997 16.7203 16.6403C16.5797 16.781 16.389 16.86 16.1901 16.86ZM16.1901 12.75H11.67C11.4711 12.75 11.2803 12.671 11.1396 12.5303C10.999 12.3897 10.92 12.1989 10.92 12C10.92 11.8011 10.999 11.6103 11.1396 11.4697C11.2803 11.329 11.4711 11.25 11.67 11.25H16.1901C16.389 11.25 16.5797 11.329 16.7203 11.4697C16.861 11.6103 16.9401 11.8011 16.9401 12C16.9401 12.1989 16.861 12.3897 16.7203 12.5303C16.5797 12.671 16.389 12.75 16.1901 12.75ZM16.1901 8.64H11.67C11.4711 8.64 11.2803 8.56099 11.1396 8.42033C10.999 8.27968 10.92 8.08891 10.92 7.89C10.92 7.69109 10.999 7.50032 11.1396 7.35966C11.2803 7.21901 11.4711 7.14 11.67 7.14H16.1901C16.389 7.14 16.5797 7.21901 16.7203 7.35966C16.861 7.50032 16.9401 7.69109 16.9401 7.89C16.9401 8.08891 16.861 8.27968 16.7203 8.42033C16.5797 8.56099 16.389 8.64 16.1901 8.64Z" fill="black"/>
</svg>
