<svg width="24" height="24" viewBox="0 0 24 24" fill="none" xmlns="http://www.w3.org/2000/svg">
<path d="M16.58 2H7.40997C5.97423 2.00265 4.59821 2.57484 3.58392 3.591C2.56964 4.60716 2 5.98426 2 7.42V16.59C2.00264 18.024 2.57346 19.3985 3.58746 20.4125C4.60146 21.4265 5.97596 21.9974 7.40997 22H16.58C18.0158 22 19.3928 21.4303 20.409 20.416C21.4252 19.4018 21.9974 18.0257 22 16.59V7.42C22 5.98252 21.429 4.60393 20.4125 3.58748C19.3961 2.57103 18.0175 2 16.58 2ZM17.31 10.16L12.06 15.39C11.8766 15.5735 11.6592 15.7195 11.42 15.82C10.9331 16.02 10.3869 16.02 9.90002 15.82C9.65408 15.7221 9.43229 15.572 9.25 15.38L6.65997 12.8C6.47167 12.6117 6.36591 12.3563 6.36591 12.09C6.36591 11.8237 6.47167 11.5683 6.65997 11.38C6.84828 11.1917 7.10369 11.0859 7.37 11.0859C7.6363 11.0859 7.89171 11.1917 8.08002 11.38L10.67 13.98L15.88 8.75C15.9697 8.64532 16.08 8.5603 16.204 8.50027C16.3281 8.44025 16.4632 8.40652 16.601 8.4012C16.7387 8.39588 16.876 8.41909 17.0043 8.46936C17.1327 8.51963 17.2492 8.59589 17.3466 8.69334C17.4441 8.7908 17.5203 8.90735 17.5706 9.03568C17.6209 9.164 17.6441 9.30134 17.6388 9.43906C17.6335 9.57678 17.5998 9.7119 17.5397 9.83597C17.4797 9.96003 17.3947 10.0704 17.29 10.16H17.31Z" fill="black"/>
</svg>
