<svg width="24" height="24" viewBox="0 0 24 24" fill="none" xmlns="http://www.w3.org/2000/svg">
<path d="M16.46 2.24994H7.54004C6.13786 2.25258 4.79374 2.81075 3.80225 3.80225C2.81075 4.79374 2.25264 6.13776 2.25 7.53995V16.4599C2.25 17.8629 2.80737 19.2085 3.79944 20.2005C4.79151 21.1926 6.13704 21.7499 7.54004 21.7499H16.46C17.8621 21.7473 19.2061 21.1891 20.1976 20.1976C21.1891 19.2061 21.7474 17.8621 21.75 16.4599V7.53995C21.7474 6.13776 21.1891 4.79374 20.1976 3.80225C19.2061 2.81075 17.8621 2.25258 16.46 2.24994ZM17.01 10.0499L11.9299 15.1399C11.7687 15.298 11.5787 15.4237 11.37 15.5099C10.9504 15.6827 10.4795 15.6827 10.0599 15.5099C9.85126 15.4237 9.6612 15.298 9.5 15.1399L6.97998 12.6199C6.83953 12.4793 6.76062 12.2887 6.76062 12.0899C6.76062 11.8912 6.83953 11.7006 6.97998 11.5599C7.04893 11.4892 7.13139 11.4329 7.22241 11.3945C7.31344 11.3561 7.41122 11.3364 7.51001 11.3364C7.6088 11.3364 7.70658 11.3561 7.79761 11.3945C7.88863 11.4329 7.97109 11.4892 8.04004 11.5599L10.5699 14.0799L10.72 14.1399L10.86 14.0799L15.95 8.98993C16.0186 8.91624 16.1015 8.85715 16.1935 8.81616C16.2855 8.77517 16.3848 8.75312 16.4855 8.75134C16.5862 8.74957 16.6862 8.7681 16.7795 8.80582C16.8729 8.84354 16.9578 8.89967 17.0291 8.97089C17.1003 9.04211 17.1564 9.12695 17.1941 9.22034C17.2318 9.31372 17.2503 9.41376 17.2485 9.51447C17.2468 9.61517 17.2247 9.71449 17.1837 9.80649C17.1427 9.89849 17.0837 9.98126 17.01 10.0499Z" fill="black"/>
</svg>
