<svg width="24" height="24" viewBox="0 0 24 24" fill="none" xmlns="http://www.w3.org/2000/svg">
<path d="M12 15.7543C11.3603 15.7542 10.7462 15.5028 10.29 15.0543L4.78002 9.54434C4.70634 9.47567 4.64719 9.39287 4.6062 9.30087C4.5652 9.20887 4.54315 9.10955 4.54138 9.00884C4.5396 8.90814 4.55822 8.8081 4.59594 8.71472C4.63366 8.62133 4.68976 8.53651 4.76098 8.4653C4.8322 8.39408 4.91698 8.33792 5.01037 8.3002C5.10376 8.26248 5.20386 8.24395 5.30456 8.24572C5.40526 8.2475 5.50455 8.26955 5.59655 8.31054C5.68855 8.35153 5.7713 8.41065 5.83996 8.48434L11.35 13.9943C11.5318 14.1519 11.7644 14.2387 12.005 14.2387C12.2456 14.2387 12.4782 14.1519 12.66 13.9943L18.16 8.49432C18.2287 8.42063 18.3114 8.36154 18.4034 8.32055C18.4954 8.27956 18.5948 8.25751 18.6956 8.25573C18.7963 8.25396 18.8962 8.27248 18.9896 8.31021C19.083 8.34793 19.1678 8.40406 19.239 8.47528C19.3102 8.54649 19.3664 8.63134 19.4042 8.72473C19.4419 8.81811 19.4604 8.91815 19.4586 9.01885C19.4568 9.11956 19.4348 9.21888 19.3938 9.31088C19.3528 9.40288 19.2937 9.48565 19.22 9.55432L13.7101 15.0643C13.2523 15.5091 12.6383 15.7569 12 15.7543Z" fill="black"/>
</svg>
