<svg width="24" height="24" viewBox="0 0 24 24" fill="none" xmlns="http://www.w3.org/2000/svg">
<path d="M16.59 2H7.41998C5.98251 2 4.60391 2.57103 3.58746 3.58748C2.57102 4.60393 2 5.98252 2 7.42V16.59C2.00265 18.0257 2.57484 19.4018 3.591 20.416C4.60716 21.4303 5.98424 22 7.41998 22H16.59C18.024 21.9974 19.3985 21.4265 20.4125 20.4125C21.4265 19.3985 21.9974 18.024 22 16.59V7.42C22 5.98426 21.4304 4.60716 20.4161 3.591C19.4018 2.57484 18.0257 2.00265 16.59 2ZM17.13 10.88L13.55 14.56C13.3547 14.7599 13.1196 14.9166 12.86 15.02C12.3411 15.2334 11.7589 15.2334 11.24 15.02C10.987 14.9141 10.7563 14.7614 10.56 14.57L6.88 10.89C6.78742 10.7968 6.7141 10.6862 6.66425 10.5646C6.61439 10.4431 6.58895 10.3129 6.58942 10.1815C6.58988 10.0501 6.61622 9.92004 6.66693 9.79883C6.71764 9.67761 6.79177 9.56757 6.88501 9.47499C6.97825 9.38241 7.08882 9.3091 7.21039 9.25925C7.33196 9.20939 7.46211 9.18398 7.59351 9.18445C7.7249 9.18491 7.85492 9.21125 7.97614 9.26196C8.09735 9.31267 8.20741 9.38676 8.29999 9.48L11.98 13.15H12.09L15.7 9.45C15.793 9.35627 15.9035 9.28188 16.0254 9.23111C16.1473 9.18034 16.278 9.15421 16.41 9.15421C16.542 9.15421 16.6727 9.18034 16.7946 9.23111C16.9164 9.28188 17.027 9.35627 17.12 9.45C17.2159 9.54246 17.2923 9.65315 17.3448 9.77557C17.3974 9.898 17.425 10.0297 17.4259 10.1629C17.4268 10.2961 17.4011 10.4282 17.3503 10.5513C17.2995 10.6744 17.2246 10.7862 17.13 10.88Z" fill="black"/>
</svg>
