<svg width="24" height="24" viewBox="0 0 24 24" fill="none" xmlns="http://www.w3.org/2000/svg">
<path d="M12 1.75C9.97271 1.75 7.991 2.35115 6.30539 3.47743C4.61979 4.60372 3.30604 6.20456 2.53025 8.0775C1.75445 9.95044 1.5515 12.0114 1.94699 13.9997C2.34249 15.988 3.31868 17.8144 4.75217 19.2478C6.18566 20.6813 8.01203 21.6575 10.0003 22.053C11.9886 22.4485 14.0495 22.2456 15.9225 21.4698C17.7954 20.694 19.3963 19.3802 20.5226 17.6946C21.6488 16.009 22.25 14.0273 22.25 12C22.2473 9.28234 21.1666 6.67676 19.245 4.75508C17.3233 2.83341 14.7176 1.75265 12 1.75ZM17.24 14.38C17.0526 14.5663 16.7992 14.6708 16.535 14.6708C16.2708 14.6708 16.0174 14.5663 15.8301 14.38L11.9601 10.56L8.19004 14.37C8.09811 14.4645 7.98839 14.5401 7.86728 14.5922C7.74617 14.6444 7.61596 14.6722 7.4841 14.6741C7.35224 14.6759 7.22138 14.6518 7.09885 14.6031C6.97632 14.5543 6.86454 14.4819 6.76999 14.39C6.67544 14.2981 6.6 14.1884 6.54782 14.0673C6.49565 13.9462 6.46777 13.816 6.46592 13.6841C6.46406 13.5523 6.48822 13.4213 6.53696 13.2988C6.5857 13.1763 6.65805 13.0646 6.74997 12.97L10.44 9.2C10.6379 8.99358 10.8761 8.83019 11.14 8.72C11.6631 8.51027 12.2469 8.51027 12.77 8.72C13.0327 8.82773 13.2709 8.98762 13.4701 9.19L17.24 12.96C17.3337 13.053 17.4082 13.1636 17.459 13.2854C17.5097 13.4073 17.5359 13.538 17.5359 13.67C17.5359 13.802 17.5097 13.9327 17.459 14.0546C17.4082 14.1764 17.3337 14.287 17.24 14.38Z" fill="black"/>
</svg>
