<svg width="24" height="24" viewBox="0 0 24 24" fill="none" xmlns="http://www.w3.org/2000/svg">
<path d="M12 2.25C10.0717 2.25 8.18655 2.82181 6.58317 3.89316C4.97979 4.9645 3.73006 6.48725 2.9921 8.26883C2.25415 10.0504 2.06109 12.0108 2.43729 13.9021C2.8135 15.7934 3.74207 17.5307 5.10563 18.8943C6.46919 20.2578 8.2065 21.1864 10.0978 21.5627C11.9891 21.9389 13.9495 21.7458 15.7311 21.0078C17.5127 20.2699 19.0355 19.0202 20.1068 17.4168C21.1782 15.8134 21.75 13.9284 21.75 12C21.7474 9.41495 20.7193 6.93655 18.8914 5.10864C17.0635 3.28074 14.5851 2.25265 12 2.25ZM16.83 10.95L13.34 14.53C13.169 14.7024 12.965 14.8385 12.74 14.93C12.5182 15.0224 12.2802 15.07 12.04 15.07C11.7999 15.068 11.5624 15.0205 11.34 14.93C11.1188 14.8371 10.9182 14.7011 10.75 14.53L7.16996 10.96C7.03126 10.8164 6.95377 10.6246 6.95377 10.425C6.95377 10.2254 7.03126 10.0335 7.16996 9.88998C7.31058 9.74953 7.50124 9.67065 7.69999 9.67065C7.89874 9.67065 8.08939 9.74953 8.23002 9.88998L11.81 13.47L11.92 13.55C12.0006 13.5799 12.0893 13.5799 12.17 13.55C12.2075 13.529 12.2412 13.502 12.2699 13.47L15.7599 9.89999C15.9008 9.76588 16.0883 9.69174 16.2828 9.69321C16.4772 9.69468 16.6636 9.77167 16.8024 9.9079C16.9412 10.0441 17.0218 10.2289 17.0269 10.4234C17.032 10.6178 16.9614 10.8066 16.83 10.95Z" fill="black"/>
</svg>
