<svg width="24" height="24" viewBox="0 0 24 24" fill="none" xmlns="http://www.w3.org/2000/svg">
<path d="M8.99994 19.4417C8.90132 19.4428 8.80349 19.4238 8.7124 19.386C8.62131 19.3482 8.53887 19.2923 8.46997 19.2217C8.32952 19.0811 8.25061 18.8905 8.25061 18.6917C8.25061 18.493 8.32952 18.3024 8.46997 18.1617L13.9799 12.6518C14.1504 12.4763 14.2457 12.2414 14.2457 11.9968C14.2457 11.7522 14.1504 11.5172 13.9799 11.3417L8.47992 5.84174C8.33947 5.70111 8.26062 5.51049 8.26062 5.31174C8.26062 5.11299 8.33947 4.92236 8.47992 4.78174C8.54887 4.71098 8.63133 4.65476 8.72235 4.61636C8.81338 4.57797 8.91116 4.55817 9.00995 4.55817C9.10874 4.55817 9.20652 4.57797 9.29755 4.61636C9.38857 4.65476 9.47097 4.71098 9.53992 4.78174L15.0499 10.2917C15.4982 10.748 15.7494 11.3621 15.7494 12.0017C15.7494 12.6414 15.4982 13.2555 15.0499 13.7118L9.53992 19.2217C9.4695 19.2931 9.38537 19.3494 9.29254 19.3872C9.19972 19.425 9.10016 19.4436 8.99994 19.4417Z" fill="black"/>
</svg>
