<svg width="24" height="24" viewBox="0 0 24 24" fill="none" xmlns="http://www.w3.org/2000/svg">
<path d="M16.59 2H7.41992C6.70816 2 6.00341 2.14019 5.34583 2.41257C4.68824 2.68495 4.0907 3.08419 3.5874 3.58748C3.08411 4.09077 2.68486 4.68827 2.41248 5.34586C2.1401 6.00344 2 6.70823 2 7.42V16.59C2.00265 18.0257 2.57478 19.4018 3.59094 20.416C4.6071 21.4303 5.98418 22 7.41992 22H16.59C18.024 21.9974 19.3985 21.4265 20.4125 20.4125C21.4265 19.3985 21.9974 18.024 22 16.59V7.42C22 5.98426 21.4303 4.60716 20.416 3.591C19.4017 2.57484 18.0257 2.00265 16.59 2ZM15.0199 12.76C14.9167 13.0173 14.7638 13.2518 14.5699 13.45L10.89 17.13C10.7971 17.2237 10.6864 17.2981 10.5646 17.3489C10.4427 17.3997 10.3119 17.4258 10.1799 17.4258C10.0479 17.4258 9.91727 17.3997 9.79541 17.3489C9.67355 17.2981 9.56293 17.2237 9.46997 17.13C9.37624 17.037 9.30187 16.9264 9.2511 16.8046C9.20033 16.6827 9.17419 16.552 9.17419 16.42C9.17419 16.288 9.20033 16.1573 9.2511 16.0354C9.30187 15.9136 9.37624 15.803 9.46997 15.71L13.1499 12.03V11.92L9.44995 8.31C9.3554 8.21807 9.27984 8.10843 9.22766 7.98732C9.17549 7.86621 9.14773 7.736 9.14587 7.60414C9.14402 7.47228 9.16817 7.34134 9.21692 7.21881C9.26566 7.09628 9.33801 6.98455 9.42993 6.89C9.52186 6.79545 9.63157 6.71993 9.75269 6.66776C9.8738 6.61558 10.004 6.58776 10.1359 6.58591C10.2677 6.58405 10.3986 6.60818 10.5211 6.65692C10.6437 6.70567 10.7554 6.77807 10.85 6.87L14.5299 10.46C14.7258 10.6586 14.882 10.8928 14.99 11.15C15.0977 11.4063 15.1521 11.6819 15.1499 11.96C15.1616 12.2327 15.1174 12.505 15.0199 12.76Z" fill="black"/>
</svg>
