<svg width="24" height="24" viewBox="0 0 24 24" fill="none" xmlns="http://www.w3.org/2000/svg">
<path d="M12 2.25C10.0716 2.25 8.18661 2.82181 6.58323 3.89316C4.97985 4.9645 3.73012 6.48725 2.99216 8.26883C2.25421 10.0504 2.06115 12.0108 2.43735 13.9021C2.81356 15.7934 3.74213 17.5307 5.10569 18.8943C6.46925 20.2578 8.20656 21.1864 10.0979 21.5627C11.9892 21.9389 13.9496 21.7458 15.7312 21.0078C17.5128 20.2699 19.0354 19.0202 20.1068 17.4168C21.1781 15.8134 21.75 13.9284 21.75 12C21.7447 9.41576 20.7157 6.93888 18.8884 5.11154C17.0611 3.28421 14.5842 2.25528 12 2.25ZM14.13 16.84C14.0597 16.9122 13.9757 16.9697 13.883 17.0092C13.7903 17.0487 13.6907 17.0694 13.5899 17.07C13.4937 17.071 13.3983 17.053 13.3091 17.0169C13.2198 16.9809 13.1385 16.9275 13.0699 16.86L9.48997 13.37C9.31753 13.199 9.18144 12.9949 9.08994 12.77C8.99483 12.549 8.94713 12.3106 8.94993 12.07C8.94753 11.8305 8.99168 11.5927 9.07993 11.37C9.17163 11.1481 9.30778 10.9473 9.47996 10.78L13.06 7.19998C13.2022 7.0675 13.3901 6.99538 13.5844 6.99881C13.7787 7.00224 13.9642 7.08097 14.1017 7.21838C14.2391 7.3558 14.3177 7.54117 14.3211 7.73547C14.3246 7.92977 14.2524 8.11784 14.12 8.26001L10.53 11.84C10.501 11.8727 10.4773 11.9098 10.4599 11.95C10.4493 11.9893 10.4493 12.0307 10.4599 12.07C10.451 12.1129 10.451 12.1571 10.4599 12.2C10.4799 12.2356 10.5034 12.2691 10.53 12.3L14.1 15.78C14.2445 15.9166 14.3288 16.105 14.3344 16.3038C14.3401 16.5025 14.2665 16.6954 14.13 16.84Z" fill="black"/>
</svg>
