<svg width="24" height="24" viewBox="0 0 24 24" fill="none" xmlns="http://www.w3.org/2000/svg">
<path d="M16.46 2.25H7.54004C6.84535 2.25 6.15744 2.38683 5.51562 2.65268C4.87381 2.91853 4.29066 3.30819 3.79944 3.79941C3.30822 4.29063 2.91856 4.87381 2.65271 5.51562C2.38686 6.15744 2.25 6.84532 2.25 7.54001V16.46C2.25 17.863 2.80737 19.2085 3.79944 20.2006C4.79151 21.1927 6.13704 21.75 7.54004 21.75H16.46C17.8622 21.7474 19.2062 21.1892 20.1977 20.1977C21.1892 19.2062 21.7474 17.8622 21.75 16.46V7.54001C21.7474 6.13783 21.1892 4.79383 20.1977 3.80234C19.2062 2.81084 17.8622 2.25264 16.46 2.25ZM16.82 14.3C16.7511 14.3706 16.6687 14.4265 16.5776 14.4643C16.4865 14.5021 16.3887 14.5211 16.29 14.52C16.1915 14.5205 16.0938 14.5012 16.0028 14.4635C15.9118 14.4257 15.8293 14.3701 15.76 14.3L12.1801 10.72L12.08 10.65C11.9994 10.6202 11.9107 10.6202 11.83 10.65C11.7899 10.6673 11.7527 10.6909 11.72 10.72L8.24005 14.29C8.18294 14.3867 8.10482 14.4692 8.01154 14.5317C7.91825 14.5941 7.81217 14.6348 7.70105 14.6508C7.58993 14.6668 7.4766 14.6576 7.36951 14.624C7.26241 14.5903 7.16423 14.533 7.08221 14.4564C7.0002 14.3797 6.93644 14.2857 6.89563 14.1811C6.85482 14.0765 6.83801 13.9641 6.84644 13.8521C6.85486 13.7402 6.88834 13.6316 6.94434 13.5343C7.00034 13.437 7.07748 13.3535 7.17004 13.29L10.66 9.71002C10.8256 9.53578 11.0268 9.39932 11.25 9.31C11.6984 9.12553 12.2016 9.12553 12.65 9.31C12.8691 9.40693 13.0689 9.54244 13.2401 9.71002L16.82 13.29C16.9479 13.427 17.0191 13.6075 17.0191 13.795C17.0191 13.9825 16.9479 14.163 16.82 14.3Z" fill="black"/>
</svg>
