<svg width="24" height="24" viewBox="0 0 24 24" fill="none" xmlns="http://www.w3.org/2000/svg">
<path d="M15.0004 19.4357C14.8024 19.4314 14.6132 19.3529 14.4703 19.2157L8.96033 13.7057C8.51125 13.2458 8.26005 12.6284 8.26038 11.9857C8.25961 11.6702 8.32093 11.3577 8.44105 11.066C8.56116 10.7743 8.73765 10.5091 8.96033 10.2857L14.4703 4.76568C14.6125 4.6332 14.8006 4.56108 14.9949 4.56451C15.1892 4.56794 15.3746 4.64664 15.512 4.78405C15.6494 4.92147 15.7281 5.10684 15.7316 5.30114C15.735 5.49544 15.6628 5.6835 15.5303 5.82568L10.0204 11.3357C9.84996 11.5111 9.75452 11.7461 9.75452 11.9907C9.75452 12.2353 9.84996 12.4702 10.0204 12.6457L15.5204 18.1557C15.6608 18.2963 15.7396 18.4869 15.7396 18.6857C15.7396 18.8844 15.6608 19.0751 15.5204 19.2157C15.3801 19.3506 15.1949 19.4289 15.0004 19.4357Z" fill="black"/>
</svg>
