<svg width="24" height="24" viewBox="0 0 24 24" fill="none" xmlns="http://www.w3.org/2000/svg">
<path d="M16.59 2H7.42004C5.98257 2 4.60397 2.57103 3.58752 3.58748C2.57108 4.60393 2 5.98252 2 7.42V16.59C2.00265 18.0257 2.5749 19.4018 3.59106 20.416C4.60722 21.4303 5.9843 22 7.42004 22H16.59C18.024 21.9974 19.3985 21.4265 20.4125 20.4125C21.4265 19.3985 21.9974 18.024 22 16.59V7.42C22 5.98426 21.4303 4.60716 20.416 3.591C19.4017 2.57484 18.0257 2.00265 16.59 2ZM17.12 14.53C16.9326 14.7162 16.6792 14.8208 16.415 14.8208C16.1509 14.8208 15.8973 14.7162 15.71 14.53L12.03 10.86H11.92L8.30005 14.55C8.20827 14.6463 8.09811 14.7233 7.9762 14.7766C7.85428 14.8298 7.72298 14.8582 7.58997 14.86C7.39254 14.8612 7.19921 14.8038 7.0343 14.6953C6.86939 14.5867 6.74033 14.4318 6.66333 14.25C6.58633 14.0682 6.5649 13.8677 6.60168 13.6737C6.63847 13.4797 6.73179 13.301 6.87 13.16L10.46 9.48C10.6543 9.27653 10.8895 9.11638 11.15 9.00999C11.5359 8.8505 11.9603 8.80908 12.3698 8.89096C12.7792 8.97285 13.1551 9.17437 13.45 9.47L17.12 13.15C17.2973 13.336 17.3962 13.5831 17.3962 13.84C17.3962 14.0969 17.2973 14.344 17.12 14.53Z" fill="black"/>
</svg>
