<svg width="24" height="24" viewBox="0 0 24 24" fill="none" xmlns="http://www.w3.org/2000/svg">
<path d="M16.59 2H7.41998C5.98251 2 4.60391 2.57103 3.58746 3.58748C2.57102 4.60393 2 5.98252 2 7.42V16.59C2.00265 18.0257 2.57484 19.4018 3.591 20.416C4.60716 21.4303 5.98424 22 7.41998 22H16.59C18.024 21.9974 19.3985 21.4265 20.4125 20.4125C21.4265 19.3985 21.9974 18.024 22 16.59V7.42C22 5.98426 21.4303 4.60716 20.416 3.591C19.4017 2.57484 18.0257 2.00265 16.59 2ZM14.59 17.12C14.4026 17.3062 14.1491 17.4108 13.8849 17.4108C13.6208 17.4108 13.3674 17.3062 13.18 17.12L9.5 13.54C9.30015 13.3426 9.1405 13.1082 9.02997 12.85C8.86777 12.4646 8.82492 12.0394 8.90692 11.6294C8.98893 11.2194 9.19204 10.8434 9.48999 10.55L13.17 6.87C13.3573 6.68374 13.6108 6.57921 13.875 6.57921C14.1392 6.57921 14.3926 6.68374 14.58 6.87C14.6737 6.96296 14.7481 7.07356 14.7989 7.19542C14.8497 7.31728 14.8758 7.44799 14.8758 7.58C14.8758 7.71201 14.8497 7.84271 14.7989 7.96457C14.7481 8.08643 14.6737 8.19703 14.58 8.28999L10.91 11.98V12.09L14.6 15.7C14.6899 15.7969 14.7597 15.9106 14.8054 16.0346C14.851 16.1586 14.8717 16.2905 14.8661 16.4225C14.8606 16.5546 14.8289 16.6842 14.7729 16.8039C14.7169 16.9236 14.6377 17.0311 14.54 17.12H14.59Z" fill="black"/>
</svg>
