<svg width="24" height="24" viewBox="0 0 24 24" fill="none" xmlns="http://www.w3.org/2000/svg">
<path d="M15.25 2H8.75C6.9606 2.00265 5.24528 2.71465 3.97998 3.97995C2.71468 5.24525 2.00265 6.9606 2 8.75V15.25C2.00265 17.0394 2.71468 18.7547 3.97998 20.02C5.24528 21.2853 6.9606 21.9974 8.75 22H15.25C17.0394 21.9974 18.7547 21.2853 20.02 20.02C21.2853 18.7547 21.9974 17.0394 22 15.25V8.75C21.9974 6.9606 21.2853 5.24525 20.02 3.97995C18.7547 2.71465 17.0394 2.00265 15.25 2ZM14.5 15.7C14.6863 15.8874 14.7908 16.1408 14.7908 16.405C14.7908 16.6692 14.6863 16.9226 14.5 17.11C14.407 17.2037 14.2964 17.2781 14.1746 17.3289C14.0527 17.3797 13.922 17.4058 13.79 17.4058C13.658 17.4058 13.5273 17.3797 13.4054 17.3289C13.2835 17.2781 13.173 17.2037 13.08 17.11L9.5 13.5C9.29654 13.3056 9.13641 13.0705 9.03003 12.81C8.81723 12.2944 8.81723 11.7156 9.03003 11.2C9.13469 10.944 9.29128 10.7124 9.48999 10.52L13.17 6.84C13.2596 6.73531 13.37 6.65029 13.494 6.59027C13.6181 6.53025 13.7532 6.49653 13.8909 6.49121C14.0286 6.48589 14.166 6.50908 14.2943 6.55936C14.4226 6.60963 14.5392 6.6859 14.6367 6.78336C14.7341 6.88081 14.8104 6.99735 14.8607 7.12567C14.9109 7.254 14.9341 7.39133 14.9288 7.52905C14.9235 7.66677 14.8897 7.8019 14.8297 7.92596C14.7697 8.05003 14.6847 8.16035 14.58 8.25L10.9 11.93V12.05L14.5 15.7Z" fill="black"/>
</svg>
