<svg width="24" height="24" viewBox="0 0 24 24" fill="none" xmlns="http://www.w3.org/2000/svg">
<path d="M12 1.75C9.97273 1.75 7.99101 2.35115 6.30541 3.47743C4.6198 4.60372 3.30606 6.20456 2.53026 8.0775C1.75446 9.95044 1.55145 12.0114 1.94695 13.9997C2.34245 15.988 3.3187 17.8144 4.75218 19.2478C6.18567 20.6813 8.01205 21.6575 10.0004 22.053C11.9887 22.4485 14.0496 22.2456 15.9225 21.4698C17.7955 20.694 19.3963 19.3802 20.5226 17.6946C21.6489 16.009 22.25 14.0273 22.25 12C22.2473 9.28234 21.1666 6.67676 19.2449 4.75508C17.3232 2.83341 14.7176 1.75265 12 1.75ZM14.37 15.82C14.4639 15.9119 14.5387 16.0214 14.5903 16.1423C14.6419 16.2632 14.6692 16.393 14.6706 16.5244C14.672 16.6558 14.6474 16.7862 14.5984 16.9081C14.5494 17.03 14.4769 17.1411 14.385 17.235C14.2931 17.3289 14.1835 17.4038 14.0627 17.4553C13.9418 17.5069 13.812 17.5342 13.6806 17.5356C13.5492 17.5369 13.4188 17.5125 13.2969 17.4635C13.175 17.4145 13.0639 17.3419 12.97 17.25L9.2 13.57C8.99359 13.3721 8.83021 13.1338 8.72002 12.87C8.61707 12.6087 8.56281 12.3308 8.55999 12.05C8.5629 11.7724 8.61718 11.4978 8.72002 11.24C8.82775 10.9773 8.98761 10.7392 9.18999 10.54L12.96 6.75999C13.1483 6.57169 13.4037 6.46591 13.67 6.46591C13.9363 6.46591 14.1917 6.57169 14.38 6.75999C14.5683 6.9483 14.6741 7.2037 14.6741 7.47C14.6741 7.7363 14.5683 7.99169 14.38 8.17999L10.56 12.06L14.37 15.82Z" fill="black"/>
</svg>
