<svg width="24" height="24" viewBox="0 0 24 24" fill="none" xmlns="http://www.w3.org/2000/svg">
<path d="M21.9918 14.5062H19.8468C19.8567 14.3763 19.8567 14.2459 19.8468 14.116V9.49384H21.9718C22.1703 9.49384 22.3606 9.41479 22.5009 9.27407C22.6412 9.13335 22.7201 8.94249 22.7201 8.74349C22.7201 8.54448 22.6412 8.35363 22.5009 8.21291C22.3606 8.07219 22.1703 7.99314 21.9718 7.99314H19.6372C19.3987 7.10113 18.9372 6.28483 18.2965 5.62137C17.6559 4.95791 16.8572 4.4692 15.9758 4.20138V2.00035C15.9758 1.80134 15.8969 1.6105 15.7566 1.46978C15.6163 1.32907 15.426 1.25 15.2275 1.25C15.0291 1.25 14.8387 1.32907 14.6984 1.46978C14.5581 1.6105 14.4793 1.80134 14.4793 2.00035V4.00128H9.49085V2.00035C9.49085 1.80134 9.41202 1.6105 9.27169 1.46978C9.13137 1.32907 8.94104 1.25 8.74259 1.25C8.54414 1.25 8.35381 1.32907 8.21348 1.46978C8.07316 1.6105 7.99433 1.80134 7.99433 2.00035V4.2514C7.14695 4.53684 6.38297 5.02775 5.77031 5.68051C5.15766 6.33327 4.71529 7.12767 4.48247 7.99314H2.01823C1.81978 7.99314 1.62946 8.07219 1.48913 8.21291C1.3488 8.35363 1.26997 8.54448 1.26997 8.74349C1.26997 8.94249 1.3488 9.13335 1.48913 9.27407C1.62946 9.41479 1.81978 9.49384 2.01823 9.49384H4.28293V14.106C4.27299 14.2359 4.27299 14.3663 4.28293 14.4962H1.99826C1.79981 14.4962 1.60948 14.5752 1.46916 14.7159C1.32883 14.8566 1.25 15.0475 1.25 15.2465C1.25 15.4455 1.32883 15.6364 1.46916 15.7771C1.60948 15.9178 1.79981 15.9969 1.99826 15.9969H4.67204C4.95134 16.7616 5.39854 17.4535 5.98052 18.0215C6.56249 18.5896 7.26435 19.0191 8.03421 19.2784V21.9997C8.03421 22.1987 8.11304 22.3895 8.25337 22.5302C8.3937 22.6709 8.58402 22.75 8.78247 22.75C8.98093 22.75 9.17125 22.6709 9.31158 22.5302C9.45191 22.3895 9.53074 22.1987 9.53074 21.9997V19.5585H14.5191V21.9897C14.5191 22.1887 14.598 22.3795 14.7383 22.5202C14.8786 22.6609 15.0689 22.74 15.2674 22.74C15.4658 22.74 15.6562 22.6609 15.7965 22.5202C15.9368 22.3795 16.0157 22.1887 16.0157 21.9897V19.3184C16.8197 19.0765 17.5561 18.6492 18.1659 18.0707C18.7758 17.4922 19.2421 16.7785 19.5275 15.9869H22.0017C22.2002 15.9869 22.3905 15.9078 22.5308 15.7671C22.6712 15.6264 22.75 15.4355 22.75 15.2365C22.75 15.0375 22.6712 14.8466 22.5308 14.7059C22.3905 14.5652 22.2002 14.4862 22.0017 14.4862L21.9918 14.5062ZM16.5445 13.0055C16.5445 13.8634 16.2053 14.6864 15.6012 15.294C14.9972 15.9016 14.1775 16.2443 13.3219 16.247H10.8477C9.99905 16.2338 9.18959 15.8865 8.59413 15.2801C7.99867 14.6736 7.66498 13.8566 7.66508 13.0055V10.5343C7.66508 9.67727 8.00459 8.85533 8.60893 8.2493C9.21327 7.64328 10.0329 7.30282 10.8876 7.30282H13.3619C14.2165 7.30282 15.0362 7.64328 15.6405 8.2493C16.2448 8.85533 16.5843 9.67727 16.5843 10.5343L16.5445 13.0055Z" fill="black"/>
<path d="M15.0479 10.5343V13.0055C15.0479 13.4654 14.8664 13.9067 14.543 14.2329C14.2196 14.5591 13.7806 14.7436 13.3219 14.7463H10.8477C10.389 14.7436 9.94998 14.5591 9.62658 14.2329C9.30318 13.9067 9.1217 13.4654 9.12171 13.0055V10.5343C9.12171 10.0753 9.3035 9.63507 9.62719 9.31048C9.95087 8.98589 10.3899 8.80353 10.8477 8.80353H13.3219C13.7797 8.80353 14.2187 8.98589 14.5424 9.31048C14.8661 9.63507 15.0479 10.0753 15.0479 10.5343Z" fill="black"/>
</svg>
