<svg width="24" height="24" viewBox="0 0 24 24" fill="none" xmlns="http://www.w3.org/2000/svg">
<path d="M18.96 5.03987C18.5358 4.62099 17.9748 4.36893 17.3799 4.32986V3.90987C17.3773 3.40411 17.1753 2.91982 16.8177 2.56219C16.4601 2.20457 15.9758 2.00251 15.47 1.99988H8.52997C8.02514 2.00252 7.54189 2.20491 7.18586 2.56282C6.82982 2.92073 6.62994 3.40503 6.62995 3.90987V4.32986C6.0012 4.36812 5.41081 4.64514 4.97956 5.10428C4.54831 5.56341 4.30884 6.16996 4.31 6.79987V18.9399C4.31261 19.7535 4.63604 20.5332 5.21003 21.1099C5.49342 21.3964 5.83158 21.6228 6.20441 21.7757C6.57724 21.9286 6.97701 22.0049 7.37995 21.9999H16.6299C17.4415 21.9999 18.2199 21.6775 18.7938 21.1036C19.3676 20.5298 19.69 19.7514 19.69 18.9399V6.77988C19.6854 6.12635 19.4231 5.50103 18.96 5.03987ZM8.16999 3.88988C8.16996 3.78285 8.21182 3.68005 8.28656 3.60344C8.3613 3.52683 8.46302 3.48248 8.57001 3.47987H15.51C15.6179 3.48241 15.7207 3.52642 15.7971 3.60277C15.8734 3.67911 15.9174 3.78194 15.92 3.88988V5.03987C15.9174 5.14687 15.8731 5.24861 15.7965 5.32335C15.7198 5.39809 15.617 5.4399 15.51 5.43987H8.57001C8.46392 5.43987 8.36219 5.39772 8.28717 5.32271C8.21216 5.24769 8.16999 5.14596 8.16999 5.03987V3.88988Z" fill="black"/>
</svg>
