<svg width="24" height="24" viewBox="0 0 24 24" fill="none" xmlns="http://www.w3.org/2000/svg">
<path d="M19.6901 5.01501C19.1433 4.4823 18.4444 4.13283 17.6901 4.01501V3.73504C17.6888 3.507 17.6424 3.28146 17.5536 3.07141C17.4649 2.86136 17.3354 2.67095 17.1728 2.5111C17.0101 2.35125 16.8176 2.22508 16.606 2.13995C16.3944 2.05481 16.1681 2.01237 15.9401 2.01501H7.94011C7.48034 2.01234 7.03815 2.19175 6.71025 2.51403C6.38234 2.83632 6.19538 3.2753 6.19011 3.73504V4.03503C5.48808 4.18593 4.84319 4.53265 4.33012 5.03503C3.98617 5.37058 3.7133 5.77195 3.52775 6.2152C3.34221 6.65846 3.2477 7.13453 3.25004 7.61505V17.335C3.25199 17.9491 3.37691 18.5565 3.61735 19.1216C3.8578 19.6866 4.20892 20.1978 4.65007 20.625C5.54258 21.5041 6.74734 21.9932 8.00004 21.985H16C17.2527 21.9932 18.4576 21.5041 19.3501 20.625C19.7913 20.1978 20.1424 19.6866 20.3829 19.1216C20.6233 18.5565 20.7481 17.9491 20.75 17.335V7.60504C20.7538 6.63537 20.3726 5.70384 19.6901 5.01501ZM7.69011 3.72503C7.69522 3.66314 7.72405 3.60566 7.77067 3.56463C7.81729 3.5236 7.87807 3.5022 7.94011 3.505H15.9401C16.0021 3.5022 16.0628 3.5236 16.1094 3.56463C16.156 3.60566 16.185 3.66314 16.1901 3.72503V5.72503C16.185 5.78692 16.156 5.84441 16.1094 5.88543C16.0628 5.92646 16.0021 5.9478 15.9401 5.945H7.94011C7.87807 5.9478 7.81729 5.92646 7.77067 5.88543C7.72405 5.84441 7.69522 5.78692 7.69011 5.72503V3.72503ZM15.8501 16.855H8.15007C7.88485 16.855 7.63057 16.7497 7.44304 16.5621C7.2555 16.3746 7.15007 16.1203 7.15007 15.855C7.15007 15.5898 7.2555 15.3354 7.44304 15.1479C7.63057 14.9603 7.88485 14.855 8.15007 14.855H15.8501C16.1154 14.855 16.3696 14.9603 16.5572 15.1479C16.7447 15.3354 16.8501 15.5898 16.8501 15.855C16.8501 16.1203 16.7447 16.3746 16.5572 16.5621C16.3696 16.7497 16.1154 16.855 15.8501 16.855ZM15.8501 12.465H8.15007C7.88485 12.465 7.63057 12.3596 7.44304 12.1721C7.2555 11.9846 7.15007 11.7302 7.15007 11.465C7.15007 11.1998 7.2555 10.9455 7.44304 10.7579C7.63057 10.5704 7.88485 10.465 8.15007 10.465H15.8501C16.1154 10.465 16.3696 10.5704 16.5572 10.7579C16.7447 10.9455 16.8501 11.1998 16.8501 11.465C16.8501 11.7302 16.7447 11.9846 16.5572 12.1721C16.3696 12.3596 16.1154 12.465 15.8501 12.465Z" fill="black"/>
</svg>
