<svg width="24" height="24" viewBox="0 0 24 24" fill="none" xmlns="http://www.w3.org/2000/svg">
<path d="M18.68 5.32495C18.2778 4.91674 17.7414 4.66808 17.17 4.62497V4.26495C17.17 3.77338 16.9754 3.30178 16.6287 2.95325C16.2821 2.60472 15.8116 2.40761 15.32 2.40497H8.68C8.18843 2.40761 7.71788 2.60472 7.37122 2.95325C7.02457 3.30178 6.82996 3.77338 6.82996 4.26495V4.62497C6.25856 4.66808 5.72217 4.91674 5.32001 5.32495C5.09733 5.5484 4.92084 5.81355 4.80073 6.10526C4.68061 6.39696 4.61923 6.7095 4.62 7.02496V18.6349C4.62065 19.4206 4.92942 20.1746 5.47999 20.735C6.04038 21.2855 6.79436 21.5943 7.57996 21.5949H16.42C17.2056 21.5943 17.9596 21.2855 18.52 20.735C19.0705 20.1746 19.3794 19.4206 19.38 18.6349V6.98495C19.3711 6.36172 19.12 5.76639 18.68 5.32495ZM8.35999 4.26495C8.35996 4.17118 8.39649 4.08109 8.46186 4.01385C8.52723 3.94662 8.61623 3.90757 8.70997 3.90497H15.36C15.4537 3.90757 15.5427 3.94662 15.6081 4.01385C15.6735 4.08109 15.71 4.17118 15.71 4.26495V5.36496C15.7092 5.45789 15.6735 5.54714 15.61 5.61496C15.5758 5.64945 15.535 5.67665 15.49 5.69495C15.4473 5.70515 15.4027 5.70515 15.36 5.69495H8.71998C8.62624 5.69234 8.53724 5.65326 8.47187 5.58603C8.4065 5.5188 8.36997 5.42873 8.37 5.33496L8.35999 4.26495ZM15.36 17.365H8.71998C8.52107 17.365 8.3303 17.2859 8.18964 17.1453C8.04899 17.0046 7.96998 16.8139 7.96998 16.615C7.96998 16.416 8.04899 16.2253 8.18964 16.0846C8.3303 15.944 8.52107 15.865 8.71998 15.865H15.36C15.5589 15.865 15.7497 15.944 15.8903 16.0846C16.031 16.2253 16.11 16.416 16.11 16.615C16.11 16.8139 16.031 17.0046 15.8903 17.1453C15.7497 17.2859 15.5589 17.365 15.36 17.365ZM15.36 14.055H8.71998C8.52107 14.055 8.3303 13.9759 8.18964 13.8353C8.04899 13.6946 7.96998 13.5039 7.96998 13.305C7.96998 13.106 8.04899 12.9153 8.18964 12.7746C8.3303 12.634 8.52107 12.555 8.71998 12.555H15.36C15.5589 12.555 15.7497 12.634 15.8903 12.7746C16.031 12.9153 16.11 13.106 16.11 13.305C16.11 13.5039 16.031 13.6946 15.8903 13.8353C15.7497 13.9759 15.5589 14.055 15.36 14.055ZM15.36 10.735H8.71998C8.52107 10.735 8.3303 10.6559 8.18964 10.5153C8.04899 10.3746 7.96998 10.1839 7.96998 9.98495C7.96998 9.78604 8.04899 9.59527 8.18964 9.45462C8.3303 9.31397 8.52107 9.23495 8.71998 9.23495H15.36C15.5589 9.23495 15.7497 9.31397 15.8903 9.45462C16.031 9.59527 16.11 9.78604 16.11 9.98495C16.11 10.1839 16.031 10.3746 15.8903 10.5153C15.7497 10.6559 15.5589 10.735 15.36 10.735Z" fill="black"/>
</svg>
