<svg width="24" height="24" viewBox="0 0 24 24" fill="none" xmlns="http://www.w3.org/2000/svg">
<path d="M18.96 5.03993C18.5358 4.62105 17.975 4.36899 17.3801 4.32993V3.90993C17.3774 3.40417 17.1753 2.91988 16.8177 2.56226C16.4601 2.20463 15.9758 2.00257 15.47 1.99994H8.52997C8.02514 2.00258 7.54189 2.20497 7.18586 2.56288C6.82982 2.92079 6.63006 3.40509 6.63007 3.90993V4.32993C6.00133 4.36818 5.41093 4.64521 4.97968 5.10434C4.54843 5.56347 4.30884 6.17002 4.31 6.79993V18.9399C4.31 19.3426 4.38948 19.7413 4.54389 20.1133C4.69829 20.4852 4.92457 20.8229 5.20978 21.1072C5.49499 21.3915 5.83359 21.6167 6.206 21.7699C6.57841 21.9231 6.97738 22.0013 7.38007 21.9999H16.6301C17.0313 22.0036 17.4292 21.9267 17.8002 21.7738C18.1713 21.6209 18.5078 21.3952 18.79 21.1099C19.364 20.5333 19.6874 19.7535 19.69 18.9399V6.77994C19.6854 6.12641 19.4231 5.50109 18.96 5.03993ZM8.13007 3.90993C8.13004 3.8029 8.17178 3.70011 8.24653 3.6235C8.32127 3.5469 8.42298 3.50255 8.52997 3.49994H15.47C15.578 3.50248 15.6808 3.54649 15.7571 3.62283C15.8335 3.69918 15.8775 3.80199 15.8801 3.90993V5.03993C15.8775 5.14693 15.833 5.24867 15.7564 5.32341C15.6798 5.39815 15.5771 5.43996 15.47 5.43993H8.52997C8.42389 5.43993 8.32215 5.39778 8.24714 5.32277C8.17212 5.24775 8.13007 5.14602 8.13007 5.03993V3.90993ZM15.47 17.8299H8.52997C8.26476 17.8299 8.01048 17.7246 7.82294 17.537C7.6354 17.3495 7.52997 17.0951 7.52997 16.8299C7.52997 16.5647 7.6354 16.3104 7.82294 16.1228C8.01048 15.9353 8.26476 15.8299 8.52997 15.8299H15.47C15.7353 15.8299 15.9897 15.9353 16.1772 16.1228C16.3647 16.3104 16.47 16.5647 16.47 16.8299C16.47 17.0951 16.3647 17.3495 16.1772 17.537C15.9897 17.7246 15.7353 17.8299 15.47 17.8299ZM15.47 14.3599H8.52997C8.26476 14.3599 8.01048 14.2546 7.82294 14.067C7.6354 13.8795 7.52997 13.6252 7.52997 13.3599C7.52997 13.0947 7.6354 12.8404 7.82294 12.6528C8.01048 12.4653 8.26476 12.3599 8.52997 12.3599H15.47C15.7353 12.3599 15.9897 12.4653 16.1772 12.6528C16.3647 12.8404 16.47 13.0947 16.47 13.3599C16.47 13.6252 16.3647 13.8795 16.1772 14.067C15.9897 14.2546 15.7353 14.3599 15.47 14.3599ZM15.47 10.8899H8.52997C8.26476 10.8899 8.01048 10.7846 7.82294 10.597C7.6354 10.4095 7.52997 10.1552 7.52997 9.88994C7.52997 9.62472 7.6354 9.37037 7.82294 9.18283C8.01048 8.99529 8.26476 8.88994 8.52997 8.88994H15.47C15.7353 8.88994 15.9897 8.99529 16.1772 9.18283C16.3647 9.37037 16.47 9.62472 16.47 9.88994C16.47 10.1552 16.3647 10.4095 16.1772 10.597C15.9897 10.7846 15.7353 10.8899 15.47 10.8899Z" fill="black"/>
</svg>
