<svg width="24" height="24" viewBox="0 0 24 24" fill="none" xmlns="http://www.w3.org/2000/svg">
<path d="M12 2.25C10.0716 2.25 8.18655 2.82184 6.58317 3.89319C4.97979 4.96453 3.73012 6.48728 2.99216 8.26886C2.25421 10.0504 2.06115 12.0108 2.43735 13.9021C2.81356 15.7934 3.74213 17.5307 5.10569 18.8943C6.46925 20.2578 8.20656 21.1864 10.0979 21.5627C11.9892 21.9389 13.9496 21.7458 15.7312 21.0078C17.5128 20.2699 19.0354 19.0202 20.1068 17.4168C21.1781 15.8134 21.75 13.9284 21.75 12C21.7473 9.41495 20.7192 6.93655 18.8913 5.10864C17.0634 3.28074 14.585 2.25265 12 2.25ZM15.54 15.53C15.4707 15.6001 15.3882 15.6557 15.2972 15.6935C15.2061 15.7313 15.1085 15.7505 15.01 15.75C14.9114 15.751 14.8135 15.7321 14.7224 15.6943C14.6314 15.6565 14.5489 15.6006 14.48 15.53L11.26 12.31V5.98001C11.26 5.7811 11.339 5.59033 11.4797 5.44968C11.6203 5.30902 11.8111 5.23001 12.01 5.23001C12.2089 5.23001 12.3997 5.30902 12.5403 5.44968C12.681 5.59033 12.76 5.7811 12.76 5.98001V11.67L15.54 14.45C15.6125 14.52 15.6703 14.6038 15.7098 14.6966C15.7492 14.7894 15.7695 14.8892 15.7695 14.99C15.7695 15.0908 15.7492 15.1906 15.7098 15.2834C15.6703 15.3762 15.6125 15.46 15.54 15.53Z" fill="black"/>
</svg>
