<svg width="24" height="24" viewBox="0 0 24 24" fill="none" xmlns="http://www.w3.org/2000/svg">
<path d="M11.999 3C9.61289 3.0021 7.32526 3.9517 5.63905 5.64001C5.60046 5.67532 5.56678 5.71568 5.53901 5.76001C3.90738 7.42681 2.99531 9.66752 2.99903 12C2.99903 14.3869 3.94725 16.6761 5.63508 18.364C7.32291 20.0518 9.61209 21 11.999 21C14.3348 21.0053 16.5792 20.0932 18.249 18.46L18.369 18.36C19.6267 17.1008 20.4828 15.4969 20.8291 13.7512C21.1754 12.0055 20.9964 10.1963 20.3146 8.55231C19.6328 6.90834 18.4789 5.50342 16.9988 4.51514C15.5187 3.52686 13.7788 2.99959 11.999 3ZM11.999 19.5C10.5804 19.4971 9.19155 19.0925 7.99336 18.333C6.79517 17.5735 5.83664 16.4901 5.22871 15.2083C4.62078 13.9265 4.38834 12.4988 4.5583 11.0903C4.72826 9.6819 5.29364 8.35038 6.18904 7.25L16.749 17.8C15.4124 18.9033 13.7322 19.5047 11.999 19.5ZM17.809 16.74L7.25904 6.20001C8.59215 5.0974 10.269 4.49597 11.999 4.5C13.9891 4.5 15.8977 5.28987 17.3059 6.69611C18.714 8.10234 19.5064 10.01 19.509 12C19.5131 13.73 18.9116 15.4069 17.809 16.74Z" fill="black"/>
</svg>
