<svg width="24" height="24" viewBox="0 0 24 24" fill="none" xmlns="http://www.w3.org/2000/svg">
<path d="M19.24 4.75847C17.5649 3.08375 15.361 2.04154 13.0038 1.80934C10.6465 1.57715 8.28169 2.16935 6.31205 3.48506C4.34241 4.80078 2.88977 6.75863 2.20164 9.02513C1.5135 11.2916 1.6324 13.7266 2.53806 15.9153C3.44373 18.104 5.08017 19.911 7.16862 21.0286C9.25706 22.1462 11.6684 22.5052 13.9918 22.0445C16.3152 21.5837 18.407 20.3318 19.911 18.5018C21.415 16.6719 22.238 14.3771 22.24 12.0085C22.2438 10.6617 21.9807 9.32758 21.4657 8.08316C20.9508 6.83874 20.1943 5.70872 19.24 4.75847ZM12 19.4385C10.8793 19.4394 9.77297 19.1872 8.76347 18.7006C7.75396 18.214 6.86742 17.5057 6.17002 16.6285C6.06601 16.472 6.02451 16.2822 6.05375 16.0966C6.08299 15.911 6.18083 15.7431 6.32792 15.6262C6.47501 15.5093 6.66064 15.4518 6.84806 15.4652C7.03548 15.4786 7.21103 15.5618 7.34 15.6985C7.89856 16.3957 8.60578 16.9595 9.41001 17.3485C10.2184 17.7362 11.1034 17.9378 12 17.9385C12.1989 17.9385 12.3897 18.0175 12.5303 18.1581C12.671 18.2988 12.75 18.4896 12.75 18.6885C12.75 18.8874 12.671 19.0782 12.5303 19.2188C12.3897 19.3595 12.1989 19.4385 12 19.4385ZM12 15.1285C11.3829 15.1285 10.7797 14.9455 10.2666 14.6027C9.75356 14.2598 9.35362 13.7726 9.11747 13.2025C8.88132 12.6323 8.81953 12.005 8.93992 11.3998C9.0603 10.7946 9.35746 10.2386 9.7938 9.80231C10.2301 9.36597 10.7861 9.06881 11.3913 8.94843C11.9966 8.82804 12.6238 8.88983 13.1939 9.12598C13.7641 9.36212 14.2513 9.76202 14.5942 10.2751C14.937 10.7882 15.12 11.3914 15.12 12.0085C15.12 12.8359 14.7913 13.6295 14.2062 14.2146C13.621 14.7998 12.8275 15.1285 12 15.1285ZM18.61 10.8285C18.537 10.8389 18.463 10.8389 18.39 10.8285C18.2303 10.8286 18.0748 10.777 17.9469 10.6815C17.8189 10.586 17.7253 10.4516 17.68 10.2985C17.4076 9.36152 16.9083 8.50624 16.2262 7.80849C15.5442 7.11074 14.7005 6.59207 13.77 6.29848C13.5866 6.23382 13.4354 6.10043 13.3484 5.92645C13.2615 5.75248 13.2455 5.55153 13.3039 5.366C13.3623 5.18047 13.4904 5.02488 13.6614 4.93205C13.8323 4.83923 14.0326 4.81643 14.22 4.86847C15.3834 5.23097 16.4383 5.87702 17.29 6.74848C18.1406 7.61776 18.7654 8.68208 19.11 9.84848C19.1523 9.94695 19.1727 10.0534 19.1698 10.1606C19.167 10.2677 19.1408 10.3729 19.0933 10.469C19.0458 10.565 18.9779 10.6496 18.8944 10.7169C18.811 10.7841 18.7139 10.8324 18.61 10.8585V10.8285Z" fill="black"/>
</svg>
