<svg width="24" height="24" viewBox="0 0 24 24" fill="none" xmlns="http://www.w3.org/2000/svg">
<path d="M17.795 6.91006H16.085V5.31008C16.0882 4.64031 15.8257 3.99662 15.355 3.52011C15.1221 3.2851 14.8447 3.09867 14.5392 2.97164C14.2336 2.84462 13.9059 2.77946 13.575 2.78005H6.205C5.87544 2.77855 5.54897 2.8433 5.24491 2.97042C4.94086 3.09754 4.6654 3.28449 4.43498 3.52011C4.19877 3.75425 4.01169 4.03312 3.88462 4.34048C3.75756 4.64784 3.69306 4.9775 3.69499 5.31008V14.5401C3.69757 15.2068 3.96221 15.8458 4.4318 16.3192C4.9014 16.7925 5.53829 17.0622 6.205 17.0701H7.91502V18.6901C7.9137 19.021 7.97758 19.349 8.10301 19.6552C8.22844 19.9615 8.41296 20.24 8.64604 20.4749C8.87911 20.7099 9.15617 20.8966 9.46141 21.0244C9.76665 21.1523 10.094 21.2187 10.425 21.2201H17.795C18.126 21.2187 18.4533 21.1523 18.7586 21.0244C19.0638 20.8966 19.3409 20.7099 19.574 20.4749C19.807 20.24 19.9916 19.9615 20.117 19.6552C20.2424 19.349 20.3063 19.021 20.305 18.6901V9.46011C20.3076 9.12786 20.2448 8.79835 20.1201 8.49038C19.9954 8.18242 19.8112 7.90204 19.5782 7.66525C19.3451 7.42846 19.0677 7.23988 18.7617 7.11032C18.4557 6.98075 18.1273 6.91268 17.795 6.91006ZM14.585 6.91006H10.425C9.75744 6.91534 9.11906 7.18427 8.64891 7.65817C8.17876 8.13206 7.915 8.77254 7.91502 9.44009V15.5501H6.205C6.07269 15.5495 5.9418 15.5227 5.81993 15.4712C5.69805 15.4197 5.58759 15.3446 5.49498 15.2501C5.39806 15.1551 5.32151 15.0414 5.26994 14.9159C5.21836 14.7904 5.19285 14.6558 5.19499 14.5201V5.31008C5.19285 5.17442 5.21836 5.03971 5.26994 4.91421C5.32151 4.78871 5.39806 4.67507 5.49498 4.5801C5.58759 4.48562 5.69805 4.41041 5.81993 4.35891C5.9418 4.30742 6.07269 4.2806 6.205 4.28005H13.575C13.7073 4.2806 13.8382 4.30742 13.9601 4.35891C14.0819 4.41041 14.1924 4.48562 14.285 4.5801C14.3819 4.67507 14.4585 4.78871 14.5101 4.91421C14.5616 5.03971 14.5871 5.17442 14.585 5.31008V6.91006Z" fill="black"/>
</svg>
