<svg width="24" height="24" viewBox="0 0 24 24" fill="none" xmlns="http://www.w3.org/2000/svg">
<path d="M20.4063 10.3772C19.8941 9.86573 19.2013 9.57642 18.4775 9.57187H16.2404V9.32331C16.2378 9.12634 16.1585 8.93817 16.0192 8.79888C15.8799 8.65959 15.6917 8.5802 15.4947 8.57762H3.56373C3.36596 8.57762 3.17622 8.65618 3.03638 8.79602C2.89654 8.93587 2.81804 9.12554 2.81804 9.32331V17.2773C2.81804 18.5298 3.3156 19.7311 4.20128 20.6168C5.08695 21.5024 6.28819 22 7.54073 22H11.5177C12.1361 21.9979 12.7477 21.8729 13.3173 21.6321C13.8929 21.4022 14.416 21.0582 14.8551 20.6208C15.2943 20.1833 15.6404 19.6616 15.8725 19.0869V19.0172H18.4476C19.1714 19.0127 19.8643 18.7234 20.3764 18.2119C20.6315 17.9596 20.834 17.6592 20.9722 17.3281C21.1104 16.997 21.1817 16.6418 21.1818 16.2831V12.3061C21.1856 11.9494 21.1191 11.5954 20.986 11.2645C20.853 10.9335 20.6559 10.632 20.4063 10.3772ZM19.7203 16.2831C19.7172 16.6117 19.5851 16.9259 19.3524 17.158C19.2388 17.275 19.1027 17.3679 18.9524 17.4311C18.8021 17.4943 18.6406 17.5265 18.4775 17.5259H16.2305C16.2354 17.4431 16.2354 17.3601 16.2305 17.2773V11.0632H18.4675C18.7963 11.0658 19.1109 11.1976 19.3434 11.4301C19.576 11.6627 19.7077 11.9772 19.7103 12.3061L19.7203 16.2831Z" fill="black"/>
<path d="M5.94 7.5734C5.79262 7.57327 5.64852 7.52949 5.52602 7.44754C5.40351 7.36559 5.30799 7.24916 5.2516 7.11299C5.19522 6.97681 5.18053 6.827 5.20924 6.68243C5.23796 6.53787 5.30887 6.40507 5.41302 6.30079C5.4737 6.24185 5.52116 6.17066 5.55223 6.09198C5.57096 6.01018 5.57096 5.92521 5.55223 5.84341C5.57179 5.75836 5.57179 5.66996 5.55223 5.5849C5.52116 5.50622 5.4737 5.43509 5.41302 5.37615C5.01324 4.96974 4.78534 4.42493 4.77669 3.85491C4.77693 3.57127 4.83446 3.29063 4.94575 3.02973C5.05517 2.76683 5.21375 2.52721 5.41302 2.32379C5.47617 2.23176 5.55915 2.15506 5.65588 2.09938C5.75261 2.0437 5.86063 2.01048 5.97192 2.0021C6.08322 1.99373 6.19491 2.01044 6.29889 2.05101C6.40287 2.09159 6.49649 2.15498 6.5727 2.23653C6.64891 2.31807 6.70576 2.41569 6.73922 2.52217C6.77267 2.62865 6.78179 2.74126 6.76592 2.85174C6.75004 2.96222 6.70967 3.06769 6.64758 3.16044C6.5855 3.25319 6.50336 3.33086 6.40727 3.38765C6.3466 3.44659 6.29913 3.51772 6.26806 3.5964C6.25301 3.68191 6.25301 3.7694 6.26806 3.85491C6.25397 3.93717 6.25397 4.02122 6.26806 4.10348C6.30487 4.1844 6.35534 4.25842 6.41722 4.32224C6.61828 4.52086 6.77725 4.75787 6.88486 5.0192C6.99246 5.28053 7.04651 5.56081 7.04361 5.84341C7.04755 6.12706 6.99299 6.40848 6.88352 6.67018C6.77405 6.93187 6.612 7.16829 6.40727 7.36465C6.28203 7.48868 6.11596 7.56285 5.94 7.5734Z" fill="black"/>
<path d="M9.17131 7.5734C8.97522 7.57481 8.78623 7.49998 8.64433 7.36465C8.50469 7.22483 8.42623 7.03527 8.42623 6.83766C8.42623 6.64006 8.50469 6.45056 8.64433 6.31074C8.70778 6.24954 8.75817 6.17615 8.79264 6.09501C8.82711 6.01387 8.84495 5.9266 8.84495 5.83844C8.84495 5.75028 8.82711 5.66307 8.79264 5.58193C8.75817 5.50078 8.70778 5.4274 8.64433 5.36619C8.44626 5.16762 8.29057 4.93081 8.18689 4.67021C8.07556 4.41107 8.01819 4.13197 8.01819 3.84994C8.01819 3.5679 8.07556 3.28886 8.18689 3.02973C8.29631 2.76683 8.45501 2.52721 8.65428 2.32379C8.71743 2.23176 8.80041 2.15506 8.89714 2.09938C8.99387 2.0437 9.10188 2.01048 9.21318 2.0021C9.32448 1.99373 9.43617 2.01044 9.54015 2.05101C9.64413 2.09159 9.73775 2.15498 9.81396 2.23653C9.89017 2.31807 9.94702 2.41569 9.98047 2.52217C10.0139 2.62865 10.0231 2.74126 10.0072 2.85174C9.9913 2.96222 9.95093 3.06769 9.88884 3.16044C9.82675 3.25319 9.74462 3.33086 9.64853 3.38765C9.58785 3.44659 9.54039 3.51772 9.50932 3.5964C9.49427 3.68191 9.49427 3.7694 9.50932 3.85491C9.49522 3.93717 9.49522 4.02122 9.50932 4.10348C9.54613 4.1844 9.5966 4.25842 9.65848 4.32224C10.0598 4.7248 10.2851 5.27001 10.2851 5.83844C10.2851 6.40687 10.0598 6.95214 9.65848 7.35469C9.52922 7.48605 9.35537 7.56408 9.17131 7.5734Z" fill="black"/>
<path d="M12.6412 7.57342C12.4938 7.57329 12.3497 7.52951 12.2272 7.44756C12.1047 7.36562 12.0092 7.24919 11.9528 7.11301C11.8964 6.97683 11.8818 6.82702 11.9105 6.68246C11.9392 6.53789 12.0101 6.4051 12.1142 6.30081C12.1749 6.24187 12.2224 6.17068 12.2535 6.092C12.2722 6.0102 12.2722 5.92523 12.2535 5.84344C12.273 5.75838 12.273 5.66998 12.2535 5.58492C12.2224 5.50624 12.1749 5.43511 12.1142 5.37617C11.7109 4.97213 11.4824 4.42581 11.4779 3.85494C11.475 3.56996 11.5298 3.28734 11.6392 3.02417C11.7486 2.761 11.9102 2.52275 12.1142 2.32381C12.2541 2.18417 12.4436 2.10571 12.6412 2.10571C12.8388 2.10571 13.0283 2.18417 13.1681 2.32381C13.3077 2.46363 13.3862 2.65313 13.3862 2.85073C13.3862 3.04834 13.3077 3.2379 13.1681 3.37771C13.0987 3.4351 13.0471 3.5109 13.019 3.59642C13.0032 3.67852 13.0032 3.76289 13.019 3.84498C13.005 3.92724 13.005 4.01129 13.019 4.09355C13.0523 4.1764 13.1031 4.25106 13.1681 4.31231C13.371 4.50953 13.5314 4.74628 13.6391 5.00794C13.7469 5.26959 13.7997 5.55056 13.7945 5.83348C13.7955 6.11628 13.7416 6.39659 13.6355 6.65873C13.5222 6.91658 13.3639 7.15225 13.1681 7.35472C13.0272 7.4928 12.8385 7.57113 12.6412 7.57342Z" fill="black"/>
</svg>
