<svg width="24" height="24" viewBox="0 0 24 24" fill="none" xmlns="http://www.w3.org/2000/svg">
<path d="M12 2.25C10.0716 2.25 8.18655 2.82184 6.58317 3.89319C4.97979 4.96453 3.73012 6.48728 2.99216 8.26886C2.25421 10.0504 2.06115 12.0108 2.43735 13.9021C2.81356 15.7934 3.74213 17.5307 5.10569 18.8943C6.46925 20.2578 8.20656 21.1864 10.0979 21.5627C11.9892 21.9389 13.9496 21.7458 15.7312 21.0078C17.5128 20.2699 19.0355 19.0202 20.1068 17.4168C21.1782 15.8134 21.75 13.9284 21.75 12C21.7473 9.41495 20.7193 6.93655 18.8914 5.10864C17.0635 3.28074 14.585 2.25265 12 2.25ZM11.28 6.98001C11.28 6.7811 11.359 6.59033 11.4997 6.44968C11.6403 6.30902 11.8311 6.23001 12.03 6.23001C12.2289 6.23001 12.4197 6.30902 12.5603 6.44968C12.701 6.59033 12.78 6.7811 12.78 6.98001V12.98C12.78 13.1789 12.701 13.3697 12.5603 13.5103C12.4197 13.651 12.2289 13.73 12.03 13.73C11.8311 13.73 11.6403 13.651 11.4997 13.5103C11.359 13.3697 11.28 13.1789 11.28 12.98V6.98001ZM12.08 17.3C11.8822 17.3 11.6889 17.2414 11.5245 17.1315C11.36 17.0216 11.2318 16.8654 11.1561 16.6827C11.0804 16.5 11.0606 16.2989 11.0992 16.1049C11.1378 15.9109 11.233 15.7327 11.3729 15.5929C11.5128 15.453 11.6909 15.3578 11.8849 15.3192C12.0789 15.2806 12.28 15.3004 12.4627 15.3761C12.6454 15.4518 12.8016 15.58 12.9115 15.7444C13.0214 15.9089 13.08 16.1022 13.08 16.3C13.0828 16.4364 13.0577 16.572 13.0062 16.6984C12.9547 16.8247 12.8779 16.9392 12.7804 17.0348C12.683 17.1303 12.5671 17.2049 12.4397 17.254C12.3124 17.303 12.1764 17.3255 12.04 17.32L12.08 17.3Z" fill="black"/>
</svg>
