<svg width="24" height="24" viewBox="0 0 24 24" fill="none" xmlns="http://www.w3.org/2000/svg">
<path d="M20.27 7.20959C20.0452 6.84727 19.7321 6.54791 19.3601 6.33957L13.22 2.78958C12.8475 2.58021 12.4273 2.47021 12 2.47021C11.5727 2.47021 11.1526 2.58021 10.78 2.78958L4.58002 6.33957C4.21312 6.55653 3.90696 6.86268 3.69001 7.22958C3.47956 7.60171 3.36929 8.02208 3.37 8.44958V15.5596C3.37475 15.9935 3.49564 16.4182 3.72004 16.7896C3.94783 17.1495 4.26023 17.4482 4.63001 17.6596L10.77 21.1996C11.143 21.4179 11.5678 21.5318 12 21.5296C12.4259 21.5317 12.8442 21.4176 13.21 21.1996L19.41 17.6496C19.7791 17.4355 20.086 17.1287 20.3001 16.7596C20.5091 16.3864 20.6224 15.9673 20.63 15.5396V8.43958C20.618 8.0054 20.494 7.58172 20.27 7.20959ZM11.27 6.99957C11.27 6.80066 11.349 6.60992 11.4897 6.46927C11.6303 6.32862 11.8211 6.24957 12.02 6.24957C12.2189 6.24957 12.4097 6.32862 12.5504 6.46927C12.691 6.60992 12.77 6.80066 12.77 6.99957V12.9996C12.77 13.1985 12.691 13.3893 12.5504 13.5299C12.4097 13.6706 12.2189 13.7496 12.02 13.7496C11.8211 13.7496 11.6303 13.6706 11.4897 13.5299C11.349 13.3893 11.27 13.1985 11.27 12.9996V6.99957ZM12.07 17.3196C11.8722 17.3196 11.6789 17.2609 11.5145 17.1511C11.35 17.0412 11.2218 16.885 11.1461 16.7023C11.0704 16.5195 11.0507 16.3185 11.0892 16.1245C11.1278 15.9305 11.2231 15.7523 11.3629 15.6125C11.5028 15.4726 11.681 15.3774 11.8749 15.3388C12.0689 15.3002 12.27 15.32 12.4527 15.3957C12.6354 15.4714 12.7916 15.5996 12.9015 15.764C13.0114 15.9285 13.07 16.1218 13.07 16.3196C13.07 16.4526 13.0435 16.5843 12.992 16.7069C12.9405 16.8296 12.8651 16.9407 12.7701 17.0338C12.6751 17.127 12.5625 17.2002 12.4388 17.2493C12.3152 17.2983 12.183 17.3222 12.0501 17.3196H12.07Z" fill="black"/>
</svg>
