<svg width="24" height="24" viewBox="0 0 24 24" fill="none" xmlns="http://www.w3.org/2000/svg">
<path d="M20.6054 14.7206C20.1119 16.1459 19.265 17.4227 18.144 18.4318C17.023 19.4409 15.6644 20.1492 14.1953 20.4906C13.5392 20.6409 12.8684 20.7181 12.1953 20.7206C10.0845 20.7242 8.04088 19.9782 6.42871 18.6156C4.81655 17.253 3.74053 15.3623 3.39234 13.2804C3.04415 11.1984 3.44641 9.06045 4.52747 7.24743C5.60853 5.43441 7.29814 4.06408 9.29529 3.38061C9.58 3.27644 9.88781 3.25223 10.1853 3.3106C10.4884 3.37466 10.7684 3.51984 10.9954 3.73062C11.2238 3.93997 11.387 4.2108 11.4653 4.51061C11.5504 4.81138 11.5504 5.12986 11.4653 5.43063C11.068 6.58036 11.0434 7.82616 11.3953 8.99063C11.6401 9.85636 12.1021 10.6452 12.7374 11.2822C13.3727 11.9193 14.1602 12.3834 15.0253 12.6306C16.187 12.9776 17.4282 12.9531 18.5753 12.5606C18.8795 12.4757 19.2012 12.4757 19.5054 12.5606C19.8071 12.6413 20.0804 12.804 20.2953 13.0306C20.5068 13.2557 20.6492 13.5369 20.7053 13.8406C20.7589 14.1374 20.7241 14.4434 20.6054 14.7206Z" fill="black"/>
</svg>
