<svg width="24" height="24" viewBox="0 0 24 24" fill="none" xmlns="http://www.w3.org/2000/svg">
<path d="M10.9999 4.67999V8.56C10.9986 9.20929 10.7397 9.83151 10.2799 10.29C10.0546 10.5164 9.78637 10.6958 9.49109 10.8177C9.19581 10.9396 8.87926 11.0016 8.55981 11H4.67981C4.03442 10.9974 3.41637 10.7391 2.96094 10.2818C2.50551 9.82451 2.24987 9.2054 2.24988 8.56V4.69C2.24987 4.0446 2.50551 3.42549 2.96094 2.96819C3.41637 2.51088 4.03442 2.25265 4.67981 2.25H8.55981C9.20521 2.24999 9.82431 2.50569 10.2816 2.96112C10.7389 3.41655 10.9972 4.0346 10.9999 4.67999Z" fill="black"/>
<path d="M21.7499 4.69V8.56C21.7515 8.87944 21.6894 9.19601 21.5676 9.49129C21.4457 9.78657 21.2663 10.0547 21.0398 10.28C20.8164 10.5096 20.5489 10.6917 20.2533 10.8154C19.9578 10.9392 19.6403 11.0019 19.3199 11H15.4399C14.7955 10.9987 14.1776 10.7436 13.7199 10.29C13.49 10.0647 13.3078 9.79538 13.1841 9.49817C13.0604 9.20096 12.9978 8.88191 12.9999 8.56V4.69C12.9986 4.36969 13.0615 4.05236 13.1852 3.75688C13.3089 3.46141 13.4908 3.19382 13.7199 2.97C13.9447 2.74221 14.2125 2.56127 14.5077 2.43768C14.803 2.31409 15.1198 2.25031 15.4399 2.25H19.3199C19.9653 2.25265 20.5833 2.51088 21.0387 2.96819C21.4942 3.42549 21.7499 4.0446 21.7499 4.69Z" fill="black"/>
<path d="M10.9999 15.45V19.32C10.9973 19.9654 10.7389 20.5835 10.2816 21.0389C9.82434 21.4943 9.20524 21.75 8.55984 21.75H4.67984C4.03544 21.7487 3.41752 21.4936 2.95987 21.04C2.73343 20.8147 2.55405 20.5466 2.43216 20.2513C2.31027 19.956 2.24835 19.6394 2.24991 19.32V15.45C2.24835 15.1306 2.31027 14.814 2.43216 14.5187C2.55405 14.2234 2.73343 13.9553 2.95987 13.73C3.41549 13.2708 4.03303 13.0087 4.67984 13H8.55984C9.20708 13.0053 9.82625 13.2654 10.283 13.724C10.7397 14.1826 10.9973 14.8027 10.9999 15.45Z" fill="black"/>
<path d="M21.7501 17.38C21.7481 18.2435 21.4903 19.087 21.0094 19.8041C20.5285 20.5212 19.846 21.0797 19.0479 21.4093C18.2498 21.7388 17.3719 21.8245 16.5251 21.6555C15.6784 21.4866 14.9006 21.0706 14.29 20.46C13.6795 19.8495 13.2635 19.0718 13.0946 18.225C12.9257 17.3782 13.0113 16.5004 13.3408 15.7023C13.6703 14.9042 14.2289 14.2216 14.946 13.7406C15.6632 13.2597 16.5067 13.002 17.3701 13C18.5333 13.0033 19.6479 13.4671 20.4701 14.29C20.8768 14.6951 21.1993 15.1767 21.4189 15.7071C21.6386 16.2374 21.7512 16.806 21.7501 17.38Z" fill="black"/>
</svg>
