<svg width="24" height="24" viewBox="0 0 24 24" fill="none" xmlns="http://www.w3.org/2000/svg">
<path d="M20.84 4.60004V10.08C20.8374 10.424 20.6995 10.7532 20.4563 10.9964C20.2131 11.2396 19.8839 11.3774 19.5399 11.38H4.45996C4.11518 11.38 3.78445 11.2431 3.54065 10.9993C3.29685 10.7555 3.15991 10.4248 3.15991 10.08V4.60004C3.15991 4.25526 3.29685 3.92461 3.54065 3.68082C3.78445 3.43702 4.11518 3.30005 4.45996 3.30005H19.5399C19.8847 3.30005 20.2154 3.43702 20.4592 3.68082C20.703 3.92461 20.84 4.25526 20.84 4.60004Z" fill="black"/>
<path d="M9.93991 12.62H4.4599C3.74193 12.62 3.15991 13.202 3.15991 13.92V19.4C3.15991 20.118 3.74193 20.7 4.4599 20.7H9.93991C10.6579 20.7 11.2399 20.118 11.2399 19.4V13.92C11.2399 13.202 10.6579 12.62 9.93991 12.62Z" fill="black"/>
<path d="M19.26 12.62H13.78C13.062 12.62 12.48 13.202 12.48 13.92V19.4C12.48 20.118 13.062 20.7 13.78 20.7H19.26C19.9779 20.7 20.56 20.118 20.56 19.4V13.92C20.56 13.202 19.9779 12.62 19.26 12.62Z" fill="black"/>
</svg>
