<svg width="24" height="24" viewBox="0 0 24 24" fill="none" xmlns="http://www.w3.org/2000/svg">
<path d="M11 4.68001V8.56002C10.9987 9.20931 10.7398 9.83154 10.28 10.29C10.0532 10.5172 9.78345 10.697 9.48643 10.8189C9.18942 10.9408 8.87108 11.0023 8.55003 11H4.68004C4.03464 10.9974 3.41659 10.7391 2.96117 10.2818C2.50574 9.82453 2.24998 9.20542 2.24998 8.56002V4.69002C2.24998 4.04462 2.50574 3.42551 2.96117 2.96821C3.41659 2.5109 4.03464 2.25267 4.68004 2.25002H8.55003C8.87046 2.2487 9.18807 2.31051 9.4846 2.43192C9.78114 2.55333 10.0508 2.73195 10.2783 2.9576C10.5058 3.18325 10.6867 3.4515 10.8105 3.74703C10.9344 4.04256 10.9987 4.35959 11 4.68001Z" fill="black"/>
<path d="M21.75 4.69V8.56C21.7487 9.20439 21.4937 9.82235 21.04 10.28C20.8166 10.5096 20.5491 10.6917 20.2535 10.8154C19.958 10.9392 19.6405 11.0019 19.3201 11H15.4401C14.7933 10.996 14.1732 10.7415 13.7101 10.29C13.4838 10.0625 13.3046 9.79257 13.1827 9.49571C13.0609 9.19885 12.9988 8.88088 13 8.56V4.69C12.9986 4.36969 13.0617 4.05236 13.1854 3.75688C13.3091 3.46141 13.491 3.19382 13.7201 2.97C13.9449 2.74221 14.2127 2.56127 14.5079 2.43768C14.8032 2.31409 15.12 2.25031 15.4401 2.25H19.3101C19.9556 2.25523 20.5732 2.51397 21.0297 2.97043C21.4861 3.42689 21.7448 4.04449 21.75 4.69Z" fill="black"/>
<path d="M11 15.45V19.32C10.995 19.9656 10.7364 20.5834 10.28 21.04C10.0525 21.2663 9.78259 21.4455 9.48573 21.5673C9.18887 21.6891 8.87095 21.7512 8.55006 21.75H4.68007C4.03567 21.7487 3.41775 21.4936 2.9601 21.04C2.73366 20.8147 2.55427 20.5466 2.43239 20.2513C2.3105 19.956 2.24846 19.6394 2.25001 19.32V15.45C2.24846 15.1306 2.3105 14.814 2.43239 14.5187C2.55427 14.2234 2.73366 13.9553 2.9601 13.73C3.41572 13.2708 4.03326 13.0087 4.68007 13H8.55006C9.19903 13.0026 9.82066 13.2616 10.2796 13.7205C10.7384 14.1794 10.9974 14.801 11 15.45Z" fill="black"/>
<path d="M20.4202 19.37C20.5606 19.5107 20.6395 19.7013 20.6395 19.9C20.6395 20.0988 20.5606 20.2894 20.4202 20.43C20.2795 20.5705 20.0889 20.6494 19.8901 20.6494C19.6914 20.6494 19.5008 20.5705 19.3602 20.43L17.3602 18.43L15.3602 20.43C15.291 20.5002 15.2084 20.5557 15.1174 20.5935C15.0264 20.6313 14.9287 20.6505 14.8302 20.65C14.7314 20.6523 14.6332 20.6339 14.542 20.596C14.4507 20.5581 14.3683 20.5016 14.3002 20.43C14.2294 20.3611 14.1731 20.2787 14.1348 20.1877C14.0964 20.0966 14.0766 19.9988 14.0766 19.9C14.0766 19.8012 14.0964 19.7035 14.1348 19.6124C14.1731 19.5214 14.2294 19.439 14.3002 19.37L16.3002 17.37L14.3002 15.37C14.2294 15.3011 14.1731 15.2187 14.1348 15.1277C14.0964 15.0366 14.0766 14.9388 14.0766 14.84C14.0766 14.7412 14.0964 14.6435 14.1348 14.5524C14.1731 14.4614 14.2294 14.379 14.3002 14.31C14.4408 14.1696 14.6314 14.0907 14.8302 14.0907C15.0289 14.0907 15.2196 14.1696 15.3602 14.31L17.3602 16.31L19.3602 14.31C19.5024 14.1776 19.6903 14.1054 19.8846 14.1089C20.0789 14.1123 20.2644 14.191 20.4018 14.3284C20.5393 14.4658 20.6179 14.6512 20.6213 14.8455C20.6248 15.0398 20.5526 15.2279 20.4202 15.37L18.4202 17.37L20.4202 19.37Z" fill="black"/>
</svg>
