<svg width="24" height="24" viewBox="0 0 24 24" fill="none" xmlns="http://www.w3.org/2000/svg">
<path d="M15.21 2.00007H8.75C6.9606 2.00271 5.24525 2.71475 3.97995 3.98005C2.71465 5.24534 2.00265 6.96067 2 8.75007V15.2501C2.00265 17.0395 2.71465 18.7548 3.97995 20.0201C5.24525 21.2854 6.9606 21.9974 8.75 22.0001H15.25C17.0394 21.9974 18.7548 21.2854 20.0201 20.0201C21.2853 18.7548 21.9974 17.0395 22 15.2501V8.75007C21.9987 7.86064 21.8219 6.98021 21.4797 6.15925C21.1375 5.33828 20.6367 4.59294 20.0059 3.96589C19.3751 3.33883 18.6268 2.8424 17.8038 2.50507C16.9809 2.16774 16.0994 1.99612 15.21 2.00007ZM17.1 12.6901H16.96C16.7839 12.6884 16.6139 12.6258 16.4789 12.5127C16.3439 12.3996 16.2524 12.2431 16.22 12.0701L16.04 11.0701L14.73 13.0701C14.4832 13.4375 14.1035 13.6948 13.6709 13.7881C13.2382 13.8813 12.7862 13.8032 12.41 13.5701L10.14 12.1301C10.0982 12.1139 10.0518 12.1139 10.01 12.1301C9.9578 12.1385 9.91106 12.1673 9.88 12.2101L7.56 15.3001C7.4891 15.3921 7.39828 15.4669 7.29437 15.5189C7.19046 15.5708 7.07615 15.5986 6.95999 15.6001C6.7976 15.6008 6.63949 15.5481 6.51001 15.4501C6.36479 15.3321 6.26887 15.1642 6.24112 14.9792C6.21337 14.7942 6.25576 14.6054 6.35999 14.4501L8.67999 11.3601C8.93538 11.0228 9.30677 10.7921 9.72235 10.7127C10.1379 10.6332 10.5682 10.7107 10.93 10.9301L13.21 12.3701C13.2566 12.3932 13.3096 12.3999 13.3605 12.389C13.4113 12.3781 13.457 12.3502 13.49 12.3101L14.83 10.3101L13.75 10.4601C13.6528 10.4785 13.553 10.4775 13.4561 10.4573C13.3593 10.4371 13.2674 10.3981 13.1857 10.3424C13.104 10.2866 13.0341 10.2154 12.9799 10.1326C12.9257 10.0499 12.8884 9.95729 12.87 9.86011C12.8516 9.76293 12.8525 9.66305 12.8727 9.56623C12.8929 9.46941 12.932 9.37756 12.9877 9.29584C13.0434 9.21413 13.1147 9.14415 13.1975 9.08997C13.2802 9.0358 13.3728 8.99849 13.47 8.98011L16.23 8.4701H16.41H16.59C16.6159 8.46095 16.6441 8.46095 16.67 8.4701L16.82 8.55012L16.97 8.67011C17.0057 8.71286 17.0359 8.75984 17.06 8.81006C17.0885 8.85623 17.1088 8.907 17.12 8.96009L17.64 11.7601C17.6671 11.8566 17.6745 11.9576 17.6619 12.0571C17.6492 12.1565 17.6168 12.2524 17.5664 12.3391C17.5161 12.4258 17.4489 12.5016 17.3688 12.5618C17.2887 12.6221 17.1973 12.6657 17.1 12.6901Z" fill="black"/>
</svg>
