<svg width="24" height="24" viewBox="0 0 24 24" fill="none" xmlns="http://www.w3.org/2000/svg">
<path d="M10.995 4.67993V8.55994C10.995 8.88121 10.9315 9.19931 10.8082 9.496C10.685 9.79269 10.5044 10.0621 10.2767 10.2888C10.0491 10.5155 9.779 10.695 9.48181 10.8171C9.18462 10.9391 8.86619 11.0013 8.54492 10.9999H4.68493C4.36454 11.0019 4.04702 10.9391 3.75146 10.8154C3.45591 10.6917 3.18843 10.5095 2.96496 10.2799C2.73853 10.0546 2.55914 9.78651 2.43725 9.49123C2.31537 9.19595 2.25333 8.87938 2.25488 8.55994V4.68994C2.25488 4.04454 2.51063 3.42543 2.96606 2.96812C3.42149 2.51082 4.03954 2.25258 4.68493 2.24994H8.55493C8.87499 2.25025 9.19182 2.31403 9.48706 2.43762C9.7823 2.56121 10.0501 2.74215 10.2749 2.96994C10.5028 3.19258 10.684 3.45855 10.8076 3.75221C10.9313 4.04588 10.995 4.3613 10.995 4.67993Z" fill="black"/>
<path d="M21.7451 4.68994V8.55994C21.7399 9.20373 21.4825 9.81985 21.0282 10.276C20.5739 10.7322 19.9588 10.9921 19.3151 10.9999H15.4351C14.7882 10.996 14.1682 10.7415 13.7051 10.2899C13.4788 10.0624 13.2996 9.79251 13.1777 9.49565C13.0559 9.19879 12.9939 8.88082 12.9951 8.55994V4.68994C12.9937 4.36963 13.0567 4.05229 13.1804 3.75682C13.3041 3.46135 13.4859 3.19376 13.7151 2.96994C13.9399 2.74215 14.2077 2.56121 14.5029 2.43762C14.7982 2.31403 15.115 2.25025 15.4351 2.24994H19.305C19.9506 2.25517 20.5682 2.51391 21.0246 2.97037C21.4811 3.42683 21.7399 4.04443 21.7451 4.68994Z" fill="black"/>
<path d="M21.7452 15.44V19.31C21.74 19.9537 21.4825 20.5699 21.0282 21.026C20.5739 21.4822 19.9589 21.7421 19.3151 21.75H15.4351C14.7842 21.7566 14.1563 21.509 13.6851 21.06C13.4579 20.8331 13.2782 20.5633 13.1563 20.2663C13.0344 19.9693 12.9728 19.651 12.9751 19.33V15.4599C12.9738 15.1396 13.0367 14.8223 13.1604 14.5268C13.2841 14.2314 13.466 13.9638 13.6951 13.7399C13.9199 13.5122 14.1877 13.3312 14.4829 13.2076C14.7782 13.0841 15.095 13.0203 15.4151 13.02H19.2851C19.9306 13.0252 20.5482 13.2839 21.0047 13.7404C21.4611 14.1968 21.7199 14.8144 21.7251 15.4599L21.7452 15.44Z" fill="black"/>
<path d="M10.995 15.4499V19.3199C10.9871 19.9654 10.7258 20.582 10.2674 21.0366C9.80911 21.4912 9.19045 21.7474 8.54491 21.7499H4.68493C4.36544 21.7513 4.04883 21.6893 3.75341 21.5677C3.45799 21.446 3.18965 21.2671 2.96374 21.0412C2.73783 20.8152 2.5589 20.5468 2.43725 20.2514C2.3156 19.956 2.25355 19.6394 2.25487 19.3199V15.4499C2.25745 14.8044 2.51366 14.1857 2.96825 13.7274C3.42284 13.2691 4.03943 13.0078 4.68493 12.9999H8.55492C9.20334 13.0055 9.82399 13.2638 10.2849 13.7199C10.741 14.1801 10.9964 14.8021 10.995 15.4499Z" fill="black"/>
</svg>
