<svg width="24" height="24" viewBox="0 0 24 24" fill="none" xmlns="http://www.w3.org/2000/svg">
<path d="M10.98 4.67999V8.56C10.9787 9.20929 10.7198 9.83151 10.26 10.29C10.0331 10.5172 9.7633 10.697 9.46629 10.8188C9.16928 10.9407 8.85093 11.0023 8.52989 11H4.6599C4.0145 10.9974 3.39645 10.7391 2.94102 10.2818C2.4856 9.82451 2.22996 9.2054 2.22997 8.56V4.69C2.22996 4.0446 2.4856 3.42549 2.94102 2.96819C3.39645 2.51088 4.0145 2.25265 4.6599 2.25H8.52989C9.17669 2.25396 9.79689 2.50844 10.26 2.95999C10.7164 3.41663 10.975 4.03439 10.98 4.67999Z" fill="black"/>
<path d="M21.73 4.69V8.56C21.7287 9.20439 21.4737 9.82235 21.02 10.28C20.7966 10.5096 20.529 10.6917 20.2334 10.8154C19.9379 10.9392 19.6203 11.0019 19.2999 11H15.46C14.8132 10.996 14.1931 10.7415 13.73 10.29C13.5037 10.0625 13.3245 9.79257 13.2026 9.49571C13.0808 9.19885 13.0188 8.88088 13.02 8.56V4.69C13.0187 4.36969 13.0816 4.05236 13.2053 3.75688C13.329 3.46141 13.5108 3.19382 13.74 2.97C13.9648 2.74221 14.2326 2.56127 14.5278 2.43768C14.8231 2.31409 15.1399 2.25031 15.46 2.25H19.33C19.9755 2.25523 20.5931 2.51397 21.0496 2.97043C21.506 3.42689 21.7648 4.04449 21.77 4.69H21.73Z" fill="black"/>
<path d="M10.98 15.45V19.32C10.9787 19.6404 10.9143 19.9575 10.7904 20.253C10.6666 20.5485 10.4857 20.8168 10.2582 21.0424C10.0307 21.2681 9.76103 21.4467 9.46449 21.5681C9.16795 21.6895 8.85035 21.7513 8.52992 21.75H4.65993C4.01553 21.7487 3.39761 21.4936 2.93995 21.04C2.71352 20.8147 2.53413 20.5466 2.41224 20.2513C2.29036 19.956 2.22844 19.6394 2.22999 19.32V15.45C2.22844 15.1306 2.29036 14.814 2.41224 14.5187C2.53413 14.2234 2.71352 13.9553 2.93995 13.73C3.39497 13.2699 4.0129 13.0077 4.65993 13H8.52992C9.17889 13.0026 9.80064 13.2616 10.2595 13.7205C10.7184 14.1794 10.9774 14.801 10.98 15.45Z" fill="black"/>
<path d="M21.66 17.39C21.6574 17.5881 21.5776 17.7774 21.4375 17.9175C21.2974 18.0576 21.1081 18.1374 20.91 18.14H18.0901V20.94C18.0901 21.1389 18.011 21.3297 17.8703 21.4703C17.7297 21.611 17.539 21.69 17.3401 21.69C17.1412 21.69 16.9503 21.611 16.8097 21.4703C16.669 21.3297 16.5901 21.1389 16.5901 20.94V18.14H13.79C13.5911 18.14 13.4004 18.061 13.2598 17.9203C13.1191 17.7797 13.04 17.5889 13.04 17.39C13.04 17.1911 13.1191 17.0003 13.2598 16.8597C13.4004 16.719 13.5911 16.64 13.79 16.64H16.5901V13.82C16.5901 13.6211 16.669 13.4303 16.8097 13.2897C16.9503 13.149 17.1412 13.07 17.3401 13.07C17.539 13.07 17.7297 13.149 17.8703 13.2897C18.011 13.4303 18.0901 13.6211 18.0901 13.82V16.64H20.91C21.1089 16.64 21.2998 16.719 21.4404 16.8597C21.5811 17.0003 21.66 17.1911 21.66 17.39Z" fill="black"/>
</svg>
