<svg width="24" height="24" viewBox="0 0 24 24" fill="none" xmlns="http://www.w3.org/2000/svg">
<path d="M21.75 4.69V8.56999C21.7515 8.88944 21.6896 9.206 21.5677 9.50128C21.4459 9.79656 21.2665 10.0647 21.04 10.29C20.5812 10.7418 19.964 10.9966 19.3201 11H4.68004C4.36056 11.0013 4.04394 10.9394 3.74853 10.8177C3.45311 10.6961 3.18476 10.5171 2.95885 10.2912C2.73294 10.0653 2.55401 9.7969 2.43236 9.50148C2.31071 9.20606 2.24867 8.88947 2.24999 8.56999V4.69C2.24998 4.0446 2.50574 3.42549 2.96117 2.96819C3.4166 2.51088 4.03465 2.25265 4.68004 2.25H19.3201C19.9661 2.25283 20.5846 2.51176 21.04 2.97C21.2665 3.19533 21.4459 3.46343 21.5677 3.75871C21.6896 4.05399 21.7515 4.37056 21.75 4.69Z" fill="black"/>
<path d="M11 15.43V19.32C11.0013 19.6395 10.9394 19.9561 10.8177 20.2515C10.6961 20.5469 10.5172 20.8153 10.2913 21.0412C10.0653 21.2671 9.797 21.4461 9.50158 21.5677C9.20616 21.6894 8.88954 21.7513 8.57006 21.75H4.68004C4.36056 21.7513 4.04394 21.6894 3.74853 21.5677C3.45311 21.4461 3.18476 21.2671 2.95885 21.0412C2.73294 20.8153 2.55401 20.5469 2.43236 20.2515C2.31071 19.9561 2.24867 19.6395 2.24999 19.32V15.44C2.24998 14.7946 2.50574 14.1755 2.96117 13.7182C3.4166 13.2609 4.03465 13.0026 4.68004 13H8.57006C8.88844 13.0016 9.20338 13.0661 9.49682 13.1896C9.79025 13.3132 10.0564 13.4934 10.28 13.72C10.734 14.1742 10.9924 14.7879 11 15.43Z" fill="black"/>
<path d="M21.75 15.44V19.32C21.7516 19.6394 21.6896 19.956 21.5677 20.2513C21.4459 20.5466 21.2665 20.8147 21.04 21.04C20.5812 21.4918 19.964 21.7466 19.3201 21.75H15.4301C14.7857 21.7487 14.1677 21.4936 13.7101 21.04C13.4836 20.8147 13.3043 20.5466 13.1824 20.2513C13.0605 19.956 12.9984 19.6394 13 19.32V15.44C13.0052 14.7962 13.2626 14.1801 13.7169 13.7239C14.1712 13.2677 14.7863 13.0078 15.4301 13H19.3201C19.9661 13.0028 20.5846 13.2618 21.04 13.72C21.2665 13.9453 21.4459 14.2134 21.5677 14.5087C21.6896 14.804 21.7516 15.1206 21.75 15.44Z" fill="black"/>
</svg>
