<svg width="24" height="24" viewBox="0 0 24 24" fill="none" xmlns="http://www.w3.org/2000/svg">
<path d="M11.38 4.61496V10.085C11.38 10.428 11.2444 10.7572 11.0028 11.0007C10.7612 11.2442 10.4331 11.3823 10.0901 11.3849H4.60999C4.26694 11.3823 3.9389 11.2442 3.69727 11.0007C3.45563 10.7572 3.32006 10.428 3.32007 10.085V4.61496C3.32006 4.2719 3.45563 3.94273 3.69727 3.69922C3.9389 3.45571 4.26694 3.31758 4.60999 3.31494H10.0901C10.4331 3.31758 10.7612 3.45571 11.0028 3.69922C11.2444 3.94273 11.38 4.2719 11.38 4.61496Z" fill="black"/>
<path d="M20.6799 4.61496V10.085C20.6799 10.428 20.5444 10.7572 20.3027 11.0007C20.0611 11.2442 19.7329 11.3823 19.3899 11.3849H13.9099C13.5669 11.3823 13.2388 11.2442 12.9972 11.0007C12.7556 10.7572 12.6199 10.428 12.6199 10.085V4.61496C12.6199 4.2719 12.7556 3.94273 12.9972 3.69922C13.2388 3.45571 13.5669 3.31758 13.9099 3.31494H19.3899C19.7329 3.31758 20.0611 3.45571 20.3027 3.69922C20.5444 3.94273 20.6799 4.2719 20.6799 4.61496Z" fill="black"/>
<path d="M11.38 13.915V19.385C11.38 19.728 11.2444 20.0572 11.0028 20.3007C10.7612 20.5442 10.4331 20.6824 10.0901 20.685H4.60999C4.26694 20.6824 3.9389 20.5442 3.69727 20.3007C3.45563 20.0572 3.32006 19.728 3.32007 19.385V13.915C3.32007 13.5728 3.45595 13.2447 3.69788 13.0028C3.9398 12.7609 4.26786 12.625 4.60999 12.625H10.0901C10.4322 12.625 10.7603 12.7609 11.0022 13.0028C11.2441 13.2447 11.38 13.5728 11.38 13.915Z" fill="black"/>
<path d="M20.6799 13.915V19.385C20.6799 19.728 20.5444 20.0572 20.3027 20.3007C20.0611 20.5442 19.7329 20.6824 19.3899 20.685H13.9099C13.5669 20.6824 13.2388 20.5442 12.9972 20.3007C12.7556 20.0572 12.6199 19.728 12.6199 19.385V13.915C12.6199 13.5728 12.7559 13.2447 12.9978 13.0028C13.2397 12.7609 13.5678 12.625 13.9099 12.625H19.3899C19.732 12.625 20.0602 12.7609 20.3021 13.0028C20.544 13.2447 20.6799 13.5728 20.6799 13.915Z" fill="black"/>
</svg>
