<svg width="24" height="24" viewBox="0 0 24 24" fill="none" xmlns="http://www.w3.org/2000/svg">
<path d="M18.6752 5.76459C18.6646 5.70958 18.6406 5.65806 18.6053 5.61459C18.5674 5.54255 18.5166 5.47813 18.4553 5.42459C18.0689 5.1055 17.6576 4.81789 17.2253 4.56458C16.902 4.36648 16.5682 4.18624 16.2253 4.0246C14.9161 3.45209 13.4926 3.1886 12.0653 3.25458C10.5625 3.18311 9.06441 3.47107 7.69526 4.09457C7.37878 4.23126 7.07155 4.38825 6.77533 4.56458C6.343 4.81789 5.93158 5.1055 5.54523 5.42459C5.48394 5.47813 5.43319 5.54255 5.39533 5.61459C5.35999 5.65806 5.33588 5.70958 5.32526 5.76459C5.28853 5.83906 5.2714 5.92163 5.27533 6.00458V17.0046C5.28417 17.4829 5.41497 17.951 5.65534 18.3646C5.89429 18.7806 6.23937 19.1256 6.65534 19.3646L6.77533 19.4246C8.37187 20.3279 10.1812 20.7872 12.0153 20.7546H12.2253C13.9763 20.7509 15.6974 20.3 17.2253 19.4446L17.3553 19.3746C17.7704 19.1345 18.1152 18.7897 18.3553 18.3746C18.5981 17.9589 18.7258 17.486 18.7253 17.0046V5.98459C18.726 5.90836 18.7088 5.83303 18.6752 5.76459ZM16.6153 16.3946C15.1634 17.0761 13.5792 17.4294 11.9753 17.4294C10.3714 17.4294 8.78717 17.0761 7.33527 16.3946C7.15263 16.2987 6.99946 16.155 6.89203 15.9789C6.78461 15.8028 6.72697 15.6009 6.72528 15.3946V14.2646C8.25531 15.3634 10.0916 15.9545 11.9753 15.9545C13.859 15.9545 15.6953 15.3634 17.2253 14.2646V15.3946C17.2236 15.6009 17.166 15.8028 17.0585 15.9789C16.9511 16.155 16.7979 16.2987 16.6153 16.3946ZM16.6153 12.3946C15.1634 13.0761 13.5792 13.4294 11.9753 13.4294C10.3714 13.4294 8.78717 13.0761 7.33527 12.3946C7.15263 12.2987 6.99946 12.155 6.89203 11.9789C6.78461 11.8028 6.72697 11.6009 6.72528 11.3946V10.2646C8.25531 11.3634 10.0916 11.9545 11.9753 11.9545C13.859 11.9545 15.6953 11.3634 17.2253 10.2646V11.3946C17.2236 11.6009 17.166 11.8028 17.0585 11.9789C16.9511 12.155 16.7979 12.2987 16.6153 12.3946ZM14.6153 9.28458C12.2954 9.82532 9.86094 9.56816 7.70527 8.5546C7.4366 8.43743 7.22284 8.2221 7.10761 7.95261C6.99238 7.68311 6.98437 7.37977 7.08527 7.10458C7.13512 6.9377 7.19529 6.77407 7.26532 6.61459C8.68911 7.47577 10.3213 7.931 11.9853 7.931C13.6493 7.931 15.2815 7.47577 16.7053 6.61459C16.7053 6.61459 16.8253 6.9346 16.9553 7.2746C17.0327 7.49565 17.0301 7.73685 16.9478 7.95615C16.8656 8.17545 16.709 8.35892 16.5053 8.47458C15.9166 8.83906 15.2759 9.11216 14.6053 9.28458H14.6153Z" fill="black"/>
</svg>
