<svg width="24" height="24" viewBox="0 0 24 24" fill="none" xmlns="http://www.w3.org/2000/svg">
<path d="M19.4489 4.89459V4.8046L19.3889 4.67459L19.2989 4.57458L19.2389 4.51459C17.1082 2.91695 14.5169 2.05334 11.8539 2.05334C9.19077 2.05334 6.59949 2.91695 4.46886 4.51459L4.37885 4.6046C4.35489 4.64249 4.33479 4.68269 4.31885 4.72459C4.30985 4.76409 4.30985 4.8051 4.31885 4.84459C4.30852 4.90078 4.30852 4.95839 4.31885 5.01459V17.7346C4.3231 18.2668 4.46655 18.7887 4.73496 19.2483C5.00337 19.708 5.38739 20.0894 5.84885 20.3546C7.71186 21.4355 9.83537 21.9854 11.9889 21.9446H12.2289C14.3097 21.9459 16.3545 21.4011 18.1589 20.3646C18.6228 20.0988 19.0089 19.7161 19.2789 19.2546C19.5501 18.7905 19.6917 18.2621 19.6889 17.7246V5.03459C19.6168 4.97551 19.5358 4.92826 19.4489 4.89459ZM11.7889 3.47459C13.7838 3.38131 15.7564 3.92789 17.4189 5.03459C15.7039 6.05605 13.7449 6.59528 11.7489 6.59528C9.75278 6.59528 7.79377 6.05605 6.07886 5.03459C7.76748 3.91976 9.76796 3.37323 11.7889 3.47459ZM17.9689 13.8946C16.1525 15.1548 13.9946 15.8301 11.7839 15.8301C9.57315 15.8301 7.41519 15.1548 5.59885 13.8946V11.1046C7.44127 12.2443 9.58459 12.802 11.7489 12.7046C13.9356 12.8056 16.1023 12.2482 17.9689 11.1046V13.8946Z" fill="black"/>
</svg>
