<svg width="24" height="24" viewBox="0 0 24 24" fill="none" xmlns="http://www.w3.org/2000/svg">
<path d="M22.0314 10.8754L19.8953 7.33206C19.7388 7.07547 19.519 6.86304 19.257 6.71497C18.9949 6.5669 18.6993 6.48807 18.3981 6.48601H16.7213V6.23718C16.7213 5.51125 16.432 4.81508 15.9172 4.30178C15.4025 3.78847 14.7044 3.50007 13.9764 3.50007H3.99497C3.63376 3.49742 3.27561 3.56642 2.94139 3.70304C2.60716 3.83965 2.30345 4.04119 2.04803 4.29588C1.79261 4.55058 1.59056 4.85337 1.45355 5.18665C1.31655 5.51992 1.24742 5.877 1.25007 6.23718V15.195C1.25091 15.615 1.40384 16.0205 1.68079 16.3369C1.95775 16.6533 2.33996 16.8593 2.75716 16.9169C2.75218 17.0064 2.75218 17.0961 2.75716 17.1856C2.75353 17.6096 2.83573 18.0299 2.99865 18.4215C3.16157 18.8131 3.40195 19.168 3.70547 19.4649C4.00294 19.7742 4.3591 20.0214 4.7532 20.1922C5.1473 20.3631 5.57142 20.4542 6.00112 20.4602C6.85906 20.4524 7.67975 20.1091 8.28642 19.5041C8.8931 18.8992 9.23728 18.0809 9.24509 17.2254C9.25007 17.1426 9.25007 17.0595 9.24509 16.9766H14.7549C14.7499 17.0595 14.7499 17.1426 14.7549 17.2254C14.7512 17.6494 14.8333 18.0697 14.9962 18.4613C15.1592 18.8529 15.3996 19.2078 15.7032 19.5047C16.0006 19.814 16.3567 20.0612 16.7508 20.232C17.1449 20.4029 17.5691 20.494 17.9988 20.5C18.8568 20.4922 19.6773 20.1489 20.284 19.5439C20.8907 18.939 21.235 18.1207 21.2428 17.2652C21.2478 17.1824 21.2478 17.0993 21.2428 17.0164H22.0014C22.1991 17.0138 22.388 16.9344 22.5279 16.7949C22.6677 16.6555 22.7474 16.4671 22.75 16.2699V13.3935C22.7497 12.5038 22.5009 11.6318 22.0314 10.8754ZM7.73801 17.1856C7.73884 17.414 7.69318 17.6403 7.60398 17.8507C7.51477 18.0611 7.38386 18.2513 7.21895 18.4099C6.88668 18.7257 6.44528 18.9018 5.98626 18.9018C5.52724 18.9018 5.08571 18.7257 4.75344 18.4099C4.59096 18.2479 4.46238 18.0555 4.375 17.8436C4.28762 17.6318 4.24328 17.4047 4.2445 17.1756C4.24068 16.9393 4.28825 16.705 4.38414 16.4889C4.51728 16.1762 4.74385 15.9121 5.03295 15.7325C5.32832 15.5369 5.67664 15.4362 6.0311 15.4438C6.36904 15.4431 6.69946 15.5437 6.97941 15.7325C7.26603 15.915 7.49174 16.1782 7.6281 16.4889C7.72712 16.7043 7.77822 16.9386 7.77785 17.1756L7.73801 17.1856ZM10.982 12.209H5.99125C5.72653 12.209 5.4726 12.1042 5.28541 11.9176C5.09823 11.7309 4.99311 11.4777 4.99311 11.2137C4.99311 10.9498 5.09823 10.6966 5.28541 10.51C5.4726 10.3233 5.72653 10.2184 5.99125 10.2184H10.982C11.2467 10.2184 11.5005 10.3233 11.6877 10.51C11.8749 10.6966 11.9801 10.9498 11.9801 11.2137C11.9801 11.4777 11.8749 11.7309 11.6877 11.9176C11.5005 12.1042 11.2467 12.209 10.982 12.209ZM10.982 8.78517H5.99125C5.72653 8.78517 5.4726 8.68036 5.28541 8.4937C5.09823 8.30704 4.99311 8.05383 4.99311 7.78986C4.99311 7.52589 5.09823 7.27274 5.28541 7.08608C5.4726 6.89943 5.72653 6.79455 5.99125 6.79455H10.982C11.2467 6.79455 11.5005 6.89943 11.6877 7.08608C11.8749 7.27274 11.9801 7.52589 11.9801 7.78986C11.9801 8.05383 11.8749 8.30704 11.6877 8.4937C11.5005 8.68036 11.2467 8.78517 10.982 8.78517ZM19.7157 17.1856C19.7166 17.414 19.6709 17.6403 19.5817 17.8507C19.4925 18.0611 19.3616 18.2513 19.1967 18.4099C18.8644 18.7257 18.423 18.9018 17.964 18.9018C17.505 18.9018 17.0634 18.7257 16.7312 18.4099C16.5687 18.2479 16.4401 18.0555 16.3527 17.8436C16.2653 17.6318 16.221 17.4047 16.2222 17.1756C16.2189 16.9319 16.27 16.6906 16.3718 16.469C16.4229 16.3644 16.483 16.2645 16.5516 16.1704C16.7982 15.843 17.1509 15.6109 17.5497 15.5135H17.6695H17.7992C17.8453 15.5032 17.893 15.5032 17.939 15.5135H18.1386C18.4421 15.548 18.7311 15.6613 18.977 15.842C19.2235 16.0232 19.4167 16.2673 19.536 16.5486C19.635 16.7641 19.6861 16.9983 19.6858 17.2354L19.7157 17.1856Z" fill="black"/>
<path d="M17.9593 15.4339C17.9132 15.4235 17.8654 15.4235 17.8193 15.4339H17.9593Z" fill="black"/>
</svg>
