<svg width="24" height="24" viewBox="0 0 24 24" fill="none" xmlns="http://www.w3.org/2000/svg">
<path d="M13.8401 3.83908C13.8401 4.20281 13.7321 4.55838 13.5299 4.86081C13.3277 5.16325 13.0404 5.39897 12.7042 5.53816C12.368 5.67736 11.998 5.71378 11.6411 5.64281C11.2842 5.57185 10.9563 5.3967 10.699 5.1395C10.4416 4.8823 10.2664 4.55461 10.1954 4.19786C10.1244 3.84111 10.1608 3.47134 10.3 3.1353C10.4393 2.79925 10.6752 2.51201 10.9778 2.30993C11.2803 2.10785 11.6361 2 12 2C12.488 2 12.9561 2.19376 13.3011 2.53866C13.6462 2.88355 13.8401 3.35132 13.8401 3.83908Z" fill="black"/>
<path d="M17.44 5.67816C18.4562 5.67816 19.28 4.85477 19.28 3.83908C19.28 2.82338 18.4562 2 17.44 2C16.4238 2 15.6 2.82338 15.6 3.83908C15.6 4.85477 16.4238 5.67816 17.44 5.67816Z" fill="black"/>
<path d="M8.39997 3.83908C8.39997 4.20281 8.2921 4.55838 8.08991 4.86081C7.88773 5.16325 7.60032 5.39897 7.26411 5.53816C6.92789 5.67736 6.55792 5.71378 6.201 5.64281C5.84407 5.57185 5.51619 5.3967 5.25886 5.1395C5.00153 4.8823 4.82632 4.55461 4.75532 4.19786C4.68432 3.84111 4.72079 3.47134 4.86006 3.1353C4.99932 2.79925 5.2352 2.51201 5.53779 2.30993C5.84038 2.10785 6.19609 2 6.56001 2C7.048 2 7.51596 2.19376 7.86103 2.53866C8.2061 2.88355 8.39997 3.35132 8.39997 3.83908Z" fill="black"/>
<path d="M13.8401 9.27637C13.836 9.64091 13.7236 9.99603 13.5172 10.2966C13.3108 10.5972 13.0198 10.8297 12.6809 10.9646C12.342 11.0994 11.9706 11.1306 11.614 11.0541C11.2574 10.9776 10.9316 10.7969 10.678 10.5349C10.4243 10.2729 10.2542 9.9415 10.1894 9.58274C10.1246 9.22398 10.168 8.85404 10.3139 8.51995C10.4599 8.18585 10.7019 7.90266 11.0093 7.70633C11.3166 7.51 11.6754 7.4094 12.04 7.4173C12.5245 7.4278 12.9853 7.62894 13.3224 7.97702C13.6594 8.3251 13.8454 8.79202 13.8401 9.27637Z" fill="black"/>
<path d="M17.44 11.1154C18.4562 11.1154 19.28 10.292 19.28 9.27634C19.28 8.26064 18.4562 7.43726 17.44 7.43726C16.4238 7.43726 15.6 8.26064 15.6 9.27634C15.6 10.292 16.4238 11.1154 17.44 11.1154Z" fill="black"/>
<path d="M8.39997 9.27633C8.39997 9.64007 8.2921 9.99563 8.08991 10.2981C7.88773 10.6005 7.60032 10.8362 7.26411 10.9754C6.92789 11.1146 6.55792 11.151 6.201 11.0801C5.84407 11.0091 5.51619 10.834 5.25886 10.5768C5.00153 10.3196 4.82632 9.99186 4.75532 9.63511C4.68432 9.27837 4.72079 8.9086 4.86006 8.57255C4.99932 8.2365 5.2352 7.94927 5.53779 7.74719C5.84038 7.54511 6.19609 7.43726 6.56001 7.43726C7.048 7.43726 7.51596 7.63102 7.86103 7.97591C8.2061 8.32081 8.39997 8.78858 8.39997 9.27633Z" fill="black"/>
<path d="M13.84 14.7137C13.842 15.0778 13.7357 15.4344 13.5347 15.7381C13.3338 16.0419 13.0472 16.2791 12.7111 16.4199C12.3751 16.5606 12.0048 16.5984 11.6472 16.5286C11.2896 16.4588 10.9608 16.2844 10.7025 16.0276C10.4441 15.7708 10.2679 15.4431 10.1961 15.0861C10.1243 14.7291 10.1602 14.3588 10.2992 14.0222C10.4381 13.6856 10.674 13.3978 10.9768 13.1952C11.2796 12.9927 11.6356 12.8846 12 12.8846C12.4862 12.8846 12.9528 13.077 13.2976 13.4197C13.6423 13.7624 13.8374 14.2276 13.84 14.7137Z" fill="black"/>
<path d="M13.8401 20.1609C13.8401 20.5246 13.7321 20.8802 13.5299 21.1826C13.3277 21.4851 13.0404 21.7208 12.7042 21.86C12.368 21.9992 11.998 22.0356 11.6411 21.9647C11.2842 21.8937 10.9563 21.7185 10.699 21.4613C10.4416 21.2041 10.2664 20.8764 10.1954 20.5197C10.1244 20.163 10.1608 19.7932 10.3 19.4571C10.4393 19.1211 10.6752 18.8339 10.9778 18.6318C11.2803 18.4297 11.6361 18.3218 12 18.3218C12.488 18.3218 12.9561 18.5156 13.3011 18.8605C13.6462 19.2054 13.8401 19.6732 13.8401 20.1609Z" fill="black"/>
<path d="M19.28 14.7137C19.282 15.0778 19.1758 15.4344 18.9748 15.7381C18.7738 16.0419 18.4871 16.2791 18.1511 16.4199C17.815 16.5606 17.4448 16.5984 17.0872 16.5286C16.7297 16.4588 16.4009 16.2844 16.1425 16.0276C15.8842 15.7708 15.7079 15.4431 15.6361 15.0861C15.5643 14.7291 15.6001 14.3588 15.7391 14.0222C15.8781 13.6856 16.1139 13.3978 16.4167 13.1952C16.7195 12.9927 17.0757 12.8846 17.44 12.8846C17.9263 12.8846 18.3927 13.077 18.7375 13.4197C19.0823 13.7624 19.2773 14.2276 19.28 14.7137Z" fill="black"/>
<path d="M8.39998 14.7137C8.40196 15.0778 8.29578 15.4344 8.0948 15.7381C7.89383 16.0419 7.60711 16.2791 7.27107 16.4199C6.93504 16.5606 6.56481 16.5984 6.20723 16.5286C5.84965 16.4588 5.52086 16.2844 5.26253 16.0276C5.0042 15.7708 4.82787 15.4431 4.75606 15.0861C4.68425 14.7291 4.72012 14.3588 4.85909 14.0222C4.99805 13.6856 5.2339 13.3978 5.5367 13.1952C5.8395 12.9927 6.19567 12.8846 6.56001 12.8846C7.04629 12.8846 7.51272 13.077 7.8575 13.4197C8.20228 13.7624 8.39734 14.2276 8.39998 14.7137Z" fill="black"/>
</svg>
