<svg width="24" height="24" viewBox="0 0 24 24" fill="none" xmlns="http://www.w3.org/2000/svg">
<path d="M20.4756 6.66947L16.1756 19.0595C16.0012 19.5595 15.6754 19.9927 15.2435 20.2992C14.8117 20.6056 14.2951 20.77 13.7656 20.7695H13.6356C13.0852 20.7388 12.5594 20.5319 12.1356 20.1795C11.7081 19.8297 11.4091 19.3478 11.2856 18.8095L10.4856 13.9495C10.4256 13.8203 10.3445 13.702 10.2456 13.5995C10.1296 13.4791 9.9851 13.3897 9.82556 13.3395L5.31562 12.5595C4.76867 12.4257 4.28049 12.1166 3.9256 11.6795C3.5967 11.2532 3.40493 10.7371 3.37561 10.1995C3.35519 9.66327 3.50577 9.13449 3.80561 8.68949C4.0946 8.23007 4.52685 7.87863 5.03559 7.68949L17.2156 3.37949C17.6695 3.21744 18.16 3.18683 18.6306 3.2912C19.1012 3.39558 19.5327 3.6307 19.8756 3.96949C20.2186 4.31295 20.4578 4.74621 20.5656 5.21949C20.6702 5.70185 20.639 6.20375 20.4756 6.66947Z" fill="black"/>
</svg>
