<svg width="24" height="24" viewBox="0 0 24 24" fill="none" xmlns="http://www.w3.org/2000/svg">
<path d="M20.0805 10.5676C19.8199 10.1593 19.4489 9.8334 19.0105 9.62758L7.32044 4.04757C6.95614 3.87925 6.55729 3.79929 6.15626 3.8142C5.75523 3.8291 5.36339 3.93846 5.01258 4.13335C4.66178 4.32824 4.36186 4.60319 4.13734 4.93581C3.91282 5.26843 3.77002 5.64933 3.72047 6.04757C3.65727 6.60492 3.78031 7.16752 4.07044 7.64757L6.72047 11.4676C6.80402 11.6066 6.8489 11.7654 6.85047 11.9276C6.85543 11.9708 6.85543 12.0144 6.85047 12.0576C6.83664 12.1771 6.79926 12.2926 6.74049 12.3976L3.89051 16.3976L3.83045 16.5076C3.60068 16.9754 3.5204 17.5026 3.60047 18.0176C3.67455 18.534 3.9065 19.015 4.26453 19.3945C4.62257 19.774 5.08919 20.0336 5.60047 20.1376C5.76869 20.1691 5.93935 20.1858 6.11048 20.1876C6.45523 20.1823 6.79536 20.1075 7.11048 19.9676L18.9504 14.2276C19.3923 14.0183 19.7665 13.6891 20.0304 13.2776C20.2912 12.8682 20.4297 12.3929 20.4297 11.9076C20.4297 11.4222 20.2912 10.9469 20.0304 10.5376L20.0805 10.5676ZM13.1904 12.8076H8.19044C8.2813 12.5471 8.32861 12.2734 8.33045 11.9976C8.33012 11.7647 8.2999 11.5328 8.24049 11.3076H13.1604C13.3593 11.3076 13.5502 11.3866 13.6908 11.5272C13.8315 11.6679 13.9104 11.8587 13.9104 12.0576C13.9104 12.2565 13.8315 12.4473 13.6908 12.5879C13.5502 12.7286 13.3593 12.8076 13.1604 12.8076H13.1904Z" fill="black"/>
</svg>
