<svg width="24" height="24" viewBox="0 0 24 24" fill="none" xmlns="http://www.w3.org/2000/svg">
<path d="M20.4651 11.8762C20.4649 12.3617 20.3261 12.837 20.0651 13.2462C19.8071 13.6567 19.4354 13.9833 18.9951 14.1862L7.19508 19.9162C6.84408 20.0791 6.46206 20.1644 6.07509 20.1662C5.91567 20.1855 5.75453 20.1855 5.59511 20.1662C5.05138 20.0641 4.55606 19.7867 4.18507 19.3762C3.81284 18.968 3.58758 18.4471 3.54506 17.8962C3.49599 17.3467 3.62576 16.796 3.91505 16.3262L6.78505 12.3262C6.83562 12.1884 6.86275 12.043 6.86513 11.8962C6.86306 11.7334 6.82553 11.573 6.75514 11.4262L4.10512 7.68624C3.81969 7.20065 3.69707 6.63649 3.75514 6.07623C3.8189 5.54621 4.04549 5.04901 4.4037 4.65319C4.76191 4.25737 5.2341 3.98242 5.75514 3.86623C6.28132 3.76532 6.82571 3.82814 7.31508 4.04623L18.9751 9.61623C19.4118 9.82137 19.781 10.1466 20.0396 10.5539C20.2981 10.9613 20.4353 11.4338 20.4351 11.9162L20.4651 11.8762Z" fill="black"/>
</svg>
