<svg width="24" height="24" viewBox="0 0 24 24" fill="none" xmlns="http://www.w3.org/2000/svg">
<path d="M20.1417 18.4301C20.0359 18.9713 19.7575 19.4636 19.3482 19.8333C18.9389 20.2029 18.4209 20.4298 17.8718 20.4801H17.6517C17.1751 20.4821 16.7074 20.3505 16.3018 20.1001L12.3018 17.2301C12.0151 17.1209 11.6984 17.1209 11.4118 17.2301L7.66175 19.8701C7.31254 20.0798 6.91817 20.2028 6.51167 20.2288C6.10516 20.2548 5.69834 20.183 5.32527 20.0195C4.9522 19.856 4.62375 19.6054 4.36738 19.2889C4.11101 18.9724 3.9342 18.599 3.85176 18.2001C3.75019 17.674 3.81303 17.1293 4.03175 16.6401L9.60176 4.98013C9.80392 4.54243 10.1265 4.1713 10.5317 3.91013C10.9432 3.65505 11.4177 3.5199 11.9017 3.5199C12.3858 3.5199 12.8603 3.65505 13.2717 3.91013C13.6829 4.17167 14.0094 4.5468 14.2117 4.99011L19.9318 16.7901C20.1842 17.2976 20.2582 17.8754 20.1417 18.4301Z" fill="black"/>
</svg>
