<svg width="24" height="24" viewBox="0 0 24 24" fill="none" xmlns="http://www.w3.org/2000/svg">
<path d="M20.4868 11.65L19.2868 5.65003C19.1484 5.01437 18.7953 4.44582 18.2868 4.04004C17.7873 3.64109 17.166 3.4257 16.5268 3.42999H10.2068C9.51989 3.43008 8.85868 3.69104 8.35681 4.16004C8.14781 3.93012 7.89309 3.74638 7.60895 3.62067C7.32481 3.49496 7.0175 3.43001 6.70679 3.42999H5.70679C5.11005 3.42999 4.5378 3.6671 4.11584 4.08905C3.69389 4.51101 3.45679 5.08326 3.45679 5.67999V12.68C3.45679 13.2767 3.69389 13.849 4.11584 14.271C4.5378 14.693 5.11005 14.93 5.70679 14.93H6.70679C7.28889 14.9307 7.8484 14.7047 8.26678 14.3C8.33848 14.397 8.41886 14.4874 8.50684 14.57L9.29681 19.3C9.33399 19.535 9.42655 19.7578 9.56683 19.95C9.70409 20.1411 9.88603 20.2956 10.0968 20.4C10.3063 20.5111 10.5397 20.5694 10.7768 20.57C11.0095 20.5694 11.2389 20.5146 11.4468 20.41L12.3768 19.95C13.1517 19.5756 13.7738 18.9455 14.1381 18.1658C14.5025 17.3861 14.5868 16.5046 14.3768 15.67L14.1868 14.94H17.7968C18.2043 14.9396 18.6069 14.8509 18.9768 14.68C19.5242 14.4159 19.9695 13.9792 20.2442 13.4371C20.5189 12.895 20.6077 12.2775 20.4968 11.68L20.4868 11.65ZM7.48682 12.65C7.48682 12.8489 7.4078 13.0397 7.26715 13.1804C7.1265 13.321 6.93573 13.4 6.73682 13.4H5.73682C5.5379 13.4 5.34713 13.321 5.20648 13.1804C5.06583 13.0397 4.98682 12.8489 4.98682 12.65V5.65003C4.98941 5.45192 5.06926 5.26266 5.20935 5.12256C5.34945 4.98247 5.53871 4.90262 5.73682 4.90003H6.73682C6.93492 4.90262 7.12419 4.98247 7.26428 5.12256C7.40438 5.26266 7.48423 5.45192 7.48682 5.65003V12.65Z" fill="black"/>
</svg>
