<svg width="24" height="24" viewBox="0 0 24 24" fill="none" xmlns="http://www.w3.org/2000/svg">
<path d="M16.58 2H7.41C5.97426 2.00265 4.59824 2.57484 3.58395 3.591C2.56967 4.60716 2 5.98426 2 7.42V16.59C2.00264 18.024 2.57349 19.3985 3.58749 20.4125C4.60149 21.4265 5.97599 21.9974 7.41 22H16.58C18.0158 22 19.3928 21.4303 20.409 20.416C21.4252 19.4018 21.9974 18.0257 22 16.59V7.42C22 5.98252 21.429 4.60393 20.4125 3.58748C19.3961 2.57103 18.0175 2 16.58 2ZM11.99 7C12.2372 7 12.4789 7.07331 12.6845 7.21066C12.89 7.34801 13.0503 7.54323 13.1449 7.77164C13.2395 8.00004 13.2642 8.25137 13.216 8.49385C13.1678 8.73633 13.0487 8.95906 12.8739 9.13388C12.6991 9.3087 12.4763 9.42774 12.2339 9.47597C11.9914 9.5242 11.7401 9.49946 11.5117 9.40485C11.2832 9.31024 11.088 9.15002 10.9507 8.94446C10.8133 8.7389 10.74 8.49723 10.74 8.25C10.7304 8.07921 10.756 7.90827 10.8151 7.74776C10.8743 7.58725 10.9657 7.44057 11.0839 7.31683C11.202 7.1931 11.3442 7.09492 11.5018 7.02838C11.6594 6.96184 11.8289 6.92836 12 6.92999L11.99 7ZM11.99 17.08C11.6585 17.08 11.3406 16.9483 11.1061 16.7139C10.8717 16.4795 10.74 16.1615 10.74 15.83C10.74 15.4985 10.8717 15.1805 11.1061 14.9461C11.3406 14.7117 11.6585 14.58 11.99 14.58C12.3215 14.58 12.6395 14.7117 12.8739 14.9461C13.1083 15.1805 13.24 15.4985 13.24 15.83C13.24 16.1615 13.1083 16.4795 12.8739 16.7139C12.6395 16.9483 12.3215 17.08 11.99 17.08ZM16.87 13.08H7.11002C6.8448 13.08 6.59043 12.9746 6.40289 12.7871C6.21536 12.5996 6.11002 12.3452 6.11002 12.08C6.11002 11.8148 6.21536 11.5604 6.40289 11.3729C6.59043 11.1853 6.8448 11.08 7.11002 11.08H16.87C17.1352 11.08 17.3896 11.1853 17.5771 11.3729C17.7647 11.5604 17.87 11.8148 17.87 12.08C17.87 12.3452 17.7647 12.5996 17.5771 12.7871C17.3896 12.9746 17.1352 13.08 16.87 13.08Z" fill="black"/>
</svg>
