<svg width="24" height="24" viewBox="0 0 24 24" fill="none" xmlns="http://www.w3.org/2000/svg">
<path d="M19.35 12.7501H4.65002C4.45111 12.7501 4.26034 12.671 4.11969 12.5304C3.97904 12.3897 3.90002 12.199 3.90002 12.0001C3.90002 11.8011 3.97904 11.6104 4.11969 11.4697C4.26034 11.3291 4.45111 11.2501 4.65002 11.2501H19.35C19.5489 11.2501 19.7397 11.3291 19.8804 11.4697C20.021 11.6104 20.1 11.8011 20.1 12.0001C20.1 12.199 20.021 12.3897 19.8804 12.5304C19.7397 12.671 19.5489 12.7501 19.35 12.7501Z" fill="black"/>
<path d="M12 18.45C11.6676 18.45 11.3486 18.3186 11.1126 18.0844C10.8766 17.8503 10.7427 17.5324 10.74 17.2C10.7387 17.0363 10.7698 16.874 10.8315 16.7224C10.8932 16.5708 10.9844 16.4329 11.0996 16.3167C11.2149 16.2005 11.3521 16.1082 11.5032 16.0453C11.6543 15.9823 11.8163 15.9499 11.98 15.95C12.3115 15.95 12.6295 16.0817 12.8639 16.3161C13.0983 16.5505 13.23 16.8684 13.23 17.2C13.23 17.5315 13.0983 17.8494 12.8639 18.0838C12.6295 18.3183 12.3115 18.45 11.98 18.45H12Z" fill="black"/>
<path d="M12 8.04999C11.6676 8.05 11.3486 7.91862 11.1126 7.68448C10.8766 7.45034 10.7427 7.13242 10.74 6.79999C10.7387 6.63631 10.7698 6.47399 10.8315 6.32239C10.8932 6.17079 10.9844 6.03289 11.0996 5.91669C11.2149 5.80048 11.3521 5.70826 11.5032 5.64532C11.6543 5.58238 11.8163 5.54998 11.98 5.54999C12.3115 5.54999 12.6295 5.68169 12.8639 5.91611C13.0983 6.15053 13.23 6.46847 13.23 6.79999C13.23 7.13151 13.0983 7.44945 12.8639 7.68387C12.6295 7.91829 12.3115 8.04999 11.98 8.04999H12Z" fill="black"/>
</svg>
