<svg width="24" height="24" viewBox="0 0 24 24" fill="none" xmlns="http://www.w3.org/2000/svg">
<path d="M16.46 2.25H7.53998C6.13698 2.25 4.79151 2.80731 3.79944 3.79938C2.80737 4.79144 2.25 6.13698 2.25 7.53998V16.46C2.25 17.1547 2.38686 17.8426 2.65271 18.4844C2.91856 19.1262 3.30822 19.7094 3.79944 20.2006C4.29066 20.6918 4.87381 21.0815 5.51562 21.3473C6.15744 21.6132 6.84529 21.75 7.53998 21.75H16.46C17.1547 21.75 17.8426 21.6132 18.4844 21.3473C19.1262 21.0815 19.7094 20.6918 20.2006 20.2006C20.6918 19.7094 21.0815 19.1262 21.3474 18.4844C21.6132 17.8426 21.75 17.1547 21.75 16.46V7.53998C21.75 6.13698 21.1927 4.79144 20.2006 3.79938C19.2086 2.80731 17.863 2.25 16.46 2.25ZM11.99 7.10999C12.2372 7.10999 12.4789 7.1833 12.6844 7.32065C12.89 7.458 13.0502 7.65321 13.1448 7.88162C13.2394 8.11003 13.2642 8.36137 13.216 8.60385C13.1678 8.84633 13.0487 9.06905 12.8739 9.24387C12.6991 9.41868 12.4764 9.53774 12.2339 9.58597C11.9914 9.6342 11.7401 9.60944 11.5117 9.51483C11.2832 9.42022 11.088 9.26 10.9507 9.05444C10.8133 8.84888 10.74 8.60721 10.74 8.35999C10.74 8.19499 10.7727 8.03162 10.8361 7.8793C10.8996 7.72699 10.9925 7.58874 11.1097 7.47253C11.2268 7.35633 11.3657 7.26447 11.5186 7.20224C11.6714 7.14001 11.835 7.10867 12 7.10999H11.99ZM11.99 16.99C11.6585 16.99 11.3406 16.8583 11.1061 16.6239C10.8717 16.3895 10.74 16.0715 10.74 15.74C10.74 15.4085 10.8717 15.0905 11.1061 14.8561C11.3406 14.6217 11.6585 14.49 11.99 14.49C12.3215 14.49 12.6395 14.6217 12.8739 14.8561C13.1083 15.0905 13.24 15.4085 13.24 15.74C13.24 16.0715 13.1083 16.3895 12.8739 16.6239C12.6395 16.8583 12.3215 16.99 11.99 16.99ZM16.74 12.8H7.23999C7.04108 12.8 6.85031 12.721 6.70966 12.5803C6.569 12.4397 6.48999 12.2489 6.48999 12.05C6.48999 11.8511 6.569 11.6603 6.70966 11.5197C6.85031 11.379 7.04108 11.3 7.23999 11.3H16.74C16.9389 11.3 17.1297 11.379 17.2703 11.5197C17.411 11.6603 17.49 11.8511 17.49 12.05C17.49 12.2489 17.411 12.4397 17.2703 12.5803C17.1297 12.721 16.9389 12.8 16.74 12.8Z" fill="black"/>
</svg>
