<svg width="24" height="24" viewBox="0 0 24 24" fill="none" xmlns="http://www.w3.org/2000/svg">
<path d="M16.62 2H7.41998C5.98251 2 4.60391 2.57103 3.58746 3.58748C2.57102 4.60393 2 5.98252 2 7.42V16.59C2.00265 18.0257 2.57484 19.4018 3.591 20.416C4.60716 21.4303 5.98424 22 7.41998 22H16.59C18.024 21.9974 19.3985 21.4265 20.4125 20.4125C21.4265 19.3985 21.9974 18.024 22 16.59V7.42C22 5.98943 21.4345 4.61685 20.4267 3.60155C19.4189 2.58624 18.0505 2.01056 16.62 2ZM7.22998 13.66C6.90125 13.662 6.57935 13.5663 6.30505 13.3851C6.03076 13.2039 5.81639 12.9454 5.68921 12.6422C5.56203 12.3391 5.52778 12.005 5.5907 11.6823C5.65362 11.3596 5.81091 11.0629 6.04266 10.8298C6.27442 10.5966 6.57018 10.4375 6.89246 10.3727C7.21473 10.3078 7.549 10.3401 7.85291 10.4654C8.15681 10.5908 8.41664 10.8035 8.59949 11.0767C8.78234 11.3499 8.88 11.6713 8.88 12C8.88001 12.4385 8.70649 12.8592 8.39734 13.1703C8.08819 13.4813 7.6685 13.6573 7.22998 13.66ZM12.03 13.66C11.7017 13.66 11.3807 13.5626 11.1077 13.3802C10.8347 13.1978 10.622 12.9386 10.4963 12.6353C10.3707 12.3319 10.3378 11.9982 10.4019 11.6761C10.4659 11.3541 10.624 11.0584 10.8562 10.8262C11.0884 10.594 11.3841 10.4359 11.7061 10.3719C12.0281 10.3078 12.3619 10.3407 12.6652 10.4664C12.9685 10.592 13.2278 10.8048 13.4102 11.0777C13.5926 11.3507 13.69 11.6717 13.69 12C13.6913 12.2184 13.6493 12.4348 13.5663 12.6368C13.4834 12.8388 13.3611 13.0223 13.2067 13.1767C13.0523 13.3312 12.8688 13.4534 12.6668 13.5363C12.4648 13.6193 12.2483 13.6613 12.03 13.66ZM16.84 13.66C16.5116 13.66 16.1907 13.5626 15.9177 13.3802C15.6447 13.1978 15.432 12.9386 15.3063 12.6353C15.1807 12.3319 15.1478 11.9982 15.2119 11.6761C15.2759 11.3541 15.434 11.0584 15.6662 10.8262C15.8984 10.594 16.1941 10.4359 16.5161 10.3719C16.8381 10.3078 17.1719 10.3407 17.4752 10.4664C17.7785 10.592 18.0378 10.8048 18.2202 11.0777C18.4026 11.3507 18.5 11.6717 18.5 12C18.5 12.4403 18.3251 12.8625 18.0138 13.1738C17.7025 13.4851 17.2802 13.66 16.84 13.66Z" fill="black"/>
</svg>
