<svg width="24" height="24" viewBox="0 0 24 24" fill="none" xmlns="http://www.w3.org/2000/svg">
<path d="M16.59 2H7.42004C5.98257 2 4.60397 2.57103 3.58752 3.58748C2.57108 4.60393 2 5.98252 2 7.42V16.59C2.00265 18.0257 2.5749 19.4018 3.59106 20.416C4.60722 21.4303 5.9843 22 7.42004 22H16.59C18.024 21.9974 19.3985 21.4265 20.4125 20.4125C21.4265 19.3985 21.9974 18.024 22 16.59V7.42C22 5.98426 21.4304 4.60716 20.4161 3.591C19.4018 2.57484 18.0258 2.00265 16.59 2ZM12 18.47C11.6717 18.47 11.3507 18.3726 11.0778 18.1902C10.8048 18.0078 10.592 17.7486 10.4664 17.4453C10.3407 17.1419 10.3079 16.8082 10.3719 16.4861C10.436 16.1641 10.5941 15.8684 10.8262 15.6362C11.0584 15.404 11.3541 15.2459 11.6761 15.1819C11.9982 15.1178 12.3319 15.1507 12.6353 15.2764C12.9386 15.402 13.1978 15.6148 13.3802 15.8877C13.5627 16.1607 13.66 16.4817 13.66 16.81C13.66 17.2503 13.4851 17.6725 13.1738 17.9838C12.8625 18.2951 12.4403 18.47 12 18.47ZM12 13.66C11.6717 13.66 11.3507 13.5626 11.0778 13.3802C10.8048 13.1978 10.592 12.9386 10.4664 12.6353C10.3407 12.3319 10.3079 11.9982 10.3719 11.6761C10.436 11.3541 10.5941 11.0584 10.8262 10.8262C11.0584 10.594 11.3541 10.4359 11.6761 10.3719C11.9982 10.3078 12.3319 10.3407 12.6353 10.4664C12.9386 10.592 13.1978 10.8048 13.3802 11.0777C13.5627 11.3507 13.66 11.6717 13.66 12C13.6614 12.2184 13.6193 12.4348 13.5364 12.6368C13.4534 12.8388 13.3312 13.0223 13.1768 13.1767C13.0223 13.3312 12.8388 13.4534 12.6368 13.5363C12.4348 13.6193 12.2184 13.6613 12 13.66ZM12 8.84999C11.6713 8.84998 11.3499 8.75237 11.0767 8.56952C10.8035 8.38667 10.5908 8.12683 10.4655 7.82292C10.3401 7.51901 10.3078 7.18472 10.3727 6.86244C10.4375 6.54016 10.5967 6.2444 10.8298 6.01265C11.063 5.7809 11.3597 5.6236 11.6824 5.56068C12.005 5.49777 12.3391 5.53206 12.6422 5.65924C12.9454 5.78642 13.2039 6.00074 13.3851 6.27504C13.5663 6.54934 13.662 6.87126 13.66 7.2C13.66 7.41752 13.6171 7.6329 13.5335 7.83374C13.45 8.03458 13.3275 8.21692 13.1732 8.37027C13.0189 8.52362 12.8359 8.64495 12.6345 8.72728C12.4332 8.80961 12.2175 8.85131 12 8.84999Z" fill="black"/>
</svg>
