<svg width="24" height="24" viewBox="0 0 24 24" fill="none" xmlns="http://www.w3.org/2000/svg">
<path d="M21.9498 10.105V9.95505C21.4733 7.65096 20.2202 5.58033 18.3999 4.08952C16.5796 2.59872 14.3026 1.77815 11.9498 1.76505C9.34611 1.75862 6.8397 2.75403 4.94982 4.54504L4.73986 4.73505C4.73563 4.75144 4.73563 4.76865 4.73986 4.78505C3.33393 6.19356 2.36927 7.98158 1.96423 9.93004C1.55918 11.8785 1.73135 13.9028 2.45947 15.7549C3.18758 17.6071 4.44008 19.2066 6.06359 20.3576C7.6871 21.5086 9.61111 22.1611 11.5998 22.235H11.9999C14.7175 22.2324 17.3231 21.1516 19.2447 19.23C21.1664 17.3083 22.2472 14.7027 22.2499 11.985C22.2096 11.3503 22.1091 10.7208 21.9498 10.105ZM12.0099 20.765C11.6419 19.6538 11.4363 18.4951 11.3998 17.325C11.5098 15.805 10.1899 15.665 9.61987 15.605C8.75987 15.515 8.18981 15.455 8.18981 13.725C8.21881 12.8266 8.30904 11.9312 8.45983 11.045C8.78983 8.74504 9.15986 6.18504 6.73986 4.93504C8.2331 3.84808 10.0329 3.26332 11.8799 3.26505C12.5533 3.26306 13.2245 3.34025 13.8799 3.49504C13.9252 3.99884 13.8638 4.50654 13.6998 4.98505C12.5398 5.31505 12.5199 6.83504 12.4999 8.60504C12.5429 9.5878 12.4418 10.5716 12.1998 11.525C12.0174 11.9466 11.9939 12.42 12.1337 12.8575C12.2734 13.2951 12.5669 13.6672 12.9598 13.905C13.5053 14.2241 14.1281 14.3867 14.7599 14.375C15.2523 14.3855 15.7417 14.298 16.2001 14.1178C16.6584 13.9376 17.0764 13.6681 17.4298 13.325C18.0239 12.7308 18.4158 11.9646 18.5498 11.135C18.5793 11.027 18.5994 10.9166 18.6099 10.805C18.7053 10.7835 18.8043 10.7835 18.8998 10.805C19.1798 10.805 19.5498 10.805 19.8998 10.865H20.5198C20.6872 12.0901 20.5921 13.3368 20.241 14.5223C19.8898 15.7078 19.2905 16.8051 18.4829 17.7414C17.6753 18.6776 16.6778 19.4314 15.5566 19.9527C14.4355 20.474 13.2162 20.7509 11.9799 20.765H12.0099Z" fill="black"/>
</svg>
