<svg width="24" height="24" viewBox="0 0 24 24" fill="none" xmlns="http://www.w3.org/2000/svg">
<path d="M16.59 21.33H5.87999C5.49492 21.3301 5.11387 21.2519 4.75999 21.1001C4.22152 20.8759 3.76193 20.4966 3.43962 20.0105C3.11731 19.5243 2.94686 18.9533 2.94999 18.3701V7.68005C2.94841 7.29583 3.02322 6.91513 3.17003 6.56005C3.31234 6.20045 3.52687 5.87384 3.80034 5.60037C4.07381 5.3269 4.40038 5.11238 4.75999 4.97006C5.11133 4.82248 5.48897 4.74764 5.87004 4.75006H9.98002C10.1789 4.75006 10.3697 4.82907 10.5104 4.96972C10.651 5.11037 10.73 5.30114 10.73 5.50006C10.73 5.69897 10.651 5.88974 10.5104 6.03039C10.3697 6.17104 10.1789 6.25006 9.98002 6.25006H5.87999C5.69105 6.23454 5.50138 6.26904 5.33 6.35006C5.15861 6.42369 5.00261 6.52884 4.87004 6.66006C4.73666 6.79677 4.62834 6.95586 4.55003 7.13006C4.4823 7.30544 4.44833 7.49205 4.44999 7.68005V18.3801C4.44588 18.5692 4.48348 18.757 4.56004 18.93C4.62629 19.1083 4.73231 19.269 4.87004 19.4001C5.00143 19.5352 5.15757 19.6439 5.33 19.7201C5.50478 19.791 5.69137 19.8283 5.87999 19.83H16.59C16.7786 19.8283 16.9652 19.791 17.14 19.7201C17.3161 19.6496 17.476 19.5442 17.6101 19.4101C17.7442 19.276 17.8496 19.1161 17.92 18.9401C17.9909 18.7653 18.0283 18.5787 18.03 18.39V14.2901C18.03 14.0912 18.109 13.9004 18.2497 13.7597C18.3903 13.6191 18.5811 13.5401 18.78 13.5401C18.9789 13.5401 19.1697 13.6191 19.3103 13.7597C19.451 13.9004 19.53 14.0912 19.53 14.2901V18.39C19.529 18.775 19.4508 19.1558 19.3 19.51C19.1577 19.8696 18.9432 20.1963 18.6697 20.4698C18.3963 20.7432 18.0696 20.9577 17.71 21.1001C17.3558 21.2508 16.975 21.329 16.59 21.33Z" fill="black"/>
<path d="M21.36 5.97997C21.2573 5.73902 21.1116 5.51878 20.93 5.32998L18.93 3.32998C18.7477 3.13802 18.5259 2.9879 18.28 2.88997C17.7862 2.68983 17.2338 2.68983 16.74 2.88997C16.4941 2.9879 16.2723 3.13802 16.09 3.32998L14.53 4.96999L7.30002 12.15C6.9281 12.525 6.71958 13.0318 6.72 13.56V15.56C6.71848 15.8232 6.76891 16.0841 6.86844 16.3278C6.96797 16.5715 7.11466 16.7931 7.30002 16.98C7.48608 17.1671 7.70731 17.3157 7.95102 17.4169C8.19473 17.5182 8.45609 17.5702 8.72 17.57H10.72C11.2496 17.5678 11.7566 17.3556 12.13 16.98L19.27 9.83999L20.85 8.25997C21.0382 8.07449 21.1877 7.85358 21.29 7.60997C21.3931 7.36461 21.4463 7.10114 21.4463 6.83498C21.4463 6.56882 21.3931 6.30535 21.29 6.05999L21.36 5.97997ZM17.21 8.75997L15.53 7.07C15.4005 6.93578 15.3281 6.75653 15.3281 6.57C15.3281 6.38347 15.4005 6.20421 15.53 6.07C15.6642 5.94046 15.8435 5.86806 16.03 5.86806C16.2165 5.86806 16.3958 5.94046 16.53 6.07L18.22 7.75997C18.3495 7.89419 18.4219 8.07344 18.4219 8.25997C18.4219 8.4465 18.3495 8.62575 18.22 8.75997C18.0853 8.89249 17.9039 8.96679 17.715 8.96679C17.5261 8.96679 17.3447 8.89249 17.21 8.75997Z" fill="black"/>
</svg>
