<svg width="24" height="24" viewBox="0 0 24 24" fill="none" xmlns="http://www.w3.org/2000/svg">
<path d="M19.85 6.66006C19.5932 5.6967 19.078 4.82185 18.3601 4.13006C17.6565 3.40464 16.7677 2.88586 15.79 2.63006C15.5033 2.56044 15.2034 2.56621 14.9195 2.64682C14.6356 2.72743 14.3774 2.88011 14.17 3.09006L12.45 4.82007L5.08002 12.1501C4.79853 12.4124 4.62101 12.7674 4.58002 13.1501L4.12006 16.3701C4.08287 16.6355 4.10676 16.9058 4.18995 17.1606C4.27313 17.4153 4.4134 17.6477 4.60004 17.8401C4.78969 18.0277 5.01846 18.1711 5.27002 18.26C5.45064 18.3199 5.63973 18.3504 5.83002 18.3501H6.07001L9.32001 17.8801C9.69596 17.8239 10.0453 17.6527 10.32 17.39L17.7 10.01L19.4301 8.29007C19.6293 8.0804 19.7765 7.82693 19.8601 7.55005C19.9304 7.25713 19.927 6.95133 19.85 6.66006ZM15.5501 8.96005L13.5501 6.96005C13.4096 6.81943 13.3307 6.6288 13.3307 6.43005C13.3307 6.2313 13.4096 6.04068 13.5501 5.90005C13.6907 5.7596 13.8813 5.68072 14.08 5.68072C14.2788 5.68072 14.4694 5.7596 14.6101 5.90005L16.6101 7.90005C16.7505 8.04068 16.8294 8.2313 16.8294 8.43005C16.8294 8.6288 16.7505 8.81943 16.6101 8.96005C16.5401 9.03264 16.4562 9.09038 16.3634 9.12982C16.2706 9.16926 16.1708 9.18957 16.07 9.18957C15.9692 9.18957 15.8695 9.16926 15.7767 9.12982C15.6839 9.09038 15.6 9.03264 15.53 8.96005H15.5501Z" fill="black"/>
<path d="M19.98 21.5H4.53003C4.33112 21.5 4.14035 21.421 3.99969 21.2803C3.85904 21.1397 3.78003 20.9489 3.78003 20.75C3.78003 20.5511 3.85904 20.3603 3.99969 20.2197C4.14035 20.079 4.33112 20 4.53003 20H19.98C20.179 20 20.3697 20.079 20.5104 20.2197C20.651 20.3603 20.73 20.5511 20.73 20.75C20.73 20.9489 20.651 21.1397 20.5104 21.2803C20.3697 21.421 20.179 21.5 19.98 21.5Z" fill="black"/>
</svg>
