<svg width="24" height="24" viewBox="0 0 24 24" fill="none" xmlns="http://www.w3.org/2000/svg">
<path d="M20.78 7.88998C20.5052 6.85127 19.952 5.90734 19.1801 5.16C18.4234 4.37122 17.4655 3.80413 16.41 3.51998C16.1093 3.43491 15.7908 3.43491 15.4901 3.51998C15.1937 3.60637 14.9249 3.76834 14.71 3.98999L4.76002 13.94C4.48777 14.2104 4.30907 14.5608 4.25001 14.94L3.74007 18.46C3.68927 18.7373 3.70992 19.0229 3.80006 19.29C3.88355 19.5662 4.03481 19.8172 4.24007 20.02C4.43861 20.223 4.68165 20.3771 4.95003 20.47C5.13788 20.5284 5.33334 20.5587 5.53004 20.56C5.61641 20.5703 5.70369 20.5703 5.79005 20.56L9.30006 20.05C9.67924 19.9909 10.0296 19.8123 10.3001 19.54L18.38 11.46L20.26 9.58999C20.4817 9.37121 20.6436 9.0992 20.7301 8.79998C20.8219 8.50549 20.8391 8.19277 20.78 7.88998ZM16.3001 10.43L13.88 8.01998C13.7396 7.87936 13.6607 7.68874 13.6607 7.48999C13.6607 7.29124 13.7396 7.10061 13.88 6.95999C14.0206 6.81954 14.2113 6.74066 14.41 6.74066C14.6088 6.74066 14.7994 6.81954 14.94 6.95999L17.3601 9.36999C17.5005 9.51062 17.5794 9.70124 17.5794 9.89999C17.5794 10.0987 17.5005 10.2894 17.3601 10.43C17.2194 10.5704 17.0288 10.6493 16.83 10.6493C16.6313 10.6493 16.4407 10.5704 16.3001 10.43Z" fill="black"/>
</svg>
