<svg width="24" height="24" viewBox="0 0 24 24" fill="none" xmlns="http://www.w3.org/2000/svg">
<path d="M21.8553 17.2489L14.2453 4.06889C14.0134 3.66818 13.6803 3.33549 13.2792 3.1042C12.8781 2.87291 12.4233 2.75116 11.9603 2.75116C11.4973 2.75116 11.0425 2.87291 10.6414 3.1042C10.2404 3.33549 9.90721 3.66818 9.67532 4.06889L2.06534 17.2589C1.83557 17.6609 1.71469 18.1159 1.71469 18.5789C1.71469 19.0419 1.83557 19.4969 2.06534 19.8989C2.29987 20.3182 2.64601 20.6644 3.06534 20.8989C3.46738 21.1284 3.92238 21.2491 4.38535 21.2489H19.6053C20.0683 21.2491 20.5233 21.1284 20.9253 20.8989C21.3447 20.6644 21.6908 20.3182 21.9253 19.8989C22.161 19.4989 22.2853 19.0431 22.2853 18.5789C22.2853 18.1146 22.161 17.6589 21.9253 17.2589L21.8553 17.2489ZM14.9753 14.0689L11.2453 17.7889C11.1772 17.8604 11.0948 17.9169 11.0035 17.9548C10.9122 17.9927 10.8141 18.0111 10.7153 18.0089C10.6168 18.0094 10.5191 17.9901 10.4281 17.9524C10.3371 17.9146 10.2546 17.859 10.1853 17.7889C10.0449 17.6483 9.96597 17.4576 9.96597 17.2589C9.96597 17.0601 10.0449 16.8695 10.1853 16.7289L12.6353 14.2889H9.47531C9.32667 14.2877 9.18172 14.2425 9.05887 14.1588C8.93602 14.0751 8.8408 13.9568 8.78531 13.8189C8.72848 13.6833 8.71335 13.5338 8.74185 13.3895C8.77035 13.2452 8.84121 13.1127 8.94534 13.0089L12.6753 9.2789C12.8175 9.14642 13.0056 9.07429 13.1999 9.07771C13.3942 9.08114 13.5795 9.15986 13.7169 9.29727C13.8544 9.43468 13.9331 9.62008 13.9365 9.81438C13.9399 10.0087 13.8678 10.1967 13.7353 10.3389L11.2853 12.7889H14.4453C14.5931 12.7879 14.7378 12.8312 14.8608 12.9132C14.9838 12.9951 15.0794 13.1121 15.1353 13.2489C15.1917 13.3863 15.2065 13.5371 15.1781 13.6828C15.1496 13.8286 15.0792 13.9628 14.9753 14.0689Z" fill="black"/>
</svg>
