<svg width="24" height="24" viewBox="0 0 24 24" fill="none" xmlns="http://www.w3.org/2000/svg">
<path d="M15.25 2H8.75C6.9606 2.00265 5.24528 2.71468 3.97998 3.97998C2.71468 5.24528 2.00265 6.9606 2 8.75V15.25C2.00265 17.0394 2.71468 18.7547 3.97998 20.02C5.24528 21.2853 6.9606 21.9974 8.75 22H15.25C17.0394 21.9974 18.7547 21.2853 20.02 20.02C21.2853 18.7547 21.9974 17.0394 22 15.25V8.75C21.9974 6.9606 21.2853 5.24528 20.02 3.97998C18.7547 2.71468 17.0394 2.00265 15.25 2ZM10.96 7.56C10.96 7.29478 11.0654 7.04044 11.2529 6.85291C11.4405 6.66537 11.6947 6.56 11.96 6.56C12.2252 6.56 12.4796 6.66537 12.6671 6.85291C12.8547 7.04044 12.96 7.29478 12.96 7.56V13.73C12.96 13.9952 12.8547 14.2496 12.6671 14.4371C12.4796 14.6247 12.2252 14.73 11.96 14.73C11.6947 14.73 11.4405 14.6247 11.2529 14.4371C11.0654 14.2496 10.96 13.9952 10.96 13.73V7.56ZM11.96 18.14C11.7622 18.14 11.5689 18.0814 11.4044 17.9715C11.24 17.8616 11.1118 17.7054 11.0361 17.5227C10.9604 17.34 10.9407 17.1389 10.9792 16.9449C11.0178 16.7509 11.1131 16.5728 11.2529 16.4329C11.3928 16.2931 11.5709 16.1978 11.7649 16.1592C11.9589 16.1207 12.1599 16.1404 12.3427 16.2161C12.5254 16.2918 12.6816 16.42 12.7915 16.5844C12.9014 16.7489 12.96 16.9422 12.96 17.14C12.9601 17.4001 12.8588 17.65 12.6777 17.8367C12.4966 18.0234 12.25 18.1322 11.99 18.14H11.96Z" fill="black"/>
</svg>
