<svg width="24" height="24" viewBox="0 0 24 24" fill="none" xmlns="http://www.w3.org/2000/svg">
<path d="M16.59 2H7.42004C5.98257 2 4.60397 2.57103 3.58752 3.58748C2.57108 4.60393 2 5.98252 2 7.42V16.59C2.00265 18.0257 2.5749 19.4018 3.59106 20.416C4.60722 21.4303 5.9843 22 7.42004 22H16.59C18.024 21.9974 19.3985 21.4265 20.4125 20.4125C21.4265 19.3985 21.9974 18.024 22 16.59V7.42C22 5.98426 21.4304 4.60716 20.4161 3.591C19.4018 2.57484 18.0258 2.00265 16.59 2ZM10.96 7.56999C10.96 7.30478 11.0654 7.05042 11.2529 6.86288C11.4405 6.67535 11.6948 6.56999 11.96 6.56999C12.2252 6.56999 12.4796 6.67535 12.6671 6.86288C12.8547 7.05042 12.96 7.30478 12.96 7.56999V13.73C12.96 13.9952 12.8547 14.2496 12.6671 14.4371C12.4796 14.6246 12.2252 14.73 11.96 14.73C11.6948 14.73 11.4405 14.6246 11.2529 14.4371C11.0654 14.2496 10.96 13.9952 10.96 13.73V7.56999ZM11.96 18.39C11.7132 18.388 11.4726 18.313 11.2683 18.1745C11.0641 18.0359 10.9054 17.84 10.8123 17.6115C10.7192 17.3829 10.6959 17.1319 10.7453 16.8901C10.7947 16.6482 10.9145 16.4265 11.0897 16.2526C11.2649 16.0788 11.4876 15.9608 11.7298 15.9133C11.972 15.8659 12.2229 15.8912 12.4507 15.9861C12.6785 16.081 12.8732 16.2412 13.0101 16.4466C13.147 16.6519 13.22 16.8932 13.22 17.14C13.2201 17.4681 13.0911 17.783 12.861 18.0169C12.6309 18.2507 12.3181 18.3848 11.9901 18.39H11.96Z" fill="black"/>
</svg>
