<svg width="24" height="24" viewBox="0 0 24 24" fill="none" xmlns="http://www.w3.org/2000/svg">
<path d="M12 1.75C9.97274 1.75 7.99103 2.35115 6.30542 3.47743C4.61982 4.60372 3.30601 6.20454 2.53022 8.07748C1.75442 9.95043 1.55147 12.0114 1.94696 13.9997C2.34246 15.988 3.31865 17.8143 4.75214 19.2478C6.18563 20.6813 8.012 21.6575 10.0003 22.053C11.9886 22.4485 14.0495 22.2456 15.9225 21.4698C17.7954 20.694 19.3963 19.3802 20.5226 17.6946C21.6489 16.009 22.25 14.0273 22.25 12C22.2474 9.28234 21.1666 6.67674 19.2449 4.75507C17.3233 2.83339 14.7177 1.75265 12 1.75ZM11 6.75C11 6.48478 11.1054 6.23043 11.2929 6.04289C11.4804 5.85536 11.7348 5.75 12 5.75C12.2652 5.75 12.5196 5.85536 12.7071 6.04289C12.8946 6.23043 13 6.48478 13 6.75V13.08C13 13.3452 12.8946 13.5996 12.7071 13.7871C12.5196 13.9746 12.2652 14.08 12 14.08C11.7348 14.08 11.4804 13.9746 11.2929 13.7871C11.1054 13.5996 11 13.3452 11 13.08V6.75ZM12 17.83C11.7528 17.83 11.5111 17.7567 11.3055 17.6193C11.1 17.482 10.9398 17.2868 10.8452 17.0583C10.7505 16.8299 10.7258 16.5786 10.7741 16.3361C10.8223 16.0937 10.9413 15.8709 11.1162 15.6961C11.291 15.5213 11.5137 15.4022 11.7562 15.354C11.9986 15.3058 12.2499 15.3305 12.4783 15.4251C12.7067 15.5197 12.902 15.68 13.0394 15.8855C13.1767 16.0911 13.25 16.3328 13.25 16.58C13.2475 16.902 13.1198 17.2104 12.894 17.44C12.6682 17.6695 12.3619 17.8022 12.04 17.81L12 17.83Z" fill="black"/>
</svg>
