<svg width="24" height="24" viewBox="0 0 24 24" fill="none" xmlns="http://www.w3.org/2000/svg">
<path d="M21.8596 17.2489L14.2497 4.05893C14.0158 3.66072 13.6819 3.33055 13.2811 3.10114C12.8803 2.87172 12.4265 2.75104 11.9647 2.75104C11.5029 2.75104 11.049 2.87172 10.6482 3.10114C10.2474 3.33055 9.91355 3.66072 9.67966 4.05893L2.06967 17.2489C1.83398 17.6489 1.70969 18.1047 1.70969 18.5689C1.70969 19.0332 1.83398 19.489 2.06967 19.8889C2.30421 20.3083 2.65035 20.6544 3.06967 20.8889C3.47093 21.1215 3.92588 21.2456 4.38968 21.2489H19.6197C20.0826 21.2487 20.5374 21.128 20.9397 20.8989C21.359 20.6644 21.7051 20.3183 21.9397 19.8989C22.1694 19.4969 22.2903 19.0419 22.2903 18.5789C22.2903 18.1159 22.1694 17.7653 21.9397 17.3633L21.8596 17.2489ZM10.9597 7.54892C10.9597 7.2837 11.065 7.02935 11.2525 6.84181C11.4401 6.65428 11.6945 6.54892 11.9597 6.54892C12.2249 6.54892 12.4792 6.65428 12.6668 6.84181C12.8543 7.02935 12.9597 7.2837 12.9597 7.54892V13.8289C12.9597 14.0941 12.8543 14.3485 12.6668 14.536C12.4792 14.7236 12.2249 14.8289 11.9597 14.8289C11.6945 14.8289 11.4401 14.7236 11.2525 14.536C11.065 14.3485 10.9597 14.0941 10.9597 13.8289V7.54892ZM12.0097 18.5489C11.7624 18.5489 11.5208 18.4756 11.3152 18.3383C11.1097 18.2009 10.9494 18.0057 10.8548 17.7773C10.7602 17.5489 10.7354 17.2975 10.7837 17.0551C10.8319 16.8126 10.9509 16.5899 11.1258 16.415C11.3006 16.2402 11.5233 16.1212 11.7658 16.0729C12.0083 16.0247 12.2596 16.0495 12.488 16.1441C12.7164 16.2387 12.9116 16.3989 13.049 16.6045C13.1863 16.81 13.2597 17.0517 13.2597 17.2989C13.2597 17.4639 13.227 17.6273 13.1635 17.7796C13.1001 17.9319 13.0072 18.0702 12.89 18.1864C12.7729 18.3026 12.6339 18.3944 12.4811 18.4567C12.3283 18.5189 12.1647 18.5502 11.9997 18.5489H12.0097Z" fill="black"/>
</svg>
