<svg width="24" height="24" viewBox="0 0 24 24" fill="none" xmlns="http://www.w3.org/2000/svg">
<path d="M10.9315 14.0903L5.86157 19.1603H8.99158C9.19049 19.1603 9.3812 19.2394 9.52185 19.38C9.6625 19.5207 9.74158 19.7114 9.74158 19.9103C9.74158 20.1093 9.6625 20.3 9.52185 20.4407C9.3812 20.5813 9.19049 20.6603 8.99158 20.6603H4.05151H3.90149C3.7593 20.6286 3.62814 20.5596 3.52148 20.4603C3.41872 20.3562 3.34917 20.224 3.32153 20.0803C3.31665 20.0304 3.31665 19.9802 3.32153 19.9303V14.9803C3.32153 14.7814 3.40048 14.5907 3.54114 14.45C3.68179 14.3094 3.87262 14.2303 4.07153 14.2303C4.27044 14.2303 4.46115 14.3094 4.60181 14.45C4.74246 14.5907 4.82153 14.7814 4.82153 14.9803V18.0903L9.89148 13.0203C9.96042 12.9496 10.0429 12.8933 10.1339 12.8549C10.2249 12.8166 10.3227 12.7968 10.4215 12.7968C10.5203 12.7968 10.6181 12.8166 10.7091 12.8549C10.8001 12.8933 10.8826 12.9496 10.9515 13.0203C11.0213 13.0915 11.0762 13.1758 11.113 13.2683C11.1499 13.3609 11.1679 13.4599 11.166 13.5595C11.1642 13.6592 11.1424 13.7574 11.1022 13.8485C11.0619 13.9396 11.0039 14.0219 10.9315 14.0903Z" fill="black"/>
<path d="M20.6715 4.09027V9.04028C20.6715 9.23919 20.5926 9.42993 20.4519 9.57059C20.3113 9.71124 20.1204 9.79028 19.9215 9.79028C19.7226 9.79028 19.5319 9.71124 19.3912 9.57059C19.2506 9.42993 19.1715 9.23919 19.1715 9.04028V5.90027L14.1116 10.9703C14.0423 11.0404 13.9597 11.0959 13.8687 11.1337C13.7776 11.1715 13.6801 11.1907 13.5815 11.1903C13.4828 11.1925 13.3846 11.1741 13.2933 11.1362C13.2021 11.0983 13.1197 11.0418 13.0515 10.9703C12.9808 10.9013 12.9245 10.8189 12.8861 10.7279C12.8477 10.6368 12.828 10.5391 12.828 10.4403C12.828 10.3415 12.8477 10.2437 12.8861 10.1526C12.9245 10.0616 12.9808 9.97922 13.0515 9.91028L18.1116 4.84027H14.9816C14.7827 4.84027 14.5918 4.76126 14.4512 4.62061C14.3105 4.47995 14.2316 4.28918 14.2316 4.09027C14.2316 3.89136 14.3105 3.70059 14.4512 3.55994C14.5918 3.41928 14.7827 3.34027 14.9816 3.34027H19.9215C20.0077 3.33635 20.0935 3.3535 20.1715 3.39026C20.2773 3.42326 20.3735 3.48164 20.4515 3.56027C20.557 3.66382 20.6299 3.79588 20.6615 3.94028C20.6615 3.94028 20.6715 3.99027 20.6715 4.09027Z" fill="black"/>
<path d="M20.6716 4.0903V4.23032C20.6856 4.13416 20.6856 4.03646 20.6716 3.94031C20.6616 3.94031 20.6716 3.9903 20.6716 4.0903Z" fill="black"/>
</svg>
