<svg width="24" height="24" viewBox="0 0 24 24" fill="none" xmlns="http://www.w3.org/2000/svg">
<path d="M21.7777 11.0521C20.8898 9.21279 19.5011 7.66113 17.7712 6.5753C16.0413 5.48947 14.0402 4.91348 11.9978 4.91348C9.95531 4.91348 7.95427 5.48947 6.22434 6.5753C4.49441 7.66113 3.1057 9.21279 2.21775 11.0521C2.07273 11.3656 1.99769 11.7068 1.99778 12.0521C1.99639 12.3976 2.07149 12.7391 2.21775 13.0521C3.08461 14.9017 4.47548 16.456 6.21775 17.5221C7.94199 18.5986 9.94596 19.1413 11.9778 19.0821H12.2678C14.257 19.0846 16.206 18.522 17.8879 17.4598C19.5697 16.3975 20.9153 14.8794 21.7678 13.0821C21.922 12.7713 22.0022 12.4291 22.0022 12.0821C22.0022 11.7352 21.922 11.3929 21.7678 11.0821L21.7777 11.0521ZM11.9978 15.3321C11.3427 15.3341 10.7017 15.1417 10.1561 14.7792C9.61046 14.4167 9.18465 13.9004 8.93259 13.2958C8.68053 12.6911 8.61356 12.0253 8.74015 11.3825C8.86673 10.7398 9.1812 10.1491 9.64371 9.68517C10.1062 9.22125 10.696 8.90502 11.3384 8.77649C11.9807 8.64796 12.6467 8.71292 13.2521 8.96315C13.8575 9.21338 14.3751 9.63762 14.7392 10.1822C15.1034 10.7267 15.2978 11.3671 15.2978 12.0221C15.2978 12.8983 14.9504 13.7387 14.3318 14.3591C13.7132 14.9796 12.8739 15.3295 11.9978 15.3321Z" fill="black"/>
</svg>
