<svg width="24" height="24" viewBox="0 0 24 24" fill="none" xmlns="http://www.w3.org/2000/svg">
<path d="M21.4499 11.1105C20.6136 9.33224 19.2753 7.83751 17.5999 6.81054C16.3552 6.01988 14.957 5.5021 13.4976 5.2914C12.0382 5.08071 10.5506 5.18188 9.1331 5.58822C7.71563 5.99456 6.4005 6.69687 5.27434 7.64877C4.14818 8.60066 3.23665 9.78053 2.5999 11.1105C2.45196 11.4052 2.37644 11.7309 2.37981 12.0605C2.37803 12.3889 2.44987 12.7135 2.58989 13.0105C3.40086 14.7426 4.68825 16.2079 6.30156 17.235C7.91487 18.2622 9.78735 18.8087 11.6999 18.8105H11.9799C13.946 18.8735 15.8869 18.3552 17.5599 17.3205C19.2337 16.2873 20.5713 14.7899 21.4098 13.0105C21.5484 12.713 21.6203 12.3888 21.6203 12.0605C21.6203 11.7323 21.5484 11.4081 21.4098 11.1105H21.4499ZM12.0398 15.7105C11.3179 15.7105 10.6122 15.4965 10.012 15.0954C9.41177 14.6943 8.94391 14.1243 8.66765 13.4573C8.39139 12.7904 8.31917 12.0565 8.46001 11.3484C8.60084 10.6404 8.94845 9.99004 9.45891 9.47958C9.96937 8.96911 10.6198 8.62148 11.3278 8.48064C12.0358 8.33981 12.7697 8.41212 13.4367 8.68838C14.1036 8.96464 14.6737 9.43247 15.0748 10.0327C15.4758 10.6329 15.6899 11.3386 15.6899 12.0605C15.6872 13.0278 15.3018 13.9546 14.6178 14.6385C13.9339 15.3225 13.0071 15.7079 12.0398 15.7105Z" fill="black"/>
<path d="M14.1898 12.0606C14.1898 12.4858 14.0638 12.9015 13.8275 13.2551C13.5913 13.6086 13.2554 13.8842 12.8625 14.0469C12.4697 14.2097 12.0374 14.2522 11.6204 14.1693C11.2033 14.0863 10.8202 13.8816 10.5195 13.5809C10.2188 13.2802 10.0141 12.8971 9.93115 12.48C9.84819 12.063 9.89074 11.6307 10.0535 11.2378C10.2162 10.845 10.4918 10.5092 10.8453 10.2729C11.1989 10.0367 11.6146 9.91058 12.0398 9.91058C12.3221 9.91058 12.6017 9.9662 12.8625 10.0742C13.1234 10.1823 13.3604 10.3407 13.5601 10.5403C13.7597 10.74 13.9181 10.977 14.0261 11.2378C14.1342 11.4987 14.1898 11.7783 14.1898 12.0606Z" fill="black"/>
</svg>
