<svg width="24" height="24" viewBox="0 0 24 24" fill="none" xmlns="http://www.w3.org/2000/svg">
<path d="M20.4951 7.433V16.633C20.4794 16.9889 20.369 17.3341 20.1752 17.633C19.9725 17.9407 19.6886 18.1864 19.3551 18.343C19.0999 18.4555 18.8241 18.5134 18.5452 18.513C18.4588 18.5226 18.3716 18.5226 18.2852 18.513C17.9156 18.4757 17.5665 18.3255 17.2852 18.083L12.7451 14.203V16.623C12.7294 16.9789 12.619 17.3241 12.4252 17.623C12.2504 17.8959 12.0092 18.1199 11.724 18.2738C11.4388 18.4278 11.1192 18.5066 10.7952 18.503C10.7088 18.5125 10.6216 18.5125 10.5352 18.503C10.1656 18.4656 9.81647 18.3155 9.53516 18.073L4.18518 13.493C3.96931 13.311 3.79823 13.0817 3.68518 12.823C3.56646 12.5695 3.50488 12.2929 3.50488 12.013C3.50488 11.733 3.56646 11.4565 3.68518 11.203C3.79823 10.9442 3.96931 10.715 4.18518 10.533L9.52515 5.96299C9.80555 5.71738 10.1546 5.56379 10.5251 5.52299C10.8898 5.46973 11.262 5.5254 11.5951 5.683C11.9297 5.83322 12.2143 6.07611 12.4152 6.38298C12.609 6.68186 12.7194 7.02709 12.7351 7.38298V9.80299L17.2651 5.933C17.5452 5.68683 17.8944 5.53316 18.2651 5.49299C18.6271 5.4515 18.9935 5.50967 19.3248 5.66124C19.6562 5.8128 19.9398 6.05198 20.1451 6.35298C20.3637 6.67161 20.4852 7.04675 20.4951 7.433Z" fill="black"/>
</svg>
