<svg width="24" height="24" viewBox="0 0 24 24" fill="none" xmlns="http://www.w3.org/2000/svg">
<path d="M20.04 7.09999C19.8507 6.63153 19.5683 6.20631 19.2101 5.84999L16.53 3.12999C16.1714 2.77203 15.7469 2.48679 15.28 2.28999C14.8166 2.10001 14.3209 2.00153 13.8201 2H7.46997C6.45327 2.00265 5.47921 2.40838 4.76123 3.12823C4.04325 3.84809 3.64001 4.8233 3.64001 5.84V18.17C3.63869 18.6733 3.73682 19.1719 3.92883 19.6372C4.12084 20.1025 4.403 20.5252 4.75891 20.8811C5.11482 21.2371 5.53753 21.5191 6.00281 21.7111C6.46808 21.9031 6.96664 22.0013 7.46997 22H16.53C17.0334 22.0013 17.532 21.9031 17.9973 21.7111C18.4626 21.5191 18.8853 21.2371 19.2412 20.8811C19.5971 20.5252 19.8792 20.1025 20.0712 19.6372C20.2632 19.1719 20.3613 18.6733 20.36 18.17V8.56999C20.3548 8.06328 20.246 7.56299 20.04 7.09999ZM15.1901 15.85C15.2838 15.943 15.3582 16.0536 15.4089 16.1754C15.4597 16.2973 15.4858 16.428 15.4858 16.56C15.4858 16.692 15.4597 16.8227 15.4089 16.9446C15.3582 17.0664 15.2838 17.177 15.1901 17.27C15.0966 17.3627 14.9857 17.436 14.8639 17.4858C14.7421 17.5355 14.6116 17.5608 14.48 17.56C14.3484 17.5608 14.2179 17.5355 14.0961 17.4858C13.9742 17.436 13.8635 17.3627 13.77 17.27L11.9601 15.45L10.15 17.26C9.96172 17.447 9.70689 17.5515 9.44153 17.5506C9.17616 17.5496 8.92196 17.4433 8.73498 17.255C8.54801 17.0667 8.44352 16.8118 8.44446 16.5465C8.44539 16.2811 8.55168 16.027 8.73999 15.84L10.54 14.04L8.73999 12.23C8.57616 12.0387 8.49064 11.7926 8.50036 11.5409C8.51009 11.2893 8.61438 11.0505 8.79248 10.8724C8.97057 10.6943 9.20926 10.59 9.46094 10.5803C9.71261 10.5706 9.95872 10.6562 10.15 10.82L11.9601 12.62L13.77 10.81C13.863 10.7163 13.9736 10.6419 14.0955 10.5911C14.2173 10.5403 14.348 10.5142 14.48 10.5142C14.612 10.5142 14.7428 10.5403 14.8646 10.5911C14.9865 10.6419 15.0971 10.7163 15.1901 10.81C15.3763 10.9974 15.4808 11.2508 15.4808 11.515C15.4808 11.7792 15.3763 12.0326 15.1901 12.22L13.37 14.04L15.1901 15.85ZM15.99 8.28999C15.7349 8.29132 15.4821 8.24204 15.2461 8.14502C15.0101 8.04799 14.7956 7.90514 14.6152 7.72473C14.4348 7.54432 14.292 7.32993 14.1949 7.09396C14.0979 6.85799 14.0487 6.60513 14.05 6.34999V3.51999C14.1166 3.51515 14.1834 3.51515 14.25 3.51999C14.3909 3.54846 14.5284 3.59205 14.66 3.64999C14.9462 3.7651 15.2051 3.93882 15.42 4.15999L18.15 6.87999C18.3668 7.09858 18.5399 7.35653 18.66 7.64C18.7092 7.7772 18.7493 7.91751 18.78 8.06C18.7897 8.12631 18.7897 8.19368 18.78 8.25999L15.99 8.28999Z" fill="black"/>
</svg>
