<svg width="24" height="24" viewBox="0 0 24 24" fill="none" xmlns="http://www.w3.org/2000/svg">
<path d="M20.6801 7.01398C20.458 6.54993 20.1451 6.1351 19.76 5.79398L16.76 3.07398C16.0997 2.46873 15.2613 2.09339 14.37 2.004H8.21008C7.54764 1.97591 6.88617 2.07983 6.26428 2.30976C5.64239 2.53969 5.07249 2.89103 4.58765 3.3433C4.10281 3.79557 3.71274 4.33973 3.44019 4.94416C3.16763 5.54858 3.01797 6.20119 3 6.86399V17.164C3.03538 18.1635 3.36978 19.1294 3.95984 19.937C4.5499 20.7445 5.36855 21.3566 6.31006 21.694C6.92247 21.9255 7.57613 22.0277 8.22998 21.994H15.79C16.4525 22.0221 17.1138 21.9181 17.7357 21.6882C18.3576 21.4583 18.9276 21.107 19.4125 20.6547C19.8973 20.2024 20.2874 19.6582 20.5599 19.0538C20.8325 18.4494 20.982 17.7968 21 17.134V8.564C21.0048 8.03045 20.8958 7.502 20.6801 7.01398ZM7.68005 6.61399H10.9401C11.2053 6.61399 11.4596 6.71936 11.6471 6.9069C11.8346 7.09443 11.9401 7.34877 11.9401 7.61399C11.9401 7.8792 11.8346 8.13357 11.6471 8.32111C11.4596 8.50865 11.2053 8.61399 10.9401 8.61399H7.68005C7.41484 8.61399 7.16044 8.50865 6.9729 8.32111C6.78536 8.13357 6.68005 7.8792 6.68005 7.61399C6.68005 7.34877 6.78536 7.09443 6.9729 6.9069C7.16044 6.71936 7.41484 6.61399 7.68005 6.61399ZM16.38 17.324H7.68005C7.41484 17.324 7.16044 17.2186 6.9729 17.0311C6.78536 16.8436 6.68005 16.5892 6.68005 16.324C6.68005 16.0588 6.78536 15.8044 6.9729 15.6169C7.16044 15.4294 7.41484 15.324 7.68005 15.324H16.38C16.6184 15.3579 16.8365 15.4768 16.9943 15.6587C17.1521 15.8405 17.239 16.0732 17.239 16.314C17.239 16.5548 17.1521 16.7875 16.9943 16.9693C16.8365 17.1512 16.6184 17.27 16.38 17.304V17.324ZM16.38 12.974H7.68005C7.41484 12.974 7.16044 12.8686 6.9729 12.6811C6.78536 12.4936 6.68005 12.2392 6.68005 11.974C6.68005 11.7088 6.78536 11.4544 6.9729 11.2669C7.16044 11.0793 7.41484 10.974 7.68005 10.974H16.38C16.6452 10.974 16.8996 11.0793 17.0872 11.2669C17.2747 11.4544 17.38 11.7088 17.38 11.974C17.38 12.2392 17.2747 12.4936 17.0872 12.6811C16.8996 12.8686 16.6452 12.974 16.38 12.974ZM16.0601 7.404C15.9174 7.40532 15.7759 7.37836 15.6437 7.32468C15.5115 7.271 15.3913 7.19164 15.2899 7.09122C15.1886 6.9908 15.1081 6.87129 15.0532 6.7396C14.9983 6.60791 14.97 6.46665 14.97 6.32398V3.67399C15.63 3.83399 18.2 6.47398 18.76 6.91398C18.9256 7.05349 19.0675 7.219 19.1801 7.404H16.0601Z" fill="black"/>
</svg>
