<svg width="24" height="24" viewBox="0 0 24 24" fill="none" xmlns="http://www.w3.org/2000/svg">
<path d="M19.2313 7.09996C19.0617 6.6315 18.8089 6.20628 18.488 5.84996L16.052 3.12996C15.7309 2.77199 15.3508 2.48676 14.9326 2.28996C14.5176 2.09997 14.0736 2.0015 13.6251 1.99997H7.94731C7.03525 1.99997 6.1605 2.40454 5.51558 3.12468C4.87065 3.84482 4.5084 4.82153 4.5084 5.83996V18.17C4.50722 18.6741 4.59542 19.1736 4.76793 19.6395C4.94045 20.1054 5.19381 20.5286 5.5135 20.8847C5.83319 21.2407 6.21283 21.5226 6.63054 21.714C7.04826 21.9054 7.4958 22.0026 7.94731 22H16.061C16.5117 22.001 16.9581 21.9025 17.3746 21.7103C17.7911 21.5181 18.1695 21.2359 18.488 20.8799C18.8085 20.5256 19.0622 20.1033 19.2345 19.638C19.4067 19.1726 19.494 18.6735 19.4911 18.17V8.56996C19.4994 8.06488 19.4108 7.56365 19.2313 7.09996ZM15.6491 8.28996C15.189 8.28733 14.7485 8.08209 14.4232 7.71884C14.0978 7.35558 13.9141 6.86367 13.9118 6.34996V3.51996C13.9714 3.51512 14.0312 3.51512 14.0908 3.51996C14.2197 3.54948 14.3457 3.59302 14.467 3.64996C14.7209 3.77007 14.9519 3.94316 15.1476 4.15996L17.5835 6.87995C17.7777 7.09854 17.9327 7.3565 18.0403 7.63996C18.0913 7.77538 18.1303 7.91605 18.1567 8.05996V8.25996L15.6491 8.28996Z" fill="black"/>
</svg>
