<svg width="24" height="24" viewBox="0 0 24 24" fill="none" xmlns="http://www.w3.org/2000/svg">
<path d="M19.5688 7.96002L14.5688 2.96002C14.4652 2.85456 14.3332 2.78156 14.1888 2.75H6.49878C5.90204 2.75 5.32973 2.98704 4.90778 3.409C4.48582 3.83095 4.24878 4.40326 4.24878 5V19C4.24878 19.5967 4.48582 20.169 4.90778 20.591C5.32973 21.013 5.90204 21.25 6.49878 21.25H17.4988C18.0955 21.25 18.6678 21.013 19.0898 20.591C19.5117 20.169 19.7488 19.5967 19.7488 19V8.5C19.7565 8.40252 19.7445 8.30449 19.7136 8.21173C19.6826 8.11897 19.6334 8.03339 19.5688 7.96002ZM14.3988 4.96002L17.6188 8.17999H14.3988V4.96002ZM15.3988 14.79L12.9488 17.24C12.8264 17.3646 12.6802 17.4632 12.5188 17.53C12.4081 17.5798 12.2897 17.6103 12.1688 17.62H11.8488C11.7278 17.6103 11.6094 17.5798 11.4988 17.53C11.3389 17.4606 11.1931 17.3622 11.0688 17.24L8.62878 14.79C8.55803 14.721 8.50178 14.6386 8.46338 14.5476C8.42498 14.4566 8.40521 14.3588 8.40521 14.26C8.40521 14.1612 8.42498 14.0634 8.46338 13.9724C8.50178 13.8814 8.55803 13.7989 8.62878 13.73C8.76941 13.5895 8.96 13.5107 9.15875 13.5107C9.3575 13.5107 9.54816 13.5895 9.68878 13.73L11.2588 15.31V10.66C11.2588 10.4611 11.3378 10.2704 11.4785 10.1297C11.6191 9.98905 11.8099 9.91003 12.0088 9.91003C12.2077 9.91003 12.3985 9.98905 12.5391 10.1297C12.6798 10.2704 12.7588 10.4611 12.7588 10.66V15.31L14.3388 13.73C14.481 13.5975 14.669 13.5254 14.8633 13.5288C15.0576 13.5322 15.243 13.611 15.3804 13.7484C15.5178 13.8858 15.5965 14.0712 15.6 14.2655C15.6034 14.4598 15.5313 14.6478 15.3988 14.79Z" fill="black"/>
</svg>
