<svg width="24" height="24" viewBox="0 0 24 24" fill="none" xmlns="http://www.w3.org/2000/svg">
<path d="M19.53 7.97007L14.53 2.97007C14.4611 2.8995 14.3786 2.84358 14.2875 2.80577C14.1964 2.76795 14.0986 2.74901 14 2.75004H6.5C5.90326 2.75004 5.33101 2.98708 4.90906 3.40904C4.4871 3.83099 4.25 4.4033 4.25 5.00004V19C4.25 19.5968 4.4871 20.1691 4.90906 20.591C5.33101 21.013 5.90326 21.25 6.5 21.25H17.5C18.0967 21.25 18.669 21.013 19.091 20.591C19.513 20.1691 19.75 19.5968 19.75 19V8.50004C19.7477 8.30163 19.6689 8.11179 19.53 7.97007ZM14.41 4.97007L17.53 8.09007H14.41V4.97007ZM15.27 14.5801H12.7401V17.0901C12.7401 17.289 12.661 17.4797 12.5203 17.6204C12.3797 17.7611 12.189 17.8401 11.9901 17.8401C11.7911 17.8401 11.6004 17.7611 11.4597 17.6204C11.3191 17.4797 11.2401 17.289 11.2401 17.0901V14.5801H8.73004C8.53113 14.5801 8.34036 14.501 8.19971 14.3604C8.05905 14.2197 7.98004 14.029 7.98004 13.8301C7.98004 13.6311 8.05905 13.4404 8.19971 13.2997C8.34036 13.1591 8.53113 13.0801 8.73004 13.0801H11.2401V10.55C11.2401 10.3511 11.3191 10.1604 11.4597 10.0198C11.6004 9.8791 11.7911 9.80003 11.9901 9.80003C12.189 9.80003 12.3797 9.8791 12.5203 10.0198C12.661 10.1604 12.7401 10.3511 12.7401 10.55V13.0801H15.27C15.4689 13.0801 15.6597 13.1591 15.8004 13.2997C15.941 13.4404 16.02 13.6311 16.02 13.8301C16.02 14.029 15.941 14.2197 15.8004 14.3604C15.6597 14.501 15.4689 14.5801 15.27 14.5801Z" fill="black"/>
</svg>
