<svg width="24" height="24" viewBox="0 0 24 24" fill="none" xmlns="http://www.w3.org/2000/svg">
<path d="M19.53 7.96002L14.53 2.96002C14.4264 2.85456 14.2944 2.78156 14.15 2.75H6.5C5.90326 2.75 5.33095 2.98704 4.909 3.409C4.48704 3.83095 4.25 4.40326 4.25 5V19C4.25 19.5967 4.48704 20.169 4.909 20.591C5.33095 21.013 5.90326 21.25 6.5 21.25H17.5C18.0967 21.25 18.669 21.013 19.091 20.591C19.513 20.169 19.75 19.5967 19.75 19V8.5C19.7503 8.29812 19.6713 8.10422 19.53 7.96002ZM14.3 4.85004L17.64 8.19H14.3V4.85004ZM15.38 13.76C15.3118 13.8315 15.2294 13.8881 15.1382 13.926C15.0469 13.9638 14.9488 13.9822 14.85 13.98C14.7514 13.9804 14.6538 13.9612 14.5628 13.9235C14.4718 13.8857 14.3893 13.8301 14.32 13.76L12.75 12.19V16.83C12.75 17.0289 12.671 17.2197 12.5303 17.3604C12.3897 17.501 12.1989 17.58 12 17.58C11.8011 17.58 11.6103 17.501 11.4697 17.3604C11.329 17.2197 11.25 17.0289 11.25 16.83V12.19L9.67999 13.76C9.53643 13.8987 9.34464 13.9762 9.14502 13.9762C8.9454 13.9762 8.75355 13.8987 8.60999 13.76C8.46953 13.6194 8.39062 13.4287 8.39062 13.23C8.39062 13.0312 8.46953 12.8406 8.60999 12.7L11.06 10.25C11.187 10.1264 11.3363 10.028 11.5 9.96002C11.6112 9.91346 11.7296 9.88638 11.85 9.88C11.949 9.86007 12.051 9.86007 12.15 9.88C12.4498 9.90974 12.7296 10.0443 12.94 10.26L15.38 12.7C15.4508 12.769 15.507 12.8514 15.5454 12.9424C15.5838 13.0334 15.6036 13.1312 15.6036 13.23C15.6036 13.3288 15.5838 13.4266 15.5454 13.5176C15.507 13.6087 15.4508 13.6911 15.38 13.76Z" fill="black"/>
</svg>
