<svg width="24" height="24" viewBox="0 0 24 24" fill="none" xmlns="http://www.w3.org/2000/svg">
<path d="M19.53 7.97007L14.53 2.97007C14.4611 2.8995 14.3786 2.84358 14.2875 2.80577C14.1964 2.76795 14.0986 2.74901 14 2.75004H6.5C5.90326 2.75004 5.33095 2.98708 4.909 3.40904C4.48704 3.83099 4.25 4.4033 4.25 5.00004V19C4.25 19.5968 4.48704 20.1691 4.909 20.591C5.33095 21.013 5.90326 21.25 6.5 21.25H17.5C17.7956 21.2514 18.0885 21.1938 18.3616 21.0805C18.6346 20.9671 18.8822 20.8004 19.09 20.5901C19.5102 20.1673 19.7473 19.5961 19.75 19V8.50004C19.7477 8.30163 19.6689 8.11179 19.53 7.97007ZM14.53 5.06004L17.47 8.00004H14.53V5.06004ZM15.35 12.32L11.87 15.8C11.7402 15.9345 11.5834 16.0402 11.41 16.1101C11.239 16.1819 11.0555 16.2193 10.87 16.2201C10.6846 16.2183 10.5013 16.1809 10.33 16.1101C10.1593 16.0353 10.0034 15.9302 9.87 15.8L8.14996 14.0801C8.00951 13.9394 7.93066 13.7488 7.93066 13.55C7.93066 13.3513 8.00951 13.1607 8.14996 13.0201C8.21891 12.9493 8.30137 12.8931 8.3924 12.8547C8.48342 12.8163 8.5812 12.7965 8.67999 12.7965C8.77879 12.7965 8.87656 12.8163 8.96759 12.8547C9.05862 12.8931 9.14102 12.9493 9.20996 13.0201L10.88 14.68L14.29 11.26C14.4322 11.1276 14.6202 11.0554 14.8145 11.0589C15.0088 11.0623 15.1942 11.141 15.3316 11.2784C15.469 11.4158 15.5477 11.6012 15.5511 11.7955C15.5546 11.9898 15.4825 12.1779 15.35 12.32Z" fill="black"/>
</svg>
