<svg width="24" height="24" viewBox="0 0 24 24" fill="none" xmlns="http://www.w3.org/2000/svg">
<path d="M20.08 7.09999C19.8832 6.63307 19.598 6.20861 19.24 5.84999L16.52 3.12999C16.1614 2.77203 15.7369 2.48679 15.27 2.28999C14.8066 2.10001 14.3108 2.00153 13.8099 2H7.46997C6.45316 2.00525 5.4795 2.4115 4.7605 3.13051C4.04149 3.84951 3.63526 4.82318 3.63 5.84V18.17C3.63265 19.1867 4.03833 20.1608 4.75818 20.8788C5.47803 21.5968 6.45327 22 7.46997 22H16.5299C17.5466 22 18.5218 21.5968 19.2417 20.8788C19.9616 20.1608 20.3673 19.1867 20.37 18.17V8.56999C20.3695 8.06583 20.271 7.56657 20.08 7.09999ZM15.5599 15.1H8.43994C8.17473 15.1 7.92045 14.9946 7.73291 14.8071C7.54537 14.6196 7.43994 14.3652 7.43994 14.1C7.43994 13.8348 7.54537 13.5804 7.73291 13.3929C7.92045 13.2053 8.17473 13.1 8.43994 13.1H15.5599C15.8252 13.1 16.0796 13.2053 16.2671 13.3929C16.4546 13.5804 16.5599 13.8348 16.5599 14.1C16.5599 14.3652 16.4546 14.6196 16.2671 14.8071C16.0796 14.9946 15.8252 15.1 15.5599 15.1ZM16.02 8.28C15.5063 8.27737 15.0144 8.07213 14.6511 7.70888C14.2879 7.34562 14.0826 6.85371 14.08 6.34V3.50999C14.1462 3.49951 14.2137 3.49951 14.2799 3.50999C14.4238 3.53951 14.5645 3.58306 14.7 3.64C14.9834 3.76011 15.2414 3.9332 15.46 4.14999L18.1799 6.87C18.3967 7.08858 18.5698 7.34652 18.6899 7.62999C18.7469 7.76541 18.7904 7.90608 18.8199 8.04999C18.8248 8.11657 18.8248 8.18342 18.8199 8.25L16.02 8.28Z" fill="black"/>
</svg>
