<svg width="24" height="24" viewBox="0 0 24 24" fill="none" xmlns="http://www.w3.org/2000/svg">
<path d="M20.0749 7.09999C19.8781 6.63307 19.5929 6.20861 19.235 5.84999L16.515 3.12999C16.1564 2.77203 15.7319 2.48679 15.265 2.28999C14.8054 2.09906 14.3126 2.00053 13.8149 2H7.46496C6.44827 2.00265 5.47408 2.40838 4.7561 3.12823C4.03812 3.84809 3.635 4.8233 3.63501 5.84V18.17C3.63369 18.6733 3.73182 19.1719 3.92383 19.6372C4.11583 20.1025 4.39787 20.5252 4.75378 20.8811C5.10969 21.2371 5.53253 21.5191 5.9978 21.7111C6.46307 21.9031 6.96163 22.0013 7.46496 22H16.535C17.0384 22.0013 17.5369 21.9031 18.0022 21.7111C18.4675 21.5191 18.8902 21.2371 19.2461 20.8811C19.602 20.5252 19.8842 20.1025 20.0762 19.6372C20.2682 19.1719 20.3663 18.6733 20.365 18.17V8.56999C20.3635 8.06593 20.265 7.56686 20.0749 7.09999ZM11.505 18.93C11.1735 18.93 10.8555 18.7983 10.6211 18.5639C10.3867 18.3295 10.255 18.0115 10.255 17.68C10.255 17.3485 10.3867 17.0305 10.6211 16.7961C10.8555 16.5617 11.1735 16.43 11.505 16.43C11.8365 16.43 12.1545 16.5617 12.3889 16.7961C12.6233 17.0305 12.755 17.3485 12.755 17.68C12.755 18.0115 12.6233 18.3295 12.3889 18.5639C12.1545 18.7983 11.8365 18.93 11.505 18.93ZM14.0227 13.2305C13.8118 13.5469 13.7612 13.6374 13.495 13.88C13.2356 14.1255 12.9247 14.3099 12.585 14.42V14.47V14.93C12.585 15.1952 12.4796 15.4496 12.2921 15.6371C12.1046 15.8246 11.8502 15.93 11.585 15.93C11.3197 15.93 11.0655 15.8246 10.8779 15.6371C10.6904 15.4496 10.585 15.1952 10.585 14.93V14.51C10.59 14.0766 10.726 13.6548 10.975 13.3C11.2239 12.9515 11.5725 12.6865 11.975 12.54C12.0598 12.52 12.1365 12.4746 12.1949 12.41C12.2523 12.3592 12.3079 12.3091 12.335 12.2461C12.3621 12.1831 12.3899 12.1602 12.3821 12.0117C12.3743 11.8633 12.35 11.8559 12.335 11.78C12.2782 11.689 12.2034 11.6107 12.115 11.55C12.0142 11.4772 11.8978 11.4293 11.775 11.41C11.5848 11.3685 11.386 11.3969 11.215 11.49C11.0471 11.569 10.9151 11.7082 10.845 11.88C10.7349 12.1213 10.5335 12.3091 10.285 12.4019C10.0365 12.4947 9.76136 12.4851 9.52002 12.375C9.27867 12.2649 9.09088 12.0635 8.99804 11.815C8.90521 11.5665 8.91496 11.2913 9.02502 11.05C9.28527 10.4743 9.73131 10.0026 10.2916 9.71068C10.8519 9.41873 11.494 9.32341 12.115 9.43999C12.5381 9.50971 12.9391 9.67705 13.2863 9.92874C13.6334 10.1804 13.9172 10.5096 14.115 10.89C14.2839 11.222 14.3762 11.5876 14.385 11.96C14.3742 12.3321 14.3313 12.6172 14.1868 12.918L14.0227 13.2305ZM16.015 8.26999C15.5013 8.26736 15.0094 8.06214 14.6461 7.69888C14.2829 7.33563 14.0776 6.8437 14.0749 6.32999V3.5C14.1413 3.49029 14.2087 3.49029 14.275 3.5C14.4189 3.52952 14.5595 3.57305 14.6949 3.62999C14.9798 3.7476 15.2382 3.92101 15.455 4.14L18.1849 6.85999C18.3955 7.08157 18.5648 7.33894 18.6849 7.62C18.7419 7.75542 18.7854 7.89609 18.8149 8.03999C18.8198 8.10657 18.8198 8.17341 18.8149 8.23999L16.015 8.26999Z" fill="black"/>
</svg>
