<svg width="24" height="24" viewBox="0 0 24 24" fill="none" xmlns="http://www.w3.org/2000/svg">
<path d="M19.5299 7.96005L14.5299 2.96005C14.4264 2.85459 14.2943 2.78159 14.1499 2.75002H6.49988C6.20426 2.74863 5.91134 2.80631 5.63831 2.91964C5.36527 3.03298 5.11758 3.19972 4.90985 3.41006C4.48777 3.83161 4.2504 4.40349 4.24988 5.00002V19C4.2504 19.5966 4.48777 20.1685 4.90985 20.5901C5.11758 20.8004 5.36527 20.9671 5.63831 21.0804C5.91134 21.1937 6.20426 21.2514 6.49988 21.25H17.4999C18.0966 21.25 18.6689 21.013 19.0909 20.591C19.5128 20.1691 19.7499 19.5968 19.7499 19V8.50002C19.7523 8.39973 19.734 8.30003 19.6962 8.20712C19.6583 8.11421 19.6017 8.03011 19.5299 7.96005ZM14.5299 5.08004L17.4099 7.96005H14.5299V5.08004ZM14.8399 15.65C14.9804 15.7907 15.0592 15.9813 15.0592 16.18C15.0592 16.3788 14.9804 16.5694 14.8399 16.71C14.6971 16.8472 14.5079 16.9257 14.3099 16.93C14.1115 16.9277 13.9216 16.8489 13.7799 16.71L11.9899 14.92L10.2099 16.7C10.0694 16.8407 9.87872 16.9198 9.67987 16.92C9.48187 16.9157 9.29275 16.8372 9.1499 16.7C9.00945 16.5594 8.93054 16.3688 8.93054 16.17C8.93054 15.9713 9.00945 15.7807 9.1499 15.64L10.9299 13.86L9.1499 12.08C9.01742 11.9379 8.9453 11.7498 8.94873 11.5555C8.95216 11.3612 9.03086 11.1758 9.16827 11.0384C9.30569 10.901 9.49106 10.8223 9.68536 10.8189C9.87966 10.8154 10.0677 10.8876 10.2099 11.02L11.9899 12.8L13.7799 11.01C13.9221 10.8776 14.1101 10.8054 14.3044 10.8089C14.4987 10.8123 14.6841 10.891 14.8215 11.0284C14.9589 11.1658 15.0376 11.3512 15.0411 11.5455C15.0445 11.7398 14.9724 11.9279 14.8399 12.07L13.0499 13.86L14.8399 15.65Z" fill="black"/>
</svg>
