<svg width="24" height="24" viewBox="0 0 24 24" fill="none" xmlns="http://www.w3.org/2000/svg">
<path d="M19.5299 7.96005L14.5299 2.96005C14.4264 2.85459 14.2943 2.78159 14.1499 2.75002H6.49988C6.20426 2.74863 5.91134 2.80631 5.63831 2.91964C5.36527 3.03298 5.11764 3.19972 4.90991 3.41006C4.48968 3.83284 4.25258 4.40392 4.24988 5.00002V19C4.25258 19.5961 4.48968 20.1673 4.90991 20.5901C5.11764 20.8004 5.36527 20.9671 5.63831 21.0804C5.91134 21.1937 6.20426 21.2514 6.49988 21.25H17.4999C18.0966 21.25 18.6689 21.013 19.0909 20.591C19.5128 20.1691 19.7499 19.5968 19.7499 19V8.50002C19.7523 8.39973 19.734 8.30003 19.6962 8.20712C19.6583 8.11421 19.6017 8.03011 19.5299 7.96005ZM14.3199 4.84005L17.6699 8.20004H14.3199V4.84005ZM15.3199 14.67H8.77991C8.581 14.67 8.39022 14.591 8.24957 14.4503C8.10892 14.3097 8.02991 14.1189 8.02991 13.92C8.02991 13.7211 8.10892 13.5303 8.24957 13.3897C8.39022 13.249 8.581 13.17 8.77991 13.17H15.3199C15.5188 13.17 15.7096 13.249 15.8502 13.3897C15.9909 13.5303 16.0699 13.7211 16.0699 13.92C16.0699 14.1189 15.9909 14.3097 15.8502 14.4503C15.7096 14.591 15.5188 14.67 15.3199 14.67Z" fill="black"/>
</svg>
