<svg width="24" height="24" viewBox="0 0 24 24" fill="none" xmlns="http://www.w3.org/2000/svg">
<path d="M19.53 7.97007L14.53 2.97007C14.4611 2.8995 14.3786 2.84358 14.2875 2.80577C14.1964 2.76795 14.0986 2.74901 14 2.75004H6.5C5.90326 2.75004 5.33095 2.98708 4.909 3.40904C4.48704 3.83099 4.25 4.4033 4.25 5.00004V19C4.25 19.5968 4.48704 20.1691 4.909 20.591C5.33095 21.013 5.90326 21.25 6.5 21.25H17.5C18.0967 21.25 18.669 21.013 19.091 20.591C19.513 20.1691 19.75 19.5968 19.75 19V8.50004C19.7477 8.30163 19.6689 8.11179 19.53 7.97007ZM14.27 4.83006L17.67 8.23008H14.27V4.83006ZM11.54 17.62C11.3419 17.6174 11.1527 17.5376 11.0126 17.3975C10.8725 17.2574 10.7926 17.0681 10.79 16.87C10.79 16.7217 10.834 16.5767 10.9164 16.4534C10.9988 16.3301 11.1159 16.2339 11.253 16.1772C11.39 16.1204 11.5409 16.1055 11.6863 16.1344C11.8318 16.1634 11.9654 16.2348 12.0703 16.3397C12.1752 16.4446 12.2466 16.5782 12.2756 16.7237C12.3045 16.8692 12.2897 17.02 12.2329 17.1571C12.1761 17.2941 12.08 17.4112 11.9567 17.4936C11.8333 17.576 11.6884 17.62 11.54 17.62ZM13.78 12.88C13.6655 13.1632 13.4876 13.4163 13.26 13.62C13.0362 13.8278 12.7701 13.9847 12.48 14.0801C12.436 14.1043 12.3983 14.1385 12.37 14.18C12.3555 14.2324 12.3555 14.2877 12.37 14.3401V14.7101C12.37 14.909 12.291 15.0997 12.1503 15.2404C12.0097 15.381 11.8189 15.4601 11.62 15.4601C11.4211 15.4601 11.2303 15.381 11.0897 15.2404C10.949 15.0997 10.87 14.909 10.87 14.7101V14.3301C10.8802 13.9717 10.9949 13.6241 11.2 13.3301C11.4079 13.04 11.6966 12.8174 12.03 12.69C12.1253 12.6567 12.2135 12.6058 12.29 12.5401C12.363 12.4792 12.4183 12.3997 12.45 12.31C12.49 12.2221 12.5104 12.1266 12.51 12.0301C12.5008 11.937 12.4772 11.8459 12.44 11.76C12.3768 11.6505 12.2917 11.5552 12.19 11.4801C12.075 11.4045 11.9456 11.3534 11.81 11.3301C11.6104 11.3062 11.4082 11.343 11.2298 11.4358C11.0514 11.5285 10.9051 11.6729 10.81 11.8501C10.7713 11.9422 10.714 12.0254 10.6418 12.0946C10.5696 12.1637 10.484 12.2173 10.3903 12.252C10.2965 12.2867 10.1966 12.3017 10.0968 12.2962C9.99699 12.2907 9.89938 12.2648 9.81 12.2201C9.71878 12.1802 9.63657 12.1224 9.56824 12.05C9.4999 11.9776 9.44684 11.8921 9.41229 11.7987C9.37775 11.7054 9.36243 11.606 9.36719 11.5066C9.37195 11.4071 9.3967 11.3097 9.44 11.2201C9.66781 10.7279 10.0507 10.3239 10.53 10.07C11.0147 9.82563 11.5656 9.74495 12.1 9.84007C12.4608 9.89683 12.8033 10.0372 13.1 10.25C13.401 10.4673 13.6474 10.7514 13.82 11.0801C13.9615 11.3632 14.04 11.6736 14.05 11.99C14.0215 12.302 13.9297 12.6049 13.78 12.88Z" fill="black"/>
</svg>
