<svg width="24" height="24" viewBox="0 0 24 24" fill="none" xmlns="http://www.w3.org/2000/svg">
<path d="M6.86523 4.4104H3.86523C3.40111 4.4104 2.956 4.59478 2.62781 4.92297C2.29962 5.25116 2.11523 5.69627 2.11523 6.1604V18.1604C2.11523 18.6245 2.29962 19.0697 2.62781 19.3979C2.956 19.726 3.40111 19.9104 3.86523 19.9104H6.86523C7.05231 19.9114 7.23816 19.881 7.41516 19.8204V4.50043C7.23816 4.43983 7.05231 4.40938 6.86523 4.4104ZM6.11523 16.1604C6.11523 16.3593 6.03616 16.5501 5.89551 16.6907C5.75486 16.8314 5.56415 16.9104 5.36523 16.9104C5.16632 16.9104 4.97549 16.8314 4.83484 16.6907C4.69419 16.5501 4.61523 16.3593 4.61523 16.1604V15.1604C4.61523 14.9615 4.69419 14.7707 4.83484 14.6301C4.97549 14.4894 5.16632 14.4104 5.36523 14.4104C5.56415 14.4104 5.75486 14.4894 5.89551 14.6301C6.03616 14.7707 6.11523 14.9615 6.11523 15.1604V16.1604ZM11.8652 4.4104H8.86523C8.65596 4.40961 8.44863 4.45042 8.25525 4.53042V19.7904C8.44863 19.8704 8.65596 19.9112 8.86523 19.9104H11.8652C12.127 19.9098 12.3851 19.8501 12.6206 19.7358C12.8561 19.6215 13.0628 19.4556 13.2252 19.2504V5.11041C13.0695 4.89501 12.8652 4.71937 12.6289 4.59775C12.3926 4.47612 12.131 4.41192 11.8652 4.4104ZM11.1152 16.1604C11.1152 16.3593 11.0362 16.5501 10.8955 16.6907C10.7549 16.8314 10.5641 16.9104 10.3652 16.9104C10.1663 16.9104 9.97549 16.8314 9.83484 16.6907C9.69419 16.5501 9.61523 16.3593 9.61523 16.1604V15.1604C9.61523 14.9615 9.69419 14.7707 9.83484 14.6301C9.97549 14.4894 10.1663 14.4104 10.3652 14.4104C10.5641 14.4104 10.7549 14.4894 10.8955 14.6301C11.0362 14.7707 11.1152 14.9615 11.1152 15.1604V16.1604ZM21.8252 16.9404L18.6752 5.36041C18.6169 5.13761 18.5143 4.92888 18.3734 4.74673C18.2325 4.56458 18.0562 4.41278 17.8552 4.30041C17.4517 4.07048 16.9735 4.00936 16.5251 4.1304L14.0652 4.80041V13.1604L15.5552 18.6404C15.6133 18.8619 15.7148 19.0697 15.8539 19.2516C15.9929 19.4336 16.1668 19.5861 16.3652 19.7004C16.6291 19.8543 16.9298 19.9338 17.2352 19.9304C17.3905 19.9301 17.545 19.91 17.6952 19.8704L20.5952 19.0904C21.0422 18.9664 21.4221 18.671 21.6525 18.2684C21.8828 17.8658 21.9449 17.3885 21.8252 16.9404ZM18.3552 16.5804C18.2923 16.59 18.2281 16.59 18.1652 16.5804C17.999 16.5797 17.8377 16.5246 17.7058 16.4234C17.574 16.3223 17.4789 16.1807 17.4352 16.0204L17.1752 15.0204C17.1235 14.8281 17.1502 14.6232 17.2496 14.4507C17.349 14.2781 17.5129 14.1521 17.7052 14.1004C17.8975 14.0487 18.1025 14.0755 18.275 14.1749C18.4476 14.2743 18.5735 14.4381 18.6252 14.6304L18.8853 15.6304C18.9156 15.7275 18.9258 15.8299 18.9153 15.9311C18.9048 16.0323 18.8738 16.1304 18.8242 16.2192C18.7746 16.3081 18.7075 16.386 18.6268 16.4481C18.5462 16.5101 18.4538 16.5552 18.3552 16.5804Z" fill="black"/>
</svg>
