<svg width="24" height="24" viewBox="0 0 24 24" fill="none" xmlns="http://www.w3.org/2000/svg">
<path d="M20.0749 7.09998C19.8855 6.63153 19.6032 6.2063 19.245 5.84998L16.515 3.12998C16.1633 2.77069 15.7431 2.48557 15.2794 2.29148C14.8156 2.09739 14.3176 1.99827 13.8149 1.99999H7.46493C6.44824 2.00264 5.47405 2.40837 4.75607 3.12823C4.03809 3.84808 3.63497 4.82329 3.63498 5.83999V18.17C3.63366 18.6733 3.73179 19.1719 3.9238 19.6372C4.1158 20.1025 4.39784 20.5252 4.75375 20.8811C5.10966 21.2371 5.5325 21.5191 5.99777 21.7111C6.46304 21.9031 6.9616 22.0013 7.46493 22H16.535C17.0383 22.0013 17.5369 21.9031 18.0022 21.7111C18.4674 21.5191 18.8902 21.2371 19.2461 20.8811C19.602 20.5252 19.8841 20.1025 20.0761 19.6372C20.2681 19.1719 20.3663 18.6733 20.365 18.17V8.56998C20.3684 8.06544 20.2698 7.5654 20.0749 7.09998ZM15.745 12.49L11.9549 16.27C11.8017 16.433 11.6138 16.5595 11.405 16.64C11.1971 16.732 10.9723 16.7796 10.745 16.7796C10.5176 16.7796 10.2928 16.732 10.0849 16.64C9.87565 16.5549 9.68538 16.4291 9.52499 16.27L7.655 14.39C7.55032 14.3003 7.46526 14.19 7.40524 14.066C7.34522 13.9419 7.31144 13.8068 7.30612 13.669C7.3008 13.5313 7.32408 13.394 7.37436 13.2657C7.42463 13.1373 7.5009 13.0208 7.59836 12.9233C7.69581 12.8259 7.81232 12.7496 7.94064 12.6993C8.06897 12.6491 8.20624 12.6259 8.34396 12.6312C8.48168 12.6365 8.61687 12.6702 8.74093 12.7303C8.865 12.7903 8.97526 12.8753 9.06491 12.98L10.745 14.66L14.3249 11.07C14.5132 10.8817 14.7687 10.7759 15.035 10.7759C15.3013 10.7759 15.5567 10.8817 15.745 11.07C15.9333 11.2583 16.039 11.5137 16.039 11.78C16.039 12.0463 15.9333 12.3017 15.745 12.49ZM16.015 8.43998C15.4615 8.43735 14.9314 8.21631 14.54 7.82493C14.1486 7.43354 13.9276 6.90347 13.925 6.34998V3.50999C14.0948 3.51139 14.2633 3.53836 14.425 3.58999C14.5178 3.61093 14.6081 3.64108 14.6949 3.67998C14.9797 3.79759 15.2381 3.97099 15.4549 4.18998L18.1849 6.90998C18.402 7.12627 18.5722 7.38499 18.6849 7.66999C18.7238 7.75677 18.754 7.84721 18.775 7.93998C18.8266 8.10168 18.8535 8.27024 18.8549 8.43998H16.015Z" fill="black"/>
</svg>
