<svg width="24" height="24" viewBox="0 0 24 24" fill="none" xmlns="http://www.w3.org/2000/svg">
<path d="M20.0749 7.09999C19.8855 6.63153 19.6032 6.20631 19.2449 5.84999L16.525 3.12999C16.1663 2.77203 15.7419 2.48679 15.275 2.28999C14.8116 2.10001 14.3158 2.00153 13.815 2H7.4649C6.4482 2.00265 5.47414 2.40838 4.75616 3.12823C4.03818 3.84809 3.63494 4.8233 3.63495 5.84V18.17C3.63363 18.6733 3.73176 19.1719 3.92376 19.6372C4.11577 20.1025 4.39781 20.5252 4.75372 20.8811C5.10963 21.2371 5.53247 21.5191 5.99774 21.7111C6.46301 21.9031 6.96157 22.0013 7.4649 22H16.535C17.0383 22.0013 17.5369 21.9031 18.0021 21.7111C18.4674 21.5191 18.8902 21.2371 19.2462 20.8811C19.6021 20.5252 19.8841 20.1025 20.0761 19.6372C20.2681 19.1719 20.3662 18.6733 20.3649 18.17V8.56999C20.3692 8.06537 20.2705 7.56517 20.0749 7.09999ZM15.815 14.1C15.6276 14.2862 15.3741 14.3908 15.1099 14.3908C14.8457 14.3908 14.5923 14.2862 14.405 14.1L13.0049 12.7V17.32C13.0049 17.5852 12.8996 17.8396 12.7121 18.0271C12.5246 18.2146 12.2702 18.32 12.0049 18.32C11.7397 18.32 11.4853 18.2146 11.2978 18.0271C11.1103 17.8396 11.0049 17.5852 11.0049 17.32V12.7L9.60492 14.1C9.51195 14.1937 9.40134 14.2681 9.27948 14.3189C9.15762 14.3696 9.02697 14.3958 8.89496 14.3958C8.76294 14.3958 8.63217 14.3696 8.51031 14.3189C8.38845 14.2681 8.27796 14.1937 8.185 14.1C7.99874 13.9126 7.8941 13.6592 7.8941 13.395C7.8941 13.1308 7.99874 12.8773 8.185 12.69L10.8549 10.02C11.0024 9.86891 11.1794 9.74978 11.3749 9.67C11.5109 9.60895 11.6564 9.57174 11.805 9.56H12.0049H12.2049C12.3487 9.58005 12.4897 9.61697 12.6249 9.67C12.8235 9.74959 13.0038 9.86865 13.155 10.02L15.815 12.69C15.9894 12.8754 16.0864 13.1204 16.0864 13.375C16.0864 13.6296 15.9894 13.8745 15.815 14.06V14.1ZM16.025 8.32999C15.7698 8.33131 15.5169 8.28204 15.2809 8.18501C15.045 8.08799 14.8306 7.94515 14.6502 7.76474C14.4698 7.58433 14.3269 7.36993 14.2299 7.13396C14.1329 6.89799 14.0836 6.64513 14.0849 6.39V3.56C14.1515 3.55516 14.2184 3.55516 14.285 3.56C14.4259 3.58847 14.5633 3.63204 14.6949 3.68999C14.981 3.80509 15.2399 3.97883 15.4549 4.2L18.185 6.92C18.4018 7.13859 18.5748 7.39653 18.6949 7.67999C18.7441 7.8172 18.7843 7.9575 18.815 8.09999C18.8247 8.1663 18.8247 8.23368 18.815 8.29999L16.025 8.32999Z" fill="black"/>
</svg>
