<svg width="24" height="24" viewBox="0 0 24 24" fill="none" xmlns="http://www.w3.org/2000/svg">
<path d="M20.6801 7.01398C20.458 6.54993 20.1451 6.1351 19.76 5.79398L16.76 3.07398C16.0997 2.46873 15.2613 2.09339 14.37 2.004H8.21008C7.54764 1.97591 6.88617 2.07983 6.26428 2.30976C5.64239 2.53969 5.07249 2.89103 4.58765 3.3433C4.10281 3.79557 3.71274 4.33973 3.44019 4.94416C3.16763 5.54858 3.01797 6.20119 3 6.86399V17.164C3.03538 18.1635 3.36978 19.1294 3.95984 19.937C4.5499 20.7445 5.36855 21.3566 6.31006 21.694C6.92247 21.9255 7.57613 22.0277 8.22998 21.994H15.79C16.4525 22.0221 17.1138 21.9181 17.7357 21.6882C18.3576 21.4583 18.9276 21.107 19.4125 20.6547C19.8973 20.2024 20.2874 19.6582 20.5599 19.0538C20.8325 18.4494 20.982 17.7968 21 17.134V8.564C21.0048 8.03045 20.8958 7.502 20.6801 7.01398ZM15.8401 15.094L13.1801 17.764C13.0271 17.9131 12.8472 18.0319 12.65 18.114C12.5171 18.1738 12.3751 18.211 12.23 18.224C12.0983 18.254 11.9617 18.254 11.8301 18.224C11.6849 18.211 11.5429 18.1738 11.41 18.114C11.2128 18.0319 11.033 17.9131 10.88 17.764L8.21997 15.094C8.05614 14.9027 7.97063 14.6566 7.98035 14.4049C7.99007 14.1533 8.09437 13.9145 8.27246 13.7364C8.45056 13.5583 8.68924 13.454 8.94092 13.4443C9.19259 13.4346 9.4387 13.5202 9.63 13.684L11.03 15.084V10.474C11.03 10.2088 11.1353 9.95442 11.3229 9.76688C11.5104 9.57934 11.7648 9.474 12.03 9.474C12.2952 9.474 12.5496 9.57934 12.7372 9.76688C12.9247 9.95442 13.03 10.2088 13.03 10.474V15.084L14.4301 13.684C14.6214 13.5202 14.8675 13.4346 15.1191 13.4443C15.3708 13.454 15.6095 13.5583 15.7876 13.7364C15.9657 13.9145 16.07 14.1533 16.0797 14.4049C16.0894 14.6566 16.0039 14.9027 15.8401 15.094ZM16.0601 7.404C15.9174 7.40532 15.7759 7.37836 15.6437 7.32468C15.5115 7.271 15.3913 7.19164 15.2899 7.09122C15.1886 6.9908 15.1081 6.87129 15.0532 6.7396C14.9983 6.60791 14.97 6.46665 14.97 6.32398V3.67399C15.2509 3.82603 15.5215 3.99641 15.78 4.184L18.78 6.91398C18.9456 7.05349 19.0875 7.219 19.2001 7.404H16.0601Z" fill="black"/>
</svg>
