<svg width="24" height="24" viewBox="0 0 24 24" fill="none" xmlns="http://www.w3.org/2000/svg">
<path d="M20.0751 7.09999C19.8783 6.63307 19.593 6.20861 19.235 5.84999L16.515 3.12999C16.1564 2.77203 15.7319 2.48679 15.265 2.29C14.8022 2.09802 14.3061 1.99947 13.8051 2H7.4651C6.4484 2.00265 5.47422 2.40838 4.75624 3.12824C4.03826 3.84809 3.63502 4.8233 3.63502 5.84V18.17C3.6337 18.6733 3.73183 19.172 3.92384 19.6372C4.11585 20.1025 4.39801 20.5252 4.75392 20.8812C5.10983 21.2371 5.53254 21.5191 5.99782 21.7111C6.46309 21.9031 6.96177 22.0013 7.4651 22H16.525C17.5417 22 18.517 21.5968 19.2368 20.8788C19.9567 20.1608 20.3624 19.1867 20.365 18.17V8.56999C20.3635 8.06593 20.2651 7.56686 20.0751 7.09999ZM15.135 14.99H12.5651V17.54C12.5651 17.8052 12.4596 18.0596 12.2721 18.2471C12.0846 18.4346 11.8303 18.54 11.5651 18.54C11.2999 18.54 11.0455 18.4346 10.8579 18.2471C10.6704 18.0596 10.5651 17.8052 10.5651 17.54V14.99H8.01503C7.74981 14.99 7.49553 14.8846 7.308 14.6971C7.12046 14.5096 7.01503 14.2552 7.01503 13.99C7.01503 13.7248 7.12046 13.4704 7.308 13.2829C7.49553 13.0953 7.74981 12.99 8.01503 12.99H10.5651V10.43C10.5651 10.1648 10.6704 9.91042 10.8579 9.72289C11.0455 9.53535 11.2999 9.42999 11.5651 9.42999C11.8303 9.42999 12.0846 9.53535 12.2721 9.72289C12.4596 9.91042 12.5651 10.1648 12.5651 10.43V12.99H15.155C15.4203 12.99 15.6747 13.0953 15.8622 13.2829C16.0497 13.4704 16.155 13.7248 16.155 13.99C16.155 14.2552 16.0497 14.5096 15.8622 14.6971C15.6747 14.8846 15.4203 14.99 15.155 14.99H15.135ZM16.015 8.29C15.5022 8.2827 15.0117 8.07863 14.645 7.71999C14.463 7.54155 14.3186 7.32831 14.2207 7.09294C14.1228 6.85758 14.0733 6.60491 14.0751 6.34999V3.51999C14.1414 3.51028 14.2087 3.51028 14.275 3.51999C14.4189 3.54951 14.5597 3.59306 14.6951 3.65C14.9785 3.77011 15.2365 3.9432 15.4551 4.15999L18.155 6.92999C18.3718 7.14858 18.5449 7.40652 18.6651 7.68999C18.722 7.82541 18.7655 7.96608 18.7951 8.10999C18.7999 8.17657 18.7999 8.24342 18.7951 8.31L16.015 8.29Z" fill="black"/>
</svg>
