<svg width="24" height="24" viewBox="0 0 24 24" fill="none" xmlns="http://www.w3.org/2000/svg">
<path d="M19.5688 7.96002L14.5688 2.96002C14.4652 2.85456 14.3332 2.78156 14.1888 2.75H6.49878C5.90204 2.75 5.32973 2.98704 4.90778 3.409C4.48582 3.83095 4.24878 4.40326 4.24878 5V19C4.24878 19.5967 4.48582 20.169 4.90778 20.591C5.32973 21.013 5.90204 21.25 6.49878 21.25H17.4988C18.0955 21.25 18.6678 21.013 19.0898 20.591C19.5117 20.169 19.7488 19.5967 19.7488 19V8.5C19.7565 8.40252 19.7445 8.30449 19.7136 8.21173C19.6826 8.11897 19.6334 8.03339 19.5688 7.96002ZM14.4188 4.96002L17.5988 8.14001H14.4188V4.96002ZM8.03876 7.27002H11.0388C11.2377 7.27002 11.4284 7.34903 11.5691 7.48969C11.7097 7.63034 11.7888 7.82111 11.7888 8.02002C11.7888 8.21893 11.7097 8.4097 11.5691 8.55035C11.4284 8.69101 11.2377 8.77002 11.0388 8.77002H8.03876C7.83984 8.77002 7.64908 8.69101 7.50842 8.55035C7.36777 8.4097 7.28876 8.21893 7.28876 8.02002C7.28876 7.82111 7.36777 7.63034 7.50842 7.48969C7.64908 7.34903 7.83984 7.27002 8.03876 7.27002ZM16.0388 16.77H8.03876C7.83984 16.77 7.64908 16.691 7.50842 16.5504C7.36777 16.4097 7.28876 16.2189 7.28876 16.02C7.28876 15.8211 7.36777 15.6303 7.50842 15.4897C7.64908 15.349 7.83984 15.27 8.03876 15.27H16.0388C16.2377 15.27 16.4284 15.349 16.5691 15.4897C16.7097 15.6303 16.7888 15.8211 16.7888 16.02C16.7888 16.2189 16.7097 16.4097 16.5691 16.5504C16.4284 16.691 16.2377 16.77 16.0388 16.77ZM16.0388 12.77H8.03876C7.83984 12.77 7.64908 12.691 7.50842 12.5504C7.36777 12.4097 7.28876 12.2189 7.28876 12.02C7.28876 11.8211 7.36777 11.6303 7.50842 11.4897C7.64908 11.349 7.83984 11.27 8.03876 11.27H16.0388C16.2377 11.27 16.4284 11.349 16.5691 11.4897C16.7097 11.6303 16.7888 11.8211 16.7888 12.02C16.7888 12.2189 16.7097 12.4097 16.5691 12.5504C16.4284 12.691 16.2377 12.77 16.0388 12.77Z" fill="black"/>
</svg>
