<svg width="24" height="24" viewBox="0 0 24 24" fill="none" xmlns="http://www.w3.org/2000/svg">
<path d="M22.0514 17.0487L18.8288 5.20184C18.7692 4.97391 18.6641 4.76036 18.5199 4.57401C18.3758 4.38767 18.1956 4.23236 17.9899 4.11741C17.7179 3.96488 17.4117 3.88392 17.0999 3.88211C16.9444 3.88238 16.7895 3.90301 16.6394 3.94349L13.6726 4.75169C13.528 4.78832 13.3901 4.84698 13.2634 4.92561C13.0993 4.7094 12.8873 4.5341 12.6441 4.41341C12.401 4.29273 12.1333 4.22994 11.8619 4.22994H8.79272C8.42603 4.23045 8.06854 4.34484 7.76967 4.55731C7.4702 4.34605 7.11311 4.23178 6.74663 4.22994H3.67748C3.20265 4.22994 2.74716 4.41856 2.41141 4.75432C2.07566 5.09007 1.88715 5.54545 1.88715 6.02028V18.2969C1.88715 18.7717 2.07566 19.2271 2.41141 19.5628C2.74716 19.8986 3.20265 20.0872 3.67748 20.0872H6.74663C7.11311 20.0854 7.4702 19.9711 7.76967 19.7598C8.06854 19.9723 8.42603 20.0867 8.79272 20.0872H11.8619C12.3367 20.0872 12.7921 19.8986 13.1278 19.5628C13.4636 19.2271 13.6522 18.7717 13.6522 18.2969V11.5038L15.6369 18.7982C15.7397 19.1758 15.9635 19.5092 16.2739 19.7476C16.5843 19.9859 16.9643 20.116 17.3556 20.1179C17.5145 20.1183 17.6727 20.0976 17.8262 20.0565L20.7931 19.2483C21.021 19.1887 21.2345 19.0837 21.4209 18.9395C21.6072 18.7953 21.7625 18.615 21.8774 18.4094C22.1116 17.9962 22.1741 17.5076 22.0514 17.0487ZM6.2351 16.2508C6.2351 16.5221 6.12724 16.7823 5.93538 16.9742C5.74352 17.166 5.48338 17.2738 5.21205 17.2738C4.94072 17.2738 4.68046 17.166 4.4886 16.9742C4.29674 16.7823 4.18901 16.5221 4.18901 16.2508V15.2277C4.18901 14.9564 4.29674 14.6962 4.4886 14.5043C4.68046 14.3125 4.94072 14.2047 5.21205 14.2047C5.48338 14.2047 5.74352 14.3125 5.93538 14.5043C6.12724 14.6962 6.2351 14.9564 6.2351 15.2277V16.2508ZM11.3503 16.2508C11.3503 16.5221 11.2425 16.7823 11.0506 16.9742C10.8588 17.166 10.5986 17.2738 10.3273 17.2738C10.056 17.2738 9.7957 17.166 9.60384 16.9742C9.41199 16.7823 9.30425 16.5221 9.30425 16.2508V15.2277C9.30425 14.9564 9.41199 14.6962 9.60384 14.5043C9.7957 14.3125 10.056 14.2047 10.3273 14.2047C10.5986 14.2047 10.8588 14.3125 11.0506 14.5043C11.2425 14.6962 11.3503 14.9564 11.3503 15.2277V16.2508ZM20.5578 17.6523C20.5216 17.7068 20.4672 17.7467 20.4043 17.7649L17.4374 18.5731C17.375 18.5976 17.3055 18.5976 17.243 18.5731C17.2131 18.5573 17.1868 18.5356 17.1657 18.5092C17.1446 18.4828 17.129 18.4523 17.1202 18.4196L13.908 6.57272C13.8986 6.54047 13.8956 6.5067 13.8992 6.47331C13.9029 6.43992 13.913 6.40758 13.9292 6.37813C13.9453 6.34868 13.9671 6.3227 13.9933 6.30167C14.0195 6.28065 14.0496 6.26498 14.0818 6.25558L17.0487 5.4576C17.079 5.44307 17.1122 5.43554 17.1458 5.43554C17.1795 5.43554 17.2126 5.44307 17.243 5.4576C17.2987 5.49497 17.3415 5.54855 17.3658 5.61107L20.5781 17.4682C20.5874 17.5009 20.5894 17.5352 20.5841 17.5687C20.5788 17.6023 20.5664 17.6343 20.5475 17.6626L20.5578 17.6523Z" fill="black"/>
<path d="M18.5729 16.9362C18.4849 16.9517 18.3949 16.9517 18.3069 16.9362C18.0759 16.9441 17.8491 16.8736 17.6633 16.7361C17.4776 16.5987 17.3438 16.4023 17.2838 16.1791L17.0076 15.1561C16.972 15.0258 16.9628 14.8897 16.9801 14.7558C16.9974 14.6218 17.0411 14.4926 17.1086 14.3756C17.1761 14.2586 17.2661 14.1561 17.3735 14.0741C17.4808 13.9921 17.6034 13.9322 17.734 13.8978C17.9958 13.8291 18.2741 13.867 18.5081 14.0031C18.742 14.1393 18.9125 14.3626 18.9821 14.6241L19.2584 15.6472C19.2993 15.7768 19.314 15.9132 19.3016 16.0486C19.2892 16.1839 19.2499 16.3155 19.186 16.4355C19.1222 16.5555 19.0351 16.6616 18.9298 16.7476C18.8245 16.8335 18.7032 16.8977 18.5729 16.9362Z" fill="black"/>
</svg>
