<svg width="24" height="24" viewBox="0 0 24 24" fill="none" xmlns="http://www.w3.org/2000/svg">
<path d="M20.0751 7.09999C19.8857 6.63153 19.6033 6.20631 19.245 5.84999L16.515 3.12999C16.1564 2.77203 15.7319 2.48679 15.265 2.28999C14.8054 2.09906 14.3128 2.00053 13.8151 2H7.4651C6.4484 2.00265 5.47422 2.40838 4.75624 3.12823C4.03826 3.84809 3.63502 4.8233 3.63502 5.84V18.17C3.6337 18.6733 3.73196 19.1719 3.92396 19.6372C4.11597 20.1025 4.39801 20.5252 4.75392 20.8811C5.10983 21.2371 5.53254 21.5191 5.99782 21.7111C6.46309 21.9031 6.96177 22.0013 7.4651 22H16.535C17.0384 22.0013 17.5371 21.9031 18.0023 21.7111C18.4676 21.5191 18.8903 21.2371 19.2462 20.8811C19.6021 20.5252 19.8842 20.1025 20.0762 19.6372C20.2682 19.1719 20.3663 18.6733 20.365 18.17V8.56999C20.3635 8.06593 20.2651 7.56686 20.0751 7.09999ZM7.64503 6.64999H10.9151C11.1803 6.64999 11.4347 6.75535 11.6222 6.94289C11.8097 7.13042 11.9151 7.38478 11.9151 7.64999C11.9151 7.91521 11.8097 8.16957 11.6222 8.3571C11.4347 8.54464 11.1803 8.64999 10.9151 8.64999H7.64503C7.37982 8.64999 7.12554 8.54464 6.938 8.3571C6.75046 8.16957 6.64503 7.91521 6.64503 7.64999C6.64503 7.38478 6.75046 7.13042 6.938 6.94289C7.12554 6.75535 7.37982 6.64999 7.64503 6.64999ZM16.355 17.36H7.64503C7.37982 17.36 7.12554 17.2546 6.938 17.0671C6.75046 16.8796 6.64503 16.6252 6.64503 16.36C6.64503 16.0948 6.75046 15.8404 6.938 15.6529C7.12554 15.4654 7.37982 15.36 7.64503 15.36H16.355C16.6202 15.36 16.8746 15.4654 17.0621 15.6529C17.2497 15.8404 17.355 16.0948 17.355 16.36C17.355 16.6252 17.2497 16.8796 17.0621 17.0671C16.8746 17.2546 16.6202 17.36 16.355 17.36ZM16.355 13H7.64503C7.37982 13 7.12554 12.8946 6.938 12.7071C6.75046 12.5196 6.64503 12.2652 6.64503 12C6.64503 11.7348 6.75046 11.4804 6.938 11.2929C7.12554 11.1054 7.37982 11 7.64503 11H16.355C16.6202 11 16.8746 11.1054 17.0621 11.2929C17.2497 11.4804 17.355 11.7348 17.355 12C17.355 12.2652 17.2497 12.5196 17.0621 12.7071C16.8746 12.8946 16.6202 13 16.355 13ZM16.015 8.28999C15.5022 8.2827 15.0117 8.07863 14.645 7.71999C14.463 7.54155 14.3188 7.32831 14.2208 7.09294C14.1229 6.85758 14.0733 6.60491 14.0751 6.34999V3.51999C14.1414 3.51028 14.2087 3.51028 14.275 3.51999C14.4189 3.54951 14.5597 3.59305 14.6951 3.64999C14.9799 3.7676 15.2383 3.941 15.4551 4.15999L18.1651 6.92999C18.4822 7.256 18.7006 7.66509 18.7951 8.10999C18.7999 8.17656 18.7999 8.24342 18.7951 8.31L16.015 8.28999Z" fill="black"/>
</svg>
