<svg width="24" height="24" viewBox="0 0 24 24" fill="none" xmlns="http://www.w3.org/2000/svg">
<path d="M20.6801 7.02928C20.458 6.5654 20.1451 6.15072 19.76 5.80973L16.76 3.09074C16.0939 2.47491 15.2435 2.09552 14.3401 2.01115C14.2776 1.99628 14.2125 1.99628 14.15 2.01115H8.21008C7.54764 1.98307 6.88617 2.08698 6.26428 2.31683C5.64239 2.54667 5.07249 2.89785 4.58765 3.34995C4.10281 3.80205 3.71274 4.34605 3.44019 4.95025C3.16763 5.55445 3.01797 6.20679 3 6.86934V17.1655C3.03538 18.1647 3.36978 19.1303 3.95984 19.9375C4.5499 20.7448 5.36855 21.3566 6.31006 21.6939C6.92247 21.9253 7.57613 22.0274 8.22998 21.9937H15.79C16.4525 22.0218 17.1138 21.9179 17.7357 21.6881C18.3576 21.4582 18.9276 21.107 19.4125 20.6549C19.8973 20.2028 20.2874 19.6588 20.5599 19.0546C20.8325 18.4504 20.982 17.7981 21 17.1355V8.56872C21.0034 8.03873 20.8944 7.51404 20.6801 7.02928ZM16.0601 7.41915C15.9174 7.42047 15.7759 7.39353 15.6437 7.33986C15.5115 7.2862 15.3913 7.20687 15.2899 7.10649C15.1886 7.00611 15.1081 6.88664 15.0532 6.755C14.9983 6.62336 14.97 6.48215 14.97 6.33953V3.69052C15.63 3.85046 18.2 6.48947 18.76 6.92931C18.9256 7.06878 19.0675 7.23423 19.1801 7.41915H16.0601Z" fill="black"/>
</svg>
