<svg width="24" height="24" viewBox="0 0 24 24" fill="none" xmlns="http://www.w3.org/2000/svg">
<path d="M20.775 17.734C20.7763 17.8329 20.7579 17.931 20.7206 18.0226C20.6834 18.1142 20.6282 18.1974 20.5583 18.2673C20.4884 18.3372 20.4052 18.3924 20.3136 18.4296C20.222 18.4668 20.1238 18.4854 20.025 18.484H15.685C15.5195 19.0274 15.1838 19.5031 14.7274 19.8412C14.2709 20.1793 13.718 20.3618 13.15 20.3618C12.582 20.3618 12.029 20.1793 11.5726 19.8412C11.1162 19.5031 10.7805 19.0274 10.615 18.484H3.97498C3.77606 18.484 3.58529 18.405 3.44464 18.2643C3.30399 18.1237 3.22498 17.9329 3.22498 17.734C3.22498 17.5351 3.30399 17.3443 3.44464 17.2037C3.58529 17.063 3.77606 16.984 3.97498 16.984H10.615C10.7805 16.4407 11.1162 15.9649 11.5726 15.6268C12.029 15.2887 12.582 15.1062 13.15 15.1062C13.718 15.1062 14.2709 15.2887 14.7274 15.6268C15.1838 15.9649 15.5195 16.4407 15.685 16.984H20.025C20.2239 16.984 20.4146 17.063 20.5553 17.2037C20.6959 17.3443 20.775 17.5351 20.775 17.734Z" fill="black"/>
<path d="M20.7749 6.27405C20.7749 6.47296 20.6959 6.66373 20.5552 6.80438C20.4146 6.94503 20.2238 7.02405 20.0249 7.02405H18.0249C17.8625 7.56891 17.5285 8.0468 17.0727 8.3866C16.6168 8.72639 16.0635 8.90991 15.4949 8.90991C14.9264 8.90991 14.373 8.72639 13.9172 8.3866C13.4613 8.0468 13.1273 7.56891 12.9649 7.02405H4.0249C3.82599 7.02405 3.63522 6.94503 3.49457 6.80438C3.35392 6.66373 3.2749 6.47296 3.2749 6.27405C3.2749 6.07514 3.35392 5.88437 3.49457 5.74371C3.63522 5.60306 3.82599 5.52405 4.0249 5.52405H12.9649C13.1273 4.97918 13.4613 4.50129 13.9172 4.1615C14.373 3.82171 14.9264 3.63818 15.4949 3.63818C16.0635 3.63818 16.6168 3.82171 17.0727 4.1615C17.5285 4.50129 17.8625 4.97918 18.0249 5.52405H20.0249C20.1238 5.5227 20.2219 5.54115 20.3135 5.57837C20.4051 5.61558 20.4883 5.67081 20.5582 5.74072C20.6281 5.81064 20.6834 5.89387 20.7206 5.98547C20.7578 6.07708 20.7762 6.17518 20.7749 6.27405Z" fill="black"/>
<path d="M20.775 12.004C20.775 12.2029 20.6959 12.3937 20.5553 12.5344C20.4146 12.675 20.2239 12.754 20.025 12.754H9.95496C9.78945 13.2974 9.45379 13.7732 8.99738 14.1113C8.54096 14.4494 7.98798 14.6318 7.41998 14.6318C6.85199 14.6318 6.299 14.4494 5.84259 14.1113C5.38618 13.7732 5.05052 13.2974 4.88501 12.754H3.97498C3.77606 12.754 3.58529 12.675 3.44464 12.5344C3.30399 12.3937 3.22498 12.2029 3.22498 12.004C3.22498 11.8051 3.30399 11.6143 3.44464 11.4737C3.58529 11.333 3.77606 11.254 3.97498 11.254H4.88501C5.05052 10.7107 5.38618 10.2349 5.84259 9.89685C6.299 9.55876 6.85199 9.37622 7.41998 9.37622C7.98798 9.37622 8.54096 9.55876 8.99738 9.89685C9.45379 10.2349 9.78945 10.7107 9.95496 11.254H20.025C20.2239 11.254 20.4146 11.333 20.5553 11.4737C20.6959 11.6143 20.775 11.8051 20.775 12.004Z" fill="black"/>
</svg>
