<svg width="24" height="24" viewBox="0 0 24 24" fill="none" xmlns="http://www.w3.org/2000/svg">
<path d="M15.25 2H8.75C6.9606 2.00265 5.24528 2.71465 3.97998 3.97995C2.71468 5.24525 2.00265 6.9606 2 8.75V15.25C2 17.0402 2.71118 18.7571 3.97705 20.023C5.24292 21.2888 6.95979 22 8.75 22H15.25C17.0402 22 18.7571 21.2888 20.0229 20.023C21.2888 18.7571 22 17.0402 22 15.25V8.75C21.9974 6.9606 21.2854 5.24525 20.0201 3.97995C18.7548 2.71465 17.0394 2.00265 15.25 2ZM17.75 15.95H11.91C11.7515 16.471 11.4297 16.9272 10.9922 17.2514C10.5547 17.5756 10.0245 17.7506 9.47998 17.7506C8.93543 17.7506 8.4053 17.5756 7.96777 17.2514C7.53025 16.9272 7.20857 16.471 7.05005 15.95H6.25C6.05109 15.95 5.86038 15.871 5.71973 15.7303C5.57907 15.5897 5.5 15.3989 5.5 15.2C5.5 15.0011 5.57907 14.8103 5.71973 14.6697C5.86038 14.529 6.05109 14.45 6.25 14.45H7.05005C7.20857 13.929 7.53025 13.4728 7.96777 13.1486C8.4053 12.8244 8.93543 12.6494 9.47998 12.6494C10.0245 12.6494 10.5547 12.8244 10.9922 13.1486C11.4297 13.4728 11.7515 13.929 11.91 14.45H17.75C17.9489 14.45 18.1397 14.529 18.2804 14.6697C18.421 14.8103 18.5 15.0011 18.5 15.2C18.5 15.3989 18.421 15.5897 18.2804 15.7303C18.1397 15.871 17.9489 15.95 17.75 15.95ZM17.75 9.56H16.9501C16.7916 10.081 16.4698 10.5372 16.0322 10.8614C15.5947 11.1856 15.0646 11.3606 14.52 11.3606C13.9755 11.3606 13.4453 11.1856 13.0078 10.8614C12.5703 10.5372 12.2486 10.081 12.0901 9.56H6.25C6.05109 9.56 5.86038 9.48098 5.71973 9.34033C5.57907 9.19968 5.5 9.00891 5.5 8.81C5.5 8.61109 5.57907 8.42032 5.71973 8.27966C5.86038 8.13901 6.05109 8.06 6.25 8.06H12.0901C12.2486 7.53903 12.5703 7.08281 13.0078 6.75861C13.4453 6.4344 13.9755 6.25938 14.52 6.25938C15.0646 6.25938 15.5947 6.4344 16.0322 6.75861C16.4698 7.08281 16.7916 7.53903 16.9501 8.06H17.75C17.9489 8.06 18.1397 8.13901 18.2804 8.27966C18.421 8.42032 18.5 8.61109 18.5 8.81C18.5 9.00891 18.421 9.19968 18.2804 9.34033C18.1397 9.48098 17.9489 9.56 17.75 9.56Z" fill="black"/>
<path d="M10.53 15.2C10.5202 15.3954 10.4534 15.5836 10.3377 15.7413C10.2221 15.8991 10.0627 16.0194 9.87938 16.0875C9.69601 16.1556 9.49671 16.1684 9.30613 16.1243C9.11556 16.0803 8.94201 15.9813 8.80711 15.8397C8.67221 15.698 8.5818 15.5199 8.5471 15.3275C8.51239 15.135 8.53498 14.9365 8.61192 14.7567C8.68886 14.5769 8.81677 14.4235 8.97996 14.3157C9.14315 14.2079 9.33441 14.1503 9.53001 14.15C9.66565 14.1499 9.79996 14.1773 9.92466 14.2306C10.0494 14.284 10.1618 14.3622 10.2554 14.4604C10.3489 14.5586 10.4215 14.6748 10.4687 14.802C10.5159 14.9291 10.5368 15.0646 10.53 15.2Z" fill="black"/>
<path d="M15.5601 8.81C15.5601 9.00778 15.5014 9.20112 15.3915 9.36557C15.2817 9.53002 15.1255 9.65818 14.9428 9.73387C14.7601 9.80956 14.559 9.82937 14.365 9.79079C14.1711 9.7522 13.9928 9.65696 13.853 9.51711C13.7131 9.37725 13.6179 9.19906 13.5793 9.00508C13.5407 8.8111 13.5605 8.61003 13.6362 8.42731C13.7119 8.24458 13.8401 8.08841 14.0046 7.97853C14.169 7.86865 14.3623 7.81 14.5601 7.81C14.8253 7.81 15.0796 7.91535 15.2671 8.10289C15.4547 8.29043 15.5601 8.54478 15.5601 8.81Z" fill="black"/>
</svg>
