<svg width="24" height="24" viewBox="0 0 24 24" fill="none" xmlns="http://www.w3.org/2000/svg">
<path d="M19.6003 4.8805C19.6096 5.16024 19.5513 5.4381 19.4303 5.69049V5.76044L15.0103 12.6005C14.9225 12.7339 14.8772 12.8908 14.8803 13.0505V17.2205C14.8861 17.5739 14.7887 17.9214 14.6003 18.2205C14.4269 18.5036 14.1775 18.7324 13.8803 18.8805L10.6803 20.4705C10.5329 20.55 10.3678 20.5913 10.2003 20.5905C10.0087 20.59 9.82123 20.5345 9.66027 20.4305C9.50229 20.334 9.37421 20.1955 9.29028 20.0305C9.20043 19.8722 9.15548 19.6924 9.16027 19.5104V13.0905C9.16343 12.9308 9.1181 12.7739 9.03027 12.6404L4.61029 5.80048C4.46065 5.53205 4.38796 5.22754 4.40026 4.92047C4.41752 4.64687 4.5035 4.38201 4.65026 4.15045C4.79853 3.91509 5.00528 3.72216 5.2503 3.59046C5.50056 3.46244 5.77937 3.40049 6.0603 3.41046H18.0603C18.3283 3.40195 18.5939 3.46402 18.8303 3.59046C19.076 3.72499 19.2853 3.91716 19.4403 4.15045C19.5456 4.37943 19.6001 4.62848 19.6003 4.8805Z" fill="black"/>
</svg>
