<svg width="24" height="24" viewBox="0 0 24 24" fill="none" xmlns="http://www.w3.org/2000/svg">
<path d="M21.7298 7.63583C21.5648 7.23154 21.3198 6.86463 21.0095 6.55705C20.7006 6.24828 20.3333 6.00382 19.929 5.83787C19.5319 5.67572 19.1074 5.59096 18.6784 5.58816H15.8069V4.28964C15.8133 4.05327 15.769 3.81827 15.6769 3.60042C15.592 3.38589 15.4624 3.19183 15.2967 3.03108C15.1316 2.86338 14.9343 2.73085 14.7164 2.64152C14.5047 2.55028 14.2767 2.50272 14.0461 2.50168H9.924C9.68581 2.49013 9.44844 2.5382 9.23359 2.64152C9.02436 2.73133 8.83426 2.86014 8.67338 3.02108C8.50452 3.18513 8.37164 3.38241 8.28317 3.60042C8.18904 3.81444 8.1413 4.04592 8.14308 4.27965V5.58816H5.29168C4.41675 5.59865 3.5811 5.95233 2.9652 6.57283C2.34931 7.19333 2.00256 8.03081 2 8.90437V10.4826C2.00064 10.7131 2.04701 10.9412 2.1363 11.1537C2.22559 11.3663 2.35605 11.5592 2.52028 11.7212C2.66597 11.8697 2.8393 11.9885 3.03054 12.0708L3.37068 18.8231C3.43254 19.5545 3.76843 20.2358 4.31121 20.7309C4.86061 21.2245 5.57311 21.4983 6.31221 21.5H17.6879C18.427 21.4996 19.1386 21.2204 19.6803 20.7185C20.2221 20.2166 20.5538 19.5289 20.6093 18.7931L20.9395 12.0608C21.1452 11.9744 21.332 11.8488 21.4897 11.6912C21.6526 11.5287 21.7816 11.3355 21.8692 11.1229C21.9568 10.9103 22.0012 10.6825 22 10.4526V8.91437C21.9958 8.47452 21.9039 8.0399 21.7298 7.63583ZM9.64383 4.26966C9.63918 4.23652 9.63918 4.20291 9.64383 4.16978L9.71393 4.07987L9.79393 4.01994H9.89396H14.036H14.1461L14.2361 4.08987C14.241 4.11628 14.241 4.14337 14.2361 4.16978C14.2464 4.20568 14.2464 4.24375 14.2361 4.27965V5.58816H9.57385L9.64383 4.26966ZM17.1676 14.3182C17.1667 14.6439 17.0373 14.9561 16.8074 15.1872C16.6931 15.3047 16.5562 15.398 16.4049 15.4615C16.2536 15.525 16.0911 15.5574 15.927 15.5568H14.2162V17.2648C14.2152 17.5905 14.0857 17.9027 13.8559 18.1338C13.7416 18.2514 13.6047 18.3447 13.4535 18.4082C13.3022 18.4717 13.1396 18.5041 12.9755 18.5034H10.9745C10.6445 18.5034 10.328 18.3733 10.0938 18.1413C9.85951 17.9093 9.72647 17.5942 9.72383 17.2648V15.5568H8.03304C7.70358 15.5574 7.38718 15.4282 7.1526 15.1972C7.03533 15.0827 6.94223 14.946 6.87866 14.795C6.81508 14.6441 6.78233 14.4819 6.78242 14.3182V12.3205C6.78233 12.1567 6.81508 11.9946 6.87866 11.8437C6.94223 11.6927 7.03533 11.556 7.1526 11.4415C7.38837 11.2123 7.704 11.0834 8.03304 11.0819H9.73384V9.42378C9.73249 9.2599 9.76404 9.09741 9.82654 8.94587C9.88903 8.79433 9.98126 8.65681 10.0978 8.54139C10.2143 8.42598 10.3528 8.335 10.5051 8.27383C10.6574 8.21266 10.8203 8.18252 10.9845 8.18519H12.9855C13.3149 8.18459 13.6313 8.31381 13.8659 8.54478C14.0946 8.78074 14.2235 9.09548 14.2261 9.42378V11.1318H15.937C16.2665 11.1312 16.5829 11.2605 16.8175 11.4914C17.047 11.7268 17.1761 12.0419 17.1776 12.3704L17.1676 14.3182Z" fill="black"/>
<path d="M15.6669 12.6101V14.0585H13.4658C13.2668 14.0585 13.0759 14.1374 12.9352 14.2779C12.7944 14.4184 12.7154 14.609 12.7154 14.8076V17.0051H11.2646V14.8076C11.266 14.7089 11.2475 14.6109 11.2103 14.5194C11.1731 14.4279 11.1178 14.3448 11.0479 14.2749C10.9779 14.2051 10.8946 14.15 10.803 14.1128C10.7113 14.0756 10.6132 14.0571 10.5143 14.0585H8.31322V12.6101H10.5143C10.7133 12.6101 10.9042 12.5312 11.0449 12.3907C11.1857 12.2502 11.2646 12.0597 11.2646 11.861V9.66351H12.7154V11.861C12.718 12.0589 12.7979 12.2479 12.9381 12.3879C13.0782 12.5278 13.2676 12.6076 13.4658 12.6101H15.6669Z" fill="black"/>
</svg>
