<svg width="24" height="24" viewBox="0 0 24 24" fill="none" xmlns="http://www.w3.org/2000/svg">
<path d="M19.595 4.63038V14.4204C19.5946 14.5614 19.554 14.6994 19.4778 14.8181C19.4016 14.9368 19.2931 15.0312 19.165 15.0903C17.8524 15.7261 16.4224 16.0836 14.965 16.1404C13.7463 16.1664 12.5548 15.7787 11.585 15.0403C10.8701 14.4713 9.97846 14.1706 9.06494 14.1904C7.97739 14.1294 6.89176 14.339 5.90503 14.8004V20.3004C5.90503 20.4993 5.82596 20.69 5.68531 20.8307C5.54465 20.9713 5.35395 21.0504 5.15503 21.0504C4.95612 21.0504 4.76529 20.9713 4.62464 20.8307C4.48399 20.69 4.40503 20.4993 4.40503 20.3004V4.63038C4.40472 4.5306 4.42509 4.4318 4.46497 4.34034C4.49646 4.26711 4.54437 4.2021 4.60498 4.15033C4.63419 4.11222 4.67183 4.08145 4.71497 4.06037C5.06497 3.76037 6.30505 2.95038 9.04505 2.95038C10.2537 2.92954 11.434 3.31709 12.395 4.05036C13.1094 4.62153 14.0006 4.92564 14.915 4.91034C16.1641 4.85237 17.3885 4.54288 18.515 4.00037C18.6259 3.9417 18.7495 3.91102 18.875 3.91102C19.0005 3.91102 19.1241 3.9417 19.235 4.00037C19.3434 4.06635 19.4333 4.15874 19.4962 4.26893C19.5592 4.37911 19.5932 4.50348 19.595 4.63038Z" fill="black"/>
</svg>
