<svg width="24" height="24" viewBox="0 0 24 24" fill="none" xmlns="http://www.w3.org/2000/svg">
<path d="M20.87 7.175C20.5157 6.82068 20.0946 6.54015 19.6312 6.34962C19.1677 6.15909 18.6711 6.06236 18.17 6.06502H13.81C13.6456 6.06682 13.4835 6.02545 13.34 5.94502C13.1981 5.86599 13.0752 5.75674 12.98 5.62501L12.11 4.295C11.7579 3.77156 11.2832 3.34215 10.7273 3.04411C10.1713 2.74607 9.55086 2.58845 8.92004 2.585H5.83002C5.32585 2.58368 4.82639 2.68217 4.36047 2.8748C3.89454 3.06743 3.47135 3.35041 3.1153 3.70738C2.75926 4.06435 2.4774 4.48826 2.28599 4.95469C2.09457 5.42112 1.99738 5.92083 2.00002 6.425V17.585C2.00449 18.6001 2.40658 19.5729 3.12003 20.295C3.83964 21.0121 4.8141 21.4149 5.83002 21.415H18.17C19.1851 21.4106 20.158 21.0084 20.88 20.295C21.5971 19.5754 21.9999 18.6009 22 17.585V9.88502C22.0003 9.38102 21.9005 8.88197 21.7066 8.41679C21.5126 7.95161 21.2283 7.52952 20.87 7.175ZM15.79 14.445H8.21003C7.94481 14.445 7.69046 14.3396 7.50292 14.1521C7.31538 13.9646 7.21003 13.7102 7.21003 13.445C7.21003 13.1798 7.31538 12.9254 7.50292 12.7379C7.69046 12.5504 7.94481 12.445 8.21003 12.445H15.79C16.0552 12.445 16.3096 12.5504 16.4971 12.7379C16.6847 12.9254 16.79 13.1798 16.79 13.445C16.79 13.7102 16.6847 13.9646 16.4971 14.1521C16.3096 14.3396 16.0552 14.445 15.79 14.445Z" fill="black"/>
</svg>
