<svg width="24" height="24" viewBox="0 0 24 24" fill="none" xmlns="http://www.w3.org/2000/svg">
<path d="M20.1099 7.4155C19.8981 7.20501 19.6469 7.03837 19.3706 6.92512C19.0944 6.81186 18.7985 6.75422 18.4999 6.7555H11.7999C11.6768 6.76154 11.5548 6.73017 11.4499 6.6655C11.3447 6.60393 11.2556 6.51825 11.1899 6.4155L10.0799 4.7555C9.88049 4.44226 9.60537 4.18432 9.27993 4.0055C8.95328 3.82382 8.58352 3.73396 8.20992 3.74549H5.4999C4.90585 3.74869 4.33604 3.98164 3.90987 4.39552C3.48721 4.82076 3.24997 5.39593 3.2499 5.99549V17.9955C3.24858 18.2918 3.30581 18.5855 3.4183 18.8596C3.53078 19.1337 3.69629 19.383 3.90536 19.593C4.11442 19.803 4.36292 19.9696 4.63656 20.0833C4.91019 20.197 5.20358 20.2555 5.4999 20.2555H18.4999C18.7954 20.2563 19.0882 20.1984 19.3612 20.0851C19.6341 19.9718 19.8819 19.8054 20.0899 19.5955C20.5102 19.1727 20.7472 18.6016 20.7499 18.0055V9.0055C20.7539 8.71129 20.6994 8.41921 20.5896 8.14625C20.4797 7.87329 20.3166 7.62489 20.1099 7.4155ZM16.0099 16.2555H8.00991C7.811 16.2555 7.62023 16.1765 7.47958 16.0358C7.33892 15.8952 7.25991 15.7044 7.25991 15.5055C7.25991 15.3066 7.33892 15.1158 7.47958 14.9752C7.62023 14.8345 7.811 14.7555 8.00991 14.7555H16.0099C16.2088 14.7555 16.3996 14.8345 16.5402 14.9752C16.6809 15.1158 16.7599 15.3066 16.7599 15.5055C16.7599 15.7044 16.6809 15.8952 16.5402 16.0358C16.3996 16.1765 16.2088 16.2555 16.0099 16.2555Z" fill="black"/>
</svg>
