<svg width="24" height="24" viewBox="0 0 24 24" fill="none" xmlns="http://www.w3.org/2000/svg">
<path d="M20.88 7.17499C20.1594 6.46061 19.1847 6.0614 18.17 6.065H13.81C13.6458 6.06418 13.4844 6.02297 13.34 5.94501C13.2009 5.86586 13.0812 5.7565 12.99 5.625L12.12 4.29498C11.7651 3.77199 11.2884 3.34311 10.731 3.04523C10.1735 2.74734 9.55201 2.58939 8.91999 2.58499H5.84C4.82451 2.58732 3.85083 2.98971 3.12999 3.70499C2.77056 4.06069 2.48553 4.4844 2.29152 4.95139C2.09752 5.41838 1.99841 5.9193 1.99999 6.42499V17.585C1.99973 18.089 2.09949 18.588 2.29346 19.0532C2.48743 19.5184 2.77176 19.9405 3.12999 20.295C3.85083 21.0103 4.82451 21.4127 5.84 21.415H18.17C18.6733 21.4163 19.172 21.3181 19.6372 21.1261C20.1025 20.9341 20.5252 20.6521 20.8812 20.2961C21.2371 19.9402 21.5191 19.5175 21.7111 19.0522C21.9031 18.587 22.0013 18.0883 22 17.585V9.88501C22.0021 9.38163 21.9042 8.88282 21.7119 8.4176C21.5197 7.95238 21.2369 7.53 20.88 7.17499ZM15.44 14.745H13V17.185C13 17.4502 12.8946 17.7046 12.7071 17.8921C12.5196 18.0796 12.2652 18.185 12 18.185C11.7348 18.185 11.4804 18.0796 11.2929 17.8921C11.1053 17.7046 11 17.4502 11 17.185V14.745H8.57C8.30478 14.745 8.05042 14.6396 7.86289 14.4521C7.67535 14.2646 7.57 14.0102 7.57 13.745C7.57 13.4798 7.67535 13.2254 7.86289 13.0379C8.05042 12.8504 8.30478 12.745 8.57 12.745H11V10.305C11 10.0398 11.1053 9.78544 11.2929 9.5979C11.4804 9.41036 11.7348 9.30499 12 9.30499C12.2652 9.30499 12.5196 9.41036 12.7071 9.5979C12.8946 9.78544 13 10.0398 13 10.305V12.745H15.44C15.7052 12.745 15.9596 12.8504 16.1471 13.0379C16.3346 13.2254 16.44 13.4798 16.44 13.745C16.44 14.0102 16.3346 14.2646 16.1471 14.4521C15.9596 14.6396 15.7052 14.745 15.44 14.745Z" fill="black"/>
</svg>
