<svg width="24" height="24" viewBox="0 0 24 24" fill="none" xmlns="http://www.w3.org/2000/svg">
<path d="M20.75 9.00055V18.0006C20.75 18.5973 20.513 19.1696 20.091 19.5916C19.6691 20.0135 19.0968 20.2506 18.5 20.2506H5.50002C4.90329 20.2506 4.33098 20.0135 3.90902 19.5916C3.48706 19.1696 3.25002 18.5973 3.25002 18.0006V6.00055C3.2487 5.70471 3.306 5.41152 3.4186 5.13794C3.53121 4.86436 3.69689 4.61581 3.90609 4.40662C4.11529 4.19742 4.36383 4.03173 4.63741 3.91913C4.91099 3.80653 5.20418 3.74923 5.50002 3.75055H8.20003C8.57064 3.73727 8.93764 3.8273 9.26003 4.01056C9.58421 4.19482 9.86142 4.4515 10.07 4.76056L11.18 6.41055C11.2468 6.51587 11.3399 6.60201 11.45 6.66055C11.5533 6.7203 11.6707 6.75136 11.79 6.75055H18.5C19.0961 6.75325 19.6672 6.99032 20.09 7.41055C20.2999 7.61862 20.4663 7.86633 20.5796 8.13928C20.6929 8.41224 20.7509 8.70501 20.75 9.00055Z" fill="black"/>
</svg>
