<svg width="24" height="24" viewBox="0 0 24 24" fill="none" xmlns="http://www.w3.org/2000/svg">
<path d="M17 2H7C6.00544 2 5.05165 2.3951 4.34839 3.09836C3.64513 3.80162 3.25 4.75544 3.25 5.75V18.25C3.25 19.2446 3.64513 20.1984 4.34839 20.9017C5.05165 21.6049 6.00544 22 7 22H17C17.9938 21.9974 18.9461 21.6014 19.6487 20.8987C20.3514 20.1961 20.7474 19.2437 20.75 18.25V5.75C20.7474 4.75625 20.3514 3.80396 19.6487 3.10127C18.9461 2.39858 17.9938 2.00264 17 2ZM10.25 16.6H9.25V17.6C9.25 17.7989 9.17099 17.9897 9.03033 18.1303C8.88968 18.271 8.69891 18.35 8.5 18.35C8.30109 18.35 8.11032 18.271 7.96967 18.1303C7.82901 17.9897 7.75 17.7989 7.75 17.6V16.6H6.75C6.55109 16.6 6.36032 16.521 6.21967 16.3803C6.07901 16.2397 6 16.0489 6 15.85C6 15.6511 6.07901 15.4603 6.21967 15.3197C6.36032 15.179 6.55109 15.1 6.75 15.1H7.75V14.1C7.75 13.9011 7.82901 13.7103 7.96967 13.5697C8.11032 13.429 8.30109 13.35 8.5 13.35C8.69891 13.35 8.88968 13.429 9.03033 13.5697C9.17099 13.7103 9.25 13.9011 9.25 14.1V15.1H10.25C10.4489 15.1 10.6397 15.179 10.7803 15.3197C10.921 15.4603 11 15.6511 11 15.85C11 16.0489 10.921 16.2397 10.7803 16.3803C10.6397 16.521 10.4489 16.6 10.25 16.6ZM14 19.75H12C11.8011 19.75 11.6103 19.671 11.4697 19.5303C11.329 19.3897 11.25 19.1989 11.25 19C11.25 18.8011 11.329 18.6103 11.4697 18.4697C11.6103 18.329 11.8011 18.25 12 18.25H14C14.1989 18.25 14.3897 18.329 14.5303 18.4697C14.671 18.6103 14.75 18.8011 14.75 19C14.75 19.1989 14.671 19.3897 14.5303 19.5303C14.3897 19.671 14.1989 19.75 14 19.75ZM15.88 16.5C15.88 16.6989 15.801 16.8897 15.6603 17.0303C15.5197 17.171 15.3289 17.25 15.13 17.25C14.9311 17.25 14.7403 17.171 14.5997 17.0303C14.459 16.8897 14.38 16.6989 14.38 16.5V16.1C14.38 15.9011 14.459 15.7103 14.5997 15.5697C14.7403 15.429 14.9311 15.35 15.13 15.35C15.3289 15.35 15.5197 15.429 15.6603 15.5697C15.801 15.7103 15.88 15.9011 15.88 16.1V16.5ZM17.65 14.5C17.65 14.6989 17.571 14.8897 17.4304 15.0303C17.2897 15.171 17.0989 15.25 16.9 15.25C16.7011 15.25 16.5103 15.171 16.3697 15.0303C16.229 14.8897 16.15 14.6989 16.15 14.5V14.1C16.15 13.9011 16.229 13.7103 16.3697 13.5697C16.5103 13.429 16.7011 13.35 16.9 13.35C17.0989 13.35 17.2897 13.429 17.4304 13.5697C17.571 13.7103 17.65 13.9011 17.65 14.1V14.5ZM18.25 10.03C18.2267 10.473 18.0301 10.8891 17.7027 11.1884C17.3753 11.4878 16.9433 11.6464 16.5 11.63H7.5C7.05599 11.649 6.62255 11.4913 6.29456 11.1914C5.96657 10.8916 5.77076 10.4739 5.75 10.03V5.74001C5.759 5.51932 5.81144 5.30259 5.9043 5.10219C5.99715 4.90179 6.1286 4.72167 6.29114 4.57213C6.45368 4.42259 6.64413 4.30656 6.85156 4.2307C7.05899 4.15483 7.27933 4.12062 7.5 4.13H16.5C16.945 4.11371 17.3784 4.27368 17.7061 4.57515C18.0337 4.87662 18.2292 5.29523 18.25 5.74001V10.03Z" fill="black"/>
</svg>
