<svg width="24" height="24" viewBox="0 0 24 24" fill="none" xmlns="http://www.w3.org/2000/svg">
<path d="M19.2943 10.3768L13.5531 2.48142C13.3803 2.25107 13.1576 2.06271 12.9018 1.93036C12.6909 1.82045 12.4582 1.75883 12.2205 1.75H11.9199C11.6825 1.76013 11.45 1.82167 11.2386 1.93036C10.9782 2.05993 10.7517 2.24864 10.5773 2.48142L4.83611 10.3768C4.4904 10.8473 4.30428 11.4161 4.30504 12C4.30007 12.06 4.30007 12.1203 4.30504 12.1804C4.29532 12.23 4.29532 12.281 4.30504 12.3306C4.29501 12.3769 4.29501 12.4247 4.30504 12.4709C4.36243 12.8838 4.52076 13.2761 4.76596 13.6131L10.5172 21.5085C10.6876 21.7438 10.9106 21.9359 11.1685 22.0696C11.3831 22.1695 11.6138 22.2306 11.8498 22.25H12.1504C12.4127 22.2293 12.6675 22.1523 12.8974 22.0244C13.1274 21.8965 13.3271 21.7205 13.483 21.5085L19.2242 13.6232C19.4728 13.2758 19.6343 12.8737 19.695 12.4509C19.701 12.4279 19.701 12.4037 19.695 12.3807C19.7046 12.321 19.7046 12.2601 19.695 12.2004C19.7049 12.134 19.7049 12.0664 19.695 12C19.7335 11.4304 19.5934 10.8631 19.2943 10.3768ZM18.0819 12.7414L17.3805 13.7434L12.8217 15.6271V20.0056L12.3307 20.6769C12.3062 20.7195 12.267 20.7515 12.2205 20.7671C12.1724 20.7917 12.1192 20.8046 12.0652 20.8046C12.0112 20.8046 11.958 20.7917 11.9099 20.7671C11.8649 20.7489 11.8265 20.7174 11.7997 20.6769L11.3187 20.0156V15.6271L6.74981 13.7434L6.04843 12.7414C5.89017 12.5268 5.8058 12.2666 5.80797 12C5.79286 11.9004 5.79286 11.799 5.80797 11.6994L11.2787 13.9638V4.02444L11.7496 3.37316C11.7797 3.32939 11.8213 3.29475 11.8698 3.27298C11.9227 3.26245 11.9772 3.26245 12.0301 3.27298C12.0798 3.2635 12.1307 3.2635 12.1804 3.27298C12.2276 3.29257 12.2667 3.32799 12.2907 3.37316L12.7816 4.04448V13.9638L18.2423 11.6994C18.279 11.7952 18.2961 11.8974 18.2923 12C18.3026 12.2632 18.2289 12.5228 18.0819 12.7414Z" fill="black"/>
</svg>
