<svg width="24" height="24" viewBox="0 0 24 24" fill="none" xmlns="http://www.w3.org/2000/svg">
<path d="M16.62 3.00002H7.37C5.95189 2.99735 4.59048 3.55681 3.58398 4.55581C2.57749 5.55481 2.00793 6.91195 2 8.33004V15.6601C2.0053 17.0799 2.57366 18.4396 3.58044 19.4408C4.58723 20.4419 5.95016 21.0027 7.37 21H16.62C18.0408 21.0027 19.4046 20.4422 20.413 19.4414C21.4213 18.4405 21.9921 17.0808 22 15.6601V8.33004C21.9921 6.91021 21.421 5.55156 20.4124 4.55227C19.4037 3.55298 18.0398 2.9947 16.62 3.00002ZM10.98 12.58C10.9986 13.0863 10.8775 13.588 10.63 14.0301C10.392 14.4289 10.0451 14.7515 9.63 14.96C9.19012 15.1817 8.70239 15.2916 8.20996 15.2801C7.65791 15.2936 7.11236 15.1589 6.63 14.89C6.17051 14.6247 5.80119 14.2276 5.56995 13.75C5.30222 13.2061 5.16849 12.6061 5.17993 12C5.17984 11.5272 5.25752 11.0577 5.40991 10.6101C5.55251 10.2364 5.77036 9.89606 6.04993 9.61007C6.33128 9.32235 6.67276 9.10036 7.04993 8.96004C7.75131 8.68882 8.52481 8.66764 9.23999 8.90005C9.53887 9.0003 9.81923 9.14894 10.0699 9.34005C10.3079 9.52729 10.5081 9.75805 10.6599 10.02C10.8188 10.2899 10.9209 10.5893 10.96 10.9H9.57996C9.53183 10.6888 9.42737 10.4945 9.27771 10.3378C9.12805 10.1811 8.93881 10.0678 8.72998 10.01C8.57094 9.98527 8.40904 9.98527 8.25 10.01C7.93912 9.99583 7.63165 10.08 7.37134 10.2505C7.11103 10.4211 6.91105 10.6694 6.79993 10.96C6.65083 11.3176 6.57929 11.7028 6.58997 12.09C6.582 12.4794 6.64988 12.8666 6.78992 13.2301C6.91277 13.5165 7.11385 13.7625 7.37 13.94C7.63184 14.1082 7.93901 14.192 8.25 14.18C8.5189 14.1881 8.78588 14.1333 9.02991 14.02C9.25042 13.9107 9.43198 13.7361 9.54993 13.52C9.65781 13.317 9.71286 13.09 9.70996 12.8601H8.30994V11.8601H11.01L10.98 12.58ZM13.45 15.12C13.4546 15.1311 13.457 15.143 13.457 15.1551C13.457 15.1671 13.4546 15.1789 13.45 15.19H13.39H12.1799V8.98006H13.39C13.39 8.98006 13.39 8.98006 13.45 8.98006C13.4568 8.99948 13.4568 9.02065 13.45 9.04006V15.12ZM18.7899 9.94002H16.08H16.0199C16.0155 9.9494 16.0132 9.95968 16.0132 9.97005C16.0132 9.98043 16.0155 9.99065 16.0199 10V11.34C16.0161 11.3599 16.0161 11.3802 16.0199 11.4H16.08H18.59V12.52H16.08H16.0199C16.013 12.5395 16.013 12.5606 16.0199 12.58V15.08H14.76C14.76 15.08 14.76 15.0801 14.76 15.0301V8.82003C14.7583 8.80913 14.7592 8.79798 14.7626 8.7875C14.766 8.77701 14.7719 8.76753 14.7797 8.75973C14.7875 8.75193 14.7969 8.74605 14.8074 8.74264C14.8179 8.73922 14.8291 8.7383 14.84 8.74001H18.7899V9.94002Z" fill="black"/>
</svg>
