<svg width="24" height="24" viewBox="0 0 24 24" fill="none" xmlns="http://www.w3.org/2000/svg">
<path d="M11.765 2.58496C11.1837 2.69248 10.6356 2.93489 10.165 3.29266C9.69432 3.65043 9.31414 4.11358 9.05499 4.64496C7.97528 6.68075 7.41216 8.95062 7.41504 11.255H2.63501C2.82133 8.9389 3.85622 6.77312 5.54114 5.1731C7.22606 3.57307 9.44238 2.6514 11.765 2.58496Z" fill="black"/>
<path d="M15.085 12.755C14.925 16.905 13.385 19.925 12.005 19.925C10.625 19.925 9.07504 16.925 8.91504 12.755H15.085Z" fill="black"/>
<path d="M15.085 11.2549H8.91504C9.07504 7.09494 10.615 4.07495 12.005 4.07495C13.395 4.07495 14.925 7.09494 15.085 11.2549Z" fill="black"/>
<path d="M11.765 21.415C9.43872 21.3561 7.21636 20.4391 5.52539 18.8404C3.83442 17.2417 2.79425 15.0743 2.60498 12.755H7.41504C7.40929 15.0597 7.97258 17.3302 9.05499 19.365C9.31536 19.8945 9.6961 20.3557 10.1667 20.7117C10.6373 21.0676 11.1846 21.3085 11.765 21.415Z" fill="black"/>
<path d="M21.395 11.255H16.6349C16.6378 8.95062 16.0746 6.68075 14.9949 4.64496C14.7381 4.11384 14.3598 3.65065 13.8907 3.29279C13.4217 2.93492 12.875 2.69243 12.2949 2.58496C14.6123 2.65865 16.8214 3.58353 18.5 5.18286C20.1786 6.78219 21.2093 8.9439 21.395 11.255Z" fill="black"/>
<path d="M21.395 12.755C21.206 15.0727 20.1672 17.2387 18.4783 18.8372C16.7895 20.4356 14.5695 21.3536 12.245 21.415C12.8196 21.3146 13.3628 21.0815 13.8315 20.7343C14.3003 20.3871 14.6815 19.9354 14.945 19.415C16.0274 17.3802 16.5908 15.1097 16.585 12.805L21.395 12.755Z" fill="black"/>
</svg>
