<svg width="24" height="24" viewBox="0 0 24 24" fill="none" xmlns="http://www.w3.org/2000/svg">
<path d="M11.9921 14.65C11.467 14.6505 10.9536 14.495 10.5171 14.2032C10.0805 13.9114 9.7405 13.4965 9.54015 13.0112C9.3398 12.5258 9.28812 11.9919 9.39171 11.4772C9.49531 10.9624 9.74956 10.4901 10.1221 10.12C10.264 9.97944 10.4558 9.90105 10.6555 9.90199C10.8552 9.90292 11.0464 9.98312 11.187 10.125C11.3276 10.2669 11.406 10.4589 11.405 10.6586C11.4041 10.8583 11.3239 11.0494 11.182 11.19C11.0741 11.2955 10.9884 11.4215 10.93 11.5606C10.8716 11.6997 10.8418 11.8491 10.842 12C10.8287 12.2375 10.8901 12.4732 11.0174 12.6741C11.1448 12.875 11.3318 13.0311 11.5522 13.1204C11.7727 13.2097 12.0157 13.2278 12.2469 13.1721C12.4782 13.1165 12.6863 12.9898 12.842 12.81C12.9844 12.6689 13.1767 12.5898 13.3771 12.5898C13.5775 12.5898 13.7696 12.6689 13.912 12.81C14.0507 12.9536 14.1283 13.1454 14.1283 13.345C14.1283 13.5447 14.0507 13.7364 13.912 13.88C13.6593 14.1296 13.3593 14.3263 13.0297 14.4585C12.7 14.5907 12.3472 14.6559 11.9921 14.65Z" fill="black"/>
<path d="M22.2421 12C22.2421 14.7185 21.1621 17.3256 19.2399 19.2479C17.3176 21.1701 14.7105 22.25 11.9921 22.25C11.3205 22.2483 10.6507 22.1813 9.99207 22.05C7.49975 21.5503 5.28193 20.1424 3.76929 18.0995C2.25665 16.0567 1.55705 13.5247 1.80628 10.995C2.0555 8.46533 3.23583 6.11854 5.11804 4.41016C7.00026 2.70177 9.45016 1.75369 11.9921 1.75C12.191 1.75 12.3817 1.82901 12.5223 1.96967C12.663 2.11032 12.7421 2.30109 12.7421 2.5V6.29999C12.7395 6.49809 12.6596 6.68736 12.5195 6.82745C12.3794 6.96755 12.1902 7.0474 11.9921 7.04999C11.0127 7.04325 10.0542 7.33257 9.24207 7.88C8.42539 8.42125 7.78841 9.19359 7.4126 10.0984C7.03679 11.0032 6.9392 11.9994 7.13208 12.96C7.44577 14.0996 8.15298 15.0912 9.1283 15.7589C10.1036 16.4266 11.284 16.7272 12.4598 16.6073C13.6357 16.4874 14.7311 15.9549 15.5516 15.1041C16.3722 14.2534 16.8647 13.1395 16.942 11.96C16.9407 11.8612 16.9591 11.763 16.9963 11.6714C17.0336 11.5798 17.0888 11.4966 17.1587 11.4267C17.2286 11.3568 17.3118 11.3016 17.4034 11.2643C17.495 11.2271 17.5932 11.2087 17.692 11.21H21.4921C21.594 11.2099 21.6949 11.2305 21.7886 11.2707C21.8823 11.3109 21.9668 11.3697 22.037 11.4437C22.1072 11.5176 22.1615 11.605 22.1968 11.7007C22.232 11.7963 22.2475 11.8982 22.2421 12Z" fill="black"/>
<path d="M21.8821 6.13003C21.856 6.32458 21.7763 6.5081 21.652 6.66006L19.4821 8.83004C19.1743 9.14093 18.7922 9.36807 18.3721 9.49001C18.1261 9.5664 17.8696 9.60357 17.6121 9.60006C17.4357 9.61485 17.2584 9.61485 17.0821 9.60006L15.7521 9.34005L13.4721 11.63C13.3292 11.7672 13.14 11.8458 12.942 11.8501C12.7432 11.8499 12.5525 11.7707 12.412 11.63C12.3413 11.5611 12.285 11.4787 12.2466 11.3877C12.2082 11.2966 12.1885 11.1989 12.1885 11.1001C12.1885 11.0013 12.2082 10.9034 12.2466 10.8124C12.285 10.7214 12.3413 10.639 12.412 10.57L14.7021 8.27004L14.432 6.95004C14.3513 6.52457 14.372 6.08612 14.4921 5.67007C14.614 5.24992 14.8411 4.86781 15.152 4.56002L17.302 2.41006C17.4498 2.27567 17.6344 2.1886 17.8321 2.16006C18.017 2.13258 18.206 2.16403 18.3721 2.25002C18.5371 2.33395 18.6755 2.46204 18.772 2.62002C18.8697 2.7968 18.9115 2.99902 18.892 3.20003L18.5721 5.46004L20.8221 5.15005C21.0104 5.13156 21.1999 5.17032 21.3659 5.26131C21.5318 5.35231 21.6664 5.49131 21.7521 5.66006C21.8336 5.8036 21.8782 5.96503 21.8821 6.13003Z" fill="black"/>
</svg>
