<svg width="24" height="24" viewBox="0 0 24 24" fill="none" xmlns="http://www.w3.org/2000/svg">
<path d="M20.7256 19.115L19.817 14.2029C19.66 13.4939 19.2655 12.8598 18.6988 12.4057C18.1293 11.962 17.4237 11.7292 16.702 11.7468H15.0646V8.70167C15.0703 8.23632 14.9345 7.78021 14.6752 7.39377C14.7391 7.36827 14.7996 7.33473 14.855 7.29394C15.3556 6.96461 15.746 6.49266 15.9756 5.93913C16.2052 5.38559 16.2634 4.77592 16.1428 4.18891C16.0223 3.6037 15.7344 3.06609 15.3142 2.64138C14.8909 2.21924 14.3526 1.93103 13.7666 1.81271C13.3257 1.72103 12.8698 1.72998 12.4328 1.83886C11.9958 1.94775 11.589 2.15377 11.2426 2.44161C10.8962 2.72945 10.6193 3.09169 10.4322 3.50138C10.2452 3.91107 10.153 4.35765 10.1624 4.80791C10.1572 5.49722 10.39 6.16721 10.8214 6.70487C10.5794 6.80511 10.3512 6.93597 10.1424 7.09424L8.555 8.22244C8.14682 8.50934 7.82563 8.90314 7.62655 9.36062C7.54715 9.55049 7.48689 9.74782 7.44679 9.94967C6.05115 10.4551 4.8771 11.4342 4.12922 12.7164C3.38135 13.9985 3.10711 15.5025 3.35422 16.9661C3.60132 18.4297 4.35407 19.7602 5.48143 20.7258C6.60879 21.6914 8.03921 22.2308 9.52342 22.25H9.60337C10.7263 22.2525 11.8279 21.943 12.7852 21.3559C13.7424 20.7688 14.5177 19.9273 15.0246 18.9253C15.4368 18.1617 15.6915 17.3231 15.7734 16.4593H16.2526L16.8518 19.9437C16.9437 20.3824 17.1921 20.7728 17.5506 21.0419C17.8771 21.3023 18.2812 21.4463 18.6988 21.4513C18.9882 21.4659 19.2765 21.4076 19.5374 21.2815C19.8058 21.167 20.0423 20.9888 20.2264 20.7624C20.4214 20.5357 20.5583 20.265 20.6256 19.9736C20.7179 19.6974 20.752 19.405 20.7256 19.115ZM13.7368 18.1965C13.3593 18.9584 12.7754 19.5991 12.0517 20.0457C11.3281 20.4922 10.4936 20.7267 9.64322 20.7224H9.57339C8.47908 20.7036 7.42328 20.3154 6.57745 19.6208C5.73163 18.9262 5.14552 17.9661 4.91422 16.8964C4.68292 15.8266 4.82004 14.7101 5.30337 13.7281C5.7867 12.7461 6.5878 11.9564 7.57659 11.4872L8.06579 15.1114C8.08556 15.6061 8.28845 16.0757 8.63495 16.4293C8.81682 16.6117 9.03321 16.7559 9.2715 16.8536C9.50979 16.9514 9.76508 17.0006 10.0226 16.9984C10.2754 16.9983 10.5256 16.9479 10.7587 16.8502C10.9918 16.7525 11.2032 16.6094 11.3806 16.4293C11.741 16.0607 11.9449 15.567 11.9496 15.0515V11.627C12.6847 12.0393 13.2978 12.6387 13.7268 13.3642C14.1389 14.1021 14.3569 14.9326 14.3604 15.7778C14.3639 16.623 14.1528 17.4552 13.7468 18.1965H13.7368Z" fill="black"/>
</svg>
