<svg width="24" height="24" viewBox="0 0 24 24" fill="none" xmlns="http://www.w3.org/2000/svg">
<path d="M19.98 14.134H15.85L16.44 9.95402H19.98C20.179 9.95402 20.3697 9.87497 20.5104 9.73432C20.651 9.59367 20.73 9.40293 20.73 9.20402C20.73 9.00511 20.651 8.81434 20.5104 8.67368C20.3697 8.53303 20.179 8.45402 19.98 8.45402H16.65L17.27 4.11399C17.2809 3.92617 17.2208 3.74114 17.1016 3.59556C16.9824 3.44998 16.8129 3.3545 16.6266 3.32807C16.4404 3.30164 16.251 3.34618 16.096 3.45286C15.941 3.55954 15.8318 3.72057 15.79 3.904L15.14 8.45402H9.85004L10.46 4.11399C10.4755 4.01725 10.4714 3.91837 10.4479 3.82325C10.4244 3.72813 10.382 3.63873 10.3232 3.56034C10.2645 3.48196 10.1905 3.41621 10.1058 3.36701C10.021 3.31782 9.92724 3.28618 9.83002 3.27399C9.63383 3.24533 9.43431 3.29552 9.27502 3.41358C9.11574 3.53164 9.00968 3.70796 8.98004 3.904L8.33002 8.45402H4C3.80109 8.45402 3.61032 8.53303 3.46967 8.67368C3.32901 8.81434 3.25 9.00511 3.25 9.20402C3.25 9.40293 3.32901 9.59367 3.46967 9.73432C3.61032 9.87497 3.80109 9.95402 4 9.95402H8.12L7.53003 14.134H4C3.80109 14.134 3.61032 14.213 3.46967 14.3537C3.32901 14.4943 3.25 14.6851 3.25 14.884C3.25 15.0829 3.32901 15.2737 3.46967 15.4143C3.61032 15.555 3.80109 15.634 4 15.634H7.33002L6.73004 19.884C6.71593 19.9819 6.72128 20.0816 6.74585 20.1774C6.77042 20.2732 6.81369 20.3631 6.87317 20.4421C6.93265 20.5211 7.0072 20.5876 7.09247 20.6377C7.17773 20.6878 7.27203 20.7205 7.37 20.734H7.47003C7.65072 20.7339 7.82545 20.6694 7.96289 20.5521C8.10034 20.4348 8.1915 20.2724 8.22003 20.094L8.85004 15.634H14.14L13.54 19.884C13.5259 19.9819 13.5313 20.0816 13.5558 20.1774C13.5804 20.2732 13.6237 20.3631 13.6832 20.4421C13.7426 20.5211 13.8172 20.5876 13.9025 20.6377C13.9877 20.6878 14.082 20.7205 14.18 20.734H14.28C14.4601 20.7357 14.6346 20.6716 14.7709 20.5537C14.9071 20.4359 14.9957 20.2725 15.02 20.094L15.65 15.634H20C20.1989 15.634 20.3897 15.555 20.5303 15.4143C20.671 15.2737 20.75 15.0829 20.75 14.884C20.75 14.6851 20.671 14.4943 20.5303 14.3537C20.3897 14.213 20.1989 14.134 20 14.134H19.98ZM14.34 14.134H9.04004L9.63 9.95402H14.93L14.34 14.134Z" fill="black"/>
</svg>
