<svg width="24" height="24" viewBox="0 0 24 24" fill="none" xmlns="http://www.w3.org/2000/svg">
<path d="M21.4882 2.55629C21.3475 2.41584 21.1569 2.33699 20.9581 2.33699C20.7594 2.33699 20.5687 2.41584 20.4281 2.55629L18.4781 4.5063C17.0785 3.30464 15.3736 2.51357 13.5522 2.2206C11.7309 1.92763 9.864 2.14421 8.15808 2.84633C6.33624 3.60401 4.77936 4.88367 3.68323 6.52431C2.5871 8.16495 2.0008 10.0932 1.99817 12.0663V18.6663C1.99987 19.3049 2.17625 19.9308 2.50818 20.4763C2.43742 20.5453 2.38117 20.6277 2.34277 20.7187C2.30438 20.8097 2.28455 20.9075 2.28455 21.0063C2.28455 21.1051 2.30438 21.2029 2.34277 21.2939C2.38117 21.3849 2.43742 21.4674 2.50818 21.5363C2.57635 21.6079 2.65861 21.6643 2.74988 21.7022C2.84114 21.7401 2.9393 21.7585 3.03809 21.7563C3.13663 21.7568 3.23431 21.7376 3.32532 21.6998C3.41633 21.662 3.49887 21.6064 3.56812 21.5363L4.08813 21.0163L8.49817 16.6063L8.58813 16.5163L19.0781 6.07631L21.5381 3.61629C21.6044 3.54343 21.6558 3.45822 21.6892 3.3655C21.7226 3.27278 21.7374 3.17439 21.7328 3.07595C21.7281 2.9775 21.7042 2.88093 21.6622 2.79177C21.6202 2.7026 21.5611 2.62258 21.4882 2.55629ZM8.28809 14.6963C8.10333 14.385 7.87051 14.1048 7.59814 13.8663C7.03147 13.3921 6.32815 13.1111 5.5907 13.0643C4.85325 13.0176 4.12021 13.2075 3.49817 13.6063V12.0763C3.49915 10.4637 3.95981 8.88486 4.82629 7.52486C5.69278 6.16486 6.92913 5.08012 8.39026 4.39784C9.85138 3.71557 11.4768 3.46408 13.0758 3.67281C14.6748 3.88153 16.1811 4.54183 17.4181 5.57631L8.28809 14.6963Z" fill="black"/>
<path d="M21.9982 12.0763V18.6762C22.003 18.7261 22.003 18.7764 21.9982 18.8263C21.9232 19.668 21.5355 20.4511 20.9117 21.0212C20.2879 21.5913 19.4732 21.9071 18.6282 21.9063C17.7627 21.9078 16.9294 21.5782 16.2991 20.9851C15.6688 20.392 15.2892 19.5803 15.2382 18.7163V16.0763C15.2796 15.1982 15.6594 14.3703 16.2981 13.7663C16.8682 13.2565 17.59 12.9481 18.3524 12.8885C19.1148 12.8288 19.8757 13.0213 20.5181 13.4363V12.0763C20.5152 10.7292 20.2004 9.40118 19.5981 8.19626C19.5107 8.01965 19.4963 7.81576 19.5581 7.62863C19.6199 7.44151 19.7528 7.28617 19.9281 7.19626C20.1055 7.11399 20.3077 7.10232 20.4934 7.16361C20.6791 7.2249 20.8345 7.35456 20.9281 7.52628C21.6325 8.93955 21.9989 10.4972 21.9982 12.0763Z" fill="black"/>
</svg>
