<svg width="24" height="24" viewBox="0 0 24 24" fill="none" xmlns="http://www.w3.org/2000/svg">
<path d="M21.2051 12.1438V18.1438C21.2051 18.9846 20.8711 19.7909 20.2766 20.3853C19.6821 20.9798 18.8758 21.3138 18.035 21.3138C17.1943 21.3138 16.388 20.9798 15.7935 20.3853C15.199 19.7909 14.865 18.9846 14.865 18.1438V15.7238C14.8626 15.1581 15.0121 14.602 15.2979 14.1138C15.5837 13.6256 15.9954 13.223 16.4899 12.9482C16.9844 12.6733 17.5436 12.5363 18.1092 12.5514C18.6747 12.5664 19.2259 12.7331 19.7051 13.0338V12.1038C19.7424 11.0673 19.5704 10.0339 19.1995 9.06531C18.8286 8.0967 18.2663 7.21276 17.5463 6.46628C16.8262 5.71979 15.963 5.12607 15.0084 4.72055C14.0538 4.31503 13.0272 4.10602 11.99 4.10602C10.9529 4.10602 9.9263 4.31503 8.97167 4.72055C8.01705 5.12607 7.15392 5.71979 6.43383 6.46628C5.71375 7.21276 5.15148 8.0967 4.78057 9.06531C4.40967 10.0339 4.2377 11.0673 4.27502 12.1038V13.0338C4.77545 12.7199 5.35433 12.5536 5.94506 12.5538C6.78325 12.5591 7.58548 12.8951 8.17724 13.4887C8.769 14.0823 9.10242 14.8856 9.10504 15.7238V18.1438C9.12493 18.9819 8.81109 19.7936 8.23254 20.4003C7.65399 21.0069 6.85816 21.3589 6.02008 21.3788C5.18199 21.3987 4.37029 21.0849 3.76361 20.5063C3.15693 19.9278 2.80492 19.1319 2.78503 18.2938C2.78503 18.2438 2.78503 18.1938 2.78503 18.1438V12.1438C2.74432 10.9082 2.95256 9.67692 3.39733 8.52335C3.84211 7.36978 4.51437 6.31746 5.37408 5.42896C6.23379 4.54045 7.26337 3.83393 8.40167 3.35141C9.53997 2.86889 10.7637 2.62024 12.0001 2.62024C13.2364 2.62024 14.4601 2.86889 15.5984 3.35141C16.7367 3.83393 17.7663 4.54045 18.626 5.42896C19.4857 6.31746 20.158 7.36978 20.6028 8.52335C21.0476 9.67692 21.2557 10.9082 21.215 12.1438H21.2051Z" fill="black"/>
</svg>
