<svg width="24" height="24" viewBox="0 0 24 24" fill="none" xmlns="http://www.w3.org/2000/svg">
<path d="M15.25 2H8.75C6.9606 2.00265 5.24528 2.71465 3.97998 3.97995C2.71468 5.24525 2.00265 6.9606 2 8.75V15.25C2 17.0402 2.71118 18.7571 3.97705 20.023C5.24292 21.2888 6.95979 22 8.75 22H15.25C17.0402 22 18.7571 21.2888 20.0229 20.023C21.2888 18.7571 22 17.0402 22 15.25V8.75C21.9974 6.9606 21.2854 5.24525 20.0201 3.97995C18.7548 2.71465 17.0394 2.00265 15.25 2ZM20.5 12.5H17.5601L14.86 17.02C14.7702 17.1674 14.644 17.2891 14.4933 17.3732C14.3426 17.4573 14.1726 17.501 14 17.5H13.9401C13.7563 17.4903 13.5787 17.4301 13.427 17.326C13.2753 17.2219 13.1553 17.078 13.0801 16.91L9.87 9.67L7.87 13.02C7.78025 13.1674 7.65388 13.2891 7.50317 13.3732C7.35247 13.4573 7.18259 13.501 7.01001 13.5H3.51001V11.5H6.44006L9.15002 6.99001C9.24444 6.83345 9.37996 6.70577 9.54187 6.62085C9.70378 6.53593 9.88588 6.49702 10.0684 6.50836C10.2508 6.5197 10.4268 6.58086 10.5769 6.68517C10.7271 6.78948 10.8457 6.93294 10.92 7.09999L14.14 14.34L16.14 10.99C16.2285 10.8407 16.3543 10.717 16.5051 10.6311C16.6559 10.5452 16.8265 10.5 17 10.5H20.5V12.5Z" fill="black"/>
</svg>
