<svg width="24" height="24" viewBox="0 0 24 24" fill="none" xmlns="http://www.w3.org/2000/svg">
<path d="M22.24 11.3299C22.0743 8.67474 20.8751 6.18875 18.8972 4.40078C16.9194 2.6128 14.3191 1.66397 11.6496 1.75614C8.98013 1.84831 6.45208 2.97421 4.60331 4.8943C2.75454 6.8144 1.7309 9.37715 1.75027 12.0374V12.2665C1.76123 12.7509 1.80806 13.2338 1.89035 13.7113C2.30555 16.1992 3.63036 18.4461 5.60953 20.0193C7.58869 21.5925 10.0823 22.3807 12.6102 22.2323C15.138 22.0838 17.5213 21.0091 19.3011 19.2152C21.0809 17.4212 22.1313 15.0348 22.25 12.5156C22.25 12.3562 22.25 12.2067 22.25 12.0473C22.25 11.8879 22.25 11.5591 22.24 11.3299ZM20.7094 12.9242H17.5678L14.8665 17.428C14.7767 17.5749 14.6504 17.6961 14.4996 17.7799C14.3488 17.8637 14.1788 17.9073 14.0061 17.9063H13.9461C13.7623 17.8966 13.5846 17.8366 13.4328 17.7329C13.281 17.6291 13.161 17.4857 13.0857 17.3184L9.87413 10.1043L7.87317 13.4423C7.78339 13.5892 7.65695 13.7104 7.50618 13.7943C7.35541 13.8781 7.18545 13.9216 7.01278 13.9206H3.47118C3.32997 13.3028 3.2594 12.671 3.261 12.0374V11.9278H6.44256L9.15381 7.43391C9.24862 7.27795 9.38453 7.15088 9.54682 7.06655C9.70912 6.98222 9.89162 6.94385 10.0743 6.95562C10.2564 6.96706 10.4318 7.02789 10.5817 7.13151C10.7316 7.23514 10.8502 7.37761 10.9247 7.54352L14.1462 14.7576L16.1471 11.4196C16.2357 11.2708 16.3616 11.1476 16.5124 11.062C16.6633 10.9764 16.8339 10.9314 17.0075 10.9313H20.6893C20.7382 11.298 20.7615 11.6675 20.7593 12.0374C20.7626 12.3337 20.746 12.63 20.7094 12.9242Z" fill="black"/>
</svg>
