<svg width="24" height="24" viewBox="0 0 24 24" fill="none" xmlns="http://www.w3.org/2000/svg">
<path d="M16.58 2H7.41C5.97599 2.00264 4.60149 2.57346 3.58749 3.58746C2.57349 4.60146 2.00264 5.97599 2 7.41V16.58C2 18.0157 2.56967 19.3928 3.58395 20.409C4.59824 21.4251 5.97426 21.9974 7.41 22H16.58C18.0175 22 19.3961 21.429 20.4125 20.4125C21.429 19.3961 22 18.0175 22 16.58V7.41C21.9974 5.97426 21.4252 4.59821 20.409 3.58392C19.3928 2.56964 18.0158 2 16.58 2ZM17.48 12.94C16.3081 15.077 14.487 16.786 12.28 17.82C12.1912 17.8559 12.0958 17.873 12 17.87C11.9041 17.8739 11.8086 17.8568 11.72 17.82C9.51297 16.786 7.69192 15.077 6.52002 12.94C6.09612 12.1104 5.93233 11.1722 6.05008 10.2481C6.16783 9.32393 6.56164 8.45677 7.18002 7.75998C7.54345 7.44033 7.97882 7.21338 8.44897 7.09845C8.91913 6.98352 9.4101 6.98403 9.88 7.09998C10.7205 7.28778 11.4697 7.76141 12 8.44C12.5303 7.76141 13.2796 7.28778 14.12 7.09998C14.5918 6.9882 15.0833 6.98974 15.5543 7.10446C16.0253 7.21918 16.4625 7.44381 16.83 7.75998C17.4443 8.45919 17.8347 9.32666 17.9506 10.2502C18.0664 11.1736 17.9025 12.1107 17.48 12.94Z" fill="black"/>
</svg>
