<svg width="24" height="24" viewBox="0 0 24 24" fill="none" xmlns="http://www.w3.org/2000/svg">
<path d="M20.1298 4.15536C19.5334 3.64492 18.8252 3.28207 18.0625 3.09618C17.2998 2.91029 16.5041 2.90657 15.7397 3.08536C14.2031 3.42183 12.86 4.34833 11.9998 5.66536C11.1442 4.3526 9.80911 3.42662 8.27979 3.08536C7.51886 2.90258 6.72601 2.89772 5.96289 3.07115C5.19978 3.24459 4.48695 3.59165 3.87976 4.08536C2.29976 5.46536 1.4298 8.52535 2.4198 11.6254C2.53245 11.9666 2.66606 12.3006 2.81983 12.6254C2.86054 12.7 2.89725 12.7768 2.92981 12.8554C5.49981 18.0954 11.4398 20.8554 11.6998 20.9854C11.7961 21.0332 11.9023 21.0572 12.0098 21.0554C12.1171 21.0561 12.2232 21.0321 12.3198 20.9854C12.5698 20.8754 18.5698 18.1354 21.1198 12.8354L21.1998 12.6654C21.3581 12.3242 21.4949 11.9735 21.6097 11.6154C22.5497 8.61536 21.6898 5.55536 20.1298 4.15536ZM19.8198 12.0854C19.6798 12.3988 19.5195 12.7028 19.3398 12.9954H16.0298C15.8651 12.9945 15.7032 12.953 15.5584 12.8745C15.4136 12.796 15.2904 12.6829 15.1998 12.5454L14.1498 10.9854L11.9198 15.4454C11.8494 15.5866 11.7465 15.7091 11.6196 15.803C11.4928 15.8968 11.3455 15.9593 11.1898 15.9854H11.0298C10.8975 15.9848 10.7667 15.958 10.6448 15.9065C10.5229 15.855 10.4124 15.7799 10.3198 15.6854L7.60975 12.9854H4.69983C4.51589 12.6609 4.34899 12.3272 4.19983 11.9854C4.04518 11.6633 3.91805 11.3288 3.81983 10.9854H8.02979C8.1614 10.9846 8.29186 11.0098 8.4137 11.0596C8.53554 11.1094 8.64631 11.1827 8.73975 11.2754L10.7397 13.2754L13.1198 8.51537C13.1988 8.35777 13.3182 8.22388 13.4657 8.12729C13.6132 8.0307 13.7838 7.97484 13.9598 7.96536C14.1337 7.95487 14.3072 7.98994 14.4633 8.06711C14.6194 8.14428 14.7525 8.26088 14.8497 8.40536L16.5498 10.9654H20.2498C20.1412 11.3511 19.9973 11.7261 19.8198 12.0854Z" fill="black"/>
</svg>
