<svg width="24" height="24" viewBox="0 0 24 24" fill="none" xmlns="http://www.w3.org/2000/svg">
<path d="M20.2465 8.15448C20.016 7.66284 19.6433 7.25175 19.1764 6.97449L13.3765 3.3645C12.9365 3.09695 12.4314 2.95544 11.9164 2.95544C11.4015 2.95544 10.8965 3.09695 10.4565 3.3645L4.68646 6.9845C4.24638 7.27759 3.89939 7.69052 3.68646 8.1745C3.45944 8.66455 3.38291 9.21093 3.46649 9.74451L4.96649 18.7445C5.07299 19.3866 5.40375 19.97 5.89996 20.3912C6.39617 20.8123 7.02562 21.0438 7.67645 21.0445H16.2964C16.9502 21.033 17.5822 20.8083 18.0964 20.4045C18.6029 19.9838 18.9403 19.3943 19.0464 18.7445L20.5464 9.74451C20.6147 9.19619 20.5098 8.64024 20.2465 8.15448ZM14.9164 16.7545H8.91644C8.71753 16.7545 8.52676 16.6755 8.38611 16.5349C8.24545 16.3942 8.16644 16.2034 8.16644 16.0045C8.16644 15.8056 8.24545 15.6148 8.38611 15.4742C8.52676 15.3335 8.71753 15.2545 8.91644 15.2545H14.9164C15.1154 15.2545 15.3061 15.3335 15.4468 15.4742C15.5874 15.6148 15.6664 15.8056 15.6664 16.0045C15.6664 16.2034 15.5874 16.3942 15.4468 16.5349C15.3061 16.6755 15.1154 16.7545 14.9164 16.7545Z" fill="black"/>
</svg>
