<svg width="24" height="24" viewBox="0 0 24 24" fill="none" xmlns="http://www.w3.org/2000/svg">
<path d="M20.3018 8.14771C20.0689 7.66346 19.7008 7.25709 19.2418 6.97772L13.4418 3.36774C13.0011 3.10231 12.4963 2.96204 11.9818 2.96204C11.4673 2.96204 10.9625 3.10231 10.5218 3.36774L4.71176 6.97772C4.25507 7.26385 3.8929 7.67833 3.67056 8.16925C3.44823 8.66017 3.3756 9.20574 3.46176 9.73773L4.96176 18.7377C5.0679 19.3875 5.4053 19.977 5.91178 20.3977C6.40592 20.8096 7.02846 21.036 7.67179 21.0377H16.2918C16.9495 21.0466 17.5886 20.8194 18.0931 20.3975C18.5977 19.9755 18.9342 19.3866 19.0418 18.7377L20.5418 9.73773C20.6258 9.19566 20.542 8.64084 20.3018 8.14771ZM15.7318 14.8277C15.7318 15.4244 15.4947 15.9967 15.0728 16.4187C14.6508 16.8407 14.0785 17.0777 13.4818 17.0777H10.4818C9.88505 17.0777 9.31274 16.8407 8.89078 16.4187C8.46882 15.9967 8.23178 15.4244 8.23178 14.8277V11.8277C8.23178 11.231 8.46882 10.6587 8.89078 10.2368C9.31274 9.8148 9.88505 9.5777 10.4818 9.5777H13.4818C14.0785 9.5777 14.6508 9.8148 15.0728 10.2368C15.4947 10.6587 15.7318 11.231 15.7318 11.8277V14.8277Z" fill="black"/>
<path d="M13.4819 11.0778H10.4819C10.0677 11.0778 9.73193 11.4135 9.73193 11.8278V14.8278C9.73193 15.242 10.0677 15.5778 10.4819 15.5778H13.4819C13.8961 15.5778 14.2319 15.242 14.2319 14.8278V11.8278C14.2319 11.4135 13.8961 11.0778 13.4819 11.0778Z" fill="black"/>
</svg>
