<svg width="24" height="24" viewBox="0 0 24 24" fill="none" xmlns="http://www.w3.org/2000/svg">
<path d="M21.5863 8.69098L13.2462 3.11096C12.8709 2.86816 12.4333 2.73901 11.9862 2.73901C11.5392 2.73901 11.1016 2.86816 10.7262 3.11096L2.37625 8.68097C2.22134 8.79025 2.11357 8.95415 2.07461 9.13968C2.03565 9.32521 2.06836 9.5186 2.16622 9.68097C2.23348 9.78367 2.32555 9.86776 2.43393 9.92545C2.5423 9.98313 2.66346 10.0126 2.78622 10.011C2.93472 10.0113 3.08032 9.96964 3.20626 9.89096L5.10623 8.62097V19.491C5.10885 19.9596 5.29622 20.4083 5.62759 20.7397C5.95896 21.071 6.40762 21.2584 6.87625 21.261H17.1062C17.3387 21.2617 17.5689 21.216 17.7835 21.1267C17.9982 21.0375 18.1929 20.9063 18.3562 20.741C18.6884 20.4097 18.8754 19.9601 18.8762 19.491V8.67099L20.7763 9.94098C20.8583 9.99548 20.9503 10.0333 21.047 10.0522C21.1437 10.0712 21.2432 10.0709 21.3397 10.0514C21.4363 10.0319 21.5281 9.99354 21.6098 9.93857C21.6916 9.8836 21.7618 9.81306 21.8162 9.73099C21.8707 9.64891 21.9085 9.55689 21.9275 9.46021C21.9464 9.36352 21.9462 9.26405 21.9267 9.16748C21.9072 9.07091 21.8688 8.97913 21.8138 8.89737C21.7588 8.81561 21.6883 8.74548 21.6062 8.69098H21.5863ZM14.7663 19.781H13.2462V14.911C13.2466 14.8071 13.2265 14.7042 13.187 14.6081C13.1476 14.512 13.0895 14.4246 13.0163 14.351C12.8677 14.2088 12.6717 14.1269 12.4662 14.121H11.4662C11.2603 14.1249 11.0637 14.2072 10.9162 14.351C10.843 14.4246 10.7849 14.512 10.7454 14.6081C10.706 14.7042 10.6859 14.8071 10.6862 14.911V19.781H9.18624V14.911C9.18624 14.3054 9.42612 13.7244 9.85342 13.2952C10.2807 12.8661 10.8606 12.6236 11.4662 12.621H12.4662C13.0705 12.6221 13.6496 12.8631 14.0763 13.291C14.5047 13.7214 14.7455 14.3037 14.7462 14.911L14.7663 19.781Z" fill="black"/>
</svg>
