<svg width="24" height="24" viewBox="0 0 24 24" fill="none" xmlns="http://www.w3.org/2000/svg">
<path d="M20.3228 8.17285C20.0963 7.67082 19.7233 7.249 19.2528 6.96283L13.4527 3.35284C13.012 3.08742 12.5073 2.94714 11.9928 2.94714C11.4783 2.94714 10.9735 3.08742 10.5327 3.35284L4.72275 6.98285C4.26606 7.26898 3.90389 7.68346 3.68155 8.17438C3.45921 8.6653 3.38658 9.21087 3.47275 9.74286L4.97275 18.7429C5.08006 19.39 5.41518 19.9775 5.91764 20.3993C6.42009 20.8211 7.05676 21.0493 7.71274 21.0428H9.98276C10.1809 21.0403 10.3701 20.9604 10.5102 20.8203C10.6503 20.6802 10.7302 20.491 10.7328 20.2928V16.9828C10.7328 16.8105 10.8012 16.6452 10.9231 16.5233C11.045 16.4014 11.2104 16.3328 11.3828 16.3328H12.5827C12.7551 16.3328 12.9205 16.4014 13.0424 16.5233C13.1643 16.6452 13.2328 16.8105 13.2328 16.9828V20.3029C13.2353 20.501 13.3152 20.6902 13.4553 20.8303C13.5954 20.9704 13.7847 21.0503 13.9828 21.0529H16.3128C16.9636 21.0522 17.5931 20.8207 18.0893 20.3995C18.5855 19.9784 18.9162 19.3949 19.0227 18.7529L20.5227 9.75287C20.6152 9.21804 20.5456 8.66777 20.3228 8.17285ZM15.9828 11.7429H7.98276C7.78385 11.7429 7.59308 11.6638 7.45243 11.5232C7.31177 11.3825 7.23276 11.1918 7.23276 10.9929C7.23276 10.7939 7.31177 10.6032 7.45243 10.4625C7.59308 10.3219 7.78385 10.2429 7.98276 10.2429H15.9828C16.1817 10.2429 16.3724 10.3219 16.5131 10.4625C16.6537 10.6032 16.7328 10.7939 16.7328 10.9929C16.7328 11.1918 16.6537 11.3825 16.5131 11.5232C16.3724 11.6638 16.1817 11.7429 15.9828 11.7429Z" fill="black"/>
</svg>
