<svg width="24" height="24" viewBox="0 0 24 24" fill="none" xmlns="http://www.w3.org/2000/svg">
<path d="M15.25 2H8.75C6.9606 2.00265 5.24528 2.71465 3.97998 3.97995C2.71468 5.24525 2.00265 6.9606 2 8.75V15.25C2 17.0402 2.71118 18.7571 3.97705 20.023C5.24292 21.2888 6.95979 22 8.75 22H15.25C17.0402 22 18.7571 21.2888 20.0229 20.023C21.2888 18.7571 22 17.0402 22 15.25V8.75C21.9974 6.9606 21.2854 5.24525 20.0201 3.97995C18.7548 2.71465 17.0394 2.00265 15.25 2ZM17.51 13.06C17.51 13.3995 17.3752 13.725 17.1351 13.9651C16.8951 14.2051 16.5695 14.34 16.23 14.34H14.3401V16.24C14.3349 16.5779 14.1984 16.9005 13.9595 17.1394C13.7205 17.3783 13.3979 17.5148 13.0601 17.52H10.9401C10.7724 17.5192 10.6065 17.4852 10.452 17.42C10.2976 17.3548 10.1575 17.2596 10.04 17.14C9.80028 16.9014 9.66381 16.5782 9.66003 16.24V14.34H7.77002C7.60137 14.3418 7.43407 14.3101 7.27783 14.2466C7.12159 14.183 6.9795 14.089 6.85999 13.97C6.62146 13.7273 6.48848 13.4003 6.48999 13.06V10.95C6.48848 10.6097 6.62146 10.2827 6.85999 10.04C6.9795 9.92098 7.12159 9.82698 7.27783 9.76346C7.43407 9.69993 7.60137 9.66816 7.77002 9.67H9.66003V7.77C9.66425 7.43383 9.79658 7.11193 10.03 6.87C10.1487 6.74918 10.2904 6.65332 10.4467 6.58806C10.6029 6.5228 10.7707 6.48947 10.9401 6.49001H13.04C13.2071 6.48894 13.3727 6.52109 13.5272 6.58461C13.6817 6.64813 13.8221 6.74174 13.9401 6.86C14.1804 7.10226 14.3168 7.42875 14.3201 7.77V9.67H16.2101C16.5501 9.66957 16.8767 9.80239 17.12 10.04C17.3585 10.2827 17.4915 10.6097 17.49 10.95L17.51 13.06Z" fill="black"/>
<path d="M16.04 11.17V12.84H13.62C13.4211 12.84 13.2304 12.919 13.0897 13.0596C12.9491 13.2003 12.87 13.3911 12.87 13.59V16.02H11.1901V13.59C11.1875 13.3919 11.1076 13.2026 10.9675 13.0625C10.8274 12.9224 10.6382 12.8426 10.4401 12.84H8.04004V11.17H10.4601C10.6582 11.1674 10.8475 11.0875 10.9875 10.9474C11.1276 10.8074 11.2075 10.6181 11.2101 10.42V7.98999H12.89V10.42C12.89 10.6189 12.9691 10.8097 13.1097 10.9503C13.2504 11.091 13.4411 11.17 13.64 11.17H16.04Z" fill="black"/>
</svg>
