<svg width="24" height="24" viewBox="0 0 24 24" fill="none" xmlns="http://www.w3.org/2000/svg">
<path d="M12 1.75C9.97276 1.75 7.99104 2.35115 6.30544 3.47743C4.61983 4.60372 3.30609 6.20456 2.53029 8.0775C1.75449 9.95044 1.55142 12.0114 1.94692 13.9997C2.34242 15.988 3.31873 17.8144 4.75221 19.2478C6.1857 20.6813 8.01208 21.6576 10.0004 22.0531C11.9887 22.4486 14.0496 22.2456 15.9225 21.4698C17.7954 20.694 19.3963 19.3802 20.5226 17.6946C21.6489 16.009 22.25 14.0273 22.25 12C22.2474 9.28234 21.1666 6.67676 19.2449 4.75508C17.3232 2.83341 14.7177 1.75265 12 1.75ZM17.51 13.06C17.51 13.3995 17.3752 13.725 17.1351 13.9651C16.8951 14.2051 16.5695 14.34 16.23 14.34H14.34V16.24C14.3348 16.5779 14.1983 16.9005 13.9594 17.1394C13.7204 17.3783 13.3979 17.5148 13.0601 17.52H10.94C10.7723 17.5192 10.6065 17.4852 10.452 17.42C10.2976 17.3548 10.1576 17.2596 10.0401 17.14C9.8003 16.9014 9.66383 16.5782 9.66005 16.24V14.34H7.77004C7.60139 14.3418 7.43409 14.3101 7.27785 14.2466C7.12161 14.183 6.97952 14.089 6.86 13.97C6.62148 13.7273 6.4885 13.4003 6.49001 13.06V10.95C6.4885 10.6097 6.62148 10.2827 6.86 10.04C6.97952 9.92098 7.12161 9.82698 7.27785 9.76346C7.43409 9.69993 7.60139 9.66816 7.77004 9.67H9.66005V7.77C9.66427 7.43383 9.7966 7.11193 10.03 6.87C10.1487 6.74918 10.2904 6.65332 10.4467 6.58806C10.603 6.5228 10.7706 6.48947 10.94 6.49001H13C13.1671 6.48894 13.3327 6.52109 13.4872 6.58461C13.6417 6.64813 13.782 6.74174 13.9 6.86C14.1404 7.10226 14.2767 7.42875 14.28 7.77V9.67H16.1701C16.5101 9.66957 16.8367 9.80239 17.08 10.04C17.3185 10.2827 17.4515 10.6097 17.45 10.95L17.51 13.06Z" fill="black"/>
<path d="M16 11.165V12.835H13.5799C13.381 12.835 13.1903 12.914 13.0497 13.0546C12.909 13.1953 12.8299 13.3861 12.8299 13.585V16.015H11.15V13.585C11.1474 13.3869 11.0676 13.1976 10.9275 13.0575C10.7874 12.9174 10.5981 12.8376 10.4 12.835H7.99998V11.165H10.42C10.6181 11.1624 10.8074 11.0825 10.9475 10.9424C11.0876 10.8023 11.1674 10.6131 11.17 10.415V7.98499H12.85V10.415C12.85 10.6139 12.929 10.8047 13.0697 10.9453C13.2103 11.086 13.401 11.165 13.6 11.165H16Z" fill="black"/>
</svg>
