<svg width="24" height="24" viewBox="0 0 24 24" fill="none" xmlns="http://www.w3.org/2000/svg">
<path d="M18.9682 16.99L15.3182 11.45L18.6882 7.03003C19.1316 6.43053 19.3733 5.70569 19.3782 4.96002V3.27002C19.3774 3.10234 19.3434 2.93648 19.2782 2.78201C19.2129 2.62754 19.1178 2.48753 18.9982 2.37002C18.8805 2.25131 18.7402 2.15739 18.5857 2.09384C18.4311 2.03029 18.2653 1.9984 18.0982 2.00003H5.92819C5.76104 1.9987 5.59526 2.03064 5.44058 2.09399C5.28589 2.15734 5.14538 2.25082 5.02718 2.36902C4.90899 2.48721 4.81551 2.62775 4.75216 2.78244C4.68881 2.93712 4.65683 3.10287 4.65817 3.27002V4.94003C4.66032 5.68309 4.90233 6.40559 5.34817 7.00003L8.70821 11.58L5.03817 16.99C4.6175 17.6169 4.42024 18.3673 4.47817 19.12L4.58816 20.82C4.61659 21.136 4.75874 21.4309 4.98818 21.65C5.22094 21.8702 5.5278 21.9951 5.84817 22H18.2582C18.5539 21.9732 18.8304 21.8421 19.0382 21.63C19.253 21.412 19.384 21.1251 19.4082 20.82L19.5182 19.14C19.5869 18.3815 19.3927 17.6224 18.9682 16.99ZM14.6582 19.19H9.42818C9.16297 19.19 8.90863 19.0847 8.72109 18.8971C8.53356 18.7096 8.42819 18.4552 8.42819 18.19C8.42819 17.9248 8.53356 17.6704 8.72109 17.4829C8.90863 17.2954 9.16297 17.19 9.42818 17.19H14.7082C14.9734 17.19 15.2278 17.2954 15.4153 17.4829C15.6028 17.6704 15.7082 17.9248 15.7082 18.19C15.7082 18.4552 15.6028 18.7096 15.4153 18.8971C15.2278 19.0847 14.9734 19.19 14.7082 19.19H14.6582Z" fill="black"/>
</svg>
