<svg width="24" height="24" viewBox="0 0 24 24" fill="none" xmlns="http://www.w3.org/2000/svg">
<path d="M20.8199 4.46523C19.8793 3.55184 18.621 3.03916 17.3099 3.03523H6.74995C6.09834 3.02597 5.45131 3.14599 4.84638 3.38835C4.24146 3.6307 3.69062 3.99059 3.22565 4.44718C2.76069 4.90378 2.39082 5.44803 2.13752 6.04846C1.88422 6.64888 1.75252 7.29357 1.74995 7.94523V16.0552C1.75197 16.7014 1.88204 17.3408 2.13264 17.9364C2.38324 18.532 2.74935 19.072 3.20991 19.5252C4.14529 20.4477 5.40617 20.965 6.71992 20.9652H17.2799C18.5936 20.965 19.8545 20.4477 20.7899 19.5252C21.2531 19.074 21.6211 18.5344 21.8719 17.9383C22.1227 17.3423 22.2513 16.7019 22.2499 16.0552V7.94523C22.2543 7.29932 22.13 6.65901 21.8845 6.06156C21.639 5.46412 21.2771 4.92148 20.8199 4.46523ZM11.6599 16.7152C11.4609 16.7152 11.2702 16.6362 11.1296 16.4956C10.9889 16.3549 10.9099 16.1641 10.9099 15.9652C10.9101 15.6621 10.8501 15.3618 10.7333 15.082C10.6166 14.8022 10.4455 14.5484 10.2299 14.3352C9.78085 13.9199 9.19162 13.6892 8.5799 13.6892C7.96819 13.6892 7.37895 13.9199 6.92988 14.3352C6.71383 14.548 6.54237 14.8018 6.42561 15.0817C6.30884 15.3616 6.24919 15.662 6.24995 15.9652C6.24995 16.1641 6.17087 16.3549 6.03022 16.4956C5.88957 16.6362 5.69886 16.7152 5.49995 16.7152C5.30103 16.7152 5.1102 16.6362 4.96955 16.4956C4.8289 16.3549 4.74995 16.1641 4.74995 15.9652C4.74915 15.4635 4.84763 14.9666 5.03986 14.5032C5.23209 14.0398 5.51426 13.6191 5.86994 13.2652C6.2129 12.9089 6.61997 12.6205 7.06989 12.4152C6.6651 12.1665 6.33109 11.8179 6.09992 11.4029C5.86876 10.9878 5.74826 10.5203 5.74995 10.0452C5.74995 9.30263 6.04491 8.59043 6.57001 8.06533C7.09512 7.54023 7.80727 7.24523 8.54987 7.24523C9.29248 7.24523 10.0046 7.54023 10.5297 8.06533C11.0548 8.59043 11.3499 9.30263 11.3499 10.0452C11.3558 10.5165 11.2414 10.9816 11.0174 11.3963C10.7934 11.811 10.4673 12.1617 10.0699 12.4152C10.5273 12.6053 10.9446 12.8801 11.2999 13.2252C12.0109 13.9448 12.4128 14.9136 12.4199 15.9252C12.4269 16.0282 12.4123 16.1316 12.377 16.2286C12.3417 16.3256 12.2865 16.4142 12.2149 16.4886C12.1433 16.563 12.057 16.6216 11.9614 16.6606C11.8658 16.6997 11.7631 16.7183 11.6599 16.7152ZM18.1899 15.8352H14.5999C14.401 15.8352 14.2102 15.7562 14.0695 15.6156C13.9289 15.4749 13.8499 15.2841 13.8499 15.0852C13.8499 14.8863 13.9289 14.6955 14.0695 14.5549C14.2102 14.4142 14.401 14.3352 14.5999 14.3352H18.1899C18.3888 14.3352 18.5796 14.4142 18.7203 14.5549C18.8609 14.6955 18.9399 14.8863 18.9399 15.0852C18.9399 15.2841 18.8609 15.4749 18.7203 15.6156C18.5796 15.7562 18.3888 15.8352 18.1899 15.8352ZM13.8499 11.9952C13.8499 11.7963 13.9289 11.6056 14.0695 11.4649C14.2102 11.3242 14.401 11.2452 14.5999 11.2452H16.1398C16.3388 11.2452 16.5296 11.3242 16.6702 11.4649C16.8109 11.6056 16.8898 11.7963 16.8898 11.9952C16.8898 12.1941 16.8109 12.3849 16.6702 12.5256C16.5296 12.6662 16.3388 12.7452 16.1398 12.7452H14.5999C14.5011 12.7466 14.4029 12.7281 14.3113 12.6909C14.2197 12.6537 14.1365 12.5985 14.0666 12.5286C13.9967 12.4586 13.9415 12.3754 13.9042 12.2838C13.867 12.1922 13.8486 12.0941 13.8499 11.9952ZM18.1899 9.66523H14.5999C14.401 9.66523 14.2102 9.58622 14.0695 9.44557C13.9289 9.30491 13.8499 9.11414 13.8499 8.91523C13.8499 8.71632 13.9289 8.52555 14.0695 8.3849C14.2102 8.24424 14.401 8.16523 14.5999 8.16523H18.1899C18.3888 8.16523 18.5796 8.24424 18.7203 8.3849C18.8609 8.52555 18.9399 8.71632 18.9399 8.91523C18.9399 9.11414 18.8609 9.30491 18.7203 9.44557C18.5796 9.58622 18.3888 9.66523 18.1899 9.66523Z" fill="black"/>
<path d="M8.57989 11.3852C9.29786 11.3852 9.87988 10.8032 9.87988 10.0852C9.87988 9.36725 9.29786 8.78522 8.57989 8.78522C7.86192 8.78522 7.27988 9.36725 7.27988 10.0852C7.27988 10.8032 7.86192 11.3852 8.57989 11.3852Z" fill="black"/>
</svg>
