<svg width="24" height="24" viewBox="0 0 24 24" fill="none" xmlns="http://www.w3.org/2000/svg">
<path d="M16.25 2.75H7.75C6.22582 2.75264 4.76477 3.35928 3.68701 4.43704C2.60925 5.5148 2.00264 6.97582 2 8.5V15.5C2.00264 17.0242 2.60925 18.4852 3.68701 19.5629C4.76477 20.6407 6.22582 21.2474 7.75 21.25H16.25C17.7742 21.2474 19.2352 20.6407 20.313 19.5629C21.3907 18.4852 21.9974 17.0242 22 15.5V8.5C21.9974 6.97582 21.3907 5.5148 20.313 4.43704C19.2352 3.35928 17.7742 2.75264 16.25 2.75ZM8 6.09998C8.63917 6.09998 9.25214 6.35388 9.7041 6.80585C10.1561 7.25781 10.41 7.87081 10.41 8.50998C10.41 9.14915 10.1561 9.76215 9.7041 10.2141C9.25214 10.6661 8.63917 10.92 8 10.92C7.68351 10.9193 7.37027 10.8563 7.07812 10.7346C6.78598 10.6129 6.52069 10.4348 6.29736 10.2106C5.84634 9.75767 5.59364 9.14415 5.59497 8.50497C5.5963 7.8658 5.85154 7.25336 6.30444 6.80234C6.75734 6.35131 7.37084 6.09865 8.01001 6.09998H8ZM20.5 12.78L18.3201 11.09C17.6921 10.6523 16.9301 10.4495 16.1677 10.5172C15.4053 10.5848 14.6911 10.9186 14.15 11.46L11.8201 13.79C11.3322 14.262 10.6986 14.5546 10.0229 14.62C9.34726 14.6854 8.6693 14.5197 8.09998 14.15C7.82251 13.9667 7.49143 13.8821 7.16003 13.91C6.82724 13.945 6.51656 14.0933 6.28003 14.33L3.84998 17.17C3.58748 16.5689 3.46771 15.9151 3.5 15.26L5.18005 13.31C5.66449 12.8204 6.30263 12.5125 6.9873 12.4378C7.67198 12.3631 8.3615 12.5263 8.94006 12.9C9.21668 13.0873 9.55012 13.1719 9.88257 13.139C10.215 13.1061 10.5254 12.9579 10.76 12.72L13.09 10.4C13.8873 9.60532 14.9399 9.11824 16.0618 9.0249C17.1836 8.93157 18.3023 9.238 19.22 9.88998L20.5 10.89V12.78Z" fill="black"/>
<path d="M8.90983 8.5101C8.90983 8.69008 8.85638 8.86604 8.75638 9.01569C8.65639 9.16533 8.51434 9.28195 8.34806 9.35083C8.18178 9.41971 7.99882 9.43773 7.8223 9.40262C7.64578 9.36751 7.48363 9.28083 7.35636 9.15356C7.22909 9.0263 7.14245 8.86418 7.10734 8.68765C7.07222 8.51113 7.09022 8.32815 7.15909 8.16187C7.22797 7.99558 7.34453 7.85347 7.49418 7.75348C7.64383 7.65349 7.81981 7.6001 7.99979 7.6001C8.1193 7.6001 8.23765 7.62364 8.34806 7.66937C8.45847 7.7151 8.55872 7.78214 8.64323 7.86664C8.72773 7.95114 8.79476 8.05146 8.84049 8.16187C8.88622 8.27227 8.90983 8.3906 8.90983 8.5101Z" fill="black"/>
</svg>
