<svg width="24" height="24" viewBox="0 0 24 24" fill="none" xmlns="http://www.w3.org/2000/svg">
<path d="M20.815 4.47999C20.4351 4.10144 19.9843 3.80149 19.4884 3.5973C18.9925 3.39311 18.4612 3.28868 17.9249 3.28999H6.09499C5.55835 3.28868 5.0267 3.39325 4.53053 3.5977C4.03437 3.80215 3.58343 4.10246 3.20351 4.48146C2.82358 4.86045 2.52209 5.31069 2.31642 5.80635C2.11076 6.30201 2.0049 6.83337 2.0049 7.37001V16.62C2.0049 16.67 2.0049 16.72 2.0049 16.77C2.04121 17.8276 2.48706 18.8298 3.24831 19.5649C4.00955 20.3 5.02672 20.7106 6.08498 20.71H17.9149C18.4516 20.71 18.983 20.6041 19.4787 20.3985C19.9743 20.1928 20.4245 19.8914 20.8035 19.5115C21.1825 19.1315 21.4828 18.6806 21.6873 18.1844C21.8917 17.6883 21.9963 17.1566 21.995 16.62V7.37001C21.9987 6.83426 21.8964 6.30306 21.6939 5.80705C21.4913 5.31104 21.1926 4.86003 20.815 4.47999ZM20.5049 10.59L17.875 8.72999C17.3625 8.36115 16.7336 8.19064 16.105 8.25001C15.4726 8.29284 14.8781 8.56692 14.435 9.02L9.89491 13.62L8.02492 12.37C7.67481 12.1259 7.25011 12.0127 6.82497 12.05C6.40398 12.09 6.01076 12.2778 5.71498 12.58L3.5049 14.81V7.37001C3.50417 7.02986 3.57109 6.69293 3.70155 6.3788C3.83201 6.06466 4.02343 5.77955 4.26491 5.53999C4.7523 5.05869 5.41001 4.78917 6.09499 4.78999H17.9249C18.2645 4.78733 18.6012 4.85226 18.9154 4.98097C19.2296 5.10968 19.5152 5.29961 19.7553 5.53972C19.9954 5.77982 20.1853 6.06531 20.314 6.37953C20.4427 6.69375 20.5076 7.03045 20.5049 7.37001V10.59Z" fill="black"/>
<path d="M9.72274 9.17251C9.57326 9.54072 9.31572 9.85496 8.98398 10.0737C8.65645 10.2904 8.27252 10.4062 7.8798 10.4066C7.42097 10.3987 6.97867 10.2336 6.62686 9.93895C6.27505 9.64431 6.03492 9.23793 5.94657 8.78762C5.85822 8.33731 5.92702 7.87032 6.14142 7.46459C6.35582 7.05885 6.70288 6.73894 7.12468 6.55821C7.49071 6.40726 7.89313 6.36757 8.28159 6.44411C8.67005 6.52064 9.02725 6.71001 9.30866 6.98851C9.58949 7.27089 9.78147 7.62936 9.8608 8.01962C9.92949 8.40913 9.88143 8.81023 9.72274 9.17251Z" fill="black"/>
</svg>
