<svg width="24" height="24" viewBox="0 0 24 24" fill="none" xmlns="http://www.w3.org/2000/svg">
<path d="M17.9999 4.08997H5.99988C5.18913 4.0926 4.41228 4.41584 3.83899 4.98914C3.2657 5.56243 2.94258 6.33921 2.93994 7.14996V16.85C2.94258 17.6607 3.2657 18.4375 3.83899 19.0108C4.41228 19.5841 5.18913 19.9073 5.99988 19.91H17.9999C18.8106 19.9073 19.5875 19.5841 20.1608 19.0108C20.7341 18.4375 21.0573 17.6607 21.0599 16.85V7.14996C21.0573 6.33921 20.7341 5.56243 20.1608 4.98914C19.5875 4.41584 18.8106 4.0926 17.9999 4.08997ZM19.5599 10.6199L17.3099 9.02997C16.832 8.69082 16.2495 8.53188 15.6655 8.5813C15.0816 8.63072 14.534 8.88528 14.1199 9.29993L10.0399 13.3699L8.46985 12.3699C8.14169 12.1276 7.73616 12.0138 7.32983 12.0499C6.92863 12.0865 6.5533 12.2636 6.2699 12.5499L4.41992 14.41V7.19995C4.41992 6.78621 4.58427 6.38942 4.87683 6.09686C5.16939 5.80431 5.56612 5.63995 5.97986 5.63995H17.9799C18.3936 5.63995 18.7905 5.80431 19.083 6.09686C19.3756 6.38942 19.5399 6.78621 19.5399 7.19995L19.5599 10.6199Z" fill="black"/>
<path d="M10.5799 8.78003C10.5799 9.23295 10.4457 9.67566 10.194 10.0522C9.94242 10.4288 9.58478 10.7224 9.16633 10.8957C8.74789 11.069 8.28743 11.1144 7.84321 11.026C7.399 10.9376 6.99099 10.7196 6.67073 10.3993C6.35047 10.079 6.13238 9.67096 6.04402 9.22675C5.95566 8.78253 6.00094 8.32213 6.17427 7.90369C6.34759 7.48524 6.64106 7.1276 7.01765 6.87598C7.39424 6.62435 7.83707 6.48999 8.28999 6.48999C8.89734 6.48999 9.4798 6.73131 9.90925 7.16077C10.3387 7.59022 10.5799 8.17268 10.5799 8.78003Z" fill="black"/>
</svg>
