<svg width="24" height="24" viewBox="0 0 24 24" fill="none" xmlns="http://www.w3.org/2000/svg">
<path d="M12.6738 12.87C12.5595 12.8036 12.466 12.7066 12.4038 12.59L11.9438 11.52L12.3838 12.6C12.4524 12.7091 12.5447 12.8014 12.6538 12.87C12.7204 12.9144 12.7952 12.945 12.8738 12.96C12.8036 12.9385 12.7365 12.9082 12.6738 12.87Z" fill="black"/>
<path d="M12.1989 12.795L12.0789 12.975C12.1363 12.9242 12.1837 12.8632 12.2189 12.795L12.7389 11.505L12.1989 12.795Z" fill="black"/>
<path d="M21.9099 13.07L20.33 6.76999C20.1764 6.17648 19.8233 5.65391 19.33 5.29001C18.8565 4.92585 18.2772 4.72576 17.6799 4.72H7.09985C6.50359 4.71728 5.9233 4.91197 5.44934 5.27377C4.97538 5.63557 4.63444 6.14412 4.47986 6.72L2.90991 13.02C2.90503 13.0699 2.90503 13.1201 2.90991 13.17V17.06C2.90991 17.7743 3.19296 18.4596 3.69714 18.9657C4.20133 19.4717 4.8855 19.7573 5.59985 19.76H19.21C19.5647 19.7607 19.916 19.6913 20.2438 19.5558C20.5716 19.4202 20.8693 19.2211 21.1199 18.97C21.6234 18.4615 21.9071 17.7756 21.9099 17.06V13.17C21.9121 13.1367 21.9121 13.1033 21.9099 13.07ZM15.34 12.47C15.1925 12.4703 15.0483 12.5141 14.9255 12.5959C14.8028 12.6777 14.7069 12.7939 14.6499 12.93L14.1299 14.22C14.0947 14.2881 14.0473 14.3492 13.9899 14.4C13.9463 14.4568 13.892 14.5044 13.83 14.54C13.7702 14.5898 13.6971 14.621 13.6199 14.63H13.3999H11.3999C11.3336 14.6397 11.2663 14.6397 11.2 14.63C11.1213 14.6149 11.0465 14.5844 10.9799 14.54C10.8708 14.4714 10.7786 14.3791 10.71 14.27L10.2699 13.19L10.1699 12.93C10.1127 12.7913 10.0157 12.6727 9.89111 12.589C9.76654 12.5054 9.62001 12.4605 9.46997 12.46H4.59985L5.93994 7.08999C6.00361 6.83258 6.15135 6.60379 6.35986 6.43997C6.56927 6.27074 6.83062 6.1789 7.09985 6.17996H17.6699C17.9375 6.18837 18.1959 6.27918 18.4099 6.43997C18.621 6.60328 18.7722 6.83183 18.84 7.08999L20.1799 12.46L15.34 12.47Z" fill="black"/>
</svg>
