<svg width="24" height="24" viewBox="0 0 24 24" fill="none" xmlns="http://www.w3.org/2000/svg">
<path d="M21.9568 12.8449L20.2868 6.18494C20.1339 5.57473 19.7821 5.03285 19.2868 4.64493C18.7856 4.2731 18.1809 4.06686 17.5569 4.05493H6.38682C5.76054 4.05463 5.15224 4.26429 4.65916 4.65042C4.16607 5.03655 3.81671 5.57685 3.66685 6.18494L1.9968 12.8449C1.99195 12.8747 1.99195 12.9051 1.9968 12.9349C1.99195 12.9647 1.99195 12.9951 1.9968 13.0249V17.1449C1.9968 17.8875 2.29177 18.5997 2.81687 19.1248C3.34197 19.6499 4.05425 19.9449 4.79685 19.9449H19.1869C19.5579 19.9476 19.9258 19.8765 20.2691 19.7357C20.6125 19.5949 20.9245 19.3873 21.1869 19.1249C21.7131 18.5924 22.0078 17.8736 22.0068 17.1249V13.0049C21.996 12.95 21.9792 12.8963 21.9568 12.8449ZM15.0569 12.2449C14.9094 12.2453 14.7652 12.2891 14.6424 12.3709C14.5197 12.4527 14.4238 12.5689 14.3668 12.7049L13.7868 14.0849C13.7166 14.233 13.6056 14.3579 13.4668 14.4449C13.3232 14.5264 13.1618 14.571 12.9968 14.5749H10.9369C10.7728 14.5651 10.6126 14.5208 10.4668 14.4449C10.3454 14.3647 10.2431 14.2589 10.1668 14.1349L9.58677 12.7149C9.53128 12.577 9.43606 12.4587 9.31321 12.3751C9.19036 12.2914 9.04547 12.2461 8.89683 12.2449H3.68687L5.1168 6.51492C5.19074 6.23284 5.35598 5.98319 5.58677 5.80493C5.81467 5.62485 6.09636 5.52627 6.38682 5.52493H17.5668C17.8589 5.52898 18.1416 5.62913 18.3712 5.80988C18.6007 5.99062 18.7643 6.2419 18.8368 6.52493L20.2668 12.2449H15.0569Z" fill="black"/>
</svg>
