<svg width="24" height="24" viewBox="0 0 24 24" fill="none" xmlns="http://www.w3.org/2000/svg">
<path d="M22.0218 13.6937V17.8037C22.0238 18.1756 21.9514 18.5441 21.8088 18.8875C21.6663 19.231 21.4565 19.5425 21.1919 19.8037C20.9288 20.0652 20.6167 20.2723 20.2735 20.413C19.9304 20.5537 19.5628 20.6253 19.1919 20.6237H4.80186C4.43095 20.6253 4.06339 20.5537 3.7202 20.413C3.37701 20.2723 3.06492 20.0652 2.80186 19.8037C2.53856 19.542 2.33027 19.2302 2.18944 18.8867C2.0486 18.5432 1.97801 18.175 1.9818 17.8037V13.6937C1.97691 13.6438 1.97691 13.5936 1.9818 13.5437L3.64183 6.88373C3.79474 6.27352 4.1466 5.73164 4.64183 5.34372C5.14116 4.96823 5.7471 4.76158 6.37181 4.75372H13.5719C13.7708 4.75372 13.9615 4.83277 14.1022 4.97342C14.2428 5.11407 14.3219 5.30481 14.3219 5.50372C14.3219 5.70264 14.2428 5.89341 14.1022 6.03406C13.9615 6.17471 13.7708 6.25372 13.5719 6.25372H6.37181C6.0755 6.2566 5.78805 6.35477 5.55186 6.53372C5.32959 6.716 5.17175 6.96494 5.10179 7.24374L3.66185 12.9837H8.87181C9.02101 12.9821 9.16728 13.025 9.29198 13.1069C9.41667 13.1888 9.5142 13.3061 9.57188 13.4437L10.1418 14.8637C10.2122 14.9895 10.3161 15.0934 10.4419 15.1637C10.583 15.2521 10.7454 15.3005 10.9118 15.3037H12.9718C13.1387 15.3156 13.3047 15.2697 13.4419 15.1737C13.5859 15.09 13.701 14.9645 13.7718 14.8137L14.3518 13.4437C14.4077 13.3069 14.5033 13.19 14.6263 13.108C14.7493 13.026 14.8941 12.9827 15.0419 12.9837H20.2518L19.6919 10.7337C19.6579 10.6353 19.6447 10.5309 19.6533 10.4271C19.6619 10.3233 19.6919 10.2225 19.7416 10.131C19.7912 10.0394 19.8595 9.95928 19.9419 9.89557C20.0242 9.83186 20.1189 9.78599 20.22 9.76089C20.321 9.7358 20.4262 9.73206 20.5288 9.74985C20.6314 9.76764 20.7292 9.80658 20.8159 9.86423C20.9026 9.92188 20.9763 9.99697 21.0325 10.0847C21.0886 10.1724 21.1259 10.2709 21.1418 10.3737L21.9018 13.4437C21.9121 13.4797 21.9121 13.5178 21.9018 13.5537C21.9507 13.592 21.9915 13.6396 22.0218 13.6937Z" fill="black"/>
<path d="M21.2618 6.43366C21.27 6.83774 21.1964 7.23931 21.0455 7.61426C20.8946 7.98921 20.6696 8.32978 20.3838 8.61557C20.098 8.90136 19.7574 9.12646 19.3824 9.27734C19.0075 9.42823 18.6059 9.50182 18.2018 9.49365C17.7977 9.50182 17.3962 9.42823 17.0212 9.27734C16.6463 9.12646 16.3057 8.90136 16.0199 8.61557C15.7341 8.32978 15.509 7.98921 15.3581 7.61426C15.2073 7.23931 15.1337 6.83774 15.1418 6.43366C15.1334 6.00918 15.2224 5.58841 15.4018 5.20364C15.6797 4.55837 16.1751 4.03108 16.8019 3.71365C17.4186 3.3997 18.1226 3.30113 18.8019 3.43366C19.4874 3.58723 20.1027 3.96346 20.5519 4.50363C21.0034 5.04621 21.2541 5.72783 21.2618 6.43366Z" fill="black"/>
</svg>
