<svg width="24" height="24" viewBox="0 0 24 24" fill="none" xmlns="http://www.w3.org/2000/svg">
<path d="M21.9695 10.3933V15.2636C21.9669 17.0494 21.2559 18.7613 19.9926 20.0241C18.7292 21.2869 17.0165 21.9974 15.2298 22.0001H8.73971C6.95304 21.9974 5.2403 21.2869 3.97693 20.0241C2.71356 18.7613 2.00264 17.0494 2 15.2636V8.77653C2.00264 6.99071 2.71356 5.27878 3.97693 4.01601C5.2403 2.75323 6.95304 2.04265 8.73971 2.04001H13.6023C13.8009 2.04001 13.9914 2.11886 14.1318 2.25924C14.2722 2.39961 14.3511 2.59 14.3511 2.78851C14.3511 2.98703 14.2722 3.1774 14.1318 3.31777C13.9914 3.45814 13.8009 3.53701 13.6023 3.53701H8.73971C7.34944 3.53701 6.01612 4.08903 5.03306 5.07163C4.04999 6.05423 3.49771 7.38693 3.49771 8.77653V11.2715H5.9939C6.35358 11.2698 6.71001 11.3394 7.04253 11.4765C7.37505 11.6136 7.67702 11.8153 7.93091 12.0699C8.44248 12.5895 8.73244 13.2871 8.73971 14.0161C8.73971 14.3469 8.87118 14.6642 9.10524 14.8982C9.3393 15.1321 9.65679 15.2636 9.9878 15.2636H13.9817C14.1455 15.2642 14.3077 15.2318 14.4587 15.1684C14.6096 15.1049 14.7462 15.0117 14.8603 14.8943C15.094 14.6613 15.2267 14.3459 15.2298 14.0161C15.2271 13.6549 15.2963 13.2968 15.4334 12.9626C15.5704 12.6285 15.7726 12.3248 16.0281 12.0695C16.2836 11.8141 16.5873 11.612 16.9217 11.475C17.256 11.3381 17.6143 11.2689 17.9756 11.2715H20.4718V10.3933C20.4718 10.1948 20.5507 10.0044 20.6911 9.86402C20.8316 9.72365 21.022 9.64479 21.2206 9.64479C21.4193 9.64479 21.6097 9.72365 21.7501 9.86402C21.8906 10.0044 21.9695 10.1948 21.9695 10.3933Z" fill="black"/>
<path d="M18.9241 8.52704C18.7273 8.52441 18.5394 8.4444 18.4011 8.30431C18.2628 8.16422 18.1853 7.97533 18.1853 7.77853V2.78852C18.184 2.6907 18.2021 2.59357 18.2386 2.50282C18.2752 2.41206 18.3294 2.32947 18.3981 2.25983C18.4669 2.1902 18.5488 2.1349 18.6391 2.09717C18.7294 2.05943 18.8263 2.04001 18.9241 2.04001C19.0233 2.03869 19.1218 2.05707 19.2138 2.09409C19.3058 2.13111 19.3895 2.18604 19.4601 2.25568C19.5307 2.32531 19.5868 2.40827 19.625 2.49974C19.6633 2.59121 19.683 2.68938 19.683 2.78852V7.77853C19.6804 7.97796 19.5993 8.16833 19.4572 8.30842C19.3152 8.44851 19.1237 8.52705 18.9241 8.52704Z" fill="black"/>
<path d="M21.7998 4.35529L19.8028 2.35928C19.6953 2.24095 19.562 2.14877 19.4134 2.08982C19.2675 2.03049 19.1116 1.99999 18.9541 2C18.8033 2.0018 18.6542 2.03228 18.5148 2.08982C18.3702 2.15614 18.2384 2.24735 18.1254 2.35928L16.1284 4.35529C15.9882 4.49563 15.9094 4.68588 15.9094 4.88423C15.9094 5.08258 15.9882 5.27283 16.1284 5.41317C16.1973 5.48379 16.2795 5.53991 16.3704 5.57823C16.4613 5.61655 16.559 5.6363 16.6576 5.6363C16.7563 5.6363 16.8539 5.61655 16.9448 5.57823C17.0357 5.53991 17.118 5.48379 17.1868 5.41317L18.1853 4.41517L18.9341 3.66666L20.6915 5.42316C20.7603 5.49359 20.8426 5.54936 20.9336 5.58709C21.0245 5.62483 21.1222 5.64375 21.2206 5.64272C21.319 5.64319 21.4165 5.624 21.5074 5.5863C21.5983 5.5486 21.6807 5.49313 21.7498 5.42316C21.8241 5.35687 21.8845 5.27642 21.9273 5.18654C21.9701 5.09666 21.9945 4.99914 21.9992 4.8997C22.0038 4.80026 21.9886 4.70089 21.9543 4.60741C21.9201 4.51393 21.8675 4.42822 21.7998 4.35529Z" fill="black"/>
</svg>
