<svg width="24" height="24" viewBox="0 0 24 24" fill="none" xmlns="http://www.w3.org/2000/svg">
<path d="M21.9178 10.37V15.25C21.9151 17.0394 21.2061 18.7548 19.946 20.0201C18.6859 21.2854 16.9776 21.9974 15.1955 22H8.72226C6.94022 21.9974 5.23192 21.2854 3.97182 20.0201C2.71173 18.7548 2.00265 17.0394 2.00002 15.25V8.75001C2.00265 6.96061 2.71173 5.24525 3.97182 3.97996C5.23192 2.71466 6.94022 2.00265 8.72226 2.00001H13.5722C13.7703 2.00001 13.9603 2.07902 14.1004 2.21967C14.2405 2.36032 14.3191 2.55109 14.3191 2.75001C14.3191 2.94892 14.2405 3.13967 14.1004 3.28032C13.9603 3.42098 13.7703 3.50001 13.5722 3.50001H8.72226C7.3356 3.50001 6.00573 4.05313 5.02521 5.03769C4.0447 6.02226 3.49385 7.35762 3.49385 8.75001V11.25H5.98357C6.34232 11.2482 6.69782 11.318 7.02948 11.4554C7.36114 11.5927 7.66233 11.7948 7.91556 12.05C8.4258 12.5706 8.71501 13.2696 8.72226 14C8.72226 14.3315 8.85338 14.6495 9.08684 14.8839C9.3203 15.1183 9.63696 15.25 9.96712 15.25H13.9507C14.114 15.2507 14.2758 15.2182 14.4264 15.1546C14.577 15.0911 14.7132 14.9977 14.827 14.88C15.06 14.6465 15.1924 14.3305 15.1955 14C15.1929 13.6381 15.2619 13.2793 15.3986 12.9445C15.5353 12.6096 15.7369 12.3054 15.9917 12.0495C16.2466 11.7936 16.5495 11.5912 16.883 11.4539C17.2165 11.3167 17.5738 11.2473 17.9342 11.25H20.4239V10.37C20.4239 10.1711 20.5026 9.98032 20.6427 9.83967C20.7828 9.69901 20.9728 9.62 21.1709 9.62C21.3689 9.62 21.5589 9.69901 21.699 9.83967C21.839 9.98032 21.9178 10.1711 21.9178 10.37Z" fill="black"/>
<path d="M18.8803 8.50001C18.6839 8.49738 18.4965 8.4172 18.3586 8.27684C18.2207 8.13647 18.1433 7.9472 18.1433 7.75001V2.75001C18.142 2.65199 18.1601 2.55468 18.1966 2.46374C18.233 2.3728 18.2871 2.29005 18.3556 2.22027C18.4242 2.15049 18.5059 2.09509 18.5959 2.05728C18.686 2.01947 18.7827 2 18.8803 2.00001C18.9792 1.99869 19.0774 2.0171 19.1692 2.0542C19.261 2.09129 19.3445 2.14633 19.4149 2.21611C19.4853 2.28588 19.5412 2.36901 19.5794 2.46066C19.6175 2.55231 19.6372 2.65067 19.6372 2.75001V7.75001C19.6346 7.94984 19.5537 8.14058 19.412 8.28096C19.2703 8.42133 19.0793 8.50003 18.8803 8.50001Z" fill="black"/>
<path d="M21.7484 5.11C21.6084 4.96955 21.4186 4.89066 21.2206 4.89066C21.0227 4.89066 20.8329 4.96955 20.6928 5.11L19.6969 6.11L18.95 6.86L17.1873 5.09C17.0457 4.95752 16.8584 4.8854 16.6649 4.88882C16.4714 4.89225 16.2868 4.97096 16.15 5.10837C16.0131 5.24578 15.9347 5.43117 15.9313 5.62547C15.9279 5.81977 15.9997 6.00782 16.1316 6.14999L18.1234 8.14999C18.2434 8.26249 18.3814 8.35379 18.5317 8.42C18.6737 8.47941 18.826 8.50999 18.9799 8.50999C19.1414 8.51273 19.3015 8.47852 19.448 8.40999C19.5937 8.35076 19.7258 8.2623 19.8363 8.14999L21.8281 6.14999C21.9518 6.00015 22.0127 5.80788 21.9978 5.61382C21.9829 5.41975 21.8935 5.23909 21.7484 5.11Z" fill="black"/>
</svg>
