<svg width="24" height="24" viewBox="0 0 24 24" fill="none" xmlns="http://www.w3.org/2000/svg">
<path d="M22 10.37V15.25C21.9974 17.0394 21.2853 18.7548 20.0201 20.0201C18.7548 21.2854 17.0394 21.9974 15.25 22H8.75C6.9606 21.9974 5.24525 21.2854 3.97995 20.0201C2.71465 18.7548 2.00265 17.0394 2 15.25V8.75001C2.00265 6.96061 2.71465 5.24525 3.97995 3.97996C5.24525 2.71466 6.9606 2.00265 8.75 2.00001H13.62C13.8189 2.00001 14.0097 2.07902 14.1503 2.21967C14.291 2.36032 14.37 2.55109 14.37 2.75001C14.37 2.94892 14.291 3.13967 14.1503 3.28032C14.0097 3.42098 13.8189 3.50001 13.62 3.50001H8.75C7.35761 3.50001 6.02226 4.05313 5.03769 5.03769C4.05312 6.02226 3.5 7.35762 3.5 8.75001V11.25H6C6.36023 11.2482 6.7172 11.318 7.05023 11.4554C7.38326 11.5927 7.68569 11.7948 7.93997 12.05C8.45232 12.5706 8.74272 13.2696 8.75 14C8.75 14.3315 8.88167 14.6495 9.11609 14.8839C9.35051 15.1183 9.66848 15.25 10 15.25H14C14.164 15.2507 14.3265 15.2182 14.4777 15.1546C14.6289 15.0911 14.7657 14.9977 14.88 14.88C15.114 14.6465 15.2469 14.3305 15.25 14C15.2473 13.6381 15.3166 13.2793 15.4539 12.9445C15.5911 12.6096 15.7936 12.3054 16.0495 12.0495C16.3054 11.7936 16.6096 11.5912 16.9445 11.4539C17.2793 11.3167 17.6381 11.2473 18 11.25H20.5V10.37C20.5 10.1711 20.579 9.98032 20.7197 9.83967C20.8603 9.69901 21.0511 9.62 21.25 9.62C21.4489 9.62 21.6397 9.69901 21.7803 9.83967C21.921 9.98032 22 10.1711 22 10.37Z" fill="black"/>
<path d="M21.28 5.72001C21.4204 5.86063 21.4993 6.05126 21.4993 6.25001C21.4993 6.44876 21.4204 6.63938 21.28 6.78C21.1394 6.92045 20.9488 6.99933 20.75 6.99933C20.5512 6.99933 20.3606 6.92045 20.22 6.78L18.99 5.56L17.83 6.76999C17.7607 6.84011 17.6782 6.89568 17.5872 6.93346C17.4962 6.97124 17.3985 6.99046 17.3 6.99C17.2014 6.99103 17.1035 6.97207 17.0125 6.93426C16.9214 6.89644 16.8389 6.84057 16.77 6.76999C16.6295 6.62937 16.5507 6.43875 16.5507 6.24C16.5507 6.04125 16.6295 5.85062 16.77 5.71L17.98 4.50001L16.77 3.29C16.6295 3.14937 16.5507 2.95875 16.5507 2.76C16.5507 2.56125 16.6295 2.37063 16.77 2.23C16.8389 2.15924 16.9213 2.10301 17.0124 2.06461C17.1034 2.02621 17.2012 2.00643 17.3 2.00643C17.3988 2.00643 17.4966 2.02621 17.5876 2.06461C17.6786 2.10301 17.761 2.15924 17.83 2.23L19.04 3.43999L20.27 2.22001C20.4122 2.08753 20.6002 2.01539 20.7945 2.01882C20.9888 2.02225 21.1742 2.10097 21.3116 2.23838C21.449 2.37579 21.5277 2.56118 21.5312 2.75548C21.5346 2.94978 21.4625 3.13783 21.33 3.28L20.11 4.50001L21.28 5.72001Z" fill="black"/>
</svg>
