<svg width="24" height="24" viewBox="0 0 24 24" fill="none" xmlns="http://www.w3.org/2000/svg">
<path d="M21.5 10.86V15.7401C21.4974 17.5295 20.7853 19.2448 19.5201 20.5101C18.2548 21.7754 16.5394 22.4874 14.75 22.4901H8.25C6.4606 22.4874 4.74525 21.7754 3.47995 20.5101C2.21465 19.2448 1.50265 17.5295 1.5 15.7401V9.24005C1.50265 7.45065 2.21465 5.7353 3.47995 4.47C4.74525 3.2047 6.4606 2.4927 8.25 2.49005H13.12C13.3189 2.49005 13.5097 2.56906 13.6503 2.70972C13.791 2.85037 13.87 3.04114 13.87 3.24005C13.87 3.43896 13.791 3.62972 13.6503 3.77037C13.5097 3.91102 13.3189 3.99005 13.12 3.99005H8.25C6.85761 3.99005 5.52226 4.54317 4.53769 5.52774C3.55312 6.51231 3 7.84766 3 9.24005V11.7401H5.5C6.22935 11.7401 6.92882 12.0298 7.44455 12.5455C7.96027 13.0612 8.25 13.7607 8.25 14.4901C8.25 14.8216 8.3817 15.1395 8.61612 15.3739C8.85054 15.6084 9.16848 15.7401 9.5 15.7401H13.5C13.8307 15.7374 14.1471 15.6049 14.381 15.371C14.6149 15.1372 14.7474 14.8208 14.75 14.4901C14.7473 14.1282 14.8167 13.7694 14.9539 13.4345C15.0912 13.0997 15.2936 12.7955 15.5495 12.5396C15.8054 12.2837 16.1096 12.0812 16.4445 11.944C16.7793 11.8067 17.1381 11.7374 17.5 11.7401H20V10.86C20 10.6611 20.079 10.4704 20.2197 10.3297C20.3603 10.1891 20.5511 10.11 20.75 10.11C20.9489 10.11 21.1397 10.1891 21.2803 10.3297C21.421 10.4704 21.5 10.6611 21.5 10.86Z" fill="black"/>
<path d="M22.5 5.25004C22.4893 5.43828 22.4308 5.62068 22.33 5.78004C22.2131 5.93574 22.0532 6.05391 21.87 6.12003L20.94 6.43003C20.7052 6.50396 20.4916 6.63347 20.3175 6.80757C20.1434 6.98166 20.0139 7.19519 19.94 7.43003L19.61 8.37003C19.5397 8.54 19.4301 8.69081 19.29 8.81004C19.1318 8.92085 18.9432 8.98021 18.75 8.98004C18.5618 8.9693 18.3794 8.9108 18.22 8.81004C18.0654 8.69426 17.9501 8.53365 17.89 8.35005L17.58 7.42004C17.4991 7.18334 17.3658 6.96797 17.19 6.79003C17.0125 6.61368 16.797 6.48027 16.56 6.40003L15.63 6.09004C15.4532 6.0222 15.2978 5.90825 15.18 5.76003C15.0688 5.60577 15.0092 5.42023 15.01 5.23004C15.0191 5.0369 15.0814 4.85004 15.19 4.69004C15.2982 4.53857 15.4526 4.42628 15.63 4.37003L16.56 4.06004C16.7925 3.9818 17.0038 3.85082 17.1773 3.67733C17.3508 3.50385 17.4818 3.29257 17.56 3.06004L17.87 2.13004C17.943 1.96967 18.0447 1.82395 18.17 1.70004C18.3299 1.59722 18.5112 1.53224 18.7 1.51003C18.8906 1.50754 19.078 1.55959 19.24 1.66004C19.3979 1.77291 19.5195 1.92926 19.59 2.11004L19.91 3.11004C19.9889 3.34221 20.1201 3.55314 20.2935 3.72653C20.4669 3.89992 20.6778 4.03113 20.91 4.11004L21.85 4.44004C22.02 4.51032 22.1708 4.62 22.29 4.76003C22.4063 4.89938 22.4793 5.06971 22.5 5.25004Z" fill="black"/>
</svg>
