<svg width="24" height="24" viewBox="0 0 24 24" fill="none" xmlns="http://www.w3.org/2000/svg">
<path d="M16.54 2.00015H7.42004C5.9843 2.00015 4.60722 2.56979 3.59106 3.58407C2.5749 4.59836 2.00265 5.97441 2 7.41015V16.5801C2 18.0176 2.57108 19.3962 3.58752 20.4127C4.60397 21.4291 5.98257 22.0001 7.42004 22.0001H16.5901C18.0258 21.9975 19.4019 21.4253 20.4161 20.4091C21.4304 19.393 22 18.0159 22 16.5801V7.41015C21.9987 6.69585 21.8563 5.98885 21.5808 5.3298C21.3053 4.67075 20.9023 4.07264 20.3949 3.56988C19.8875 3.06712 19.2857 2.66963 18.6241 2.40023C17.9626 2.13084 17.2543 1.99487 16.54 2.00015ZM11.91 6.56015C12.1078 6.56015 12.3011 6.61878 12.4656 6.72866C12.63 6.83854 12.7583 6.99473 12.834 7.17745C12.9097 7.36018 12.9295 7.56123 12.8909 7.75521C12.8523 7.94919 12.757 8.12739 12.6172 8.26724C12.4773 8.40709 12.2991 8.50233 12.1051 8.54092C11.9111 8.5795 11.7101 8.55969 11.5273 8.484C11.3446 8.40832 11.1885 8.28017 11.0786 8.11572C10.9687 7.95127 10.91 7.75793 10.91 7.56015C10.91 7.42798 10.9362 7.29712 10.9871 7.17514C11.0379 7.05315 11.1125 6.94247 11.2064 6.84948C11.3003 6.75649 11.4118 6.68302 11.5343 6.63336C11.6568 6.58369 11.7879 6.55882 11.92 6.56015H11.91ZM12.91 17.1401C12.91 17.4053 12.8047 17.6597 12.6172 17.8473C12.4297 18.0348 12.1753 18.1401 11.91 18.1401C11.6448 18.1401 11.3904 18.0348 11.2029 17.8473C11.0153 17.6597 10.91 17.4053 10.91 17.1401V10.9701C10.91 10.7049 11.0153 10.4506 11.2029 10.263C11.3904 10.0755 11.6448 9.97015 11.91 9.97015C12.1753 9.97015 12.4297 10.0755 12.6172 10.263C12.8047 10.4506 12.91 10.7049 12.91 10.9701V17.1401Z" fill="black"/>
</svg>
