<svg width="24" height="24" viewBox="0 0 24 24" fill="none" xmlns="http://www.w3.org/2000/svg">
<path d="M12 2.25C10.0716 2.25 8.18648 2.82181 6.58311 3.89316C4.97973 4.9645 3.73012 6.48725 2.99216 8.26883C2.25421 10.0504 2.06115 12.0108 2.43735 13.9021C2.81356 15.7934 3.74213 17.5307 5.10569 18.8943C6.46925 20.2578 8.20656 21.1864 10.0979 21.5627C11.9892 21.9389 13.9496 21.7458 15.7312 21.0078C17.5128 20.2699 19.0354 19.0202 20.1068 17.4168C21.1781 15.8134 21.75 13.9284 21.75 12C21.7473 9.41495 20.7192 6.93655 18.8913 5.10864C17.0634 3.28074 14.585 2.25265 12 2.25ZM12.75 17C12.75 17.1989 12.6709 17.3897 12.5302 17.5303C12.3896 17.671 12.1989 17.75 12 17.75C11.8011 17.75 11.6102 17.671 11.4696 17.5303C11.3289 17.3897 11.25 17.1989 11.25 17V11C11.25 10.8011 11.3289 10.6103 11.4696 10.4697C11.6102 10.329 11.8011 10.25 12 10.25C12.1989 10.25 12.3896 10.329 12.5302 10.4697C12.6709 10.6103 12.75 10.8011 12.75 11V17ZM11.9599 8.67999C11.6947 8.67999 11.4404 8.57465 11.2529 8.38712C11.0654 8.19958 10.9599 7.94521 10.9599 7.67999C10.9599 7.41478 11.0654 7.16044 11.2529 6.9729C11.4404 6.78536 11.6947 6.67999 11.9599 6.67999C12.2252 6.67999 12.4796 6.78536 12.6671 6.9729C12.8546 7.16044 12.9599 7.41478 12.9599 7.67999C12.9599 7.94521 12.8546 8.19958 12.6671 8.38712C12.4796 8.57465 12.2252 8.67999 11.9599 8.67999Z" fill="black"/>
</svg>
