<svg width="24" height="24" viewBox="0 0 24 24" fill="none" xmlns="http://www.w3.org/2000/svg">
<path d="M15.25 2H8.75C6.9606 2.00265 5.24528 2.71468 3.97998 3.97998C2.71468 5.24528 2.00265 6.9606 2 8.75V15.25C2.00265 17.0394 2.71468 18.7547 3.97998 20.02C5.24528 21.2853 6.9606 21.9974 8.75 22H15.25C17.0394 21.9974 18.7547 21.2853 20.02 20.02C21.2853 18.7547 21.9974 17.0394 22 15.25V8.75C21.9974 6.9606 21.2853 5.24528 20.02 3.97998C18.7547 2.71468 17.0394 2.00265 15.25 2ZM11.96 6.56C12.1578 6.56 12.3511 6.61863 12.5156 6.72852C12.68 6.8384 12.8082 6.99458 12.8839 7.17731C12.9595 7.36003 12.9794 7.56108 12.9408 7.75507C12.9022 7.94905 12.807 8.12724 12.6671 8.26709C12.5273 8.40694 12.3491 8.50219 12.1551 8.54077C11.9611 8.57936 11.7601 8.55957 11.5773 8.48389C11.3946 8.4082 11.2384 8.28005 11.1285 8.1156C11.0187 7.95115 10.96 7.75778 10.96 7.56C10.96 7.42783 10.9862 7.29697 11.037 7.17499C11.0879 7.05301 11.1625 6.94229 11.2564 6.8493C11.3503 6.75631 11.4617 6.6829 11.5842 6.63324C11.7067 6.58358 11.8378 6.55868 11.97 6.56H11.96ZM12.96 17.14C12.96 17.4052 12.8547 17.6596 12.6671 17.8471C12.4796 18.0346 12.2252 18.14 11.96 18.14C11.6948 18.14 11.4404 18.0346 11.2529 17.8471C11.0653 17.6596 10.96 17.4052 10.96 17.14V10.97C10.96 10.7048 11.0653 10.4504 11.2529 10.2629C11.4404 10.0753 11.6948 9.96997 11.96 9.96997C12.2252 9.96997 12.4796 10.0753 12.6671 10.2629C12.8547 10.4504 12.96 10.7048 12.96 10.97V17.14Z" fill="black"/>
</svg>
