<svg width="24" height="24" viewBox="0 0 24 24" fill="none" xmlns="http://www.w3.org/2000/svg">
<path d="M20 5.81006H4.00001C3.44557 5.83857 2.92468 6.08447 2.5503 6.49442C2.17592 6.90436 1.97823 7.44532 2.00001 8.00006V16.0001C1.97823 16.5548 2.17592 17.0958 2.5503 17.5057C2.92468 17.9157 3.44557 18.1615 4.00001 18.1901H20C20.5544 18.1615 21.0753 17.9157 21.4497 17.5057C21.8241 17.0958 22.0218 16.5548 22 16.0001V8.00006C22.0218 7.44532 21.8241 6.90436 21.4497 6.49442C21.0753 6.08447 20.5544 5.83857 20 5.81006ZM13.47 9.17007H14.52C14.7852 9.17007 15.0396 9.27542 15.2272 9.46295C15.4147 9.65049 15.52 9.90486 15.52 10.1701C15.52 10.4353 15.4147 10.6896 15.2272 10.8772C15.0396 11.0647 14.7852 11.1701 14.52 11.1701H13.47C13.2048 11.1701 12.9505 11.0647 12.7629 10.8772C12.5754 10.6896 12.47 10.4353 12.47 10.1701C12.47 9.90486 12.5754 9.65049 12.7629 9.46295C12.9505 9.27542 13.2048 9.17007 13.47 9.17007ZM9.46998 9.17007H10.53C10.7953 9.17007 11.0495 9.27542 11.2371 9.46295C11.4246 9.65049 11.53 9.90486 11.53 10.1701C11.53 10.4353 11.4246 10.6896 11.2371 10.8772C11.0495 11.0647 10.7953 11.1701 10.53 11.1701H9.46998C9.20476 11.1701 8.95048 11.0647 8.76295 10.8772C8.57541 10.6896 8.46998 10.4353 8.46998 10.1701C8.46998 9.90486 8.57541 9.65049 8.76295 9.46295C8.95048 9.27542 9.20476 9.17007 9.46998 9.17007ZM6.58997 14.7801H5.53004C5.26482 14.7801 5.01042 14.6747 4.82289 14.4872C4.63535 14.2996 4.53004 14.0453 4.53004 13.7801C4.53004 13.5148 4.63535 13.2605 4.82289 13.073C5.01042 12.8854 5.26482 12.7801 5.53004 12.7801H6.58997C6.85519 12.7801 7.10959 12.8854 7.29713 13.073C7.48466 13.2605 7.58997 13.5148 7.58997 13.7801C7.58997 14.0453 7.48466 14.2996 7.29713 14.4872C7.10959 14.6747 6.85519 14.7801 6.58997 14.7801ZM6.58997 11.1701H5.53004C5.26482 11.1701 5.01042 11.0647 4.82289 10.8772C4.63535 10.6896 4.53004 10.4353 4.53004 10.1701C4.53004 9.90486 4.63535 9.65049 4.82289 9.46295C5.01042 9.27542 5.26482 9.17007 5.53004 9.17007H6.58997C6.85519 9.17007 7.10959 9.27542 7.29713 9.46295C7.48466 9.65049 7.58997 9.90486 7.58997 10.1701C7.58997 10.4353 7.48466 10.6896 7.29713 10.8772C7.10959 11.0647 6.85519 11.1701 6.58997 11.1701ZM14.59 14.7801H9.30006C9.03484 14.7801 8.78044 14.6747 8.5929 14.4872C8.40537 14.2996 8.30006 14.0453 8.30006 13.7801C8.30006 13.5148 8.40537 13.2605 8.5929 13.073C8.78044 12.8854 9.03484 12.7801 9.30006 12.7801H14.59C14.8552 12.7801 15.1096 12.8854 15.2971 13.073C15.4847 13.2605 15.59 13.5148 15.59 13.7801C15.59 14.0453 15.4847 14.2996 15.2971 14.4872C15.1096 14.6747 14.8552 14.7801 14.59 14.7801ZM18.4 14.7801H17.34C17.0748 14.7801 16.8205 14.6747 16.6329 14.4872C16.4454 14.2996 16.34 14.0453 16.34 13.7801C16.34 13.5148 16.4454 13.2605 16.6329 13.073C16.8205 12.8854 17.0748 12.7801 17.34 12.7801H18.4C18.6653 12.7801 18.9197 12.8854 19.1072 13.073C19.2947 13.2605 19.4 13.5148 19.4 13.7801C19.4 14.0453 19.2947 14.2996 19.1072 14.4872C18.9197 14.6747 18.6653 14.7801 18.4 14.7801ZM18.4 11.1701H17.34C17.0748 11.1701 16.8205 11.0647 16.6329 10.8772C16.4454 10.6896 16.34 10.4353 16.34 10.1701C16.34 9.90486 16.4454 9.65049 16.6329 9.46295C16.8205 9.27542 17.0748 9.17007 17.34 9.17007H18.4C18.6653 9.17007 18.9197 9.27542 19.1072 9.46295C19.2947 9.65049 19.4 9.90486 19.4 10.1701C19.4 10.4353 19.2947 10.6896 19.1072 10.8772C18.9197 11.0647 18.6653 11.1701 18.4 11.1701Z" fill="black"/>
</svg>
