<svg width="24" height="24" viewBox="0 0 24 24" fill="none" xmlns="http://www.w3.org/2000/svg">
<path d="M19.55 6.13001H4.45005C4.17789 6.1296 3.90854 6.18474 3.65843 6.29206C3.40832 6.39937 3.18269 6.55662 2.99546 6.75415C2.80823 6.95168 2.66322 7.18537 2.56944 7.44086C2.47565 7.69635 2.43508 7.96824 2.45005 8.23999V15.76C2.43508 16.0318 2.47565 16.3037 2.56944 16.5592C2.66322 16.8147 2.80823 17.0484 2.99546 17.2459C3.18269 17.4434 3.40832 17.6006 3.65843 17.7079C3.90854 17.8153 4.17789 17.8704 4.45005 17.87H19.55C19.8222 17.8704 20.0915 17.8153 20.3417 17.7079C20.5918 17.6006 20.8174 17.4434 21.0046 17.2459C21.1918 17.0484 21.3367 16.8147 21.4305 16.5592C21.5243 16.3037 21.565 16.0318 21.55 15.76V8.23999C21.565 7.96824 21.5243 7.69635 21.4305 7.44086C21.3367 7.18537 21.1918 6.95168 21.0046 6.75415C20.8174 6.55662 20.5918 6.39937 20.3417 6.29206C20.0915 6.18474 19.8222 6.1296 19.55 6.13001ZM13.37 9.54004H14.37C14.5689 9.54004 14.7597 9.61905 14.9004 9.75971C15.041 9.90036 15.12 10.0911 15.12 10.29C15.12 10.489 15.041 10.6797 14.9004 10.8204C14.7597 10.961 14.5689 11.04 14.37 11.04H13.37C13.1711 11.04 12.9804 10.961 12.8397 10.8204C12.699 10.6797 12.62 10.489 12.62 10.29C12.62 10.0911 12.699 9.90036 12.8397 9.75971C12.9804 9.61905 13.1711 9.54004 13.37 9.54004ZM9.62998 9.54004H10.63C10.8289 9.54004 11.0197 9.61905 11.1604 9.75971C11.301 9.90036 11.38 10.0911 11.38 10.29C11.38 10.489 11.301 10.6797 11.1604 10.8204C11.0197 10.961 10.8289 11.04 10.63 11.04H9.62998C9.43107 11.04 9.24036 10.961 9.09971 10.8204C8.95906 10.6797 8.87998 10.489 8.87998 10.29C8.87998 10.0911 8.95906 9.90036 9.09971 9.75971C9.24036 9.61905 9.43107 9.54004 9.62998 9.54004ZM6.9 14.46H5.9C5.70109 14.46 5.51038 14.381 5.36973 14.2404C5.22908 14.0997 5.15 13.9089 5.15 13.71C5.15 13.5111 5.22908 13.3203 5.36973 13.1797C5.51038 13.039 5.70109 12.96 5.9 12.96H6.9C7.09892 12.96 7.28975 13.039 7.4304 13.1797C7.57105 13.3203 7.65 13.5111 7.65 13.71C7.65 13.9089 7.57105 14.0997 7.4304 14.2404C7.28975 14.381 7.09892 14.46 6.9 14.46ZM6.9 11.04H5.9C5.70109 11.04 5.51038 10.961 5.36973 10.8204C5.22908 10.6797 5.15 10.489 5.15 10.29C5.15 10.0911 5.22908 9.90036 5.36973 9.75971C5.51038 9.61905 5.70109 9.54004 5.9 9.54004H6.9C7.09892 9.54004 7.28975 9.61905 7.4304 9.75971C7.57105 9.90036 7.65 10.0911 7.65 10.29C7.65 10.489 7.57105 10.6797 7.4304 10.8204C7.28975 10.961 7.09892 11.04 6.9 11.04ZM14.5 14.46H9.49998C9.30107 14.46 9.11036 14.381 8.96971 14.2404C8.82905 14.0997 8.74998 13.9089 8.74998 13.71C8.74998 13.5111 8.82905 13.3203 8.96971 13.1797C9.11036 13.039 9.30107 12.96 9.49998 12.96H14.5C14.6989 12.96 14.8897 13.039 15.0304 13.1797C15.171 13.3203 15.25 13.5111 15.25 13.71C15.25 13.9089 15.171 14.0997 15.0304 14.2404C14.8897 14.381 14.6989 14.46 14.5 14.46ZM18.1001 14.46H17.1001C16.9012 14.46 16.7103 14.381 16.5697 14.2404C16.429 14.0997 16.3501 13.9089 16.3501 13.71C16.3501 13.5111 16.429 13.3203 16.5697 13.1797C16.7103 13.039 16.9012 12.96 17.1001 12.96H18.1001C18.299 12.96 18.4897 13.039 18.6304 13.1797C18.771 13.3203 18.8501 13.5111 18.8501 13.71C18.8501 13.9089 18.771 14.0997 18.6304 14.2404C18.4897 14.381 18.299 14.46 18.1001 14.46ZM18.1001 11.04H17.1001C16.9012 11.04 16.7103 10.961 16.5697 10.8204C16.429 10.6797 16.3501 10.489 16.3501 10.29C16.3501 10.0911 16.429 9.90036 16.5697 9.75971C16.7103 9.61905 16.9012 9.54004 17.1001 9.54004H18.1001C18.299 9.54004 18.4897 9.61905 18.6304 9.75971C18.771 9.90036 18.8501 10.0911 18.8501 10.29C18.8501 10.489 18.771 10.6797 18.6304 10.8204C18.4897 10.961 18.299 11.04 18.1001 11.04Z" fill="black"/>
</svg>
