<svg width="24" height="24" viewBox="0 0 24 24" fill="none" xmlns="http://www.w3.org/2000/svg">
<path d="M21.4349 15.3799H20.4349V6.24991C20.4363 6.00659 20.3894 5.76542 20.2969 5.54037C20.2044 5.31532 20.0682 5.11086 19.8961 4.93881C19.7241 4.76676 19.5195 4.63055 19.2944 4.53805C19.0694 4.44555 18.8283 4.3986 18.585 4.39993H5.41492C5.17139 4.39992 4.93025 4.44749 4.70496 4.53994C4.48137 4.63397 4.27777 4.76969 4.10498 4.93991C3.93378 5.1119 3.79787 5.31577 3.70496 5.53994C3.6155 5.76613 3.56805 6.00669 3.56494 6.24991V15.3799H2.56494C2.36603 15.3799 2.17532 15.4589 2.03467 15.5996C1.89402 15.7402 1.81494 15.931 1.81494 16.1299V17.4899C1.81593 17.782 1.88086 18.0704 2.00525 18.3347C2.12964 18.5991 2.31044 18.833 2.53491 19.0199C2.9818 19.3982 3.5495 19.604 4.13501 19.5999H19.865C20.4505 19.604 21.0181 19.3982 21.465 19.0199C21.6894 18.833 21.8702 18.5991 21.9946 18.3347C22.119 18.0704 22.1839 17.782 22.1849 17.4899V16.1299C22.1823 15.9318 22.1025 15.7425 21.9624 15.6024C21.8223 15.4623 21.633 15.3825 21.4349 15.3799ZM20.6849 17.4899C20.682 17.5655 20.6626 17.6396 20.6281 17.707C20.5935 17.7744 20.5447 17.8334 20.485 17.8799C20.309 18.0211 20.0906 18.0986 19.865 18.0999H4.13501C3.90945 18.0986 3.69095 18.0211 3.51501 17.8799C3.4553 17.8334 3.40637 17.7744 3.37183 17.707C3.33728 17.6396 3.31788 17.5655 3.31494 17.4899V16.8799H20.6849V17.4899Z" fill="black"/>
</svg>
