<svg width="24" height="24" viewBox="0 0 24 24" fill="none" xmlns="http://www.w3.org/2000/svg">
<path d="M21.4698 15.39H20.4698V6.21997C20.4713 5.72592 20.2772 5.25136 19.9299 4.89997C19.7578 4.72829 19.5534 4.59223 19.3286 4.49958C19.1038 4.40692 18.863 4.3595 18.6199 4.35999H5.34984C5.10641 4.36098 4.86546 4.40849 4.63988 4.49997C4.19588 4.7004 3.8403 5.05598 3.63988 5.49997C3.54743 5.72527 3.49985 5.96644 3.49986 6.20996V15.41H2.49986C2.30095 15.41 2.11024 15.489 1.96959 15.6296C1.82894 15.7703 1.74986 15.9611 1.74986 16.16V17.52C1.7506 17.8146 1.81642 18.1054 1.94261 18.3716C2.06881 18.6378 2.25225 18.8729 2.47984 19.06C2.92674 19.4383 3.49431 19.6441 4.07982 19.64H19.9199C20.5081 19.6421 21.0782 19.4367 21.5299 19.06C21.7557 18.8719 21.9372 18.6364 22.0616 18.3703C22.1861 18.1041 22.2503 17.8138 22.2499 17.52V16.16C22.2527 16.0572 22.2344 15.955 22.196 15.8597C22.1577 15.7643 22.1002 15.6778 22.0271 15.6056C21.9539 15.5334 21.8667 15.477 21.7709 15.4399C21.675 15.4028 21.5725 15.3858 21.4698 15.39ZM20.6199 17.5C20.6207 17.7104 20.5503 17.9148 20.4199 18.08C20.3464 18.1748 20.2524 18.2519 20.1451 18.3056C20.0378 18.3593 19.9199 18.3881 19.7999 18.39H4.13988C4.0199 18.3881 3.90186 18.3593 3.79454 18.3056C3.68722 18.2519 3.59336 18.1748 3.51988 18.08C3.38953 17.9148 3.31895 17.7104 3.31981 17.5V16.62H20.6199V17.5Z" fill="black"/>
</svg>
