<svg width="24" height="24" viewBox="0 0 24 24" fill="none" xmlns="http://www.w3.org/2000/svg">
<path d="M21.25 6.2267V17.7179C21.25 18.64 20.882 19.5242 20.2269 20.1761C19.5717 20.8281 18.6832 21.1944 17.7567 21.1944H16.5773V2.80615H17.7567C18.6736 2.80603 19.5537 3.16463 20.2072 3.80455C20.8608 4.44447 21.2353 5.31441 21.25 6.2267Z" fill="black"/>
<path d="M14.3643 2.80588V21.25H6.25453C5.32701 21.25 4.43733 20.8841 3.78042 20.2325C3.12352 19.5808 2.75297 18.6966 2.75 17.7736V6.22642C2.75297 5.30339 3.12352 4.41917 3.78042 3.76753C4.43733 3.11589 5.32701 2.75 6.25453 2.75L14.3643 2.80588Z" fill="black"/>
</svg>
