<svg width="24" height="24" viewBox="0 0 24 24" fill="none" xmlns="http://www.w3.org/2000/svg">
<path d="M21.25 9.66785V17.763C21.25 18.6878 20.8826 19.5747 20.2287 20.2287C19.5748 20.8826 18.6878 21.25 17.763 21.25H6.23695C5.31215 21.25 4.42523 20.8826 3.7713 20.2287C3.11737 19.5747 2.75 18.6878 2.75 17.763V9.66785H21.25Z" fill="black"/>
<path d="M21.25 6.23695V7.42544H2.75V6.23695C2.75 5.31215 3.11737 4.42523 3.7713 3.7713C4.42523 3.11737 5.31215 2.75 6.23695 2.75H17.763C18.6869 2.75296 19.5721 3.12126 20.2254 3.77455C20.8787 4.42784 21.247 5.31306 21.25 6.23695Z" fill="black"/>
</svg>
