<svg width="24" height="24" viewBox="0 0 24 24" fill="none" xmlns="http://www.w3.org/2000/svg">
<path d="M21.25 6.19134V10.8473H13.1465V2.75H17.7883C18.699 2.76152 19.5694 3.12709 20.2155 3.76936C20.8616 4.41164 21.2326 5.28022 21.25 6.19134Z" fill="black"/>
<path d="M21.25 13.0964V17.7524C21.247 18.681 20.8763 19.5706 20.219 20.2262C19.5616 20.8818 18.6714 21.25 17.7433 21.25H13.1465V13.0964H21.25Z" fill="black"/>
<path d="M10.8986 13.0964V21.25H6.24544C5.31838 21.25 4.42931 20.8814 3.77378 20.2255C3.11826 19.5696 2.75 18.68 2.75 17.7524V13.0964H10.8986Z" fill="black"/>
<path d="M10.8986 2.75V10.9035H2.75V6.24756C2.75 5.31995 3.11826 4.43033 3.77378 3.77441C4.42931 3.11848 5.31838 2.75 6.24544 2.75H10.8986Z" fill="black"/>
</svg>
