<svg width="24" height="24" viewBox="0 0 24 24" fill="none" xmlns="http://www.w3.org/2000/svg">
<path d="M21.25 9.63269V17.7524C21.25 18.6801 20.8826 19.5697 20.2287 20.2256C19.5748 20.8815 18.6879 21.25 17.7631 21.25H13.1212V9.63269H21.25Z" fill="black"/>
<path d="M10.8791 9.63269V21.25H6.24846C5.32366 21.25 4.43674 20.8815 3.7828 20.2256C3.12887 19.5697 2.76151 18.6801 2.76151 17.7524V9.63269H10.8791Z" fill="black"/>
<path d="M21.25 6.19135V7.38345H2.75V6.19135C2.76474 5.27157 3.14008 4.39466 3.79484 3.75054C4.4496 3.10641 5.33107 2.74694 6.24818 2.75002H17.7743C18.6866 2.75572 19.5606 3.1187 20.2099 3.76159C20.8593 4.40447 21.2325 5.27638 21.25 6.19135Z" fill="black"/>
</svg>
