<svg width="24" height="24" viewBox="0 0 24 24" fill="none" xmlns="http://www.w3.org/2000/svg">
<path d="M21.2499 6.22657V17.7178C21.2499 18.6398 20.8826 19.5241 20.2286 20.176C19.5747 20.828 18.6878 21.1943 17.763 21.1943H9.66786V2.80603H17.763C18.6773 2.80878 19.5542 3.16829 20.2059 3.8076C20.8576 4.44691 21.2324 5.31521 21.2499 6.22657Z" fill="black"/>
<path d="M7.42556 2.80588V21.25H6.23701C5.31221 21.25 4.42529 20.8837 3.77136 20.2318C3.11743 19.5798 2.75006 18.6956 2.75006 17.7736V6.22642C2.75302 5.30532 3.12135 4.42278 3.77465 3.77146C4.42794 3.12013 5.31312 2.75295 6.23701 2.75L7.42556 2.80588Z" fill="black"/>
</svg>
