<svg width="24" height="24" viewBox="0 0 24 24" fill="none" xmlns="http://www.w3.org/2000/svg">
<path d="M21.2502 9.66785V17.763C21.2502 18.6878 20.8828 19.5747 20.2289 20.2287C19.575 20.8826 18.688 21.25 17.7632 21.25H9.66812V9.66785H21.2502Z" fill="black"/>
<path d="M7.42529 9.66785V21.25H6.23688C5.31207 21.25 4.42502 20.8826 3.77109 20.2287C3.11715 19.5747 2.74979 18.6878 2.74979 17.763V9.66785H7.42529Z" fill="black"/>
<path d="M21.2501 6.23695V7.42544H2.80618V6.23695C2.80914 5.31306 3.17747 4.42784 3.83077 3.77455C4.48406 3.12126 5.36924 2.75296 6.29314 2.75H17.8192C18.7334 2.76758 19.6042 3.14233 20.2455 3.79405C20.8867 4.44578 21.2473 5.32266 21.2501 6.23695Z" fill="black"/>
</svg>
