<svg width="24" height="24" viewBox="0 0 24 24" fill="none" xmlns="http://www.w3.org/2000/svg">
<path d="M21.25 16.6279V17.7525C21.25 18.6802 20.8826 19.5698 20.2287 20.2257C19.5748 20.8816 18.6878 21.2501 17.763 21.2501H6.23695C5.31215 21.2501 4.42523 20.8816 3.7713 20.2257C3.11737 19.5698 2.75 18.6802 2.75 17.7525V16.6279H21.25Z" fill="black"/>
<path d="M21.25 6.24755V14.3786H2.75V6.24755C2.75296 5.32085 3.12129 4.43294 3.77458 3.77766C4.42788 3.12238 5.31306 2.75297 6.23695 2.75H17.763C18.221 2.75 18.6743 2.84046 19.0974 3.01623C19.5204 3.19199 19.9049 3.44962 20.2287 3.7744C20.5525 4.09918 20.8092 4.48473 20.9845 4.90908C21.1597 5.33342 21.25 5.78824 21.25 6.24755Z" fill="black"/>
</svg>
