<svg width="24" height="24" viewBox="0 0 24 24" fill="none" xmlns="http://www.w3.org/2000/svg">
<path d="M21.25 9.66785V17.763C21.25 18.6878 20.8827 19.5747 20.2287 20.2286C19.5748 20.8825 18.6879 21.2499 17.7631 21.2499H16.6419V9.66785H21.25Z" fill="black"/>
<path d="M14.3432 9.66785V21.2499H6.24813C5.3223 21.2499 4.43423 20.8829 3.77852 20.2293C3.12281 19.5757 2.75294 18.6888 2.74997 17.763V9.66785H14.3432Z" fill="black"/>
<path d="M21.2499 6.23694V7.42542H2.74997V6.23694C2.75294 5.31111 3.12281 4.42422 3.77852 3.77061C4.43423 3.117 5.3223 2.75 6.24813 2.75H17.763C18.6878 2.75 19.5747 3.11736 20.2286 3.7713C20.8825 4.42523 21.2499 5.31214 21.2499 6.23694Z" fill="black"/>
</svg>
