<svg width="24" height="24" viewBox="0 0 24 24" fill="none" xmlns="http://www.w3.org/2000/svg">
<path d="M17.8551 11.985C17.8551 13.142 17.5119 14.2731 16.8691 15.2351C16.2263 16.1971 15.3127 16.9469 14.2438 17.3897C13.1748 17.8325 11.9985 17.9483 10.8638 17.7226C9.72897 17.4969 8.68665 16.9397 7.86852 16.1216C7.05038 15.3034 6.49316 14.2611 6.26744 13.1263C6.04172 11.9915 6.15755 10.8153 6.60033 9.74631C7.0431 8.67736 7.79296 7.76372 8.75499 7.12091C9.71702 6.4781 10.8481 6.13501 12.0051 6.13501C13.5558 6.13765 15.0421 6.75483 16.1387 7.85135C17.2352 8.94786 17.8524 10.4343 17.8551 11.985Z" fill="black"/>
<path d="M3.96509 12.7351H2.90503C2.70612 12.7351 2.51541 12.6561 2.37476 12.5154C2.2341 12.3748 2.15503 12.184 2.15503 11.9851C2.15503 11.7862 2.2341 11.5954 2.37476 11.4548C2.51541 11.3141 2.70612 11.2351 2.90503 11.2351H3.96509C4.164 11.2351 4.35471 11.3141 4.49536 11.4548C4.63601 11.5954 4.71509 11.7862 4.71509 11.9851C4.71509 12.184 4.63601 12.3748 4.49536 12.5154C4.35471 12.6561 4.164 12.7351 3.96509 12.7351Z" fill="black"/>
<path d="M21.095 12.7351H20.095C19.8961 12.7351 19.7052 12.6561 19.5646 12.5154C19.4239 12.3748 19.345 12.184 19.345 11.9851C19.345 11.7862 19.4239 11.5954 19.5646 11.4548C19.7052 11.3141 19.8961 11.2351 20.095 11.2351H21.095C21.2939 11.2351 21.4846 11.3141 21.6252 11.4548C21.7659 11.5954 21.845 11.7862 21.845 11.9851C21.845 12.184 21.7659 12.3748 21.6252 12.5154C21.4846 12.6561 21.2939 12.7351 21.095 12.7351Z" fill="black"/>
<path d="M12.0051 4.73505C11.807 4.73246 11.6178 4.65261 11.4777 4.51251C11.3376 4.37242 11.2577 4.18315 11.2551 3.98505V2.92505C11.2551 2.72614 11.3341 2.53537 11.4747 2.39471C11.6154 2.25406 11.8062 2.17505 12.0051 2.17505C12.204 2.17505 12.3947 2.25406 12.5354 2.39471C12.6761 2.53537 12.7551 2.72614 12.7551 2.92505V3.98505C12.7551 4.18396 12.6761 4.37473 12.5354 4.51538C12.3947 4.65603 12.204 4.73505 12.0051 4.73505Z" fill="black"/>
<path d="M12.0051 21.825C11.807 21.8224 11.6178 21.7425 11.4777 21.6024C11.3376 21.4623 11.2577 21.2731 11.2551 21.075V20.075C11.2551 19.876 11.3341 19.6853 11.4747 19.5446C11.6154 19.404 11.8062 19.325 12.0051 19.325C12.204 19.325 12.3947 19.404 12.5354 19.5446C12.6761 19.6853 12.7551 19.876 12.7551 20.075V21.075C12.7551 21.2739 12.6761 21.4646 12.5354 21.6053C12.3947 21.7459 12.204 21.825 12.0051 21.825Z" fill="black"/>
<path d="M6.31506 7.04507C6.21652 7.04554 6.11884 7.02633 6.02783 6.98856C5.93682 6.95078 5.85428 6.89518 5.78503 6.82507L5.04504 6.08508C4.90459 5.94446 4.82568 5.75383 4.82568 5.55508C4.82568 5.35633 4.90459 5.16571 5.04504 5.02509C5.11399 4.95433 5.19645 4.89808 5.28748 4.85968C5.3785 4.82128 5.47628 4.80151 5.57507 4.80151C5.67387 4.80151 5.77164 4.82128 5.86267 4.85968C5.9537 4.89808 6.03616 4.95433 6.1051 5.02509L6.84509 5.76508C6.91585 5.83402 6.9721 5.91645 7.0105 6.00748C7.0489 6.0985 7.0686 6.19628 7.0686 6.29507C7.0686 6.39387 7.0489 6.49168 7.0105 6.5827C6.9721 6.67373 6.91585 6.75613 6.84509 6.82507C6.77692 6.89661 6.69453 6.95311 6.60327 6.991C6.51201 7.02888 6.41385 7.0473 6.31506 7.04507Z" fill="black"/>
<path d="M18.4349 19.155C18.2377 19.1564 18.0476 19.0811 17.9049 18.9449L17.1549 18.1949C17.0812 18.1263 17.0222 18.0435 16.9812 17.9515C16.9402 17.8595 16.9182 17.7602 16.9164 17.6595C16.9146 17.5588 16.9331 17.4587 16.9708 17.3654C17.0085 17.272 17.0646 17.1871 17.1359 17.1159C17.2071 17.0447 17.292 16.9886 17.3854 16.9508C17.4788 16.9131 17.5787 16.8946 17.6794 16.8964C17.7801 16.8981 17.8794 16.9202 17.9714 16.9612C18.0634 17.0022 18.1463 17.0613 18.215 17.1349L18.965 17.875C19.1037 18.0185 19.1811 18.2103 19.1811 18.4099C19.1811 18.6096 19.1037 18.8014 18.965 18.9449C18.8217 19.0802 18.632 19.1553 18.4349 19.155Z" fill="black"/>
<path d="M17.6849 7.04507C17.5864 7.04554 17.4887 7.02633 17.3977 6.98856C17.3067 6.95078 17.2242 6.89518 17.1549 6.82507C17.0145 6.68445 16.9355 6.49383 16.9355 6.29507C16.9355 6.09632 17.0145 5.9057 17.1549 5.76508L17.9049 5.02509C17.9739 4.95433 18.0563 4.89808 18.1473 4.85968C18.2384 4.82128 18.3361 4.80151 18.4349 4.80151C18.5337 4.80151 18.6315 4.82128 18.7225 4.85968C18.8136 4.89808 18.896 4.95433 18.965 5.02509C19.1054 5.16571 19.1843 5.35633 19.1843 5.55508C19.1843 5.75383 19.1054 5.94446 18.965 6.08508L18.215 6.82507C18.1468 6.89661 18.0644 6.95311 17.9731 6.991C17.8819 7.02888 17.7837 7.0473 17.6849 7.04507Z" fill="black"/>
<path d="M5.57507 19.1551C5.37805 19.1555 5.18834 19.0803 5.04504 18.9451C4.90635 18.8015 4.82886 18.6097 4.82886 18.4101C4.82886 18.2105 4.90635 18.0187 5.04504 17.8751L5.78503 17.1351C5.92566 16.9947 6.11631 16.9158 6.31506 16.9158C6.51381 16.9158 6.70447 16.9947 6.84509 17.1351C6.91585 17.204 6.9721 17.2865 7.0105 17.3775C7.0489 17.4685 7.0686 17.5663 7.0686 17.6651C7.0686 17.7639 7.0489 17.8617 7.0105 17.9527C6.9721 18.0438 6.91585 18.1262 6.84509 18.1951L6.1051 18.9451C5.96181 19.0803 5.7721 19.1555 5.57507 19.1551Z" fill="black"/>
</svg>
