<svg width="24" height="24" viewBox="0 0 24 24" fill="none" xmlns="http://www.w3.org/2000/svg">
<path d="M12.7543 2.30536C12.7543 1.89115 12.4185 1.55536 12.0043 1.55536C11.5901 1.55536 11.2543 1.89115 11.2543 2.30536V3.78536C11.2543 4.19957 11.5901 4.53536 12.0043 4.53536C12.4185 4.53536 12.7543 4.19957 12.7543 3.78536V2.30536Z" fill="black"/>
<path d="M17.8651 10.2946C17.6573 9.48405 17.2789 8.72722 16.7551 8.07463C16.2364 7.41714 15.5857 6.8755 14.8451 6.4846C14.1066 6.09602 13.2969 5.86129 12.4651 5.7946C11.631 5.73194 10.7932 5.84436 10.0051 6.12462C9.21271 6.40093 8.48708 6.84037 7.87511 7.4146C7.2693 7.97876 6.78296 8.65888 6.44506 9.4146C6.11435 10.1817 5.94747 11.0093 5.95507 11.8446C5.93189 12.8093 6.13835 13.7658 6.55736 14.6351C6.97637 15.5044 7.59597 16.2617 8.3651 16.8446L8.71507 17.1746C9.01507 17.4846 9.01511 17.4846 9.00511 18.1746V18.4946C8.99249 18.7159 9.02653 18.9373 9.10509 19.1446C9.17578 19.3674 9.29927 19.5698 9.46507 19.7346C9.54122 19.8127 9.62496 19.8831 9.71507 19.9446V20.9446C9.69861 21.126 9.71817 21.3088 9.77269 21.4825C9.82721 21.6563 9.91558 21.8175 10.0327 21.957C10.1498 22.0964 10.2935 22.2113 10.4552 22.295C10.6169 22.3787 10.7936 22.4295 10.9751 22.4446H12.9751C13.3424 22.4141 13.6825 22.2389 13.9206 21.9576C14.1588 21.6763 14.2755 21.3119 14.2451 20.9446V19.9446C14.3352 19.8831 14.419 19.8127 14.4951 19.7346C14.6523 19.5688 14.7717 19.371 14.8451 19.1546C14.9228 18.9436 14.9568 18.7191 14.9451 18.4946V18.1246C14.9451 17.5746 14.9451 17.5746 15.2551 17.2246L15.6351 16.8746C16.9172 15.8775 17.7544 14.4151 17.9651 12.8046C18.1129 11.9705 18.0788 11.1143 17.8651 10.2946ZM12.795 20.9246H11.2151V20.2946H12.795V20.9246ZM12.0051 10.3646C11.8436 10.3646 11.6836 10.3964 11.5344 10.4582C11.3852 10.5201 11.2496 10.6106 11.1354 10.7248C11.0211 10.8391 10.9305 10.9747 10.8686 11.1239C10.8068 11.2731 10.775 11.4331 10.775 11.5946C10.775 11.8598 10.6697 12.1141 10.4822 12.3017C10.2946 12.4892 10.0402 12.5946 9.77501 12.5946C9.50979 12.5946 9.25552 12.4892 9.06798 12.3017C8.88044 12.1141 8.77501 11.8598 8.77501 11.5946C8.77236 11.1697 8.85411 10.7485 9.01549 10.3554C9.17687 9.96231 9.41473 9.6052 9.7152 9.30473C10.0157 9.00427 10.3728 8.76647 10.7659 8.60509C11.1589 8.44371 11.5802 8.36195 12.0051 8.36461C12.2703 8.36461 12.5246 8.46998 12.7121 8.65752C12.8997 8.84505 13.0051 9.09939 13.0051 9.36461C13.0051 9.62983 12.8997 9.88417 12.7121 10.0717C12.5246 10.2592 12.2703 10.3646 12.0051 10.3646Z" fill="black"/>
<path d="M21.165 12.8646H19.335C19.1361 12.8646 18.9454 12.7856 18.8047 12.6449C18.6641 12.5043 18.585 12.3135 18.585 12.1146C18.585 11.9157 18.6641 11.7249 18.8047 11.5843C18.9454 11.4436 19.1361 11.3646 19.335 11.3646H21.165C21.3639 11.3646 21.5547 11.4436 21.6954 11.5843C21.836 11.7249 21.915 11.9157 21.915 12.1146C21.915 12.3135 21.836 12.5043 21.6954 12.6449C21.5547 12.7856 21.3639 12.8646 21.165 12.8646Z" fill="black"/>
<path d="M17.485 6.85458C17.3865 6.85504 17.2888 6.83584 17.1978 6.79806C17.1068 6.76028 17.0243 6.70472 16.955 6.63461C16.8146 6.49398 16.7357 6.30333 16.7357 6.10458C16.7357 5.90583 16.8146 5.71524 16.955 5.57461L18.2551 4.27456C18.3972 4.14208 18.5853 4.06996 18.7796 4.07339C18.9739 4.07682 19.1593 4.15552 19.2967 4.29293C19.4341 4.43035 19.5127 4.61578 19.5162 4.81008C19.5196 5.00438 19.4475 5.19238 19.315 5.33456L18.0151 6.63461C17.9462 6.70518 17.8636 6.76104 17.7725 6.79885C17.6814 6.83667 17.5837 6.85561 17.485 6.85458Z" fill="black"/>
<path d="M19.785 19.2946C19.587 19.2903 19.3979 19.2118 19.2551 19.0746L17.955 17.7746C17.8146 17.6339 17.7357 17.4433 17.7357 17.2446C17.7357 17.0458 17.8146 16.8552 17.955 16.7146C18.024 16.6438 18.1064 16.5876 18.1974 16.5492C18.2885 16.5108 18.3863 16.491 18.485 16.491C18.5838 16.491 18.6816 16.5108 18.7726 16.5492C18.8637 16.5876 18.9461 16.6438 19.0151 16.7146L20.315 18.0146C20.3858 18.0835 20.442 18.166 20.4804 18.257C20.5188 18.348 20.5386 18.4458 20.5386 18.5446C20.5386 18.6434 20.5188 18.7412 20.4804 18.8322C20.442 18.9232 20.3858 19.0057 20.315 19.0746C20.1745 19.2153 19.9838 19.2944 19.785 19.2946Z" fill="black"/>
<path d="M6.53498 6.85459C6.33614 6.85442 6.14559 6.77531 6.00507 6.63462L4.70503 5.33457C4.63542 5.26432 4.58033 5.18106 4.54292 5.08952C4.5055 4.99797 4.48654 4.89996 4.48701 4.80106C4.48747 4.70217 4.50733 4.60435 4.5456 4.51316C4.58388 4.42197 4.63977 4.33917 4.71003 4.26957C4.78029 4.19997 4.8636 4.14494 4.95515 4.10752C5.04669 4.07011 5.14471 4.05109 5.2436 4.05155C5.34249 4.05202 5.44025 4.07193 5.53144 4.11021C5.62263 4.14848 5.70537 4.20432 5.77497 4.27457L7.06501 5.57462C7.20546 5.71525 7.28437 5.90584 7.28437 6.10459C7.28437 6.30334 7.20546 6.494 7.06501 6.63462C6.99577 6.70473 6.91323 6.76029 6.82221 6.79807C6.7312 6.83585 6.63352 6.85506 6.53498 6.85459Z" fill="black"/>
<path d="M4.24506 19.2946C4.14627 19.2968 4.04811 19.2784 3.95685 19.2405C3.86559 19.2026 3.7832 19.1461 3.71503 19.0746C3.57458 18.934 3.49567 18.7433 3.49567 18.5446C3.49567 18.3458 3.57458 18.1552 3.71503 18.0146L5.01508 16.7146C5.1557 16.5741 5.34623 16.4953 5.54498 16.4953C5.74373 16.4953 5.93439 16.5741 6.07501 16.7146C6.21546 16.8552 6.29437 17.0458 6.29437 17.2446C6.29437 17.4433 6.21546 17.6339 6.07501 17.7746L4.78497 19.0846C4.63806 19.2204 4.44516 19.2955 4.24506 19.2946Z" fill="black"/>
<path d="M4.66498 12.8646H2.83502C2.63611 12.8646 2.4454 12.7856 2.30475 12.6449C2.1641 12.5043 2.08502 12.3135 2.08502 12.1146C2.08502 11.9157 2.1641 11.7249 2.30475 11.5843C2.4454 11.4436 2.63611 11.3646 2.83502 11.3646H4.66498C4.86389 11.3646 5.05472 11.4436 5.19537 11.5843C5.33603 11.7249 5.41498 11.9157 5.41498 12.1146C5.41498 12.3135 5.33603 12.5043 5.19537 12.6449C5.05472 12.7856 4.86389 12.8646 4.66498 12.8646Z" fill="black"/>
</svg>
