<svg width="24" height="24" viewBox="0 0 24 24" fill="none" xmlns="http://www.w3.org/2000/svg">
<path d="M21.6569 7.84314C21.3308 6.75321 20.7806 5.74336 20.0413 4.87828C19.3021 4.01321 18.3901 3.31199 17.364 2.81954C16.3434 2.32424 15.2308 2.04699 14.097 2.00547C12.9632 1.96395 11.8332 2.15909 10.779 2.57841C9.72116 2.99481 8.7622 3.62795 7.964 4.43712C7.01858 5.3495 6.30192 6.47195 5.87218 7.7132C5.44245 8.95445 5.31182 10.2795 5.49088 11.5807C5.49088 11.8419 5.49088 12.073 5.49088 12.284C5.49088 13.0878 5.49085 13.1179 4.57598 13.9217L4.43522 14.0523C4.23296 14.2417 4.07212 14.4709 3.96273 14.7255C3.85126 14.9824 3.79307 15.2592 3.79178 15.5393C3.79139 15.6953 3.81173 15.8507 3.85216 16.0015L2.6156 17.2473C2.27186 17.5317 2.05388 17.9398 2.00873 18.3834C1.96358 18.8271 2.09479 19.2707 2.3742 19.6184L4.46541 21.6279C4.59013 21.7497 4.73803 21.8454 4.90034 21.9092C5.06264 21.9731 5.236 22.0038 5.41038 21.9996C5.94924 21.9767 6.45943 21.7506 6.83802 21.3666L7.97407 20.161C8.13515 20.2014 8.30061 20.2216 8.46668 20.2213C8.74298 20.2235 9.01682 20.1688 9.27101 20.0605C9.53021 19.9495 9.76306 19.7852 9.95458 19.5783L10.2562 19.2467C10.8896 18.5434 10.8996 18.5334 11.7039 18.5334H12.3775C14.5559 18.8337 16.7646 18.2592 18.5202 16.9359L18.6308 16.8655C19.5478 16.1954 20.3154 15.342 20.8848 14.3596C21.4542 13.3772 21.8131 12.2871 21.9384 11.1587C22.077 10.046 21.9811 8.91661 21.6569 7.84314ZM5.80248 20.3117C5.71636 20.4006 5.60922 20.4663 5.49088 20.5026L3.48018 18.6238C3.51345 18.5123 3.57586 18.4117 3.66108 18.3324L4.66643 17.3277L6.67713 19.3371L5.80248 20.3117ZM16.6603 7.25033C16.4731 7.43595 16.2202 7.54063 15.9565 7.54174C15.8242 7.5425 15.693 7.51711 15.5705 7.46711C15.448 7.41711 15.3367 7.34345 15.2427 7.25033C15.0457 7.05495 14.8138 6.89823 14.559 6.7882C14.0367 6.57704 13.4527 6.57704 12.9304 6.7882C12.6756 6.89823 12.4438 7.05495 12.2468 7.25033C12.1533 7.3445 12.0421 7.41929 11.9196 7.4703C11.7971 7.5213 11.6658 7.54756 11.533 7.54756C11.4003 7.54756 11.2689 7.5213 11.1463 7.4703C11.0238 7.41929 10.9126 7.3445 10.8192 7.25033C10.6319 7.06208 10.5268 6.80748 10.5268 6.54205C10.5268 6.27661 10.6319 6.02195 10.8192 5.8337C11.1991 5.44505 11.6541 5.13741 12.1564 4.92943C13.1718 4.51778 14.3077 4.51778 15.3231 4.92943C15.8282 5.13769 16.2864 5.44521 16.6704 5.8337C16.8443 6.02131 16.9401 6.26813 16.9383 6.52389C16.9364 6.77966 16.837 7.02511 16.6603 7.21016V7.25033Z" fill="black"/>
</svg>
