<svg width="24" height="24" viewBox="0 0 24 24" fill="none" xmlns="http://www.w3.org/2000/svg">
<path d="M20.5011 11.1459C20.4076 10.7487 20.2227 10.3789 19.9611 10.0659C19.6912 9.7408 19.3487 9.48387 18.9611 9.31586C18.5914 9.14403 18.1887 9.05528 17.7811 9.05585H14.191L14.3711 8.32587C14.5791 7.49129 14.4939 6.61059 14.1298 5.83136C13.7656 5.05213 13.1447 4.42169 12.3711 4.04584L11.441 3.59589C11.2301 3.48952 10.9973 3.43408 10.7611 3.43408C10.5249 3.43408 10.2919 3.48952 10.0811 3.59589C9.87028 3.70034 9.68828 3.8548 9.55103 4.04584C9.41251 4.23529 9.32017 4.45444 9.28113 4.68585L8.5011 9.42584C8.41266 9.51097 8.32918 9.60114 8.2511 9.69586C7.83271 9.29114 7.27315 9.06518 6.69104 9.06586H5.69104C5.0943 9.06586 4.52205 9.3029 4.1001 9.72485C3.67814 10.1468 3.44104 10.7191 3.44104 11.3159V18.3159C3.44104 18.9126 3.67814 19.4849 4.1001 19.9069C4.52205 20.3288 5.0943 20.5659 5.69104 20.5659H6.69104C7.00175 20.5658 7.30912 20.5009 7.59326 20.3752C7.8774 20.2495 8.13207 20.0658 8.34106 19.8359C8.84293 20.3049 9.50414 20.5658 10.191 20.5659H16.551C17.1801 20.5641 17.7901 20.3491 18.2811 19.9559C18.7902 19.5506 19.1435 18.9818 19.2811 18.3459L20.4811 12.3459C20.5777 11.9525 20.5845 11.5423 20.5011 11.1459ZM7.5011 18.3159C7.5011 18.5148 7.42202 18.7055 7.28137 18.8462C7.14072 18.9868 6.95001 19.0659 6.7511 19.0659H5.7511C5.55299 19.0633 5.36373 18.9834 5.22363 18.8433C5.08354 18.7032 5.00369 18.514 5.0011 18.3159V11.3159C5.0011 11.1169 5.08005 10.9262 5.2207 10.7855C5.36136 10.6449 5.55219 10.5659 5.7511 10.5659H6.7511C6.84996 10.5645 6.94807 10.583 7.03967 10.6202C7.13127 10.6575 7.21451 10.7126 7.28442 10.7825C7.35434 10.8524 7.40956 10.9357 7.44678 11.0273C7.48399 11.1189 7.50244 11.217 7.5011 11.3159V18.3159Z" fill="black"/>
</svg>
