<svg width="24" height="24" viewBox="0 0 24 24" fill="none" xmlns="http://www.w3.org/2000/svg">
<path d="M13.1859 15.0302C12.6286 15.0329 12.0763 14.9246 11.5613 14.7117C11.0462 14.4988 10.5787 14.1856 10.1859 13.7902C10.0534 13.6481 9.98131 13.46 9.98474 13.2657C9.98816 13.0714 10.0669 12.886 10.2043 12.7486C10.3418 12.6112 10.5271 12.5325 10.7214 12.5291C10.9157 12.5256 11.1037 12.5978 11.2458 12.7302C11.7583 13.2413 12.4522 13.5289 13.1759 13.5302C13.4187 13.5295 13.6604 13.4992 13.8959 13.4402C14.3504 13.311 14.7639 13.0664 15.0959 12.7302L18.356 9.46021C18.8327 8.94858 19.0879 8.2692 19.0659 7.5702C19.0531 6.86608 18.7676 6.19439 18.2696 5.69642C17.7717 5.19845 17.1 4.91304 16.3959 4.90021C15.693 4.89461 15.0141 5.15542 14.4958 5.63019L12.0659 8.06019C11.9253 8.20064 11.7346 8.27955 11.5359 8.27955C11.3371 8.27955 11.1465 8.20064 11.0059 8.06019C10.8654 7.91956 10.7866 7.72897 10.7866 7.53022C10.7866 7.33147 10.8654 7.14081 11.0059 7.00019L13.4459 4.54023C14.2592 3.78277 15.3347 3.37047 16.4459 3.3902C17.2611 3.40637 18.054 3.65834 18.729 4.11561C19.404 4.57288 19.9321 5.21586 20.2494 5.96686C20.5667 6.71787 20.6598 7.54475 20.5172 8.34748C20.3746 9.15021 20.0025 9.89447 19.4459 10.4902L16.1659 13.7802C15.6435 14.3014 14.9962 14.6801 14.2859 14.8802C13.9266 14.9745 13.5573 15.0249 13.1859 15.0302Z" fill="black"/>
<path d="M7.59595 20.6102H7.46594C6.66997 20.5778 5.8994 20.3207 5.24341 19.8687C4.58742 19.4167 4.07272 18.7883 3.75891 18.0561C3.4451 17.3238 3.34499 16.5178 3.47009 15.731C3.5952 14.9443 3.94049 14.209 4.46594 13.6102L7.77588 10.3003C8.29942 9.77786 8.95058 9.40148 9.66455 9.20852C10.3785 9.01555 11.1305 9.01267 11.8459 9.20022C12.5633 9.39757 13.2175 9.77645 13.7459 10.3003C13.8195 10.3689 13.8787 10.4517 13.9197 10.5437C13.9607 10.6357 13.9827 10.735 13.9845 10.8357C13.9863 10.9364 13.9678 11.0365 13.9301 11.1298C13.8923 11.2232 13.8361 11.3081 13.7649 11.3793C13.6937 11.4505 13.6089 11.5066 13.5155 11.5443C13.4221 11.5821 13.3221 11.6006 13.2214 11.5988C13.1207 11.5971 13.0213 11.575 12.9293 11.534C12.8373 11.493 12.7546 11.4339 12.6859 11.3602C12.434 11.106 12.1341 10.9041 11.8037 10.7664C11.4733 10.6286 11.1188 10.5577 10.7609 10.5577C10.4029 10.5577 10.0485 10.6286 9.71814 10.7664C9.38774 10.9041 9.0879 11.106 8.83594 11.3602L5.56592 14.6402C5.11526 15.1485 4.87871 15.8115 4.90589 16.4903C4.92601 17.1841 5.21062 17.8439 5.70142 18.3347C6.19222 18.8255 6.85209 19.1101 7.5459 19.1302C8.23731 19.1577 8.91205 18.9136 9.4259 18.4502L11.8459 16.0302C11.9866 15.8898 12.1771 15.8109 12.3759 15.8109C12.5746 15.8109 12.7653 15.8898 12.9059 16.0302C12.9766 16.0992 13.0329 16.1816 13.0713 16.2726C13.1097 16.3636 13.1295 16.4614 13.1295 16.5602C13.1295 16.659 13.1097 16.7568 13.0713 16.8479C13.0329 16.9389 12.9766 17.0213 12.9059 17.0902L10.4559 19.5402C9.66959 20.2414 8.64943 20.6231 7.59595 20.6102Z" fill="black"/>
</svg>
