<svg width="24" height="24" viewBox="0 0 24 24" fill="none" xmlns="http://www.w3.org/2000/svg">
<path d="M17.6683 5.39523C16.8183 4.28523 15.1382 2.96521 11.9782 2.96521C8.81823 2.96521 7.13829 4.28523 6.28829 5.39523C5.58323 6.45844 5.12708 7.66701 4.95394 8.93094C4.7808 10.1949 4.89513 11.4816 5.28829 12.6952C6.07829 15.6952 8.18826 17.8652 9.88826 19.6052L10.7182 20.4652C10.8801 20.6441 11.0778 20.7872 11.2983 20.8852C11.522 20.9839 11.7638 21.0348 12.0083 21.0348C12.2527 21.0348 12.4945 20.9839 12.7182 20.8852C12.9387 20.7872 13.1364 20.6441 13.2983 20.4652L14.1283 19.6052C15.8283 17.8652 17.9382 15.7052 18.7382 12.6952C19.1184 11.476 19.2196 10.187 19.0344 8.9234C18.8492 7.65982 18.3823 6.45404 17.6683 5.39523ZM11.9782 13.4652C11.2365 13.4652 10.5115 13.2453 9.89485 12.8332C9.27817 12.4212 8.79758 11.8355 8.51375 11.1503C8.22992 10.465 8.15568 9.71107 8.30037 8.98364C8.44507 8.25621 8.80217 7.58802 9.32662 7.06357C9.85106 6.53912 10.5192 6.18196 11.2467 6.03726C11.9741 5.89257 12.7281 5.96684 13.4133 6.25067C14.0985 6.5345 14.6842 7.01515 15.0963 7.63184C15.5083 8.24852 15.7282 8.97353 15.7282 9.71521C15.7282 10.7098 15.3332 11.6636 14.63 12.3669C13.9267 13.0701 12.9728 13.4652 11.9782 13.4652Z" fill="black"/>
<path d="M11.9783 11.9652C13.2209 11.9652 14.2283 10.9579 14.2283 9.71521C14.2283 8.47257 13.2209 7.46521 11.9783 7.46521C10.7356 7.46521 9.72827 8.47257 9.72827 9.71521C9.72827 10.9579 10.7356 11.9652 11.9783 11.9652Z" fill="black"/>
</svg>
