<svg width="24" height="24" viewBox="0 0 24 24" fill="none" xmlns="http://www.w3.org/2000/svg">
<path d="M16.58 2H7.41C5.97426 2.00265 4.59823 2.57484 3.58395 3.591C2.56966 4.60716 2 5.98427 2 7.42001V16.59C2.00264 18.024 2.57347 19.3985 3.58747 20.4125C4.60147 21.4265 5.97599 21.9974 7.41 22H16.58C18.0157 22 19.3928 21.4303 20.409 20.416C21.4251 19.4018 21.9974 18.0257 22 16.59V7.42001C22 5.98254 21.429 4.60394 20.4125 3.58749C19.3961 2.57105 18.0175 2 16.58 2ZM16.78 15.82C16.7619 16.3382 16.5432 16.8291 16.17 17.1892C15.7969 17.5492 15.2985 17.7503 14.78 17.75H9.28C8.76147 17.7503 8.2631 17.5492 7.88998 17.1892C7.51685 16.8291 7.29815 16.3382 7.28 15.82V12C7.29683 11.5556 7.46134 11.1294 7.74748 10.7889C8.03363 10.4485 8.4251 10.2131 8.86 10.12V9.45999C8.86316 8.60926 9.2008 7.79392 9.8 7.19C10.4102 6.60744 11.2214 6.28238 12.065 6.28238C12.9086 6.28238 13.7198 6.60744 14.33 7.19C14.6294 7.48712 14.8667 7.84084 15.0281 8.23056C15.1895 8.62028 15.2717 9.03819 15.27 9.45999V10.12C15.7049 10.2131 16.0964 10.4485 16.3825 10.7889C16.6687 11.1294 16.8332 11.5556 16.85 12L16.78 15.82Z" fill="black"/>
<path d="M13.8801 9.46014V10.0702H10.1101V9.46014C10.1099 9.2132 10.1584 8.96865 10.2528 8.74045C10.3472 8.51224 10.4856 8.30486 10.6601 8.13016C11.0182 7.78374 11.4969 7.59009 11.9951 7.59009C12.4933 7.59009 12.972 7.78374 13.3301 8.13016C13.5046 8.30486 13.643 8.51224 13.7374 8.74045C13.8318 8.96865 13.8803 9.2132 13.8801 9.46014Z" fill="black"/>
</svg>
