<svg width="24" height="24" viewBox="0 0 24 24" fill="none" xmlns="http://www.w3.org/2000/svg">
<path d="M17.38 9.10028V7.51028C17.4113 6.78492 17.2955 6.06072 17.0394 5.38132C16.7834 4.70192 16.3926 4.08137 15.8904 3.55704C15.3882 3.03271 14.785 2.61544 14.1173 2.33038C13.4496 2.04533 12.731 1.89838 12.005 1.89838C11.279 1.89838 10.5605 2.04533 9.89272 2.33038C9.22498 2.61544 8.62184 3.03271 8.11964 3.55704C7.61745 4.08137 7.22657 4.70192 6.97057 5.38132C6.71456 6.06072 6.59871 6.78492 6.63 7.51028V9.10028C5.8651 9.15881 5.14858 9.49707 4.61731 10.0505C4.08604 10.6039 3.77727 11.3336 3.75 12.1003V19.0403C3.77613 19.8767 4.133 20.6686 4.74228 21.2423C5.35156 21.816 6.1635 22.1245 7 22.1003H17C17.8365 22.1245 18.6485 21.816 19.2577 21.2423C19.867 20.6686 20.2239 19.8767 20.25 19.0403V12.1003C20.223 11.3352 19.9156 10.6068 19.3864 10.0536C18.8572 9.50045 18.1431 9.16115 17.38 9.10028ZM8.13 7.51028C8.12744 7.00148 8.22601 6.49723 8.42 6.02686C8.61399 5.55648 8.89952 5.12937 9.26001 4.77029C9.98804 4.04498 10.9723 3.63543 12 3.63028C13.0282 3.63292 14.0136 4.04255 14.7407 4.76962C15.4677 5.49669 15.8774 6.48206 15.88 7.51028V9.07028H8.13V7.51028ZM15.47 18.9103H8.57001C8.30479 18.9103 8.05044 18.8049 7.8629 18.6174C7.67536 18.4299 7.57001 18.1755 7.57001 17.9103C7.57001 17.6451 7.67536 17.3907 7.8629 17.2032C8.05044 17.0156 8.30479 16.9103 8.57001 16.9103H15.51C15.7752 16.9103 16.0296 17.0156 16.2171 17.2032C16.4047 17.3907 16.51 17.6451 16.51 17.9103C16.51 18.1755 16.4047 18.4299 16.2171 18.6174C16.0296 18.8049 15.7752 18.9103 15.51 18.9103H15.47Z" fill="black"/>
</svg>
