<svg width="24" height="24" viewBox="0 0 24 24" fill="none" xmlns="http://www.w3.org/2000/svg">
<path d="M17.0199 9.25497V7.77496C17.0199 6.44888 16.4931 5.17712 15.5554 4.23944C14.6177 3.30176 13.346 2.77496 12.0199 2.77496C10.6938 2.77496 9.42206 3.30176 8.48438 4.23944C7.54669 5.17712 7.0199 6.44888 7.0199 7.77496V9.24496C6.41219 9.41122 5.87584 9.77216 5.49292 10.2725C5.11 10.7728 4.90163 11.3849 4.8999 12.015V18.3549C4.90254 19.1153 5.20575 19.8438 5.74341 20.3814C6.28107 20.9191 7.00954 21.2223 7.7699 21.225H16.23C16.9903 21.2223 17.7187 20.9191 18.2563 20.3814C18.794 19.8438 19.0973 19.1153 19.1 18.3549V12.015C19.0985 11.3918 18.8949 10.786 18.5199 10.2883C18.1449 9.79065 17.6185 9.42807 17.0199 9.25497ZM8.55994 7.78497C8.55586 7.3292 8.64208 6.87713 8.81372 6.4549C8.98536 6.03266 9.23902 5.64861 9.55994 5.32495C10.2235 4.69396 11.1042 4.3421 12.0199 4.3421C12.9356 4.3421 13.8164 4.69396 14.48 5.32495C14.8009 5.64861 15.0544 6.03266 15.2261 6.4549C15.3977 6.87713 15.4841 7.3292 15.48 7.78497V9.15497H8.47998L8.55994 7.78497ZM15.22 18.065H8.86987C8.67096 18.065 8.48025 17.986 8.3396 17.8453C8.19895 17.7047 8.11987 17.5139 8.11987 17.315C8.11987 17.1161 8.19895 16.9253 8.3396 16.7846C8.48025 16.644 8.67096 16.565 8.86987 16.565H15.22C15.4189 16.565 15.6096 16.644 15.7502 16.7846C15.8909 16.9253 15.97 17.1161 15.97 17.315C15.97 17.5139 15.8909 17.7047 15.7502 17.8453C15.6096 17.986 15.4189 18.065 15.22 18.065Z" fill="black"/>
</svg>
