<svg width="24" height="24" viewBox="0 0 24 24" fill="none" xmlns="http://www.w3.org/2000/svg">
<path d="M8.63007 20.7072C7.36637 20.6944 6.15436 20.2036 5.23785 19.3335C4.32135 18.4634 3.76829 17.2785 3.69 16.0172V8.01716C3.76247 6.70489 4.34868 5.47392 5.32184 4.59059C6.295 3.70726 7.57693 3.24259 8.89008 3.29716H13.2701C13.469 3.29716 13.6597 3.37618 13.8004 3.51683C13.941 3.65748 14.0201 3.84825 14.0201 4.04716C14.0201 4.24608 13.941 4.43684 13.8004 4.5775C13.6597 4.71815 13.469 4.79716 13.2701 4.79716H8.86005C7.94068 4.74793 7.03915 5.06398 6.35175 5.67647C5.66434 6.28895 5.24672 7.14822 5.19 8.06715V15.9672C5.254 16.8643 5.66683 17.7007 6.34003 18.2972C6.67339 18.6031 7.06445 18.8393 7.4903 18.9922C7.91615 19.145 8.36821 19.2113 8.82001 19.1872H13.2701C13.469 19.1872 13.6597 19.2662 13.8004 19.4068C13.941 19.5475 14.0201 19.7383 14.0201 19.9372C14.0201 20.1361 13.941 20.3268 13.8004 20.4675C13.6597 20.6081 13.469 20.6872 13.2701 20.6872H8.63007V20.7072Z" fill="black"/>
<path d="M20.31 11.9571C20.3099 12.171 20.2674 12.3827 20.185 12.5801C20.1026 12.7775 19.982 12.9566 19.83 13.1071L16.04 16.8971C15.9718 16.9686 15.8895 17.0251 15.7983 17.063C15.707 17.1009 15.6089 17.1193 15.5101 17.1171C15.4115 17.1176 15.3139 17.0983 15.2228 17.0605C15.1318 17.0228 15.0493 16.9672 14.98 16.8971C14.8396 16.7565 14.7607 16.5658 14.7607 16.3671C14.7607 16.1683 14.8396 15.9777 14.98 15.8371L18.09 12.7071H8.09003C7.89111 12.7071 7.70041 12.6281 7.55975 12.4874C7.4191 12.3468 7.34003 12.156 7.34003 11.9571C7.34003 11.7582 7.4191 11.5674 7.55975 11.4268C7.70041 11.2861 7.89111 11.2071 8.09003 11.2071H18.09L14.94 8.06707C14.8075 7.9249 14.7354 7.73687 14.7388 7.54257C14.7423 7.34827 14.821 7.16289 14.9584 7.02548C15.0958 6.88806 15.2812 6.80933 15.4755 6.8059C15.6698 6.80247 15.8579 6.87459 16.0001 7.00707L19.79 10.7971C19.9499 10.9457 20.0785 11.125 20.1678 11.3243C20.2571 11.5236 20.3054 11.7388 20.31 11.9571Z" fill="black"/>
</svg>
