<svg width="24" height="24" viewBox="0 0 24 24" fill="none" xmlns="http://www.w3.org/2000/svg">
<path d="M18.2961 4.63699C17.4832 3.78975 16.5074 3.11561 15.4274 2.65509C14.3473 2.19457 13.1853 1.95715 12.0111 1.95715C10.837 1.95715 9.67495 2.19457 8.59489 2.65509C7.51482 3.11561 6.53902 3.78975 5.72613 4.63699C4.19613 6.63699 3.72613 9.63698 4.58613 12.717C5.46613 16.047 7.81612 18.457 9.70612 20.387L10.6261 21.387C10.8048 21.5766 11.0188 21.7295 11.2561 21.837C11.4938 21.9426 11.751 21.9971 12.0111 21.9971C12.2712 21.9971 12.5284 21.9426 12.7661 21.837C12.999 21.7313 13.2095 21.582 13.3861 21.397L14.3161 20.397C16.2061 18.467 18.5561 16.057 19.4361 12.727C20.2461 9.63699 19.8261 6.63699 18.2961 4.63699ZM12.0061 12.887C11.3178 12.887 10.645 12.6829 10.0727 12.3005C9.50046 11.9181 9.05442 11.3746 8.79102 10.7387C8.52763 10.1029 8.45872 9.40314 8.59299 8.72809C8.72727 8.05303 9.0587 7.43295 9.54539 6.94626C10.0321 6.45957 10.6521 6.12814 11.3272 5.99387C12.0023 5.85959 12.702 5.9285 13.3379 6.19189C13.9738 6.45529 14.5172 6.90132 14.8996 7.4736C15.282 8.04589 15.4861 8.7187 15.4861 9.40698C15.4861 9.86351 15.396 10.3156 15.221 10.7372C15.046 11.1589 14.7895 11.5418 14.4663 11.8642C14.143 12.1865 13.7593 12.4419 13.3371 12.6157C12.915 12.7895 12.4627 12.8783 12.0061 12.877V12.887Z" fill="black"/>
</svg>
