<svg width="24" height="24" viewBox="0 0 24 24" fill="none" xmlns="http://www.w3.org/2000/svg">
<path d="M18.4402 13.7914L12.9415 4.20568C12.804 3.96655 12.6207 3.75685 12.4021 3.58867C12.1835 3.42048 11.9338 3.2971 11.6674 3.22554C11.1253 3.08042 10.5479 3.15437 10.0599 3.43139L8.86418 4.12725C8.8342 4.14113 8.80741 4.16117 8.78569 4.18606L8.71713 4.2743C8.64584 4.35197 8.59525 4.44632 8.57009 4.5487C8.1436 5.85053 7.6126 7.11581 6.98227 8.33208C6.53886 9.0804 5.94066 9.72534 5.22778 10.2237L3.43417 11.8116C3.07013 12.136 2.82807 12.5752 2.74812 13.0563C2.69611 13.3834 2.71612 13.7179 2.80687 14.0364C2.56084 14.1723 2.3469 14.3596 2.17957 14.5854C2.01058 14.8072 1.88732 15.0604 1.81692 15.3302C1.76301 15.6053 1.76301 15.8883 1.81692 16.1634C1.85443 16.4361 1.9443 16.699 2.08158 16.9377C2.21799 17.1795 2.40213 17.3912 2.62285 17.5596C2.84358 17.7281 3.09634 17.85 3.36562 17.9178C3.54125 17.9656 3.72261 17.9887 3.90462 17.9864C4.00239 17.9962 4.10094 17.9962 4.19871 17.9864C4.47079 17.9529 4.732 17.8592 4.96325 17.712C5.17913 17.9546 5.45188 18.1399 5.7571 18.2511C5.99412 18.3448 6.24715 18.3914 6.50201 18.3883C6.64085 18.3913 6.77947 18.3748 6.91371 18.3393L8.51134 21.1915C8.79695 21.6715 9.2569 22.0227 9.79526 22.1716C9.97734 22.2217 10.1652 22.248 10.354 22.25C10.7268 22.2487 11.0924 22.1472 11.4125 21.956C11.8947 21.6727 12.2465 21.2118 12.3927 20.672C12.5325 20.1296 12.4589 19.5542 12.1869 19.0646L10.991 16.9867C11.313 16.915 11.6413 16.8756 11.9711 16.8691C13.3656 16.9276 14.7526 17.1047 16.1171 17.3984H16.323H16.4603L16.617 17.3297L16.764 17.2415L17.8128 16.6338C18.2951 16.3553 18.6475 15.8972 18.793 15.3597C18.884 14.8109 18.7574 14.2483 18.4402 13.7914ZM6.55107 16.9475C6.41154 16.9968 6.25926 16.9968 6.11974 16.9475C5.98201 16.8986 5.86699 16.8009 5.79634 16.673L4.30651 14.0659L4.20852 13.8993C4.13377 13.7652 4.10608 13.6098 4.13003 13.4582C4.15594 13.3098 4.23217 13.1748 4.34575 13.0759L5.45332 12.0958L5.8649 12.8211L7.99184 16.5456L6.55107 16.9475ZM17.2247 14.9872C17.1771 15.1544 17.0688 15.2977 16.9209 15.389L16.372 15.7027L10.2363 5.0094L10.795 4.68594C10.8666 4.64321 10.9462 4.6159 11.0289 4.60577C11.1116 4.59565 11.1955 4.60293 11.2753 4.62713C11.357 4.64732 11.4338 4.68376 11.5012 4.73427C11.5685 4.78479 11.6251 4.84835 11.6674 4.92116L17.1659 14.4971C17.215 14.5789 17.2456 14.6703 17.2558 14.7651C17.2659 14.8599 17.2553 14.9557 17.2247 15.046V14.9872Z" fill="black"/>
<path d="M16.97 9.16517C16.841 9.16779 16.7135 9.13545 16.6014 9.0716C16.4892 9.00776 16.3965 8.9148 16.3329 8.80252C16.2425 8.63646 16.2195 8.44198 16.2688 8.25945C16.318 8.07692 16.4359 7.92037 16.5975 7.82238L19.0479 6.40117C19.2134 6.30826 19.4087 6.28391 19.5919 6.33339C19.7752 6.38286 19.9318 6.50224 20.028 6.66583C20.1184 6.83188 20.1413 7.02637 20.092 7.2089C20.0428 7.39143 19.9251 7.54797 19.7634 7.64596L17.313 9.06718C17.2086 9.1279 17.0907 9.16157 16.97 9.16517Z" fill="black"/>
<path d="M21.4884 12.6348H18.6558C18.4608 12.6348 18.2738 12.5574 18.1359 12.4195C17.998 12.2817 17.9207 12.0947 17.9207 11.8997C17.9207 11.7048 17.998 11.5178 18.1359 11.3799C18.2738 11.2421 18.4608 11.1646 18.6558 11.1646H21.4884C21.6833 11.1646 21.8703 11.2421 22.0081 11.3799C22.146 11.5178 22.2235 11.7048 22.2235 11.8997C22.2235 12.0947 22.146 12.2817 22.0081 12.4195C21.8703 12.5574 21.6833 12.6348 21.4884 12.6348Z" fill="black"/>
<path d="M14.6568 5.66607C14.5291 5.6683 14.4033 5.63434 14.2941 5.56808C14.1289 5.47345 14.0075 5.31763 13.9561 5.13424C13.9048 4.95086 13.9277 4.75463 14.0198 4.58794L15.4311 2.11797C15.5286 1.94901 15.6892 1.82568 15.8776 1.77513C16.0661 1.72458 16.2668 1.75093 16.4358 1.84841C16.6048 1.94589 16.728 2.10652 16.7786 2.29493C16.8291 2.48334 16.8028 2.68411 16.7054 2.85308L15.2939 5.31323C15.2282 5.423 15.1348 5.51347 15.0229 5.57544C14.911 5.63741 14.7847 5.66865 14.6568 5.66607Z" fill="black"/>
</svg>
