<svg width="24" height="24" viewBox="0 0 24 24" fill="none" xmlns="http://www.w3.org/2000/svg">
<path d="M16.8702 2.82213C16.705 2.54811 16.4658 2.32626 16.1801 2.18211C15.891 2.04242 15.5705 1.98039 15.2502 2.00212C14.9315 2.03375 14.6273 2.15129 14.3702 2.34215C12.9185 3.4248 11.2451 4.1727 9.47015 4.53215L4.1701 5.59215C3.55959 5.72215 3.01037 6.05313 2.61016 6.53215C2.21627 7.01506 2.00085 7.61893 2.00018 8.24211V12.8221C1.98991 13.4529 2.19835 14.0677 2.59015 14.5621C2.87201 14.9164 3.24051 15.192 3.66009 15.3622L5.46014 20.2421C5.65644 20.76 6.00509 21.2064 6.46014 21.5221C6.9064 21.8326 7.43654 22 7.98016 22.0021H9.14019C9.41755 21.9963 9.68958 21.9255 9.93451 21.7952C10.1794 21.6649 10.3903 21.4789 10.5501 21.2521C10.7029 21.0239 10.8021 20.7641 10.8401 20.4921C10.8727 20.2147 10.8385 19.9336 10.7402 19.6722L9.60015 16.6122C11.3265 16.9603 12.955 17.684 14.3702 18.7322C14.6273 18.923 14.9315 19.0405 15.2502 19.0721H15.4101C15.6749 19.0696 15.9353 19.0045 16.1701 18.8821C16.466 18.7471 16.7172 18.5305 16.8943 18.2577C17.0715 17.985 17.1671 17.6674 17.1701 17.3421V3.72215C17.1598 3.39936 17.0556 3.08656 16.8702 2.82213ZM13.4802 13.4621C13.4802 13.7274 13.3747 13.9817 13.1872 14.1692C12.9997 14.3568 12.7454 14.4621 12.4802 14.4621C12.2149 14.4621 11.9605 14.3568 11.773 14.1692C11.5855 13.9817 11.4802 13.7274 11.4802 13.4621V7.62211C11.4802 7.3569 11.5855 7.10256 11.773 6.91502C11.9605 6.72749 12.2149 6.62211 12.4802 6.62211C12.7454 6.62211 12.9997 6.72749 13.1872 6.91502C13.3747 7.10256 13.4802 7.3569 13.4802 7.62211V13.4621Z" fill="black"/>
<path d="M18.5201 7.15214C18.3881 7.15071 18.2587 7.11489 18.1448 7.04825C18.0308 6.98162 17.9362 6.88647 17.8702 6.77213C17.7763 6.60206 17.7529 6.40186 17.8053 6.21476C17.8577 6.02766 17.9815 5.86868 18.1501 5.77213L20.6802 4.31211C20.849 4.21732 21.0484 4.19254 21.2353 4.24302C21.4223 4.2935 21.5819 4.41523 21.6802 4.58213C21.7724 4.75155 21.7959 4.94998 21.7456 5.13621C21.6953 5.32244 21.5751 5.48215 21.4101 5.58213L18.8802 7.04215C18.7715 7.10882 18.6475 7.14667 18.5201 7.15214Z" fill="black"/>
<path d="M21.0801 16.8821C20.9498 16.8844 20.8215 16.8497 20.7101 16.7821L18.1801 15.3221C18.0115 15.2256 17.8876 15.0666 17.8352 14.8795C17.7828 14.6924 17.8061 14.4922 17.9 14.3221C18.0001 14.1573 18.1592 14.0367 18.3449 13.9847C18.5305 13.9327 18.7289 13.9532 18.9 14.0421L21.4301 15.5121C21.597 15.6103 21.7187 15.77 21.7692 15.957C21.8197 16.144 21.7949 16.3432 21.7001 16.5121C21.6362 16.621 21.5459 16.712 21.4375 16.7766C21.3291 16.8413 21.2062 16.8776 21.0801 16.8821Z" fill="black"/>
<path d="M21.2502 11.2921H18.3301C18.1312 11.2921 17.9405 11.2131 17.7999 11.0725C17.6592 10.9318 17.5801 10.741 17.5801 10.5421C17.5801 10.3432 17.6592 10.1524 17.7999 10.0118C17.9405 9.87114 18.1312 9.79213 18.3301 9.79213H21.2502C21.4491 9.79213 21.6398 9.87114 21.7805 10.0118C21.9211 10.1524 22.0002 10.3432 22.0002 10.5421C22.0002 10.741 21.9211 10.9318 21.7805 11.0725C21.6398 11.2131 21.4491 11.2921 21.2502 11.2921Z" fill="black"/>
</svg>
