<svg width="24" height="24" viewBox="0 0 24 24" fill="none" xmlns="http://www.w3.org/2000/svg">
<path d="M19.835 7.3801C20.0339 7.3801 20.2246 7.30109 20.3653 7.16043C20.5059 7.01978 20.585 6.82901 20.585 6.6301V6.28012C20.564 5.06093 20.0607 3.89976 19.1855 3.05075C18.3102 2.20175 17.1342 1.73404 15.915 1.75009H8.02496C6.81264 1.74999 5.64915 2.22747 4.78632 3.07907C3.92348 3.93068 3.43076 5.08786 3.41498 6.30008V17.7101C3.43333 18.9189 3.92579 20.0721 4.78619 20.9212C5.6466 21.7704 6.80619 22.2476 8.01508 22.2501H15.905C17.126 22.2613 18.3031 21.7948 19.185 20.9501C19.6205 20.527 19.9683 20.0221 20.2086 19.4645C20.4488 18.9068 20.5767 18.3073 20.585 17.7001V9.7601C20.585 9.56119 20.5059 9.37042 20.3653 9.22977C20.2246 9.08912 20.0339 9.0101 19.835 9.0101H18.975V7.3801H19.835ZM12.6251 5.00009C12.6251 4.80118 12.704 4.61041 12.8447 4.46976C12.9853 4.32911 13.1761 4.25009 13.3751 4.25009C13.574 4.25009 13.7647 4.32911 13.9053 4.46976C14.046 4.61041 14.1251 4.80118 14.1251 5.00009V6.89011C14.1251 7.08902 14.046 7.27979 13.9053 7.42044C13.7647 7.5611 13.574 7.64011 13.3751 7.64011C13.1761 7.64011 12.9853 7.5611 12.8447 7.42044C12.704 7.27979 12.6251 7.08902 12.6251 6.89011V5.00009ZM9.76508 5.00009C9.76508 4.80118 9.84403 4.61041 9.98468 4.46976C10.1253 4.32911 10.3162 4.25009 10.5151 4.25009C10.714 4.25009 10.9047 4.32911 11.0453 4.46976C11.186 4.61041 11.2651 4.80118 11.2651 5.00009V6.89011C11.2651 7.08902 11.186 7.27979 11.0453 7.42044C10.9047 7.5611 10.714 7.64011 10.5151 7.64011C10.3162 7.64011 10.1253 7.5611 9.98468 7.42044C9.84403 7.27979 9.76508 7.08902 9.76508 6.89011V5.00009ZM6.91498 5.00009C6.91498 4.80118 6.99405 4.61041 7.1347 4.46976C7.27536 4.32911 7.46607 4.25009 7.66498 4.25009C7.86389 4.25009 8.05472 4.32911 8.19537 4.46976C8.33603 4.61041 8.41498 4.80118 8.41498 5.00009V6.89011C8.41498 7.08902 8.33603 7.27979 8.19537 7.42044C8.05472 7.5611 7.86389 7.64011 7.66498 7.64011C7.46607 7.64011 7.27536 7.5611 7.1347 7.42044C6.99405 7.27979 6.91498 7.08902 6.91498 6.89011V5.00009ZM17.5051 16.7501C17.5051 17.4529 17.2258 18.127 16.7288 18.6239C16.2318 19.1209 15.5579 19.4001 14.855 19.4001H9.15497C8.80697 19.4001 8.46244 19.3316 8.14093 19.1984C7.81942 19.0652 7.52726 18.87 7.28119 18.6239C7.03511 18.3779 6.8399 18.0857 6.70673 17.7642C6.57355 17.4427 6.50507 17.0981 6.50507 16.7501V13.9001C6.50507 13.5521 6.57355 13.2075 6.70673 12.886C6.8399 12.5645 7.03511 12.2724 7.28119 12.0263C7.52726 11.7802 7.81942 11.585 8.14093 11.4518C8.46244 11.3186 8.80697 11.2501 9.15497 11.2501H14.855C15.5579 11.2501 16.2318 11.5293 16.7288 12.0263C17.2258 12.5232 17.5051 13.1973 17.5051 13.9001V16.7501Z" fill="black"/>
<path d="M16.0051 13.9001V16.7501C16.0025 17.0543 15.8805 17.3453 15.6654 17.5604C15.4503 17.7755 15.1593 17.8975 14.8551 17.9001H9.15501C8.85001 17.9001 8.55757 17.7789 8.3419 17.5633C8.12624 17.3476 8.00511 17.0551 8.00511 16.7501V13.9001C8.00378 13.7487 8.03251 13.5986 8.08983 13.4585C8.14715 13.3184 8.23192 13.191 8.33897 13.084C8.44603 12.9769 8.57324 12.8923 8.71336 12.8349C8.85349 12.7776 9.00362 12.7488 9.15501 12.7501H14.8551C15.1601 12.7501 15.4525 12.8713 15.6682 13.087C15.8839 13.3026 16.0051 13.5951 16.0051 13.9001Z" fill="black"/>
</svg>
