<svg width="24" height="24" viewBox="0 0 24 24" fill="none" xmlns="http://www.w3.org/2000/svg">
<path d="M16.55 2.00008H7.41998C5.98251 2.00008 4.60391 2.57113 3.58746 3.58758C2.57102 4.60402 2 5.98262 2 7.4201V16.5901C2.00265 18.0258 2.57484 19.4018 3.591 20.4161C4.60716 21.4304 5.98424 22.0001 7.41998 22.0001H16.59C18.024 21.9974 19.3985 21.4266 20.4125 20.4126C21.4265 19.3986 21.9974 18.0241 22 16.5901V7.4201C22 6.7058 21.8588 5.99853 21.5845 5.33898C21.3103 4.67943 20.9084 4.08061 20.4019 3.57693C19.8954 3.07324 19.2944 2.67462 18.6334 2.40401C17.9723 2.1334 17.2643 1.99613 16.55 2.00008ZM17.37 13.5801C17.3668 13.924 17.2954 14.2639 17.16 14.5801C17.0258 14.9054 16.8286 15.201 16.5797 15.4499C16.3309 15.6987 16.0353 15.8959 15.71 16.0301C15.3935 16.1645 15.0538 16.2359 14.71 16.2401H13.62L12.69 17.1701C12.5983 17.2559 12.4937 17.3267 12.38 17.3801C12.2582 17.4373 12.1245 17.4647 11.99 17.4601C11.8562 17.4576 11.724 17.4305 11.6 17.3801C11.4827 17.3194 11.3749 17.2419 11.28 17.1501L10.37 16.2401H9.27997C8.56735 16.2374 7.8847 15.9532 7.3808 15.4493C6.8769 14.9454 6.5926 14.2627 6.58997 13.5501V10.1901C6.5926 9.47746 6.8769 8.79479 7.3808 8.29088C7.8847 7.78698 8.56735 7.50272 9.27997 7.50008H14.71C15.0645 7.49877 15.4159 7.5673 15.744 7.70177C16.0721 7.83625 16.3705 8.03405 16.6221 8.28384C16.8738 8.53363 17.0737 8.83051 17.2106 9.15758C17.3475 9.48466 17.4187 9.83552 17.42 10.1901L17.37 13.5801Z" fill="black"/>
</svg>
