<svg width="24" height="24" viewBox="0 0 24 24" fill="none" xmlns="http://www.w3.org/2000/svg">
<path d="M19.8774 8.76355C19.4512 7.7309 18.8256 6.79239 18.0364 6.00171C17.2472 5.21102 16.3099 4.58367 15.278 4.15552C14.2462 3.72736 13.14 3.50681 12.0229 3.50647C10.9057 3.50613 9.79951 3.72603 8.7674 4.15356C7.73487 4.57852 6.79679 5.20393 6.00739 5.99359C5.21968 6.78842 4.5947 7.7293 4.16743 8.76355C3.32066 10.8198 3.32066 13.1274 4.16743 15.1836L3.75739 18.1836C3.68755 18.4592 3.68755 18.7479 3.75739 19.0236C3.82911 19.301 3.97023 19.5556 4.16743 19.7635C4.36811 19.9688 4.61495 20.1231 4.8874 20.2136C5.15043 20.3058 5.43261 20.3299 5.70747 20.2836L8.70747 19.8336C9.73847 20.2713 10.8474 20.4958 11.9675 20.4936C13.0864 20.4944 14.1944 20.2734 15.2275 19.8436C16.2616 19.4186 17.2008 18.7922 17.9905 18.0007C18.7803 17.2093 19.4047 16.2686 19.8275 15.2336C20.681 13.151 20.681 10.8162 19.8275 8.73358L19.8774 8.76355ZM12.8175 15.8235C12.8175 16.0225 12.7384 16.2132 12.5977 16.3539C12.4571 16.4945 12.2664 16.5735 12.0675 16.5735C11.8685 16.5735 11.6777 16.4945 11.5371 16.3539C11.3964 16.2132 11.3175 16.0225 11.3175 15.8235V11.1636C11.3175 10.9647 11.3964 10.7739 11.5371 10.6332C11.6777 10.4926 11.8685 10.4136 12.0675 10.4136C12.2664 10.4136 12.4571 10.4926 12.5977 10.6332C12.7384 10.7739 12.8175 10.9647 12.8175 11.1636V15.8235ZM11.9775 9.20355C11.7123 9.20355 11.4579 9.09818 11.2703 8.91065C11.0828 8.72311 10.9775 8.46877 10.9775 8.20355C10.9775 7.93834 11.0828 7.684 11.2703 7.49646C11.4579 7.30892 11.7123 7.20355 11.9775 7.20355C12.2427 7.20355 12.497 7.30892 12.6845 7.49646C12.8721 7.684 12.9775 7.93834 12.9775 8.20355C12.9775 8.46877 12.8721 8.72311 12.6845 8.91065C12.497 9.09818 12.2427 9.20355 11.9775 9.20355Z" fill="black"/>
</svg>
