<svg width="24" height="24" viewBox="0 0 24 24" fill="none" xmlns="http://www.w3.org/2000/svg">
<path d="M19.8768 8.753C19.4468 7.72315 18.8221 6.78605 18.0368 5.99305C16.8458 4.80567 15.3299 3.9973 13.6802 3.66987C12.0306 3.34244 10.321 3.51056 8.76679 4.15303C7.73426 4.57799 6.79618 5.20339 6.00678 5.99305C5.21907 6.78788 4.59409 7.72876 4.16682 8.76301C3.32005 10.8192 3.32005 13.1268 4.16682 15.1831L3.75678 18.1831C3.68694 18.4587 3.68694 18.7474 3.75678 19.023C3.83049 19.2997 3.97135 19.5538 4.16682 19.763C4.3675 19.9683 4.61434 20.1226 4.88679 20.213C5.14982 20.3052 5.43188 20.3293 5.70673 20.283L8.70673 19.833C9.73774 20.2707 10.8467 20.4953 11.9667 20.4931C13.0857 20.4938 14.1937 20.2729 15.2268 19.843C16.2609 19.4181 17.2002 18.7916 17.9899 18.0002C18.7797 17.2087 19.404 16.2681 19.8267 15.233C20.2581 14.2043 20.4759 13.0986 20.4667 11.983C20.4869 10.8779 20.2863 9.77971 19.8768 8.753ZM11.9368 17.213C11.6716 17.213 11.4172 17.1077 11.2297 16.9201C11.0421 16.7326 10.9368 16.4782 10.9368 16.213C10.9368 15.9478 11.0421 15.6935 11.2297 15.5059C11.4172 15.3184 11.6716 15.213 11.9368 15.213C12.2021 15.213 12.4563 15.3184 12.6439 15.5059C12.8314 15.6935 12.9368 15.9478 12.9368 16.213C12.9368 16.4782 12.8314 16.7326 12.6439 16.9201C12.4563 17.1077 12.2021 17.213 11.9368 17.213ZM14.8267 11.033C14.6703 11.3919 14.4424 11.7152 14.1568 11.983C13.8686 12.2501 13.5281 12.4543 13.1568 12.583C13.0275 12.6324 12.9159 12.7195 12.8367 12.833C12.7465 12.9545 12.6974 13.1017 12.6967 13.253V13.783C12.6967 13.9819 12.6178 14.1727 12.4771 14.3134C12.3365 14.454 12.1456 14.533 11.9467 14.533C11.7478 14.533 11.5571 14.454 11.4165 14.3134C11.2758 14.1727 11.1967 13.9819 11.1967 13.783V13.223C11.2042 12.7699 11.3509 12.33 11.6168 11.963C11.866 11.6055 12.2133 11.3277 12.6168 11.163C12.7985 11.1064 12.9657 11.0108 13.1068 10.883C13.2407 10.7626 13.3436 10.6117 13.4068 10.443C13.4824 10.2767 13.5199 10.0957 13.5168 9.91304C13.5081 9.73283 13.4639 9.5561 13.3868 9.39302C13.2698 9.18477 13.1096 9.00407 12.9168 8.86305C12.7159 8.7183 12.4822 8.62552 12.2368 8.59303C11.8689 8.51682 11.486 8.56847 11.1514 8.73939C10.8169 8.91031 10.5507 9.19027 10.3968 9.53303C10.358 9.62626 10.3008 9.71068 10.2286 9.78126C10.1564 9.85184 10.0706 9.9071 9.97651 9.94374C9.88241 9.98038 9.78191 9.99767 9.68098 9.99452C9.58004 9.99136 9.48073 9.96787 9.38911 9.92543C9.29748 9.88298 9.21533 9.82246 9.14765 9.74751C9.07998 9.67256 9.02821 9.58468 8.99531 9.48921C8.96241 9.39374 8.94911 9.29263 8.95625 9.19191C8.96338 9.09118 8.99079 8.99291 9.03681 8.90303C9.33023 8.26293 9.82902 7.73915 10.454 7.41487C11.0791 7.09058 11.7945 6.98438 12.4868 7.11305C12.9559 7.18441 13.4015 7.36602 13.7868 7.64302C14.2003 7.91957 14.5428 8.28956 14.7868 8.72303C14.9596 9.08611 15.0549 9.48111 15.0668 9.88301C15.0679 10.2789 14.986 10.6706 14.8267 11.033Z" fill="black"/>
</svg>
