<svg width="24" height="24" viewBox="0 0 24 24" fill="none" xmlns="http://www.w3.org/2000/svg">
<path d="M19.8902 8.76301C19.4629 7.72876 18.8379 6.78788 18.0502 5.99305C16.8592 4.80567 15.3433 3.9973 13.6936 3.66987C12.044 3.34244 10.3344 3.51056 8.7802 4.15303C7.74605 4.578 6.80674 5.20442 6.01701 5.99586C5.22728 6.7873 4.60295 7.72795 4.18022 8.76301C3.75354 9.7932 3.53598 10.898 3.54021 12.013C3.52918 13.1008 3.74015 14.1795 4.1602 15.1831L3.74016 18.1831C3.67031 18.4587 3.67031 18.7474 3.74016 19.023C3.81191 19.301 3.95334 19.5562 4.15105 19.7644C4.34875 19.9726 4.59623 20.127 4.87016 20.213C5.13657 20.3057 5.42208 20.3297 5.70024 20.283L8.70024 19.833C9.73618 20.2661 10.8473 20.4904 11.9701 20.4931C14.2201 20.4858 16.3762 19.591 17.9701 18.003C18.7578 17.2082 19.3829 16.2673 19.8102 15.233C20.2393 14.2032 20.4602 13.0987 20.4602 11.983C20.4602 10.8674 20.2393 9.76285 19.8102 8.73304L19.8902 8.76301ZM8.45024 13.273C8.20104 13.273 7.95737 13.1991 7.75017 13.0607C7.54296 12.9222 7.38142 12.7254 7.28606 12.4952C7.19069 12.265 7.16578 12.0116 7.2144 11.7672C7.26302 11.5228 7.38303 11.2983 7.55925 11.1221C7.73546 10.9459 7.95997 10.8258 8.20439 10.7772C8.44881 10.7286 8.70218 10.7536 8.93242 10.8489C9.16265 10.9443 9.3594 11.1058 9.49785 11.313C9.6363 11.5202 9.71025 11.7638 9.71025 12.013C9.71025 12.3472 9.5774 12.6677 9.34111 12.904C9.10481 13.1403 8.78441 13.273 8.45024 13.273ZM12.0402 13.273C11.791 13.273 11.5473 13.1991 11.3401 13.0607C11.1329 12.9222 10.9715 12.7254 10.8761 12.4952C10.7808 12.265 10.7557 12.0116 10.8044 11.7672C10.853 11.5228 10.973 11.2983 11.1492 11.1221C11.3254 10.9459 11.5499 10.8258 11.7944 10.7772C12.0388 10.7286 12.2921 10.7536 12.5224 10.8489C12.7526 10.9443 12.9494 11.1058 13.0878 11.313C13.2263 11.5202 13.3002 11.7638 13.3002 12.013C13.3015 12.1788 13.2698 12.3433 13.207 12.4968C13.1441 12.6502 13.0514 12.7897 12.9341 12.9069C12.8169 13.0242 12.6774 13.117 12.524 13.1798C12.3705 13.2427 12.206 13.2744 12.0402 13.273ZM15.6202 13.273C15.371 13.273 15.1274 13.1991 14.9202 13.0607C14.713 12.9222 14.5515 12.7254 14.4561 12.4952C14.3607 12.265 14.3358 12.0116 14.3844 11.7672C14.4331 11.5228 14.5531 11.2983 14.7293 11.1221C14.9055 10.9459 15.13 10.8258 15.3744 10.7772C15.6188 10.7286 15.8721 10.7536 16.1023 10.8489C16.3326 10.9443 16.5294 11.1058 16.6679 11.313C16.8063 11.5202 16.8802 11.7638 16.8802 12.013C16.8802 12.3472 16.7474 12.6677 16.5112 12.904C16.2749 13.1403 15.9543 13.273 15.6202 13.273Z" fill="black"/>
</svg>
