<svg width="24" height="24" viewBox="0 0 24 24" fill="none" xmlns="http://www.w3.org/2000/svg">
<path d="M19.8725 8.76355C19.4463 7.7309 18.8206 6.79239 18.0314 6.00171C17.2422 5.21102 16.305 4.58367 15.2731 4.15552C14.2413 3.72736 13.1352 3.50681 12.018 3.50647C10.9009 3.50613 9.79462 3.72603 8.76252 4.15356C7.72999 4.57852 6.79191 5.20393 6.00251 5.99359C5.20838 6.78317 4.58237 7.72542 4.16242 8.76355C3.31565 10.8198 3.31565 13.1274 4.16242 15.1836L3.75251 18.1836C3.68738 18.4598 3.68738 18.7473 3.75251 19.0236C3.82988 19.3009 3.97402 19.5549 4.17243 19.7635C4.37098 19.9666 4.61414 20.1207 4.88252 20.2136C5.1491 20.3054 5.43428 20.3294 5.71247 20.2836L8.71247 19.8336C9.74347 20.2713 10.8524 20.4958 11.9725 20.4936C13.0914 20.4944 14.1994 20.2734 15.2325 19.8436C16.2666 19.4186 17.2059 18.7922 17.9957 18.0007C18.7854 17.2093 19.4097 16.2686 19.8325 15.2336C20.686 13.151 20.686 10.8162 19.8325 8.73358L19.8725 8.76355ZM15.2825 12.7635H8.72248C8.52357 12.7635 8.33286 12.6845 8.19221 12.5439C8.05156 12.4032 7.97248 12.2125 7.97248 12.0135C7.97248 11.8146 8.05156 11.6239 8.19221 11.4832C8.33286 11.3426 8.52357 11.2636 8.72248 11.2636H15.2625C15.4614 11.2636 15.6521 11.3426 15.7928 11.4832C15.9334 11.6239 16.0125 11.8146 16.0125 12.0135C16.0125 12.2125 15.9334 12.4032 15.7928 12.5439C15.6521 12.6845 15.4614 12.7635 15.2625 12.7635H15.2825Z" fill="black"/>
</svg>
