<svg width="24" height="24" viewBox="0 0 24 24" fill="none" xmlns="http://www.w3.org/2000/svg">
<path d="M21.2509 8.18054C20.7565 6.9631 20.0219 5.85777 19.0909 4.93054C18.1578 4.00411 17.0542 3.26722 15.8409 2.76055C14.0131 2.00351 12.0019 1.80559 10.0616 2.19186C8.12138 2.57813 6.33932 3.53121 4.94087 4.93054C4.00584 5.8565 3.2677 6.96199 2.77086 8.18054C2.2696 9.39175 2.01136 10.6897 2.01085 12.0005C2.00477 13.2939 2.25635 14.5755 2.75087 15.7705L2.25087 19.4206C2.1839 19.7324 2.19446 20.056 2.28163 20.3628C2.36881 20.6697 2.52993 20.9504 2.75087 21.1805C2.971 21.4073 3.24171 21.5786 3.54085 21.6805C3.83735 21.7779 4.15305 21.8019 4.46086 21.7505L8.11086 21.2105C9.33663 21.7362 10.6571 22.0051 11.9909 22.0005C13.6346 22.0003 15.2529 21.5948 16.7027 20.8201C18.1524 20.0453 19.3887 18.9251 20.3023 17.5587C21.2159 16.1922 21.7786 14.6216 21.9406 12.9858C22.1025 11.3501 21.8588 9.69963 21.2309 8.18054H21.2509ZM7.73085 13.6106C7.41242 13.6106 7.10114 13.5161 6.83638 13.3392C6.57162 13.1623 6.36528 12.9109 6.24342 12.6167C6.12157 12.3225 6.08969 11.9988 6.15181 11.6865C6.21393 11.3741 6.36726 11.0873 6.59242 10.8621C6.81759 10.637 7.10445 10.4836 7.41676 10.4215C7.72907 10.3594 8.05278 10.3912 8.34697 10.5131C8.64116 10.6349 8.89263 10.8413 9.06954 11.1061C9.24644 11.3708 9.34087 11.6821 9.34087 12.0005C9.34087 12.212 9.29922 12.4213 9.21831 12.6167C9.1374 12.812 9.01881 12.9895 8.86931 13.139C8.71981 13.2885 8.5423 13.4071 8.34697 13.488C8.15164 13.5689 7.94228 13.6106 7.73085 13.6106ZM12.0108 13.6106C11.6924 13.6106 11.3811 13.5161 11.1164 13.3392C10.8516 13.1623 10.6453 12.9109 10.5234 12.6167C10.4016 12.3225 10.3697 11.9988 10.4318 11.6865C10.4939 11.3741 10.6473 11.0873 10.8724 10.8621C11.0976 10.637 11.3845 10.4836 11.6968 10.4215C12.0091 10.3594 12.3328 10.3912 12.627 10.5131C12.9212 10.6349 13.1726 10.8413 13.3495 11.1061C13.5264 11.3708 13.6209 11.6821 13.6209 12.0005C13.6209 12.4275 13.4512 12.8371 13.1493 13.139C12.8474 13.4409 12.4378 13.6106 12.0108 13.6106ZM16.2908 13.6106C15.9724 13.6106 15.6612 13.5161 15.3964 13.3392C15.1316 13.1623 14.9253 12.9109 14.8034 12.6167C14.6816 12.3225 14.6497 11.9988 14.7118 11.6865C14.7739 11.3741 14.9273 11.0873 15.1524 10.8621C15.3776 10.637 15.6645 10.4836 15.9768 10.4215C16.2891 10.3594 16.6128 10.3912 16.907 10.5131C17.2012 10.6349 17.4526 10.8413 17.6295 11.1061C17.8064 11.3708 17.9009 11.6821 17.9009 12.0005C17.9009 12.4275 17.7312 12.8371 17.4293 13.139C17.1274 13.4409 16.7178 13.6106 16.2908 13.6106Z" fill="black"/>
</svg>
