<svg width="24" height="24" viewBox="0 0 24 24" fill="none" xmlns="http://www.w3.org/2000/svg">
<path d="M16.59 2H7.42004C5.98257 2 4.60397 2.57105 3.58752 3.58749C2.57108 4.60394 2 5.98254 2 7.42001V16.59C2.00265 18.0257 2.5749 19.4018 3.59106 20.416C4.60722 21.4303 5.9843 22 7.42004 22H16.59C18.0248 22 19.4009 21.43 20.4155 20.4154C21.43 19.4009 22 18.0248 22 16.59V7.42001C22 5.98427 21.4304 4.60716 20.4161 3.591C19.4018 2.57484 18.0258 2.00265 16.59 2ZM16.7401 14C16.4854 14.6223 16.1079 15.1869 15.63 15.66C15.1569 16.1379 14.5924 16.5154 13.97 16.77C13.3362 17.0324 12.6561 17.165 11.97 17.16C11.3156 17.1591 10.6674 17.0336 10.06 16.79L8.35004 17.03C8.16328 17.0796 7.96679 17.0796 7.78003 17.03C7.59401 16.9629 7.42623 16.8533 7.29004 16.71C7.1487 16.568 7.04552 16.3926 6.99005 16.2C6.94009 16.0065 6.94009 15.8035 6.99005 15.61L7.21002 13.94C6.97002 13.3462 6.85105 12.7104 6.86005 12.07C6.84366 11.0539 7.1373 10.0569 7.70184 9.21182C8.26639 8.36679 9.07502 7.71385 10.02 7.34C10.6414 7.07832 11.3084 6.94246 11.9827 6.94025C12.6569 6.93804 13.3249 7.06955 13.9479 7.32715C14.571 7.58475 15.1369 7.96331 15.6127 8.44098C16.0885 8.91865 16.4649 9.48595 16.72 10.11C17.2395 11.3685 17.2395 12.7815 16.72 14.04L16.7401 14Z" fill="black"/>
</svg>
