<svg width="24" height="24" viewBox="0 0 24 24" fill="none" xmlns="http://www.w3.org/2000/svg">
<path d="M19.98 4.73507C19.5726 4.32162 19.0868 3.99364 18.5511 3.77041C18.0153 3.54718 17.4404 3.43319 16.86 3.43508H7.10004C6.51972 3.43375 5.94492 3.548 5.40924 3.7712C4.87356 3.9944 4.38766 4.32207 3.97998 4.73507C3.155 5.56402 2.69131 6.68556 2.69 7.85506V13.955C2.69455 15.1239 3.15775 16.2443 3.97998 17.0751C4.38949 17.4849 4.87596 17.8098 5.41138 18.0312C5.94679 18.2526 6.52066 18.3661 7.10004 18.3651H9.22998L11.01 20.1351C11.1318 20.2699 11.2821 20.3758 11.45 20.4451C11.6156 20.5238 11.7966 20.5648 11.98 20.5651C12.1623 20.5654 12.3428 20.5279 12.51 20.455C12.6712 20.3834 12.8172 20.2816 12.94 20.1551L14.73 18.3651H16.86C17.4401 18.3635 18.0144 18.248 18.55 18.025C19.0899 17.7927 19.5765 17.4524 19.98 17.025C20.4037 16.6146 20.7434 16.1255 20.98 15.585C21.1994 15.0522 21.3116 14.4813 21.31 13.9051V7.80508C21.285 6.64724 20.8076 5.54522 19.98 4.73507ZM7.71002 12.1351C7.44104 12.1351 7.17806 12.0553 6.95441 11.9058C6.73076 11.7564 6.55649 11.544 6.45355 11.2955C6.35062 11.047 6.32368 10.7735 6.37616 10.5097C6.42864 10.2459 6.55815 10.0036 6.74835 9.81338C6.93855 9.62318 7.18089 9.49366 7.4447 9.44118C7.70852 9.38871 7.98196 9.41564 8.23047 9.51858C8.47898 9.62151 8.69138 9.79584 8.84082 10.0195C8.99026 10.2431 9.07001 10.5061 9.07001 10.775C9.07001 11.1357 8.92674 11.4817 8.67169 11.7367C8.41664 11.9918 8.07072 12.1351 7.71002 12.1351ZM11.98 12.1351C11.711 12.1351 11.4481 12.0553 11.2244 11.9058C11.0008 11.7564 10.8264 11.544 10.7235 11.2955C10.6206 11.047 10.5936 10.7735 10.6461 10.5097C10.6986 10.2459 10.8282 10.0036 11.0184 9.81338C11.2086 9.62318 11.4508 9.49366 11.7147 9.44118C11.9785 9.38871 12.2519 9.41564 12.5004 9.51858C12.7489 9.62151 12.9613 9.79584 13.1108 10.0195C13.2602 10.2431 13.34 10.5061 13.34 10.775C13.34 11.1357 13.1967 11.4817 12.9417 11.7367C12.6866 11.9918 12.3407 12.1351 11.98 12.1351ZM16.25 12.1351C15.981 12.1351 15.7181 12.0553 15.4944 11.9058C15.2708 11.7564 15.0965 11.544 14.9935 11.2955C14.8906 11.047 14.8637 10.7735 14.9161 10.5097C14.9686 10.2459 15.0981 10.0036 15.2883 9.81338C15.4785 9.62318 15.7209 9.49366 15.9847 9.44118C16.2485 9.38871 16.5219 9.41564 16.7704 9.51858C17.019 9.62151 17.2314 9.79584 17.3808 10.0195C17.5302 10.2431 17.61 10.5061 17.61 10.775C17.61 11.1357 17.4667 11.4817 17.2117 11.7367C16.9566 11.9918 16.6107 12.1351 16.25 12.1351Z" fill="black"/>
</svg>
