<svg width="24" height="24" viewBox="0 0 24 24" fill="none" xmlns="http://www.w3.org/2000/svg">
<path d="M19.8851 8.75812C19.2403 7.20447 18.1496 5.87676 16.7507 4.94269C15.3517 4.00862 13.7072 3.51013 12.0251 3.51013C10.3429 3.51013 8.69857 4.00862 7.2996 4.94269C5.90064 5.87676 4.80986 7.20447 4.16508 8.75812C3.73917 9.78854 3.52163 10.8931 3.52507 12.0081C3.51405 13.0959 3.72501 14.1746 4.14506 15.1782L3.73515 18.1782C3.66489 18.4538 3.66489 18.7425 3.73515 19.0181C3.80691 19.2961 3.94821 19.5513 4.14592 19.7595C4.34363 19.9677 4.59123 20.1221 4.86516 20.2081C5.13165 20.3003 5.41694 20.3244 5.69511 20.2781L8.69511 19.8281C9.72578 20.2669 10.8349 20.4915 11.9551 20.4882C13.0794 20.5116 14.1953 20.2898 15.2251 19.8381C16.2594 19.4114 17.1991 18.7844 17.9903 17.9933C18.7814 17.2021 19.4084 16.2624 19.8351 15.2281C20.257 14.1965 20.4744 13.0927 20.4751 11.9781C20.4842 10.8771 20.2839 9.78438 19.8851 8.75812ZM15.0451 12.5381H12.5151V15.0482C12.5151 15.2471 12.4361 15.4378 12.2955 15.5785C12.1548 15.7191 11.964 15.7982 11.7651 15.7982C11.5661 15.7982 11.3754 15.7191 11.2348 15.5785C11.0941 15.4378 11.0151 15.2471 11.0151 15.0482V12.5381H8.50505C8.30614 12.5381 8.11543 12.4591 7.97478 12.3185C7.83412 12.1778 7.75505 11.9871 7.75505 11.7881C7.75505 11.5892 7.83412 11.3985 7.97478 11.2578C8.11543 11.1172 8.30614 11.0381 8.50505 11.0381H11.0651V8.50812C11.0651 8.30921 11.1442 8.1185 11.2848 7.97784C11.4255 7.83719 11.6162 7.75812 11.8151 7.75812C12.014 7.75812 12.2047 7.83719 12.3454 7.97784C12.486 8.1185 12.5651 8.30921 12.5651 8.50812V11.0381H15.0651C15.264 11.0381 15.4547 11.1172 15.5954 11.2578C15.736 11.3985 15.8151 11.5892 15.8151 11.7881C15.8151 11.9871 15.736 12.1778 15.5954 12.3185C15.4547 12.4591 15.264 12.5381 15.0651 12.5381H15.0451Z" fill="black"/>
</svg>
