<svg width="24" height="24" viewBox="0 0 24 24" fill="none" xmlns="http://www.w3.org/2000/svg">
<path d="M16.2451 6.06689V11.4269C16.1123 12.4589 15.6081 13.4072 14.8268 14.0944C14.0455 14.7816 13.0406 15.1606 12.0001 15.1606C10.9595 15.1606 9.95464 14.7816 9.17334 14.0944C8.39204 13.4072 7.88786 12.4589 7.75507 11.4269V6.06689C7.88786 5.03488 8.39204 4.08662 9.17334 3.39941C9.95464 2.71221 10.9595 2.33313 12.0001 2.33313C13.0406 2.33313 14.0455 2.71221 14.8268 3.39941C15.6081 4.08662 16.1123 5.03488 16.2451 6.06689Z" fill="black"/>
<path d="M12.695 17.8169V20.1669H15.445C15.6439 20.1669 15.8347 20.2459 15.9753 20.3865C16.116 20.5272 16.195 20.718 16.195 20.9169C16.195 21.1158 16.116 21.3066 15.9753 21.4472C15.8347 21.5879 15.6439 21.6669 15.445 21.6669H8.44501C8.24609 21.6669 8.05533 21.5879 7.91467 21.4472C7.77402 21.3066 7.69501 21.1158 7.69501 20.9169C7.69501 20.718 7.77402 20.5272 7.91467 20.3865C8.05533 20.2459 8.24609 20.1669 8.44501 20.1669H11.245V17.8169C9.48488 17.6293 7.85638 16.7972 6.67297 15.4809C5.48956 14.1646 4.83493 12.457 4.83502 10.6869C4.83502 10.488 4.91404 10.2972 5.05469 10.1566C5.19534 10.0159 5.38611 9.93689 5.58502 9.93689C5.78393 9.93689 5.97464 10.0159 6.1153 10.1566C6.25595 10.2972 6.33502 10.488 6.33502 10.6869C6.30292 11.4509 6.42564 12.2134 6.69586 12.9287C6.96608 13.644 7.3782 14.2973 7.90741 14.8492C8.43662 15.4011 9.07195 15.8402 9.77527 16.1403C10.4786 16.4403 11.2354 16.595 12 16.595C12.7646 16.595 13.5213 16.4403 14.2247 16.1403C14.928 15.8402 15.5634 15.4011 16.0926 14.8492C16.6218 14.2973 17.0339 13.644 17.3041 12.9287C17.5744 12.2134 17.6971 11.4509 17.665 10.6869C17.665 10.488 17.744 10.2972 17.8846 10.1566C18.0253 10.0159 18.2161 9.93689 18.415 9.93689C18.6139 9.93689 18.8047 10.0159 18.9453 10.1566C19.086 10.2972 19.165 10.488 19.165 10.6869C19.1648 12.4585 18.5088 14.1674 17.3233 15.4839C16.1378 16.8005 14.5069 17.6316 12.745 17.8169H12.695Z" fill="black"/>
</svg>
