<svg width="24" height="24" viewBox="0 0 24 24" fill="none" xmlns="http://www.w3.org/2000/svg">
<path d="M11.1453 13.5943V18.5343C11.1453 18.7332 11.0663 18.924 10.9257 19.0646C10.785 19.2053 10.5942 19.2843 10.3953 19.2843C10.1964 19.2843 10.0057 19.2053 9.86505 19.0646C9.7244 18.924 9.64532 18.7332 9.64532 18.5343V15.4043L4.57538 20.4743C4.43486 20.615 4.24419 20.6942 4.04535 20.6943C3.84735 20.69 3.65823 20.6115 3.51538 20.4743C3.37493 20.3337 3.29602 20.1431 3.29602 19.9443C3.29602 19.7456 3.37493 19.5549 3.51538 19.4143L8.58533 14.3443H5.45532C5.25641 14.3443 5.0657 14.2653 4.92505 14.1246C4.7844 13.984 4.70532 13.7932 4.70532 13.5943C4.70532 13.3954 4.7844 13.2046 4.92505 13.064C5.0657 12.9233 5.25641 12.8443 5.45532 12.8443H10.3953C10.4951 12.844 10.5939 12.8644 10.6854 12.9043C10.8664 12.9794 11.0102 13.1233 11.0853 13.3043C11.1252 13.3958 11.1456 13.4945 11.1453 13.5943Z" fill="black"/>
<path d="M20.4454 4.6043L15.3754 9.67431H18.5054C18.7043 9.67431 18.8951 9.75332 19.0357 9.89398C19.1764 10.0346 19.2554 10.2254 19.2554 10.4243C19.2554 10.6232 19.1764 10.814 19.0357 10.9546C18.8951 11.0953 18.7043 11.1743 18.5054 11.1743H13.5654C13.4656 11.1746 13.3668 11.1542 13.2753 11.1143C13.184 11.0803 13.1019 11.0255 13.0353 10.9543C12.9326 10.8502 12.863 10.718 12.8353 10.5743C12.8304 10.5245 12.8304 10.4742 12.8353 10.4243V5.48431C12.8353 5.2854 12.9143 5.09463 13.055 4.95397C13.1956 4.81332 13.3864 4.73431 13.5853 4.73431C13.7842 4.73431 13.975 4.81332 14.1157 4.95397C14.2563 5.09463 14.3353 5.2854 14.3353 5.48431V8.61431L19.4053 3.54431C19.474 3.47062 19.5568 3.41153 19.6488 3.37054C19.7408 3.32955 19.8402 3.3075 19.9409 3.30572C20.0416 3.30394 20.1415 3.32244 20.2349 3.36016C20.3283 3.39788 20.4132 3.45404 20.4844 3.52526C20.5556 3.59648 20.6118 3.68133 20.6495 3.77471C20.6872 3.8681 20.7057 3.96814 20.7039 4.06884C20.7021 4.16955 20.6802 4.26884 20.6392 4.36083C20.5982 4.45283 20.539 4.53564 20.4653 4.6043H20.4454Z" fill="black"/>
</svg>
