<svg width="24" height="24" viewBox="0 0 24 24" fill="none" xmlns="http://www.w3.org/2000/svg">
<path d="M16.58 2H7.42001C5.98254 2 4.60394 2.57105 3.58749 3.58749C2.57105 4.60394 1.99997 5.98254 1.99997 7.42001V16.59C2.00262 18.0257 2.57487 19.4018 3.59103 20.416C4.60719 21.4303 5.98427 22 7.42001 22H16.58C18.0157 22 19.3928 21.4303 20.409 20.416C21.4251 19.4018 21.9974 18.0257 22 16.59V7.42001C22 5.98254 21.429 4.60394 20.4125 3.58749C19.3961 2.57105 18.0175 2 16.58 2ZM16.88 13H7.11996C6.85475 13 6.60041 12.8947 6.41287 12.7071C6.22534 12.5196 6.11996 12.2652 6.11996 12C6.11996 11.7348 6.22534 11.4804 6.41287 11.2929C6.60041 11.1054 6.85475 11 7.11996 11H16.88C17.1453 11 17.3995 11.1054 17.5871 11.2929C17.7746 11.4804 17.88 11.7348 17.88 12C17.88 12.2652 17.7746 12.5196 17.5871 12.7071C17.3995 12.8947 17.1453 13 16.88 13Z" fill="black"/>
</svg>
