<svg width="24" height="24" viewBox="0 0 24 24" fill="none" xmlns="http://www.w3.org/2000/svg">
<path d="M12 2.25C10.0716 2.25 8.18648 2.82178 6.58311 3.89313C4.97973 4.96447 3.73012 6.48722 2.99216 8.2688C2.25421 10.0504 2.06115 12.0108 2.43735 13.9021C2.81356 15.7934 3.74213 17.5307 5.10569 18.8943C6.46925 20.2578 8.20656 21.1864 10.0979 21.5626C11.9892 21.9388 13.9496 21.7458 15.7312 21.0078C17.5128 20.2699 19.0354 19.0202 20.1068 17.4168C21.1781 15.8134 21.75 13.9284 21.75 12C21.7473 9.41495 20.7192 6.93649 18.8913 5.10858C17.0634 3.28068 14.585 2.25265 12 2.25ZM16.75 12.75H7.22996C7.03104 12.75 6.84033 12.671 6.69968 12.5303C6.55903 12.3897 6.47996 12.1989 6.47996 12C6.47996 11.8011 6.55903 11.6103 6.69968 11.4697C6.84033 11.329 7.03104 11.25 7.22996 11.25H16.73C16.9289 11.25 17.1196 11.329 17.2602 11.4697C17.4009 11.6103 17.48 11.8011 17.48 12C17.48 12.1989 17.4009 12.3897 17.2602 12.5303C17.1196 12.671 16.9289 12.75 16.73 12.75H16.75Z" fill="black"/>
</svg>
