<svg width="24" height="24" viewBox="0 0 24 24" fill="none" xmlns="http://www.w3.org/2000/svg">
<path d="M16.46 2.25H7.53992C6.13692 2.25 4.79138 2.80731 3.79932 3.79938C2.80725 4.79144 2.25 6.13698 2.25 7.53998V16.46C2.25264 17.8621 2.81075 19.2061 3.80225 20.1976C4.79374 21.1891 6.13773 21.7474 7.53992 21.75H16.46C17.8621 21.7474 19.2061 21.1891 20.1976 20.1976C21.1891 19.2061 21.7474 17.8621 21.75 16.46V7.53998C21.7474 6.13779 21.1891 4.7938 20.1976 3.80231C19.2061 2.81081 17.8621 2.25264 16.46 2.25ZM16.75 12.75H7.20996C7.01105 12.75 6.82034 12.671 6.67969 12.5303C6.53904 12.3897 6.45996 12.1989 6.45996 12C6.45996 11.8011 6.53904 11.6103 6.67969 11.4697C6.82034 11.329 7.01105 11.25 7.20996 11.25H16.71C16.9089 11.25 17.0996 11.329 17.2402 11.4697C17.3809 11.6103 17.46 11.8011 17.46 12C17.46 12.1989 17.3809 12.3897 17.2402 12.5303C17.0996 12.671 16.9089 12.75 16.71 12.75H16.75Z" fill="black"/>
</svg>
