<svg width="24" height="24" viewBox="0 0 24 24" fill="none" xmlns="http://www.w3.org/2000/svg">
<path d="M16.165 2H7.81499C7.12981 2.00792 6.47571 2.28703 5.9959 2.77621C5.51608 3.2654 5.24959 3.92481 5.25493 4.61002V19.39C5.24959 20.0752 5.51608 20.7346 5.9959 21.2238C6.47571 21.713 7.12981 21.9921 7.81499 22H16.185C16.8702 21.9921 17.5243 21.713 18.0041 21.2238C18.4839 20.7346 18.7504 20.0752 18.745 19.39V4.61002C18.7477 4.26905 18.683 3.93091 18.5546 3.61502C18.4263 3.29913 18.2367 3.01169 17.997 2.7692C17.7573 2.5267 17.4721 2.33393 17.1578 2.20193C16.8434 2.06994 16.5059 2.00131 16.165 2ZM11.985 19.77C11.6836 19.772 11.3883 19.6843 11.1368 19.518C10.8853 19.3517 10.689 19.1145 10.5727 18.8363C10.4564 18.5582 10.4254 18.2517 10.4837 17.9559C10.542 17.6602 10.687 17.3884 10.9002 17.1752C11.1134 16.9621 11.3852 16.8171 11.681 16.7588C11.9767 16.7004 12.2832 16.7314 12.5613 16.8477C12.8395 16.9639 13.0767 17.1603 13.243 17.4118C13.4092 17.6633 13.497 17.9585 13.495 18.26C13.4924 18.6597 13.3325 19.0422 13.0499 19.3248C12.7672 19.6074 12.3847 19.7674 11.985 19.77ZM13.985 6.26999H9.98503C9.71982 6.26999 9.46542 6.16465 9.27788 5.97711C9.09034 5.78958 8.98503 5.53521 8.98503 5.26999C8.98503 5.00477 9.09034 4.75043 9.27788 4.5629C9.46542 4.37536 9.71982 4.26999 9.98503 4.26999H13.985C14.2502 4.26999 14.5045 4.37536 14.6921 4.5629C14.8796 4.75043 14.985 5.00477 14.985 5.26999C14.985 5.53521 14.8796 5.78958 14.6921 5.97711C14.5045 6.16465 14.2502 6.26999 13.985 6.26999Z" fill="black"/>
</svg>
