<svg width="24" height="24" viewBox="0 0 24 24" fill="none" xmlns="http://www.w3.org/2000/svg">
<path d="M15.8094 2.83997H8.1993C7.8815 2.84258 7.56735 2.90776 7.27474 3.0318C6.98213 3.15584 6.71684 3.33629 6.49398 3.56287C6.27112 3.78944 6.0951 4.05774 5.97591 4.35236C5.85673 4.64697 5.79676 4.96217 5.7994 5.27997V18.72C5.79676 19.0378 5.85673 19.353 5.97591 19.6476C6.0951 19.9422 6.27112 20.2104 6.49398 20.437C6.71684 20.6636 6.98213 20.8441 7.27474 20.9681C7.56735 21.0922 7.8815 21.1574 8.1993 21.16H15.8094C16.1267 21.1574 16.4405 21.0921 16.7325 20.968C17.0246 20.8438 17.2891 20.6632 17.5112 20.4365C17.7333 20.2098 17.9084 19.9414 18.0265 19.6469C18.1445 19.3523 18.2033 19.0373 18.1993 18.72V5.32996C18.21 5.00848 18.1563 4.68812 18.0412 4.38776C17.9262 4.08739 17.7521 3.81311 17.5294 3.58105C17.3066 3.349 17.0397 3.16383 16.7443 3.03656C16.4489 2.90929 16.1311 2.84246 15.8094 2.83997ZM12.0094 18.91C11.7685 18.908 11.5336 18.8348 11.3343 18.6995C11.135 18.5643 10.9802 18.3731 10.8894 18.15C10.7986 17.9269 10.7759 17.6819 10.8241 17.4459C10.8723 17.2099 10.9892 16.9934 11.1602 16.8238C11.3313 16.6542 11.5486 16.539 11.785 16.4927C12.0214 16.4465 12.2661 16.4712 12.4885 16.5638C12.7108 16.6564 12.9008 16.8128 13.0344 17.0132C13.168 17.2136 13.2393 17.4491 13.2393 17.6899C13.2393 17.851 13.2075 18.0105 13.1456 18.1592C13.0837 18.3079 12.9929 18.4427 12.8785 18.5562C12.7642 18.6696 12.6285 18.7592 12.4793 18.8199C12.3302 18.8807 12.1704 18.9113 12.0094 18.91ZM13.8293 6.62994H10.1993C10.0004 6.62994 9.80968 6.55093 9.66903 6.41028C9.52838 6.26963 9.4493 6.07886 9.4493 5.87994C9.4493 5.68103 9.52838 5.49026 9.66903 5.34961C9.80968 5.20896 10.0004 5.12994 10.1993 5.12994H13.8293C14.0282 5.12994 14.219 5.20896 14.3597 5.34961C14.5004 5.49026 14.5793 5.68103 14.5793 5.87994C14.5793 6.07886 14.5004 6.26963 14.3597 6.41028C14.219 6.55093 14.0282 6.62994 13.8293 6.62994Z" fill="black"/>
</svg>
