<svg width="24" height="24" viewBox="0 0 24 24" fill="none" xmlns="http://www.w3.org/2000/svg">
<path d="M16 12C16 11.7033 16.088 11.4133 16.2528 11.1666C16.4176 10.92 16.6519 10.7277 16.926 10.6142C17.2 10.5007 17.5016 10.4709 17.7926 10.5288C18.0836 10.5867 18.3509 10.7296 18.5607 10.9393C18.7704 11.1491 18.9133 11.4164 18.9712 11.7073C19.0291 11.9983 18.9993 12.3 18.8858 12.574C18.7723 12.8481 18.58 13.0824 18.3334 13.2472C18.0867 13.412 17.7967 13.5 17.5 13.5C17.1022 13.5 16.7206 13.342 16.4393 13.0607C16.158 12.7794 16 12.3978 16 12Z" fill="black"/>
<path d="M10.5 12C10.5 11.7033 10.588 11.4133 10.7528 11.1666C10.9176 10.92 11.1519 10.7277 11.426 10.6142C11.7 10.5007 12.0016 10.4709 12.2926 10.5288C12.5836 10.5867 12.8509 10.7296 13.0607 10.9393C13.2704 11.1491 13.4133 11.4164 13.4712 11.7073C13.5291 11.9983 13.4993 12.3 13.3858 12.574C13.2723 12.8481 13.08 13.0824 12.8334 13.2472C12.5867 13.412 12.2967 13.5 12 13.5C11.6022 13.5 11.2206 13.342 10.9393 13.0607C10.658 12.7794 10.5 12.3978 10.5 12Z" fill="black"/>
<path d="M4.99999 12C4.99999 11.7033 5.08798 11.4133 5.2528 11.1666C5.41762 10.92 5.65187 10.7277 5.92596 10.6142C6.20005 10.5007 6.50162 10.4709 6.7926 10.5288C7.08357 10.5867 7.35088 10.7296 7.56066 10.9393C7.77044 11.1491 7.91331 11.4164 7.97118 11.7073C8.02906 11.9983 7.99933 12.3 7.8858 12.574C7.77227 12.8481 7.58004 13.0824 7.33337 13.2472C7.08669 13.412 6.79667 13.5 6.49999 13.5C6.10217 13.5 5.72063 13.342 5.43932 13.0607C5.15802 12.7794 4.99999 12.3978 4.99999 12Z" fill="black"/>
</svg>
