<svg width="24" height="24" viewBox="0 0 24 24" fill="none" xmlns="http://www.w3.org/2000/svg">
<path d="M12 2.25C10.0716 2.25 8.18648 2.82178 6.58311 3.89313C4.97973 4.96447 3.73012 6.48722 2.99216 8.2688C2.25421 10.0504 2.06115 12.0108 2.43735 13.9021C2.81356 15.7934 3.74213 17.5307 5.10569 18.8943C6.46925 20.2578 8.20656 21.1864 10.0979 21.5626C11.9892 21.9388 13.9496 21.7458 15.7312 21.0078C17.5128 20.2699 19.0354 19.0202 20.1068 17.4168C21.1781 15.8134 21.75 13.9284 21.75 12C21.7473 9.41495 20.7192 6.93649 18.8913 5.10858C17.0634 3.28068 14.585 2.25265 12 2.25ZM12 18.06C11.7251 18.06 11.4563 17.9785 11.2278 17.8257C10.9992 17.673 10.821 17.4559 10.7158 17.2019C10.6106 16.9479 10.5831 16.6684 10.6367 16.3988C10.6903 16.1292 10.8227 15.8815 11.0171 15.6871C11.2115 15.4927 11.4591 15.3603 11.7287 15.3067C11.9984 15.2531 12.2778 15.2806 12.5318 15.3858C12.7858 15.491 13.003 15.6691 13.1557 15.8977C13.3085 16.1263 13.39 16.3951 13.39 16.67C13.3847 17.0352 13.2359 17.3836 12.9758 17.64C12.7157 17.8963 12.3652 18.04 12 18.04V18.06ZM12 13.38C11.7246 13.38 11.4555 13.2982 11.2267 13.145C10.9979 12.9918 10.8197 12.7742 10.7148 12.5196C10.6099 12.265 10.583 11.985 10.6374 11.7151C10.6919 11.4452 10.8253 11.1975 11.0207 11.0035C11.2161 10.8095 11.4647 10.678 11.735 10.6255C12.0052 10.573 12.2851 10.6019 12.5389 10.7087C12.7927 10.8154 13.0091 10.9951 13.1606 11.225C13.3121 11.4549 13.392 11.7247 13.39 12C13.3874 12.3669 13.2397 12.7179 12.9793 12.9764C12.719 13.2349 12.3669 13.38 12 13.38ZM12 8.70996C11.7251 8.70996 11.4563 8.62844 11.2278 8.47571C10.9992 8.32297 10.821 8.10592 10.7158 7.85193C10.6106 7.59794 10.5831 7.31846 10.6367 7.04883C10.6903 6.77919 10.8227 6.53149 11.0171 6.3371C11.2115 6.1427 11.4591 6.0103 11.7287 5.95667C11.9984 5.90303 12.2778 5.93056 12.5318 6.03577C12.7858 6.14097 13.003 6.31915 13.1557 6.54773C13.3085 6.77631 13.39 7.04509 13.39 7.32001C13.3874 7.68785 13.2401 8.03988 12.98 8.29999C12.7198 8.5601 12.3678 8.70734 12 8.70996Z" fill="black"/>
</svg>
