<svg width="24" height="24" viewBox="0 0 24 24" fill="none" xmlns="http://www.w3.org/2000/svg">
<path d="M16.46 2.25H7.53992C6.13773 2.25264 4.79374 2.81081 3.80225 3.80231C2.81075 4.7938 2.25264 6.13779 2.25 7.53998V16.46C2.25264 17.8621 2.81075 19.2061 3.80225 20.1976C4.79374 21.1891 6.13773 21.7474 7.53992 21.75H16.46C17.8621 21.7474 19.2061 21.1891 20.1976 20.1976C21.1891 19.2061 21.7474 17.8621 21.75 16.46V7.53998C21.75 6.13698 21.1926 4.79144 20.2006 3.79938C19.2085 2.80731 17.863 2.25 16.46 2.25ZM12 18.04C11.7251 18.04 11.4564 17.9585 11.2278 17.8057C10.9992 17.653 10.821 17.4359 10.7158 17.1819C10.6106 16.9279 10.5831 16.6484 10.6367 16.3788C10.6904 16.1092 10.8227 15.8615 11.0171 15.6671C11.2115 15.4727 11.4591 15.3403 11.7288 15.2867C11.9984 15.233 12.2779 15.2606 12.5319 15.3658C12.7858 15.471 13.003 15.6492 13.1558 15.8777C13.3085 16.1063 13.39 16.375 13.39 16.65C13.3913 16.8329 13.3562 17.0142 13.2869 17.1835C13.2175 17.3527 13.1152 17.5065 12.9858 17.6358C12.8565 17.7651 12.7027 17.8675 12.5334 17.9369C12.3642 18.0063 12.1829 18.0413 12 18.04ZM12 13.36C11.7247 13.36 11.4555 13.2782 11.2267 13.125C10.9979 12.9718 10.8197 12.7541 10.7148 12.4996C10.6099 12.245 10.583 11.965 10.6375 11.6951C10.6919 11.4252 10.8252 11.1776 11.0206 10.9836C11.216 10.7896 11.4647 10.658 11.735 10.6055C12.0053 10.553 12.285 10.5819 12.5388 10.6887C12.7926 10.7954 13.0091 10.9751 13.1606 11.205C13.3122 11.4349 13.392 11.7046 13.39 11.98C13.3927 12.1637 13.3586 12.3461 13.2898 12.5165C13.221 12.6869 13.1189 12.8419 12.9894 12.9723C12.8599 13.1027 12.7057 13.2059 12.5358 13.2759C12.3659 13.3459 12.1838 13.3814 12 13.38V13.36ZM12 8.69C11.7251 8.69 11.4564 8.60848 11.2278 8.45575C10.9992 8.30301 10.821 8.0859 10.7158 7.83191C10.6106 7.57792 10.5831 7.29844 10.6367 7.02881C10.6904 6.75917 10.8227 6.51147 11.0171 6.31708C11.2115 6.12268 11.4591 5.99034 11.7288 5.93671C11.9984 5.88307 12.2779 5.9106 12.5319 6.01581C12.7858 6.12101 13.003 6.29913 13.1558 6.52771C13.3085 6.75629 13.39 7.02507 13.39 7.29999C13.3927 7.4842 13.3586 7.66712 13.2899 7.83807C13.2213 8.00903 13.1193 8.16464 12.99 8.29584C12.8607 8.42704 12.7065 8.53119 12.5365 8.60229C12.3665 8.6734 12.1842 8.70998 12 8.70996V8.69Z" fill="black"/>
</svg>
