<svg width="24" height="24" viewBox="0 0 24 24" fill="none" xmlns="http://www.w3.org/2000/svg">
<path d="M12.04 8.00001C11.7434 8.00001 11.4533 7.91202 11.2067 7.7472C10.96 7.58238 10.7678 7.34813 10.6542 7.07404C10.5407 6.79995 10.511 6.49838 10.5689 6.2074C10.6267 5.91643 10.7696 5.64912 10.9794 5.43934C11.1892 5.22956 11.4564 5.08669 11.7474 5.02882C12.0384 4.97094 12.34 5.00067 12.6141 5.1142C12.8882 5.22773 13.1224 5.41996 13.2872 5.66663C13.4521 5.91331 13.54 6.20333 13.54 6.50001C13.54 6.89783 13.382 7.27937 13.1007 7.56068C12.8194 7.84198 12.4379 8.00001 12.04 8.00001Z" fill="black"/>
<path d="M12.04 13.5C11.7434 13.5 11.4533 13.412 11.2067 13.2472C10.96 13.0824 10.7678 12.8481 10.6542 12.574C10.5407 12.3 10.511 11.9984 10.5689 11.7074C10.6267 11.4164 10.7696 11.1491 10.9794 10.9393C11.1892 10.7296 11.4564 10.5867 11.7474 10.5288C12.0384 10.4709 12.34 10.5007 12.6141 10.6142C12.8882 10.7277 13.1224 10.92 13.2872 11.1666C13.4521 11.4133 13.54 11.7033 13.54 12C13.54 12.3978 13.382 12.7794 13.1007 13.0607C12.8194 13.342 12.4379 13.5 12.04 13.5Z" fill="black"/>
<path d="M12.04 19C11.7434 19 11.4533 18.912 11.2067 18.7472C10.96 18.5824 10.7678 18.3481 10.6542 18.074C10.5407 17.8 10.511 17.4984 10.5689 17.2074C10.6267 16.9164 10.7696 16.6491 10.9794 16.4393C11.1892 16.2296 11.4564 16.0867 11.7474 16.0288C12.0384 15.9709 12.34 16.0007 12.6141 16.1142C12.8882 16.2277 13.1224 16.42 13.2872 16.6666C13.4521 16.9133 13.54 17.2033 13.54 17.5C13.54 17.8978 13.382 18.2794 13.1007 18.5607C12.8194 18.842 12.4379 19 12.04 19Z" fill="black"/>
</svg>
