<svg width="24" height="24" viewBox="0 0 24 24" fill="none" xmlns="http://www.w3.org/2000/svg">
<path d="M10.8285 2.16382V9.23479H5.19287V8.85484C5.19629 7.25512 5.76301 5.7077 6.79357 4.48416C7.82413 3.26061 9.25264 2.43912 10.8285 2.16382Z" fill="black"/>
<path d="M18.8071 8.85496V9.23491H13.1715V2.16394C14.7474 2.43924 16.1759 3.26073 17.2064 4.48428C18.237 5.70782 18.8037 7.25524 18.8071 8.85496Z" fill="black"/>
<path d="M18.8071 11.599V15.0395C18.8071 16.8421 18.0911 18.5708 16.8165 19.8454C15.5419 21.12 13.8132 21.8361 12.0106 21.8361C10.2081 21.8361 8.47926 21.12 7.20465 19.8454C5.93005 18.5708 5.21399 16.8421 5.21399 15.0395V11.599H18.8071Z" fill="black"/>
</svg>
