<svg width="24" height="24" viewBox="0 0 24 24" fill="none" xmlns="http://www.w3.org/2000/svg">
<path d="M16.58 2H7.40991C5.97417 2.00265 4.59815 2.57484 3.58386 3.591C2.56958 4.60716 2 5.98427 2 7.42001V16.59C2.00264 18.024 2.5734 19.3985 3.5874 20.4125C4.6014 21.4265 5.9759 21.9974 7.40991 22H16.58C18.0157 22 19.3928 21.4303 20.4089 20.416C21.4251 19.4018 21.9974 18.0257 22 16.59V7.42001C22 6.70825 21.8598 6.00344 21.5874 5.34586C21.315 4.68827 20.9158 4.09079 20.4125 3.58749C19.9092 3.0842 19.3116 2.68495 18.6541 2.41257C17.9965 2.14019 17.2917 2 16.58 2ZM16.58 15.15C16.7669 15.3383 16.8714 15.5932 16.8705 15.8586C16.8695 16.1239 16.7633 16.378 16.575 16.565C16.3866 16.752 16.1318 16.8565 15.8665 16.8556C15.6011 16.8546 15.3469 16.7483 15.1599 16.56L12.02 13.41L8.87 16.56C8.77738 16.6545 8.66692 16.7297 8.54504 16.7812C8.42317 16.8327 8.29222 16.8595 8.15991 16.86C7.96214 16.8592 7.76909 16.7997 7.6051 16.6891C7.44112 16.5786 7.31357 16.4219 7.23865 16.2389C7.16372 16.0558 7.14482 15.8547 7.1842 15.6609C7.22359 15.467 7.31954 15.2893 7.45996 15.15L10.61 12L7.45996 8.85001C7.27371 8.66264 7.16919 8.40917 7.16919 8.14499C7.16919 7.8808 7.27371 7.62737 7.45996 7.44C7.64732 7.25375 7.90073 7.1492 8.16492 7.1492C8.4291 7.1492 8.68263 7.25375 8.87 7.44L12.02 10.59L15.1599 7.44C15.2529 7.34627 15.3635 7.27187 15.4854 7.2211C15.6072 7.17033 15.738 7.1442 15.87 7.1442C16.002 7.1442 16.1327 7.17033 16.2545 7.2211C16.3764 7.27187 16.487 7.34627 16.58 7.44C16.7662 7.62737 16.8707 7.8808 16.8707 8.14499C16.8707 8.40917 16.7662 8.66264 16.58 8.85001L13.4299 12L16.58 15.15Z" fill="black"/>
</svg>
