<svg width="24" height="24" viewBox="0 0 24 24" fill="none" xmlns="http://www.w3.org/2000/svg">
<path d="M20.5694 3.42004C20.1187 2.96717 19.5825 2.60846 18.9919 2.36468C18.4014 2.1209 17.7683 1.99695 17.1294 2.00006H6.88937C5.60123 2.0027 4.3666 2.51559 3.45575 3.42645C2.54489 4.3373 2.032 5.5719 2.02936 6.86004V17.1301C2.03199 18.4191 2.54457 19.6548 3.45514 20.5673C4.36571 21.4797 5.60032 21.9948 6.88937 22.0001H13.2394C13.6102 21.9967 13.9768 21.922 14.3194 21.7801L14.4794 21.7001L14.5594 21.6501C14.8085 21.5296 15.0351 21.3672 15.2294 21.17L21.2294 15.17C21.433 14.9692 21.6019 14.7361 21.7294 14.48L21.8094 14.3101C21.8137 14.2702 21.8732 14.1892 21.8689 14.1493C21.9761 13.8545 21.9707 13.5838 21.9694 13.2701V6.93005C21.9845 6.28085 21.8683 5.63533 21.6277 5.03216C21.3871 4.429 21.0271 3.88062 20.5694 3.42004ZM9.93936 16.86H6.84937C6.65045 16.86 6.45968 16.781 6.31903 16.6404C6.17838 16.4997 6.09937 16.309 6.09937 16.11C6.09937 15.9111 6.17838 15.7204 6.31903 15.5797C6.45968 15.4391 6.65045 15.36 6.84937 15.36H9.93936C10.1383 15.36 10.329 15.4391 10.4697 15.5797C10.6103 15.7204 10.6894 15.9111 10.6894 16.11C10.6894 16.309 10.6103 16.4997 10.4697 16.6404C10.329 16.781 10.1383 16.86 9.93936 16.86ZM10.9394 12.7501H6.81937C6.62045 12.7501 6.42968 12.671 6.28903 12.5304C6.14838 12.3897 6.06937 12.199 6.06937 12.0001C6.06937 11.8011 6.14838 11.6104 6.28903 11.4697C6.42968 11.3291 6.62045 11.2501 6.81937 11.2501H10.9394C11.1383 11.2501 11.329 11.3291 11.4697 11.4697C11.6103 11.6104 11.6894 11.8011 11.6894 12.0001C11.6894 12.199 11.6103 12.3897 11.4697 12.5304C11.329 12.671 11.1383 12.7501 10.9394 12.7501ZM6.81937 8.63006C6.62045 8.63006 6.42968 8.55105 6.28903 8.4104C6.14838 8.26974 6.06937 8.07897 6.06937 7.88006C6.06937 7.68115 6.14838 7.49038 6.28903 7.34973C6.42968 7.20908 6.62045 7.13006 6.81937 7.13006H16.0694C16.2683 7.13006 16.459 7.20908 16.5997 7.34973C16.7404 7.49038 16.8194 7.68115 16.8194 7.88006C16.8194 8.07897 16.7404 8.26974 16.5997 8.4104C16.459 8.55105 16.2683 8.63006 16.0694 8.63006H6.81937ZM14.5894 19.6301L14.2494 16.8801C14.2114 16.5427 14.249 16.2011 14.3594 15.8801C14.4692 15.5438 14.6577 15.2387 14.9094 14.99C15.1612 14.7353 15.4695 14.5434 15.8094 14.43C16.1463 14.3132 16.5056 14.2755 16.8594 14.3201L19.6094 14.66L14.5894 19.6301Z" fill="black"/>
</svg>
