<svg width="24" height="24" viewBox="0 0 24 24" fill="none" xmlns="http://www.w3.org/2000/svg">
<path d="M21.0032 15.5784C20.7812 15.0201 20.4888 14.4925 20.1332 14.0084C19.6795 13.4689 19.3729 12.8212 19.2432 12.1284C19.2432 9.23835 19.2432 8.25838 17.6632 6.36838C17.1396 5.75093 16.4923 5.25016 15.7632 4.89837L15.0332 4.54837C14.9928 4.52291 14.9586 4.48874 14.9332 4.44836C14.9086 4.41965 14.8914 4.38529 14.8832 4.34836C14.7771 3.66203 14.417 3.0406 13.8744 2.60721C13.3317 2.17381 12.646 1.96009 11.9532 2.00836C11.2828 1.98135 10.6253 2.1986 10.103 2.61978C9.58063 3.04096 9.22894 3.63744 9.11321 4.29837C9.10224 4.35025 9.07813 4.39844 9.04321 4.43835C9.01821 4.47016 8.98773 4.49727 8.95321 4.51837L8.17321 4.89837C7.43694 5.24766 6.78526 5.7526 6.26321 6.37835C4.69321 8.25835 4.6932 9.23835 4.6932 12.1284C4.57678 12.7791 4.29433 13.3888 3.87319 13.8984C3.50518 14.3943 3.20892 14.9397 2.99319 15.5184C2.85874 15.9081 2.81234 16.3227 2.85729 16.7325C2.90225 17.1423 3.03746 17.5371 3.2532 17.8884C3.48136 18.1791 3.7779 18.4088 4.11639 18.5571C4.45488 18.7054 4.82481 18.7677 5.1932 18.7384H8.01321C8.05591 19.0061 8.12975 19.2678 8.23321 19.5184C8.43094 20.0151 8.73074 20.4648 9.11321 20.8383C9.4827 21.2186 9.92939 21.5153 10.4232 21.7084C10.8837 21.8964 11.3758 21.9948 11.8732 21.9984H12.0332C12.5374 21.9979 13.0366 21.8994 13.5032 21.7084C14 21.5155 14.45 21.2189 14.8232 20.8383C15.197 20.4635 15.4927 20.0183 15.6932 19.5283C15.7941 19.2727 15.8711 19.0082 15.9232 18.7384H18.8632C19.2093 18.7356 19.5507 18.6571 19.8632 18.5084C20.2144 18.331 20.5166 18.07 20.7432 17.7483C20.9692 17.4261 21.1071 17.0503 21.1432 16.6584C21.1878 16.2923 21.1396 15.9209 21.0032 15.5784ZM9.65319 8.89837H13.8932C14.0792 8.89474 14.2614 8.95079 14.4132 9.05835C14.5642 9.15446 14.6827 9.29389 14.7532 9.45837C14.826 9.62843 14.8503 9.81534 14.8232 9.99835C14.7845 10.1759 14.702 10.3409 14.5832 10.4784L11.4632 13.5984H14.3532C14.5521 13.5984 14.7429 13.6774 14.8835 13.818C15.0242 13.9587 15.1032 14.1494 15.1032 14.3484C15.1032 14.5473 15.0242 14.738 14.8835 14.8787C14.7429 15.0193 14.5521 15.0984 14.3532 15.0984H10.1132C9.92723 15.102 9.74497 15.0459 9.59319 14.9384C9.44004 14.8448 9.32089 14.7046 9.2532 14.5384C9.17733 14.3727 9.15293 14.188 9.18319 14.0084C9.2195 13.827 9.30221 13.6582 9.42321 13.5184L12.5432 10.3984H9.65319C9.45428 10.3984 9.26351 10.3193 9.12286 10.1787C8.98221 10.038 8.90319 9.84729 8.90319 9.64837C8.90319 9.44946 8.98221 9.25869 9.12286 9.11804C9.26351 8.97739 9.45428 8.89837 9.65319 8.89837Z" fill="black"/>
</svg>
