<svg width="24" height="24" viewBox="0 0 24 24" fill="none" xmlns="http://www.w3.org/2000/svg">
<path d="M19.8425 15.0635C19.6481 14.5735 19.3928 14.1098 19.0825 13.6835C18.7014 13.2285 18.4402 12.6853 18.3225 12.1035C18.3225 9.56352 18.3226 8.71352 16.9226 7.04352C16.4621 6.49486 15.8892 6.05153 15.2426 5.74353L14.5326 5.34357C14.4305 4.9004 14.2193 4.48976 13.9182 4.14893C13.6172 3.8081 13.2357 3.54788 12.8085 3.39191C12.3813 3.23593 11.9219 3.18915 11.4721 3.2558C11.0222 3.32245 10.5962 3.50042 10.2326 3.77356C9.75786 4.16104 9.44129 4.70877 9.34255 5.31354V5.36352H9.29256L8.61257 5.69354C7.96409 6.00322 7.38822 6.44618 6.92257 6.99353C5.53257 8.66353 5.53255 9.51353 5.53255 12.0535C5.43398 12.5981 5.19628 13.1079 4.84255 13.5335C4.51541 13.974 4.25273 14.4589 4.06252 14.9735C3.94194 15.3258 3.90097 15.7004 3.94246 16.0704C3.98396 16.4405 4.10695 16.7967 4.30257 17.1135C4.50773 17.3793 4.77648 17.5891 5.08407 17.7237C5.39165 17.8583 5.72811 17.9132 6.06252 17.8835H8.43258C8.47748 18.0987 8.54105 18.3095 8.62258 18.5135C8.79402 18.9703 9.06113 19.385 9.40609 19.73C9.75104 20.0749 10.1659 20.3421 10.6226 20.5135C11.0322 20.6812 11.47 20.7695 11.9126 20.7736H11.9826C12.4584 20.7783 12.9306 20.69 13.3726 20.5135C13.8116 20.3348 14.2122 20.0734 14.5526 19.7435C14.8888 19.4083 15.1511 19.0063 15.3225 18.5635C15.4068 18.3604 15.4705 18.1494 15.5125 17.9335H17.9826C18.3008 17.9306 18.6146 17.8589 18.9025 17.7235C19.2227 17.564 19.4977 17.3268 19.7025 17.0335C19.9141 16.7398 20.042 16.3942 20.0725 16.0335C20.0817 15.6957 20.0024 15.3613 19.8425 15.0635ZM13.8425 18.0035C13.742 18.2566 13.5907 18.4865 13.3982 18.6791C13.2056 18.8717 12.9757 19.0229 12.7226 19.1235C12.4579 19.2259 12.1762 19.2768 11.8925 19.2736C11.6206 19.2776 11.3507 19.2275 11.0983 19.1262C10.8459 19.0249 10.6162 18.8745 10.4226 18.6835C10.2275 18.4902 10.0743 18.2587 9.97255 18.0035C9.96822 17.9804 9.96822 17.9567 9.97255 17.9335H13.8825C13.8744 17.9595 13.8607 17.9833 13.8425 18.0035Z" fill="black"/>
</svg>
