<svg width="24" height="24" viewBox="0 0 24 24" fill="none" xmlns="http://www.w3.org/2000/svg">
<path d="M21.0032 15.5784C20.7812 15.0201 20.4888 14.4925 20.1332 14.0084C19.6795 13.4689 19.3729 12.8212 19.2432 12.1283C19.2432 9.23835 19.2432 8.25837 17.6632 6.36837C17.1396 5.75093 16.4923 5.25015 15.7632 4.89837L15.0332 4.54836C14.9928 4.5229 14.9586 4.48873 14.9332 4.44835C14.9086 4.41964 14.8914 4.38529 14.8832 4.34835C14.7771 3.66202 14.417 3.04059 13.8744 2.6072C13.3317 2.17381 12.646 1.96008 11.9532 2.00835C11.2828 1.98134 10.6253 2.19859 10.103 2.61977C9.58063 3.04095 9.22894 3.63743 9.11321 4.29836C9.10224 4.35025 9.07813 4.39843 9.04321 4.43834C9.01821 4.47015 8.98773 4.49726 8.95321 4.51836L8.17321 4.89837C7.43694 5.24765 6.78526 5.75259 6.26321 6.37835C4.69321 8.25835 4.6932 9.23835 4.6932 12.1283C4.57678 12.7791 4.29433 13.3888 3.87319 13.8984C3.50518 14.3943 3.20892 14.9397 2.99319 15.5184C2.85874 15.9081 2.81234 16.3227 2.85729 16.7325C2.90225 17.1423 3.03746 17.5371 3.2532 17.8884C3.48136 18.1791 3.7779 18.4088 4.11639 18.5571C4.45488 18.7054 4.82481 18.7677 5.1932 18.7384H8.01321C8.05591 19.006 8.12975 19.2678 8.23321 19.5184C8.43094 20.0151 8.73074 20.4648 9.11321 20.8383C9.4827 21.2186 9.92939 21.5153 10.4232 21.7084C10.8837 21.8964 11.3758 21.9948 11.8732 21.9983H12.0332C13.0791 21.9913 14.0806 21.5749 14.8232 20.8383C15.197 20.4635 15.4927 20.0183 15.6932 19.5283C15.7941 19.2727 15.8711 19.0082 15.9232 18.7384H18.8632C19.2093 18.7356 19.5507 18.6571 19.8632 18.5084C20.2144 18.331 20.5166 18.07 20.7432 17.7483C20.9692 17.426 21.1071 17.0503 21.1432 16.6583C21.1878 16.2923 21.1396 15.9209 21.0032 15.5784ZM11.9332 15.7483C11.7343 15.7483 11.5435 15.6693 11.4029 15.5287C11.2622 15.388 11.1832 15.1973 11.1832 14.9983C11.1832 14.7994 11.2622 14.6087 11.4029 14.468C11.5435 14.3274 11.7343 14.2483 11.9332 14.2483C12.1321 14.2483 12.3229 14.3274 12.4635 14.468C12.6042 14.6087 12.6832 14.7994 12.6832 14.9983C12.6832 15.1973 12.6042 15.388 12.4635 15.5287C12.3229 15.6693 12.1321 15.7483 11.9332 15.7483ZM14.0932 11.2284C13.9775 11.5 13.8073 11.7451 13.5932 11.9484C13.3706 12.145 13.1127 12.2977 12.8332 12.3984C12.7994 12.4168 12.7716 12.4445 12.7532 12.4784C12.7207 12.5138 12.7028 12.5603 12.7032 12.6084V12.9584C12.7032 13.1573 12.6242 13.348 12.4835 13.4887C12.3429 13.6293 12.1521 13.7084 11.9532 13.7084C11.7543 13.7084 11.5635 13.6293 11.4229 13.4887C11.2822 13.348 11.2032 13.1573 11.2032 12.9584V12.5784C11.2093 12.2208 11.3206 11.873 11.5232 11.5784C11.7271 11.2995 12.0089 11.0873 12.3332 10.9683C12.4208 10.936 12.502 10.8887 12.5732 10.8284C12.6287 10.7684 12.6758 10.7011 12.7132 10.6283C12.7331 10.5462 12.7331 10.4605 12.7132 10.3783C12.7111 10.2927 12.6942 10.2082 12.6632 10.1283C12.6005 10.0361 12.5227 9.95496 12.4332 9.88836C12.331 9.81144 12.2102 9.7631 12.0832 9.74834C11.893 9.70774 11.6945 9.73611 11.5232 9.82836C11.3548 9.90993 11.2204 10.0479 11.1432 10.2183C11.061 10.4 10.91 10.5416 10.7234 10.6119C10.5368 10.6823 10.3299 10.6756 10.1482 10.5933C9.96651 10.5111 9.82496 10.3601 9.75463 10.1735C9.68431 9.98691 9.69097 9.78002 9.77319 9.59835C9.99348 9.12672 10.3623 8.74032 10.8232 8.49834C11.2866 8.25494 11.8183 8.17397 12.3332 8.26836C12.6913 8.32285 13.0328 8.45603 13.3332 8.65835C13.625 8.87168 13.8644 9.14869 14.0332 9.46834C14.1695 9.74179 14.2413 10.0428 14.2432 10.3483C14.2571 10.6491 14.206 10.9492 14.0932 11.2284Z" fill="black"/>
</svg>
