<svg width="24" height="24" viewBox="0 0 24 24" fill="none" xmlns="http://www.w3.org/2000/svg">
<path d="M21.0032 15.5784C20.7812 15.0201 20.4888 14.4925 20.1332 14.0084C19.6795 13.4689 19.3729 12.8212 19.2432 12.1284C19.2432 9.23835 19.2432 8.25838 17.6632 6.36838C17.1396 5.75093 16.4924 5.25016 15.7632 4.89837L15.0332 4.54837C14.9928 4.52291 14.9587 4.48874 14.9332 4.44836C14.9086 4.41965 14.8914 4.38529 14.8832 4.34836C14.7771 3.66203 14.417 3.0406 13.8743 2.60721C13.3317 2.17381 12.646 1.96009 11.9532 2.00836C11.2828 1.98135 10.6253 2.1986 10.103 2.61978C9.58063 3.04096 9.22893 3.63744 9.1132 4.29837C9.10223 4.35025 9.07814 4.39844 9.04321 4.43835C9.01821 4.47016 8.98772 4.49727 8.9532 4.51837L8.1732 4.89837C7.43693 5.24766 6.78526 5.7526 6.26321 6.37835C4.69321 8.25835 4.69321 9.23835 4.69321 12.1284C4.57679 12.7791 4.29433 13.3888 3.8732 13.8984C3.50518 14.3943 3.20894 14.9397 2.99321 15.5184C2.85876 15.9081 2.81234 16.3227 2.8573 16.7325C2.90226 17.1423 3.03746 17.5371 3.2532 17.8884C3.48136 18.1791 3.7779 18.4088 4.11639 18.5571C4.45489 18.7054 4.82482 18.7677 5.19321 18.7384H8.01321C8.05592 19.0061 8.12974 19.2678 8.2332 19.5184C8.43093 20.0151 8.73073 20.4648 9.1132 20.8383C9.48269 21.2186 9.92938 21.5153 10.4232 21.7084C10.8837 21.8964 11.3758 21.9948 11.8732 21.9984H12.0332C12.5374 21.9979 13.0366 21.8994 13.5032 21.7084C14 21.5155 14.45 21.2189 14.8232 20.8383C15.197 20.4635 15.4927 20.0183 15.6932 19.5283C15.7941 19.2727 15.8711 19.0082 15.9232 18.7384H18.8632C19.2093 18.7356 19.5507 18.6571 19.8632 18.5084C20.2144 18.331 20.5166 18.07 20.7432 17.7483C20.9692 17.4261 21.1071 17.0503 21.1432 16.6584C21.1878 16.2923 21.1396 15.9209 21.0032 15.5784ZM14.8232 12.2884L12.8232 14.2884C12.7116 14.4024 12.5793 14.4941 12.4332 14.5583C12.3336 14.5978 12.2295 14.6247 12.1232 14.6384H11.8032C11.7 14.6259 11.599 14.5989 11.5032 14.5583C11.3527 14.4969 11.2165 14.405 11.1032 14.2884L9.10321 12.2884C9.02952 12.2197 8.97042 12.1369 8.92943 12.0449C8.88844 11.9529 8.86639 11.8536 8.86461 11.7529C8.86283 11.6522 8.88136 11.5522 8.91908 11.4588C8.9568 11.3654 9.01295 11.2805 9.08417 11.2093C9.15539 11.1381 9.24021 11.082 9.3336 11.0442C9.42699 11.0065 9.52703 10.988 9.62773 10.9898C9.72843 10.9916 9.82774 11.0136 9.91974 11.0546C10.0117 11.0956 10.0945 11.1547 10.1632 11.2284L11.1632 12.2284V8.84836C11.1632 8.64944 11.2422 8.45867 11.3829 8.31802C11.5235 8.17737 11.7143 8.09836 11.9132 8.09836C12.1121 8.09836 12.3029 8.17737 12.4435 8.31802C12.5842 8.45867 12.6632 8.64944 12.6632 8.84836V12.2284L13.6632 11.2284C13.7319 11.1547 13.8147 11.0956 13.9067 11.0546C13.9987 11.0136 14.098 10.9916 14.1987 10.9898C14.2994 10.988 14.3994 11.0065 14.4928 11.0442C14.5862 11.082 14.671 11.1381 14.7422 11.2093C14.8135 11.2805 14.8696 11.3654 14.9073 11.4588C14.9451 11.5522 14.9636 11.6522 14.9618 11.7529C14.96 11.8536 14.938 11.9529 14.897 12.0449C14.856 12.1369 14.7969 12.2197 14.7232 12.2884H14.8232Z" fill="black"/>
</svg>
