<svg width="24" height="24" viewBox="0 0 24 24" fill="none" xmlns="http://www.w3.org/2000/svg">
<path d="M16.5801 2H7.42004C5.98257 2 4.60397 2.57105 3.58752 3.58749C2.57108 4.60394 2 5.98254 2 7.42001V16.59C2.00265 18.0257 2.5749 19.4018 3.59106 20.416C4.60722 21.4303 5.9843 22 7.42004 22H16.5801C18.0158 22 19.3929 21.4303 20.4091 20.416C21.4252 19.4018 21.9974 18.0257 22 16.59V7.42001C22 5.98254 21.429 4.60394 20.4126 3.58749C19.3962 2.57105 18.0176 2 16.5801 2ZM11.29 15.33C11.29 15.6218 11.1742 15.9015 10.9679 16.1078C10.7616 16.3141 10.4818 16.43 10.1901 16.43H8.56006C8.26832 16.43 7.98852 16.3141 7.78223 16.1078C7.57594 15.9015 7.46008 15.6218 7.46008 15.33V8.69C7.46008 8.39826 7.57594 8.11846 7.78223 7.91217C7.98852 7.70588 8.26832 7.59 8.56006 7.59H10.1901C10.4818 7.59 10.7616 7.70588 10.9679 7.91217C11.1742 8.11846 11.29 8.39826 11.29 8.69V15.33ZM16.55 15.33C16.5474 15.6227 16.4293 15.9024 16.2214 16.1084C16.0136 16.3144 15.7327 16.43 15.4401 16.43H13.8101C13.5183 16.43 13.2385 16.3141 13.0322 16.1078C12.8259 15.9015 12.7101 15.6218 12.7101 15.33V8.69C12.7101 8.39826 12.8259 8.11846 13.0322 7.91217C13.2385 7.70588 13.5183 7.59 13.8101 7.59H15.4401C15.7327 7.58998 16.0136 7.70555 16.2214 7.91156C16.4293 8.11757 16.5474 8.39735 16.55 8.69V15.33Z" fill="black"/>
</svg>
