<svg width="24" height="24" viewBox="0 0 24 24" fill="none" xmlns="http://www.w3.org/2000/svg">
<path d="M12 2.25C10.0716 2.25 8.18655 2.82184 6.58317 3.89319C4.97979 4.96453 3.73012 6.48728 2.99216 8.26886C2.25421 10.0504 2.06115 12.0108 2.43735 13.9022C2.81356 15.7935 3.74213 17.5307 5.10569 18.8943C6.46925 20.2578 8.20656 21.1865 10.0979 21.5627C11.9892 21.9389 13.9496 21.7458 15.7312 21.0078C17.5128 20.2699 19.0355 19.0202 20.1068 17.4168C21.1782 15.8134 21.75 13.9284 21.75 12C21.7473 9.41495 20.7193 6.93655 18.8914 5.10864C17.0635 3.28074 14.585 2.25265 12 2.25ZM11.47 15.01C11.47 15.2752 11.3646 15.5296 11.1771 15.7171C10.9896 15.9046 10.7352 16.01 10.47 16.01H9.00999C8.74477 16.01 8.49043 15.9046 8.30289 15.7171C8.11536 15.5296 8.00999 15.2752 8.00999 15.01V9.01001C8.00999 8.74479 8.11536 8.49045 8.30289 8.30292C8.49043 8.11538 8.74477 8.01001 9.00999 8.01001H10.47C10.7352 8.01001 10.9896 8.11538 11.1771 8.30292C11.3646 8.49045 11.47 8.74479 11.47 9.01001V15.01ZM16.04 15.01C16.04 15.2752 15.9346 15.5296 15.7471 15.7171C15.5596 15.9046 15.3052 16.01 15.04 16.01H13.58C13.3148 16.01 13.0604 15.9046 12.8729 15.7171C12.6854 15.5296 12.58 15.2752 12.58 15.01V9.01001C12.58 8.74479 12.6854 8.49045 12.8729 8.30292C13.0604 8.11538 13.3148 8.01001 13.58 8.01001H15.04C15.3052 8.01001 15.5596 8.11538 15.7471 8.30292C15.9346 8.49045 16.04 8.74479 16.04 9.01001V15.01Z" fill="black"/>
</svg>
