<svg width="24" height="24" viewBox="0 0 24 24" fill="none" xmlns="http://www.w3.org/2000/svg">
<path d="M16.46 2.25H7.53998C6.13698 2.25 4.79144 2.80737 3.79938 3.79944C2.80731 4.79151 2.25 6.13698 2.25 7.53998V16.46C2.25 17.863 2.80731 19.2086 3.79938 20.2006C4.79144 21.1927 6.13698 21.75 7.53998 21.75H16.46C17.8622 21.7474 19.2062 21.1892 20.1977 20.1977C21.1892 19.2062 21.7474 17.8622 21.75 16.46V7.53998C21.7474 6.13779 21.1892 4.7938 20.1977 3.80231C19.2062 2.81081 17.8622 2.25264 16.46 2.25ZM8.40002 8.48999C8.40002 8.23683 8.47507 7.98936 8.61572 7.77887C8.75637 7.56837 8.9563 7.40431 9.19019 7.30743C9.42408 7.21055 9.68139 7.18523 9.92969 7.23462C10.178 7.28401 10.4061 7.40589 10.5851 7.5849C10.7641 7.76391 10.886 7.992 10.9354 8.2403C10.9848 8.48859 10.9594 8.74597 10.8625 8.97986C10.7657 9.21375 10.6016 9.41361 10.3911 9.55426C10.1806 9.69491 9.93315 9.77002 9.67999 9.77002C9.34052 9.77002 9.01495 9.63513 8.7749 9.39508C8.53486 9.15503 8.40002 8.82947 8.40002 8.48999ZM9.48999 17.08C9.36001 17.0798 9.23241 17.0452 9.12 16.98C8.95503 16.88 8.83495 16.7203 8.78467 16.5341C8.73439 16.3479 8.75775 16.1494 8.84998 15.98L13.85 7.32001C13.8932 7.22438 13.956 7.13886 14.0344 7.06903C14.1127 6.9992 14.2048 6.94661 14.3047 6.91461C14.4047 6.88261 14.5102 6.87195 14.6146 6.8833C14.7189 6.89465 14.8197 6.92778 14.9104 6.98053C15.0011 7.03328 15.0798 7.10447 15.1412 7.18951C15.2027 7.27456 15.2457 7.37156 15.2673 7.47424C15.289 7.57693 15.2888 7.68302 15.2669 7.78564C15.245 7.88827 15.2017 7.98514 15.14 8.07001L10.14 16.73C10.0718 16.8401 9.97582 16.9305 9.86176 16.9919C9.74769 17.0533 9.61949 17.0837 9.48999 17.08ZM14.31 16.84C14.0469 16.84 13.7898 16.762 13.5711 16.6158C13.3524 16.4697 13.1819 16.262 13.0812 16.019C12.9806 15.776 12.9542 15.5085 13.0056 15.2505C13.0569 14.9926 13.1836 14.7556 13.3696 14.5696C13.5556 14.3836 13.7925 14.2569 14.0505 14.2056C14.3085 14.1542 14.5759 14.1806 14.819 14.2812C15.062 14.3819 15.2697 14.5524 15.4158 14.7711C15.562 14.9898 15.64 15.247 15.64 15.51C15.6413 15.685 15.6078 15.8586 15.5414 16.0206C15.4751 16.1825 15.3772 16.3297 15.2534 16.4534C15.1297 16.5772 14.9825 16.6751 14.8206 16.7415C14.6586 16.8078 14.485 16.8414 14.31 16.84Z" fill="black"/>
</svg>
