<svg width="24" height="24" viewBox="0 0 24 24" fill="none" xmlns="http://www.w3.org/2000/svg">
<path d="M21.9975 17.8018C22.0137 18.0772 21.9729 18.3529 21.8775 18.6118C21.7755 18.8898 21.6191 19.1448 21.4174 19.3618L21.3275 19.4418C20.9248 19.7558 20.428 19.9249 19.9174 19.9218H19.6074H17.2374C16.7582 19.9434 16.2879 19.7866 15.9174 19.4818L15.8375 19.4018C15.5564 19.0859 15.3907 18.684 15.3674 18.2618V17.2618C15.3916 17.1802 15.3916 17.0934 15.3674 17.0118C15.3507 16.9631 15.3234 16.9187 15.2875 16.8818C15.0055 16.7508 14.6984 16.6826 14.3875 16.6818H14.2775C13.6388 16.5721 12.9945 16.4986 12.3475 16.4618C11.2148 16.3842 10.077 16.4888 8.97749 16.7718C8.86749 16.7718 8.81748 16.7718 8.77748 16.8518C8.74908 16.8735 8.72528 16.9007 8.70747 16.9318C8.63462 17.2088 8.61093 17.4966 8.63747 17.7818C8.66846 18.0505 8.64464 18.3226 8.56746 18.5818C8.49544 18.851 8.36957 19.1027 8.19746 19.3218L8.10744 19.4018C7.7432 19.7329 7.2697 19.918 6.77748 19.9218H4.67744C4.34437 19.9403 4.01052 19.9403 3.67744 19.9218C3.42456 19.9003 3.17916 19.8253 2.95747 19.7018C2.73939 19.5913 2.54822 19.4343 2.39748 19.2418L2.32747 19.1518C2.07759 18.7116 1.96607 18.2063 2.00746 17.7018C2.00877 17.0681 2.14158 16.4415 2.39748 15.8618C2.66403 15.2593 3.05606 14.7207 3.54744 14.2818C4.44454 13.454 5.49874 12.8147 6.64748 12.4018C6.92154 12.2887 7.20199 12.1919 7.48744 12.1118C8.88974 11.717 10.3407 11.5218 11.7974 11.5318C13.6301 11.4565 15.461 11.721 17.1975 12.3118C18.1588 12.6412 19.0605 13.1241 19.8674 13.7418C20.7694 14.3561 21.4661 15.227 21.8674 16.2418V16.3418C21.9703 16.8213 22.014 17.3116 21.9975 17.8018Z" fill="black"/>
<path d="M8.44745 10.0319C8.24945 10.0276 8.06027 9.94901 7.91742 9.81184C7.77697 9.67121 7.69812 9.48062 7.69812 9.28187C7.69812 9.08312 7.77697 8.89246 7.91742 8.75184C8.72149 7.94635 9.74657 7.39758 10.8627 7.17506C11.9789 6.95254 13.136 7.06627 14.1874 7.50184C14.8897 7.78625 15.5261 8.21168 16.0574 8.75184C16.1899 8.89401 16.262 9.08207 16.2586 9.27637C16.2552 9.47068 16.1765 9.65605 16.0391 9.79346C15.9016 9.93088 15.7163 10.0096 15.522 10.013C15.3277 10.0164 15.1396 9.94432 14.9974 9.81184C14.6043 9.41636 14.1369 9.10254 13.6221 8.88837C13.1072 8.67421 12.5551 8.56391 11.9974 8.56391C11.4398 8.56391 10.8877 8.67421 10.3729 8.88837C9.85801 9.10254 9.39055 9.41636 8.99744 9.81184C8.92482 9.883 8.83885 9.93905 8.74445 9.97681C8.65005 10.0146 8.54911 10.0333 8.44745 10.0319Z" fill="black"/>
<path d="M17.6275 7.9118C17.4295 7.9075 17.2404 7.82901 17.0975 7.69183C16.4248 7.01637 15.6254 6.4804 14.7451 6.11469C13.8647 5.74897 12.9208 5.56073 11.9675 5.56073C11.0142 5.56073 10.0703 5.74897 9.19 6.11469C8.30966 6.4804 7.5102 7.01637 6.83752 7.69183C6.76886 7.76552 6.68605 7.82461 6.59405 7.8656C6.50205 7.90659 6.4027 7.92864 6.302 7.93042C6.20129 7.9322 6.10132 7.9137 6.00793 7.87598C5.91454 7.83826 5.8297 7.7821 5.75848 7.71088C5.68726 7.63966 5.6311 7.55481 5.59338 7.46143C5.55566 7.36804 5.53716 7.268 5.53894 7.1673C5.54071 7.06659 5.5627 6.9673 5.60369 6.87531C5.64469 6.78331 5.70383 6.7005 5.77752 6.63184C6.58826 5.81576 7.55378 5.16977 8.61749 4.73181C9.67938 4.29114 10.8178 4.06433 11.9675 4.06433C13.1172 4.06433 14.2556 4.29114 15.3175 4.73181C16.3825 5.16736 17.3485 5.81365 18.1575 6.63184C18.298 6.77246 18.3768 6.96305 18.3768 7.1618C18.3768 7.36055 18.298 7.55121 18.1575 7.69183C18.0158 7.83072 17.8259 7.9095 17.6275 7.9118Z" fill="black"/>
</svg>
