<svg width="24" height="24" viewBox="0 0 24 24" fill="none" xmlns="http://www.w3.org/2000/svg">
<path d="M22.0239 18.9049C21.8982 19.487 21.579 20.0094 21.1183 20.3867C20.58 20.9429 19.9268 21.3748 19.2043 21.6525C18.5797 21.8898 17.9172 22.0118 17.2491 22.0126H16.889C15.3878 21.9587 13.9121 21.609 12.5464 20.9836C12.2171 20.8292 11.8981 20.6749 11.5893 20.5102C9.99603 19.6064 8.5319 18.4918 7.23649 17.1967C5.54134 15.6348 4.1463 13.7759 3.1203 11.7119C2.58565 10.5673 2.23822 9.34432 2.09125 8.08961C1.83568 6.80144 1.9793 5.46594 2.5029 4.26155C2.83009 3.70502 3.22776 3.19313 3.6862 2.73858C3.89499 2.51706 4.14271 2.33567 4.41691 2.20346C4.70447 2.07031 5.01603 1.99681 5.33278 1.98737C5.69429 2.01351 6.04562 2.1189 6.36182 2.29607C6.64781 2.46733 6.8991 2.69074 7.10271 2.95467C7.48346 3.36629 7.91562 3.79849 8.34782 4.24098L9.29458 5.20829C9.66681 5.54852 9.90119 6.01356 9.95319 6.51517V6.61808C9.91447 7.0306 9.74492 7.41999 9.46944 7.72947C9.2945 7.94557 9.09905 8.15137 8.89324 8.36747L8.61538 8.66587C8.49055 8.77834 8.39514 8.91969 8.33752 9.07752C8.28873 9.20564 8.26435 9.34174 8.26554 9.47883C8.42898 9.94214 8.69248 10.3638 9.03732 10.7137C9.58272 11.434 10.0663 12.1132 10.622 12.7718C11.6074 13.9013 12.7722 14.8608 14.0694 15.6119C14.1858 15.7028 14.3238 15.762 14.4698 15.7836C14.6159 15.8053 14.7651 15.7887 14.9028 15.7355C15.2623 15.5201 15.5796 15.2411 15.8393 14.9122C16.2126 14.4599 16.7482 14.1718 17.3314 14.1095C17.6079 14.1093 17.8816 14.1647 18.1362 14.2726C18.3908 14.3804 18.6211 14.5385 18.8133 14.7373C19.0191 14.9122 19.2352 15.1386 19.4513 15.365C19.6674 15.5914 19.6776 15.612 19.8011 15.7252L20.1202 16.0442C20.3157 16.2294 20.4906 16.4043 20.6758 16.6101C21.0082 16.905 21.321 17.2212 21.6123 17.5569C21.7776 17.7578 21.9033 17.9883 21.9827 18.236C22.0289 18.4558 22.0428 18.6811 22.0239 18.9049Z" fill="black"/>
<path d="M17.8766 8.71736C17.9494 8.78831 18.0072 8.8731 18.0468 8.96677C18.0863 9.06044 18.1067 9.16109 18.1067 9.26275C18.1067 9.36442 18.0863 9.46503 18.0468 9.5587C18.0072 9.65238 17.9494 9.7372 17.8766 9.80815C17.7307 9.95107 17.5353 10.0322 17.3311 10.0345C17.1274 10.0301 16.9328 9.94931 16.7858 9.80815L15.4686 8.48067L14.1411 9.80815C13.9964 9.95268 13.8002 10.0338 13.5957 10.0338C13.3912 10.0338 13.1951 9.95268 13.0504 9.80815C12.9058 9.66344 12.8246 9.46728 12.8246 9.26275C12.8246 9.05823 12.9058 8.86207 13.0504 8.71736L14.3778 7.38988L13.0504 6.0624C12.9141 5.91609 12.8398 5.7226 12.8434 5.52266C12.8469 5.32271 12.9278 5.13192 13.0692 4.99052C13.2106 4.84911 13.4014 4.76812 13.6013 4.7646C13.8013 4.76107 13.9948 4.83528 14.1411 4.97161L15.4686 6.29909L16.7858 4.97161C16.9305 4.82708 17.1266 4.74591 17.3311 4.74591C17.5356 4.74591 17.7318 4.82708 17.8766 4.97161C17.9494 5.04256 18.0072 5.12738 18.0468 5.22105C18.0863 5.31472 18.1067 5.41534 18.1067 5.51701C18.1067 5.61867 18.0863 5.71932 18.0468 5.81299C18.0072 5.90666 17.9494 5.99145 17.8766 6.0624L16.549 7.38988L17.8766 8.71736Z" fill="black"/>
</svg>
