<svg width="24" height="24" viewBox="0 0 24 24" fill="none" xmlns="http://www.w3.org/2000/svg">
<path d="M21.3302 19.0346C21.2047 19.5977 20.8934 20.1022 20.4464 20.4669C19.9272 20.9969 19.3001 21.4091 18.6077 21.6758C18.002 21.9108 17.3579 22.0313 16.7082 22.0313H16.3831C14.9229 21.9529 13.493 21.5833 12.1776 20.9444H12.1675C11.8627 20.8022 11.5478 20.66 11.243 20.4873C9.70829 19.6251 8.29994 18.5551 7.05783 17.3077C5.44696 15.7951 4.12516 14.0017 3.15709 12.0153C2.64321 10.9266 2.30057 9.76497 2.14127 8.57163C1.90431 7.32283 2.04582 6.03172 2.54762 4.86388C2.86403 4.33694 3.25015 3.85515 3.69551 3.43157C3.89119 3.21008 4.12954 3.03042 4.39637 2.90335C4.67664 2.77191 4.98088 2.69928 5.2903 2.69C5.61911 2.7269 5.93736 2.82849 6.22676 2.98888C6.51616 3.14927 6.77103 3.36531 6.9766 3.62457C7.43372 4.12233 7.99238 4.6404 8.4495 5.11784L9.07943 5.73748C9.44972 6.06571 9.67887 6.52425 9.71928 7.01742C9.71941 7.47056 9.55317 7.90796 9.25204 8.24656C9.05705 8.48369 8.85025 8.71086 8.6324 8.92718L8.42929 9.14049C8.31111 9.24976 8.22057 9.38556 8.16516 9.53668C8.1152 9.68361 8.09443 9.83889 8.10415 9.99378C8.26608 10.4252 8.51898 10.8167 8.84569 11.1417C9.3536 11.8324 9.86152 12.4318 10.3796 13.0819C11.317 14.1696 12.4293 15.0931 13.6709 15.8145C13.797 15.9075 13.9431 15.9701 14.0975 15.9973C14.2325 16.0069 14.3679 15.9861 14.4937 15.9364C14.8486 15.7281 15.1649 15.4601 15.4283 15.144C15.7836 14.7095 16.2931 14.4292 16.8504 14.3618C17.3863 14.3695 17.8975 14.5885 18.2726 14.9713C18.4757 15.144 18.6992 15.3777 18.9125 15.6012L19.2173 15.9161L19.5322 16.2208L20.0706 16.7693C20.392 17.0536 20.694 17.3591 20.9747 17.6836C21.2569 18.0742 21.3836 18.5557 21.3302 19.0346Z" fill="black"/>
<path d="M17.6839 12.0762C17.4827 12.0736 17.2904 11.9925 17.1481 11.8502C17.0058 11.7079 16.9247 11.5156 16.9221 11.3144C16.9234 10.739 16.811 10.1691 16.5915 9.6373C16.3719 9.1055 16.0496 8.62234 15.6427 8.21552C15.2359 7.8087 14.7527 7.48624 14.2209 7.26669C13.6891 7.04714 13.1191 6.93482 12.5438 6.93616C12.3417 6.93616 12.148 6.85587 12.0051 6.71299C11.8623 6.57011 11.7819 6.37635 11.7819 6.17429C11.7819 5.97223 11.8623 5.77844 12.0051 5.63556C12.148 5.49269 12.3417 5.41242 12.5438 5.41242C13.3192 5.41109 14.0873 5.56283 14.804 5.85895C15.5206 6.15508 16.1718 6.58975 16.7201 7.13807C17.2684 7.68638 17.7031 8.33755 17.9993 9.05421C18.2954 9.77087 18.4471 10.5389 18.4458 11.3144C18.4458 11.5164 18.3655 11.7102 18.2226 11.8531C18.0797 11.996 17.886 12.0762 17.6839 12.0762Z" fill="black"/>
<path d="M21.2087 11.7207C21.0074 11.718 20.8152 11.6369 20.6729 11.4946C20.5306 11.3523 20.4495 11.16 20.4468 10.9588C20.4482 9.97879 20.2562 9.00812 19.8821 8.10232C19.508 7.19653 18.9591 6.37339 18.2666 5.67994C17.5741 4.9865 16.7516 4.43638 15.8463 4.06104C14.9411 3.68569 13.9707 3.49249 12.9907 3.49249C12.7886 3.49249 12.5948 3.41222 12.4519 3.26934C12.309 3.12647 12.2288 2.93268 12.2288 2.73062C12.2288 2.52856 12.309 2.33477 12.4519 2.19189C12.5948 2.04901 12.7886 1.96875 12.9907 1.96875C14.1708 1.96875 15.3394 2.20136 16.4295 2.65327C17.5197 3.10519 18.51 3.76755 19.3439 4.60249C20.1779 5.43743 20.8392 6.42857 21.2899 7.51923C21.7406 8.6099 21.9719 9.77869 21.9706 10.9588C21.9706 11.1609 21.8902 11.3547 21.7474 11.4975C21.6045 11.6404 21.4107 11.7207 21.2087 11.7207Z" fill="black"/>
</svg>
