<svg width="24" height="24" viewBox="0 0 24 24" fill="none" xmlns="http://www.w3.org/2000/svg">
<path d="M21.9812 17.8095C21.998 18.065 21.9594 18.3211 21.8681 18.5604C21.7773 18.8086 21.6374 19.036 21.4567 19.2289C21.0699 19.5453 20.5883 19.7227 20.0888 19.7329H19.8316H17.3632C16.9364 19.7496 16.5174 19.6147 16.1804 19.3523C15.9072 19.0742 15.7368 18.7115 15.697 18.3238V17.2953C15.7094 17.1752 15.688 17.0541 15.6352 16.9456C15.6026 16.8534 15.5457 16.7717 15.4706 16.709C15.1504 16.5512 14.799 16.4668 14.4421 16.4622C13.6913 16.349 13.0536 16.2565 12.3851 16.2153C11.1985 16.1321 10.0063 16.2468 8.85733 16.5548C8.74872 16.5687 8.64573 16.6113 8.55902 16.6782C8.48818 16.7323 8.43164 16.8029 8.39442 16.8839C8.3171 17.2034 8.29284 17.5335 8.32248 17.861C8.35288 18.1026 8.33192 18.348 8.26084 18.5809C8.19617 18.8252 8.08042 19.0531 7.92135 19.2495C7.74828 19.4302 7.53763 19.5706 7.30426 19.6609C7.09538 19.7449 6.87096 19.7835 6.646 19.774H4.51702C4.17447 19.7938 3.83106 19.7938 3.48851 19.774C3.05264 19.7247 2.65176 19.5114 2.36734 19.1775C2.09995 18.7624 1.97706 18.2707 2.01768 17.7787C2.00608 17.1421 2.13238 16.5105 2.38793 15.9274C2.65098 15.3298 3.04046 14.7965 3.52956 14.364C4.42021 13.527 5.46931 12.8765 6.61511 12.451L7.41738 12.1733C8.84064 11.777 10.3112 11.5763 11.7886 11.5767C13.6387 11.5061 15.4862 11.7745 17.2398 12.3687C18.2065 12.7304 19.1093 13.2443 19.9139 13.8909C20.8025 14.4835 21.4881 15.3343 21.8784 16.3285C21.9734 16.8161 22.0079 17.3135 21.9812 17.8095Z" fill="black"/>
<path d="M6.2964 4.43869L6.40932 4.35657C6.36692 4.38104 6.32879 4.41225 6.2964 4.44897V4.43869Z" fill="black"/>
<path d="M6.99504 4.2228C6.89295 4.20731 6.78919 4.20731 6.6871 4.2228H6.99504Z" fill="black"/>
<path d="M17.6309 5.53929L13.5991 9.57108C13.1632 10.0005 12.5756 10.2407 11.9638 10.2396C11.6622 10.241 11.3632 10.1827 11.0843 10.0679C10.8054 9.95318 10.5519 9.78432 10.3386 9.57108L7.61318 6.85579V9.08768C7.61318 9.29227 7.53185 9.48848 7.38719 9.63314C7.24252 9.7778 7.04638 9.85907 6.84179 9.85907C6.63721 9.85907 6.44093 9.7778 6.29627 9.63314C6.15161 9.48848 6.0704 9.29227 6.0704 9.08768V4.97362C6.0717 4.76932 6.15289 4.57366 6.29665 4.4285C6.32909 4.39172 6.36729 4.36046 6.40977 4.33594C6.49182 4.27434 6.58678 4.23215 6.68749 4.21252H10.9456C11.1501 4.21252 11.3463 4.29379 11.491 4.43845C11.6356 4.58312 11.7169 4.77933 11.7169 4.98391C11.7169 5.1885 11.6356 5.38467 11.491 5.52934C11.3463 5.674 11.1501 5.7553 10.9456 5.7553H8.71363L11.4289 8.47056C11.5723 8.59299 11.7547 8.66024 11.9432 8.66024C12.1317 8.66024 12.3141 8.59299 12.4574 8.47056L16.4893 4.43877C16.6339 4.29431 16.8299 4.21318 17.0343 4.21318C17.2387 4.21318 17.4348 4.29431 17.5794 4.43877C17.7292 4.57965 17.8183 4.77326 17.8279 4.97864C17.8375 5.18401 17.7669 5.38506 17.6309 5.53929Z" fill="black"/>
</svg>
