<svg width="24" height="24" viewBox="0 0 24 24" fill="none" xmlns="http://www.w3.org/2000/svg">
<path d="M21.9579 18.8578C21.833 19.4359 21.516 19.9546 21.0586 20.3294C20.5221 20.8794 19.874 21.308 19.1578 21.5863C18.5343 21.8227 17.8729 21.9439 17.206 21.944H16.8586C15.3678 21.8905 13.9024 21.5432 12.5461 20.9221C12.2191 20.7688 11.9023 20.6155 11.5957 20.452C10.0135 19.5544 8.5595 18.4476 7.27308 17.1615C5.59123 15.609 4.20609 13.7634 3.18545 11.7147C2.64992 10.5798 2.30468 9.36453 2.16355 8.11758C1.9104 6.83832 2.05301 5.51229 2.57234 4.31609C2.89401 3.7643 3.28928 3.25892 3.74743 2.81389C4.05291 2.42501 4.49274 2.16437 4.98053 2.08307C5.46831 2.00178 5.96893 2.1057 6.38402 2.37448C6.66984 2.53775 6.92 2.75667 7.11977 3.01828C7.49787 3.42704 7.92703 3.85624 8.35623 4.29566L9.29643 5.25626C9.66757 5.60758 9.89361 6.0852 9.93001 6.59495V6.69715C9.89155 7.1068 9.72331 7.49346 9.44974 7.80079C9.27602 8.01539 9.07158 8.22999 8.87741 8.43437L8.59125 8.73073C8.471 8.84355 8.37996 8.98379 8.32567 9.13949C8.27722 9.26672 8.25289 9.4019 8.25407 9.53804C8.41258 9.99996 8.67476 10.4194 9.0205 10.7643L9.0921 10.8563C9.57239 11.5001 10.114 12.1643 10.5943 12.7673C11.5729 13.8889 12.7294 14.8418 14.0176 15.5877C14.1375 15.685 14.2831 15.7453 14.4366 15.7614C14.5717 15.7807 14.7094 15.763 14.8352 15.7104C15.1974 15.4996 15.5163 15.2222 15.7753 14.8928C16.146 14.4436 16.678 14.1575 17.2571 14.0957C17.5317 14.0955 17.8035 14.1505 18.0564 14.2576C18.3092 14.3647 18.5378 14.5217 18.7286 14.7191C18.933 14.8928 19.1476 15.1176 19.3622 15.3425C19.5768 15.5673 19.587 15.5877 19.7096 15.7001L20.0264 16.0169C20.2206 16.2009 20.3944 16.3746 20.5783 16.579C20.9059 16.8744 21.2163 17.1883 21.5082 17.5191C21.6723 17.7187 21.7971 17.9475 21.876 18.1936C21.9357 18.4098 21.9633 18.6336 21.9579 18.8578Z" fill="black"/>
<path d="M18.8307 7.42262C18.8307 7.62589 18.75 7.82084 18.6063 7.96457C18.4625 8.1083 18.2675 8.18905 18.0643 8.18905H12.8219C12.6186 8.18905 12.4237 8.1083 12.28 7.96457C12.1363 7.82084 12.0555 7.62589 12.0555 7.42262C12.0555 7.21935 12.1363 7.0244 12.28 6.88067C12.4237 6.73693 12.6186 6.65619 12.8219 6.65619H18.1052C18.3004 6.66905 18.4836 6.75513 18.6181 6.89723C18.7526 7.03932 18.8285 7.22696 18.8307 7.42262Z" fill="black"/>
</svg>
