<svg width="24" height="24" viewBox="0 0 24 24" fill="none" xmlns="http://www.w3.org/2000/svg">
<path d="M17.9114 6.90009L5.28138 19.3101C5.13809 19.4453 4.9485 19.5205 4.75148 19.5201C4.65222 19.5192 4.55408 19.4984 4.46302 19.4589C4.37197 19.4194 4.28985 19.362 4.22145 19.29C4.081 19.1494 4.00209 18.9588 4.00209 18.7601C4.00209 18.5613 4.081 18.3707 4.22145 18.23L6.71144 15.79C5.62102 14.6216 4.71105 13.297 4.01149 11.86C3.53635 10.8442 3.21929 9.76175 3.07142 8.65009C2.85045 7.47389 2.98629 6.25844 3.46144 5.16003V5.06006C3.73627 4.58774 4.07254 4.15398 4.46144 3.77008C4.66226 3.55247 4.90334 3.37586 5.1714 3.25006C5.45911 3.11265 5.77269 3.03764 6.09144 3.03003H6.23146C6.87114 3.12653 7.45024 3.46255 7.85145 3.97003C8.25145 4.42003 8.7114 4.87007 9.1714 5.32007L9.72145 5.86005C10.11 6.20304 10.3501 6.68347 10.3914 7.20007C10.3877 7.68867 10.2105 8.16002 9.89137 8.53003C9.74137 8.72003 9.53142 8.94003 9.32142 9.16003L9.14137 9.34009C9.06452 9.41174 9.00627 9.5009 8.97145 9.60004C8.95717 9.66931 8.95717 9.74079 8.97145 9.81006C9.09175 10.16 9.29005 10.478 9.5514 10.7401L9.62147 10.8201C9.91147 11.2201 10.2114 11.6001 10.5214 12.0001L16.8014 5.85004C16.942 5.70959 17.1327 5.63074 17.3314 5.63074C17.5302 5.63074 17.7208 5.70959 17.8615 5.85004C18.0058 5.98357 18.0919 6.16843 18.1012 6.36481C18.1106 6.56119 18.0423 6.75344 17.9114 6.90009Z" fill="black"/>
<path d="M21.0314 18V18.13C20.891 18.6658 20.5826 19.1424 20.1514 19.49C19.66 19.9906 19.0666 20.3795 18.4114 20.63C17.8316 20.857 17.2141 20.9724 16.5914 20.97H16.2014C14.8702 20.9187 13.562 20.6061 12.3514 20.05C12.0614 19.91 11.7714 19.78 11.4814 19.63C10.5808 19.1293 9.73015 18.5432 8.94141 17.88C8.86564 17.8165 8.80325 17.7386 8.75769 17.6509C8.71213 17.5631 8.68427 17.4672 8.6759 17.3687C8.66754 17.2702 8.67875 17.171 8.70886 17.0768C8.73898 16.9827 8.78747 16.8954 8.85144 16.82L11.5814 14.06C11.7062 13.9225 11.8774 13.8362 12.0621 13.8177C12.2469 13.7993 12.4319 13.85 12.5814 13.96C12.9731 14.2784 13.3913 14.5627 13.8314 14.81C13.9714 14.91 14.0314 14.94 14.1014 14.94C14.1666 14.9601 14.2362 14.9601 14.3014 14.94C14.5848 14.7774 14.8357 14.5638 15.0414 14.31C15.4123 13.8599 15.9423 13.5698 16.5214 13.5H16.6414C17.1752 13.5279 17.6789 13.7565 18.0514 14.14C18.2214 14.28 18.4215 14.5 18.6315 14.71L18.8914 14.99L19.1614 15.25C19.3414 15.42 19.5014 15.58 19.6714 15.77C19.9644 16.0229 20.2386 16.297 20.4915 16.59C20.8488 16.9714 21.0425 17.4775 21.0314 18Z" fill="black"/>
</svg>
