<svg width="24" height="24" viewBox="0 0 24 24" fill="none" xmlns="http://www.w3.org/2000/svg">
<path d="M22.047 18.9248C21.925 19.5111 21.6083 20.0388 21.1485 20.4224C20.6039 20.9728 19.9493 21.4021 19.2275 21.6824C18.597 21.9204 17.9288 22.0428 17.2549 22.0438H16.8934C15.39 21.9908 13.9121 21.6398 12.5454 21.011C12.2046 20.8561 11.8844 20.7012 11.5849 20.536C9.98235 19.6342 8.5122 18.515 7.21626 17.2104C5.51251 15.6451 4.11205 13.779 3.08514 11.7057C2.54994 10.5601 2.20128 9.33629 2.05235 8.08062C1.79959 6.7833 1.94727 5.43978 2.4758 4.22834C2.79755 3.66841 3.19747 3.15721 3.66349 2.71015C3.86424 2.48252 4.11054 2.29957 4.38644 2.17311C4.67504 2.03949 4.98772 1.96572 5.30562 1.95624C5.66869 1.98112 6.02159 2.08697 6.3384 2.26606C6.63119 2.42549 6.88512 2.64768 7.082 2.91672L8.33167 4.20769C8.65183 4.52786 8.96166 4.84803 9.28182 5.18885C9.65875 5.52345 9.89492 5.9884 9.9428 6.49013V6.59342C9.90397 7.01051 9.73404 7.40459 9.45739 7.71914C9.27613 7.94271 9.08307 8.15645 8.87904 8.35946L8.60019 8.64864C8.48087 8.76658 8.3861 8.90701 8.32134 9.06178C8.27485 9.19435 8.25383 9.33451 8.25937 9.47488C8.42068 9.9388 8.68153 10.3618 9.02363 10.7142C9.571 11.4372 10.0564 12.1188 10.6141 12.7281C11.6031 13.8618 12.772 14.8248 14.0739 15.5786C14.201 15.6753 14.35 15.7392 14.5077 15.7645C14.6442 15.7829 14.7831 15.7651 14.9105 15.7129C15.2666 15.4904 15.584 15.2113 15.8503 14.8866C16.2287 14.4355 16.7636 14.1441 17.3478 14.0707C17.9102 14.0766 18.4479 14.3028 18.8454 14.7008C19.0416 14.8867 19.2585 15.1035 19.4754 15.3307L19.8265 15.7026L20.157 16.0227C20.3532 16.2086 20.5288 16.3842 20.7044 16.5804C21.0389 16.8824 21.3562 17.2031 21.6545 17.5409C21.8224 17.7396 21.9457 17.9721 22.016 18.2225C22.0725 18.4523 22.083 18.691 22.047 18.9248Z" fill="black"/>
<path d="M18.9486 7.3783C18.9486 7.58374 18.867 7.78076 18.7217 7.92602C18.5765 8.07129 18.3794 8.15289 18.174 8.15289H16.2943V10.0222C16.2943 10.2277 16.2127 10.4247 16.0675 10.5699C15.9222 10.7152 15.7252 10.7968 15.5198 10.7968C15.3143 10.7968 15.1173 10.7152 14.972 10.5699C14.8268 10.4247 14.7452 10.2277 14.7452 10.0222V8.15289H12.8552C12.6497 8.15289 12.4527 8.07129 12.3075 7.92602C12.1622 7.78076 12.0806 7.58374 12.0806 7.3783C12.0806 7.17287 12.1622 6.97585 12.3075 6.83059C12.4527 6.68532 12.6497 6.60372 12.8552 6.60372H14.7245V4.72405C14.7245 4.51862 14.8061 4.32159 14.9514 4.17633C15.0967 4.03107 15.2937 3.94946 15.4991 3.94946C15.7045 3.94946 15.9016 4.03107 16.0468 4.17633C16.1921 4.32159 16.2737 4.51862 16.2737 4.72405V6.60372H18.1534C18.2568 6.60096 18.3597 6.61895 18.4561 6.65664C18.5525 6.69433 18.6403 6.75094 18.7145 6.82315C18.7886 6.89535 18.8475 6.98167 18.8877 7.07702C18.9279 7.17237 18.9486 7.27482 18.9486 7.3783Z" fill="black"/>
</svg>
