<svg width="24" height="24" viewBox="0 0 24 24" fill="none" xmlns="http://www.w3.org/2000/svg">
<path d="M21.0145 18.0599C20.8994 18.6475 20.5851 19.1773 20.1245 19.5599C19.6332 20.0606 19.0397 20.4494 18.3845 20.7C17.8034 20.9223 17.1867 21.0375 16.5645 21.04H16.2345C14.8886 20.9615 13.5707 20.6219 12.3545 20.04C12.0645 19.9 11.7845 19.77 11.5045 19.62C10.0978 18.8171 8.80326 17.8319 7.65456 16.6899C6.15936 15.3101 4.93196 13.6659 4.03444 11.84C3.54517 10.819 3.22764 9.7243 3.0945 8.59998C2.86602 7.42495 2.9985 6.2083 3.47451 5.10999V5.01996C3.74879 4.53819 4.08498 4.09441 4.47451 3.69995C4.66963 3.47605 4.91213 3.29846 5.18447 3.17999C5.46902 3.04366 5.7791 2.96868 6.0945 2.95996H6.2145C6.53916 2.99267 6.853 3.09499 7.13454 3.25995C7.42525 3.42064 7.67769 3.64241 7.87453 3.90997C8.18453 4.23997 8.55453 4.60999 8.87453 4.98999L9.70449 5.83997C10.0755 6.18255 10.31 6.6479 10.3645 7.14996V7.33997C10.3276 7.76457 10.1519 8.16522 9.86452 8.47998C9.71452 8.66998 9.53451 8.85999 9.35451 9.04999L9.11452 9.29999C9.04075 9.37249 8.97982 9.45703 8.93447 9.54999C8.92977 9.61657 8.92977 9.68336 8.93447 9.74994C9.06256 10.0902 9.26016 10.4002 9.51455 10.66L9.58449 10.74C10.0445 11.35 10.4546 11.91 10.9046 12.43C11.7445 13.3837 12.7341 14.1942 13.8345 14.83C13.9073 14.8889 13.9929 14.93 14.0845 14.95H14.2445C14.5246 14.7785 14.7745 14.5623 14.9845 14.3099C15.3568 13.8547 15.8907 13.5609 16.4745 13.49H16.5945C17.1356 13.5119 17.6477 13.741 18.0246 14.1299C18.1946 14.2799 18.3845 14.48 18.5745 14.68L18.8745 14.99L19.1546 15.2599C19.3246 15.4299 19.4846 15.5799 19.6446 15.7599C19.9327 16.0216 20.2063 16.2987 20.4645 16.59C20.638 16.7984 20.7673 17.04 20.8445 17.3C20.9504 17.5397 21.0082 17.7979 21.0145 18.0599Z" fill="black"/>
<path d="M18.7645 5.97994V8.97994C18.7645 9.17885 18.6855 9.36962 18.5448 9.51027C18.4041 9.65093 18.2134 9.72994 18.0145 9.72994C17.8156 9.72994 17.6248 9.65093 17.4841 9.51027C17.3435 9.36962 17.2645 9.17885 17.2645 8.97994V7.79995L13.5444 11.5199C13.4038 11.6604 13.2133 11.7393 13.0145 11.7393C12.8158 11.7393 12.6251 11.6604 12.4845 11.5199C12.344 11.3793 12.2651 11.1887 12.2651 10.9899C12.2651 10.7912 12.344 10.6005 12.4845 10.4599L16.2145 6.72994H15.0145C14.8156 6.72994 14.6248 6.65093 14.4841 6.51027C14.3435 6.36962 14.2645 6.17885 14.2645 5.97994C14.2645 5.78103 14.3435 5.59026 14.4841 5.44961C14.6248 5.30895 14.8156 5.22994 15.0145 5.22994H18.0145C18.0607 5.22023 18.1084 5.22023 18.1545 5.22994C18.2556 5.24266 18.3518 5.28046 18.4344 5.33993L18.5444 5.4399C18.6522 5.53616 18.723 5.66703 18.7445 5.8099C18.7583 5.86549 18.765 5.92266 18.7645 5.97994Z" fill="black"/>
</svg>
