<svg width="24" height="24" viewBox="0 0 24 24" fill="none" xmlns="http://www.w3.org/2000/svg">
<path d="M21.9877 18.0528C22 18.3074 21.9616 18.5619 21.8749 18.8016C21.787 19.0535 21.6472 19.2841 21.4646 19.4786C21.0828 19.7925 20.605 19.9662 20.1107 19.9709H17.3824C17.1755 19.9953 16.9658 19.9761 16.7668 19.9143C16.5679 19.8525 16.3841 19.7496 16.2275 19.6123C16.0708 19.475 15.9448 19.3063 15.8575 19.1172C15.7702 18.9281 15.7236 18.7227 15.7207 18.5144V17.4887C15.7339 17.3657 15.7126 17.2413 15.6592 17.1297C15.6202 17.0412 15.5645 16.9611 15.4951 16.8938C15.1758 16.7364 14.8253 16.6523 14.4694 16.6476C13.7903 16.5322 13.1055 16.4534 12.418 16.4117C11.2352 16.3304 10.0471 16.4412 8.89978 16.7399C8.79078 16.7512 8.68743 16.794 8.60234 16.863C8.52807 16.9201 8.46833 16.9939 8.42797 17.0784C8.36059 17.3916 8.33643 17.7126 8.35616 18.0323C8.39003 18.276 8.37256 18.5241 8.30487 18.7606C8.23384 19.0017 8.11911 19.2277 7.96639 19.4273C7.62833 19.7555 7.17593 19.9394 6.70478 19.9401H4.50978C4.16816 19.9599 3.82569 19.9599 3.48407 19.9401C3.26121 19.9255 3.04421 19.8625 2.84814 19.7555C2.66023 19.6501 2.49332 19.5111 2.3558 19.3452C2.09688 18.9283 1.97828 18.4395 2.01733 17.9503C2.0183 17.323 2.15121 16.703 2.40744 16.1304C2.66367 15.5579 3.03749 15.0457 3.50459 14.627C4.39401 13.8013 5.44048 13.1629 6.5817 12.75C6.85567 12.6393 7.13663 12.5467 7.42277 12.473C8.83443 12.0745 10.2947 11.8743 11.7615 11.8781C13.606 11.8041 15.4484 12.0683 17.1977 12.6576C18.1498 12.9968 19.0454 13.4774 19.8543 14.0834C20.7367 14.6874 21.4188 15.541 21.8134 16.5348C21.9361 17.0313 21.9947 17.5415 21.9877 18.0528Z" fill="black"/>
<path d="M15.6079 10.1241C15.5068 10.1246 15.4067 10.1049 15.3133 10.0662C15.22 10.0274 15.1353 9.97044 15.0643 9.89853C14.6596 9.49817 14.1828 9.17797 13.659 8.95486C12.5932 8.52372 11.4016 8.52372 10.3358 8.95486C9.80897 9.17793 9.32882 9.49805 8.9203 9.89853C8.84959 9.9711 8.76505 10.0288 8.67169 10.0682C8.57832 10.1075 8.47801 10.1278 8.37668 10.1278C8.27535 10.1278 8.17504 10.1075 8.08168 10.0682C7.98831 10.0288 7.90378 9.9711 7.83306 9.89853C7.689 9.75429 7.60808 9.55873 7.60808 9.35487C7.60808 9.15101 7.689 8.95549 7.83306 8.81125C8.381 8.2682 9.02885 7.83632 9.74087 7.53939C10.8156 7.09443 11.998 6.97776 13.1389 7.20411C14.2798 7.43047 15.3281 7.98971 16.1515 8.81125C16.2241 8.88197 16.2818 8.96652 16.3212 9.05988C16.3605 9.15325 16.3808 9.25354 16.3808 9.35487C16.3808 9.45621 16.3605 9.55653 16.3212 9.64989C16.2818 9.74326 16.2241 9.82781 16.1515 9.89853C16.0808 9.97091 15.9962 10.0282 15.9028 10.067C15.8094 10.1058 15.709 10.1252 15.6079 10.1241Z" fill="black"/>
<path d="M17.772 7.9599C17.6709 7.96038 17.5708 7.94065 17.4774 7.9019C17.3841 7.86315 17.2994 7.80616 17.2284 7.73424C16.5429 7.04639 15.7268 6.50239 14.8282 6.13415C13.0152 5.38533 10.9794 5.38533 9.16636 6.13415C8.26461 6.50217 7.44521 7.04611 6.75597 7.73424C6.68525 7.80682 6.60072 7.86452 6.50735 7.9039C6.41398 7.94328 6.31368 7.96356 6.21235 7.96356C6.11101 7.96356 6.01071 7.94328 5.91734 7.9039C5.82397 7.86452 5.73944 7.80682 5.66872 7.73424C5.52466 7.59 5.44374 7.39448 5.44374 7.19062C5.44374 6.98676 5.52466 6.79124 5.66872 6.647C6.50131 5.81138 7.49113 5.14891 8.58107 4.69783C9.67102 4.24674 10.8395 4.01596 12.0191 4.01883C13.1987 4.02169 14.3661 4.25811 15.4538 4.71448C16.5415 5.17085 17.5281 5.83812 18.3567 6.67777C18.4292 6.74849 18.4869 6.83304 18.5263 6.9264C18.5657 7.01977 18.586 7.12006 18.586 7.22139C18.586 7.32272 18.5657 7.42305 18.5263 7.51641C18.4869 7.60978 18.4292 7.6943 18.3567 7.76501C18.2786 7.83712 18.1861 7.8918 18.0853 7.9254C17.9845 7.95901 17.8777 7.97076 17.772 7.9599Z" fill="black"/>
</svg>
