<svg width="24" height="24" viewBox="0 0 24 24" fill="none" xmlns="http://www.w3.org/2000/svg">
<path d="M12 3.25C10.2695 3.25 8.5777 3.76321 7.13877 4.72467C5.69984 5.68613 4.57832 7.0527 3.91606 8.65155C3.25379 10.2504 3.08051 12.0097 3.41813 13.707C3.75575 15.4044 4.58914 16.9635 5.81285 18.1872C7.03656 19.4109 8.59568 20.2443 10.293 20.5819C11.9903 20.9195 13.7496 20.7463 15.3485 20.084C16.9473 19.4217 18.3139 18.3002 19.2754 16.8613C20.2368 15.4223 20.75 13.7306 20.75 12C20.7474 9.68017 19.8247 7.4561 18.1843 5.81573C16.5439 4.17536 14.3199 3.25265 12 3.25ZM12 12.75C11.8011 12.75 11.6104 12.671 11.4697 12.5303C11.3291 12.3897 11.25 12.1989 11.25 12V4.76001C11.7486 4.70667 12.2515 4.70667 12.75 4.76001C14.4038 4.93411 15.9477 5.67064 17.1235 6.8465C18.2994 8.02235 19.0359 9.56626 19.21 11.22C19.2633 11.7186 19.2633 12.2215 19.21 12.72L12 12.75Z" fill="black"/>
</svg>
