<svg width="24" height="24" viewBox="0 0 24 24" fill="none" xmlns="http://www.w3.org/2000/svg">
<path d="M16.58 2H7.41C5.97599 2.00264 4.60149 2.57346 3.58749 3.58746C2.57349 4.60146 2.00264 5.97599 2 7.41V16.58C2 18.0157 2.56967 19.3928 3.58395 20.409C4.59824 21.4251 5.97426 21.9974 7.41 22H16.58C18.0175 22 19.3961 21.429 20.4125 20.4125C21.429 19.3961 22 18.0175 22 16.58V7.41C21.9974 5.97426 21.4252 4.59821 20.409 3.58392C19.3928 2.56964 18.0158 2 16.58 2ZM16.58 12.34C16.477 12.5572 16.3266 12.7485 16.14 12.9L11.03 16.9C10.8118 17.0744 10.5479 17.182 10.27 17.21H10.11C9.88165 17.2092 9.65628 17.158 9.45001 17.06C9.20771 16.929 9.00158 16.74 8.85001 16.51C8.6957 16.272 8.61563 15.9936 8.62 15.71V8.34C8.61845 8.07213 8.69116 7.80906 8.83002 7.57999C8.97404 7.35081 9.17351 7.16166 9.41 7.03C9.6489 6.90045 9.9185 6.83824 10.19 6.85001C10.4582 6.86278 10.7178 6.94928 10.94 7.10001L16.05 10.51C16.2466 10.6414 16.4107 10.8158 16.53 11.02C16.6484 11.2275 16.7137 11.4611 16.72 11.7C16.7151 11.9214 16.664 12.1394 16.57 12.34H16.58Z" fill="black"/>
</svg>
