<svg width="24" height="24" viewBox="0 0 24 24" fill="none" xmlns="http://www.w3.org/2000/svg">
<path d="M12 2.25C10.0717 2.25 8.18659 2.82184 6.58321 3.89319C4.97983 4.96453 3.73016 6.48728 2.99221 8.26886C2.25425 10.0504 2.06113 12.0108 2.43734 13.9022C2.81354 15.7935 3.74217 17.5307 5.10573 18.8943C6.4693 20.2578 8.20655 21.1865 10.0979 21.5627C11.9892 21.9389 13.9496 21.7458 15.7312 21.0078C17.5127 20.2699 19.0355 19.0202 20.1068 17.4168C21.1782 15.8134 21.75 13.9284 21.75 12C21.7474 9.41495 20.7193 6.93655 18.8914 5.10864C17.0635 3.28074 14.5851 2.25265 12 2.25ZM16.52 12.32C16.4238 12.5217 16.2837 12.6994 16.11 12.84L11.41 16.49C11.2027 16.6536 10.9528 16.7542 10.69 16.78H10.55C10.3415 16.7741 10.1368 16.7229 9.95003 16.63C9.71836 16.5133 9.5217 16.3373 9.38003 16.12C9.24423 15.8964 9.16842 15.6415 9.15999 15.38V8.60004C9.16827 8.34933 9.24058 8.10489 9.37002 7.89001C9.4939 7.67254 9.67791 7.49544 9.89998 7.38C10.1199 7.25838 10.369 7.19959 10.62 7.21002C10.8732 7.22053 11.1187 7.30005 11.33 7.44L16.02 10.57C16.2065 10.6914 16.3609 10.856 16.47 11.05C16.5704 11.2457 16.6284 11.4604 16.64 11.68C16.6471 11.8995 16.606 12.1179 16.52 12.32Z" fill="black"/>
</svg>
