<svg width="24" height="24" viewBox="0 0 24 24" fill="none" xmlns="http://www.w3.org/2000/svg">
<path d="M16.58 2H7.40997C5.97596 2.00264 4.60146 2.57346 3.58746 3.58746C2.57346 4.60146 2.00264 5.97599 2 7.41V16.58C2 18.0157 2.56964 19.3928 3.58392 20.409C4.59821 21.4251 5.97423 21.9974 7.40997 22H16.58C17.2918 22 17.9966 21.8598 18.6541 21.5874C19.3117 21.3151 19.9092 20.9158 20.4125 20.4125C20.9158 19.9092 21.315 19.3117 21.5874 18.6541C21.8598 17.9966 22 17.2918 22 16.58V7.41C21.9974 5.97426 21.4251 4.59821 20.409 3.58392C19.3928 2.56964 18.0157 2 16.58 2ZM17.14 13H13V17.13C13 17.3952 12.8946 17.6496 12.7071 17.8371C12.5196 18.0246 12.2652 18.13 12 18.13C11.7348 18.13 11.4804 18.0246 11.2929 17.8371C11.1053 17.6496 11 17.3952 11 17.13V13H6.85999C6.59477 13 6.34043 12.8946 6.15289 12.7071C5.96536 12.5196 5.85999 12.2652 5.85999 12C5.85999 11.7348 5.96536 11.4804 6.15289 11.2929C6.34043 11.1053 6.59477 11 6.85999 11H11V6.85999C11 6.59477 11.1053 6.34043 11.2929 6.15289C11.4804 5.96536 11.7348 5.85999 12 5.85999C12.2652 5.85999 12.5196 5.96536 12.7071 6.15289C12.8946 6.34043 13 6.59477 13 6.85999V11H17.14C17.4052 11 17.6596 11.1053 17.8471 11.2929C18.0346 11.4804 18.14 11.7348 18.14 12C18.14 12.2652 18.0346 12.5196 17.8471 12.7071C17.6596 12.8946 17.4052 13 17.14 13Z" fill="black"/>
</svg>
