<svg width="24" height="24" viewBox="0 0 24 24" fill="none" xmlns="http://www.w3.org/2000/svg">
<path d="M15.25 2H8.75C6.9606 2.00265 5.24528 2.71468 3.97998 3.97998C2.71468 5.24528 2.00265 6.9606 2 8.75V15.25C2.00265 17.0394 2.71468 18.7547 3.97998 20.02C5.24528 21.2853 6.9606 21.9974 8.75 22H15.25C17.0394 21.9974 18.7547 21.2853 20.02 20.02C21.2853 18.7547 21.9974 17.0394 22 15.25V8.75C21.9974 6.9606 21.2853 5.24528 20.02 3.97998C18.7547 2.71468 17.0394 2.00265 15.25 2ZM17.14 13H13V17.14C13 17.4052 12.8946 17.6596 12.7071 17.8471C12.5196 18.0346 12.2652 18.14 12 18.14C11.7348 18.14 11.4804 18.0346 11.2929 17.8471C11.1054 17.6596 11 17.4052 11 17.14V13H6.85999C6.59477 13 6.34043 12.8946 6.15289 12.7071C5.96536 12.5196 5.85999 12.2652 5.85999 12C5.85999 11.7348 5.96536 11.4804 6.15289 11.2929C6.34043 11.1054 6.59477 11 6.85999 11H11V6.85999C11 6.59477 11.1054 6.34043 11.2929 6.15289C11.4804 5.96536 11.7348 5.85999 12 5.85999C12.2652 5.85999 12.5196 5.96536 12.7071 6.15289C12.8946 6.34043 13 6.59477 13 6.85999V11H17.14C17.4052 11 17.6596 11.1054 17.8471 11.2929C18.0346 11.4804 18.14 11.7348 18.14 12C18.14 12.2652 18.0346 12.5196 17.8471 12.7071C17.6596 12.8946 17.4052 13 17.14 13Z" fill="black"/>
</svg>
