<svg width="24" height="24" viewBox="0 0 24 24" fill="none" xmlns="http://www.w3.org/2000/svg">
<path d="M4.92999 19.9849C4.73108 19.9849 4.54031 19.9059 4.39966 19.7652C4.25901 19.6245 4.17999 19.4338 4.17999 19.2349V4.76489C4.17999 4.56598 4.25901 4.37521 4.39966 4.23456C4.54031 4.09391 4.73108 4.01489 4.92999 4.01489C5.12891 4.01489 5.31967 4.09391 5.46033 4.23456C5.60098 4.37521 5.67999 4.56598 5.67999 4.76489V19.2249C5.6827 19.3246 5.66521 19.4238 5.6286 19.5166C5.592 19.6094 5.53703 19.6938 5.46698 19.7648C5.39693 19.8358 5.31323 19.8919 5.22095 19.9297C5.12867 19.9675 5.02972 19.9862 4.92999 19.9849Z" fill="black"/>
<path d="M19.82 6.23497V17.765C19.8133 18.1181 19.7132 18.4631 19.53 18.765C19.3451 19.0769 19.079 19.3327 18.76 19.505C18.4506 19.6624 18.1072 19.7414 17.76 19.735H17.67C17.3132 19.7163 16.9679 19.6024 16.67 19.405L8.67 14.075C8.403 13.9013 8.18311 13.6643 8.02998 13.385C7.87454 13.1057 7.78556 12.7943 7.76997 12.475C7.7622 12.1546 7.82716 11.8367 7.95997 11.545C8.09461 11.2547 8.29696 11.0009 8.55 10.805L16.55 4.59502C16.8394 4.36917 17.1854 4.22729 17.55 4.18499C17.8305 4.15394 18.1144 4.18264 18.3831 4.26915C18.6517 4.35566 18.899 4.49803 19.1087 4.68694C19.3184 4.87585 19.4857 5.10697 19.5997 5.36516C19.7137 5.62336 19.7717 5.90276 19.77 6.18499L19.82 6.23497Z" fill="black"/>
</svg>
