<svg width="24" height="24" viewBox="0 0 24 24" fill="none" xmlns="http://www.w3.org/2000/svg">
<path d="M3.88493 21.06C3.68683 21.0574 3.49756 20.9776 3.35747 20.8375C3.21737 20.6974 3.13752 20.5081 3.13493 20.31V3.69C3.13493 3.49109 3.21395 3.30032 3.3546 3.15967C3.49525 3.01902 3.68602 2.94 3.88493 2.94C4.08385 2.94 4.27462 3.01902 4.41527 3.15967C4.55592 3.30032 4.63493 3.49109 4.63493 3.69V20.29C4.63761 20.3902 4.62019 20.4898 4.58369 20.5832C4.5472 20.6765 4.49235 20.7615 4.42244 20.8333C4.35253 20.9051 4.26894 20.9621 4.17662 21.0011C4.0843 21.04 3.98513 21.06 3.88493 21.06Z" fill="black"/>
<path d="M20.8651 5.34682V18.5968C20.8557 18.9945 20.7457 19.3833 20.5451 19.7268C20.3495 20.0535 20.0726 20.3238 19.7413 20.5113C19.41 20.6989 19.0357 20.7972 18.6551 20.7968H18.5551C18.1584 20.7847 17.7734 20.6598 17.4451 20.4368L8.31506 14.3168C8.02229 14.1224 7.77914 13.8621 7.60507 13.5568C7.43988 13.2485 7.34749 12.9064 7.33505 12.5568C7.32172 12.2124 7.39027 11.8696 7.53506 11.5568C7.68178 11.2403 7.90103 10.9628 8.17505 10.7468L17.3151 3.65682C17.6436 3.40813 18.0349 3.25578 18.4451 3.21682C18.8537 3.17047 19.267 3.2434 19.6351 3.42681C20.0049 3.60731 20.3167 3.88794 20.5351 4.23681C20.7392 4.57206 20.8529 4.95452 20.8651 5.34682Z" fill="black"/>
</svg>
