<svg width="24" height="24" viewBox="0 0 24 24" fill="none" xmlns="http://www.w3.org/2000/svg">
<path d="M19.935 9.06003C19.6797 8.80275 19.3759 8.59866 19.0412 8.45962C18.7065 8.32058 18.3474 8.24936 17.985 8.25003H16.735V5.00003C16.7363 4.76984 16.692 4.54168 16.6045 4.32876C16.517 4.11585 16.3882 3.92244 16.2254 3.75967C16.0626 3.59691 15.8692 3.468 15.6562 3.38052C15.4433 3.29305 15.2152 3.2487 14.985 3.25003H8.98499C8.75644 3.24958 8.53009 3.29445 8.31897 3.38199C8.10785 3.46952 7.91618 3.598 7.755 3.76004C7.42531 4.08888 7.23846 4.53439 7.23499 5.00003V8.25003H5.98499C5.25726 8.25526 4.56086 8.54671 4.04626 9.06131C3.53167 9.5759 3.24022 10.2723 3.23499 11V16C3.23761 16.4633 3.42287 16.907 3.75049 17.2346C4.07811 17.5622 4.52167 17.7474 4.98499 17.75H6.26501V19C6.26501 19.4642 6.4494 19.9093 6.77759 20.2375C7.10578 20.5656 7.55089 20.75 8.01501 20.75H16.015C16.4791 20.75 16.9243 20.5656 17.2524 20.2375C17.5806 19.9093 17.765 19.4642 17.765 19V17.76H19.015C19.4794 17.7603 19.9252 17.577 20.255 17.25C20.4178 17.0873 20.5467 16.894 20.6343 16.6811C20.7218 16.4683 20.7662 16.2402 20.765 16.01V11.01C20.7642 10.646 20.6903 10.2859 20.5477 9.9509C20.4052 9.61594 20.1968 9.31298 19.935 9.06003ZM8.73499 5.00003C8.73544 4.96617 8.74278 4.93277 8.75653 4.90182C8.77028 4.87088 8.79017 4.84306 8.815 4.82004C8.86125 4.77678 8.92168 4.75188 8.98499 4.75003H14.985C15.0512 4.75211 15.1148 4.77682 15.165 4.82004C15.1885 4.84355 15.2069 4.87169 15.2189 4.90268C15.231 4.93366 15.2364 4.96681 15.235 5.00003V8.25003H8.73499V5.00003ZM16.235 19C16.235 19.0663 16.2087 19.1299 16.1618 19.1768C16.1149 19.2237 16.0513 19.25 15.985 19.25H7.98499C7.91868 19.25 7.85511 19.2237 7.80823 19.1768C7.76134 19.1299 7.73499 19.0663 7.73499 19V15C7.73544 14.9662 7.74278 14.9328 7.75653 14.9018C7.77028 14.8709 7.79017 14.8431 7.815 14.82C7.86125 14.7768 7.92168 14.7519 7.98499 14.75H15.985C16.0512 14.7521 16.1148 14.7768 16.165 14.82C16.1885 14.8436 16.2069 14.8717 16.2189 14.9027C16.231 14.9337 16.2364 14.9668 16.235 15V19Z" fill="black"/>
</svg>
