<svg width="24" height="24" viewBox="0 0 24 24" fill="none" xmlns="http://www.w3.org/2000/svg">
<path d="M21.0999 8.67012C20.8177 8.38485 20.4811 8.15911 20.1101 8.00624C19.7391 7.85337 19.3412 7.77645 18.9399 7.7801H17.3799V3.90013C17.3813 3.6494 17.3327 3.40089 17.2371 3.16911C17.1414 2.93733 17.0006 2.72689 16.8229 2.55006C16.6451 2.37323 16.4339 2.23356 16.2017 2.13914C15.9694 2.04473 15.7207 1.99745 15.4699 2.00011H8.52994C8.28123 1.99806 8.03459 2.04568 7.8045 2.14012C7.57441 2.23456 7.36547 2.37394 7.18991 2.55012C7.01207 2.72704 6.87105 2.93741 6.77493 3.16911C6.67882 3.40082 6.62952 3.64928 6.62991 3.90013V7.7801H5.05994C4.24837 7.7801 3.47004 8.10251 2.89618 8.67638C2.32232 9.25024 1.99994 10.0286 1.99994 10.8401V16.6201C1.99994 16.871 2.04934 17.1193 2.14532 17.3511C2.24131 17.5828 2.382 17.7933 2.55936 17.9707C2.73672 18.148 2.94725 18.2887 3.17899 18.3847C3.41072 18.4807 3.65909 18.5301 3.90991 18.5301H5.46994V20.0901C5.47257 20.5959 5.67463 21.0802 6.03226 21.4378C6.38988 21.7954 6.87416 21.9975 7.37991 22.0001H16.6299C17.1347 21.9975 17.618 21.7951 17.974 21.4372C18.3301 21.0793 18.5299 20.595 18.5299 20.0901V18.5301H20.0999C20.6047 18.5275 21.088 18.3251 21.444 17.9672C21.8001 17.6093 21.9999 17.125 21.9999 16.6201V10.8401C22.0036 10.4365 21.9258 10.0362 21.7712 9.66337C21.6165 9.29051 21.3882 8.95267 21.0999 8.67012ZM20.4999 16.6201C20.5005 16.6741 20.4902 16.7276 20.4695 16.7774C20.4489 16.8272 20.4184 16.8724 20.3799 16.9101C20.3049 16.9837 20.205 17.0266 20.0999 17.0301H18.5299V15.4601C18.5299 14.9562 18.3297 14.4729 17.9734 14.1166C17.6171 13.7603 17.1338 13.5601 16.6299 13.5601H7.37991C6.87508 13.5601 6.39078 13.76 6.03287 14.116C5.67496 14.472 5.47258 14.9553 5.46994 15.4601V17.0301H3.90991C3.80198 17.0262 3.69907 16.9836 3.61993 16.9101C3.58141 16.8724 3.55093 16.8272 3.5303 16.7774C3.50968 16.7276 3.49936 16.6741 3.49994 16.6201V10.8401C3.50429 10.4246 3.6691 10.0269 3.95993 9.73012C4.25286 9.44085 4.64826 9.27908 5.05994 9.2801H18.9399C19.1451 9.27878 19.3486 9.31824 19.5385 9.39616C19.7283 9.47409 19.9008 9.58896 20.046 9.73408C20.1911 9.87921 20.306 10.0517 20.3839 10.2416C20.4618 10.4314 20.5013 10.6349 20.4999 10.8401V16.6201Z" fill="black"/>
</svg>
