<svg width="24" height="24" viewBox="0 0 24 24" fill="none" xmlns="http://www.w3.org/2000/svg">
<path d="M16.46 2.25H7.54004C6.13704 2.25 4.79151 2.80737 3.79944 3.79944C2.80737 4.79151 2.25 6.13704 2.25 7.54004V16.46C2.25 17.863 2.80737 19.2086 3.79944 20.2006C4.79151 21.1927 6.13704 21.75 7.54004 21.75H16.46C17.8621 21.7474 19.2061 21.1892 20.1976 20.1977C21.1891 19.2062 21.7474 17.8622 21.75 16.46V7.54004C21.7474 6.13786 21.1891 4.7938 20.1976 3.80231C19.2061 2.81081 17.8621 2.25264 16.46 2.25ZM11.97 18.02C11.7048 18.02 11.4504 17.9146 11.2628 17.7271C11.0753 17.5396 10.97 17.2852 10.97 17.02C10.97 16.7548 11.0753 16.5005 11.2628 16.3129C11.4504 16.1254 11.7048 16.02 11.97 16.02C12.2352 16.02 12.4896 16.1254 12.6771 16.3129C12.8647 16.5005 12.97 16.7548 12.97 17.02C12.97 17.2852 12.8647 17.5396 12.6771 17.7271C12.4896 17.9146 12.2352 18.02 11.97 18.02ZM15.45 10.93C15.2643 11.38 14.9808 11.7831 14.62 12.11C14.2652 12.4385 13.8465 12.6905 13.39 12.85C13.1712 12.9363 12.9831 13.0861 12.85 13.28C12.7008 13.4753 12.62 13.7143 12.62 13.96V14.67C12.62 14.8689 12.5409 15.0597 12.4003 15.2003C12.2596 15.341 12.0689 15.42 11.87 15.42C11.6711 15.42 11.4803 15.341 11.3396 15.2003C11.1989 15.0597 11.12 14.8689 11.12 14.67V13.93C11.1334 13.3836 11.3111 12.854 11.63 12.41C11.9346 11.9567 12.3709 11.6077 12.88 11.41C13.1477 11.3192 13.3931 11.1726 13.6 10.98C13.8013 10.7955 13.9615 10.5706 14.0699 10.32C14.1743 10.0664 14.2253 9.79415 14.22 9.52002C14.2114 9.24646 14.1468 8.97754 14.03 8.72998C13.8613 8.4185 13.6214 8.15129 13.33 7.95001C13.0361 7.73195 12.6923 7.59102 12.33 7.54004C11.7924 7.43813 11.2362 7.51908 10.75 7.77002C10.2679 8.0233 9.88164 8.42707 9.65002 8.91998C9.61123 9.01321 9.55391 9.0977 9.48169 9.16827C9.40947 9.23885 9.32384 9.29411 9.22974 9.33075C9.13564 9.36739 9.03501 9.38462 8.93408 9.38147C8.83315 9.37831 8.73396 9.35482 8.64233 9.31238C8.55071 9.26993 8.46855 9.20941 8.40088 9.13446C8.3332 9.05951 8.28131 8.97169 8.24841 8.87622C8.21551 8.78075 8.20234 8.67959 8.20947 8.57886C8.21661 8.47813 8.24401 8.37992 8.29004 8.29004C8.66381 7.50112 9.28536 6.85613 10.0599 6.45349C10.8345 6.05085 11.7195 5.91265 12.58 6.06C13.169 6.15557 13.7282 6.38579 14.2139 6.73267C14.6995 7.07955 15.0985 7.53374 15.38 8.06C15.6013 8.50481 15.7208 8.99327 15.73 9.48999C15.7422 9.98462 15.6466 10.476 15.45 10.93Z" fill="black"/>
</svg>
