<svg width="24" height="24" viewBox="0 0 24 24" fill="none" xmlns="http://www.w3.org/2000/svg">
<path d="M11.9584 19.3036C11.6932 19.3036 11.4388 19.1982 11.2512 19.0107C11.0637 18.8231 10.9584 18.5688 10.9584 18.3036C10.9584 18.0384 11.0637 17.784 11.2512 17.5965C11.4388 17.409 11.6932 17.3036 11.9584 17.3036C12.2236 17.3036 12.4779 17.409 12.6654 17.5965C12.8529 17.784 12.9584 18.0384 12.9584 18.3036C12.9584 18.5688 12.8529 18.8231 12.6654 19.0107C12.4779 19.1982 12.2236 19.3036 11.9584 19.3036Z" fill="black"/>
<path d="M11.9383 15.8236C11.8395 15.825 11.7414 15.8065 11.6498 15.7692C11.5581 15.732 11.4749 15.6769 11.405 15.607C11.3351 15.537 11.2799 15.4538 11.2426 15.3622C11.2054 15.2706 11.187 15.1725 11.1883 15.0736V14.1636C11.202 13.539 11.3988 12.9321 11.7544 12.4184C12.1099 11.9046 12.6086 11.5066 13.1883 11.2736C13.555 11.1285 13.8895 10.9124 14.1726 10.6379C14.4557 10.3634 14.682 10.0357 14.8383 9.6736C14.953 9.36872 15.0033 9.04343 14.9861 8.71816C14.9688 8.39289 14.8844 8.07466 14.7383 7.78359C14.5064 7.38527 14.1888 7.04365 13.8083 6.78359C13.418 6.50401 12.9644 6.32541 12.4883 6.26363C11.7865 6.11526 11.0552 6.21078 10.4151 6.53444C9.77508 6.8581 9.26466 7.39049 8.96823 8.0436C8.93329 8.14136 8.87853 8.23083 8.80722 8.30629C8.73591 8.38175 8.64968 8.4416 8.55405 8.48201C8.45842 8.52243 8.35537 8.54254 8.25156 8.5411C8.14775 8.53965 8.04537 8.51666 7.9509 8.47359C7.85643 8.43052 7.77203 8.36833 7.70285 8.29091C7.63367 8.2135 7.58125 8.12252 7.54904 8.02382C7.51683 7.92512 7.50552 7.82081 7.51572 7.71749C7.52591 7.61417 7.55737 7.5141 7.60825 7.4236C8.04122 6.47025 8.78331 5.69093 9.71433 5.21181C10.6453 4.73269 11.7108 4.58179 12.7383 4.78359C13.4336 4.88324 14.0953 5.14722 14.6683 5.55361C15.2558 5.96233 15.7388 6.50361 16.0783 7.13362C16.3175 7.61132 16.4552 8.13337 16.4828 8.66689C16.5103 9.20041 16.427 9.73382 16.2383 10.2336C16.0098 10.7904 15.6704 11.2948 15.2406 11.716C14.8107 12.1372 14.2995 12.4665 13.7383 12.6836C13.4221 12.8074 13.1481 13.0191 12.9483 13.2936C12.7572 13.5633 12.6494 13.8833 12.6383 14.2136V15.0936C12.6337 15.2807 12.5594 15.4593 12.4299 15.5944C12.3004 15.7294 12.125 15.8112 11.9383 15.8236Z" fill="black"/>
</svg>
