<svg width="24" height="24" viewBox="0 0 24 24" fill="none" xmlns="http://www.w3.org/2000/svg">
<path d="M16.58 2H7.40997C5.97596 2.00264 4.60146 2.57346 3.58746 3.58746C2.57346 4.60146 2.00264 5.97599 2 7.41V16.58C2 18.0157 2.56964 19.3928 3.58392 20.409C4.59821 21.4251 5.97423 21.9974 7.40997 22H16.58C18.0174 22 19.396 21.429 20.4125 20.4125C21.4289 19.3961 22 18.0175 22 16.58V7.41C21.9974 5.97426 21.4251 4.59821 20.4089 3.58392C19.3928 2.56964 18.0157 2 16.58 2ZM11.96 18.4C11.7622 18.4 11.5689 18.3414 11.4044 18.2315C11.24 18.1216 11.1118 17.9654 11.0361 17.7827C10.9604 17.6 10.9406 17.3989 10.9792 17.2049C11.0178 17.0109 11.113 16.8327 11.2529 16.6929C11.3927 16.553 11.5709 16.4578 11.7649 16.4192C11.9589 16.3806 12.1599 16.4004 12.3427 16.4761C12.5254 16.5518 12.6816 16.68 12.7914 16.8444C12.9013 17.0089 12.96 17.2022 12.96 17.4C12.96 17.5313 12.9341 17.6614 12.8839 17.7827C12.8336 17.904 12.7599 18.0142 12.6671 18.1071C12.5742 18.1999 12.464 18.2736 12.3427 18.3239C12.2213 18.3741 12.0913 18.4 11.96 18.4ZM15.75 10.99C15.5454 11.4792 15.2385 11.9191 14.85 12.28C14.4581 12.6368 13.9992 12.9121 13.5 13.09C13.3229 13.1622 13.1702 13.2837 13.06 13.44C12.9362 13.6048 12.8663 13.8039 12.86 14.01V14.74C12.86 15.0052 12.7546 15.2596 12.5671 15.4471C12.3795 15.6346 12.1252 15.74 11.86 15.74C11.5948 15.74 11.3404 15.6346 11.1529 15.4471C10.9654 15.2596 10.86 15.0052 10.86 14.74V13.98C10.8795 13.3703 11.0801 12.7803 11.4363 12.2852C11.7926 11.7901 12.2882 11.4123 12.86 11.2C13.1094 11.1211 13.3382 10.9879 13.53 10.81C13.7148 10.6454 13.8585 10.4399 13.95 10.21C14.0519 9.98058 14.0998 9.73082 14.09 9.47998C14.0895 9.23329 14.0313 8.99014 13.92 8.76999C13.7622 8.48277 13.5396 8.23625 13.27 8.04999C12.9935 7.8513 12.6755 7.71796 12.34 7.66C11.8326 7.56863 11.3093 7.6459 10.85 7.88C10.4099 8.11934 10.059 8.4947 9.84998 8.94998C9.73901 9.1892 9.53805 9.3749 9.29083 9.46667C9.04362 9.55844 8.77015 9.54887 8.52997 9.44C8.29075 9.32904 8.10508 9.12808 8.01331 8.88086C7.92154 8.63364 7.93111 8.36017 8.03998 8.12C8.43458 7.25816 9.10718 6.55383 9.94995 6.12C10.7948 5.67915 11.7621 5.5314 12.7 5.69998C13.3355 5.80281 13.9382 6.05281 14.46 6.42999C14.9924 6.80853 15.4304 7.30472 15.74 7.88C15.9766 8.36381 16.1062 8.89289 16.12 9.43127C16.1338 9.96966 16.0314 10.5047 15.8199 11L15.75 10.99Z" fill="black"/>
</svg>
