<svg width="24" height="24" viewBox="0 0 24 24" fill="none" xmlns="http://www.w3.org/2000/svg">
<path d="M12 2.25C10.0717 2.25 8.18659 2.82184 6.58321 3.89319C4.97983 4.96453 3.73016 6.48728 2.99221 8.26886C2.25425 10.0504 2.06113 12.0108 2.43734 13.9022C2.81354 15.7935 3.74217 17.5307 5.10573 18.8943C6.4693 20.2578 8.20655 21.1865 10.0979 21.5627C11.9892 21.9389 13.9496 21.7458 15.7312 21.0078C17.5127 20.2699 19.0355 19.0202 20.1068 17.4168C21.1782 15.8134 21.75 13.9284 21.75 12C21.7474 9.41495 20.7193 6.93655 18.8914 5.10864C17.0635 3.28074 14.5851 2.25265 12 2.25ZM11.89 18.14C11.6248 18.14 11.3705 18.0346 11.1829 17.8471C10.9954 17.6596 10.89 17.4052 10.89 17.14C10.89 16.8748 10.9954 16.6205 11.1829 16.4329C11.3705 16.2454 11.6248 16.14 11.89 16.14C12.1553 16.14 12.4096 16.2454 12.5971 16.4329C12.7847 16.6205 12.89 16.8748 12.89 17.14C12.89 17.4052 12.7847 17.6596 12.5971 17.8471C12.4096 18.0346 12.1553 18.14 11.89 18.14ZM15.33 11.2C15.1492 11.6281 14.88 12.0132 14.54 12.33C14.199 12.642 13.7973 12.8803 13.36 13.03C13.1617 13.1088 12.9912 13.2444 12.87 13.42C12.7357 13.599 12.6621 13.8163 12.66 14.04V14.76C12.66 14.9589 12.581 15.1497 12.4403 15.2903C12.2997 15.431 12.1089 15.51 11.91 15.51C11.7111 15.51 11.5204 15.431 11.3797 15.2903C11.2391 15.1497 11.16 14.9589 11.16 14.76V14.06C11.1745 13.5393 11.3427 13.0346 11.6435 12.6093C11.9442 12.184 12.3639 11.8572 12.85 11.67C13.1007 11.5891 13.3299 11.4524 13.52 11.27C13.7027 11.0975 13.8489 10.8901 13.95 10.66C14.052 10.4302 14.1047 10.1815 14.1047 9.92999C14.1047 9.67853 14.052 9.42987 13.95 9.20001C13.7892 8.91218 13.5673 8.66304 13.3 8.47003C13.0242 8.27203 12.7056 8.14184 12.37 8.09003C11.8701 7.99191 11.3517 8.06477 10.8983 8.29694C10.4448 8.52911 10.0827 8.90706 9.87002 9.37C9.83015 9.46122 9.7723 9.54348 9.69991 9.61182C9.62752 9.68015 9.54212 9.73316 9.44875 9.7677C9.35539 9.80225 9.25601 9.81763 9.15658 9.81287C9.05714 9.80811 8.95965 9.7833 8.87002 9.73999C8.77971 9.69904 8.69845 9.64063 8.63088 9.56805C8.56331 9.49548 8.51075 9.4102 8.47634 9.3172C8.44193 9.2242 8.42632 9.12532 8.43038 9.02625C8.43444 8.92717 8.45812 8.82986 8.50002 8.73999C8.85031 7.98043 9.44326 7.35894 10.1855 6.97333C10.9278 6.58772 11.7771 6.45989 12.6 6.60999C13.162 6.69564 13.6961 6.91138 14.16 7.23999C14.6274 7.57836 15.0106 8.01979 15.2801 8.53003C15.485 8.95219 15.5973 9.41331 15.6094 9.88245C15.6215 10.3516 15.533 10.8179 15.35 11.25L15.33 11.2Z" fill="black"/>
</svg>
