<svg width="24" height="24" viewBox="0 0 24 24" fill="none" xmlns="http://www.w3.org/2000/svg">
<path d="M15.25 2H8.75C6.9606 2.00265 5.24528 2.71468 3.97998 3.97998C2.71468 5.24528 2.00265 6.9606 2 8.75V15.25C2.00265 17.0394 2.71468 18.7547 3.97998 20.02C5.24528 21.2853 6.9606 21.9974 8.75 22H15.25C17.0394 21.9974 18.7547 21.2853 20.02 20.02C21.2853 18.7547 21.9974 17.0394 22 15.25V8.75C21.9974 6.9606 21.2853 5.24528 20.02 3.97998C18.7547 2.71468 17.0394 2.00265 15.25 2ZM11.97 18.58C11.7048 18.58 11.4504 18.4746 11.2629 18.2871C11.0753 18.0996 10.97 17.8452 10.97 17.58C10.97 17.3148 11.0753 17.0604 11.2629 16.8729C11.4504 16.6853 11.7048 16.58 11.97 16.58C12.2352 16.58 12.4896 16.6853 12.6771 16.8729C12.8647 17.0604 12.97 17.3148 12.97 17.58C12.97 17.8452 12.8647 18.0996 12.6771 18.2871C12.4896 18.4746 12.2352 18.58 11.97 18.58ZM15.76 10.99C15.5533 11.4806 15.2428 11.9207 14.85 12.28C14.4655 12.6466 14.0044 12.9232 13.5 13.09C13.3139 13.1641 13.1544 13.2924 13.0421 13.4582C12.9297 13.624 12.8698 13.8197 12.87 14.02V14.75C12.87 15.0152 12.7646 15.2696 12.5771 15.4571C12.3896 15.6446 12.1352 15.75 11.87 15.75C11.6048 15.75 11.3504 15.6446 11.1629 15.4571C10.9754 15.2696 10.87 15.0152 10.87 14.75V13.98C10.8831 13.3702 11.0781 12.7782 11.43 12.28C11.7819 11.7982 12.2642 11.4269 12.82 11.21C13.0694 11.1311 13.2982 10.9979 13.49 10.82C13.6758 10.6502 13.8225 10.4421 13.92 10.21C14.013 9.98169 14.0573 9.73642 14.05 9.48999C14.0469 9.24152 13.9925 8.9964 13.89 8.77002C13.7265 8.4869 13.505 8.24151 13.24 8.04999C12.9614 7.85019 12.6391 7.7199 12.3 7.66998C11.7976 7.57382 11.2776 7.64859 10.8227 7.88239C10.3678 8.11618 10.0042 8.49558 9.78998 8.96002C9.73482 9.07952 9.65669 9.18695 9.56 9.27625C9.46331 9.36554 9.35 9.43497 9.2265 9.48047C9.103 9.52597 8.97172 9.54667 8.84021 9.54144C8.7087 9.53622 8.57952 9.50517 8.46002 9.45001C8.34052 9.39486 8.23304 9.31672 8.14374 9.22003C8.05444 9.12334 7.98508 9.00998 7.93958 8.88647C7.89407 8.76297 7.87332 8.6317 7.87854 8.50018C7.88377 8.36867 7.91482 8.2395 7.96997 8.12C8.37471 7.26176 9.04901 6.55941 9.89001 6.12C10.7324 5.68259 11.6965 5.53836 12.63 5.71002C13.2687 5.80653 13.8753 6.05327 14.4 6.42999C14.9298 6.80861 15.3645 7.30496 15.67 7.88C15.9097 8.37289 16.0394 8.91203 16.05 9.46002C16.0677 9.9852 15.9687 10.5077 15.76 10.99Z" fill="black"/>
</svg>
