<svg width="24" height="24" viewBox="0 0 24 24" fill="none" xmlns="http://www.w3.org/2000/svg">
<path d="M18.625 6.96258C18.591 7.17803 18.5164 7.38502 18.405 7.57257C18.4106 7.59557 18.4106 7.61957 18.405 7.64257C18.3647 7.70726 18.3178 7.76758 18.265 7.82257C18.1618 7.95884 18.0368 8.07708 17.895 8.17254C17.6971 8.31321 17.4725 8.41194 17.235 8.46258L14.0551 9.26257H13.875C13.7075 9.26128 13.5452 9.2047 13.4132 9.10162C13.2812 8.99854 13.1869 8.85473 13.145 8.69256C13.1211 8.59669 13.1164 8.49705 13.1311 8.39935C13.1458 8.30165 13.1797 8.20785 13.2308 8.12329C13.2819 8.03873 13.3493 7.96508 13.429 7.90661C13.5086 7.84815 13.5991 7.80601 13.6951 7.78259L16.395 7.1026C15.5414 6.47891 14.5619 6.04891 13.525 5.84259C12.1287 5.56488 10.6813 5.70735 9.36597 6.25201C8.0506 6.79667 6.92627 7.71905 6.13501 8.90258C5.34374 10.0869 4.91939 11.4783 4.91504 12.9026C4.91504 13.1015 4.83596 13.2923 4.69531 13.4329C4.55466 13.5736 4.36395 13.6526 4.16504 13.6526C3.96613 13.6526 3.7753 13.5736 3.63464 13.4329C3.49399 13.2923 3.41504 13.1015 3.41504 12.9026C3.42717 11.1882 3.94376 9.51526 4.90051 8.09259C5.85726 6.66991 7.21182 5.56044 8.79504 4.90258C10.1135 4.35847 11.5454 4.14681 12.9648 4.28631C14.3843 4.42582 15.7478 4.9122 16.9351 5.70257L16.365 3.41259C16.3197 3.22038 16.3521 3.01804 16.4551 2.84955C16.558 2.68105 16.7233 2.55997 16.915 2.51257C17.0103 2.48713 17.1096 2.48095 17.2073 2.49444C17.3049 2.50793 17.3989 2.54082 17.4836 2.59112C17.5684 2.64143 17.6423 2.70817 17.7009 2.78741C17.7596 2.86665 17.8016 2.95677 17.825 3.05255L18.615 6.26257C18.6612 6.49332 18.6646 6.73061 18.625 6.96258Z" fill="black"/>
<path d="M20.5849 11.0925C20.5784 12.8132 20.0635 14.4935 19.105 15.9225C18.3119 17.1102 17.238 18.0839 15.9786 18.7572C14.7192 19.4305 13.3131 19.7827 11.885 19.7825C11.3142 19.7809 10.7449 19.724 10.185 19.6125C9.07173 19.3927 8.01196 18.9579 7.06504 18.3325L7.63498 20.6125C7.65877 20.7077 7.66339 20.8068 7.64853 20.9038C7.63368 21.0008 7.59962 21.0939 7.54844 21.1777C7.49725 21.2614 7.42989 21.3342 7.35032 21.3917C7.27075 21.4491 7.18054 21.4902 7.08494 21.5125H6.905C6.73752 21.5112 6.5751 21.4546 6.44309 21.3516C6.31108 21.2485 6.21689 21.1047 6.17502 20.9425L5.38498 17.7325C5.2707 17.2551 5.34975 16.7519 5.60496 16.3325C5.62897 16.2799 5.6629 16.2323 5.70493 16.1925C5.80441 16.0564 5.92623 15.9381 6.06504 15.8425C6.26753 15.7035 6.49498 15.6049 6.73496 15.5525L9.91501 14.7525C10.1085 14.707 10.312 14.739 10.4822 14.8419C10.6523 14.9447 10.7753 15.11 10.8249 15.3025C10.8488 15.3984 10.8536 15.4981 10.8388 15.5958C10.8241 15.6935 10.7902 15.7873 10.7391 15.8718C10.688 15.9564 10.6206 16.03 10.541 16.0885C10.4613 16.147 10.371 16.1891 10.275 16.2125L7.57493 16.8925C8.4286 17.5162 9.40814 17.9462 10.445 18.1525C11.8353 18.4337 13.2775 18.2991 14.5918 17.7656C15.906 17.232 17.034 16.3232 17.8349 15.1525C18.623 13.9667 19.0471 12.5763 19.055 11.1525C19.055 10.9536 19.134 10.7628 19.2746 10.6222C19.4153 10.4815 19.6061 10.4025 19.805 10.4025C20.0039 10.4025 20.1946 10.4815 20.3353 10.6222C20.476 10.7628 20.555 10.9536 20.555 11.1525L20.5849 11.0925Z" fill="black"/>
</svg>
