<svg width="24" height="24" viewBox="0 0 24 24" fill="none" xmlns="http://www.w3.org/2000/svg">
<path d="M18.5751 17.7559L17.785 20.9459C17.7432 21.108 17.6489 21.2518 17.5168 21.3549C17.3848 21.458 17.2225 21.5146 17.0551 21.5159H16.875C16.7794 21.4936 16.6892 21.4525 16.6096 21.395C16.53 21.3375 16.4627 21.2648 16.4115 21.181C16.3603 21.0973 16.3264 21.0042 16.3115 20.9072C16.2967 20.8101 16.3013 20.7111 16.3251 20.6158L16.885 18.3359C15.9438 18.9652 14.8865 19.4003 13.775 19.6158C13.2152 19.7273 12.6459 19.7843 12.0751 19.7859C9.77104 19.7806 7.56263 18.8637 5.9325 17.2354C4.30236 15.6071 3.38292 13.3999 3.375 11.0959C3.375 10.897 3.45407 10.7062 3.59473 10.5656C3.73538 10.4249 3.92609 10.3459 4.125 10.3459C4.32391 10.3459 4.51474 10.4249 4.6554 10.5656C4.79605 10.7062 4.875 10.897 4.875 11.0959C4.88288 12.5197 5.30692 13.9101 6.09497 15.0959C6.63893 15.9035 7.34062 16.5927 8.15784 17.1221C8.97505 17.6515 9.89094 18.0101 10.8503 18.1764C11.8097 18.3427 12.7929 18.3132 13.7406 18.0897C14.6883 17.8662 15.581 17.4533 16.365 16.8759L13.655 16.2059C13.559 16.1825 13.4686 16.1403 13.3889 16.0818C13.3093 16.0234 13.242 15.9497 13.1909 15.8652C13.1398 15.7806 13.1059 15.6868 13.0912 15.5891C13.0765 15.4914 13.0811 15.3917 13.105 15.2958C13.1546 15.1034 13.2778 14.938 13.4479 14.8352C13.618 14.7324 13.8215 14.7003 14.015 14.7458L17.215 15.5458C17.4449 15.6005 17.6623 15.699 17.855 15.8359C17.9968 15.9313 18.1218 16.0496 18.225 16.1859C18.2711 16.2282 18.3084 16.2792 18.335 16.3359C18.3607 16.3654 18.3811 16.3992 18.395 16.4359C18.5048 16.6269 18.5761 16.8375 18.605 17.0558C18.6409 17.2889 18.6308 17.5267 18.5751 17.7559Z" fill="black"/>
<path d="M18.395 16.4258C18.3811 16.3892 18.3607 16.3554 18.335 16.3259C18.364 16.3529 18.3849 16.3875 18.395 16.4258Z" fill="black"/>
<path d="M20.5751 12.906C20.5751 13.1049 20.496 13.2956 20.3554 13.4363C20.2147 13.5769 20.024 13.656 19.8251 13.656C19.6262 13.656 19.4353 13.5769 19.2947 13.4363C19.154 13.2956 19.0751 13.1049 19.0751 12.906C19.0697 11.484 18.6445 10.0952 17.8528 8.91395C17.0611 7.73269 15.9382 6.8115 14.625 6.26594C13.4821 5.79877 12.2384 5.63253 11.0128 5.78309C9.78731 5.93366 8.6209 6.39598 7.62502 7.12593L10.335 7.79591C10.431 7.81933 10.5214 7.86153 10.6011 7.92C10.6807 7.97846 10.7481 8.05205 10.7992 8.13661C10.8503 8.22117 10.8842 8.31503 10.8989 8.41273C10.9137 8.51043 10.9089 8.61007 10.885 8.70595C10.8432 8.86812 10.7489 9.01193 10.6168 9.115C10.4848 9.21808 10.3225 9.27466 10.155 9.27595H9.97499L6.77504 8.4759C6.54506 8.42125 6.32775 8.32281 6.13503 8.18593C5.99962 8.09364 5.88123 7.97864 5.78505 7.84596L5.65505 7.66591C5.64964 7.63279 5.64964 7.59904 5.65505 7.56593C5.54714 7.3885 5.47579 7.1913 5.44509 6.98591C5.4003 6.74464 5.4003 6.49721 5.44509 6.25593L6.235 3.05592C6.28274 2.86231 6.40541 2.69563 6.57607 2.59248C6.74673 2.48934 6.95143 2.45819 7.14504 2.50593C7.33865 2.55367 7.50539 2.67634 7.60854 2.847C7.71168 3.01766 7.74283 3.2223 7.69509 3.41591L7.13503 5.69594C8.07623 5.06663 9.13352 4.63144 10.245 4.41591C11.9234 4.07977 13.6638 4.25038 15.245 4.90596C16.8282 5.56381 18.1828 6.67328 19.1395 8.09596C20.0963 9.51864 20.6129 11.1915 20.625 12.906H20.5751Z" fill="black"/>
</svg>
