<svg width="24" height="24" viewBox="0 0 24 24" fill="none" xmlns="http://www.w3.org/2000/svg">
<path d="M21.7783 5.02396C21.4478 4.47162 20.9774 4.01588 20.4144 3.70261C19.8526 3.38552 19.2139 3.22962 18.569 3.25214C17.9265 3.26833 17.3001 3.45494 16.7538 3.79273L14.4772 5.21416C14.0338 4.89385 13.5001 4.72213 12.9528 4.72367H11.0773C10.524 4.72334 9.98424 4.89474 9.53284 5.21416L7.26628 3.79273C6.71998 3.45494 6.09352 3.26833 5.4511 3.25214C4.80625 3.23065 4.16793 3.38649 3.6058 3.70261C3.04352 4.01599 2.57511 4.47341 2.24897 5.02769C1.92283 5.58196 1.75068 6.21305 1.75034 6.85584V9.8589C1.74333 10.3685 1.84598 10.8737 2.05125 11.3404C2.25535 11.8079 2.56011 12.2249 2.94385 12.5616C3.32021 12.9036 3.76433 13.1628 4.24754 13.3224C4.39417 13.3732 4.54535 13.4101 4.69892 13.4325L3.42522 18.2074C3.37351 18.3736 3.37351 18.5516 3.42522 18.7179C3.48083 18.8932 3.58949 19.0471 3.73618 19.1584C3.88135 19.2689 4.05555 19.335 4.23763 19.3485C4.42622 19.3649 4.61521 19.323 4.77911 19.2284L7.23629 17.817L8.64025 20.2495C8.72874 20.425 8.8735 20.5659 9.05147 20.6499C9.1829 20.7134 9.3267 20.7476 9.47273 20.75H9.59307C9.77851 20.7216 9.95224 20.6418 10.0945 20.5197C10.2338 20.3949 10.3317 20.2309 10.3754 20.0493L12.1705 13.3424L13.9557 20.0092C13.994 20.1963 14.0884 20.3675 14.2265 20.4997C14.3746 20.6343 14.5598 20.7214 14.758 20.75H14.8784C15.0317 20.7455 15.1822 20.7079 15.3196 20.6398C15.4777 20.5529 15.6094 20.4249 15.7007 20.2695L17.0847 17.817L19.5017 19.2184C19.6594 19.3118 19.8398 19.3603 20.0232 19.3586C20.2109 19.3593 20.3937 19.2996 20.5447 19.1884C20.6988 19.0802 20.8147 18.926 20.8757 18.748C20.9369 18.5627 20.9369 18.3627 20.8757 18.1774L19.5819 13.3525C19.8613 13.2737 20.1305 13.1628 20.3843 13.0221C20.9491 12.7108 21.42 12.2542 21.7481 11.6996C22.0761 11.1451 22.2494 10.5129 22.2497 9.86892V6.86586C22.2586 6.22109 22.096 5.58547 21.7783 5.02396ZM15.6105 7.61663H16.7638C16.9633 7.61663 17.1546 7.69572 17.2956 7.83652C17.4367 7.97731 17.516 8.16828 17.516 8.36739C17.516 8.56651 17.4367 8.75741 17.2956 8.89821C17.1546 9.039 16.9633 9.11816 16.7638 9.11816H15.6105V7.61663ZM7.23629 7.61663H8.38952V9.0881H7.23629C7.0368 9.0881 6.84541 9.009 6.70435 8.86821C6.56329 8.72741 6.48411 8.53645 6.48411 8.33733C6.48411 8.13822 6.56329 7.94725 6.70435 7.80646C6.84541 7.66566 7.0368 7.58657 7.23629 7.58657V7.61663ZM9.24208 18.3676L8.12888 16.4356C8.03024 16.2688 7.87077 16.1464 7.68387 16.0942C7.49696 16.042 7.29708 16.0638 7.12598 16.1553L5.19033 17.2764L6.19323 13.3925C6.54961 13.3019 6.88849 13.1531 7.19613 12.952L9.45265 11.5406C9.58252 11.6324 9.72013 11.7128 9.86388 11.7808C10.181 11.9203 10.5207 12.0017 10.8668 12.0211L9.24208 18.3676ZM11.0072 10.5195C10.8413 10.5221 10.6768 10.4879 10.5257 10.4195C10.375 10.349 10.2416 10.2465 10.1347 10.1192L10.0544 9.999C9.92708 9.80975 9.86067 9.58631 9.86388 9.35839V7.35635C9.86649 7.05185 9.98885 6.76055 10.2046 6.54522C10.4203 6.3299 10.712 6.20777 11.0171 6.20516H12.9226C13.0739 6.20544 13.2236 6.23569 13.363 6.29411C13.5024 6.35254 13.6289 6.43799 13.735 6.54553C13.9499 6.76134 14.0722 7.05213 14.076 7.35635V9.35839C14.0732 9.60701 14.0216 9.84853 13.8744 10.0491L13.8454 10.1092C13.7421 10.2402 13.6076 10.3434 13.4542 10.4095C13.3031 10.4779 13.1387 10.5121 12.9728 10.5095L11.0072 10.5195ZM17.1449 16.1553C17.0589 16.1067 16.9641 16.0755 16.866 16.0635C16.768 16.0514 16.6684 16.0588 16.5732 16.0852C16.4767 16.1097 16.3861 16.1534 16.3068 16.2136C16.2276 16.2738 16.1613 16.3493 16.1119 16.4356L15.0387 18.3475L13.3339 11.9911C13.5728 11.9516 13.8054 11.8809 14.0258 11.7808C14.177 11.711 14.3215 11.6272 14.4571 11.5306L16.7237 12.942C17.1237 13.1928 17.5707 13.3598 18.0374 13.4325L19.0403 17.2664L17.1449 16.1553Z" fill="black"/>
</svg>
