<svg width="24" height="24" viewBox="0 0 24 24" fill="none" xmlns="http://www.w3.org/2000/svg">
<path d="M22.0776 8.34729C21.9404 8.20495 21.774 8.09406 21.5899 8.02221V4.64678C21.5899 4.45658 21.5144 4.27416 21.3799 4.13967C21.2454 4.00518 21.0629 3.92963 20.8727 3.92963C20.6825 3.92963 20.5002 4.00518 20.3657 4.13967C20.2312 4.27416 20.1556 4.45658 20.1556 4.64678V7.85004H19.9452C19.6094 6.71821 18.9169 5.72515 17.971 5.01872C17.025 4.31229 15.8763 3.9303 14.6957 3.92963H9.42698C8.24637 3.9303 7.09751 4.31229 6.15158 5.01872C5.20565 5.72515 4.51327 6.71821 4.17742 7.85004H3.90008V4.64678C3.90008 4.45658 3.82459 4.27416 3.6901 4.13967C3.5556 4.00518 3.37313 3.92963 3.18293 3.92963C2.99273 3.92963 2.81037 4.00518 2.67588 4.13967C2.54139 4.27416 2.46578 4.45658 2.46578 4.64678V8.03173C2.29104 8.10631 2.13205 8.21341 1.99725 8.34729C1.67997 8.66819 1.50139 9.10086 1.5 9.55212V14.4479C1.5 14.8993 1.67933 15.3322 1.99853 15.6514C2.31772 15.9706 2.75066 16.15 3.20207 16.15H4.15828C4.49412 17.2818 5.18662 18.2748 6.13255 18.9813C7.07848 19.6877 8.22723 20.0697 9.40784 20.0704H14.5905C15.7711 20.0697 16.9199 19.6877 17.8658 18.9813C18.8117 18.2748 19.5042 17.2818 19.8401 16.15H20.7963C21.2477 16.15 21.6806 15.9706 21.9998 15.6514C22.319 15.3322 22.4983 14.8993 22.4983 14.4479V9.55212C22.5177 9.11144 22.367 8.68015 22.0776 8.34729ZM3.99568 14.7156H3.24036C3.20501 14.7162 3.16988 14.7096 3.13706 14.6965C3.10423 14.6834 3.0743 14.6639 3.04905 14.6391C3.00075 14.5871 2.97354 14.5189 2.97259 14.4479V9.55212C2.97131 9.51821 2.97678 9.48437 2.98858 9.45255C3.00039 9.42074 3.01825 9.39157 3.04134 9.3667C3.06443 9.34183 3.0922 9.32177 3.12305 9.30764C3.1539 9.29351 3.1873 9.28559 3.22122 9.28435H3.99568C3.99094 9.32565 3.99094 9.36736 3.99568 9.40866V14.5913C3.99094 14.6326 3.99094 14.6743 3.99568 14.7156ZM8.30818 11.847V9.88677C8.29581 9.77328 8.30752 9.65846 8.34249 9.54978C8.37746 9.44111 8.43493 9.34103 8.51116 9.25605C8.58739 9.17106 8.68063 9.1031 8.78488 9.05657C8.88913 9.01003 9.0021 8.98601 9.11626 8.98601C9.23042 8.98601 9.34327 9.01003 9.44752 9.05657C9.55177 9.1031 9.64501 9.17106 9.72124 9.25605C9.79747 9.34103 9.85494 9.44111 9.88991 9.54978C9.92488 9.65846 9.93659 9.77328 9.92422 9.88677V11.847C9.93659 11.9605 9.92488 12.0753 9.88991 12.184C9.85494 12.2927 9.79747 12.3928 9.72124 12.4778C9.64501 12.5627 9.55177 12.6307 9.44752 12.6772C9.34327 12.7238 9.23042 12.7478 9.11626 12.7478C9.0021 12.7478 8.88913 12.7238 8.78488 12.6772C8.68063 12.6307 8.58739 12.5627 8.51116 12.4778C8.43493 12.3928 8.37746 12.2927 8.34249 12.184C8.30752 12.0753 8.29581 11.9605 8.30818 11.847ZM14.5905 15.5093C13.9157 16.1761 13.0052 16.5501 12.0565 16.5501C11.1078 16.5501 10.1974 16.1761 9.52258 15.5093C9.37076 15.3569 9.28551 15.1506 9.28551 14.9356C9.28551 14.7205 9.37076 14.5141 9.52258 14.3618C9.59736 14.2855 9.68669 14.2248 9.78521 14.1834C9.88372 14.142 9.98942 14.1208 10.0963 14.1208C10.2031 14.1208 10.3089 14.142 10.4075 14.1834C10.506 14.2248 10.5953 14.2855 10.6701 14.3618C11.0447 14.7162 11.5408 14.9137 12.0565 14.9137C12.5723 14.9137 13.0683 14.7162 13.443 14.3618C13.5178 14.2855 13.6071 14.2248 13.7056 14.1834C13.8041 14.142 13.91 14.1208 14.0168 14.1208C14.1237 14.1208 14.2294 14.142 14.3279 14.1834C14.4264 14.2248 14.5157 14.2855 14.5905 14.3618C14.6671 14.4374 14.7279 14.5275 14.7694 14.6268C14.811 14.7261 14.8324 14.8327 14.8324 14.9403C14.8324 15.048 14.811 15.1546 14.7694 15.2539C14.7279 15.3532 14.6671 15.4432 14.5905 15.5188V15.5093ZM15.9578 11.8183H14.0454C13.8298 11.8183 13.6232 11.7327 13.4708 11.5803C13.3183 11.4278 13.2327 11.2211 13.2327 11.0056C13.2326 10.8993 13.2538 10.794 13.2948 10.696C13.3357 10.5979 13.3958 10.5089 13.4714 10.4342C13.547 10.3595 13.6366 10.3005 13.7352 10.2607C13.8337 10.2209 13.9391 10.2011 14.0454 10.2023H15.9578C16.0641 10.2011 16.1696 10.2209 16.2682 10.2607C16.3667 10.3005 16.4564 10.3595 16.532 10.4342C16.6076 10.5089 16.6676 10.5979 16.7086 10.696C16.7496 10.794 16.7707 10.8993 16.7707 11.0056C16.772 11.1131 16.7518 11.2198 16.7115 11.3195C16.6712 11.4192 16.6116 11.51 16.536 11.5864C16.4604 11.6629 16.3703 11.7237 16.2711 11.7651C16.1719 11.8065 16.0654 11.8279 15.9578 11.8279V11.8183ZM21.1405 14.4383C21.1395 14.5093 21.1123 14.5775 21.064 14.6296C21.0388 14.6543 21.0089 14.6738 20.976 14.6869C20.9432 14.7001 20.9081 14.7066 20.8727 14.7061H20.1174C20.1221 14.6648 20.1221 14.6231 20.1174 14.5818V9.37044C20.1221 9.32914 20.1221 9.28743 20.1174 9.24613H20.8823C20.9162 9.24582 20.9498 9.25246 20.981 9.26562C21.0123 9.27877 21.0406 9.29817 21.064 9.32264C21.1123 9.37472 21.1395 9.44287 21.1405 9.51389V14.4383Z" fill="black"/>
</svg>
