<svg width="24" height="24" viewBox="0 0 24 24" fill="none" xmlns="http://www.w3.org/2000/svg">
<path d="M21.7496 8.42827C21.6173 8.29853 21.4653 8.19047 21.2994 8.10811V4.87658C21.2994 4.67757 21.2203 4.48671 21.0796 4.34599C20.9389 4.20527 20.748 4.12622 20.549 4.12622C20.3517 4.12885 20.1635 4.20907 20.0249 4.3495C19.8863 4.48994 19.8086 4.67929 19.8087 4.87658V7.92803H19.6386C19.2992 6.82861 18.617 5.86658 17.6918 5.18255C16.7665 4.49853 15.6468 4.12839 14.4961 4.12622H9.49377C8.34315 4.12839 7.22339 4.49853 6.29816 5.18255C5.37293 5.86658 4.69073 6.82861 4.35131 7.92803H4.19126V4.87658C4.19126 4.67757 4.11221 4.48671 3.97149 4.34599C3.83077 4.20527 3.63991 4.12622 3.4409 4.12622C3.2419 4.12622 3.05104 4.20527 2.91032 4.34599C2.7696 4.48671 2.69055 4.67757 2.69055 4.87658V8.09811C2.51897 8.1708 2.36531 8.28007 2.24032 8.41827C2.08272 8.57561 1.95819 8.76286 1.874 8.96904C1.78981 9.17521 1.74768 9.39615 1.7501 9.61884V14.3711C1.74877 14.5948 1.79186 14.8166 1.87687 15.0235C1.96187 15.2305 2.08713 15.4185 2.24533 15.5767C2.40353 15.7349 2.5915 15.8601 2.79845 15.9451C3.0054 16.0301 3.22719 16.0732 3.45092 16.0719H4.35131C4.69073 17.1713 5.37293 18.1334 6.29816 18.8174C7.22339 19.5014 8.34315 19.8715 9.49377 19.8737H14.4961C15.643 19.8735 16.76 19.5077 17.6847 18.8295C18.6095 18.1512 19.2939 17.1957 19.6386 16.1019H20.549C20.9994 16.0997 21.4309 15.92 21.7496 15.6017C22.0688 15.2836 22.2487 14.8518 22.2498 14.4011V9.64885C22.2531 9.42218 22.2104 9.19719 22.1245 8.98743C22.0385 8.77767 21.911 8.58747 21.7496 8.42827ZM8.09314 12.5202C7.89442 12.5214 7.69982 12.4633 7.53422 12.3535C7.36862 12.2436 7.23952 12.0869 7.16331 11.9034C7.08711 11.7199 7.06725 11.5178 7.10634 11.323C7.14543 11.1281 7.24168 10.9493 7.38278 10.8094L7.65293 10.5393L7.38278 10.2691C7.19644 10.0817 7.09187 9.82811 7.09187 9.5638C7.09187 9.29949 7.19644 9.04592 7.38278 8.85846C7.47579 8.76469 7.58646 8.69027 7.70837 8.63947C7.83029 8.58868 7.96106 8.56253 8.09314 8.56253C8.22521 8.56253 8.35599 8.58868 8.4779 8.63947C8.59982 8.69027 8.71043 8.76469 8.80344 8.85846L9.06357 9.1286L9.33372 8.85846C9.52511 8.69456 9.77128 8.60892 10.0231 8.61865C10.2749 8.62838 10.5137 8.73275 10.6919 8.91093C10.8701 9.08911 10.9745 9.32796 10.9842 9.57975C10.9939 9.83155 10.9083 10.0777 10.7444 10.2691L10.4743 10.5393L10.7444 10.8094C10.9307 10.9969 11.0353 11.2504 11.0353 11.5147C11.0353 11.779 10.9307 12.0326 10.7444 12.2201C10.5569 12.4064 10.3034 12.511 10.0391 12.511C9.77476 12.511 9.52117 12.4064 9.33372 12.2201L9.06357 11.9499L8.80344 12.2201C8.71078 12.3146 8.60033 12.3898 8.47839 12.4413C8.35646 12.4928 8.22551 12.5197 8.09314 12.5202ZM13.8459 16.8022H10.044C9.77868 16.8022 9.52421 16.6968 9.33659 16.5092C9.14896 16.3216 9.04354 16.0671 9.04354 15.8018C9.04354 15.5364 9.14896 15.2819 9.33659 15.0943C9.52421 14.9067 9.77868 14.8013 10.044 14.8013H13.8459C14.1112 14.8013 14.3657 14.9067 14.5533 15.0943C14.7409 15.2819 14.8463 15.5364 14.8463 15.8018C14.8463 16.0671 14.7409 16.3216 14.5533 16.5092C14.3657 16.6968 14.1112 16.8022 13.8459 16.8022ZM16.5972 10.7994C16.7383 10.9393 16.8345 11.1181 16.8736 11.313C16.9126 11.5078 16.8928 11.7099 16.8166 11.8934C16.7404 12.0769 16.6113 12.2336 16.4457 12.3435C16.2801 12.4533 16.0855 12.5114 15.8868 12.5102C15.6229 12.5064 15.3712 12.3986 15.1865 12.2101L14.9164 11.9399L14.6462 12.2101C14.4588 12.3964 14.2052 12.501 13.9409 12.501C13.6766 12.501 13.423 12.3964 13.2355 12.2101C13.0492 12.0226 12.9446 11.769 12.9446 11.5047C12.9446 11.2404 13.0492 10.9868 13.2355 10.7994L13.5057 10.5293L13.2355 10.2591C13.0716 10.0677 12.986 9.82155 12.9957 9.56976C13.0055 9.31796 13.1099 9.0791 13.2881 8.90092C13.4662 8.72274 13.705 8.61836 13.9568 8.60864C14.2086 8.59891 14.4548 8.68456 14.6462 8.84847L14.9164 9.1186L15.1865 8.84847C15.2762 8.74373 15.3865 8.65867 15.5107 8.59862C15.6348 8.53857 15.77 8.50482 15.9078 8.4995C16.0455 8.49418 16.183 8.51739 16.3113 8.56769C16.4397 8.61799 16.5563 8.69428 16.6538 8.79178C16.7513 8.88928 16.8277 9.00589 16.878 9.13428C16.9283 9.26266 16.9514 9.40006 16.9461 9.53785C16.9408 9.67563 16.907 9.81083 16.847 9.93495C16.7869 10.0591 16.7019 10.1694 16.5972 10.2591L16.327 10.5293L16.5972 10.7994Z" fill="black"/>
</svg>
