<svg width="24" height="24" viewBox="0 0 24 24" fill="none" xmlns="http://www.w3.org/2000/svg">
<path d="M22.0776 8.34729C21.9404 8.20495 21.774 8.09406 21.5899 8.02221V4.64678C21.5899 4.45658 21.5144 4.27416 21.3799 4.13967C21.2454 4.00518 21.0629 3.92963 20.8727 3.92963C20.6833 3.9321 20.5023 4.00846 20.3684 4.14241C20.2344 4.27637 20.158 4.45735 20.1556 4.64678V7.85004H19.9452C19.6094 6.71821 18.9169 5.72515 17.971 5.01872C17.025 4.31229 15.8763 3.9303 14.6957 3.92963H9.42698C8.24637 3.9303 7.09751 4.31229 6.15158 5.01872C5.20565 5.72515 4.51327 6.71821 4.17742 7.85004H3.90008V4.64678C3.90008 4.45658 3.82459 4.27416 3.6901 4.13967C3.5556 4.00518 3.37313 3.92963 3.18293 3.92963C2.99273 3.92963 2.81037 4.00518 2.67588 4.13967C2.54139 4.27416 2.46578 4.45658 2.46578 4.64678V8.03173C2.29104 8.10631 2.13205 8.21341 1.99725 8.34729C1.67997 8.66819 1.50139 9.10086 1.5 9.55212V14.4479C1.5 14.8993 1.67933 15.3322 1.99853 15.6514C2.31772 15.9706 2.75066 16.15 3.20207 16.15H4.15828C4.49412 17.2818 5.18662 18.2748 6.13255 18.9813C7.07848 19.6877 8.22723 20.0697 9.40784 20.0704H14.5905C15.7711 20.0697 16.9199 19.6877 17.8658 18.9813C18.8117 18.2748 19.5042 17.2818 19.8401 16.15H20.7963C21.2477 16.15 21.6806 15.9706 21.9998 15.6514C22.319 15.3322 22.4983 14.8993 22.4983 14.4479V9.55212C22.5177 9.11144 22.367 8.68015 22.0776 8.34729ZM3.99568 14.7156H3.24036C3.20501 14.7162 3.16988 14.7096 3.13706 14.6965C3.10423 14.6834 3.0743 14.6639 3.04905 14.6391C3.00075 14.5871 2.97354 14.5189 2.97259 14.4479V9.55212C2.97131 9.51821 2.97678 9.48437 2.98858 9.45255C3.00039 9.42074 3.01825 9.39157 3.04134 9.3667C3.06443 9.34183 3.0922 9.32177 3.12305 9.30764C3.1539 9.29351 3.1873 9.28559 3.22122 9.28435H3.99568C3.99094 9.32565 3.99094 9.36736 3.99568 9.40866V14.5913C3.99094 14.6326 3.99094 14.6743 3.99568 14.7156ZM8.2986 11.4837V8.90191C8.28624 8.78842 8.29795 8.6736 8.33292 8.56492C8.36789 8.45625 8.42536 8.35617 8.50159 8.27119C8.57782 8.1862 8.67106 8.11824 8.77531 8.0717C8.87955 8.02517 8.99253 8.00109 9.10669 8.00109C9.22085 8.00109 9.3337 8.02517 9.43795 8.0717C9.5422 8.11824 9.63544 8.1862 9.71167 8.27119C9.7879 8.35617 9.84537 8.45625 9.88034 8.56492C9.9153 8.6736 9.92702 8.78842 9.91465 8.90191V11.4837C9.92702 11.5972 9.9153 11.712 9.88034 11.8207C9.84537 11.9293 9.7879 12.0294 9.71167 12.1144C9.63544 12.1994 9.5422 12.2673 9.43795 12.3139C9.3337 12.3604 9.22085 12.3844 9.10669 12.3844C8.99253 12.3844 8.87955 12.3604 8.77531 12.3139C8.67106 12.2673 8.57782 12.1994 8.50159 12.1144C8.42536 12.0294 8.36789 11.9293 8.33292 11.8207C8.29795 11.712 8.28624 11.5972 8.2986 11.4837ZM14.0358 16.2647H10.1154C9.89986 16.2647 9.69321 16.1791 9.54078 16.0266C9.38836 15.8742 9.30267 15.6674 9.30267 15.4519C9.30267 15.2363 9.38836 15.0296 9.54078 14.8772C9.69321 14.7248 9.89986 14.6391 10.1154 14.6391H14.0358C14.2514 14.6391 14.4582 14.7248 14.6106 14.8772C14.763 15.0296 14.8487 15.2363 14.8487 15.4519C14.8487 15.6674 14.763 15.8742 14.6106 16.0266C14.4582 16.1791 14.2514 16.2647 14.0358 16.2647ZM15.8239 11.4837C15.8239 11.6992 15.7384 11.9059 15.5859 12.0584C15.4335 12.2108 15.2267 12.2964 15.0112 12.2964C14.7956 12.2964 14.589 12.2108 14.4366 12.0584C14.2841 11.9059 14.1984 11.6992 14.1984 11.4837V8.90191C14.1984 8.68634 14.2841 8.47958 14.4366 8.32716C14.589 8.17473 14.7956 8.0891 15.0112 8.0891C15.2267 8.0891 15.4335 8.17473 15.5859 8.32716C15.7384 8.47958 15.8239 8.68634 15.8239 8.90191V11.4837ZM21.1692 14.4479C21.1683 14.5189 21.1409 14.5871 21.0926 14.6391C21.0674 14.6639 21.0376 14.6834 21.0047 14.6965C20.9719 14.7096 20.9368 14.7162 20.9014 14.7156H20.146C20.1507 14.6743 20.1507 14.6326 20.146 14.5913V9.37044C20.1507 9.32914 20.1507 9.28743 20.146 9.24613H20.911C20.9449 9.24582 20.9785 9.25246 21.0098 9.26562C21.041 9.27877 21.0692 9.29817 21.0926 9.32264C21.1409 9.37472 21.1683 9.44287 21.1692 9.51389V14.4479Z" fill="black"/>
</svg>
