<svg width="24" height="24" viewBox="0 0 24 24" fill="none" xmlns="http://www.w3.org/2000/svg">
<path d="M21.7496 8.42827C21.6246 8.29007 21.4709 8.1808 21.2994 8.10811V4.87658C21.2994 4.67757 21.2203 4.48671 21.0796 4.34599C20.9389 4.20527 20.748 4.12622 20.549 4.12622C20.3517 4.12885 20.1635 4.20907 20.0249 4.3495C19.8863 4.48994 19.8086 4.67929 19.8087 4.87658V7.92803H19.6386C19.2992 6.82861 18.617 5.86658 17.6918 5.18255C16.7665 4.49853 15.6468 4.12839 14.4961 4.12622H9.49377C8.34315 4.12839 7.22339 4.49853 6.29816 5.18255C5.37293 5.86658 4.69073 6.82861 4.35131 7.92803H4.19126V4.87658C4.19126 4.67757 4.11221 4.48671 3.97149 4.34599C3.83077 4.20527 3.63991 4.12622 3.4409 4.12622C3.2419 4.12622 3.05104 4.20527 2.91032 4.34599C2.7696 4.48671 2.69055 4.67757 2.69055 4.87658V8.09811C2.51897 8.1708 2.36531 8.28007 2.24032 8.41827C2.08272 8.57561 1.95819 8.76286 1.874 8.96904C1.78981 9.17521 1.74768 9.39615 1.7501 9.61884V14.3711C1.74879 14.5936 1.7914 14.8142 1.87552 15.0202C1.95965 15.2263 2.08362 15.4137 2.24032 15.5717C2.56213 15.8915 2.99723 16.0713 3.45092 16.0719H4.35131C4.69073 17.1713 5.37293 18.1334 6.29816 18.8174C7.22339 19.5014 8.34315 19.8715 9.49377 19.8737H14.4961C15.643 19.8735 16.76 19.5077 17.6847 18.8295C18.6095 18.1512 19.2939 17.1957 19.6386 16.1019H20.549C20.9993 16.0993 21.4304 15.9192 21.7488 15.6008C22.0672 15.2825 22.2472 14.8514 22.2498 14.4011V9.64885C22.2531 9.42218 22.2104 9.19719 22.1245 8.98743C22.0385 8.77767 21.911 8.58747 21.7496 8.42827ZM8.13314 11.4997V8.99853C8.13314 8.73319 8.23856 8.47871 8.42618 8.29109C8.61381 8.10346 8.86827 7.99806 9.13361 7.99806C9.39895 7.99806 9.65341 8.10346 9.84104 8.29109C10.0287 8.47871 10.1341 8.73319 10.1341 8.99853V11.4997C10.1341 11.7651 10.0287 12.0195 9.84104 12.2072C9.65341 12.3948 9.39895 12.5002 9.13361 12.5002C8.86827 12.5002 8.61381 12.3948 8.42618 12.2072C8.23856 12.0195 8.13314 11.7651 8.13314 11.4997ZM13.8859 16.332H10.0841C9.81873 16.332 9.56427 16.2266 9.37665 16.039C9.18902 15.8514 9.0836 15.5969 9.0836 15.3315C9.0836 15.0662 9.18902 14.8117 9.37665 14.6241C9.56427 14.4365 9.81873 14.3311 10.0841 14.3311H13.8859C14.1512 14.3311 14.4057 14.4365 14.5933 14.6241C14.7809 14.8117 14.8863 15.0662 14.8863 15.3315C14.8863 15.5969 14.7809 15.8514 14.5933 16.039C14.4057 16.2266 14.1512 16.332 13.8859 16.332ZM15.8868 11.4997C15.8868 11.7651 15.7814 12.0195 15.5938 12.2072C15.4061 12.3948 15.1517 12.5002 14.8863 12.5002C14.621 12.5002 14.3665 12.3948 14.1789 12.2072C13.9913 12.0195 13.8859 11.7651 13.8859 11.4997V8.99853C13.8859 8.73319 13.9913 8.47871 14.1789 8.29109C14.3665 8.10346 14.621 7.99806 14.8863 7.99806C15.1517 7.99806 15.4061 8.10346 15.5938 8.29109C15.7814 8.47871 15.8868 8.73319 15.8868 8.99853V11.4997Z" fill="black"/>
</svg>
