<svg width="24" height="24" viewBox="0 0 24 24" fill="none" xmlns="http://www.w3.org/2000/svg">
<path d="M22.0776 8.34729C21.9404 8.20495 21.774 8.09406 21.5899 8.02221V4.64678C21.5899 4.45658 21.5144 4.27416 21.3799 4.13967C21.2454 4.00518 21.0629 3.92963 20.8727 3.92963C20.6825 3.92963 20.5002 4.00518 20.3657 4.13967C20.2312 4.27416 20.1556 4.45658 20.1556 4.64678V7.85004H19.9452C19.6094 6.71821 18.9169 5.72515 17.971 5.01872C17.025 4.31229 15.8763 3.9303 14.6957 3.92963H9.42698C8.24637 3.9303 7.09751 4.31229 6.15158 5.01872C5.20565 5.72515 4.51327 6.71821 4.17742 7.85004H3.90008V4.64678C3.90008 4.45658 3.82459 4.27416 3.6901 4.13967C3.5556 4.00518 3.37313 3.92963 3.18293 3.92963C2.99273 3.92963 2.81037 4.00518 2.67588 4.13967C2.54139 4.27416 2.46578 4.45658 2.46578 4.64678V8.03173C2.29104 8.10631 2.13205 8.21341 1.99725 8.34729C1.67997 8.66819 1.50139 9.10086 1.5 9.55212V14.4479C1.5 14.8993 1.67933 15.3322 1.99853 15.6514C2.31772 15.9706 2.75066 16.15 3.20207 16.15H4.15828C4.49412 17.2818 5.18662 18.2748 6.13255 18.9813C7.07848 19.6877 8.22723 20.0697 9.40784 20.0704H14.5905C15.7711 20.0697 16.9199 19.6877 17.8658 18.9813C18.8117 18.2748 19.5042 17.2818 19.8401 16.15H20.7963C21.2477 16.15 21.6806 15.9706 21.9998 15.6514C22.319 15.3322 22.4983 14.8993 22.4983 14.4479V9.55212C22.5177 9.11144 22.367 8.68015 22.0776 8.34729ZM3.99568 14.7156H3.24036C3.20501 14.7162 3.16988 14.7096 3.13706 14.6965C3.10423 14.6834 3.0743 14.6639 3.04905 14.6391C3.00075 14.5871 2.97354 14.5189 2.97259 14.4479V9.55212C2.97131 9.51821 2.97678 9.48437 2.98858 9.45255C3.00039 9.42074 3.01825 9.39157 3.04134 9.3667C3.06443 9.34183 3.0922 9.32177 3.12305 9.30764C3.1539 9.29351 3.1873 9.28559 3.22122 9.28435H3.99568C3.99094 9.32565 3.99094 9.36736 3.99568 9.40866V14.5913C3.99094 14.6326 3.99094 14.6743 3.99568 14.7156ZM8.69068 11.5984C8.53834 11.7502 8.33206 11.8355 8.11698 11.8355C7.90191 11.8355 7.69563 11.7502 7.54328 11.5984C7.39088 11.4444 7.3054 11.2365 7.3054 11.0199C7.3054 10.8032 7.39088 10.5954 7.54328 10.4414L8.49949 9.48518C8.65183 9.33336 8.85811 9.24811 9.07319 9.24811C9.28826 9.24811 9.49454 9.33336 9.64689 9.48518L10.6031 10.4414C10.7164 10.555 10.7934 10.6997 10.8246 10.8571C10.8558 11.0145 10.8398 11.1776 10.7784 11.3259C10.7171 11.4741 10.6132 11.6009 10.4799 11.6903C10.3467 11.7796 10.1899 11.8275 10.0294 11.8279C9.8154 11.8299 9.60926 11.7475 9.45569 11.5984L9.04447 11.1872L8.69068 11.5984ZM14.5905 15.6719C13.9157 16.3387 13.0052 16.7127 12.0565 16.7127C11.1078 16.7127 10.1974 16.3387 9.52258 15.6719C9.37076 15.5195 9.28551 15.3132 9.28551 15.0981C9.28551 14.883 9.37076 14.6767 9.52258 14.5244C9.59736 14.4481 9.68669 14.3874 9.78521 14.346C9.88372 14.3046 9.98942 14.2833 10.0963 14.2833C10.2031 14.2833 10.3089 14.3046 10.4075 14.346C10.506 14.3874 10.5953 14.4481 10.6701 14.5244C11.0447 14.8788 11.5408 15.0763 12.0565 15.0763C12.5723 15.0763 13.0683 14.8788 13.443 14.5244C13.5178 14.4481 13.6071 14.3874 13.7056 14.346C13.8041 14.3046 13.91 14.2833 14.0168 14.2833C14.1237 14.2833 14.2294 14.3046 14.3279 14.346C14.4264 14.3874 14.5157 14.4481 14.5905 14.5244C14.7423 14.6767 14.8276 14.883 14.8276 15.0981C14.8276 15.3132 14.7423 15.5195 14.5905 15.6719ZM16.5029 11.5984C16.3506 11.7502 16.1443 11.8355 15.9292 11.8355C15.7141 11.8355 15.5077 11.7502 15.3554 11.5984L14.9443 11.1872L14.5427 11.5984C14.3885 11.7466 14.1828 11.8289 13.969 11.8279C13.755 11.8299 13.5488 11.7475 13.3953 11.5984C13.2428 11.4444 13.1574 11.2365 13.1574 11.0199C13.1574 10.8032 13.2428 10.5954 13.3953 10.4414L14.3515 9.48518C14.5038 9.33336 14.7101 9.24811 14.9252 9.24811C15.1402 9.24811 15.3465 9.33336 15.4989 9.48518L16.4551 10.4414C16.6181 10.585 16.7176 10.7873 16.7319 11.0041C16.7463 11.2209 16.6743 11.4346 16.5316 11.5984H16.5029ZM21.1118 14.467C21.1108 14.538 21.0836 14.6062 21.0353 14.6583C21.0101 14.683 20.9801 14.7025 20.9473 14.7156C20.9145 14.7288 20.8794 14.7352 20.844 14.7347H20.0887C20.0934 14.6934 20.0934 14.6517 20.0887 14.6104V9.37044C20.0934 9.32914 20.0934 9.28743 20.0887 9.24613H20.8536C20.8875 9.24582 20.9211 9.25246 20.9523 9.26562C20.9836 9.27877 21.0119 9.29817 21.0353 9.32264C21.0836 9.37472 21.1108 9.44287 21.1118 9.51389V14.467Z" fill="black"/>
</svg>
