<svg width="24" height="24" viewBox="0 0 24 24" fill="none" xmlns="http://www.w3.org/2000/svg">
<path d="M22.0776 8.34729C21.9404 8.20495 21.774 8.09406 21.5899 8.02221V4.64678C21.5899 4.45658 21.5144 4.27416 21.3799 4.13967C21.2454 4.00518 21.0629 3.92963 20.8727 3.92963C20.6855 3.93889 20.5085 4.01741 20.3759 4.14994C20.2434 4.28248 20.1648 4.45957 20.1556 4.64678V7.85004H19.9452C19.6094 6.71821 18.9169 5.72515 17.971 5.01872C17.025 4.31229 15.8763 3.9303 14.6957 3.92963H9.42698C8.24637 3.9303 7.09751 4.31229 6.15158 5.01872C5.20565 5.72515 4.51327 6.71821 4.17742 7.85004H3.90008V4.64678C3.90008 4.45658 3.82459 4.27416 3.6901 4.13967C3.5556 4.00518 3.37313 3.92963 3.18293 3.92963C2.99273 3.92963 2.81037 4.00518 2.67588 4.13967C2.54139 4.27416 2.46578 4.45658 2.46578 4.64678V8.03173C2.29104 8.10631 2.13205 8.21341 1.99725 8.34729C1.67997 8.66819 1.50139 9.10086 1.5 9.55212V14.4479C1.5 14.8993 1.67933 15.3322 1.99853 15.6514C2.31772 15.9706 2.75066 16.15 3.20207 16.15H4.15828C4.49412 17.2818 5.18662 18.2748 6.13255 18.9813C7.07848 19.6877 8.22723 20.0697 9.40784 20.0704H14.5905C15.7711 20.0697 16.9199 19.6877 17.8658 18.9813C18.8117 18.2748 19.5042 17.2818 19.8401 16.15H20.7963C21.2477 16.15 21.6806 15.9706 21.9998 15.6514C22.319 15.3322 22.4983 14.8993 22.4983 14.4479V9.55212C22.5177 9.11144 22.367 8.68015 22.0776 8.34729ZM3.99568 14.7156H3.24036C3.20501 14.7162 3.16988 14.7096 3.13706 14.6965C3.10423 14.6834 3.0743 14.6639 3.04905 14.6391C3.00075 14.5871 2.97354 14.5189 2.97259 14.4479V9.55212C2.97131 9.51821 2.97678 9.48437 2.98858 9.45255C3.00039 9.42074 3.01825 9.39157 3.04134 9.3667C3.06443 9.34183 3.0922 9.32177 3.12305 9.30764C3.1539 9.29351 3.1873 9.28559 3.22122 9.28435H3.99568C3.99094 9.32565 3.99094 9.36736 3.99568 9.40866V14.5913C3.99094 14.6326 3.99094 14.6743 3.99568 14.7156ZM8.69068 11.5984C8.536 11.7457 8.33059 11.8279 8.11698 11.8279C7.90337 11.8279 7.69797 11.7457 7.54328 11.5984C7.39088 11.4444 7.3054 11.2365 7.3054 11.0199C7.3054 10.8032 7.39088 10.5954 7.54328 10.4414L8.49949 9.48518C8.65183 9.33336 8.85811 9.24811 9.07319 9.24811C9.28826 9.24811 9.49454 9.33336 9.64689 9.48518L10.6031 10.4414C10.7555 10.5954 10.841 10.8032 10.841 11.0199C10.841 11.2365 10.7555 11.4444 10.6031 11.5984C10.4507 11.7502 10.2445 11.8355 10.0294 11.8355C9.81432 11.8355 9.60804 11.7502 9.45569 11.5984L9.04447 11.1872L8.69068 11.5984ZM14.0072 16.2456H10.0867C9.87114 16.2456 9.6645 16.1599 9.51207 16.0075C9.35965 15.8551 9.27395 15.6484 9.27395 15.4328C9.27395 15.2172 9.35965 15.0105 9.51207 14.8581C9.6645 14.7056 9.87114 14.62 10.0867 14.62H14.0072C14.2228 14.62 14.4294 14.7056 14.5819 14.8581C14.7343 15.0105 14.82 15.2172 14.82 15.4328C14.82 15.6484 14.7343 15.8551 14.5819 16.0075C14.4294 16.1599 14.2228 16.2456 14.0072 16.2456ZM16.5316 11.5984C16.3775 11.7466 16.1716 11.8289 15.9578 11.8279C15.7438 11.8299 15.5377 11.7475 15.3841 11.5984L14.973 11.1872L14.5714 11.5984C14.419 11.7502 14.2127 11.8355 13.9977 11.8355C13.7826 11.8355 13.5763 11.7502 13.424 11.5984C13.2716 11.4444 13.186 11.2365 13.186 11.0199C13.186 10.8032 13.2716 10.5954 13.424 10.4414L14.3802 9.48518C14.5341 9.33277 14.742 9.24729 14.9587 9.24729C15.1753 9.24729 15.3832 9.33277 15.5371 9.48518L16.4933 10.4414C16.651 10.5903 16.7433 10.7954 16.7505 11.012C16.7577 11.2287 16.6791 11.4395 16.5316 11.5984ZM21.1405 14.467C21.1395 14.538 21.1123 14.6062 21.064 14.6583C21.0388 14.683 21.0089 14.7025 20.976 14.7156C20.9432 14.7288 20.9081 14.7352 20.8727 14.7347H20.1174C20.1221 14.6934 20.1221 14.6517 20.1174 14.6104V9.37044C20.1221 9.32914 20.1221 9.28743 20.1174 9.24613H20.8823C20.9162 9.24582 20.9498 9.25246 20.981 9.26562C21.0123 9.27877 21.0406 9.29817 21.064 9.32264C21.1123 9.37472 21.1395 9.44287 21.1405 9.51389V14.467Z" fill="black"/>
</svg>
