<svg width="24" height="24" viewBox="0 0 24 24" fill="none" xmlns="http://www.w3.org/2000/svg">
<path d="M22.0776 8.34729C21.9404 8.20495 21.774 8.09406 21.5899 8.02221V4.64678C21.5899 4.45658 21.5144 4.27416 21.3799 4.13967C21.2454 4.00518 21.0629 3.92963 20.8727 3.92963C20.6825 3.92963 20.5002 4.00518 20.3657 4.13967C20.2312 4.27416 20.1556 4.45658 20.1556 4.64678V7.85004H19.9452C19.6094 6.71821 18.9169 5.72515 17.971 5.01872C17.025 4.31229 15.8763 3.9303 14.6957 3.92963H9.42698C8.24637 3.9303 7.09751 4.31229 6.15158 5.01872C5.20565 5.72515 4.51327 6.71821 4.17742 7.85004H3.90008V4.64678C3.90008 4.5526 3.88161 4.45937 3.84557 4.37236C3.80953 4.28535 3.75669 4.20627 3.6901 4.13967C3.6235 4.07308 3.54436 4.02024 3.45735 3.9842C3.37034 3.94815 3.27711 3.92963 3.18293 3.92963C3.08875 3.92963 2.99552 3.94815 2.90851 3.9842C2.8215 4.02024 2.74247 4.07308 2.67588 4.13967C2.60929 4.20627 2.55644 4.28535 2.5204 4.37236C2.48436 4.45937 2.46578 4.5526 2.46578 4.64678V8.03173C2.29104 8.10631 2.13205 8.21341 1.99725 8.34729C1.67997 8.66819 1.50139 9.10086 1.5 9.55212V14.4479C1.5 14.8993 1.67933 15.3322 1.99853 15.6514C2.31772 15.9706 2.75066 16.15 3.20207 16.15H4.15828C4.49412 17.2818 5.18662 18.2748 6.13255 18.9813C7.07848 19.6877 8.22723 20.0697 9.40784 20.0704H14.5905C15.7711 20.0697 16.9199 19.6877 17.8658 18.9813C18.8117 18.2748 19.5042 17.2818 19.8401 16.15H20.7963C21.2477 16.15 21.6806 15.9706 21.9998 15.6514C22.319 15.3322 22.4983 14.8993 22.4983 14.4479V9.55212C22.5177 9.11144 22.367 8.68015 22.0776 8.34729ZM3.99568 14.7156H3.24036C3.20501 14.7162 3.16988 14.7096 3.13706 14.6965C3.10423 14.6834 3.0743 14.6639 3.04905 14.6391C3.00075 14.5871 2.97354 14.5189 2.97259 14.4479V9.55212C2.97131 9.51821 2.97678 9.48437 2.98858 9.45255C3.00039 9.42074 3.01825 9.39157 3.04134 9.3667C3.06443 9.34183 3.0922 9.32177 3.12305 9.30764C3.1539 9.29351 3.1873 9.28559 3.22122 9.28435H3.99568C3.99094 9.32565 3.99094 9.36736 3.99568 9.40866V14.5913C3.99094 14.6326 3.99094 14.6743 3.99568 14.7156ZM16.8854 13.4439C16.8829 14.3409 16.5254 15.2004 15.8912 15.8346C15.2569 16.4689 14.3974 16.8263 13.5004 16.8288H10.6318C9.73483 16.8263 8.87532 16.4689 8.24106 15.8346C7.6068 15.2004 7.24933 14.3409 7.2468 13.4439V10.5753C7.24933 9.67829 7.6068 8.81878 8.24106 8.18452C8.87532 7.55026 9.73483 7.19278 10.6318 7.19026H13.5004C14.3974 7.19278 15.2569 7.55026 15.8912 8.18452C16.5254 8.81878 16.8829 9.67829 16.8854 10.5753V13.4439ZM21.1405 14.4001C21.1395 14.4711 21.1123 14.5393 21.064 14.5913C21.0388 14.6161 21.0089 14.6356 20.976 14.6487C20.9432 14.6618 20.9081 14.6683 20.8727 14.6678H20.1174C20.1221 14.6265 20.1221 14.5848 20.1174 14.5435V9.37044C20.1221 9.32914 20.1221 9.28743 20.1174 9.24613H20.8823C20.9162 9.24582 20.9498 9.25246 20.981 9.26562C21.0123 9.27877 21.0406 9.29817 21.064 9.32264C21.1123 9.37472 21.1395 9.44287 21.1405 9.51389V14.4001Z" fill="black"/>
<path d="M13.5004 8.60547H10.6127C9.53537 8.60547 8.66202 9.47881 8.66202 10.5561V13.4439C8.66202 14.5212 9.53537 15.3945 10.6127 15.3945H13.5004C14.5777 15.3945 15.4511 14.5212 15.4511 13.4439V10.5561C15.4511 9.47881 14.5777 8.60547 13.5004 8.60547Z" fill="black"/>
</svg>
