<svg width="24" height="24" viewBox="0 0 24 24" fill="none" xmlns="http://www.w3.org/2000/svg">
<path d="M21.7496 8.42827C21.6246 8.29007 21.4709 8.1808 21.2994 8.10811V4.87658C21.2994 4.67757 21.2203 4.48671 21.0796 4.34599C20.9389 4.20527 20.748 4.12622 20.549 4.12622C20.3517 4.12885 20.1635 4.20907 20.0249 4.3495C19.8863 4.48994 19.8086 4.67929 19.8087 4.87658V7.92803H19.6386C19.2992 6.82861 18.617 5.86658 17.6918 5.18255C16.7665 4.49853 15.6468 4.12839 14.4961 4.12622H9.49377C8.34315 4.12839 7.22339 4.49853 6.29816 5.18255C5.37293 5.86658 4.69073 6.82861 4.35131 7.92803H4.19126V4.87658C4.19126 4.67757 4.11221 4.48671 3.97149 4.34599C3.83077 4.20527 3.63991 4.12622 3.4409 4.12622C3.2419 4.12622 3.05104 4.20527 2.91032 4.34599C2.7696 4.48671 2.69055 4.67757 2.69055 4.87658V8.09811C2.51897 8.1708 2.36531 8.28007 2.24032 8.41827C2.08272 8.57561 1.95819 8.76286 1.874 8.96904C1.78981 9.17521 1.74768 9.39615 1.7501 9.61884V14.3711C1.74879 14.5936 1.7914 14.8142 1.87552 15.0202C1.95965 15.2263 2.08362 15.4137 2.24032 15.5717C2.56213 15.8915 2.99723 16.0713 3.45092 16.0719H4.35131C4.69073 17.1713 5.37293 18.1334 6.29816 18.8174C7.22339 19.5014 8.34315 19.8715 9.49377 19.8737H14.4961C15.643 19.8735 16.76 19.5077 17.6847 18.8295C18.6095 18.1512 19.2939 17.1957 19.6386 16.1019H20.549C20.9993 16.0993 21.4304 15.9192 21.7488 15.6008C22.0672 15.2825 22.2472 14.8514 22.2498 14.4011V9.64885C22.2531 9.42218 22.2104 9.19719 22.1245 8.98743C22.0385 8.77767 21.911 8.58747 21.7496 8.42827ZM7.46283 11.7599C7.27649 11.5724 7.17186 11.3188 7.17186 11.0545C7.17186 10.7902 7.27649 10.5366 7.46283 10.3492L8.4133 9.39873C8.60075 9.21239 8.85428 9.10779 9.11859 9.10779C9.3829 9.10779 9.63649 9.21239 9.82394 9.39873L10.7744 10.3492C10.9115 10.489 11.0045 10.666 11.042 10.8582C11.0794 11.0505 11.0597 11.2494 10.9851 11.4305C10.9106 11.6116 10.7845 11.7668 10.6225 11.877C10.4606 11.9871 10.2699 12.0472 10.0741 12.05C9.94239 12.0507 9.81186 12.0255 9.68997 11.9757C9.56807 11.9259 9.45719 11.8526 9.3637 11.7599L9.1236 11.5197L8.87348 11.7599C8.68603 11.9462 8.43244 12.0508 8.16813 12.0508C7.90381 12.0508 7.65029 11.9462 7.46283 11.7599ZM13.8859 16.332H10.0841C9.81873 16.332 9.56427 16.2266 9.37665 16.039C9.18902 15.8514 9.0836 15.5969 9.0836 15.3315C9.0836 15.0662 9.18902 14.8117 9.37665 14.6241C9.56427 14.4365 9.81873 14.3311 10.0841 14.3311H13.8859C14.1512 14.3311 14.4057 14.4365 14.5933 14.6241C14.7809 14.8117 14.8863 15.0662 14.8863 15.3315C14.8863 15.5969 14.7809 15.8514 14.5933 16.039C14.4057 16.2266 14.1512 16.332 13.8859 16.332ZM16.4771 11.7599C16.2897 11.9462 16.0361 12.0508 15.7718 12.0508C15.5075 12.0508 15.2539 11.9462 15.0664 11.7599L14.8263 11.5197L14.5762 11.7599C14.3848 11.9238 14.1386 12.0094 13.8868 11.9997C13.6351 11.9899 13.3962 11.8856 13.218 11.7074C13.0398 11.5292 12.9354 11.2904 12.9257 11.0386C12.916 10.7868 13.0017 10.5406 13.1656 10.3492L14.166 9.39873C14.3535 9.21239 14.607 9.10779 14.8713 9.10779C15.1356 9.10779 15.3892 9.21239 15.5767 9.39873L16.5772 10.3492C16.7508 10.5496 16.8378 10.8107 16.8191 11.0752C16.8003 11.3397 16.6773 11.586 16.4771 11.7599Z" fill="black"/>
</svg>
