<svg width="24" height="24" viewBox="0 0 24 24" fill="none" xmlns="http://www.w3.org/2000/svg">
<path d="M21.7496 8.42827C21.6173 8.29853 21.4653 8.19047 21.2994 8.10811V4.87658C21.2968 4.67838 21.2169 4.48902 21.0767 4.34886C20.9366 4.2087 20.7472 4.12881 20.549 4.12622C20.4509 4.12621 20.3539 4.14568 20.2634 4.18351C20.1729 4.22134 20.0908 4.27677 20.022 4.34659C19.9531 4.4164 19.8988 4.4992 19.8622 4.59019C19.8255 4.68117 19.8073 4.77851 19.8087 4.87658V7.92803H19.6386C19.2992 6.82861 18.617 5.86658 17.6918 5.18255C16.7665 4.49853 15.6468 4.12839 14.4961 4.12622H9.49377C8.34315 4.12839 7.22339 4.49853 6.29816 5.18255C5.37293 5.86658 4.69073 6.82861 4.35131 7.92803H4.19126V4.87658C4.19126 4.67757 4.11221 4.48671 3.97149 4.34599C3.83077 4.20527 3.63991 4.12622 3.4409 4.12622C3.2419 4.12622 3.05104 4.20527 2.91032 4.34599C2.7696 4.48671 2.69055 4.67757 2.69055 4.87658V8.09811C2.51897 8.1708 2.36531 8.28007 2.24032 8.41827C2.08272 8.57561 1.95819 8.76286 1.874 8.96904C1.78981 9.17521 1.74768 9.39615 1.7501 9.61884V14.3711C1.74877 14.5948 1.79186 14.8166 1.87687 15.0235C1.96187 15.2305 2.08713 15.4185 2.24533 15.5767C2.40353 15.7349 2.5915 15.8601 2.79845 15.9451C3.0054 16.0301 3.22719 16.0732 3.45092 16.0719H4.35131C4.69073 17.1713 5.37293 18.1334 6.29816 18.8174C7.22339 19.5014 8.34315 19.8715 9.49377 19.8737H14.4961C15.643 19.8735 16.76 19.5077 17.6847 18.8295C18.6095 18.1512 19.2939 17.1957 19.6386 16.1019H20.549C20.9994 16.0997 21.4309 15.92 21.7496 15.6017C22.0688 15.2836 22.2487 14.8518 22.2498 14.4011V9.64885C22.2531 9.42218 22.2104 9.19719 22.1245 8.98743C22.0385 8.77767 21.911 8.58747 21.7496 8.42827ZM6.46236 9.86895C6.46236 9.60361 6.56772 9.34914 6.75535 9.16151C6.94297 8.97389 7.19749 8.86848 7.46283 8.86848C7.72818 8.86848 7.98264 8.97389 8.17026 9.16151C8.35789 9.34914 8.46331 9.60361 8.46331 9.86895C8.46331 10.2391 8.59333 10.4692 8.79342 10.4692C8.99352 10.4692 9.1236 10.2391 9.1236 9.86895C9.1236 9.60361 9.22902 9.34914 9.41664 9.16151C9.60427 8.97389 9.85873 8.86848 10.1241 8.86848C10.3894 8.86848 10.6439 8.97389 10.8315 9.16151C11.0191 9.34914 11.1245 9.60361 11.1245 9.86895C11.149 10.1943 11.1075 10.5212 11.0024 10.83C10.8974 11.1389 10.731 11.4233 10.5133 11.6663C10.2956 11.9093 10.031 12.1057 9.73546 12.2438C9.43992 12.382 9.11946 12.459 8.79342 12.4702C8.48459 12.4692 8.17916 12.4057 7.89547 12.2836C7.61179 12.1616 7.35575 11.9834 7.14268 11.7599C6.68296 11.2394 6.43958 10.563 6.46236 9.86895ZM14.6362 16.6021C14.2208 16.9121 13.7137 17.0741 13.1955 17.0624C12.7786 17.0673 12.3666 16.9712 11.995 16.7822C11.5768 16.9902 11.1109 17.0831 10.6449 17.0515C10.179 17.0198 9.72992 16.8647 9.34373 16.6021C9.1003 16.4075 8.90568 16.1588 8.77541 15.8756C8.64514 15.5925 8.58281 15.2829 8.59338 14.9714C8.59338 14.706 8.69874 14.4516 8.88636 14.2639C9.07399 14.0763 9.32851 13.9709 9.59385 13.9709C9.85919 13.9709 10.1137 14.0763 10.3013 14.2639C10.4889 14.4516 10.5943 14.706 10.5943 14.9714C10.5889 14.9978 10.5889 15.025 10.5943 15.0514C10.7352 15.0892 10.8836 15.0892 11.0245 15.0514C11.0879 14.8475 11.2147 14.6692 11.3866 14.5426C11.5585 14.416 11.7664 14.3477 11.9799 14.3477C12.1934 14.3477 12.4014 14.416 12.5733 14.5426C12.7452 14.6692 12.8721 14.8475 12.9354 15.0514C13.0814 15.101 13.2397 15.101 13.3856 15.0514C13.3856 14.7861 13.4911 14.5316 13.6787 14.344C13.8663 14.1563 14.1208 14.0509 14.3861 14.0509C14.6514 14.0509 14.9059 14.1563 15.0935 14.344C15.2812 14.5316 15.3866 14.7861 15.3866 15.0514C15.3849 15.3495 15.3167 15.6434 15.1868 15.9117C15.057 16.18 14.8689 16.4159 14.6362 16.6021ZM14.9664 12.4702C14.6593 12.4678 14.3557 12.4037 14.0738 12.2817C13.792 12.1596 13.5375 11.9822 13.3256 11.7599C12.8614 11.2415 12.6142 10.5645 12.6353 9.86895C12.6353 9.60361 12.7407 9.34914 12.9283 9.16151C13.1159 8.97389 13.3704 8.86848 13.6358 8.86848C13.9011 8.86848 14.1556 8.97389 14.3432 9.16151C14.5308 9.34914 14.6362 9.60361 14.6362 9.86895C14.6362 10.2391 14.7663 10.4692 14.9664 10.4692C15.1665 10.4692 15.3065 10.2391 15.3065 9.86895C15.3065 9.60361 15.4119 9.34914 15.5996 9.16151C15.7872 8.97389 16.0417 8.86848 16.307 8.86848C16.5723 8.86848 16.8269 8.97389 17.0145 9.16151C17.2021 9.34914 17.3075 9.60361 17.3075 9.86895C17.332 10.1951 17.2901 10.5228 17.1845 10.8323C17.0788 11.1418 16.9115 11.4267 16.6927 11.6698C16.474 11.9129 16.2082 12.1092 15.9115 12.2467C15.6148 12.3843 15.2933 12.4603 14.9664 12.4702Z" fill="black"/>
</svg>
