<svg width="24" height="24" viewBox="0 0 24 24" fill="none" xmlns="http://www.w3.org/2000/svg">
<path d="M21.7496 8.42833C21.6246 8.29013 21.4709 8.18086 21.2994 8.10817V4.87664C21.2994 4.67763 21.2203 4.48677 21.0796 4.34605C20.9389 4.20533 20.748 4.12628 20.549 4.12628C20.3517 4.12891 20.1635 4.20913 20.0249 4.34956C19.8863 4.49 19.8086 4.67935 19.8087 4.87664V7.92809H19.6386C19.2992 6.82867 18.617 5.86664 17.6918 5.18262C16.7665 4.49859 15.6468 4.12845 14.4961 4.12628H9.49377C8.34315 4.12845 7.22339 4.49859 6.29816 5.18262C5.37293 5.86664 4.69073 6.82867 4.35131 7.92809H4.19126V4.87664C4.19126 4.67763 4.11221 4.48677 3.97149 4.34605C3.83077 4.20533 3.63991 4.12628 3.4409 4.12628C3.2419 4.12628 3.05104 4.20533 2.91032 4.34605C2.7696 4.48677 2.69055 4.67763 2.69055 4.87664V8.09817C2.51897 8.17086 2.36531 8.28013 2.24032 8.41833C2.08272 8.57567 1.95819 8.76292 1.874 8.9691C1.78981 9.17527 1.74768 9.39621 1.7501 9.6189V14.3712C1.74879 14.5937 1.7914 14.8143 1.87552 15.0203C1.95965 15.2263 2.08362 15.4137 2.24032 15.5717C2.56213 15.8915 2.99723 16.0713 3.45092 16.072H4.35131C4.69073 17.1714 5.37293 18.1334 6.29816 18.8174C7.22339 19.5015 8.34315 19.8716 9.49377 19.8738H14.4961C15.643 19.8736 16.76 19.5078 17.6847 18.8295C18.6095 18.1512 19.2939 17.1958 19.6386 16.102H20.549C20.9993 16.0993 21.4304 15.9193 21.7488 15.6009C22.0672 15.2825 22.2472 14.8514 22.2498 14.4012V9.64891C22.2531 9.42224 22.2104 9.19725 22.1245 8.98749C22.0385 8.77773 21.911 8.58753 21.7496 8.42833ZM8.13314 11.4998V8.99859C8.13314 8.73325 8.23856 8.47877 8.42618 8.29115C8.61381 8.10352 8.86827 7.99812 9.13361 7.99812C9.39895 7.99812 9.65341 8.10352 9.84104 8.29115C10.0287 8.47877 10.1341 8.73325 10.1341 8.99859V11.4998C10.1341 11.7651 10.0287 12.0196 9.84104 12.2072C9.65341 12.3948 9.39895 12.5003 9.13361 12.5003C8.86827 12.5003 8.61381 12.3948 8.42618 12.2072C8.23856 12.0196 8.13314 11.7651 8.13314 11.4998ZM14.5962 16.0419C14.4099 16.2268 14.1583 16.331 13.8959 16.3321C13.7635 16.3315 13.6326 16.3047 13.5106 16.2532C13.3887 16.2017 13.2782 16.1265 13.1855 16.0319C12.8659 15.7197 12.4368 15.5449 11.9899 15.5449C11.5431 15.5449 11.114 15.7197 10.7944 16.0319C10.6069 16.2183 10.3534 16.3229 10.0891 16.3229C9.82477 16.3229 9.57118 16.2183 9.38373 16.0319C9.28996 15.9389 9.21555 15.8283 9.16475 15.7064C9.11396 15.5845 9.08781 15.4537 9.08781 15.3216C9.08781 15.1895 9.11396 15.0588 9.16475 14.9368C9.21555 14.8149 9.28996 14.7043 9.38373 14.6113C9.72504 14.2673 10.1311 13.9944 10.5784 13.8081C11.0257 13.6218 11.5054 13.5259 11.9899 13.5259C12.4745 13.5259 12.9543 13.6218 13.4016 13.8081C13.8489 13.9944 14.2549 14.2673 14.5962 14.6113C14.6942 14.7017 14.773 14.8109 14.8282 14.9323C14.8833 15.0537 14.9137 15.1849 14.9174 15.3182C14.9212 15.4515 14.8982 15.5842 14.8499 15.7084C14.8016 15.8327 14.729 15.9461 14.6362 16.0419H14.5962ZM15.8368 11.4998C15.8368 11.7651 15.7314 12.0196 15.5438 12.2072C15.3561 12.3948 15.1017 12.5003 14.8363 12.5003C14.571 12.5003 14.3165 12.3948 14.1289 12.2072C13.9413 12.0196 13.8359 11.7651 13.8359 11.4998V8.99859C13.8359 8.73325 13.9413 8.47877 14.1289 8.29115C14.3165 8.10352 14.571 7.99812 14.8363 7.99812C15.1017 7.99812 15.3561 8.10352 15.5438 8.29115C15.7314 8.47877 15.8368 8.73325 15.8368 8.99859V11.4998Z" fill="black"/>
</svg>
