<svg width="24" height="24" viewBox="0 0 24 24" fill="none" xmlns="http://www.w3.org/2000/svg">
<path d="M22.0776 8.34729C21.9404 8.20495 21.774 8.09406 21.5899 8.02221V4.64678C21.5899 4.45658 21.5144 4.27416 21.3799 4.13967C21.2454 4.00518 21.0629 3.92963 20.8727 3.92963C20.6825 3.92963 20.5002 4.00518 20.3657 4.13967C20.2312 4.27416 20.1556 4.45658 20.1556 4.64678V7.85004H19.9452C19.6094 6.71821 18.9169 5.72515 17.971 5.01872C17.025 4.31229 15.8763 3.9303 14.6957 3.92963H9.42698C8.24637 3.9303 7.09751 4.31229 6.15158 5.01872C5.20565 5.72515 4.51327 6.71821 4.17742 7.85004H3.90008V4.64678C3.90008 4.45658 3.82459 4.27416 3.6901 4.13967C3.5556 4.00518 3.37313 3.92963 3.18293 3.92963C2.99273 3.92963 2.81037 4.00518 2.67588 4.13967C2.54139 4.27416 2.46578 4.45658 2.46578 4.64678V8.03173C2.29104 8.10631 2.13205 8.21341 1.99725 8.34729C1.67997 8.66819 1.50139 9.10086 1.5 9.55212V14.4479C1.5 14.8993 1.67933 15.3322 1.99853 15.6514C2.31772 15.9706 2.75066 16.15 3.20207 16.15H4.15828C4.49412 17.2818 5.18662 18.2748 6.13255 18.9813C7.07848 19.6877 8.22723 20.0697 9.40784 20.0704H14.5905C15.7711 20.0697 16.9199 19.6877 17.8658 18.9813C18.8117 18.2748 19.5042 17.2818 19.8401 16.15H20.7963C21.2477 16.15 21.6806 15.9706 21.9998 15.6514C22.319 15.3322 22.4983 14.8993 22.4983 14.4479V9.55212C22.5177 9.11144 22.367 8.68015 22.0776 8.34729ZM3.99568 14.7156H3.24036C3.20501 14.7162 3.16988 14.7096 3.13706 14.6965C3.10423 14.6834 3.0743 14.6639 3.04905 14.6391C3.00075 14.5871 2.97354 14.5189 2.97259 14.4479V9.55212C2.97131 9.51821 2.97678 9.48437 2.98858 9.45255C3.00039 9.42074 3.01825 9.39157 3.04134 9.3667C3.06443 9.34183 3.0922 9.32177 3.12305 9.30764C3.1539 9.29351 3.1873 9.28559 3.22122 9.28435H3.99568C3.99094 9.32565 3.99094 9.36736 3.99568 9.40866V14.5913C3.99094 14.6326 3.99094 14.6743 3.99568 14.7156ZM7.06518 11.5315C6.64094 11.0573 6.41799 10.4365 6.44362 9.80074C6.44361 9.61218 6.51779 9.43118 6.65022 9.29696C6.78266 9.16274 6.96267 9.0861 7.15121 9.08359C7.3423 9.08357 7.52574 9.15882 7.66176 9.29305C7.79777 9.42727 7.87542 9.60967 7.87793 9.80074C7.87793 10.4892 8.22222 10.7569 8.5282 10.7569C8.83419 10.7569 9.18793 10.5083 9.18793 9.80074C9.18793 9.61054 9.26354 9.42812 9.39803 9.29363C9.53252 9.15914 9.71488 9.08359 9.90508 9.08359C10.0953 9.08359 10.2776 9.15914 10.4121 9.29363C10.5466 9.42812 10.6222 9.61054 10.6222 9.80074C10.6512 10.0961 10.619 10.3943 10.5277 10.6768C10.4364 10.9592 10.2878 11.2198 10.0914 11.4423C9.8949 11.6648 9.65473 11.8444 9.38577 11.9699C9.11682 12.0955 8.82492 12.1643 8.5282 12.1721C8.25349 12.1711 7.9818 12.1137 7.73016 12.0035C7.47852 11.8933 7.25224 11.7327 7.06518 11.5315ZM14.5905 16.4942C14.218 16.7711 13.7637 16.9158 13.2997 16.9053C12.864 16.9078 12.4353 16.7956 12.0565 16.5802C11.6679 16.8028 11.225 16.9126 10.7774 16.8974C10.3298 16.8822 9.89522 16.7426 9.52258 16.4942C9.31135 16.3211 9.14287 16.1016 9.03012 15.8529C8.91736 15.6042 8.86341 15.3328 8.87242 15.0599C8.87242 14.8697 8.94792 14.6873 9.08241 14.5528C9.2169 14.4183 9.39937 14.3427 9.58958 14.3427C9.77978 14.3427 9.96213 14.4183 10.0966 14.5528C10.2311 14.6873 10.3067 14.8697 10.3067 15.0599C10.3067 15.2989 10.3832 15.3754 10.5266 15.4232C10.6629 15.4649 10.8063 15.4779 10.9478 15.4614C11.0893 15.4449 11.2259 15.3994 11.349 15.3276C11.3766 15.1599 11.463 15.0075 11.5926 14.8975C11.7222 14.7875 11.8866 14.7271 12.0565 14.7271C12.2265 14.7271 12.3909 14.7875 12.5205 14.8975C12.6501 15.0075 12.7365 15.1599 12.7641 15.3276C12.8872 15.3994 13.0238 15.4449 13.1653 15.4614C13.3068 15.4779 13.4502 15.4649 13.5864 15.4232C13.7299 15.3754 13.8064 15.2989 13.8064 15.0599C13.8064 14.8697 13.882 14.6873 14.0165 14.5528C14.151 14.4183 14.3333 14.3427 14.5235 14.3427C14.7137 14.3427 14.8962 14.4183 15.0307 14.5528C15.1652 14.6873 15.2407 14.8697 15.2407 15.0599C15.2497 15.3328 15.1957 15.6042 15.083 15.8529C14.9702 16.1016 14.8017 16.3211 14.5905 16.4942ZM15.3937 12.1721C15.1177 12.1701 14.845 12.1124 14.5919 12.0023C14.3388 11.8922 14.1107 11.732 13.9211 11.5315C13.4969 11.0573 13.274 10.4365 13.2997 9.80074C13.2997 9.61054 13.3752 9.42812 13.5096 9.29363C13.6441 9.15914 13.8266 9.08359 14.0168 9.08359C14.207 9.08359 14.3894 9.15914 14.5239 9.29363C14.6584 9.42812 14.734 9.61054 14.734 9.80074C14.734 10.4892 15.0877 10.7569 15.3937 10.7569C15.6997 10.7569 16.044 10.5083 16.044 9.80074C16.044 9.61054 16.1195 9.42812 16.2539 9.29363C16.3884 9.15914 16.5709 9.08359 16.7611 9.08359C16.9513 9.08359 17.1337 9.15914 17.2682 9.29363C17.4027 9.42812 17.4783 9.61054 17.4783 9.80074C17.5072 10.0954 17.4753 10.3928 17.3845 10.6746C17.2938 10.9564 17.1461 11.2165 16.9507 11.4388C16.7552 11.6612 16.5162 11.841 16.2483 11.9671C15.9805 12.0933 15.6896 12.1631 15.3937 12.1721ZM21.1309 14.4479C21.13 14.5189 21.1028 14.5871 21.0545 14.6391C21.0292 14.6639 20.9993 14.6834 20.9665 14.6965C20.9336 14.7096 20.8985 14.7162 20.8632 14.7156H20.1078C20.1126 14.6743 20.1126 14.6326 20.1078 14.5913V9.37044C20.1126 9.32914 20.1126 9.28743 20.1078 9.24613H20.8727C20.9066 9.24582 20.9402 9.25246 20.9715 9.26562C21.0027 9.27877 21.031 9.29817 21.0545 9.32264C21.1028 9.37472 21.13 9.44287 21.1309 9.51389V14.4479Z" fill="black"/>
</svg>
