<svg width="24" height="24" viewBox="0 0 24 24" fill="none" xmlns="http://www.w3.org/2000/svg">
<path d="M21.7496 8.42827C21.6173 8.29853 21.4653 8.19047 21.2994 8.10811V4.87658C21.2968 4.67838 21.2169 4.48902 21.0767 4.34886C20.9366 4.2087 20.7472 4.12881 20.549 4.12622C20.4509 4.12621 20.3539 4.14568 20.2634 4.18351C20.1729 4.22134 20.0908 4.27677 20.022 4.34659C19.9531 4.4164 19.8988 4.4992 19.8622 4.59019C19.8255 4.68117 19.8073 4.77851 19.8087 4.87658V7.92803H19.6386C19.2992 6.82861 18.617 5.86658 17.6918 5.18255C16.7665 4.49853 15.6468 4.12839 14.4961 4.12622H9.49377C8.34315 4.12839 7.22339 4.49853 6.29816 5.18255C5.37293 5.86658 4.69073 6.82861 4.35131 7.92803H4.19126V4.87658C4.19126 4.67757 4.11221 4.48671 3.97149 4.34599C3.83077 4.20527 3.63991 4.12622 3.4409 4.12622C3.2419 4.12622 3.05104 4.20527 2.91032 4.34599C2.7696 4.48671 2.69055 4.67757 2.69055 4.87658V8.09811C2.51897 8.1708 2.36531 8.28007 2.24032 8.41827C2.08272 8.57561 1.95819 8.76286 1.874 8.96904C1.78981 9.17521 1.74768 9.39615 1.7501 9.61884V14.3711C1.74877 14.5948 1.79186 14.8166 1.87687 15.0235C1.96187 15.2305 2.08713 15.4185 2.24533 15.5767C2.40353 15.7349 2.5915 15.8601 2.79845 15.9451C3.0054 16.0301 3.22719 16.0732 3.45092 16.0719H4.35131C4.69073 17.1713 5.37293 18.1334 6.29816 18.8174C7.22339 19.5014 8.34315 19.8715 9.49377 19.8737H14.4961C15.643 19.8735 16.76 19.5077 17.6847 18.8295C18.6095 18.1512 19.2939 17.1957 19.6386 16.1019H20.549C20.9994 16.0997 21.4309 15.92 21.7496 15.6017C22.0688 15.2836 22.2487 14.8518 22.2498 14.4011V9.64885C22.2531 9.42218 22.2104 9.19719 22.1245 8.98743C22.0385 8.77767 21.911 8.58747 21.7496 8.42827ZM16.0169 13.1905C16.0142 13.9424 15.7137 14.6625 15.1812 15.1932C14.6486 15.7239 13.9274 16.0219 13.1755 16.0219H10.8044C10.0525 16.0219 9.33137 15.7239 8.7988 15.1932C8.26623 14.6625 7.96572 13.9424 7.96307 13.1905V10.8194C7.96571 10.0666 8.2659 9.34546 8.79819 8.81317C9.33047 8.28088 10.0516 7.98069 10.8044 7.97806H13.1755C13.9283 7.98069 14.6495 8.28088 15.1818 8.81317C15.7141 9.34546 16.0142 10.0666 16.0169 10.8194V13.1905Z" fill="black"/>
</svg>
