<svg width="24" height="24" viewBox="0 0 24 24" fill="none" xmlns="http://www.w3.org/2000/svg">
<path d="M21.7496 8.42827C21.6173 8.29853 21.4653 8.19047 21.2994 8.10811V4.87658C21.2968 4.67838 21.2169 4.48902 21.0767 4.34886C20.9366 4.2087 20.7472 4.12881 20.549 4.12622C20.4509 4.12621 20.3539 4.14568 20.2634 4.18351C20.1729 4.22134 20.0908 4.27677 20.022 4.34659C19.9531 4.4164 19.8988 4.4992 19.8622 4.59019C19.8255 4.68117 19.8073 4.77851 19.8087 4.87658V7.92803H19.6386C19.2992 6.82861 18.617 5.86658 17.6918 5.18255C16.7665 4.49853 15.6468 4.12839 14.4961 4.12622H9.49377C8.34315 4.12839 7.22339 4.49853 6.29816 5.18255C5.37293 5.86658 4.69073 6.82861 4.35131 7.92803H4.19126V4.87658C4.19126 4.67757 4.11221 4.48671 3.97149 4.34599C3.83077 4.20527 3.63991 4.12622 3.4409 4.12622C3.2419 4.12622 3.05104 4.20527 2.91032 4.34599C2.7696 4.48671 2.69055 4.67757 2.69055 4.87658V8.09811C2.51897 8.1708 2.36531 8.28007 2.24032 8.41827C2.08272 8.57561 1.95819 8.76286 1.874 8.96904C1.78981 9.17521 1.74768 9.39615 1.7501 9.61884V14.3711C1.74877 14.5948 1.79186 14.8166 1.87687 15.0235C1.96187 15.2305 2.08713 15.4185 2.24533 15.5767C2.40353 15.7349 2.5915 15.8601 2.79845 15.9451C3.0054 16.0301 3.22719 16.0732 3.45092 16.0719H4.35131C4.69073 17.1713 5.37293 18.1334 6.29816 18.8174C7.22339 19.5014 8.34315 19.8715 9.49377 19.8737H14.4961C15.643 19.8735 16.76 19.5077 17.6847 18.8295C18.6095 18.1512 19.2939 17.1957 19.6386 16.1019H20.549C20.9994 16.0997 21.4309 15.92 21.7496 15.6017C22.0688 15.2836 22.2487 14.8518 22.2498 14.4011V9.64885C22.2531 9.42218 22.2104 9.19719 22.1245 8.98743C22.0385 8.77767 21.911 8.58747 21.7496 8.42827ZM8.14315 11.8599V9.95899C8.14315 9.69365 8.24857 9.43918 8.4362 9.25155C8.62382 9.06392 8.87828 8.95852 9.14363 8.95852C9.40897 8.95852 9.66343 9.06392 9.85105 9.25155C10.0387 9.43918 10.1441 9.69365 10.1441 9.95899V11.8599C10.1441 12.1252 10.0387 12.3797 9.85105 12.5673C9.66343 12.755 9.40897 12.8604 9.14363 12.8604C8.87828 12.8604 8.62382 12.755 8.4362 12.5673C8.24857 12.3797 8.14315 12.1252 8.14315 11.8599ZM14.5962 15.5617C14.2542 15.9044 13.848 16.1763 13.4008 16.3618C12.9536 16.5474 12.4741 16.6429 11.9899 16.6429C11.5058 16.6429 11.0264 16.5474 10.5792 16.3618C10.132 16.1763 9.72572 15.9044 9.38373 15.5617C9.19534 15.3746 9.089 15.1203 9.08806 14.8549C9.08712 14.5894 9.19166 14.3344 9.37872 14.146C9.56579 13.9576 9.82005 13.8512 10.0855 13.8503C10.351 13.8494 10.606 13.9539 10.7944 14.141C11.1164 14.4486 11.5446 14.6202 11.9899 14.6202C12.4353 14.6202 12.8635 14.4486 13.1855 14.141C13.2788 14.0483 13.3894 13.975 13.5111 13.9251C13.6327 13.8752 13.763 13.8498 13.8944 13.8503C14.0259 13.8508 14.156 13.8771 14.2772 13.9278C14.3985 13.9786 14.5086 14.0527 14.6012 14.146C14.6939 14.2393 14.7672 14.3499 14.817 14.4715C14.8669 14.5931 14.8924 14.7234 14.8919 14.8549C14.8914 14.9863 14.8651 15.1164 14.8144 15.2377C14.7636 15.3589 14.6895 15.469 14.5962 15.5617ZM15.7768 12.05H13.8759C13.6105 12.05 13.3561 11.9446 13.1684 11.757C12.9808 11.5693 12.8754 11.3149 12.8754 11.0495C12.8754 10.7842 12.9808 10.5297 13.1684 10.3421C13.3561 10.1544 13.6105 10.049 13.8759 10.049H15.7768C16.0421 10.049 16.2966 10.1544 16.4842 10.3421C16.6718 10.5297 16.7773 10.7842 16.7773 11.0495C16.7773 11.3149 16.6718 11.5693 16.4842 11.757C16.2966 11.9446 16.0421 12.05 15.7768 12.05Z" fill="black"/>
</svg>
