<svg width="24" height="24" viewBox="0 0 24 24" fill="none" xmlns="http://www.w3.org/2000/svg">
<path d="M21.8177 3.54944C21.55 2.92922 21.0498 2.43778 20.4239 2.17993C20.1273 2.06172 19.8108 2.00067 19.4913 2H19.4112C18.3222 2.00374 17.2461 2.23532 16.2526 2.67975C15.6287 2.94795 15.0529 3.31602 14.5481 3.76936L14.2773 4.04926L14.2072 4.10924L9.43428 8.87752L7.42886 8.46766C6.86524 8.35735 6.2829 8.38826 5.73422 8.55763C5.18813 8.73041 4.69025 9.02824 4.28035 9.42731L2.40529 11.2966C2.21826 11.4747 2.08904 11.7044 2.0343 11.9564C1.97314 12.2096 1.99414 12.4756 2.0944 12.7161C2.19382 12.9552 2.36107 13.1602 2.57567 13.3059C2.7885 13.4503 3.0403 13.527 3.29772 13.5258H5.77437C5.72238 13.7859 5.69556 14.0504 5.6942 14.3155C5.69135 15.1209 5.93244 15.9083 6.38601 16.5747L4.54106 18.4041C4.40023 18.5447 4.32111 18.7352 4.32111 18.9339C4.32111 19.1326 4.40023 19.3231 4.54106 19.4637C4.61049 19.5338 4.69326 19.5893 4.78452 19.6271C4.87578 19.6649 4.97372 19.6841 5.07253 19.6836C5.17142 19.6846 5.26944 19.6657 5.36078 19.6279C5.45212 19.5901 5.53478 19.5342 5.60387 19.4637L7.44894 17.6344C8.11399 18.0947 8.90531 18.3391 9.71494 18.3341C9.98097 18.3332 10.2463 18.3065 10.5071 18.2541V20.6932C10.5088 20.9481 10.5845 21.197 10.7251 21.4099C10.8657 21.6227 11.0652 21.7905 11.2993 21.8928C11.4608 21.9615 11.6351 21.9955 11.8107 21.9928C11.8906 22.0024 11.9714 22.0024 12.0513 21.9928C12.3039 21.9418 12.5368 21.8205 12.7231 21.6429L14.6182 19.7436C15.0296 19.3436 15.3301 18.8442 15.4905 18.2941C15.6571 17.7463 15.6847 17.1658 15.5708 16.6047L15.1697 14.6054L19.9025 9.88715L20.1131 9.68722L20.3237 9.47729C20.746 8.96731 21.0845 8.39371 21.3264 7.77791C21.7787 6.77581 22.0078 5.68791 21.9981 4.58906C22.0119 4.23372 21.9505 3.87948 21.8177 3.54944ZM7.9001 16.0949C7.72133 15.9117 7.5664 15.7069 7.4389 15.4851L11.4497 11.4866C11.5907 11.3462 11.7818 11.2673 11.9811 11.2673C12.1804 11.2673 12.3715 11.3462 12.5125 11.4866C12.6534 11.6272 12.7325 11.8177 12.7325 12.0164C12.7325 12.2151 12.6534 12.4056 12.5125 12.5462L8.5017 16.5447C8.27902 16.4267 8.07609 16.275 7.9001 16.0949ZM20.5141 4.53908C20.5195 5.43058 20.335 6.31307 19.9727 7.12815C19.8075 7.51987 19.5881 7.88661 19.3209 8.21775C17.9642 7.23329 16.7641 6.05039 15.7613 4.70901C16.0967 4.43945 16.4678 4.21744 16.8642 4.04926C17.6709 3.6859 18.5461 3.49845 19.4312 3.49946C19.5682 3.50571 19.7035 3.53267 19.8323 3.57943C19.9598 3.62879 20.0758 3.70363 20.1732 3.79935C20.2731 3.89144 20.3517 4.00397 20.4038 4.12924C20.4553 4.25637 20.4826 4.39198 20.4841 4.52908L20.5141 4.53908Z" fill="black"/>
</svg>
