<svg width="24" height="24" viewBox="0 0 24 24" fill="none" xmlns="http://www.w3.org/2000/svg">
<path d="M21.0099 6.62005L18.0099 3.20007C17.6557 2.80777 17.2231 2.49428 16.74 2.28003C16.4993 2.17794 16.2477 2.10414 15.99 2.06005C15.9275 2.04518 15.8624 2.04518 15.7999 2.06005C15.5999 2.06005 15.41 2.01006 15.21 2.00006H6.86C6.22111 1.99695 5.58788 2.12084 4.99732 2.36462C4.40677 2.6084 3.8706 2.96717 3.41993 3.42004C2.51414 4.33227 2.00408 5.56449 2.00001 6.85003V17.14C1.99869 17.7786 2.12343 18.4112 2.3672 19.0015C2.61097 19.5917 2.96887 20.128 3.42042 20.5795C3.87198 21.0311 4.40831 21.389 4.99855 21.6328C5.58878 21.8766 6.2214 22.0014 6.86 22.0001H17.1399C18.428 21.9974 19.6628 21.4845 20.5736 20.5737C21.4845 19.6628 21.9974 18.4282 22 17.14V9.14001C21.9934 8.2064 21.6405 7.30849 21.0099 6.62005ZM8.93995 3.42004H15.0399V6.91003C15.0406 7.01248 15.0206 7.11404 14.9811 7.20855C14.9416 7.30307 14.8834 7.38858 14.8099 7.46002C14.6666 7.60517 14.4737 7.69093 14.2699 7.70007H9.70997C9.5029 7.69244 9.30635 7.60664 9.15992 7.46002C9.01891 7.31159 8.94021 7.11476 8.93995 6.91003V3.42004ZM17.74 20.36C17.5392 20.4003 17.3348 20.4204 17.13 20.42H16.24V15.9C16.2374 15.5693 16.1048 15.2529 15.871 15.019C15.6371 14.7852 15.3207 14.6526 14.99 14.65H8.99C8.65848 14.65 8.34051 14.7818 8.10609 15.0162C7.87167 15.2506 7.74 15.5685 7.74 15.9V20.42H6.84999C6.64694 20.4353 6.44305 20.4353 6.24 20.42V15.9501C6.24 15.2207 6.5297 14.5212 7.04542 14.0055C7.56115 13.4898 8.26066 13.2001 8.99 13.2001H14.99C15.7177 13.2053 16.4141 13.4967 16.9287 14.0113C17.4433 14.5259 17.7348 15.2223 17.74 15.9501V20.36ZM9.38002 17.77C9.38261 17.5719 9.46245 17.3826 9.60255 17.2425C9.74264 17.1025 9.93191 17.0226 10.13 17.02H13.84C14.0381 17.0226 14.2273 17.1025 14.3674 17.2425C14.5075 17.3826 14.5874 17.5719 14.59 17.77C14.5913 17.8689 14.5729 17.967 14.5357 18.0587C14.4984 18.1503 14.4432 18.2334 14.3733 18.3033C14.3034 18.3733 14.2202 18.4285 14.1286 18.4657C14.0369 18.5029 13.9388 18.5214 13.84 18.52H10.13C9.93712 18.5228 9.7507 18.4501 9.61061 18.3175C9.47051 18.1849 9.38782 18.0028 9.38002 17.8101V17.77Z" fill="black"/>
</svg>
