<svg width="24" height="24" viewBox="0 0 24 24" fill="none" xmlns="http://www.w3.org/2000/svg">
<path d="M21.02 6.67L18.02 3.25C17.6648 2.85448 17.2281 2.54062 16.74 2.33C16.5335 2.23172 16.3149 2.16111 16.09 2.12C15.9985 2.08012 15.8998 2.05969 15.8 2.06C15.6058 2.02056 15.4081 2.00047 15.21 2H6.85999C5.57055 1.99926 4.33351 2.50992 3.42004 3.42C2.51547 4.33711 2.00574 5.57185 2 6.86V17.15C2 17.7877 2.12576 18.4192 2.37012 19.0083C2.61448 19.5974 2.97265 20.1325 3.42407 20.583C3.8755 21.0335 4.41139 21.3905 5.00098 21.6337C5.59056 21.8768 6.22223 22.0013 6.85999 22H17.14C17.7778 22.0013 18.4096 21.8768 18.9991 21.6337C19.5887 21.3905 20.1245 21.0335 20.5759 20.583C21.0274 20.1325 21.3855 19.5974 21.6299 19.0083C21.8742 18.4192 22 17.7877 22 17.15V9.14999C21.9901 8.23081 21.6411 7.34767 21.02 6.67ZM8.95007 3.5H15.05V7C15.0492 7.20656 14.9665 7.40436 14.8201 7.55C14.6759 7.69129 14.4819 7.7703 14.28 7.77001H9.71997C9.6181 7.77276 9.51679 7.75472 9.42212 7.717C9.32745 7.67928 9.24149 7.62266 9.16943 7.5506C9.09738 7.47854 9.04077 7.39256 9.00305 7.29789C8.96533 7.20322 8.94732 7.10187 8.95007 7V3.5ZM17.75 20.5C17.5482 20.532 17.3443 20.5487 17.14 20.55H6.85999C6.65569 20.5487 6.45179 20.532 6.25 20.5V16.03C6.24867 15.669 6.31893 15.3112 6.45679 14.9776C6.59464 14.6439 6.79734 14.3408 7.0531 14.086C7.30886 13.8312 7.61259 13.6296 7.94678 13.493C8.28096 13.3563 8.63897 13.2873 9 13.29H15C15.7276 13.29 16.4256 13.5784 16.941 14.0919C17.4565 14.6055 17.7474 15.3024 17.75 16.03V20.5Z" fill="black"/>
<path d="M15.73 16.98C15.73 17.1789 15.651 17.3697 15.5104 17.5103C15.3697 17.651 15.1789 17.73 14.98 17.73H8.97998C8.78107 17.73 8.59036 17.651 8.44971 17.5103C8.30905 17.3697 8.22998 17.1789 8.22998 16.98C8.22998 16.7811 8.30905 16.5903 8.44971 16.4496C8.59036 16.309 8.78107 16.23 8.97998 16.23H14.98C15.1781 16.2326 15.3674 16.3124 15.5074 16.4525C15.6475 16.5926 15.7274 16.7819 15.73 16.98Z" fill="black"/>
</svg>
