<svg width="24" height="24" viewBox="0 0 24 24" fill="none" xmlns="http://www.w3.org/2000/svg">
<path d="M21.221 8.62344C21.0224 8.62344 20.8319 8.54462 20.6915 8.40432C20.5511 8.26402 20.4722 8.07372 20.4722 7.87531V5.83042C20.4722 5.21309 20.2274 4.62089 19.7914 4.18344C19.3553 3.74598 18.7636 3.4989 18.1457 3.49626H15.1003C14.9017 3.49626 14.7112 3.41744 14.5708 3.27714C14.4303 3.13684 14.3514 2.94655 14.3514 2.74813C14.3514 2.54971 14.4303 2.35942 14.5708 2.21912C14.7112 2.07882 14.9017 2 15.1003 2H18.1756C18.6787 2.00084 19.1767 2.10084 19.641 2.29426C20.1053 2.48768 20.5269 2.77073 20.8815 3.12718C21.2397 3.47996 21.5232 3.90103 21.7153 4.3654C21.9075 4.82978 22.0042 5.32797 21.9999 5.83042V7.87531C22.0014 7.97653 21.982 8.07698 21.943 8.17042C21.904 8.26386 21.8462 8.34829 21.7732 8.41845C21.7001 8.48862 21.6134 8.54303 21.5184 8.57829C21.4235 8.61356 21.3222 8.62892 21.221 8.62344Z" fill="black"/>
<path d="M2.74897 8.62344C2.55036 8.62344 2.35988 8.54462 2.21944 8.40432C2.079 8.26402 2.00011 8.07372 2.00011 7.87531V5.83042C1.99632 5.32806 2.09332 4.83002 2.2854 4.36573C2.47747 3.90144 2.76071 3.4803 3.11841 3.12718C3.47306 2.77073 3.89462 2.48768 4.35895 2.29426C4.82328 2.10084 5.32125 2.00084 5.82433 2H8.89966C9.09827 2 9.28875 2.07882 9.42919 2.21912C9.56963 2.35942 9.64853 2.54971 9.64853 2.74813C9.64853 2.94655 9.56963 3.13684 9.42919 3.27714C9.28875 3.41744 9.09827 3.49626 8.89966 3.49626H5.82433C5.20627 3.50147 4.615 3.74907 4.17795 4.18568C3.7409 4.6223 3.49306 5.21298 3.48785 5.83042V7.87531C3.48917 7.97308 3.47105 8.07014 3.43451 8.16085C3.39797 8.25156 3.34375 8.33412 3.275 8.40373C3.20626 8.47333 3.12435 8.5286 3.03405 8.56631C2.94375 8.60403 2.84685 8.62345 2.74897 8.62344Z" fill="black"/>
<path d="M21.9799 16.0748V18.1795C21.9802 18.6823 21.8805 19.1801 21.6869 19.6441C21.4932 20.1081 21.2093 20.5292 20.8516 20.8828C20.1356 21.5897 19.1723 21.9903 18.1657 22H5.81435C4.79717 21.9797 3.82881 21.5605 3.11843 20.8329C2.41813 20.1258 2.02066 19.1742 2.0101 18.1795V16.0748C2.0101 15.8764 2.089 15.6861 2.22944 15.5458C2.36988 15.4055 2.56036 15.3267 2.75897 15.3267C2.95758 15.3267 3.14806 15.4055 3.2885 15.5458C3.42894 15.6861 3.50784 15.8764 3.50784 16.0748V18.1795C3.51385 18.6646 3.67228 19.1355 3.96075 19.5257C4.24921 19.9159 4.65313 20.2057 5.11541 20.3541C5.66458 17.3616 9.01951 15.1671 11.9551 15.1671C14.8906 15.1671 18.2356 17.3716 18.7847 20.3541C19.1616 20.2497 19.5054 20.0505 19.7832 19.7756C20.0009 19.5601 20.1738 19.3037 20.2921 19.0213C20.4103 18.7388 20.4715 18.4358 20.4722 18.1297V16.0748C20.4722 15.8764 20.5511 15.6861 20.6915 15.5458C20.832 15.4055 21.0224 15.3267 21.2211 15.3267C21.4197 15.3267 21.6101 15.4055 21.7506 15.5458C21.891 15.6861 21.9699 15.8764 21.9699 16.0748H21.9799Z" fill="black"/>
<path d="M15.8791 9.76059C15.8811 10.5309 15.6541 11.2844 15.227 11.9257C14.7999 12.5669 14.1918 13.0671 13.4798 13.3628C12.7679 13.6585 11.9841 13.7364 11.2278 13.5866C10.4715 13.4368 9.77667 13.0661 9.23147 12.5214C8.68627 11.9767 8.31518 11.2826 8.16524 10.5271C8.01531 9.7715 8.09327 8.98847 8.38924 8.27721C8.68521 7.56595 9.18589 6.95848 9.8278 6.53177C10.4697 6.10506 11.224 5.87832 11.995 5.88029C13.0243 5.88293 14.0107 6.29259 14.7386 7.01972C15.4664 7.74684 15.8765 8.73228 15.8791 9.76059Z" fill="black"/>
</svg>
