<svg width="24" height="24" viewBox="0 0 24 24" fill="none" xmlns="http://www.w3.org/2000/svg">
<path d="M16.59 2H7.41998C5.98424 2 4.60716 2.56964 3.591 3.58392C2.57484 4.59821 2.00265 5.97426 2 7.41V16.58C2 18.0175 2.57102 19.3961 3.58746 20.4125C4.60391 21.429 5.98251 22 7.41998 22H16.59C18.0257 21.9974 19.4018 21.4251 20.4161 20.409C21.4304 19.3928 22 18.0157 22 16.58V7.41C21.9974 5.97599 21.4265 4.60146 20.4125 3.58746C19.3985 2.57346 18.024 2.00264 16.59 2ZM17.96 17.95C17.8805 18.0306 17.7854 18.0944 17.6805 18.1373C17.5757 18.1803 17.4633 18.2016 17.35 18.2C17.1221 18.1978 16.9038 18.1083 16.74 17.95L13.85 15.06C13.0197 15.6475 12.0271 15.962 11.01 15.96C10.0211 15.96 9.05436 15.6667 8.23212 15.1173C7.40987 14.5679 6.76906 13.787 6.39062 12.8734C6.01219 11.9598 5.91315 10.9544 6.10608 9.98453C6.29901 9.01462 6.77522 8.12373 7.47449 7.42447C8.17375 6.72521 9.06464 6.24899 10.0345 6.05606C11.0045 5.86313 12.0098 5.96217 12.9234 6.34061C13.837 6.71904 14.618 7.35988 15.1674 8.18213C15.7168 9.00437 16.01 9.97109 16.01 10.96C16.0152 11.9792 15.6965 12.9736 15.1 13.8L18 16.7C18.0839 16.7823 18.1497 16.8811 18.1935 16.9902C18.2372 17.0993 18.2578 17.2163 18.2541 17.3338C18.2503 17.4512 18.2223 17.5666 18.1716 17.6727C18.121 17.7788 18.049 17.8732 17.96 17.95Z" fill="black"/>
<path d="M14.3 11C14.3 11.7218 14.0648 12.4239 13.63 13C13.4491 13.2309 13.2409 13.4391 13.01 13.62C12.5941 13.9418 12.1074 14.1595 11.5904 14.255C11.0733 14.3506 10.5409 14.3212 10.0375 14.1693C9.53413 14.0174 9.07432 13.7475 8.69639 13.382C8.31846 13.0164 8.03333 12.5658 7.86479 12.0678C7.69624 11.5697 7.64918 11.0386 7.72746 10.5187C7.80573 9.99874 8.00708 9.50505 8.3148 9.0787C8.62251 8.65235 9.02763 8.3057 9.49644 8.06762C9.96525 7.82955 10.4842 7.70694 11.01 7.71002C11.8826 7.71002 12.7193 8.05665 13.3363 8.67364C13.9533 9.29064 14.3 10.1275 14.3 11Z" fill="black"/>
</svg>
