<svg width="24" height="24" viewBox="0 0 24 24" fill="none" xmlns="http://www.w3.org/2000/svg">
<path d="M19.6851 5.66544C19.256 5.00654 18.6396 4.49109 17.9151 4.18542L13.5751 2.33545C13.0774 2.12225 12.5416 2.0123 12.0001 2.0123C11.4586 2.0123 10.9229 2.12225 10.4251 2.33545L6.08512 4.18542C5.36256 4.4942 4.74693 5.00896 4.3151 5.66544C3.88288 6.32132 3.65336 7.08994 3.65513 7.87543V14.8754C3.64629 15.5115 3.79395 16.1399 4.08512 16.7054C4.37394 17.277 4.79575 17.7708 5.3151 18.1454L9.65513 21.2354C10.3355 21.7246 11.1522 21.9877 11.9901 21.9877C12.828 21.9877 13.6448 21.7246 14.3251 21.2354L18.6651 18.1454C19.1869 17.7748 19.6121 17.2844 19.9051 16.7154C20.1994 16.1471 20.3505 15.5154 20.3451 14.8754V7.87543C20.3469 7.08994 20.1173 6.32132 19.6851 5.66544ZM13.0451 13.2354V15.7554C13.0451 16.0313 12.9356 16.2958 12.7405 16.4908C12.5455 16.6859 12.2809 16.7954 12.0051 16.7954C11.7293 16.7954 11.4648 16.6859 11.2698 16.4908C11.0747 16.2958 10.9651 16.0313 10.9651 15.7554V13.2354C10.2212 12.9884 9.58943 12.4846 9.18308 11.8142C8.77673 11.1438 8.62229 10.3507 8.74741 9.57684C8.87254 8.80299 9.2691 8.09893 9.86601 7.59079C10.4629 7.08264 11.2212 6.80359 12.0051 6.80359C12.789 6.80359 13.5474 7.08264 14.1443 7.59079C14.7412 8.09893 15.1377 8.80299 15.2628 9.57684C15.3879 10.3507 15.2335 11.1438 14.8271 11.8142C14.4208 12.4846 13.7891 12.9884 13.0451 13.2354Z" fill="black"/>
<path d="M13.595 10.0654C13.597 10.3803 13.5054 10.6887 13.3319 10.9515C13.1584 11.2143 12.9107 11.4196 12.6204 11.5415C12.33 11.6634 12.01 11.6963 11.7009 11.6361C11.3919 11.5759 11.1076 11.4252 10.8842 11.2033C10.6609 10.9813 10.5085 10.698 10.4463 10.3893C10.3841 10.0806 10.415 9.76042 10.5351 9.4693C10.6551 9.17818 10.8589 8.92928 11.1206 8.75412C11.3823 8.57896 11.6901 8.48545 12.005 8.48544C12.4249 8.48543 12.8279 8.65158 13.1258 8.9476C13.4236 9.24362 13.5923 9.64547 13.595 10.0654Z" fill="black"/>
</svg>
