<svg width="24" height="24" viewBox="0 0 24 24" fill="none" xmlns="http://www.w3.org/2000/svg">
<path d="M17.53 13.0399H14.53C14.2648 13.0399 14.0105 12.9346 13.8229 12.747C13.6354 12.5595 13.53 12.3051 13.53 12.0399C13.53 11.7747 13.6354 11.5204 13.8229 11.3328C14.0105 11.1453 14.2648 11.0399 14.53 11.0399H17.53C17.7952 11.0399 18.0496 11.1453 18.2371 11.3328C18.4246 11.5204 18.53 11.7747 18.53 12.0399C18.53 12.3051 18.4246 12.5595 18.2371 12.747C18.0496 12.9346 17.7952 13.0399 17.53 13.0399Z" fill="black"/>
<path d="M21.73 7.97998V4.51999C21.7313 4.27049 21.6824 4.0233 21.5862 3.79309C21.49 3.56288 21.3485 3.35437 21.17 3.17999C20.9946 3.0029 20.7859 2.86225 20.556 2.76614C20.326 2.67004 20.0793 2.62037 19.83 2.62H4.15001C3.90068 2.61982 3.6538 2.66924 3.42375 2.76538C3.1937 2.86152 2.98504 3.00246 2.80998 3.17999C2.46053 3.52668 2.26276 3.99775 2.25999 4.48999V7.98999C2.50896 8.31599 2.64384 8.71481 2.64384 9.125C2.64384 9.53519 2.50896 9.93398 2.25999 10.26V13.72C2.51958 14.0471 2.66087 14.4524 2.66087 14.87C2.66087 15.2876 2.51958 15.6929 2.25999 16.02V19.48C2.26262 19.9831 2.46363 20.4648 2.81938 20.8206C3.17513 21.1763 3.65692 21.3774 4.16002 21.38H19.84C20.3431 21.3774 20.8248 21.1763 21.1806 20.8206C21.5363 20.4648 21.7373 19.9831 21.74 19.48V16.02C21.4804 15.6929 21.3392 15.2876 21.3392 14.87C21.3392 14.4524 21.4804 14.0471 21.74 13.72V10.31C21.7421 9.88746 21.5972 9.47734 21.33 9.14999C21.5943 8.81781 21.7356 8.40445 21.73 7.97998ZM14.51 5.26999H17.51C17.7752 5.26999 18.0296 5.37536 18.2171 5.5629C18.4046 5.75043 18.51 6.00477 18.51 6.26999C18.51 6.53521 18.4046 6.78958 18.2171 6.97711C18.0296 7.16465 17.7752 7.26999 17.51 7.26999H14.51C14.2448 7.26999 13.9904 7.16465 13.8029 6.97711C13.6154 6.78958 13.51 6.53521 13.51 6.26999C13.51 6.00477 13.6154 5.75043 13.8029 5.5629C13.9904 5.37536 14.2448 5.26999 14.51 5.26999ZM17.51 18.8H14.51C14.2448 18.8 13.9904 18.6946 13.8029 18.5071C13.6154 18.3196 13.51 18.0652 13.51 17.8C13.51 17.5348 13.6154 17.2804 13.8029 17.0929C13.9904 16.9054 14.2448 16.8 14.51 16.8H17.51C17.7752 16.8 18.0296 16.9054 18.2171 17.0929C18.4046 17.2804 18.51 17.5348 18.51 17.8C18.51 18.0652 18.4046 18.3196 18.2171 18.5071C18.0296 18.6946 17.7752 18.8 17.51 18.8ZM20.2 13.8C20.2 13.9061 20.1579 14.0078 20.0829 14.0828C20.0079 14.1578 19.9061 14.2 19.8 14.2H4.14C4.03391 14.2 3.93218 14.1578 3.85716 14.0828C3.78215 14.0078 3.73997 13.9061 3.73997 13.8V10.31C3.73919 10.2147 3.7734 10.1224 3.83604 10.0505C3.89869 9.97865 3.98546 9.9322 4.08 9.91998H4.15001L19.64 9.87H19.82C19.9261 9.87 20.0278 9.91214 20.1028 9.98715C20.1778 10.0622 20.22 10.1639 20.22 10.27L20.2 13.8Z" fill="black"/>
</svg>
