<svg width="24" height="24" viewBox="0 0 24 24" fill="none" xmlns="http://www.w3.org/2000/svg">
<path d="M21.735 10.82V5.11004C21.7364 4.86016 21.6881 4.61249 21.5931 4.38137C21.4981 4.15026 21.3582 3.94027 21.1815 3.76358C21.0048 3.58688 20.7948 3.44697 20.5637 3.35196C20.3326 3.25694 20.0849 3.20872 19.835 3.21005H4.15503C3.90553 3.20875 3.65831 3.25764 3.4281 3.35385C3.19789 3.45005 2.98938 3.5916 2.815 3.77005C2.63791 3.94544 2.49729 4.15412 2.40119 4.38409C2.30508 4.61406 2.25538 4.86079 2.25501 5.11004V10.83C2.25632 11.2473 2.39714 11.6521 2.65503 11.98C2.3929 12.3057 2.25154 12.712 2.25501 13.13V18.89C2.25501 19.394 2.45521 19.8772 2.81152 20.2335C3.16784 20.5899 3.65112 20.79 4.15503 20.79H19.835C20.3399 20.79 20.8242 20.5902 21.1821 20.2342C21.54 19.8781 21.7424 19.3949 21.7451 18.89V13.13C21.4789 12.7982 21.3338 12.3855 21.3338 11.96C21.3338 11.5346 21.4789 11.1219 21.7451 10.79L21.735 10.82ZM17.535 17.04H14.535C14.2698 17.04 14.0155 16.9347 13.8279 16.7472C13.6404 16.5596 13.535 16.3053 13.535 16.04C13.535 15.7748 13.6404 15.5205 13.8279 15.3329C14.0155 15.1454 14.2698 15.04 14.535 15.04H17.535C17.8003 15.04 18.0546 15.1454 18.2421 15.3329C18.4297 15.5205 18.535 15.7748 18.535 16.04C18.535 16.3053 18.4297 16.5596 18.2421 16.7472C18.0546 16.9347 17.8003 17.04 17.535 17.04ZM17.535 8.98004H14.535C14.2698 8.98004 14.0155 8.8747 13.8279 8.68716C13.6404 8.49962 13.535 8.24525 13.535 7.98004C13.535 7.71482 13.6404 7.46048 13.8279 7.27295C14.0155 7.08541 14.2698 6.98004 14.535 6.98004H17.535C17.8003 6.98004 18.0546 7.08541 18.2421 7.27295C18.4297 7.46048 18.535 7.71482 18.535 7.98004C18.535 8.24525 18.4297 8.49962 18.2421 8.68716C18.0546 8.8747 17.8003 8.98004 17.535 8.98004Z" fill="black"/>
</svg>
