<svg width="25" height="24" viewBox="0 0 25 24" fill="none" xmlns="http://www.w3.org/2000/svg">
<path d="M20.7867 17.16C20.7867 18.0644 20.4275 18.9318 19.788 19.5712C19.1485 20.2107 18.2811 20.57 17.3768 20.57C16.4724 20.57 15.605 20.2107 14.9655 19.5712C14.326 18.9318 13.9668 18.0644 13.9668 17.16C13.9653 16.9281 13.9887 16.6968 14.0367 16.47L10.3267 14.79C9.90096 15.3503 9.31227 15.7652 8.64138 15.9777C7.97049 16.1902 7.25028 16.19 6.57955 15.977C5.90882 15.7639 5.3204 15.3486 4.89504 14.788C4.46968 14.2273 4.2282 13.5488 4.20372 12.8455C4.17925 12.1422 4.37297 11.4485 4.75832 10.8596C5.14367 10.2708 5.7018 9.8156 6.3561 9.55648C7.0104 9.29736 7.72882 9.24703 8.41286 9.41238C9.0969 9.57772 9.71304 9.95063 10.1767 10.48L14.0968 8.35C14.0124 8.04373 13.9687 7.72768 13.9668 7.41C13.9668 6.73556 14.1667 6.0763 14.5414 5.51552C14.9161 4.95475 15.4487 4.5177 16.0718 4.2596C16.6949 4.00151 17.3805 3.93394 18.042 4.06551C18.7035 4.19709 19.3111 4.5219 19.788 4.9988C20.2649 5.4757 20.5896 6.0833 20.7212 6.74477C20.8528 7.40625 20.7853 8.09189 20.5272 8.71499C20.2691 9.33808 19.832 9.87063 19.2712 10.2453C18.7105 10.62 18.0512 10.82 17.3768 10.82C16.8934 10.8209 16.4155 10.7177 15.9755 10.5175C15.5355 10.3174 15.1437 10.0249 14.8267 9.66L10.8967 11.8C10.986 12.1018 11.0298 12.4153 11.0268 12.73C11.0287 12.9652 11.0053 13.1999 10.9567 13.43L14.6667 15.11C15.0991 14.5439 15.6979 14.1274 16.379 13.919C17.0602 13.7106 17.7895 13.7207 18.4646 13.948C19.1397 14.1752 19.7267 14.6081 20.1432 15.186C20.5597 15.7639 20.7847 16.4577 20.7867 17.17V17.16Z" fill="black"/>
</svg>
