<svg width="24" height="24" viewBox="0 0 24 24" fill="none" xmlns="http://www.w3.org/2000/svg">
<path d="M19.69 5.66263C19.2582 5.00615 18.6425 4.49139 17.92 4.18262L13.58 2.33264C13.0809 2.11804 12.5433 2.00735 12 2.00735C11.4567 2.00735 10.9191 2.11804 10.42 2.33264L6.08 4.18262C5.35731 4.49102 4.74146 5.00545 4.30931 5.66168C3.87716 6.31791 3.64785 7.08688 3.65001 7.87262V14.8726C3.65112 15.5075 3.79824 16.1337 4.08 16.7026C4.37075 17.2729 4.7922 17.7663 5.30998 18.1426L9.65001 21.2326C10.3308 21.7255 11.1495 21.9914 11.99 21.9926C12.828 21.9955 13.6448 21.7291 14.32 21.2326L18.67 18.1426C19.1881 17.7708 19.6099 17.2805 19.9 16.7126C20.1986 16.1454 20.353 15.5136 20.35 14.8726V7.87262C20.3517 7.08713 20.1222 6.31851 19.69 5.66263ZM11.92 16.0426C11.6548 16.0426 11.4004 15.9373 11.2129 15.7497C11.0253 15.5622 10.92 15.3078 10.92 15.0426C10.92 14.7774 11.0253 14.523 11.2129 14.3355C11.4004 14.148 11.6548 14.0426 11.92 14.0426C12.1852 14.0426 12.4396 14.148 12.6271 14.3355C12.8147 14.523 12.92 14.7774 12.92 15.0426C12.92 15.3078 12.8147 15.5622 12.6271 15.7497C12.4396 15.9373 12.1852 16.0426 11.92 16.0426ZM14.52 10.5926C14.3839 10.9244 14.1755 11.2216 13.91 11.4626C13.6481 11.7071 13.3382 11.8945 13 12.0126L12.94 12.5126C12.94 12.7779 12.8346 13.0322 12.6471 13.2197C12.4595 13.4073 12.2052 13.5126 11.94 13.5126C11.6748 13.5126 11.4204 13.4073 11.2329 13.2197C11.0454 13.0322 10.94 12.7779 10.94 12.5126V12.0926C10.9387 11.6583 11.0702 11.234 11.3168 10.8765C11.5635 10.5191 11.9135 10.2455 12.32 10.0926C12.4042 10.0643 12.4823 10.0202 12.55 9.96262C12.6051 9.91208 12.6493 9.85084 12.68 9.78262C12.6943 9.70663 12.6943 9.62864 12.68 9.55264C12.679 9.47661 12.662 9.40164 12.63 9.33264C12.5732 9.24167 12.4983 9.16336 12.41 9.10263C12.2813 9.01221 12.1303 8.95879 11.9734 8.94821C11.8165 8.93763 11.6597 8.9703 11.52 9.04263C11.3544 9.12468 11.2232 9.26288 11.15 9.43262C11.0949 9.55212 11.0167 9.6596 10.92 9.7489C10.8233 9.8382 10.71 9.90759 10.5865 9.95309C10.463 9.9986 10.3317 10.0193 10.2002 10.0141C10.0687 10.0089 9.9395 9.97779 9.81999 9.92264C9.70049 9.86748 9.59301 9.78932 9.50371 9.69263C9.41441 9.59594 9.34505 9.4826 9.29955 9.3591C9.25404 9.2356 9.23328 9.10435 9.23851 8.97284C9.24374 8.84133 9.27485 8.71212 9.33 8.59262C9.596 8.02199 10.0422 7.55467 10.6 7.26263C11.1583 6.97964 11.7933 6.8849 12.41 6.99261C12.832 7.06526 13.2318 7.23376 13.5785 7.48514C13.9253 7.73651 14.2097 8.06408 14.41 8.44263C14.5723 8.77653 14.661 9.14145 14.67 9.51263C14.6902 9.87083 14.6322 10.2291 14.5 10.5626L14.52 10.5926Z" fill="black"/>
</svg>
