<svg width="24" height="24" viewBox="0 0 24 24" fill="none" xmlns="http://www.w3.org/2000/svg">
<path d="M19.69 5.66263C19.2582 5.00615 18.6426 4.49139 17.92 4.18262L13.58 2.33264C13.0809 2.11804 12.5433 2.00735 12 2.00735C11.4567 2.00735 10.9191 2.11804 10.42 2.33264L6.08 4.18262C5.35731 4.49102 4.74146 5.00545 4.30931 5.66168C3.87716 6.31791 3.64785 7.08688 3.65001 7.87262V14.8726C3.65219 15.5074 3.79925 16.1333 4.08 16.7026C4.36882 17.2742 4.79063 17.768 5.30998 18.1426L9.65001 21.2326C10.3308 21.7255 11.1496 21.9914 11.99 21.9926C12.8281 21.9955 13.6448 21.7291 14.32 21.2326L18.66 18.1426C19.183 17.7727 19.6094 17.2826 19.9035 16.7136C20.1976 16.1445 20.3507 15.5132 20.35 14.8726V7.87262C20.3518 7.08713 20.1222 6.31851 19.69 5.66263ZM16.04 10.2026L12.26 13.9726C12.1051 14.1337 11.9176 14.2598 11.71 14.3426C11.5021 14.4347 11.2774 14.4822 11.05 14.4822C10.8227 14.4822 10.5979 14.4347 10.39 14.3426C10.1794 14.26 9.9886 14.1339 9.83 13.9726L7.96001 12.0726C7.7717 11.8843 7.66594 11.6289 7.66594 11.3626C7.66594 11.0963 7.7717 10.8409 7.96001 10.6526C8.14831 10.4643 8.40373 10.3586 8.67003 10.3586C8.93633 10.3586 9.19169 10.4643 9.37999 10.6526L11.05 12.3326L14.62 8.75262C14.7132 8.65939 14.824 8.58543 14.9458 8.53497C15.0676 8.48451 15.1981 8.45853 15.33 8.45853C15.4619 8.45853 15.5925 8.48451 15.7143 8.53497C15.8361 8.58543 15.9468 8.65939 16.04 8.75262C16.1333 8.84586 16.2072 8.95655 16.2577 9.07837C16.3081 9.20019 16.3341 9.33076 16.3341 9.46262C16.3341 9.59448 16.3081 9.72504 16.2577 9.84686C16.2072 9.96868 16.1333 10.0794 16.04 10.1726V10.2026Z" fill="black"/>
</svg>
