<svg width="24" height="24" viewBox="0 0 24 24" fill="none" xmlns="http://www.w3.org/2000/svg">
<path d="M19.6851 5.66544C19.2533 5.00896 18.6376 4.4942 17.9151 4.18542L13.5751 2.33545C13.0774 2.12225 12.5415 2.0123 12.0001 2.0123C11.4586 2.0123 10.9228 2.12225 10.4251 2.33545L6.08504 4.18542C5.36235 4.49383 4.74651 5.00826 4.31435 5.66449C3.8822 6.32072 3.65289 7.08969 3.65505 7.87543V14.8754C3.65094 15.5134 3.79951 16.143 4.08828 16.7119C4.37705 17.2807 4.79768 17.7723 5.31509 18.1454L9.65505 21.2354C10.3354 21.7246 11.1522 21.9877 11.9901 21.9877C12.828 21.9877 13.6448 21.7246 14.3251 21.2354L18.6651 18.1454C19.1868 17.7748 19.6121 17.2844 19.9051 16.7154C20.1946 16.1453 20.3453 15.5149 20.3451 14.8754V7.87543C20.3468 7.08994 20.1173 6.32132 19.6851 5.66544ZM15.5451 12.4754H12.9851V15.0154C12.9851 15.2807 12.8797 15.535 12.6922 15.7225C12.5046 15.9101 12.2503 16.0154 11.9851 16.0154C11.7199 16.0154 11.4655 15.9101 11.278 15.7225C11.0904 15.535 10.9851 15.2807 10.9851 15.0154V12.4754H8.43508C8.16986 12.4754 7.91552 12.3701 7.72799 12.1826C7.54045 11.995 7.43508 11.7407 7.43508 11.4754C7.43508 11.2102 7.54045 10.9559 7.72799 10.7683C7.91552 10.5808 8.16986 10.4754 8.43508 10.4754H10.9851V7.92545C10.9851 7.66023 11.0904 7.40586 11.278 7.21832C11.4655 7.03079 11.7199 6.92545 11.9851 6.92545C12.2503 6.92545 12.5046 7.03079 12.6922 7.21832C12.8797 7.40586 12.9851 7.66023 12.9851 7.92545V10.4754H15.5351C15.8003 10.4754 16.0546 10.5808 16.2421 10.7683C16.4297 10.9559 16.5351 11.2102 16.5351 11.4754C16.5351 11.7407 16.4297 11.995 16.2421 12.1826C16.0546 12.3701 15.8003 12.4754 15.5351 12.4754H15.5451Z" fill="black"/>
</svg>
