<svg width="24" height="24" viewBox="0 0 24 24" fill="none" xmlns="http://www.w3.org/2000/svg">
<path d="M20.9208 5.03722C20.5962 4.58381 20.1359 4.24534 19.6063 4.07073L14.6675 2.42767C12.9316 1.85744 11.0587 1.85744 9.32279 2.42767L4.39368 4.07073C3.86436 4.24725 3.40397 4.58589 3.07784 5.03864C2.75172 5.49139 2.57641 6.03529 2.57666 6.59327V11.8897C2.57581 13.3191 2.93809 14.7252 3.62952 15.9762C4.32095 17.2272 5.31884 18.282 6.5296 19.0418L10.5889 21.603C11.0138 21.8626 11.5021 22 12 22C12.4979 22 12.9862 21.8626 13.4111 21.603L17.4704 19.0418C18.6812 18.282 19.6791 17.2272 20.3705 15.9762C21.0619 14.7252 21.4242 13.3191 21.4234 11.8897V6.59327C21.4242 6.03455 21.2482 5.48991 20.9208 5.03722ZM11.9131 15.4851C11.7219 15.4851 11.5349 15.4284 11.376 15.3222C11.2171 15.216 11.0932 15.065 11.0201 14.8884C10.9469 14.7118 10.9278 14.5175 10.9651 14.33C11.0024 14.1425 11.0944 13.9703 11.2296 13.8352C11.3648 13.7 11.5369 13.6079 11.7244 13.5706C11.9119 13.5334 12.1063 13.5525 12.2829 13.6256C12.4595 13.6988 12.6104 13.8227 12.7166 13.9816C12.8228 14.1406 12.8796 14.3274 12.8796 14.5186C12.8796 14.7732 12.779 15.0176 12.5998 15.1986C12.4207 15.3796 12.1773 15.4825 11.9226 15.4851H11.9131ZM14.4356 10.237C14.3006 10.5557 14.0997 10.8422 13.846 11.0778C13.5895 11.3144 13.2867 11.4954 12.9568 11.6094V12.0926C12.9568 12.349 12.855 12.5948 12.6738 12.7761C12.4925 12.9574 12.2467 13.0591 11.9903 13.0591C11.734 13.0591 11.4881 12.9574 11.3069 12.7761C11.1256 12.5948 11.0238 12.349 11.0238 12.0926V11.6771C11.0266 11.2582 11.1553 10.8499 11.3931 10.5052C11.631 10.1605 11.967 9.89529 12.3576 9.74406C12.4422 9.72429 12.5193 9.68068 12.5799 9.61841C12.6324 9.56889 12.675 9.50987 12.7055 9.44445C12.7193 9.37424 12.7193 9.30205 12.7055 9.23185C12.7201 9.16172 12.7201 9.08931 12.7055 9.01919C12.6532 8.92931 12.5804 8.85315 12.4929 8.79691C12.4004 8.7245 12.2903 8.6778 12.1739 8.66159C11.9933 8.62084 11.8042 8.6438 11.6386 8.7266C11.473 8.80939 11.3412 8.94695 11.2655 9.11587C11.1582 9.34707 10.964 9.52653 10.725 9.61523C10.4861 9.70392 10.2218 9.69467 9.98968 9.58945C9.87398 9.53637 9.76992 9.46094 9.68346 9.36752C9.59699 9.27411 9.52984 9.16452 9.48584 9.04508C9.44184 8.92564 9.42183 8.79874 9.42703 8.67156C9.43222 8.54438 9.4625 8.41944 9.5161 8.30399C9.76746 7.75012 10.1974 7.29668 10.7372 7.01629C11.277 6.7359 11.8952 6.64481 12.4929 6.75762C12.8976 6.82306 13.2814 6.98188 13.614 7.22152C13.9578 7.47692 14.2389 7.80749 14.4356 8.18801C14.5905 8.51487 14.6761 8.87029 14.6869 9.23185C14.6789 9.58029 14.5965 9.92298 14.4453 10.237H14.4356Z" fill="black"/>
</svg>
