<svg width="24" height="24" viewBox="0 0 24 24" fill="none" xmlns="http://www.w3.org/2000/svg">
<path d="M19.6851 5.66544C19.256 5.00654 18.6395 4.49109 17.915 4.18542L13.575 2.33545C13.0773 2.12225 12.5415 2.0123 12.0001 2.0123C11.4586 2.0123 10.9228 2.12225 10.4251 2.33545L6.08503 4.18542C5.36234 4.49383 4.74649 5.00826 4.31434 5.66449C3.88219 6.32072 3.65288 7.08969 3.65504 7.87543V14.8754C3.6462 15.5115 3.79386 16.1399 4.08503 16.7054C4.37385 17.277 4.79572 17.7708 5.31507 18.1454L9.65504 21.2354C10.3354 21.7246 11.1521 21.9877 11.9901 21.9877C12.828 21.9877 13.6447 21.7246 14.325 21.2354L18.665 18.1454C19.1868 17.7748 19.6121 17.2844 19.905 16.7154C20.2005 16.1475 20.3516 15.5156 20.345 14.8754V7.87543C20.3548 7.0888 20.1246 6.3179 19.6851 5.66544ZM15.215 13.2354C15.4013 13.4228 15.5059 13.6762 15.5059 13.9404C15.5059 14.2046 15.4013 14.4581 15.215 14.6454C15.0277 14.8317 14.7742 14.9362 14.51 14.9362C14.2458 14.9362 13.9924 14.8317 13.8051 14.6454L11.9951 12.8354L10.195 14.6354C10.0104 14.8239 9.75883 14.9317 9.49506 14.9354C9.29644 14.9366 9.10193 14.8786 8.93641 14.7688C8.77089 14.659 8.64185 14.5024 8.56568 14.3189C8.48952 14.1355 8.46967 13.9335 8.50874 13.7388C8.54781 13.544 8.64401 13.3653 8.78504 13.2254L10.585 11.4254L8.78504 9.63544C8.69131 9.54247 8.61694 9.43186 8.56617 9.31C8.5154 9.18814 8.48927 9.05746 8.48927 8.92545C8.48927 8.79343 8.5154 8.66272 8.56617 8.54086C8.61694 8.419 8.69131 8.30839 8.78504 8.21542C8.97241 8.02917 9.22587 7.92465 9.49006 7.92465C9.75425 7.92465 10.0077 8.02917 10.195 8.21542L11.9951 10.0154L13.8051 8.20544C13.8947 8.10076 14.005 8.01574 14.1291 7.95572C14.2532 7.8957 14.3883 7.86195 14.526 7.85663C14.6637 7.85131 14.8011 7.87453 14.9294 7.9248C15.0577 7.97508 15.1742 8.05132 15.2717 8.14877C15.3691 8.24623 15.4454 8.36279 15.4957 8.49112C15.5459 8.61944 15.5692 8.75678 15.5639 8.8945C15.5585 9.03222 15.5248 9.16735 15.4648 9.29141C15.4048 9.41548 15.3197 9.5258 15.215 9.61545L13.405 11.4254L15.215 13.2354Z" fill="black"/>
</svg>
