<svg width="24" height="24" viewBox="0 0 24 24" fill="none" xmlns="http://www.w3.org/2000/svg">
<path d="M19.6851 5.66544C19.256 5.00654 18.6396 4.49109 17.9151 4.18542L13.5751 2.33545C13.0774 2.12225 12.5415 2.0123 12.0001 2.0123C11.4586 2.0123 10.9228 2.12225 10.4251 2.33545L6.08503 4.18542C5.36247 4.4942 4.74696 5.00896 4.31513 5.66544C3.88291 6.32132 3.65333 7.08994 3.6551 7.87543V14.8754C3.64748 15.5113 3.79501 16.1395 4.08503 16.7054C4.37385 17.277 4.79577 17.7708 5.31513 18.1454L9.6551 21.2354C10.3354 21.7246 11.1521 21.9877 11.9901 21.9877C12.828 21.9877 13.6448 21.7246 14.3251 21.2354L18.6651 18.1454C19.1869 17.7748 19.6121 17.2844 19.9051 16.7154C20.1994 16.1471 20.3504 15.5154 20.345 14.8754V7.87543C20.3468 7.08994 20.1173 6.32132 19.6851 5.66544ZM15.5551 12.3254H8.45502C8.18981 12.3254 7.93553 12.2201 7.74799 12.0325C7.56046 11.845 7.45502 11.5907 7.45502 11.3254C7.45502 11.0602 7.56046 10.8059 7.74799 10.6183C7.93553 10.4308 8.18981 10.3254 8.45502 10.3254H15.5551C15.8203 10.3254 16.0746 10.4308 16.2622 10.6183C16.4497 10.8059 16.5551 11.0602 16.5551 11.3254C16.5551 11.5907 16.4497 11.845 16.2622 12.0325C16.0746 12.2201 15.8203 12.3254 15.5551 12.3254Z" fill="black"/>
</svg>
