<svg width="24" height="24" viewBox="0 0 24 24" fill="none" xmlns="http://www.w3.org/2000/svg">
<path d="M20.1649 6.04146C20.1707 6.00838 20.1707 5.97454 20.1649 5.94146C20.1687 5.91158 20.1687 5.88134 20.1649 5.85146C20.1342 5.78881 20.0937 5.73141 20.0449 5.68145L16.9049 2.55147C16.7288 2.37339 16.5177 2.23377 16.2849 2.14147C16.0573 2.03388 15.8062 1.9857 15.5549 2.00145H8.43494C8.18467 1.99853 7.9364 2.04616 7.70496 2.14147C7.47216 2.23377 7.26104 2.37339 7.08497 2.55147L3.95496 5.68145C3.88717 5.7508 3.83288 5.83222 3.79493 5.92147C3.75498 6.00939 3.73458 6.1049 3.73499 6.20147V18.3515C3.73368 18.8303 3.82682 19.3047 4.00916 19.7475C4.1915 20.1903 4.45936 20.5927 4.79749 20.9318C5.13563 21.2708 5.53734 21.5399 5.97962 21.7234C6.4219 21.907 6.89615 22.0015 7.37501 22.0015H16.625C17.5913 21.9988 18.5171 21.6131 19.1995 20.9289C19.8818 20.2447 20.265 19.3178 20.265 18.3515V6.19146C20.2377 6.13771 20.204 6.08737 20.1649 6.04146ZM16.2749 10.1214L15.9149 10.8215C15.5913 11.4681 15.0948 12.0123 14.4805 12.3936C13.8661 12.7749 13.158 12.9784 12.4349 12.9815H11.4349C10.7272 12.9695 10.0359 12.7656 9.43494 12.3915C8.8184 12.0107 8.32261 11.4628 8.00501 10.8115L7.6449 10.1214C7.5805 10.0042 7.54038 9.87514 7.52674 9.74202C7.5131 9.60891 7.52627 9.47443 7.56556 9.34652C7.60485 9.2186 7.66937 9.09987 7.75538 8.99736C7.84139 8.89486 7.94715 8.81066 8.06629 8.74975C8.18543 8.68883 8.31564 8.65244 8.4491 8.64275C8.58256 8.63306 8.71657 8.65023 8.84327 8.69329C8.96996 8.73634 9.08673 8.80442 9.18665 8.89342C9.28657 8.98243 9.36757 9.09055 9.42493 9.21145L9.78492 9.92147C9.94233 10.2382 10.1847 10.5051 10.4849 10.6922C10.785 10.8794 11.1313 10.9795 11.485 10.9815H12.485C12.8387 10.9795 13.185 10.8794 13.4851 10.6922C13.7853 10.5051 14.0275 10.2382 14.1849 9.92147L14.5449 9.21145C14.6023 9.09055 14.6834 8.98243 14.7833 8.89342C14.8833 8.80442 15 8.73634 15.1267 8.69329C15.2534 8.65023 15.3874 8.63306 15.5209 8.64275C15.6543 8.65244 15.7844 8.68883 15.9036 8.74975C16.0227 8.81066 16.1285 8.89486 16.2145 8.99736C16.3005 9.09987 16.365 9.2186 16.4043 9.34652C16.4436 9.47443 16.4569 9.60891 16.4432 9.74202C16.4296 9.87514 16.3894 10.0042 16.325 10.1214H16.2749ZM6.21497 5.44146L8.06495 3.59145C8.10289 3.55688 8.14699 3.52976 8.19495 3.51146C8.24808 3.50488 8.30186 3.50488 8.35499 3.51146H15.485C15.485 3.51146 15.585 3.51146 15.635 3.51146C15.683 3.52976 15.7271 3.55688 15.765 3.59145L17.625 5.44146H6.21497Z" fill="black"/>
</svg>
