<svg width="24" height="24" viewBox="0 0 24 24" fill="none" xmlns="http://www.w3.org/2000/svg">
<path d="M21.3507 9.77356L20.924 8.32001L19.924 5.32001C19.7378 4.78849 19.3876 4.3298 18.924 4.01001C18.4702 3.69074 17.9288 3.51959 17.374 3.52002H6.57396C6.02284 3.52356 5.48582 3.69443 5.03398 4.01001C4.5759 4.33556 4.22725 4.7923 4.03398 5.32001L2.97399 8.32001L2.54399 9.85004C2.53351 9.91629 2.53351 9.98373 2.54399 10.05C2.54675 10.8052 2.78053 11.5416 3.21398 12.16C3.54117 12.6237 3.97279 13.0039 4.47399 13.27V17.79C4.47662 18.5027 4.76085 19.1853 5.26476 19.6892C5.76866 20.1931 6.45137 20.4773 7.16399 20.48H16.844C17.5549 20.4747 18.235 20.1894 18.7367 19.6857C19.2385 19.1821 19.5214 18.5009 19.524 17.79V13.26C20.0267 13.0006 20.4591 12.6231 20.784 12.16C21.2204 11.5424 21.4577 10.8062 21.464 10.05C21.4418 9.99261 21.3882 9.82229 21.3507 9.77356ZM17.964 17.83C17.9659 17.9865 17.9358 18.1416 17.8756 18.2861C17.8154 18.4305 17.7264 18.5611 17.614 18.67C17.3945 18.8918 17.096 19.0177 16.784 19.02H7.10399C6.78912 19.0171 6.48776 18.8915 6.26396 18.67C6.04062 18.4474 5.91476 18.1453 5.91399 17.83V13.74H6.03398C6.86598 13.7539 7.67886 13.49 8.34398 12.99C8.54377 12.8386 8.728 12.6678 8.89397 12.48C8.91274 12.4587 8.93586 12.4417 8.96172 12.43C8.98758 12.4183 9.01562 12.4123 9.04399 12.4123C9.07237 12.4123 9.10041 12.4183 9.12627 12.43C9.15213 12.4417 9.17519 12.4587 9.19396 12.48C9.77562 13.1621 10.5903 13.6034 11.4794 13.718C12.3684 13.8326 13.2683 13.6124 14.004 13.1C14.3235 12.8783 14.6069 12.6084 14.844 12.3C15.0699 12.5958 15.3397 12.8555 15.644 13.07C16.2573 13.5062 16.9914 13.7404 17.744 13.74H17.964V17.83Z" fill="black"/>
<path d="M15.5939 16.8701C15.5913 17.0682 15.5115 17.2574 15.3714 17.3975C15.2313 17.5376 15.042 17.6175 14.8439 17.6201H9.03394C8.83502 17.6201 8.64425 17.541 8.5036 17.4004C8.36295 17.2597 8.28394 17.069 8.28394 16.8701C8.28394 16.6711 8.36295 16.4804 8.5036 16.3397C8.64425 16.1991 8.83502 16.1201 9.03394 16.1201H14.8339C14.9333 16.1187 15.0319 16.1372 15.124 16.1743C15.2162 16.2114 15.3 16.2664 15.3707 16.3362C15.4414 16.406 15.4976 16.4891 15.5359 16.5808C15.5742 16.6724 15.5939 16.7707 15.5939 16.8701Z" fill="black"/>
</svg>
