<svg width="24" height="24" viewBox="0 0 24 24" fill="none" xmlns="http://www.w3.org/2000/svg">
<path d="M7.54839 22.2528C7.21687 22.2528 6.89889 22.1211 6.66447 21.8867C6.43005 21.6523 6.29839 21.3344 6.29839 21.0028C6.29839 20.6713 6.43005 20.3534 6.66447 20.119C6.89889 19.8845 7.21687 19.7528 7.54839 19.7528C7.87991 19.7528 8.19788 19.8845 8.4323 20.119C8.66672 20.3534 8.79839 20.6713 8.79839 21.0028C8.79839 21.3344 8.66672 21.6523 8.4323 21.8867C8.19788 22.1211 7.87991 22.2528 7.54839 22.2528Z" fill="black"/>
<path d="M17.9483 22.2528C17.6168 22.2528 17.2988 22.1211 17.0644 21.8867C16.83 21.6523 16.6983 21.3344 16.6983 21.0028C16.6983 20.6713 16.83 20.3534 17.0644 20.119C17.2988 19.8845 17.6168 19.7528 17.9483 19.7528C18.2798 19.7528 18.5978 19.8845 18.8322 20.119C19.0666 20.3534 19.1983 20.6713 19.1983 21.0028C19.1983 21.3344 19.0666 21.6523 18.8322 21.8867C18.5978 22.1211 18.2798 22.2528 17.9483 22.2528Z" fill="black"/>
<path d="M21.0282 7.55285C21.033 7.5063 21.033 7.4594 21.0282 7.41286C20.9199 7.04821 20.7293 6.71334 20.4709 6.43416C20.2126 6.15499 19.8934 5.93897 19.5382 5.80285C18.9623 5.59251 18.3507 5.49738 17.7382 5.52285H5.22827L4.43823 2.32287C4.39182 2.12926 4.27043 1.96201 4.10071 1.85793C3.93099 1.75385 3.72681 1.72143 3.5332 1.76784C3.3396 1.81426 3.17232 1.93568 3.06824 2.1054C2.96416 2.27512 2.93186 2.47923 2.97827 2.67284L3.91821 6.45284C4.43821 8.45284 4.85826 10.2129 5.21826 11.8829C5.21826 12.0229 5.21822 12.1529 5.29822 12.2829C5.41822 12.8029 5.53818 13.3329 5.62818 13.8429C5.74765 14.5837 5.91807 15.3154 6.13818 16.0329C6.30061 16.4292 6.56657 16.7745 6.9082 17.0329C7.2551 17.2857 7.66174 17.4442 8.08826 17.4928C8.38826 17.4928 8.69817 17.4928 8.99817 17.4928C9.27129 17.5083 9.54512 17.5083 9.81824 17.4928H16.5482C16.958 17.5212 17.3693 17.4667 17.7576 17.3327C18.1458 17.1987 18.5032 16.9879 18.8082 16.7129L18.8882 16.6329C19.3237 16.0867 19.5943 15.4275 19.6682 14.7328C19.8282 13.8028 20.0383 12.8529 20.2283 11.9629C20.233 11.9263 20.233 11.8894 20.2283 11.8529C20.2883 11.6329 20.3282 11.4128 20.3782 11.2028C20.4282 10.9928 20.4882 10.6829 20.5482 10.4129C20.6082 10.1429 20.6783 9.79285 20.7183 9.58285C20.9774 8.93931 21.0834 8.24439 21.0282 7.55285ZM18.2183 14.5528C18.1873 14.9571 18.0377 15.3432 17.7882 15.6629C17.6479 15.7865 17.4849 15.8816 17.3082 15.9429C17.0951 16.0101 16.8707 16.0339 16.6482 16.0128H9.72827C9.22595 16.0578 8.72059 16.0578 8.21826 16.0128C8.06362 15.9905 7.91629 15.9323 7.78821 15.8429C7.68163 15.7661 7.59292 15.6671 7.5282 15.5528C7.3404 14.9196 7.19349 14.2749 7.08826 13.6229C7.01826 13.2529 6.93817 12.8828 6.86817 12.5128H18.6182C18.4782 13.1428 18.3383 13.8228 18.2183 14.5228V14.5528Z" fill="black"/>
</svg>
