<svg width="24" height="24" viewBox="0 0 24 24" fill="none" xmlns="http://www.w3.org/2000/svg">
<path d="M21.9135 9.73L21.4336 8.07003L20.3236 4.90001C20.1393 4.35399 19.7898 3.87872 19.3236 3.54C18.8524 3.19915 18.2851 3.01705 17.7036 3.02001H6.23361C5.65124 3.01887 5.08298 3.19937 4.608 3.53634C4.13302 3.8733 3.77493 4.34998 3.58358 4.90001L2.45358 8.11001L1.99362 9.73C1.9839 9.79966 1.9839 9.87036 1.99362 9.94002C1.99699 10.6388 2.19053 11.3235 2.55343 11.9207C2.91633 12.5179 3.43485 13.0051 4.05355 13.33V18.16C4.05089 18.5311 4.12201 18.899 4.26278 19.2423C4.40355 19.5857 4.61123 19.8976 4.87362 20.16C5.40614 20.6863 6.12493 20.981 6.87362 20.98H17.1535C17.5229 20.9813 17.8889 20.9096 18.2304 20.7688C18.572 20.6281 18.8823 20.4211 19.1435 20.1599C19.4047 19.8987 19.6117 19.5884 19.7524 19.2469C19.8932 18.9054 19.9649 18.5394 19.9636 18.17V13.34C20.5026 13.062 20.9659 12.657 21.3136 12.16C21.772 11.5146 22.0169 10.7417 22.0136 9.95C21.9863 9.87408 21.9528 9.80051 21.9135 9.73ZM15.0236 18.13H8.8536C8.58839 18.13 8.33398 18.0247 8.14645 17.8371C7.95891 17.6496 7.8536 17.3952 7.8536 17.13C7.8536 16.8648 7.95891 16.6104 8.14645 16.4229C8.33398 16.2354 8.58839 16.13 8.8536 16.13H15.0236C15.2889 16.13 15.5431 16.2354 15.7307 16.4229C15.9182 16.6104 16.0236 16.8648 16.0236 17.13C16.0236 17.3952 15.9182 17.6496 15.7307 17.8371C15.5431 18.0247 15.2889 18.13 15.0236 18.13ZM20.0236 11.28C19.7425 11.6785 19.344 11.9791 18.8836 12.14C18.6441 12.2155 18.3948 12.256 18.1436 12.26C17.663 12.2602 17.1943 12.1098 16.8036 11.83C16.4051 11.5489 16.1045 11.1503 15.9436 10.69C15.86 10.4591 15.816 10.2156 15.8136 9.97002C15.8136 9.77111 15.7346 9.58034 15.594 9.43969C15.4533 9.29904 15.2625 9.22002 15.0636 9.22002C14.8646 9.22002 14.6739 9.29904 14.5333 9.43969C14.3926 9.58034 14.3136 9.77111 14.3136 9.97002V10.02C14.3058 10.2725 14.2585 10.5222 14.1735 10.76C14.0068 11.2117 13.7069 11.6023 13.3136 11.88C12.9265 12.1597 12.4611 12.3101 11.9836 12.31C11.4988 12.311 11.0259 12.1601 10.6313 11.8785C10.2367 11.5969 9.94024 11.1987 9.78353 10.74C9.69166 10.5076 9.64428 10.2599 9.64364 10.01C9.64364 9.81109 9.56457 9.62035 9.42391 9.4797C9.28326 9.33904 9.09255 9.26 8.89364 9.26C8.69473 9.26 8.5039 9.33904 8.36325 9.4797C8.22259 9.62035 8.14364 9.81109 8.14364 10.01C8.14081 10.2662 8.09342 10.52 8.00363 10.76C7.84067 11.211 7.54408 11.6017 7.15353 11.88C6.75907 12.16 6.28728 12.3103 5.80355 12.31C5.54121 12.3033 5.28147 12.256 5.03353 12.17C4.57631 12.0136 4.1806 11.716 3.90353 11.32C3.6479 10.9553 3.50222 10.525 3.48361 10.08L3.89364 8.60003L5.00363 5.44002C5.09309 5.18258 5.26061 4.95942 5.48287 4.80169C5.70514 4.64395 5.97107 4.55948 6.24362 4.56002H17.7136C17.9849 4.56412 18.2491 4.64754 18.4736 4.80001C18.6927 4.95958 18.8569 5.1832 18.9436 5.44002L20.0435 8.56002L20.4736 10.08C20.4318 10.516 20.2691 10.9316 20.0036 11.28H20.0236Z" fill="black"/>
</svg>
