<svg width="24" height="24" viewBox="0 0 24 24" fill="none" xmlns="http://www.w3.org/2000/svg">
<path d="M12 1.75C9.97276 1.75 7.99104 2.35115 6.30544 3.47743C4.61983 4.60372 3.30609 6.20456 2.53029 8.0775C1.75449 9.95044 1.55142 12.0114 1.94692 13.9997C2.34242 15.988 3.31873 17.8144 4.75221 19.2478C6.1857 20.6813 8.01208 21.6576 10.0004 22.0531C11.9887 22.4486 14.0496 22.2456 15.9225 21.4698C17.7954 20.694 19.3963 19.3802 20.5226 17.6946C21.6489 16.009 22.25 14.0273 22.25 12C22.2474 9.28234 21.1666 6.67676 19.2449 4.75508C17.3232 2.83341 14.7177 1.75265 12 1.75ZM11.25 6.37C11.25 6.17108 11.3291 5.98031 11.4697 5.83966C11.6104 5.69901 11.8011 5.62 12 5.62C12.1989 5.62 12.3896 5.69901 12.5303 5.83966C12.6709 5.98031 12.75 6.17108 12.75 6.37V10.88C12.75 11.0789 12.6709 11.2697 12.5303 11.4103C12.3896 11.551 12.1989 11.63 12 11.63C11.8011 11.63 11.6104 11.551 11.4697 11.4103C11.3291 11.2697 11.25 11.0789 11.25 10.88V6.37ZM17.6701 13.3C17.4443 14.253 16.9818 15.1336 16.3252 15.8603C15.6687 16.587 14.8393 17.1362 13.9141 17.4572C12.9888 17.7782 11.9975 17.8604 11.032 17.6964C10.0665 17.5324 9.15789 17.1274 8.39052 16.5188C7.62315 15.9103 7.02173 15.118 6.64199 14.2153C6.26225 13.3125 6.1165 12.3286 6.21816 11.3545C6.31981 10.3804 6.66558 9.44778 7.22353 8.6429C7.78148 7.83802 8.53358 7.18696 9.41005 6.75C9.58907 6.66248 9.79555 6.64966 9.98403 6.71436C10.1725 6.77906 10.3275 6.91598 10.4151 7.095C10.5026 7.27402 10.5154 7.48047 10.4507 7.66895C10.386 7.85742 10.249 8.01247 10.07 8.09999C9.19501 8.53133 8.49282 9.24737 8.07851 10.1305C7.66419 11.0137 7.56247 12.0114 7.79006 12.96C8.0102 13.9091 8.54614 14.7553 9.31008 15.36C10.0832 15.9488 11.0282 16.2677 12 16.2677C12.9719 16.2677 13.9168 15.9488 14.69 15.36C15.2586 14.9062 15.7039 14.3163 15.9844 13.645C16.2649 12.9737 16.3717 12.2425 16.2949 11.519C16.2182 10.7954 15.9604 10.1029 15.5453 9.50534C15.1302 8.90778 14.5713 8.42445 13.9201 8.09999C13.8314 8.056 13.7522 7.99499 13.6872 7.92043C13.6221 7.84586 13.5724 7.75921 13.5408 7.66542C13.5092 7.57163 13.4965 7.47254 13.5032 7.37381C13.5099 7.27508 13.536 7.17864 13.58 7.09C13.624 7.00135 13.685 6.92225 13.7595 6.85719C13.8341 6.79213 13.9208 6.74239 14.0145 6.71082C14.1083 6.67924 14.2074 6.66647 14.3062 6.67319C14.4049 6.67991 14.5013 6.70601 14.59 6.75C15.7643 7.33838 16.7078 8.30298 17.27 9.49001C17.8161 10.6831 17.9429 12.0257 17.63 13.3H17.6701Z" fill="black"/>
</svg>
