<svg width="24" height="24" viewBox="0 0 24 24" fill="none" xmlns="http://www.w3.org/2000/svg">
<path d="M20.7936 8.66315C20.5468 8.05989 20.1842 7.51086 19.7262 7.04709L15.8656 3.1965C15.4047 2.73721 14.8594 2.37136 14.2596 2.11911C13.6579 1.87379 13.014 1.74841 12.3642 1.75002H7.78526C6.4624 1.75002 5.19374 2.27553 4.25834 3.21093C3.32294 4.14633 2.79742 5.41499 2.79742 6.73785V17.2622C2.79742 18.585 3.32294 19.8537 4.25834 20.7891C5.19374 21.7245 6.4624 22.25 7.78526 22.25H16.2148C17.5376 22.25 18.8063 21.7245 19.7417 20.7891C20.6771 19.8537 21.2026 18.585 21.2026 17.2622V10.5585C21.1967 9.9055 21.0575 9.26052 20.7936 8.66315ZM11.2569 17.5415H8.84274C8.48292 17.5415 8.13784 17.3986 7.88341 17.1442C7.62898 16.8897 7.48606 16.5447 7.48606 16.1848V14.8282H11.2569V17.5415ZM11.2569 13.3318H7.48606V11.9751C7.48606 11.6153 7.62898 11.2702 7.88341 11.0157C8.13784 10.7613 8.48292 10.6184 8.84274 10.6184H11.2569V13.3318ZM16.514 16.1848C16.514 16.5447 16.371 16.8897 16.1166 17.1442C15.8622 17.3986 15.5171 17.5415 15.1573 17.5415H12.7532V14.8282H16.514V16.1848ZM16.514 13.3318H12.7532V10.6184H15.1573C15.5171 10.6184 15.8622 10.7613 16.1166 11.0157C16.371 11.2702 16.514 11.6153 16.514 11.9751V13.3318Z" fill="black"/>
</svg>
