<svg width="24" height="24" viewBox="0 0 24 24" fill="none" xmlns="http://www.w3.org/2000/svg">
<path d="M19.9351 13.0857C20.1285 12.9741 20.2876 12.8115 20.395 12.6157C20.5025 12.4233 20.5577 12.206 20.5551 11.9857C20.5568 11.7654 20.5017 11.5484 20.395 11.3557C20.2703 11.1457 20.095 10.9704 19.885 10.8457L17.885 9.8457L19.885 8.8457C20.0954 8.73495 20.2717 8.56898 20.395 8.36566C20.5211 8.16506 20.587 7.93258 20.585 7.69568C20.5872 7.45561 20.5214 7.21984 20.395 7.01569C20.2678 6.81198 20.0883 6.64622 19.8751 6.53571L12.575 2.9657C12.3992 2.87922 12.2059 2.83423 12.01 2.83423C11.8141 2.83423 11.6208 2.87922 11.445 2.9657L4.13501 6.54572C3.9246 6.65647 3.74835 6.82238 3.62506 7.0257C3.49609 7.22868 3.42998 7.46525 3.43506 7.70569C3.43275 7.94127 3.49499 8.17296 3.61505 8.37567C3.74224 8.57938 3.92179 8.7452 4.13501 8.85571L6.13501 9.85571L4.13501 10.7857C3.91842 10.8866 3.73727 11.0504 3.61505 11.2557C3.48769 11.4594 3.42172 11.6955 3.42505 11.9357C3.42135 12.1728 3.48743 12.4058 3.61505 12.6057C3.73539 12.8114 3.91247 12.978 4.12506 13.0857L6.12506 14.0857L4.12506 15.0157C3.91045 15.1196 3.73 15.2826 3.60504 15.4857C3.47871 15.6898 3.41282 15.9256 3.41504 16.1657C3.41171 16.4059 3.47768 16.642 3.60504 16.8457C3.72599 17.0484 3.90316 17.2116 4.11505 17.3157L11.3751 21.0057C11.5607 21.112 11.7711 21.1672 11.985 21.1657C12.1904 21.1694 12.3933 21.1213 12.575 21.0257L19.865 17.3157C20.0568 17.1975 20.2151 17.0323 20.325 16.8357C20.43 16.6441 20.4851 16.4292 20.4851 16.2107C20.4851 15.9922 20.43 15.7773 20.325 15.5857C20.2061 15.3713 20.0294 15.1946 19.8151 15.0757L17.8151 14.0757L19.8151 13.0757L19.9351 13.0857ZM12.015 15.4757L5.22503 12.0157L7.78503 10.7857L11.425 12.6457C11.7081 12.8039 12.0411 12.8468 12.355 12.7657C12.4496 12.7413 12.5404 12.7043 12.6251 12.6557L16.285 10.7857L18.825 12.0257L12.015 15.4757Z" fill="black"/>
</svg>
