<svg width="24" height="24" viewBox="0 0 24 24" fill="none" xmlns="http://www.w3.org/2000/svg">
<path d="M10.8332 8.14242L12.6332 4.57241C12.7693 4.29394 12.9815 4.05976 13.2452 3.89693C13.5089 3.73411 13.8133 3.64932 14.1232 3.65243C14.4293 3.65229 14.7285 3.74277 14.9832 3.91244C15.2344 4.07831 15.435 4.31009 15.5632 4.58242L17.3232 8.15243L17.4332 8.23244L21.3532 8.80245C21.6551 8.84249 21.9394 8.9673 22.1732 9.16244C22.4069 9.36667 22.5828 9.62878 22.6832 9.92245C22.768 10.2199 22.768 10.535 22.6832 10.8324C22.6136 11.126 22.4609 11.3934 22.2432 11.6024L19.4032 14.3724C19.3936 14.3891 19.3885 14.4081 19.3885 14.4275C19.3885 14.4468 19.3936 14.4657 19.4032 14.4824L20.0832 18.4124C20.13 18.7086 20.099 19.0119 19.9932 19.2924C19.877 19.5779 19.6853 19.8264 19.4387 20.0114C19.1921 20.1963 18.8998 20.3108 18.5932 20.3424C18.2767 20.3681 17.9598 20.2985 17.6832 20.1424L14.3032 18.3724L14.1332 18.3025H13.9932L10.4732 20.1424C10.2394 20.2674 9.97835 20.3326 9.71324 20.3324H9.54323C9.23959 20.3031 8.94945 20.1925 8.70323 20.0124C8.45343 19.8356 8.26193 19.5885 8.15321 19.3025C8.04707 18.9776 8.04707 18.6273 8.15321 18.3025L8.81322 14.4924C8.81734 14.4558 8.81734 14.419 8.81322 14.3824H8.76323L5.94322 11.6424C5.71864 11.4236 5.55938 11.1466 5.48323 10.8424C5.40626 10.5454 5.41522 10.2327 5.50905 9.94057C5.60287 9.64847 5.77771 9.38902 6.01323 9.1924C6.2492 8.99456 6.53752 8.86951 6.84321 8.83242L10.7132 8.26241L10.8332 8.14242Z" fill="black"/>
<path d="M8.0032 6.1424H2.0032C1.80429 6.1424 1.61352 6.06338 1.47287 5.92273C1.33222 5.78208 1.2532 5.59131 1.2532 5.3924C1.2532 5.19348 1.33222 5.00271 1.47287 4.86206C1.61352 4.72141 1.80429 4.6424 2.0032 4.6424H8.0032C8.20212 4.6424 8.39289 4.72141 8.53354 4.86206C8.67419 5.00271 8.7532 5.19348 8.7532 5.3924C8.7532 5.59131 8.67419 5.78208 8.53354 5.92273C8.39289 6.06338 8.20212 6.1424 8.0032 6.1424Z" fill="black"/>
<path d="M5.0032 18.2124H2.0032C1.80429 18.2124 1.61352 18.1334 1.47287 17.9927C1.33222 17.8521 1.2532 17.6613 1.2532 17.4624C1.2532 17.2635 1.33222 17.0727 1.47287 16.9321C1.61352 16.7914 1.80429 16.7124 2.0032 16.7124H5.0032C5.20212 16.7124 5.39289 16.7914 5.53354 16.9321C5.67419 17.0727 5.7532 17.2635 5.7532 17.4624C5.7532 17.6613 5.67419 17.8521 5.53354 17.9927C5.39289 18.1334 5.20212 18.2124 5.0032 18.2124Z" fill="black"/>
<path d="M3.54321 12.4424H2.04321C1.8443 12.4424 1.65353 12.3634 1.51288 12.2227C1.37223 12.0821 1.29321 11.8913 1.29321 11.6924C1.29321 11.4935 1.37223 11.3027 1.51288 11.162C1.65353 11.0214 1.8443 10.9424 2.04321 10.9424H3.54321C3.74213 10.9424 3.9329 11.0214 4.07355 11.162C4.2142 11.3027 4.29321 11.4935 4.29321 11.6924C4.29321 11.8913 4.2142 12.0821 4.07355 12.2227C3.9329 12.3634 3.74213 12.4424 3.54321 12.4424Z" fill="black"/>
</svg>
