<svg width="24" height="24" viewBox="0 0 24 24" fill="none" xmlns="http://www.w3.org/2000/svg">
<g clip-path="url(#clip0_1358_574)">
<path d="M15.25 2H8.75001C6.96061 2.00265 5.24526 2.71468 3.97996 3.97998C2.71466 5.24528 2.00265 6.9606 2.00001 8.75V15.28C2.00265 17.0694 2.71466 18.7848 3.97996 20.05C5.24526 21.3153 6.96061 22.0274 8.75001 22.03H15.25C17.0402 22.03 18.7571 21.3188 20.023 20.053C21.2888 18.7871 22 17.0702 22 15.28V8.78003C22.004 7.89109 21.8323 7.0101 21.4948 6.18768C21.1574 5.36527 20.6608 4.61765 20.0336 3.98767C19.4064 3.35769 18.661 2.85782 17.8401 2.51672C17.0192 2.17563 16.139 1.99999 15.25 2ZM17.9 12.59C17.7777 12.7489 17.6105 12.8674 17.42 12.9301L15.74 13.4901C15.214 13.6714 14.7355 13.9687 14.34 14.36C13.9463 14.7519 13.6515 15.2317 13.48 15.76L12.9 17.4301C12.839 17.6214 12.7158 17.7868 12.55 17.9C12.3856 18.0148 12.1905 18.0775 11.99 18.08C11.7895 18.0775 11.5944 18.0148 11.43 17.9C11.264 17.7826 11.141 17.614 11.08 17.42L10.52 15.73C10.346 15.2058 10.0515 14.7297 9.66 14.34C9.26712 13.9454 8.78783 13.6475 8.26 13.47L6.57 12.92C6.38059 12.8502 6.21674 12.7247 6.1 12.5601C5.97985 12.3981 5.91499 12.2017 5.91499 12C5.91499 11.7983 5.97985 11.602 6.1 11.44C6.2159 11.279 6.38077 11.1597 6.57 11.1L8.25001 10.54C8.78253 10.3614 9.26554 10.0599 9.66 9.66003C10.0589 9.27654 10.3606 8.80345 10.54 8.28003L11.1 6.62006C11.1572 6.43209 11.2685 6.26511 11.42 6.14001C11.5821 6.01811 11.7774 5.94834 11.98 5.94C12.1784 5.93659 12.3733 5.99232 12.54 6.10004C12.7105 6.20856 12.8405 6.37024 12.91 6.56006L13.48 8.27002C13.6485 8.80492 13.9475 9.28951 14.35 9.68005C14.7445 10.0799 15.2275 10.3814 15.76 10.5601L17.43 11.14C17.6218 11.2054 17.7891 11.3275 17.91 11.4901C18.0154 11.6546 18.0741 11.8447 18.08 12.04C18.0755 12.2371 18.0129 12.4284 17.9 12.59Z" fill="black"/>
</g>
<defs>
<clipPath id="clip0_1358_574">
<rect width="20" height="20" fill="white" transform="translate(2 2)"/>
</clipPath>
</defs>
</svg>
