<svg width="24" height="24" viewBox="0 0 24 24" fill="none" xmlns="http://www.w3.org/2000/svg">
<path d="M21.4028 10.4608C21.3543 10.6758 21.2469 10.8732 21.0928 11.0308L17.0428 14.4108L18.2828 19.5508C18.3313 19.7999 18.3034 20.0578 18.2028 20.2908C18.1151 20.5033 17.9696 20.6869 17.7828 20.8208C17.5937 20.9529 17.3728 21.0323 17.1428 21.0508H17.0328C16.8494 21.0505 16.6684 21.0095 16.5028 20.9308L11.9828 18.0808L7.55283 20.8308C7.32647 20.9536 7.06966 21.0092 6.81278 20.9908C6.58899 20.9722 6.37458 20.8927 6.19278 20.7609C6.00744 20.627 5.85942 20.448 5.76279 20.2408C5.67555 20.0324 5.64122 19.8057 5.66282 19.5808L6.93284 14.3508L2.93284 11.0408C2.88778 11.0024 2.84744 10.9588 2.81278 10.9108C2.68708 10.7472 2.60456 10.5547 2.57279 10.3508C2.52326 10.1573 2.52326 9.9544 2.57279 9.76085C2.63929 9.5658 2.74864 9.3881 2.8928 9.24083C3.03314 9.09515 3.20887 8.98834 3.40281 8.93083C3.45907 8.92132 3.51652 8.92132 3.57279 8.93083L8.81278 8.49083L10.8128 3.69084C10.9144 3.4695 11.0776 3.28201 11.2828 3.1508C11.4642 3.02998 11.6751 2.96089 11.8928 2.95085C12.1104 2.93985 12.3273 2.98454 12.5228 3.0808C12.7168 3.17176 12.8826 3.31344 13.0028 3.49083C13.041 3.53373 13.0685 3.58512 13.0828 3.64079L15.0828 8.44084L20.4028 8.92082H20.5128C20.7247 8.97739 20.9201 9.08365 21.0828 9.23082C21.2503 9.3845 21.3715 9.58193 21.4328 9.80083C21.4832 10.0194 21.4728 10.2477 21.4028 10.4608Z" fill="black"/>
</svg>
