<svg width="24" height="24" viewBox="0 0 24 24" fill="none" xmlns="http://www.w3.org/2000/svg">
<path d="M21.7384 16.1295C21.7435 16.3482 21.6768 16.5625 21.5484 16.7396C21.4218 16.9201 21.2389 17.0537 21.0284 17.1196L19.3184 17.6895C18.7912 17.8634 18.3119 18.1579 17.9184 18.5496C17.5247 18.9414 17.23 19.4212 17.0584 19.9495L16.4584 21.6495C16.3959 21.8536 16.2698 22.0323 16.0984 22.1595C15.9161 22.2849 15.6997 22.3512 15.4784 22.3495C15.2566 22.359 15.0379 22.2944 14.8568 22.1658C14.6758 22.0373 14.5426 21.8521 14.4784 21.6395L13.9084 19.9296C13.7369 19.4013 13.4421 18.9214 13.0484 18.5295C12.6513 18.1403 12.1733 17.8433 11.6484 17.6595L9.93844 17.0995C9.73627 17.0281 9.55913 16.8996 9.42843 16.7296C9.29598 16.5496 9.22262 16.333 9.21844 16.1096C9.20896 15.8877 9.27359 15.669 9.40214 15.4879C9.5307 15.3069 9.71586 15.1738 9.92843 15.1096L11.6484 14.5396C12.1819 14.3672 12.6667 14.0706 13.0631 13.6742C13.4595 13.2778 13.7561 12.7929 13.9284 12.2595L14.4984 10.5695C14.5567 10.3616 14.6808 10.1781 14.852 10.0465C15.0233 9.91492 15.2325 9.84232 15.4484 9.83954C15.6634 9.84007 15.8742 9.8988 16.0584 10.0095C16.2404 10.135 16.3799 10.3129 16.4584 10.5195L17.0384 12.2595C17.2108 12.7929 17.5074 13.2778 17.9038 13.6742C18.3002 14.0706 18.785 14.3672 19.3184 14.5396L21.0184 15.1395C21.2253 15.2073 21.4043 15.3407 21.5284 15.5195C21.6639 15.6941 21.7378 15.9086 21.7384 16.1295Z" fill="black"/>
<path d="M11.7385 9.76953C11.7369 9.96556 11.6778 10.1568 11.5684 10.3195C11.4502 10.4805 11.2866 10.6024 11.0985 10.6695L9.83844 11.0895C9.4865 11.2119 9.16564 11.4099 8.89844 11.6695C8.6369 11.9353 8.43865 12.2566 8.31844 12.6096L7.88844 13.8495C7.82818 14.0412 7.70482 14.2068 7.53844 14.3195C7.37404 14.4343 7.17893 14.497 6.97844 14.4995C6.77346 14.4961 6.57448 14.4298 6.40845 14.3096C6.25117 14.1899 6.13284 14.0264 6.06844 13.8395L5.65845 12.5895C5.53814 12.2396 5.33981 11.9215 5.07845 11.6595C4.8218 11.3915 4.50204 11.1921 4.14844 11.0795L2.89844 10.6595C2.70448 10.5985 2.53588 10.4756 2.41844 10.3096C2.33884 10.1849 2.28789 10.0441 2.26926 9.89733C2.25062 9.7506 2.26477 9.6016 2.31069 9.46099C2.3566 9.32039 2.43313 9.19168 2.53476 9.08422C2.6364 8.97676 2.76061 8.8932 2.89844 8.83953L4.14844 8.42956C4.50214 8.30606 4.82341 8.10432 5.08832 7.83941C5.35323 7.5745 5.55494 7.25323 5.67844 6.89953L6.08844 5.66955C6.14738 5.48522 6.25855 5.32192 6.40845 5.19952C6.56774 5.0795 6.75926 5.00983 6.95844 4.99951C7.16023 4.99408 7.35895 5.0499 7.52844 5.15954C7.69526 5.27215 7.82421 5.43249 7.89844 5.61956L8.31844 6.89953C8.44194 7.25323 8.64366 7.5745 8.90857 7.83941C9.17348 8.10432 9.49475 8.30606 9.84845 8.42956L11.0985 8.85955C11.2854 8.92377 11.4467 9.04647 11.5584 9.20953C11.6768 9.37213 11.7399 9.56841 11.7385 9.76953Z" fill="black"/>
<path d="M17.5284 4.40956C17.5194 4.59189 17.4606 4.76828 17.3584 4.91957C17.2544 5.06217 17.1071 5.16738 16.9384 5.21956L16.3184 5.42958C16.198 5.47115 16.0886 5.53956 15.9985 5.62965C15.9084 5.71974 15.84 5.8291 15.7984 5.94954L15.5784 6.57954C15.5181 6.73295 15.418 6.86756 15.2884 6.96956C15.141 7.08766 14.9573 7.15124 14.7684 7.14955C14.5954 7.13959 14.4274 7.08811 14.2784 6.99953C14.1299 6.88848 14.0183 6.73516 13.9584 6.55959L13.7484 5.93953C13.7114 5.81698 13.6424 5.70657 13.5484 5.61958C13.4603 5.52707 13.3502 5.45828 13.2284 5.41957L12.6084 5.21956C12.4435 5.15523 12.2985 5.04826 12.1884 4.90956C12.0835 4.76026 12.0276 4.58203 12.0284 4.39955C12.0342 4.21663 12.0933 4.03937 12.1984 3.88954C12.3053 3.74981 12.4516 3.64533 12.6184 3.58955L13.2284 3.38954C13.3515 3.34723 13.464 3.27902 13.5584 3.18953C13.6472 3.09454 13.7153 2.98222 13.7584 2.85957L13.9684 2.23958C14.0273 2.08516 14.1235 1.9477 14.2484 1.83955C14.3919 1.73367 14.5611 1.66806 14.7384 1.64955C14.9272 1.64847 15.1118 1.70426 15.2684 1.80959C15.4094 1.91564 15.5198 2.05706 15.5884 2.21956L15.7984 2.85957C15.8416 2.98222 15.9097 3.09454 15.9984 3.18953C16.0914 3.2759 16.2 3.34379 16.3184 3.38954L16.9484 3.59956C17.1086 3.6626 17.2499 3.76592 17.3584 3.89955C17.4675 4.04734 17.527 4.22588 17.5284 4.40956Z" fill="black"/>
</svg>
