<svg width="24" height="24" viewBox="0 0 24 24" fill="none" xmlns="http://www.w3.org/2000/svg">
<path d="M21.9698 10.3464C21.9124 10.5682 21.7988 10.7715 21.6398 10.9364L17.3097 14.5464L18.6398 20.0464C18.6889 20.3054 18.661 20.5731 18.5597 20.8164C18.463 21.0263 18.3153 21.2086 18.1298 21.3464C17.9391 21.4842 17.7143 21.5672 17.4798 21.5864H17.3598C17.1692 21.5836 16.9814 21.5393 16.8097 21.4564L11.9798 18.4064L7.22979 21.3564C7.00095 21.483 6.74085 21.542 6.47979 21.5264C6.25056 21.4978 6.03129 21.4156 5.83977 21.2864C5.65253 21.1466 5.50443 20.9609 5.40984 20.7472C5.31526 20.5335 5.27734 20.299 5.29973 20.0664L6.64971 14.4764L2.38982 10.9364C2.34227 10.9007 2.30149 10.8567 2.2697 10.8064C2.14183 10.6414 2.05604 10.4478 2.01946 10.2423C1.98288 10.0367 1.99666 9.82543 2.05974 9.62643C2.12813 9.42703 2.24106 9.24579 2.38982 9.09643C2.53546 8.94525 2.71811 8.8349 2.91973 8.77643C2.97254 8.76592 3.02695 8.76592 3.07976 8.77643L8.68975 8.30643L10.8198 3.16641C10.9279 2.94359 11.0936 2.75372 11.2997 2.61642C11.4884 2.49532 11.7058 2.4263 11.9297 2.41641C12.1498 2.40191 12.3699 2.44318 12.5698 2.53641C12.7715 2.63721 12.9463 2.78463 13.0798 2.96643L13.1497 3.10641L15.2897 8.25641L20.8898 8.77643H20.9898C21.2123 8.83403 21.418 8.94372 21.5898 9.09643C21.7575 9.25573 21.8814 9.45544 21.9498 9.67642C22.0098 9.89496 22.0167 10.1247 21.9698 10.3464Z" fill="black"/>
</svg>
