<svg width="24" height="24" viewBox="0 0 24 24" fill="none" xmlns="http://www.w3.org/2000/svg">
<path d="M12 1.75C9.97274 1.75 7.99102 2.35119 6.30542 3.47748C4.61981 4.60376 3.30604 6.20457 2.53024 8.07751C1.75444 9.95046 1.55146 12.0114 1.94696 13.9997C2.34245 15.988 3.31867 17.8144 4.75216 19.2479C6.18565 20.6814 8.01203 21.6576 10.0003 22.0531C11.9886 22.4486 14.0496 22.2456 15.9225 21.4698C17.7955 20.694 19.3963 19.3802 20.5225 17.6946C21.6488 16.009 22.25 14.0273 22.25 12C22.25 9.28153 21.1701 6.67445 19.2478 4.7522C17.3256 2.82995 14.7185 1.75 12 1.75ZM17.69 12.59C17.5639 12.7559 17.3891 12.8783 17.19 12.94L15.58 13.48C15.088 13.6482 14.6402 13.925 14.27 14.29C13.9022 14.6581 13.6249 15.1065 13.46 15.6L12.91 17.21C12.836 17.3916 12.7152 17.5503 12.56 17.67C12.394 17.7903 12.195 17.8566 11.99 17.86C11.784 17.8631 11.583 17.7961 11.42 17.67C11.2537 17.5507 11.128 17.3831 11.06 17.19L10.53 15.58C10.3653 15.0848 10.0868 14.6351 9.71691 14.267C9.34702 13.8988 8.89597 13.6224 8.39999 13.46L6.79998 12.9301C6.60691 12.862 6.43938 12.7363 6.32 12.57C6.19535 12.4063 6.12852 12.2058 6.13 12C6.13135 11.7916 6.19778 11.5889 6.32 11.42C6.43485 11.2579 6.60011 11.1384 6.79 11.08L8.39999 10.54C8.89767 10.3715 9.35188 10.0949 9.73001 9.73004C10.0996 9.35557 10.3769 8.90021 10.54 8.40002L11.08 6.82001C11.1399 6.63081 11.2548 6.46373 11.41 6.34003C11.5695 6.20535 11.7713 6.13099 11.98 6.13C12.1784 6.12659 12.3733 6.18232 12.54 6.29004C12.716 6.39944 12.8499 6.56502 12.92 6.76001L13.46 8.39001C13.6279 8.8932 13.9084 9.3515 14.28 9.73004C14.656 10.0926 15.1064 10.369 15.6 10.54L17.21 11.1C17.4013 11.161 17.5668 11.2842 17.68 11.45C17.7967 11.6172 17.8595 11.8161 17.86 12.02C17.8589 12.2224 17.7999 12.4201 17.69 12.59Z" fill="black"/>
</svg>
