<svg width="24" height="24" viewBox="0 0 24 24" fill="none" xmlns="http://www.w3.org/2000/svg">
<path d="M21.97 14.6065C21.967 14.8283 21.8951 15.0436 21.7643 15.2228C21.6335 15.4019 21.4503 15.536 21.24 15.6065L19.36 16.2265C18.7677 16.4307 18.2329 16.7735 17.8 17.2265C17.3496 17.6653 17.0073 18.2028 16.8 18.7965L16.15 20.6665C16.076 20.8727 15.944 21.0533 15.77 21.1865C15.5855 21.3162 15.3656 21.386 15.14 21.3865C14.9168 21.3909 14.6986 21.3205 14.52 21.1865C14.3376 21.0552 14.2011 20.8697 14.13 20.6565L13.5 18.7765C13.305 18.1855 12.9747 17.6481 12.5355 17.2072C12.0963 16.7662 11.5603 16.4338 10.97 16.2365L9.09001 15.6165C8.87857 15.5419 8.69408 15.4062 8.56001 15.2265C8.45998 15.0903 8.39393 14.9322 8.36739 14.7654C8.34084 14.5986 8.35456 14.4278 8.40739 14.2674C8.46023 14.1069 8.55066 13.9613 8.67114 13.8429C8.79162 13.7245 8.93866 13.6366 9.10001 13.5865L10.97 12.9664C11.5669 12.7721 12.1096 12.44 12.5544 11.997C12.9991 11.554 13.3333 11.0126 13.53 10.4165L14.15 8.55648C14.2106 8.34876 14.3369 8.16628 14.51 8.03646C14.6819 7.8938 14.8967 7.81285 15.12 7.80648C15.3476 7.79173 15.5734 7.85523 15.76 7.98647C15.9518 8.10821 16.0964 8.29162 16.17 8.50649L16.8 10.4065C16.9944 11.0033 17.3265 11.5461 17.7695 11.9908C18.2125 12.4355 18.7539 12.7698 19.35 12.9664L21.22 13.6165C21.4305 13.6823 21.6133 13.8159 21.74 13.9965C21.8765 14.1719 21.9567 14.3846 21.97 14.6065Z" fill="black"/>
<path d="M12.1 7.65644C12.0971 7.86145 12.0313 8.06065 11.9115 8.227C11.7916 8.39335 11.6235 8.51886 11.43 8.5865L10.09 9.0265C9.71225 9.16082 9.3702 9.37969 9.09 9.66645C8.80432 9.94753 8.58558 10.2893 8.45001 10.6665L7.98 12.0065C7.9156 12.1933 7.79729 12.3568 7.64001 12.4764C7.46975 12.5958 7.26789 12.6619 7.06001 12.6665C6.85502 12.663 6.65603 12.5967 6.49 12.4764C6.32205 12.3544 6.19623 12.1832 6.13 11.9865L5.69 10.6465C5.55567 10.2687 5.33676 9.92669 5.05 9.64649C4.76807 9.36187 4.42654 9.14327 4.05 9.00648L2.70001 8.55647C2.50427 8.49348 2.33528 8.36675 2.22001 8.19648C2.09536 8.03274 2.02853 7.83226 2.03001 7.62647C2.03135 7.41806 2.09778 7.21527 2.22001 7.04646C2.34496 6.88592 2.51589 6.76735 2.71 6.70649L4.05 6.25648C4.42714 6.1209 4.76892 5.90214 5.05 5.61646C5.33963 5.33861 5.559 4.99584 5.69 4.61646L6.14001 3.29646C6.19994 3.10725 6.31481 2.94018 6.47001 2.81648C6.62976 2.69032 6.82648 2.62005 7.03001 2.61646C7.23622 2.59912 7.44186 2.65588 7.61001 2.7765C7.78212 2.89022 7.91484 3.05436 7.99 3.24647L8.44 4.61646C8.57464 4.99407 8.79352 5.33605 9.08001 5.61646C9.36109 5.90214 9.70287 6.1209 10.08 6.25648L11.43 6.72645C11.6182 6.79675 11.7809 6.92215 11.8969 7.08625C12.0128 7.25036 12.0766 7.44559 12.08 7.64649L12.1 7.65644Z" fill="black"/>
</svg>
