<svg width="24" height="24" viewBox="0 0 24 24" fill="none" xmlns="http://www.w3.org/2000/svg">
<path d="M21.9691 9.46925C21.9685 9.69168 21.8985 9.90839 21.7691 10.0892C21.6368 10.2707 21.4517 10.4069 21.2391 10.4792L19.3591 11.0993C18.7688 11.2966 18.2328 11.629 17.7936 12.0699C17.3544 12.5108 17.0241 13.0482 16.8291 13.6392L16.1791 15.5092C16.105 15.7182 15.9689 15.8996 15.7891 16.0293C15.6531 16.1272 15.4958 16.1915 15.3302 16.2169C15.1646 16.2423 14.9953 16.228 14.8362 16.1753C14.6771 16.1226 14.5328 16.033 14.4151 15.9137C14.2974 15.7944 14.2097 15.649 14.1591 15.4892L13.5291 13.6092C13.3248 13.0169 12.982 12.4821 12.5291 12.0492C12.0902 11.5988 11.5528 11.2565 10.9591 11.0492L9.07907 10.4192C8.86655 10.352 8.68091 10.2189 8.54905 10.0392C8.41945 9.85656 8.34983 9.63815 8.34983 9.4142C8.34983 9.19025 8.41945 8.97184 8.54905 8.7892C8.68195 8.60404 8.8715 8.46719 9.08906 8.39925L10.9591 7.76924C11.5609 7.56684 12.1059 7.22405 12.5491 6.76924C12.9996 6.32663 13.3419 5.78589 13.5491 5.18922L14.1691 3.33925C14.2277 3.12788 14.3542 2.94162 14.5291 2.80922C14.705 2.66806 14.9235 2.59056 15.1491 2.58925C15.3725 2.58386 15.5922 2.64664 15.7791 2.76924C15.9691 2.88845 16.1134 3.06808 16.1891 3.27925L16.8191 5.18922C17.0262 5.78589 17.3685 6.32663 17.8191 6.76924C18.2593 7.22272 18.8008 7.56542 19.3991 7.76924L21.2691 8.42921C21.4796 8.49507 21.6624 8.62867 21.7891 8.80922C21.9197 9.00359 21.9829 9.23548 21.9691 9.46925Z" fill="black"/>
<path d="M12.0991 16.3992C12.0986 16.6031 12.0358 16.802 11.9191 16.9692C11.7982 17.1318 11.6308 17.2538 11.4391 17.3192L10.0891 17.7692C9.7113 17.9035 9.36926 18.1225 9.08906 18.4092C8.80444 18.6912 8.58586 19.0327 8.44906 19.4092L7.97906 20.7492C7.91371 20.9409 7.79165 21.1083 7.62906 21.2292C7.46067 21.3475 7.25987 21.4111 7.05406 21.4111C6.84825 21.4111 6.64745 21.3475 6.47906 21.2292C6.31647 21.1083 6.19441 20.9409 6.12906 20.7492L5.68905 19.4092C5.55347 19.0321 5.33473 18.6903 5.04905 18.4092C4.76712 18.1246 4.42559 17.906 4.04905 17.7692L2.69906 17.3292C2.50599 17.2612 2.33845 17.1355 2.21907 16.9692C2.0988 16.8032 2.03247 16.6042 2.02906 16.3992C2.03247 16.1942 2.0988 15.9952 2.21907 15.8292C2.34107 15.6613 2.51232 15.5355 2.70906 15.4692L4.04905 15.0292C4.42619 14.8936 4.76798 14.6749 5.04905 14.3892C5.33191 14.1058 5.55022 13.7647 5.68905 13.3892L6.13906 12.0692C6.199 11.88 6.31387 11.7129 6.46907 11.5892C6.63131 11.4656 6.82747 11.3945 7.03123 11.3856C7.23499 11.3767 7.43662 11.4303 7.60907 11.5392C7.78019 11.6583 7.91236 11.8253 7.98906 12.0192L8.43905 13.3892C8.57789 13.7647 8.79621 14.1058 9.07907 14.3892C9.35948 14.6757 9.70146 14.8946 10.0791 15.0292L11.4191 15.4992C11.6107 15.5595 11.7764 15.6828 11.8891 15.8492C12.0162 16.0053 12.0898 16.1981 12.0991 16.3992Z" fill="black"/>
</svg>
