<svg width="24" height="24" viewBox="0 0 24 24" fill="none" xmlns="http://www.w3.org/2000/svg">
<path d="M16.46 2.25H7.54004C6.13786 2.25264 4.79386 2.81081 3.80237 3.80231C2.81087 4.7938 2.25264 6.13779 2.25 7.53998V16.46C2.25 17.863 2.80737 19.2085 3.79944 20.2006C4.79151 21.1926 6.13704 21.75 7.54004 21.75H16.46C17.863 21.75 19.2086 21.1926 20.2006 20.2006C21.1927 19.2085 21.75 17.863 21.75 16.46V7.53998C21.7474 6.13779 21.1892 4.7938 20.1977 3.80231C19.2062 2.81081 17.8622 2.25264 16.46 2.25ZM16.05 14.55C16.05 14.9478 15.892 15.3294 15.6107 15.6107C15.3294 15.892 14.9479 16.05 14.55 16.05H9.46002C9.2622 16.0513 9.06608 16.0135 8.88293 15.9387C8.69979 15.8639 8.53323 15.7536 8.39288 15.6142C8.25253 15.4748 8.14119 15.309 8.06519 15.1263C7.98918 14.9437 7.95001 14.7478 7.95001 14.55V9.46002C7.95001 9.05955 8.10909 8.67545 8.39227 8.39227C8.67545 8.10909 9.05955 7.95001 9.46002 7.95001H14.55C14.9488 7.95265 15.3303 8.11286 15.6113 8.39575C15.8923 8.67865 16.0501 9.06127 16.05 9.46002V14.55Z" fill="black"/>
</svg>
