<svg width="24" height="24" viewBox="0 0 24 24" fill="none" xmlns="http://www.w3.org/2000/svg">
<path d="M12 2.25C10.0717 2.25 8.18659 2.82184 6.58321 3.89319C4.97983 4.96453 3.73016 6.48722 2.99221 8.2688C2.25425 10.0504 2.06113 12.0108 2.43734 13.9021C2.81354 15.7934 3.74217 17.5307 5.10573 18.8943C6.4693 20.2578 8.20655 21.1864 10.0979 21.5626C11.9892 21.9388 13.9496 21.7458 15.7312 21.0078C17.5127 20.2699 19.0355 19.0202 20.1068 17.4168C21.1782 15.8134 21.75 13.9284 21.75 12C21.7474 9.41495 20.7193 6.93655 18.8914 5.10864C17.0635 3.28074 14.5851 2.25265 12 2.25ZM16.11 14.59C16.11 14.9931 15.9499 15.3797 15.6648 15.6648C15.3798 15.9499 14.9931 16.11 14.59 16.11H9.40999C9.00687 16.11 8.62028 15.9499 8.33523 15.6648C8.05017 15.3797 7.89004 14.9931 7.89004 14.59V9.41998C7.89003 9.01593 8.04984 8.62826 8.33462 8.34161C8.61939 8.05497 9.00595 7.89266 9.40999 7.89001H14.59C14.994 7.89266 15.3807 8.05497 15.6654 8.34161C15.9502 8.62826 16.11 9.01593 16.11 9.41998V14.59Z" fill="black"/>
</svg>
