<svg width="24" height="24" viewBox="0 0 24 24" fill="none" xmlns="http://www.w3.org/2000/svg">
<path d="M16.59 2H7.41992C5.98418 2 4.6071 2.56964 3.59094 3.58392C2.57478 4.59821 2.00265 5.97426 2 7.41V16.58C2 18.0175 2.57096 19.3961 3.5874 20.4125C4.60385 21.429 5.98245 22 7.41992 22H16.59C18.0257 21.9974 19.4017 21.4251 20.416 20.409C21.4303 19.3928 22 18.0157 22 16.58V7.41C21.9974 5.97599 21.4265 4.60146 20.4125 3.58746C19.3985 2.57346 18.024 2.00264 16.59 2ZM16.35 14.74C16.3513 14.9509 16.3109 15.1601 16.2311 15.3553C16.1513 15.5506 16.0336 15.7282 15.8849 15.8778C15.7362 16.0275 15.5594 16.1462 15.3646 16.2273C15.1698 16.3083 14.961 16.35 14.75 16.35H9.26001C9.04858 16.35 8.83913 16.3084 8.6438 16.2274C8.44846 16.1465 8.27108 16.028 8.12158 15.8784C7.97208 15.7289 7.85337 15.5514 7.77246 15.3561C7.69155 15.1608 7.65002 14.9514 7.65002 14.74V9.25C7.65002 9.03904 7.69167 8.83015 7.77271 8.63538C7.85374 8.4406 7.97244 8.26379 8.12207 8.11508C8.2717 7.96638 8.44938 7.84871 8.64465 7.76889C8.83993 7.68907 9.04905 7.64868 9.26001 7.64999H14.75C14.9605 7.64867 15.169 7.68914 15.3638 7.76907C15.5585 7.84901 15.7354 7.96682 15.8843 8.11566C16.0331 8.2645 16.1509 8.44142 16.2308 8.63614C16.3108 8.83086 16.3513 9.03951 16.35 9.25V14.74Z" fill="black"/>
</svg>
