<svg width="24" height="24" viewBox="0 0 24 24" fill="none" xmlns="http://www.w3.org/2000/svg">
<path d="M17.6153 12C17.6153 13.1238 17.2819 14.2224 16.6573 15.1567C16.0327 16.091 15.1451 16.819 14.1067 17.2486C13.0682 17.6782 11.9257 17.7901 10.8236 17.5701C9.72149 17.3501 8.70933 16.8082 7.91537 16.0128C7.12141 15.2175 6.58128 14.2044 6.36325 13.102C6.14521 11.9995 6.25908 10.8571 6.69052 9.81944C7.12196 8.78173 7.85157 7.8953 8.78695 7.27238C9.72234 6.64946 10.8215 6.31804 11.9453 6.32002C12.6907 6.32001 13.4288 6.467 14.1174 6.75257C14.806 7.03814 15.4316 7.45666 15.9582 7.98423C16.4849 8.5118 16.9023 9.13806 17.1866 9.82713C17.471 10.5162 17.6166 11.2546 17.6153 12Z" fill="black"/>
<path d="M3.61505 13H2.51508C2.24986 13 1.99546 12.8946 1.80792 12.7071C1.62039 12.5196 1.51508 12.2652 1.51508 12C1.51508 11.7348 1.62039 11.4804 1.80792 11.2929C1.99546 11.1053 2.24986 11 2.51508 11H3.61505C3.88027 11 4.13467 11.1053 4.3222 11.2929C4.50974 11.4804 4.61505 11.7348 4.61505 12C4.61505 12.2652 4.50974 12.5196 4.3222 12.7071C4.13467 12.8946 3.88027 13 3.61505 13Z" fill="black"/>
<path d="M21.4849 13H20.395C20.1297 13 19.8753 12.8946 19.6878 12.7071C19.5003 12.5196 19.395 12.2652 19.395 12C19.395 11.7348 19.5003 11.4804 19.6878 11.2929C19.8753 11.1053 20.1297 11 20.395 11H21.4849C21.7501 11 22.0045 11.1053 22.1921 11.2929C22.3796 11.4804 22.4849 11.7348 22.4849 12C22.4849 12.2652 22.3796 12.5196 22.1921 12.7071C22.0045 12.8946 21.7501 13 21.4849 13Z" fill="black"/>
<path d="M11.9853 4.60001C11.7201 4.60001 11.4657 4.49463 11.2781 4.3071C11.0906 4.11956 10.9853 3.86522 10.9853 3.60001V2.5C10.9853 2.23478 11.0906 1.98041 11.2781 1.79288C11.4657 1.60534 11.7201 1.5 11.9853 1.5C12.2505 1.5 12.5049 1.60534 12.6924 1.79288C12.88 1.98041 12.9853 2.23478 12.9853 2.5V3.60001C12.9853 3.86522 12.88 4.11956 12.6924 4.3071C12.5049 4.49463 12.2505 4.60001 11.9853 4.60001Z" fill="black"/>
<path d="M11.9853 22.5C11.7201 22.5 11.4657 22.3946 11.2781 22.2071C11.0906 22.0195 10.9853 21.7652 10.9853 21.5V20.4C10.9853 20.1347 11.0906 19.8804 11.2781 19.6928C11.4657 19.5053 11.7201 19.4 11.9853 19.4C12.2505 19.4 12.5049 19.5053 12.6924 19.6928C12.88 19.8804 12.9853 20.1347 12.9853 20.4V21.5C12.9853 21.7652 12.88 22.0195 12.6924 22.2071C12.5049 22.3946 12.2505 22.5 11.9853 22.5Z" fill="black"/>
<path d="M6.04535 7.06003C5.91304 7.05948 5.78209 7.03267 5.66022 6.98117C5.53834 6.92967 5.42788 6.8545 5.33527 6.76001L4.55524 5.99002C4.36693 5.80172 4.26117 5.54633 4.26117 5.28003C4.26117 5.01373 4.36693 4.75834 4.55524 4.57004C4.74354 4.38173 4.99902 4.27594 5.26532 4.27594C5.53162 4.27594 5.78698 4.38173 5.97528 4.57004L6.75531 5.35004C6.94156 5.5374 7.04608 5.79084 7.04608 6.05502C7.04608 6.31921 6.94156 6.57265 6.75531 6.76001C6.6627 6.8545 6.55223 6.92967 6.43036 6.98117C6.30848 7.03267 6.17766 7.05948 6.04535 7.06003Z" fill="black"/>
<path d="M18.6951 19.68C18.4328 19.6789 18.1815 19.5747 17.9952 19.39L17.2152 18.61C17.1105 18.5204 17.0254 18.41 16.9654 18.286C16.9054 18.1619 16.8717 18.0268 16.8664 17.8891C16.8611 17.7513 16.8842 17.614 16.9345 17.4857C16.9848 17.3573 17.0611 17.2408 17.1585 17.1434C17.256 17.0459 17.3725 16.9696 17.5008 16.9194C17.6291 16.8691 17.7665 16.8459 17.9042 16.8512C18.042 16.8565 18.177 16.8902 18.3011 16.9503C18.4252 17.0103 18.5355 17.0953 18.6252 17.2L19.4052 17.98C19.5915 18.1674 19.696 18.4208 19.696 18.685C19.696 18.9492 19.5915 19.2026 19.4052 19.39C19.3118 19.4827 19.2009 19.556 19.0791 19.6058C18.9572 19.6556 18.8267 19.6808 18.6951 19.68Z" fill="black"/>
<path d="M17.9252 7.06003C17.7266 7.06118 17.532 7.00314 17.3665 6.89334C17.201 6.78354 17.072 6.62696 16.9958 6.44351C16.9196 6.26007 16.8998 6.05809 16.9389 5.86334C16.978 5.66859 17.0741 5.48991 17.2152 5.35004L17.9952 4.57004C18.1826 4.38379 18.436 4.27924 18.7001 4.27924C18.9643 4.27924 19.2179 4.38379 19.4052 4.57004C19.499 4.663 19.5733 4.77359 19.6241 4.89545C19.6749 5.01731 19.701 5.14802 19.701 5.28003C19.701 5.41204 19.6749 5.54275 19.6241 5.66461C19.5733 5.78647 19.499 5.89706 19.4052 5.99002L18.6252 6.76001C18.4406 6.94842 18.189 7.05627 17.9252 7.06003Z" fill="black"/>
<path d="M5.26495 19.68C5.13335 19.6808 5.00288 19.6556 4.88104 19.6058C4.75921 19.556 4.64831 19.4827 4.55487 19.39C4.36862 19.2027 4.2641 18.9492 4.2641 18.685C4.2641 18.4208 4.36862 18.1674 4.55487 17.98L5.3349 17.2C5.42786 17.1063 5.53848 17.0319 5.66034 16.9811C5.7822 16.9304 5.91297 16.9042 6.04498 16.9042C6.17699 16.9042 6.30765 16.9304 6.4295 16.9811C6.55136 17.0319 6.66198 17.1063 6.75494 17.2C6.94119 17.3874 7.04572 17.6408 7.04572 17.905C7.04572 18.1692 6.94119 18.4227 6.75494 18.61L5.97491 19.39C5.88147 19.4827 5.7707 19.556 5.64886 19.6058C5.52703 19.6556 5.39656 19.6808 5.26495 19.68Z" fill="black"/>
</svg>
