<svg width="24" height="24" viewBox="0 0 24 24" fill="none" xmlns="http://www.w3.org/2000/svg">
<path d="M20.9799 9.15157C20.522 7.71289 19.7253 6.40524 18.6568 5.33852C17.5884 4.27179 16.2794 3.47718 14.84 3.02156C13.9267 2.70955 12.9647 2.56392 12 2.59157C10.7635 2.58893 9.53864 2.83054 8.39577 3.30251C7.25291 3.77447 6.21456 4.46749 5.34023 5.34181C4.46591 6.21614 3.77283 7.25455 3.30086 8.39742C2.8289 9.54028 2.58735 10.7651 2.58999 12.0016C2.59116 12.9652 2.73954 13.9228 3.02999 14.8416C3.48351 16.2836 4.27955 17.5943 5.35 18.6616C6.21949 19.5341 7.2528 20.2262 8.39059 20.6981C9.52837 21.1701 10.7482 21.4125 11.9799 21.4116C12.9506 21.418 13.9161 21.2695 14.84 20.9716C16.2809 20.5157 17.591 19.7199 18.6596 18.6513C19.7283 17.5826 20.5241 16.2725 20.9799 14.8316C21.2623 13.9146 21.4073 12.961 21.41 12.0016C21.414 11.0351 21.2689 10.0738 20.9799 9.15157ZM9.60995 4.45155C9.80995 4.39155 10.01 4.33158 10.21 4.29158C10.7965 4.15221 11.3972 4.08171 12 4.08156C12.5955 4.08271 13.1892 4.1498 13.77 4.28157C13.97 4.28157 14.17 4.38154 14.37 4.44154C14.622 4.52002 14.8691 4.61355 15.1099 4.72157L14.62 7.19155C14.4561 7.09623 14.2857 7.01269 14.1099 6.94155C13.847 6.82498 13.572 6.73784 13.2899 6.6816C12.4311 6.45664 11.5288 6.45664 10.6699 6.6816C10.3892 6.7474 10.1149 6.8377 9.85 6.95155C9.67247 7.01857 9.5017 7.10228 9.33999 7.20155L8.85 4.74159C9.09714 4.62942 9.3509 4.53253 9.60995 4.45155ZM6.68996 13.3016C6.75086 13.5792 6.83792 13.8504 6.94997 14.1116C7.02323 14.2896 7.1067 14.4632 7.19997 14.6315L4.73995 15.1216C4.63193 14.8807 4.53846 14.6336 4.45998 14.3815C4.39998 14.1815 4.33995 13.9816 4.29995 13.7816C4.16057 13.1951 4.09013 12.5944 4.08999 11.9916C4.09168 11.3894 4.15869 10.7892 4.28994 10.2016C4.28994 10.0016 4.38997 9.81159 4.44997 9.61159C4.53183 9.35285 4.62863 9.09908 4.73995 8.85158L7.19997 9.34157C7.10466 9.50543 7.02112 9.67587 6.94997 9.85158C6.83595 10.1198 6.74559 10.3976 6.67995 10.6816C6.57088 11.1096 6.51713 11.5499 6.51998 11.9916C6.51676 12.434 6.57394 12.8747 6.68996 13.3016ZM14.39 19.5316C14.19 19.5916 13.9899 19.6515 13.7899 19.6915C13.2018 19.8213 12.6022 19.8916 12 19.9016C11.3984 19.8833 10.7995 19.8131 10.21 19.6915C10.01 19.6915 9.81996 19.6016 9.61996 19.5416C9.41996 19.4816 9.11996 19.3616 8.86996 19.2616L9.35995 16.7916C9.52409 16.8835 9.69452 16.9637 9.86996 17.0316C10.1348 17.1454 10.4092 17.2358 10.69 17.3016C11.1176 17.414 11.5578 17.4712 12 17.4716C12.442 17.4699 12.8821 17.4128 13.31 17.3016C13.5904 17.2392 13.8648 17.1522 14.13 17.0416C14.3057 16.9704 14.4761 16.8869 14.64 16.7916L15.13 19.2516C14.8891 19.3596 14.642 19.4531 14.39 19.5316ZM15.66 13.5316C15.2642 14.4868 14.5052 15.2457 13.5499 15.6416C12.5761 16.0445 11.4825 16.0469 10.5069 15.648C9.53134 15.2492 8.75264 14.4814 8.33999 13.5116C8.08922 12.9058 7.99117 12.2478 8.05446 11.5953C8.11776 10.9428 8.3404 10.3159 8.7029 9.76967C9.0654 9.22345 9.55659 8.7747 10.1333 8.46291C10.7099 8.15111 11.3544 7.98581 12.01 7.98158C12.5428 7.98395 13.0698 8.09275 13.56 8.30159C14.2795 8.60866 14.8932 9.11999 15.3252 9.77229C15.7571 10.4246 15.9882 11.1892 15.99 11.9716C15.9926 12.5124 15.8802 13.0476 15.66 13.5416V13.5316ZM19.66 13.7716C19.66 13.9716 19.56 14.1616 19.5 14.3616C19.4215 14.6169 19.328 14.8673 19.22 15.1116L16.75 14.6216C16.8453 14.4577 16.9288 14.2873 17 14.1116C17.2688 13.4328 17.4144 12.7115 17.43 11.9816C17.4344 11.5391 17.3772 11.0982 17.26 10.6716C17.2022 10.3899 17.1151 10.1151 17 9.85158C16.92 9.67158 16.84 9.50156 16.75 9.33156L19.22 8.84157C19.328 9.08242 19.4215 9.32952 19.5 9.58156C19.5638 9.78198 19.6173 9.98557 19.66 10.1915C19.7923 10.779 19.8594 11.3794 19.8599 11.9816C19.8754 12.5852 19.8252 13.1888 19.71 13.7816L19.66 13.7716Z" fill="black"/>
</svg>
