<svg width="24" height="24" viewBox="0 0 24 24" fill="none" xmlns="http://www.w3.org/2000/svg">
<path d="M20.82 5.72541C20.0443 4.95269 18.9949 4.51779 17.9 4.51542H8.74C8.18418 4.50427 7.63179 4.60572 7.11622 4.81366C6.60064 5.02161 6.13255 5.33175 5.74 5.72541C5.71159 5.74717 5.68785 5.77435 5.67005 5.80539L2.58997 10.0154C2.20354 10.6108 1.99859 11.3056 2.00001 12.0154C2.00906 12.7265 2.22064 13.4203 2.60999 14.0154L5.67005 18.1854L5.74 18.2754C6.12277 18.6598 6.57782 18.9647 7.07899 19.1723C7.58015 19.38 8.11755 19.4864 8.66004 19.4854H17.87C18.9648 19.483 20.0144 19.0481 20.79 18.2754C21.1745 17.8926 21.4792 17.4375 21.6869 16.9364C21.8946 16.4352 22.001 15.8979 22 15.3554V8.58539C21.9942 7.51475 21.5708 6.48866 20.82 5.72541ZM16.9299 13.0354H14.24V15.7254C14.24 15.9906 14.1347 16.245 13.9472 16.4325C13.7596 16.62 13.5052 16.7254 13.24 16.7254C12.9748 16.7254 12.7204 16.62 12.5328 16.4325C12.3453 16.245 12.24 15.9906 12.24 15.7254V13.0454H9.55994C9.29473 13.0454 9.04045 12.94 8.85291 12.7525C8.66538 12.565 8.55994 12.3106 8.55994 12.0454C8.55994 11.7802 8.66538 11.5258 8.85291 11.3383C9.04045 11.1508 9.29473 11.0454 9.55994 11.0454H12.24V8.35541C12.24 8.0902 12.3453 7.83583 12.5328 7.64829C12.7204 7.46075 12.9748 7.35541 13.24 7.35541C13.5052 7.35541 13.7596 7.46075 13.9472 7.64829C14.1347 7.83583 14.24 8.0902 14.24 8.35541V11.0454H16.9299C17.1952 11.0454 17.4496 11.1508 17.6371 11.3383C17.8246 11.5258 17.9299 11.7802 17.9299 12.0454C17.9299 12.3106 17.8246 12.565 17.6371 12.7525C17.4496 12.94 17.1952 13.0454 16.9299 13.0454V13.0354Z" fill="black"/>
</svg>
