<svg width="24" height="24" viewBox="0 0 24 24" fill="none" xmlns="http://www.w3.org/2000/svg">
<path d="M22 5.05001V15.45C21.9974 16.1096 21.7342 16.7414 21.2678 17.2078C20.8014 17.6742 20.1696 17.9374 19.51 17.94H12.75V19.94H15.47C15.6689 19.94 15.8597 20.019 16.0004 20.1597C16.141 20.3003 16.22 20.4911 16.22 20.69C16.22 20.8889 16.141 21.0797 16.0004 21.2203C15.8597 21.361 15.6689 21.44 15.47 21.44H8.53003C8.33112 21.44 8.14029 21.361 7.99963 21.2203C7.85898 21.0797 7.78003 20.8889 7.78003 20.69C7.78003 20.4911 7.85898 20.3003 7.99963 20.1597C8.14029 20.019 8.33112 19.94 8.53003 19.94H11.25V17.94H4.47998C3.82133 17.9373 3.19051 17.6739 2.72571 17.2072C2.2609 16.7405 1.99999 16.1087 2 15.45V5.05001C1.99999 4.39135 2.2609 3.75951 2.72571 3.29284C3.19051 2.82616 3.82133 2.56266 4.47998 2.56002H19.48C19.8091 2.55738 20.1356 2.61975 20.4406 2.74358C20.7455 2.86741 21.0231 3.05026 21.2572 3.2816C21.4913 3.51295 21.6775 3.78826 21.8049 4.09172C21.9324 4.39519 21.9987 4.72085 22 5.05001Z" fill="black"/>
</svg>
