<svg width="24" height="24" viewBox="0 0 24 24" fill="none" xmlns="http://www.w3.org/2000/svg">
<path d="M20.9 3.66499C20.5538 3.31443 20.141 3.03656 19.686 2.84767C19.2309 2.65877 18.7427 2.56269 18.25 2.56501H5.75C4.75625 2.56765 3.80395 2.96358 3.10126 3.66627C2.39857 4.36896 2.00264 5.32126 2 6.31501V14.185C2.00264 15.1788 2.39857 16.1311 3.10126 16.8338C3.80395 17.5364 4.75625 17.9324 5.75 17.935H11.25V19.935H8.53C8.33109 19.935 8.14032 20.014 7.99966 20.1547C7.85901 20.2953 7.78 20.4861 7.78 20.685C7.78 20.8839 7.85901 21.0747 7.99966 21.2153C8.14032 21.356 8.33109 21.435 8.53 21.435H15.47C15.6689 21.435 15.8597 21.356 16.0003 21.2153C16.141 21.0747 16.22 20.8839 16.22 20.685C16.22 20.4861 16.141 20.2953 16.0003 20.1547C15.8597 20.014 15.6689 19.935 15.47 19.935H12.75V17.935H18.25C18.7425 17.9362 19.2304 17.8396 19.6853 17.6508C20.1402 17.4619 20.5531 17.1846 20.9 16.835C21.6025 16.1318 21.998 15.179 22 14.185V6.31501C22.0012 5.82247 21.9046 5.33456 21.7158 4.87965C21.5269 4.42474 21.2497 4.01188 20.9 3.66499ZM11.16 13.665C11.16 13.4661 11.239 13.2753 11.3797 13.1347C11.5203 12.994 11.7111 12.915 11.91 12.915C12.1089 12.915 12.2997 12.994 12.4403 13.1347C12.581 13.2753 12.66 13.4661 12.66 13.665C12.66 13.8639 12.581 14.0547 12.4403 14.1953C12.2997 14.336 12.1089 14.415 11.91 14.415C11.7217 14.4133 11.5408 14.3418 11.4022 14.2143C11.2637 14.0868 11.1773 13.9125 11.16 13.725V13.665ZM14.24 9.45703C14.1155 9.75681 13.9779 9.86419 13.74 10.085C13.5029 10.3025 13.2239 10.4692 12.92 10.575C12.8548 10.5968 12.8008 10.6435 12.77 10.705C12.7233 10.7656 12.6955 10.8387 12.69 10.915V11.315C12.69 11.5139 12.611 11.7047 12.4703 11.8453C12.3297 11.986 12.1389 12.065 11.94 12.065C11.7411 12.065 11.5503 11.986 11.4097 11.8453C11.269 11.7047 11.19 11.5139 11.19 11.315V10.895C11.2051 10.5127 11.3263 10.1422 11.54 9.82496C11.7618 9.52483 12.0632 9.29277 12.41 9.15498C12.5243 9.12123 12.6301 9.06327 12.72 8.985C12.8062 8.90946 12.8717 8.81302 12.91 8.70497C12.9591 8.60206 12.9831 8.489 12.98 8.37501C12.9748 8.2673 12.9475 8.1618 12.9 8.06501C12.826 7.93118 12.7236 7.81512 12.6 7.72499C12.4676 7.63473 12.3177 7.57341 12.16 7.54499C11.9156 7.49577 11.6617 7.53101 11.44 7.64497C11.2321 7.76248 11.0647 7.94032 10.96 8.15498C10.9193 8.24493 10.8613 8.32598 10.7892 8.3935C10.7172 8.46103 10.6326 8.51371 10.5402 8.54853C10.4478 8.58336 10.3494 8.59969 10.2507 8.59651C10.152 8.59332 10.055 8.57069 9.965 8.52998C9.87504 8.48927 9.794 8.43124 9.72647 8.3592C9.65894 8.28717 9.60626 8.20257 9.57144 8.11018C9.53662 8.01779 9.52031 7.91944 9.5235 7.82075C9.52668 7.72206 9.54929 7.62494 9.59 7.53498C9.82969 7.0113 10.2371 6.58246 10.7478 6.31623C11.2585 6.05001 11.8434 5.96162 12.41 6.06501C12.7925 6.1282 13.1552 6.27877 13.47 6.50502C13.7902 6.73608 14.0535 7.03697 14.24 7.38496C14.3904 7.69735 14.4723 8.03832 14.48 8.38496C14.4856 8.71805 14.4208 9.04861 14.29 9.35499L14.24 9.45703Z" fill="black"/>
</svg>
