<svg width="24" height="24" viewBox="0 0 24 24" fill="none" xmlns="http://www.w3.org/2000/svg">
<path d="M20.9 3.66502C20.5538 3.31446 20.141 3.03659 19.686 2.8477C19.2309 2.6588 18.7427 2.56272 18.25 2.56504H5.75C4.75625 2.56768 3.80395 2.96361 3.10126 3.6663C2.39857 4.36899 2.00264 5.32129 2 6.31504V14.185C2.00264 15.1788 2.39857 16.1311 3.10126 16.8338C3.80395 17.5365 4.75625 17.9324 5.75 17.935H11.25V19.935H8.53C8.33109 19.935 8.14032 20.0141 7.99966 20.1547C7.85901 20.2954 7.78 20.4861 7.78 20.685C7.78 20.884 7.85901 21.0747 7.99966 21.2154C8.14032 21.356 8.33109 21.435 8.53 21.435H15.47C15.6689 21.435 15.8597 21.356 16.0003 21.2154C16.141 21.0747 16.22 20.884 16.22 20.685C16.22 20.4861 16.141 20.2954 16.0003 20.1547C15.8597 20.0141 15.6689 19.935 15.47 19.935H12.75V17.935H18.25C18.7425 17.9363 19.2304 17.8396 19.6853 17.6508C20.1402 17.462 20.5531 17.1847 20.9 16.835C21.6025 16.1318 21.998 15.179 22 14.185V6.31504C22.0012 5.82251 21.9046 5.33459 21.7158 4.87968C21.5269 4.42477 21.2497 4.01191 20.9 3.66502ZM14.78 11.965C14.9204 12.1056 14.9993 12.2963 14.9993 12.495C14.9993 12.6938 14.9204 12.8844 14.78 13.025C14.7108 13.0951 14.6282 13.1507 14.5372 13.1885C14.4462 13.2262 14.3485 13.2455 14.25 13.245C14.053 13.2454 13.8633 13.1702 13.72 13.035L11.97 11.345L10.26 13.055C10.1167 13.1903 9.92704 13.2654 9.73001 13.265C9.63147 13.2655 9.53382 13.2463 9.44281 13.2085C9.3518 13.1707 9.26926 13.1151 9.20001 13.045C9.05956 12.9044 8.98065 12.7137 8.98065 12.515C8.98065 12.3162 9.05956 12.1257 9.20001 11.985L10.91 10.285L9.20001 8.57499C9.06132 8.43143 8.9838 8.23964 8.9838 8.04002C8.9838 7.8404 9.06132 7.64861 9.20001 7.50505C9.34064 7.3646 9.53126 7.28569 9.73001 7.28569C9.92876 7.28569 10.1194 7.3646 10.26 7.50505L11.97 9.21501L13.7 7.49504C13.8406 7.35459 14.0313 7.27568 14.23 7.27568C14.4288 7.27568 14.6194 7.35459 14.76 7.49504C14.8987 7.6386 14.9762 7.83039 14.9762 8.03001C14.9762 8.22963 14.8987 8.42148 14.76 8.56504L13.04 10.285L14.78 11.965Z" fill="black"/>
</svg>
