<svg width="24" height="24" viewBox="0 0 24 24" fill="none" xmlns="http://www.w3.org/2000/svg">
<path d="M16.58 2H7.41C5.97426 2.00265 4.59823 2.57485 3.58395 3.59101C2.56966 4.60717 2 5.98426 2 7.42V16.58C2 18.0157 2.56966 19.3928 3.58395 20.409C4.59823 21.4251 5.97426 21.9974 7.41 22H16.58C18.0175 22 19.3961 21.429 20.4125 20.4125C21.429 19.3961 22 18.0175 22 16.58V7.42C22 5.98252 21.429 4.60393 20.4125 3.58748C19.3961 2.57103 18.0175 2 16.58 2ZM11.3 17.52L7.46 15.21C7.30968 15.1203 7.18555 14.9927 7.10001 14.84C7.00842 14.6856 6.96005 14.5095 6.96 14.33V9.66L11.3 12.26V17.52ZM7.63 8.43L11.47 6.43C11.6311 6.32662 11.8186 6.27167 12.01 6.27167C12.2014 6.27167 12.3889 6.32662 12.55 6.43L16.36 8.43L12 11.05L7.63 8.43ZM17.03 14.33C17.0282 14.5061 16.9799 14.6786 16.89 14.83C16.8084 14.9882 16.6836 15.12 16.53 15.21L12.69 17.5V12.27L17.02 9.66L17.03 14.33Z" fill="black"/>
</svg>
