<svg width="24" height="24" viewBox="0 0 24 24" fill="none" xmlns="http://www.w3.org/2000/svg">
<path d="M20.555 6.61872C20.2713 6.12657 19.8647 5.71651 19.375 5.42872L13.655 2.42872C13.1575 2.14834 12.5961 2.00104 12.025 2.00104C11.4539 2.00104 10.8925 2.14834 10.395 2.42872L4.60498 5.51872C4.13016 5.80353 3.73736 6.20666 3.46498 6.68872C3.1914 7.17412 3.04679 7.72153 3.04497 8.27872V15.3387C3.04805 15.8926 3.19264 16.4364 3.46498 16.9187C3.73958 17.4018 4.1317 17.8076 4.60498 18.0987L10.355 21.5487C10.8531 21.8435 11.4212 21.999 12 21.999C12.5787 21.999 13.1469 21.8435 13.645 21.5487L19.395 18.0987C19.8711 17.8079 20.2665 17.4022 20.545 16.9187C20.8142 16.4357 20.9554 15.8917 20.955 15.3387V8.19872C20.9584 7.64658 20.8208 7.1027 20.555 6.61872ZM11.255 20.2487L11.135 20.1887L5.38498 16.7387C5.12727 16.5892 4.9161 16.3711 4.77498 16.1087C4.62492 15.8542 4.54551 15.5642 4.54497 15.2687V8.12872L11.255 12.1287V20.2487ZM5.25497 6.80872L5.33498 6.74872L11.115 3.66872C11.3872 3.50671 11.6982 3.4212 12.015 3.4212C12.3318 3.4212 12.6427 3.50671 12.915 3.66872L18.625 6.66872L18.745 6.74872L12.005 10.7487L5.25497 6.80872Z" fill="black"/>
</svg>
