<svg width="24" height="24" viewBox="0 0 24 24" fill="none" xmlns="http://www.w3.org/2000/svg">
<path d="M21.8894 11.6001L20.4694 4.51007C20.3293 3.78969 19.9399 3.14173 19.3694 2.68008C18.7993 2.23285 18.0939 1.99304 17.3694 2.00009H9.88942C9.47924 1.99854 9.07278 2.07814 8.6935 2.23431C8.31421 2.39049 7.96962 2.62017 7.67946 2.91009C7.44577 2.62433 7.15117 2.39434 6.81728 2.23691C6.48338 2.07947 6.11855 1.99857 5.7494 2.00009H4.55946C3.89112 2.00009 3.25007 2.2656 2.77748 2.73819C2.30489 3.21078 2.03944 3.85173 2.03944 4.52008V12.8101C2.03944 13.4784 2.30489 14.1194 2.77748 14.592C3.25007 15.0646 3.89112 15.3301 4.55946 15.3301H5.75941C6.1081 15.3311 6.45309 15.2587 6.77187 15.1174C7.09064 14.9761 7.376 14.7691 7.60939 14.5101C7.72991 14.6771 7.86733 14.8312 8.01942 14.9701L8.95937 20.6201C9.00075 20.8741 9.10103 21.1149 9.25209 21.3233C9.40315 21.5316 9.60081 21.7018 9.82936 21.8201C10.0598 21.9337 10.3126 21.9951 10.5695 22.0001C10.8267 21.9975 11.0798 21.936 11.3095 21.8201L12.4094 21.2801C13.2922 20.845 13.9985 20.1197 14.4099 19.2258C14.8214 18.3318 14.9131 17.3236 14.6694 16.3701L14.4094 15.3701H18.8494C19.3099 15.3735 19.765 15.2708 20.1795 15.0701C20.8081 14.7699 21.3186 14.2685 21.6301 13.6454C21.9417 13.0223 22.0364 12.3131 21.8994 11.6301L21.8894 11.6001ZM6.75941 12.8101C6.75941 13.0753 6.6541 13.3296 6.46657 13.5172C6.27903 13.7047 6.02463 13.8101 5.75941 13.8101H4.56947C4.30426 13.8101 4.04986 13.7047 3.86232 13.5172C3.67478 13.3296 3.56947 13.0753 3.56947 12.8101V4.52008C3.56947 4.25486 3.67478 4.00052 3.86232 3.81299C4.04986 3.62545 4.30426 3.52008 4.56947 3.52008H5.75941C6.02463 3.52008 6.27903 3.62545 6.46657 3.81299C6.6541 4.00052 6.75941 4.25486 6.75941 4.52008V12.8101Z" fill="black"/>
</svg>
