<svg width="24" height="24" viewBox="0 0 24 24" fill="none" xmlns="http://www.w3.org/2000/svg">
<path d="M19.985 5.75002H15.735V5.00002C15.7363 4.70418 15.6791 4.41099 15.5665 4.13741C15.4539 3.86383 15.2882 3.61529 15.079 3.40609C14.8698 3.19689 14.6212 3.03121 14.3476 2.9186C14.074 2.806 13.7808 2.7487 13.485 2.75002H10.485C9.88825 2.75002 9.316 2.98706 8.89404 3.40902C8.47209 3.83098 8.23499 4.40329 8.23499 5.00002V5.75002H3.98499C3.78607 5.75002 3.59536 5.82904 3.45471 5.96969C3.31406 6.11034 3.23499 6.30111 3.23499 6.50002C3.23499 6.69893 3.31406 6.8897 3.45471 7.03036C3.59536 7.17101 3.78607 7.25002 3.98499 7.25002H5.26501V18C5.26765 18.8612 5.61093 19.6863 6.21985 20.2952C6.82877 20.9041 7.65387 21.2474 8.51501 21.25H15.515C15.9422 21.2513 16.3654 21.1682 16.7603 21.0053C17.1552 20.8425 17.514 20.6031 17.816 20.301C18.1181 19.999 18.3575 19.6402 18.5203 19.2453C18.6832 18.8504 18.7663 18.4272 18.765 18V7.25002H20.015C20.2139 7.25002 20.4047 7.17101 20.5453 7.03036C20.686 6.8897 20.765 6.69893 20.765 6.50002C20.765 6.30111 20.686 6.11034 20.5453 5.96969C20.4047 5.82904 20.2139 5.75002 20.015 5.75002H19.985ZM9.73499 5.00002C9.74005 4.80271 9.8207 4.61487 9.96027 4.4753C10.0998 4.33573 10.2877 4.25508 10.485 4.25002H13.485C13.6838 4.2502 13.8745 4.3293 14.015 4.46999C14.0865 4.53816 14.1431 4.62055 14.181 4.71181C14.2189 4.80308 14.2372 4.90123 14.235 5.00002V5.75002H9.73499V5.00002ZM10.735 16.59C10.735 16.7889 10.656 16.9797 10.5153 17.1203C10.3747 17.261 10.1839 17.34 9.98499 17.34C9.78607 17.34 9.59536 17.261 9.45471 17.1203C9.31406 16.9797 9.23499 16.7889 9.23499 16.59V11.59C9.23499 11.3911 9.31406 11.2004 9.45471 11.0597C9.59536 10.9191 9.78607 10.84 9.98499 10.84C10.1839 10.84 10.3747 10.9191 10.5153 11.0597C10.656 11.2004 10.735 11.3911 10.735 11.59V16.59ZM14.735 16.59C14.735 16.7889 14.656 16.9797 14.5153 17.1203C14.3747 17.261 14.1839 17.34 13.985 17.34C13.7861 17.34 13.5954 17.261 13.4547 17.1203C13.3141 16.9797 13.235 16.7889 13.235 16.59V11.59C13.235 11.3911 13.3141 11.2004 13.4547 11.0597C13.5954 10.9191 13.7861 10.84 13.985 10.84C14.1839 10.84 14.3747 10.9191 14.5153 11.0597C14.656 11.2004 14.735 11.3911 14.735 11.59V16.59Z" fill="black"/>
</svg>
