<svg width="24" height="24" viewBox="0 0 24 24" fill="none" xmlns="http://www.w3.org/2000/svg">
<path d="M20.705 5.27002H16.005V4.38001C16.0039 3.75124 15.7562 3.14801 15.315 2.70002C15.0934 2.47764 14.83 2.30129 14.5399 2.18116C14.2499 2.06102 13.9389 1.99945 13.625 2H10.365C9.7322 2.00536 9.12623 2.25636 8.67499 2.70002C8.2338 3.14801 7.98604 3.75124 7.98499 4.38001V5.27002H3.29498C3.09607 5.27002 2.90532 5.34904 2.76466 5.48969C2.62401 5.63034 2.54498 5.82111 2.54498 6.02002C2.54498 6.21894 2.62401 6.40968 2.76466 6.55033C2.90532 6.69098 3.09607 6.77002 3.29498 6.77002H4.71498V18.53C4.71498 19.4503 5.08057 20.3329 5.73132 20.9837C6.38207 21.6344 7.26468 22 8.18498 22H15.805C16.7253 22 17.6079 21.6344 18.2587 20.9837C18.9094 20.3329 19.275 19.4503 19.275 18.53V6.77002H20.705C20.9039 6.77002 21.0947 6.69098 21.2353 6.55033C21.376 6.40968 21.455 6.21894 21.455 6.02002C21.455 5.82111 21.376 5.63034 21.2353 5.48969C21.0947 5.34904 20.9039 5.27002 20.705 5.27002ZM14.505 5.27002H9.50499V4.38001C9.50563 4.14891 9.59515 3.92692 9.75499 3.76001C9.92507 3.59759 10.1499 3.50481 10.385 3.5H13.645C13.762 3.49927 13.878 3.52189 13.9862 3.56653C14.0944 3.61118 14.1925 3.67696 14.275 3.76001C14.4357 3.92634 14.5254 4.14871 14.525 4.38001L14.505 5.27002Z" fill="black"/>
</svg>
