<svg width="24" height="24" viewBox="0 0 24 24" fill="none" xmlns="http://www.w3.org/2000/svg">
<path d="M20.01 5.75H15.76V5C15.76 4.40326 15.5229 3.83095 15.101 3.409C14.679 2.98704 14.1067 2.75 13.51 2.75H10.51C9.91327 2.75 9.3409 2.98704 8.91895 3.409C8.49699 3.83095 8.26001 4.40326 8.26001 5V5.75H4.01001C3.8111 5.75 3.62027 5.82901 3.47961 5.96967C3.33896 6.11032 3.26001 6.30109 3.26001 6.5C3.26001 6.69891 3.33896 6.88968 3.47961 7.03033C3.62027 7.17099 3.8111 7.25 4.01001 7.25H5.23999V18C5.23867 18.4272 5.32188 18.8504 5.48474 19.2453C5.6476 19.6402 5.88691 19.999 6.18896 20.301C6.49102 20.6031 6.84985 20.8424 7.24475 21.0053C7.63966 21.1682 8.06282 21.2513 8.48999 21.25H15.49C16.3511 21.2474 17.1762 20.9041 17.7852 20.2952C18.3941 19.6862 18.7374 18.8611 18.74 18V7.25H19.99C20.1889 7.25 20.3796 7.17099 20.5203 7.03033C20.6609 6.88968 20.74 6.69891 20.74 6.5C20.74 6.30109 20.6609 6.11032 20.5203 5.96967C20.3796 5.82901 20.1889 5.75 19.99 5.75H20.01ZM9.76001 5C9.75778 4.90121 9.7762 4.80306 9.81409 4.71179C9.85197 4.62053 9.90845 4.53814 9.97998 4.46997C10.1205 4.32928 10.3112 4.25017 10.51 4.25H13.51C13.7089 4.25 13.8996 4.32901 14.0403 4.46967C14.1809 4.61032 14.26 4.80109 14.26 5V5.75H9.76001V5ZM14.5 16.84H9.5C9.30109 16.84 9.11026 16.761 8.9696 16.6203C8.82895 16.4796 8.75 16.2889 8.75 16.09C8.75 15.8911 8.82895 15.7003 8.9696 15.5597C9.11026 15.419 9.30109 15.34 9.5 15.34H14.5C14.6989 15.34 14.8896 15.419 15.0303 15.5597C15.1709 15.7003 15.25 15.8911 15.25 16.09C15.25 16.2889 15.1709 16.4796 15.0303 16.6203C14.8896 16.761 14.6989 16.84 14.5 16.84ZM14.5 12.84H9.5C9.30109 12.84 9.11026 12.761 8.9696 12.6203C8.82895 12.4796 8.75 12.2889 8.75 12.09C8.75 11.8911 8.82895 11.7003 8.9696 11.5597C9.11026 11.419 9.30109 11.34 9.5 11.34H14.5C14.6989 11.34 14.8896 11.419 15.0303 11.5597C15.1709 11.7003 15.25 11.8911 15.25 12.09C15.25 12.2889 15.1709 12.4796 15.0303 12.6203C14.8896 12.761 14.6989 12.84 14.5 12.84Z" fill="black"/>
</svg>
