<svg width="25" height="24" viewBox="0 0 25 24" fill="none" xmlns="http://www.w3.org/2000/svg">
<path d="M20.7833 5.75002H16.5333V5.00002C16.5346 4.70418 16.4774 4.41099 16.3648 4.13741C16.2522 3.86383 16.0865 3.61529 15.8773 3.40609C15.6681 3.19689 15.4195 3.03121 15.1459 2.9186C14.8724 2.806 14.5792 2.7487 14.2833 2.75002H11.2833C10.6866 2.75002 10.1143 2.98706 9.69238 3.40902C9.27043 3.83098 9.03333 4.40329 9.03333 5.00002V5.75002H4.78333C4.58441 5.75002 4.3937 5.82904 4.25305 5.96969C4.1124 6.11034 4.03333 6.30111 4.03333 6.50002C4.03333 6.69893 4.1124 6.8897 4.25305 7.03036C4.3937 7.17101 4.58441 7.25002 4.78333 7.25002H6.06335V18C6.06599 18.8612 6.40927 19.6863 7.01819 20.2952C7.62711 20.9041 8.45221 21.2474 9.31335 21.25H16.3134C16.7405 21.2513 17.1638 21.1682 17.5587 21.0053C17.9536 20.8425 18.3123 20.6031 18.6144 20.301C18.9164 19.999 19.1558 19.6402 19.3187 19.2453C19.4815 18.8504 19.5647 18.4272 19.5634 18V7.25002H20.8134C21.0123 7.25002 21.203 7.17101 21.3437 7.03036C21.4843 6.8897 21.5634 6.69893 21.5634 6.50002C21.5634 6.30111 21.4843 6.11034 21.3437 5.96969C21.203 5.82904 21.0123 5.75002 20.8134 5.75002H20.7833ZM10.5333 5.00002C10.5384 4.80271 10.619 4.61487 10.7586 4.4753C10.8982 4.33573 11.086 4.25508 11.2833 4.25002H14.2833C14.4822 4.2502 14.6728 4.3293 14.8134 4.46999C14.8849 4.53816 14.9414 4.62055 14.9793 4.71181C15.0172 4.80308 15.0356 4.90123 15.0333 5.00002V5.75002H10.5333V5.00002ZM11.5333 16.59C11.5333 16.7889 11.4543 16.9797 11.3137 17.1203C11.173 17.261 10.9822 17.34 10.7833 17.34C10.5844 17.34 10.3937 17.261 10.2531 17.1203C10.1124 16.9797 10.0333 16.7889 10.0333 16.59V11.59C10.0333 11.3911 10.1124 11.2004 10.2531 11.0597C10.3937 10.9191 10.5844 10.84 10.7833 10.84C10.9822 10.84 11.173 10.9191 11.3137 11.0597C11.4543 11.2004 11.5333 11.3911 11.5333 11.59V16.59ZM15.5333 16.59C15.5333 16.7889 15.4543 16.9797 15.3137 17.1203C15.173 17.261 14.9822 17.34 14.7833 17.34C14.5844 17.34 14.3937 17.261 14.2531 17.1203C14.1124 16.9797 14.0333 16.7889 14.0333 16.59V11.59C14.0333 11.3911 14.1124 11.2004 14.2531 11.0597C14.3937 10.9191 14.5844 10.84 14.7833 10.84C14.9822 10.84 15.173 10.9191 15.3137 11.0597C15.4543 11.2004 15.5333 11.3911 15.5333 11.59V16.59Z" fill="black"/>
</svg>