<svg width="24" height="24" viewBox="0 0 24 24" fill="none" xmlns="http://www.w3.org/2000/svg">
<path d="M16.5899 1.97998H7.41994C5.98247 1.97998 4.60387 2.55103 3.58743 3.56747C2.57098 4.58392 1.99993 5.96252 1.99993 7.39999V16.61C2.00258 18.0457 2.57479 19.4217 3.59095 20.436C4.60711 21.4503 5.9842 22.02 7.41994 22.02H16.5899C18.024 22.0173 19.3985 21.4465 20.4125 20.4325C21.4265 19.4185 21.9973 18.044 21.9999 16.61V7.43997C22.0052 6.72569 21.8692 6.01742 21.5998 5.35587C21.3305 4.69431 20.933 4.09252 20.4302 3.58511C19.9274 3.07771 19.3293 2.6747 18.6703 2.39923C18.0112 2.12376 17.3042 1.98128 16.5899 1.97998ZM16.8699 9.25998H16.3199V15.61C16.3171 16.1767 16.0907 16.7194 15.6899 17.12C15.4929 17.3203 15.2578 17.4791 14.9985 17.5873C14.7392 17.6955 14.4609 17.7508 14.1799 17.75H9.92994C9.36319 17.7474 8.8204 17.5211 8.41964 17.1203C8.01888 16.7195 7.79257 16.1767 7.78994 15.61V9.23999H7.18993C7.10851 9.23999 7.0279 9.22394 6.95267 9.19278C6.87745 9.16162 6.80911 9.11595 6.75153 9.05838C6.69396 9.00081 6.64829 8.93246 6.61713 8.85724C6.58598 8.78202 6.56994 8.70141 6.56994 8.62C6.57252 8.45636 6.63867 8.30014 6.75439 8.18442C6.87011 8.0687 7.0263 8.00258 7.18993 8H9.60993V7.70999C9.61569 7.30262 9.77664 6.91278 10.0599 6.62C10.3495 6.33922 10.7366 6.18152 11.1399 6.17999H12.9699C13.3753 6.18099 13.7638 6.34282 14.0499 6.62997C14.193 6.771 14.3065 6.93918 14.3838 7.12463C14.4611 7.31008 14.5005 7.50909 14.4999 7.70999V8H16.9199C17.0836 8.00258 17.2398 8.0687 17.3555 8.18442C17.4712 8.30014 17.5374 8.45636 17.5399 8.62C17.5431 8.70746 17.5276 8.7946 17.4946 8.87567C17.4616 8.95674 17.4119 9.02991 17.3486 9.09036C17.2853 9.15082 17.2099 9.19721 17.1274 9.22644C17.0449 9.25568 16.9572 9.26709 16.8699 9.25998Z" fill="black"/>
<path d="M13.5599 7.46994V8.02997H10.4399V7.46994C10.4463 7.36738 10.4848 7.26943 10.5499 7.18994C10.6266 7.12794 10.7214 7.09283 10.8199 7.08997H13.1799C13.2294 7.08985 13.2783 7.10052 13.3232 7.12125C13.3681 7.14197 13.4079 7.17225 13.4399 7.20996C13.4767 7.24279 13.5063 7.28279 13.5269 7.32752C13.5475 7.37224 13.5588 7.4207 13.5599 7.46994Z" fill="black"/>
</svg>
