<svg width="24" height="24" viewBox="0 0 24 24" fill="none" xmlns="http://www.w3.org/2000/svg">
<path d="M21.125 5.72003V15.14C21.125 15.4447 21.0651 15.7464 20.9485 16.0278C20.8319 16.3093 20.661 16.5651 20.4456 16.7805C20.2301 16.9959 19.9743 17.1669 19.6929 17.2834C19.4114 17.4 19.1097 17.46 18.8051 17.46H12.755V19.1H15.145C15.3439 19.1 15.5348 19.179 15.6754 19.3197C15.8161 19.4604 15.895 19.6511 15.895 19.85C15.895 20.0489 15.8161 20.2397 15.6754 20.3804C15.5348 20.521 15.3439 20.6 15.145 20.6H8.85498C8.65607 20.6 8.46536 20.521 8.32471 20.3804C8.18405 20.2397 8.10498 20.0489 8.10498 19.85C8.10498 19.6511 8.18405 19.4604 8.32471 19.3197C8.46536 19.179 8.65607 19.1 8.85498 19.1H11.255V17.46H5.19507C4.8904 17.46 4.58873 17.4 4.30725 17.2834C4.02578 17.1669 3.77 16.9959 3.55457 16.7805C3.33913 16.5651 3.16823 16.3093 3.05164 16.0278C2.93504 15.7464 2.875 15.4447 2.875 15.14V5.72003C2.875 5.41536 2.93504 5.11369 3.05164 4.83221C3.16823 4.55074 3.33913 4.29496 3.55457 4.07953C3.77 3.8641 4.02578 3.69319 4.30725 3.5766C4.58873 3.46001 4.8904 3.40002 5.19507 3.40002H18.8051C19.4204 3.40002 20.0105 3.64444 20.4456 4.07953C20.8806 4.51461 21.125 5.10473 21.125 5.72003Z" fill="black"/>
</svg>
