<svg width="24" height="24" viewBox="0 0 24 24" fill="none" xmlns="http://www.w3.org/2000/svg">
<path d="M16.96 8.95106H8.08002V7.39106C8.08051 6.62459 8.31035 5.87581 8.73999 5.24107C9.16655 4.59891 9.77519 4.0988 10.4879 3.80482C11.2005 3.51084 11.9847 3.43641 12.74 3.59108C13.4989 3.73304 14.1965 4.10278 14.74 4.65107C14.8989 4.80822 15.0398 4.98262 15.16 5.17106C15.2701 5.33815 15.442 5.45466 15.638 5.49498C15.8339 5.5353 16.0379 5.49612 16.205 5.38606C16.3721 5.27599 16.4886 5.10407 16.5289 4.90809C16.5693 4.71212 16.5301 4.50816 16.42 4.34108C16.2385 4.07128 16.0309 3.82006 15.8 3.59108C15.053 2.83438 14.0942 2.32186 13.05 2.12107C12.2703 1.96592 11.4659 1.98547 10.6947 2.17836C9.92343 2.37124 9.20452 2.73267 8.58966 3.23661C7.9748 3.74055 7.47924 4.37447 7.13867 5.09281C6.7981 5.81116 6.62096 6.59607 6.62 7.39106V8.98106C5.85688 9.04192 5.14279 9.38123 4.61359 9.9344C4.08439 10.4876 3.77702 11.216 3.75 11.9811V18.9211C3.77613 19.7575 4.133 20.5494 4.74228 21.1231C5.35156 21.6968 6.1635 22.0053 7 21.9811H17C17.8365 22.0053 18.6485 21.6968 19.2578 21.1231C19.867 20.5494 20.2239 19.7575 20.25 18.9211V11.9811C20.2333 11.566 20.1349 11.1583 19.9604 10.7812C19.786 10.4042 19.5389 10.0653 19.2333 9.78385C18.9277 9.50243 18.5696 9.28403 18.1796 9.14112C17.7895 8.99822 17.3751 8.93363 16.96 8.95106ZM15.43 18.7911H8.48999C8.22477 18.7911 7.97043 18.6857 7.7829 18.4982C7.59536 18.3106 7.48999 18.0563 7.48999 17.7911C7.48999 17.5258 7.59536 17.2715 7.7829 17.084C7.97043 16.8964 8.22477 16.7911 8.48999 16.7911H15.43C15.6952 16.7911 15.9496 16.8964 16.1371 17.084C16.3247 17.2715 16.43 17.5258 16.43 17.7911C16.43 18.0563 16.3247 18.3106 16.1371 18.4982C15.9496 18.6857 15.6952 18.7911 15.43 18.7911Z" fill="black"/>
</svg>
