<svg width="24" height="24" viewBox="0 0 24 24" fill="none" xmlns="http://www.w3.org/2000/svg">
<path d="M13.25 2.33008H6.75C4.9606 2.33272 3.24528 3.04476 1.97998 4.31006C0.714683 5.57536 0.00264509 7.29068 1.4744e-09 9.08008V15.5801C-2.37067e-05 16.7129 0.285899 17.8274 0.831299 18.8203C1.3767 19.8132 2.16392 20.6524 3.12 21.2601C3.45375 21.4817 3.80885 21.6693 4.17999 21.8201C4.99118 22.1578 5.86132 22.3311 6.73999 22.3301H13.24C14.1399 22.3301 15.0308 22.1499 15.86 21.8C16.2563 21.6313 16.6348 21.4236 16.99 21.1801C17.9123 20.568 18.6689 19.7374 19.1924 18.762C19.7158 17.7867 19.9898 16.697 19.99 15.5901V9.09009C19.99 7.30068 19.2805 5.58425 18.0171 4.31708C16.7537 3.04991 15.0394 2.33537 13.25 2.33008ZM10 6.9101C10.621 6.9101 11.2281 7.09424 11.7445 7.43927C12.2609 7.7843 12.6633 8.27469 12.901 8.84845C13.1387 9.42221 13.2008 10.0536 13.0797 10.6627C12.9585 11.2718 12.6595 11.8312 12.2203 12.2704C11.7812 12.7095 11.2217 13.0086 10.6126 13.1298C10.0035 13.2509 9.37216 13.1887 8.7984 12.951C8.22464 12.7134 7.73419 12.3109 7.38916 11.7946C7.04413 11.2782 6.85999 10.6711 6.85999 10.05C6.86262 9.21808 7.1943 8.421 7.78259 7.8327C8.37089 7.24441 9.16803 6.91273 10 6.9101ZM15 20.5401C14.4544 20.7345 13.8792 20.8326 13.3 20.8301H6.79999C5.55784 20.8268 4.35693 20.3839 3.40997 19.5801C3.87841 18.5605 4.60169 17.6788 5.51001 17.0201C6.79097 15.9721 8.39499 15.3996 10.05 15.3996C11.705 15.3996 13.3091 15.9721 14.59 17.0201C15.5015 17.6721 16.2396 18.5373 16.74 19.5401C16.217 19.9909 15.912 20.2383 15.2539 20.4473L15 20.5401Z" fill="black"/>
</svg>
