<svg width="24" height="24" viewBox="0 0 24 24" fill="none" xmlns="http://www.w3.org/2000/svg">
<path d="M16.4701 2.23499H7.5501C6.14792 2.23763 4.80393 2.7958 3.81243 3.78729C2.82094 4.77879 2.26271 6.12278 2.26007 7.52496V16.445C2.25111 17.5361 2.58106 18.6031 3.2044 19.4987C3.82774 20.3943 4.71373 21.0744 5.74005 21.445L5.96014 21.525C6.46758 21.6871 6.99738 21.7681 7.53008 21.765H16.4501C16.9828 21.7681 17.5126 21.6871 18.0201 21.525L18.2101 21.455C19.2458 21.0927 20.1425 20.4163 20.7753 19.52C21.4081 18.6236 21.7454 17.5521 21.74 16.455V7.53497C21.7401 6.13451 21.1859 4.79094 20.1984 3.79785C19.211 2.80477 17.8706 2.24291 16.4701 2.23499ZM12.0101 6.32495C12.6904 6.32495 13.3555 6.52673 13.9212 6.90472C14.4869 7.28272 14.9279 7.81997 15.1883 8.44855C15.4487 9.07713 15.5167 9.7688 15.384 10.4361C15.2512 11.1034 14.9237 11.7164 14.4426 12.1974C13.9615 12.6785 13.3485 13.0061 12.6812 13.1389C12.0139 13.2716 11.3222 13.2035 10.6937 12.9431C10.0651 12.6827 9.52783 12.2419 9.14984 11.6761C8.77184 11.1104 8.57012 10.4453 8.57012 9.76495C8.57276 8.85342 8.93595 7.98 9.5805 7.33545C10.2251 6.6909 11.0985 6.32759 12.0101 6.32495ZM17.0101 20.195C16.8471 20.2103 16.6831 20.2103 16.5201 20.195H7.60003H7.12005C6.61711 20.1351 6.13296 19.968 5.70013 19.705C6.10184 18.5288 6.82601 17.4893 7.79009 16.705C8.63027 16.0191 9.62334 15.5458 10.6852 15.3251C11.7471 15.1044 12.8465 15.1429 13.8904 15.4372C14.9343 15.7315 15.892 16.273 16.6822 17.0159C17.4724 17.7588 18.072 18.6812 18.4301 19.705C17.9826 19.9755 17.4805 20.1429 16.9601 20.195H17.0101Z" fill="black"/>
</svg>
