<svg width="24" height="24" viewBox="0 0 24 24" fill="none" xmlns="http://www.w3.org/2000/svg">
<path d="M20.37 21.25C20.37 21.4489 20.291 21.6397 20.1503 21.7803C20.0097 21.921 19.8189 22 19.62 22H4.38C4.18109 22 3.99032 21.921 3.84967 21.7803C3.70902 21.6397 3.63 21.4489 3.63 21.25C3.63 17.15 8.13 13.97 12 13.97C15.87 13.97 20.37 17.15 20.37 21.25Z" fill="black"/>
<path d="M17.1 7.11002C17.098 8.11827 16.7972 9.1033 16.2356 9.94067C15.674 10.778 14.8768 11.4302 13.9448 11.8147C13.0127 12.1991 11.9876 12.2987 10.9989 12.1008C10.0103 11.9029 9.10249 11.4164 8.39024 10.7027C7.67799 9.98908 7.19327 9.08031 6.99729 8.09128C6.80132 7.10225 6.90289 6.07735 7.28919 5.14603C7.67549 4.21471 8.32917 3.41878 9.16764 2.85883C10.0061 2.29887 10.9918 2 12 2C13.3535 2.00265 14.6507 2.54219 15.6069 3.50021C16.563 4.45824 17.1 5.75649 17.1 7.11002Z" fill="black"/>
</svg>
