<svg width="24" height="24" viewBox="0 0 24 24" fill="none" xmlns="http://www.w3.org/2000/svg">
<path d="M12 2.25012C9.9545 2.25222 7.96146 2.89761 6.30298 4.09491C4.6445 5.29221 3.40464 6.98077 2.75879 8.92163C2.11294 10.8625 2.09382 12.9573 2.70423 14.9096C3.31463 16.8619 4.52364 18.5728 6.16004 19.8001C6.21077 19.8479 6.26805 19.8883 6.33008 19.9201C7.98134 21.1097 9.96486 21.7499 12 21.7499C14.0352 21.7499 16.0188 21.1097 17.67 19.9201C17.7321 19.8883 17.7894 19.8479 17.8401 19.8001C19.4765 18.5728 20.6854 16.8619 21.2958 14.9096C21.9062 12.9573 21.8872 10.8625 21.2413 8.92163C20.5955 6.98077 19.3555 5.29221 17.697 4.09491C16.0385 2.89761 14.0455 2.25222 12 2.25012ZM12 6.51013C12.6467 6.51013 13.279 6.70191 13.8168 7.06122C14.3545 7.42053 14.7736 7.93123 15.0211 8.52875C15.2686 9.12626 15.3333 9.78371 15.2072 10.418C15.081 11.0523 14.7696 11.635 14.3123 12.0923C13.8549 12.5497 13.2723 12.8611 12.6379 12.9873C12.0036 13.1135 11.3462 13.0487 10.7487 12.8012C10.1511 12.5537 9.64044 12.1346 9.28113 11.5968C8.92182 11.0591 8.73011 10.4268 8.73011 9.78009C8.73274 8.91364 9.078 8.08344 9.69068 7.47076C10.3034 6.85809 11.1336 6.51277 12 6.51013ZM16.3201 19.0301C14.8051 19.9722 13.0235 20.3932 11.2471 20.2289C9.47061 20.0647 7.79664 19.3241 6.48011 18.1201C7.01247 17.3644 7.69292 16.7248 8.48011 16.2401C9.54084 15.6158 10.7493 15.2866 11.9801 15.2866C13.2109 15.2866 14.4194 15.6158 15.4801 16.2401C16.2673 16.7248 16.9477 17.3644 17.4801 18.1201C17.1214 18.4575 16.7332 18.7621 16.3201 19.0301Z" fill="black"/>
</svg>
