<svg width="24" height="24" viewBox="0 0 24 24" fill="none" xmlns="http://www.w3.org/2000/svg">
<path d="M16.5899 2.005H7.41992C5.98245 2.005 4.60385 2.57605 3.5874 3.5925C2.57096 4.60895 1.99994 5.98755 1.99994 7.42502V16.635C2.00118 17.766 2.35685 18.8682 3.01694 19.7866C3.67702 20.7049 4.60833 21.3933 5.67993 21.755H5.80994H5.88992C6.38494 21.9115 6.90075 21.9924 7.41992 21.995H16.5899C17.1156 21.9917 17.6379 21.9109 18.1399 21.755H18.1899H18.3199C19.3924 21.3946 20.3245 20.7066 20.9848 19.7879C21.6451 18.8692 22.0002 17.7664 21.9999 16.635V7.465C22.0052 6.75071 21.8692 6.04244 21.5999 5.38089C21.3305 4.71934 20.9329 4.11754 20.4302 3.61014C19.9274 3.10273 19.3293 2.69972 18.6703 2.42426C18.0112 2.14879 17.3042 2.0063 16.5899 2.005ZM11.9999 5.63501C12.8029 5.63501 13.5879 5.87313 14.2556 6.31924C14.9232 6.76536 15.4436 7.39946 15.7509 8.14133C16.0582 8.88319 16.1386 9.69953 15.9819 10.4871C15.8253 11.2747 15.4386 11.9981 14.8708 12.5659C14.303 13.1337 13.5796 13.5203 12.792 13.677C12.0044 13.8337 11.1881 13.7532 10.4462 13.446C9.70436 13.1387 9.07029 12.6183 8.62418 11.9506C8.17806 11.283 7.93994 10.498 7.93994 9.69501C7.93994 8.61823 8.36769 7.58556 9.12909 6.82416C9.89049 6.06276 10.9232 5.63501 11.9999 5.63501ZM17.1099 20.435C16.9369 20.45 16.7629 20.45 16.5899 20.435H7.41992C7.24358 20.4502 7.06626 20.4502 6.88992 20.435C6.38971 20.3696 5.90725 20.2065 5.46994 19.955C5.93985 18.5972 6.82132 17.4197 7.9917 16.5862C9.16208 15.7528 10.5631 15.3049 11.9999 15.3049C13.4367 15.3049 14.8378 15.7528 16.0082 16.5862C17.1786 17.4197 18.06 18.5972 18.5299 19.955C18.0909 20.2239 17.6003 20.3976 17.0899 20.465L17.1099 20.435Z" fill="black"/>
</svg>
