<svg width="24" height="24" viewBox="0 0 24 24" fill="none" xmlns="http://www.w3.org/2000/svg">
<path d="M21.92 8.36002C21.7126 8.02664 21.4142 7.75946 21.06 7.59C20.707 7.42237 20.3144 7.35607 19.926 7.39844C19.5376 7.44082 19.1685 7.59023 18.86 7.83002L16.33 9.83002V8.93C16.34 8.35719 16.2311 7.78854 16.01 7.26001C15.6849 6.46569 15.1311 5.78587 14.4189 5.30692C13.7067 4.82797 12.8683 4.57148 12.01 4.57001H6.09998C5.53028 4.56922 4.96608 4.68137 4.44 4.9C3.37647 5.34654 2.53201 6.1946 2.08999 7.26001C1.87136 7.7861 1.75919 8.35031 1.75999 8.92002V15.09C1.75999 16.241 2.21724 17.3449 3.03115 18.1588C3.84506 18.9728 4.94894 19.43 6.09998 19.43H11.92C13.071 19.43 14.1749 18.9728 14.9888 18.1588C15.8027 17.3449 16.26 16.241 16.26 15.09V14.18L18.79 16.18C19.079 16.41 19.4243 16.5585 19.79 16.61H20.04C20.3523 16.6112 20.6605 16.5393 20.94 16.4C21.3322 16.2549 21.6731 15.9975 21.92 15.66C22.1309 15.3283 22.2419 14.943 22.24 14.55V9.42002C22.2286 9.04465 22.1182 8.67897 21.92 8.36002ZM11.54 12.76H6.53999C6.34107 12.76 6.15032 12.681 6.00967 12.5403C5.86901 12.3997 5.78999 12.2089 5.78999 12.01C5.78999 11.8111 5.86901 11.6203 6.00967 11.4797C6.15032 11.339 6.34107 11.26 6.53999 11.26H11.54C11.7389 11.26 11.9297 11.339 12.0703 11.4797C12.211 11.6203 12.29 11.8111 12.29 12.01C12.29 12.2089 12.211 12.3997 12.0703 12.5403C11.9297 12.681 11.7389 12.76 11.54 12.76Z" fill="black"/>
</svg>
