<svg width="24" height="24" viewBox="0 0 24 24" fill="none" xmlns="http://www.w3.org/2000/svg">
<path d="M20.9951 8.65997C20.7965 8.35 20.5161 8.10088 20.185 7.94C19.8571 7.77696 19.4884 7.71435 19.1251 7.76001C18.7604 7.80231 18.4145 7.94413 18.1251 8.16998L15.9951 9.87V7.78998C15.9951 7.11275 15.7267 6.46314 15.2487 5.98334C14.7708 5.50353 14.1222 5.23263 13.445 5.22998H5.25507C4.57785 5.23263 3.92929 5.50353 3.45135 5.98334C2.97342 6.46314 2.70501 7.11275 2.70502 7.78998V16.22C2.70502 16.8963 2.97375 17.5449 3.45197 18.0231C3.93018 18.5014 4.57876 18.77 5.25507 18.77H13.445C14.1213 18.77 14.7699 18.5014 15.2481 18.0231C15.7263 17.5449 15.9951 16.8963 15.9951 16.22V14.14L18.1251 15.84C18.4125 16.0691 18.7595 16.2114 19.1251 16.25H19.335C19.6293 16.2537 19.9203 16.1886 20.185 16.06C20.5173 15.9014 20.798 15.6519 20.9944 15.3404C21.1909 15.0289 21.295 14.6682 21.295 14.3V9.67999C21.2925 9.31861 21.1886 8.96518 20.9951 8.65997ZM19.795 14.31C19.7919 14.3946 19.7679 14.477 19.725 14.55C19.6768 14.6215 19.6116 14.6799 19.5351 14.72C19.4562 14.7391 19.3738 14.7391 19.295 14.72C19.2112 14.7131 19.1312 14.6819 19.065 14.63L16.1651 12.32C16.1107 12.2767 16.0663 12.2221 16.0351 12.16C16.0201 12.0942 16.0201 12.0258 16.0351 11.96C16.0202 11.8976 16.0202 11.8325 16.0351 11.77C16.0634 11.7089 16.1043 11.6543 16.1551 11.61L19.055 9.29999C19.1258 9.24964 19.2085 9.21866 19.295 9.21002C19.3713 9.21382 19.4456 9.23572 19.5117 9.27399C19.5777 9.31225 19.6337 9.36574 19.675 9.42999C19.7191 9.50241 19.7433 9.5852 19.7451 9.66998L19.795 14.31Z" fill="black"/>
</svg>
