<svg width="24" height="24" viewBox="0 0 24 24" fill="none" xmlns="http://www.w3.org/2000/svg">
<path d="M22 9.48499V14.485C21.992 14.8703 21.8816 15.2465 21.68 15.575C21.473 15.9025 21.1786 16.1658 20.83 16.335C20.5516 16.4661 20.2477 16.5344 19.94 16.535H19.72C19.3358 16.496 18.9712 16.3467 18.67 16.105L16.26 14.185V16.555C16.26 17.272 15.9759 17.9598 15.4698 18.4677C14.9637 18.9756 14.277 19.2623 13.56 19.265H4.70001C3.98301 19.2623 3.29625 18.9756 2.79019 18.4677C2.28413 17.9598 2 17.272 2 16.555V7.435C2 6.71891 2.28445 6.03214 2.7908 5.52579C3.29715 5.01944 3.98393 4.73499 4.70001 4.73499H13.56C14.2761 4.73499 14.9628 5.01944 15.4692 5.52579C15.9755 6.03214 16.26 6.71891 16.26 7.435V9.815L18.67 7.89499C18.8958 7.71884 19.1557 7.59171 19.4334 7.52167C19.711 7.45163 20.0002 7.44023 20.2825 7.48822C20.5648 7.53621 20.834 7.6425 21.0729 7.80035C21.3118 7.9582 21.5152 8.16415 21.67 8.405C21.8721 8.73015 21.9858 9.1024 22 9.48499Z" fill="black"/>
</svg>
