<svg width="24" height="24" viewBox="0 0 24 24" fill="none" xmlns="http://www.w3.org/2000/svg">
<path d="M21.925 8.32002C21.7141 7.9921 21.4164 7.72902 21.065 7.56001C20.7121 7.39239 20.3195 7.32608 19.931 7.36846C19.5426 7.41083 19.1735 7.56025 18.865 7.80003L16.345 9.80003V8.90001C16.3391 8.04408 16.082 7.20873 15.6056 6.49764C15.1291 5.78654 14.4544 5.23101 13.665 4.90001C13.1351 4.68235 12.5679 4.57027 11.995 4.57002H6.09502C5.522 4.56844 4.95435 4.68059 4.42501 4.90001C3.36148 5.34655 2.51702 6.19461 2.075 7.26003C1.85637 7.78611 1.74422 8.35032 1.74501 8.92003V15.09C1.74501 15.6608 1.85758 16.226 2.07631 16.7532C2.29504 17.2804 2.61564 17.7593 3.0197 18.1624C3.42377 18.5655 3.90337 18.885 4.43108 19.1025C4.95879 19.32 5.52424 19.4313 6.09502 19.43H11.925C13.0756 19.4274 14.1788 18.971 14.995 18.16C15.4006 17.7583 15.7226 17.2801 15.9423 16.7532C16.162 16.2262 16.2751 15.6609 16.275 15.09V14.19L18.795 16.19C19.1193 16.4462 19.5129 16.5994 19.925 16.63H20.175C20.4873 16.6312 20.7955 16.5593 21.075 16.42C21.4284 16.2491 21.7265 15.9821 21.9352 15.6496C22.1439 15.3171 22.2547 14.9326 22.255 14.54V9.39003C22.2396 9.01079 22.1259 8.64207 21.925 8.32002ZM8.92501 15.74C8.77667 15.74 8.63166 15.696 8.50832 15.6136C8.38498 15.5312 8.28887 15.4141 8.23211 15.277C8.17534 15.14 8.16047 14.9892 8.18941 14.8437C8.21835 14.6982 8.28978 14.5646 8.39467 14.4597C8.49956 14.3548 8.63319 14.2834 8.77868 14.2544C8.92416 14.2255 9.07498 14.2403 9.21203 14.2971C9.34907 14.3539 9.46619 14.45 9.5486 14.5733C9.63101 14.6967 9.67501 14.8417 9.67501 14.99C9.67501 15.1889 9.59599 15.3797 9.45534 15.5203C9.31469 15.661 9.12392 15.74 8.92501 15.74ZM11.095 11.22C10.9793 11.4942 10.8053 11.7399 10.585 11.94C10.3743 12.1475 10.1172 12.3018 9.83501 12.39C9.79991 12.4103 9.7693 12.4375 9.74501 12.47C9.73639 12.5129 9.73639 12.5571 9.74501 12.6V12.95C9.74501 13.1489 9.666 13.3397 9.52535 13.4804C9.3847 13.621 9.19393 13.7 8.99501 13.7C8.7961 13.7 8.60533 13.621 8.46468 13.4804C8.32403 13.3397 8.24501 13.1489 8.24501 12.95V12.63C8.25019 12.2819 8.35968 11.9433 8.55935 11.6581C8.75901 11.3728 9.03967 11.154 9.36501 11.03C9.4522 11.0015 9.5335 10.9575 9.605 10.9C9.66603 10.8407 9.71376 10.7692 9.74501 10.69C9.78057 10.6151 9.7977 10.5329 9.795 10.45C9.79542 10.3631 9.77484 10.2773 9.735 10.2C9.68109 10.0983 9.60186 10.0122 9.50499 9.95003C9.40323 9.87911 9.28719 9.83132 9.165 9.81001C8.97135 9.77431 8.77136 9.8024 8.59502 9.89003C8.43067 9.97855 8.30046 10.1193 8.225 10.29C8.14022 10.4706 7.98785 10.6106 7.80077 10.6798C7.61369 10.749 7.40688 10.7419 7.225 10.66C7.13469 10.6191 7.0534 10.5606 6.98583 10.4881C6.91826 10.4155 6.86576 10.3302 6.83135 10.2372C6.79694 10.1442 6.78133 10.0453 6.78539 9.94624C6.78945 9.84717 6.8131 9.74989 6.855 9.66002C7.07223 9.18382 7.44161 8.79336 7.90502 8.55003C8.36964 8.31027 8.90006 8.22946 9.415 8.32002C9.775 8.37343 10.1175 8.51042 10.415 8.72002C10.7043 8.932 10.9433 9.20517 11.115 9.52004C11.2447 9.79585 11.3161 10.0954 11.325 10.4C11.3054 10.6862 11.2272 10.9654 11.095 11.22Z" fill="black"/>
</svg>
