<svg width="24" height="24" viewBox="0 0 24 24" fill="none" xmlns="http://www.w3.org/2000/svg">
<path d="M21.93 8.33003C21.7226 7.99665 21.4242 7.72948 21.07 7.56001C20.717 7.39239 20.3244 7.32608 19.936 7.36846C19.5476 7.41083 19.1785 7.56025 18.87 7.80003L16.35 9.80003V8.90001C16.3441 8.04408 16.087 7.20873 15.6106 6.49764C15.1341 5.78654 14.4593 5.23101 13.67 4.90001C13.1401 4.68235 12.5728 4.57027 12 4.57002H6.1C5.52698 4.56844 4.95933 4.68059 4.42998 4.90001C3.36645 5.34655 2.522 6.19461 2.07998 7.26003C1.86135 7.78611 1.7492 8.35032 1.74999 8.92003V15.09C1.74999 15.6608 1.86256 16.226 2.08129 16.7532C2.30002 17.2804 2.62061 17.7593 3.02468 18.1624C3.42874 18.5655 3.90835 18.885 4.43605 19.1025C4.96376 19.32 5.52922 19.4313 6.1 19.43H11.93C13.0806 19.4274 14.1838 18.971 15 18.16C15.4056 17.7583 15.7276 17.2801 15.9473 16.7532C16.167 16.2262 16.2801 15.6609 16.28 15.09V14.19L18.8 16.19C19.1243 16.4462 19.5178 16.5994 19.93 16.63H20.18C20.4923 16.6312 20.8005 16.5593 21.08 16.42C21.431 16.2404 21.7252 15.9669 21.93 15.63C22.1408 15.2983 22.2519 14.9131 22.25 14.52V9.37001C22.2356 9.00141 22.1253 8.64296 21.93 8.33003ZM12.08 11.01L9.23998 13.85C8.99772 14.0904 8.67123 14.2267 8.32998 14.23C8.16192 14.2268 7.99587 14.1929 7.83999 14.13C7.68794 14.0615 7.54914 13.9667 7.42998 13.85L6.01998 12.44C5.94922 12.3711 5.893 12.2887 5.8546 12.1976C5.81621 12.1066 5.79641 12.0088 5.79641 11.91C5.79641 11.8112 5.81621 11.7134 5.8546 11.6224C5.893 11.5314 5.94922 11.449 6.01998 11.38C6.1606 11.2396 6.35123 11.1607 6.54998 11.1607C6.74873 11.1607 6.93935 11.2396 7.07998 11.38L8.32998 12.64L11.02 9.95003C11.1622 9.81755 11.3502 9.74543 11.5445 9.74886C11.7388 9.75229 11.9242 9.83099 12.0616 9.9684C12.199 10.1058 12.2777 10.2912 12.2811 10.4855C12.2846 10.6798 12.2125 10.8679 12.08 11.01Z" fill="black"/>
</svg>
