<svg width="24" height="24" viewBox="0 0 24 24" fill="none" xmlns="http://www.w3.org/2000/svg">
<path d="M15.2592 6.85999V17.14C15.2599 17.5252 15.1708 17.9052 14.9991 18.25C14.8315 18.5961 14.5765 18.8926 14.2592 19.11C13.9366 19.3268 13.5578 19.445 13.1691 19.45C12.7843 19.4501 12.4082 19.3352 12.0891 19.12L8.08915 16.49C8.01154 16.4398 7.92153 16.4121 7.82914 16.41H5.93915C5.64871 16.4075 5.36226 16.3419 5.09977 16.2175C4.83727 16.0932 4.60501 15.9132 4.41913 15.69C4.04236 15.2422 3.83683 14.6752 3.83915 14.09V9.90997C3.83746 9.3279 4.04306 8.76425 4.41913 8.31998C4.60501 8.09679 4.83727 7.91676 5.09977 7.79242C5.36226 7.66808 5.64871 7.60242 5.93915 7.59998H7.86914C7.96333 7.59926 8.05468 7.56764 8.12915 7.50998L12.1292 4.87997C12.4649 4.69373 12.8365 4.58124 13.2192 4.54999C13.6078 4.555 13.9866 4.67314 14.3091 4.88998C14.6264 5.10737 14.8815 5.40379 15.0491 5.74997C15.2026 6.09921 15.2744 6.47883 15.2592 6.85999Z" fill="black"/>
<path d="M17.8692 16.5746C17.6712 16.5703 17.4821 16.4918 17.3392 16.3546C17.1988 16.214 17.1199 16.0234 17.1199 15.8246C17.1199 15.6259 17.1988 15.4352 17.3392 15.2946C17.7667 14.8682 18.106 14.3617 18.3374 13.804C18.5689 13.2463 18.688 12.6484 18.688 12.0446C18.688 11.4408 18.5689 10.8429 18.3374 10.2852C18.106 9.72754 17.7667 9.22098 17.3392 8.7946C17.249 8.73291 17.1733 8.65222 17.1175 8.55821C17.0617 8.4642 17.0271 8.35913 17.0162 8.25035C17.0053 8.14158 17.0183 8.03174 17.0543 7.92851C17.0903 7.82528 17.1484 7.73116 17.2246 7.65276C17.3008 7.57435 17.3932 7.51357 17.4953 7.47463C17.5975 7.43569 17.7069 7.41953 17.816 7.42732C17.925 7.43512 18.031 7.46668 18.1266 7.51976C18.2221 7.57284 18.305 7.64616 18.3692 7.7346C18.9371 8.29958 19.3876 8.97118 19.6951 9.71083C20.0026 10.4505 20.1609 11.2436 20.1609 12.0446C20.1609 12.8456 20.0026 13.6387 19.6951 14.3784C19.3876 15.118 18.9371 15.7896 18.3692 16.3546C18.234 16.4851 18.0568 16.5631 17.8692 16.5746Z" fill="black"/>
</svg>
