<svg width="24" height="24" viewBox="0 0 24 24" fill="none" xmlns="http://www.w3.org/2000/svg">
<path d="M20.9352 3.52119C20.8603 3.27734 20.7341 3.05234 20.5652 2.86122C20.3955 2.67029 20.1877 2.51699 19.9552 2.41121C19.7237 2.30293 19.4707 2.2482 19.2152 2.25117H4.82517C4.56971 2.23681 4.31487 2.28849 4.08518 2.4012C3.84701 2.50676 3.63526 2.66389 3.46518 2.86122C3.29623 3.05234 3.17008 3.27734 3.09519 3.52119C3.01769 3.76315 2.99386 4.01908 3.02524 4.27119L4.66513 18.2712C4.77483 19.2286 5.23426 20.1117 5.95517 20.7512C6.65898 21.3904 7.57449 21.7466 8.52524 21.7512H15.5252C16.4791 21.7472 17.3978 21.3911 18.1052 20.7512C18.8158 20.105 19.2701 19.2247 19.3852 18.2712L20.2752 10.4012C20.2752 10.4012 20.2752 10.3212 20.2752 10.2812L20.9652 4.2812C21.0039 4.02828 20.9937 3.77028 20.9352 3.52119ZM10.8352 18.8712H9.83518C9.1874 18.8351 8.57076 18.5815 8.08518 18.1512C7.60132 17.7152 7.28329 17.1251 7.18515 16.4812L6.94516 14.7612C6.90803 14.496 6.97785 14.2269 7.13913 14.0131C7.30041 13.7993 7.53993 13.6583 7.80515 13.6212C8.07036 13.584 8.33953 13.6538 8.55332 13.8151C8.76711 13.9764 8.90803 14.216 8.94516 14.4812L9.18515 16.1812C9.21203 16.367 9.30421 16.5372 9.44516 16.6612C9.5849 16.7895 9.76565 16.8638 9.95517 16.8712H10.9552C11.2204 16.8712 11.4748 16.9765 11.6623 17.1641C11.8499 17.3516 11.9552 17.606 11.9552 17.8712C11.9552 18.1364 11.8499 18.3908 11.6623 18.5783C11.4748 18.7659 11.2204 18.8712 10.9552 18.8712H10.8352ZM18.8352 9.64119C16.7252 10.0512 14.9252 10.1312 13.0152 8.64119C10.6452 6.77119 7.77523 7.37121 5.01523 8.35121L4.51523 4.11122C4.50539 4.06845 4.50539 4.02399 4.51523 3.98122C4.52884 3.9392 4.55288 3.9013 4.58518 3.87117C4.60884 3.83426 4.64395 3.8062 4.68515 3.79121C4.72438 3.78009 4.76592 3.78009 4.80515 3.79121H19.2052H19.3252C19.3627 3.81219 19.3964 3.83918 19.4251 3.87117C19.4545 3.90188 19.4753 3.93988 19.4852 3.98122C19.5004 4.02664 19.5004 4.07575 19.4852 4.12117L18.8352 9.64119Z" fill="black"/>
</svg>
