<svg width="24" height="24" viewBox="0 0 24 24" fill="none" xmlns="http://www.w3.org/2000/svg">
<path d="M21.7625 11.3821C21.5234 12.3551 21.0937 13.2709 20.4982 14.0765C19.9028 14.882 19.1536 15.5612 18.2939 16.0747C17.4342 16.5881 16.4811 16.9257 15.49 17.0677C14.499 17.2098 13.4897 17.1535 12.5206 16.9021C12.3014 16.8421 12.0702 16.8421 11.8511 16.9021C11.636 16.9501 11.4388 17.0575 11.2816 17.2121L7.01533 21.5021C6.85251 21.658 6.66293 21.7833 6.45576 21.8721C6.24369 21.9603 6.01604 22.0045 5.78642 22.0021C5.56002 22.0045 5.33551 21.9603 5.12696 21.8721C4.91846 21.7858 4.72857 21.6602 4.56751 21.5021L2.49923 19.4321C2.33807 19.2735 2.21211 19.0827 2.12956 18.8721C1.95681 18.4456 1.95681 17.9686 2.12956 17.5421C2.21211 17.3315 2.33807 17.1407 2.49923 16.9821L6.77555 12.7021C6.93244 12.5491 7.04317 12.3551 7.09522 12.1421C7.15518 11.933 7.15518 11.7112 7.09522 11.5021C6.7521 10.1888 6.76774 8.80734 7.14034 7.50211C7.51294 6.19687 8.22883 5.01574 9.21337 4.08209C10.1899 3.1534 11.3975 2.50413 12.7103 2.20209C14.0312 1.88574 15.4134 1.93761 16.7069 2.35208C16.8309 2.38824 16.9433 2.45629 17.0329 2.54945C17.1224 2.64262 17.1861 2.75765 17.2174 2.88309C17.2487 3.00852 17.2468 3.13999 17.2115 3.26439C17.1763 3.38879 17.1091 3.50177 17.0167 3.59209L14.0991 6.52208C13.7461 6.90742 13.547 7.40928 13.5397 7.93208C13.5278 8.16104 13.6027 8.38604 13.7495 8.56209L15.4679 10.2921C15.5973 10.3866 15.7457 10.4516 15.9028 10.4827C16.0598 10.5138 16.2217 10.5102 16.3772 10.4721C16.8015 10.4141 17.1985 10.2294 17.5162 9.94209L20.4337 7.01209C20.5263 6.92276 20.6395 6.85776 20.7633 6.82286C20.887 6.78797 21.0175 6.78426 21.1431 6.81209C21.2695 6.84289 21.3857 6.90612 21.4803 6.99555C21.5749 7.08497 21.6447 7.19751 21.6826 7.32208C22.0767 8.64311 22.1043 10.0465 21.7625 11.3821Z" fill="black"/>
</svg>
