<svg width="24" height="24" viewBox="0 0 24 24" fill="none" xmlns="http://www.w3.org/2000/svg">
<path d="M12 2.25C10.0717 2.25 8.18659 2.82184 6.58321 3.89319C4.97983 4.96453 3.73016 6.48728 2.99221 8.26886C2.25425 10.0504 2.06113 12.0108 2.43734 13.9022C2.81354 15.7935 3.74217 17.5308 5.10573 18.8943C6.4693 20.2579 8.20655 21.1865 10.0979 21.5627C11.9892 21.9389 13.9496 21.7458 15.7312 21.0079C17.5127 20.2699 19.0355 19.0202 20.1068 17.4168C21.1782 15.8134 21.75 13.9284 21.75 12C21.7474 9.41495 20.7193 6.93655 18.8914 5.10864C17.0635 3.28074 14.5851 2.25265 12 2.25ZM16.28 15.25C16.4204 15.3906 16.4993 15.5813 16.4993 15.78C16.4993 15.9788 16.4204 16.1694 16.28 16.31C16.1371 16.4472 15.948 16.5257 15.75 16.53C15.5512 16.5299 15.3605 16.4507 15.22 16.31L12 13.09L8.77999 16.31C8.63714 16.4472 8.44802 16.5257 8.25002 16.53C8.05118 16.5299 7.86051 16.4507 7.71999 16.31C7.64923 16.2411 7.59304 16.1587 7.55465 16.0676C7.51625 15.9766 7.49642 15.8788 7.49642 15.78C7.49642 15.6812 7.51625 15.5835 7.55465 15.4924C7.59304 15.4014 7.64923 15.3189 7.71999 15.25L10.94 12.03L7.71999 8.81C7.58751 8.66782 7.51539 8.47982 7.51882 8.28552C7.52225 8.09122 7.60095 7.90585 7.73836 7.76843C7.87578 7.63102 8.06121 7.55226 8.25551 7.54883C8.44982 7.5454 8.63781 7.61752 8.77999 7.75L12 10.97L15.22 7.75C15.2889 7.67924 15.3714 7.62305 15.4624 7.58466C15.5534 7.54626 15.6512 7.52643 15.75 7.52643C15.8488 7.52643 15.9466 7.54626 16.0376 7.58466C16.1286 7.62305 16.211 7.67924 16.28 7.75C16.4204 7.89063 16.4993 8.08128 16.4993 8.28003C16.4993 8.47878 16.4204 8.66937 16.28 8.81L13.06 12.03L16.28 15.25Z" fill="black"/>
</svg>
