<svg width="24" height="24" viewBox="0 0 24 24" fill="none" xmlns="http://www.w3.org/2000/svg">
<path d="M16.46 2.25H7.53998C6.13698 2.25 4.79144 2.80737 3.79938 3.79944C2.80731 4.79151 2.24994 6.13704 2.24994 7.54004V16.46C2.25258 17.8622 2.81081 19.2062 3.80231 20.1977C4.7938 21.1892 6.13779 21.7474 7.53998 21.75H16.46C17.8621 21.7474 19.2061 21.1892 20.1976 20.1977C21.1891 19.2062 21.7473 17.8622 21.7499 16.46V7.59003C21.7552 6.8915 21.6224 6.19881 21.359 5.55182C21.0956 4.90482 20.7069 4.31627 20.2153 3.82001C19.7237 3.32374 19.1389 2.92959 18.4944 2.66016C17.8499 2.39072 17.1585 2.2513 16.46 2.25ZM16.28 15.25C16.4204 15.3906 16.4993 15.5813 16.4993 15.78C16.4993 15.9788 16.4204 16.1694 16.28 16.31C16.1371 16.4472 15.9479 16.5257 15.7499 16.53C15.5511 16.5299 15.3605 16.4507 15.22 16.31L11.9999 13.09L8.77997 16.31C8.63712 16.4472 8.44794 16.5257 8.24994 16.53C8.05109 16.5299 7.86049 16.4507 7.71997 16.31C7.64921 16.2411 7.59296 16.1587 7.55457 16.0676C7.51617 15.9766 7.4964 15.8788 7.4964 15.78C7.4964 15.6812 7.51617 15.5835 7.55457 15.4924C7.59296 15.4014 7.64921 15.3189 7.71997 15.25L10.9399 12.03L7.71997 8.81C7.58749 8.66782 7.51537 8.47982 7.5188 8.28552C7.52223 8.09122 7.60093 7.90585 7.73834 7.76843C7.87576 7.63102 8.06113 7.55226 8.25543 7.54883C8.44973 7.5454 8.63779 7.61752 8.77997 7.75L11.9999 10.97L15.22 7.75C15.2889 7.67924 15.3713 7.62305 15.4623 7.58466C15.5534 7.54626 15.6511 7.52643 15.7499 7.52643C15.8487 7.52643 15.9466 7.54626 16.0376 7.58466C16.1286 7.62305 16.211 7.67924 16.28 7.75C16.4204 7.89063 16.4993 8.08128 16.4993 8.28003C16.4993 8.47878 16.4204 8.66937 16.28 8.81L13.08 12L16.28 15.25Z" fill="black"/>
</svg>
