<svg width="24" height="24" viewBox="0 0 24 24" fill="none" xmlns="http://www.w3.org/2000/svg">
<path d="M5.54889 19.2046C5.45035 19.2051 5.35273 19.1859 5.26172 19.1481C5.17071 19.1103 5.08817 19.0547 5.01892 18.9846C4.87847 18.844 4.79956 18.6533 4.79956 18.4546C4.79956 18.2558 4.87847 18.0652 5.01892 17.9246L17.9289 5.01459C18.0695 4.87414 18.2601 4.79529 18.4589 4.79529C18.6576 4.79529 18.8483 4.87414 18.9889 5.01459C19.0596 5.08353 19.1159 5.16599 19.1543 5.25702C19.1927 5.34805 19.2125 5.44582 19.2125 5.54462C19.2125 5.64341 19.1927 5.74119 19.1543 5.83221C19.1159 5.92324 19.0596 6.00564 18.9889 6.07458L6.07892 18.9846C6.01002 19.0552 5.92752 19.1111 5.83643 19.1489C5.74533 19.1867 5.64751 19.2056 5.54889 19.2046Z" fill="black"/>
<path d="M18.4589 19.2045C18.3603 19.205 18.2627 19.1858 18.1717 19.148C18.0807 19.1102 17.9981 19.0547 17.9289 18.9846L4.98889 6.07452C4.85641 5.93234 4.78429 5.74434 4.78771 5.55004C4.79114 5.35574 4.86984 5.17031 5.00726 5.03289C5.14467 4.89548 5.33005 4.81678 5.52435 4.81335C5.71865 4.80992 5.90671 4.88204 6.04888 5.01452L18.9889 17.9246C19.0596 17.9935 19.1159 18.0759 19.1543 18.1669C19.1927 18.258 19.2125 18.3557 19.2125 18.4545C19.2125 18.5533 19.1927 18.6511 19.1543 18.7421C19.1159 18.8331 19.0596 18.9156 18.9889 18.9846C18.9207 19.0561 18.8384 19.1126 18.7471 19.1504C18.6559 19.1883 18.5576 19.2068 18.4589 19.2045Z" fill="black"/>
</svg>
