<svg width="24" height="24" viewBox="0 0 24 24" fill="none" xmlns="http://www.w3.org/2000/svg">
<path d="M21.25 8.63154C21.1512 8.63289 21.0531 8.61438 20.9615 8.57707C20.8699 8.53976 20.7866 8.48443 20.7167 8.41434C20.6468 8.34425 20.5916 8.26082 20.5544 8.16899C20.5172 8.07716 20.4987 7.97877 20.5 7.87966V5.87465C20.4948 5.25411 20.2466 4.66047 19.8089 4.22166C19.3712 3.78286 18.7791 3.53402 18.1601 3.52879H15.08C14.8811 3.52879 14.6904 3.44957 14.5497 3.30857C14.4091 3.16756 14.33 2.97632 14.33 2.7769C14.33 2.57749 14.4091 2.38625 14.5497 2.24524C14.6904 2.10424 14.8811 2.02502 15.08 2.02502H18.1601C18.6639 2.02587 19.1626 2.12637 19.6277 2.32076C20.0927 2.51515 20.5148 2.79962 20.87 3.15786C21.2301 3.51191 21.5156 3.93478 21.7097 4.40144C21.9038 4.86809 22.0025 5.36905 22 5.87465V7.87966C22 8.07907 21.921 8.27032 21.7804 8.41133C21.6397 8.55233 21.4489 8.63154 21.25 8.63154Z" fill="black"/>
<path d="M18.1601 22.025H15.08C14.8811 22.025 14.6904 21.9458 14.5497 21.8048C14.4091 21.6638 14.33 21.4725 14.33 21.2731C14.33 21.0737 14.4091 20.8825 14.5497 20.7415C14.6904 20.6005 14.8811 20.5212 15.08 20.5212H18.1601C18.7789 20.5212 19.3726 20.2755 19.8111 19.8377C20.2497 19.3999 20.4974 18.8058 20.5 18.1854V16.1102C20.5 15.9108 20.579 15.7196 20.7197 15.5786C20.8603 15.4375 21.0511 15.3583 21.25 15.3583C21.4489 15.3583 21.6397 15.4375 21.7804 15.5786C21.921 15.7196 22 15.9108 22 16.1102V18.1754C22.0014 18.6808 21.9022 19.1814 21.7082 19.6479C21.5141 20.1144 21.2292 20.5374 20.87 20.8922C20.1508 21.6129 19.177 22.02 18.1601 22.025Z" fill="black"/>
<path d="M8.91008 22.025H5.83006C4.81457 22.0227 3.84088 21.6193 3.12004 20.9022C2.76226 20.547 2.47888 20.1237 2.28655 19.6571C2.09421 19.1906 1.99682 18.6902 2.00005 18.1854V16.1102C2.00005 15.9108 2.07906 15.7196 2.21971 15.5786C2.36037 15.4375 2.55113 15.3583 2.75005 15.3583C2.94896 15.3583 3.13973 15.4375 3.28038 15.5786C3.42103 15.7196 3.50005 15.9108 3.50005 16.1102V18.1754C3.49886 18.4824 3.55832 18.7867 3.67504 19.0706C3.79175 19.3545 3.96338 19.6125 4.18004 19.8295C4.61923 20.2654 5.21205 20.5103 5.83006 20.5112H8.91008C9.10899 20.5112 9.29976 20.5904 9.44042 20.7314C9.58107 20.8724 9.66008 21.0637 9.66008 21.2631C9.66008 21.4625 9.58107 21.6538 9.44042 21.7948C9.29976 21.9358 9.10899 22.015 8.91008 22.015V22.025Z" fill="black"/>
<path d="M2.75005 8.63154C2.65119 8.63289 2.55308 8.61438 2.46148 8.57707C2.36987 8.53976 2.28664 8.48443 2.21672 8.41434C2.14681 8.34425 2.09165 8.26082 2.05443 8.16899C2.01722 8.07716 1.9987 7.97877 2.00005 7.87966V5.87465C1.99569 5.36968 2.09263 4.86899 2.28502 4.40229C2.47742 3.93559 2.76135 3.51241 3.12004 3.15786C3.47523 2.79962 3.89745 2.51515 4.36248 2.32076C4.82751 2.12637 5.32623 2.02587 5.83007 2.02502H8.91008C9.109 2.02502 9.29977 2.10424 9.44042 2.24524C9.58107 2.38625 9.66008 2.57749 9.66008 2.7769C9.66008 2.97632 9.58107 3.16756 9.44042 3.30857C9.29977 3.44957 9.109 3.52879 8.91008 3.52879H5.83007C5.21119 3.53144 4.61855 3.77977 4.18187 4.21942C3.7452 4.65906 3.50004 5.25422 3.50005 5.87465V7.87966C3.50005 8.07907 3.42104 8.27032 3.28038 8.41133C3.13973 8.55233 2.94896 8.63154 2.75005 8.63154Z" fill="black"/>
<path d="M18.3901 10.7368C18.3635 10.9579 18.2809 11.1684 18.1501 11.3484L11.6401 20.1203C11.5735 20.2037 11.4962 20.2779 11.4101 20.3409C11.3005 20.4091 11.1778 20.4535 11.05 20.4712H10.9001C10.7941 20.4884 10.686 20.4884 10.5801 20.4712C10.3792 20.3801 10.2139 20.225 10.11 20.0301C10.1046 19.9935 10.1046 19.9564 10.11 19.9198C10.0648 19.766 10.0648 19.6024 10.11 19.4486L10.74 14.6165H6.74005C6.51077 14.6146 6.28715 14.5451 6.09692 14.4168C5.90669 14.2885 5.75828 14.1069 5.6701 13.8947C5.66597 13.8581 5.66597 13.8211 5.6701 13.7844C5.6201 13.5803 5.6201 13.367 5.6701 13.1629C5.709 12.9888 5.78392 12.8249 5.89007 12.6817L12.3701 3.8897C12.4351 3.79236 12.5204 3.71029 12.6201 3.64911C12.6635 3.61979 12.7106 3.5962 12.7601 3.57893C12.9646 3.51088 13.1856 3.51088 13.3901 3.57893C13.5894 3.66742 13.7544 3.81879 13.86 4.01C13.864 4.05 13.864 4.09031 13.86 4.13031C13.9051 4.28071 13.9051 4.44105 13.86 4.59146L13.24 9.43357H17.24C17.4597 9.43314 17.6748 9.49576 17.86 9.61403C18.0577 9.74598 18.2111 9.93465 18.3 10.1554C18.3772 10.3388 18.4081 10.5385 18.3901 10.7368Z" fill="black"/>
</svg>
