<svg width="24" height="24" viewBox="0 0 24 24" fill="none" xmlns="http://www.w3.org/2000/svg">
<path d="M8.27897 21.2343C8.17851 21.2338 8.0791 21.2139 7.98617 21.1757C6.20578 20.3922 4.69185 19.1076 3.62893 17.4785C2.566 15.8494 2 13.9463 2 12.0011C2 10.056 2.566 8.15281 3.62893 6.52374C4.69185 4.89466 6.20578 3.61005 7.98617 2.82653C8.07461 2.78808 8.16974 2.76742 8.26616 2.76574C8.36258 2.76406 8.45839 2.78138 8.54811 2.81673C8.63784 2.85208 8.71977 2.90474 8.78914 2.97174C8.85851 3.03873 8.91397 3.11874 8.95242 3.20718C8.99088 3.29562 9.01157 3.39076 9.01325 3.48718C9.01493 3.5836 8.9976 3.67942 8.96225 3.76915C8.92691 3.85887 8.87418 3.94074 8.80719 4.01011C8.7402 4.07948 8.6602 4.13498 8.57176 4.17343C7.06324 4.84641 5.78198 5.94197 4.88285 7.32764C3.98372 8.71331 3.50526 10.3298 3.50526 11.9816C3.50526 13.6334 3.98372 15.2499 4.88285 16.6356C5.78198 18.0212 7.06324 19.1168 8.57176 19.7898C8.75149 19.8689 8.89251 20.0161 8.96386 20.1991C9.03522 20.3821 9.0311 20.5859 8.95242 20.7658C8.90094 20.903 8.80899 21.0213 8.6887 21.1049C8.56842 21.1886 8.42549 21.2337 8.27897 21.2343Z" fill="black"/>
<path d="M15.7065 21.2051C15.5351 21.2132 15.3664 21.1599 15.2306 21.0549C15.0949 20.9499 15.001 20.7999 14.9658 20.632C14.9305 20.464 14.9563 20.289 15.0383 20.1382C15.1204 19.9875 15.2535 19.8709 15.4137 19.8094C16.9222 19.1364 18.2035 18.0409 19.1026 16.6552C20.0017 15.2695 20.4803 13.6531 20.4803 12.0013C20.4803 10.3494 20.0017 8.73297 19.1026 7.34729C18.2035 5.96162 16.9222 4.86606 15.4137 4.19308C15.3253 4.15463 15.2453 4.09914 15.1783 4.02977C15.1113 3.9604 15.0586 3.87851 15.0233 3.78878C14.9879 3.69906 14.9706 3.60325 14.9723 3.50683C14.974 3.41041 14.9946 3.31527 15.033 3.22683C15.0715 3.13839 15.127 3.05838 15.1964 2.99139C15.2658 2.9244 15.3476 2.87173 15.4374 2.83638C15.5271 2.80104 15.6229 2.78371 15.7193 2.78539C15.8157 2.78707 15.9109 2.80773 15.9994 2.84618C17.7832 3.6265 19.3009 4.90994 20.3667 6.53941C21.4324 8.16889 22 10.0737 22 12.0208C22 13.9678 21.4324 15.8727 20.3667 17.5021C19.3009 19.1316 17.7832 20.415 15.9994 21.1954C15.9032 21.2171 15.8038 21.2204 15.7065 21.2051Z" fill="black"/>
<path d="M18.2344 10.7643C18.2085 10.9795 18.1278 11.1845 18.0002 11.3596L11.6463 19.8998C11.5813 19.9811 11.5058 20.0533 11.4218 20.1146C11.3149 20.181 11.1951 20.2242 11.0704 20.2414H10.924C10.8206 20.2582 10.7151 20.2582 10.6117 20.2414C10.4156 20.1528 10.2543 20.0018 10.1529 19.812C10.1476 19.7764 10.1476 19.7402 10.1529 19.7046C10.1087 19.5549 10.1087 19.3956 10.1529 19.2459L10.7678 14.5415H6.86375C6.63996 14.5395 6.42171 14.4719 6.23604 14.347C6.05037 14.2221 5.90552 14.0453 5.81946 13.8387C5.81543 13.8031 5.81543 13.767 5.81946 13.7314C5.77065 13.5326 5.77065 13.325 5.81946 13.1262C5.85742 12.9568 5.93055 12.7971 6.03415 12.6578L12.3588 4.09804C12.4222 4.00327 12.5055 3.92337 12.6028 3.8638C12.6452 3.83526 12.6911 3.81229 12.7394 3.79548C12.939 3.72923 13.1547 3.72923 13.3543 3.79548C13.5489 3.88163 13.7099 4.029 13.813 4.21516C13.8169 4.2541 13.8169 4.29334 13.813 4.33229C13.857 4.47872 13.857 4.63482 13.813 4.78125L13.2079 9.49544H17.112C17.3263 9.49502 17.5363 9.55599 17.7171 9.67113C17.91 9.7996 18.0597 9.98328 18.1466 10.1982C18.2218 10.3768 18.252 10.5712 18.2344 10.7643Z" fill="black"/>
</svg>
