<svg width="24" height="24" viewBox="0 0 24 24" fill="none" xmlns="http://www.w3.org/2000/svg">
<path d="M21.2685 20.0298L16.4984 15.2697C17.7538 13.7422 18.3735 11.7903 18.229 9.81839C18.0846 7.84647 17.1871 6.00565 15.7226 4.67734C14.258 3.34903 12.3385 2.63501 10.3619 2.6832C8.38529 2.73139 6.50299 3.53809 5.10489 4.93619C3.70679 6.33429 2.90009 8.21665 2.8519 10.1933C2.80371 12.1699 3.51773 14.0893 4.84604 15.5539C6.17435 17.0184 8.01511 17.9159 9.98703 18.0603C11.959 18.2048 13.9109 17.5851 15.4384 16.3297L20.2085 21.0998C20.3491 21.2402 20.5397 21.3191 20.7384 21.3191C20.9372 21.3191 21.1278 21.2402 21.2685 21.0998C21.3395 21.03 21.396 20.9467 21.4345 20.8548C21.473 20.763 21.4928 20.6644 21.4928 20.5648C21.4928 20.4652 21.473 20.3665 21.4345 20.2747C21.396 20.1828 21.3395 20.0996 21.2685 20.0298ZM11.3285 11.1398V14.1398C11.3285 14.3387 11.2494 14.5294 11.1088 14.6701C10.9681 14.8107 10.7774 14.8898 10.5785 14.8898C10.3795 14.8898 10.1888 14.8107 10.0481 14.6701C9.90747 14.5294 9.82846 14.3387 9.82846 14.1398V11.1398H6.82846C6.62955 11.1398 6.43878 11.0607 6.29813 10.9201C6.15747 10.7794 6.07846 10.5887 6.07846 10.3898C6.07846 10.1909 6.15747 10.0001 6.29813 9.85947C6.43878 9.71882 6.62955 9.6398 6.82846 9.6398H9.82846V6.6998C9.82846 6.50089 9.90747 6.31012 10.0481 6.16946C10.1888 6.02881 10.3795 5.9498 10.5785 5.9498C10.7774 5.9498 10.9681 6.02881 11.1088 6.16946C11.2494 6.31012 11.3285 6.50089 11.3285 6.6998V9.60977H14.2685C14.4674 9.60977 14.6581 9.68879 14.7988 9.82944C14.9395 9.97009 15.0185 10.1609 15.0185 10.3598C15.0185 10.5587 14.9395 10.7495 14.7988 10.8901C14.6581 11.0308 14.4674 11.1098 14.2685 11.1098L11.3285 11.1398Z" fill="black"/>
</svg>
